<svg xmlns="http://www.w3.org/2000/svg" width="576.38" height="126.24" viewBox="0 -3.52 91.35 20.01" fill="currentColor" font-family="Linux Libertine"><style type="text/css">tspan{white-space:pre}</style><rect width=".2" height="4" x="0" y="-2" ry="0" transform="translate(40.587 1.639)" /><path stroke="currentColor" stroke-linecap="round" stroke-linejoin="round" stroke-width=".1" d="M.05 3.639H91.3M.05 2.639H91.3M.05 1.639H91.3M.05.639H91.3M.05-.361H91.3" /><rect width=".62" height="4" x="0" y="-2" ry="0" transform="translate(90.728 1.639)" /><rect width=".2" height="4" x="0" y="-2" ry="0" transform="translate(90.22 1.639)" /><rect width=".2" height="4" x="0" y="-2" ry="0" transform="translate(81.362 1.639)" /><rect width=".2" height="4" x="0" y="-2" ry="0" transform="translate(61.882 1.639)" /><path stroke="currentColor" stroke-linecap="round" stroke-linejoin="round" stroke-width=".08" d="M79.87.252v.396L75.99.025v-.396z" /><text font-size="1.85" text-anchor="start" transform="translate(10.135 -1.88)">
<tspan>Sol</tspan>
</text><path d="M10.135 4.323c0-.364.464-.728.868-.728.252 0 .436.14.436.36 0 .348-.44.728-.88.728-.268 0-.424-.156-.424-.36M1.864 5.179H1.84a.783.783 0 0 1-.78-.788c0-.232.212-.412.448-.412.216 0 .38.188.38.412 0 .208-.172.38-.38.38a.3.3 0 0 1-.124-.024c.104.156.272.26.468.26h.016zm.54-3.144c.076.356.192.968.24 1.416a.67.67 0 0 0 .448-.652.753.753 0 0 0-.688-.764m-1.308.492c0 .448.392.988 1.112.988q.127 0 .272-.024a17 17 0 0 0-.252-1.456c-.316.032-.496.244-.496.476 0 .176.1.364.324.492q.029.03.028.06c0 .044-.04.088-.088.088-.06 0-.504-.248-.504-.748 0-.352.232-.696.64-.788a15 15 0 0 0-.184-.7c-.428.484-.852.972-.852 1.612m1.132-4.664c.112 0 .572.824.572 1.444 0 .572-.344 1.02-.72 1.456.084.272.156.552.224.828q.031-.002.056-.004c.62 0 1.02.516 1.02 1.048 0 .452-.296.848-.72.98q.019.21.02.42-.001.116-.008.232c-.028.476-.352.9-.808.912l.004-.172c.372-.008.612-.368.636-.764q.007-.11.008-.22c0-.124-.004-.244-.016-.368q-.169.031-.32.032C1.22 3.687.808 2.819.808 2.19c0-.708.524-1.224.992-1.764-.116-.384-.208-.68-.208-1.384 0-.756.576-1.18.636-1.18M1.788-.49c0 .22.048.46.14.76.328-.4.588-.808.588-1.304 0-.16-.024-.328-.084-.508A1.13 1.13 0 0 0 1.788-.49M4.185-.837c0-.032.02-.06.052-.072l.184-.068v-.632c0-.04.032-.076.072-.076s.076.036.076.076v.58l.332-.124v-.632c0-.04.036-.076.076-.076s.072.036.072.076v.58l.128-.048q.014-.005.028-.004a.08.08 0 0 1 .08.08v.24c0 .032-.02.064-.052.076l-.184.064v.64l.128-.044q.014-.005.028-.004a.08.08 0 0 1 .08.08v.24c0 .032-.02.06-.052.072l-.184.068v.632c0 .04-.032.076-.072.076S4.901.927 4.901.887v-.58L4.569.43v.632c0 .04-.036.076-.076.076s-.072-.036-.072-.076v-.58L4.293.53q-.014.005-.028.004a.08.08 0 0 1-.08-.08v-.24c0-.032.02-.064.052-.076l.184-.064v-.64l-.128.044q-.014.005-.028.004a.08.08 0 0 1-.08-.08zm.716.096-.332.12v.64l.332-.12zM8.167 1.995c0 .088-.2.696-.732.696-.236 0-1-.076-1-1.052 0-.248.072-1.048 1-1.048.464 0 .704.424.704.652 0 .16-.12.288-.268.288-.124 0-.3-.1-.3-.3 0-.152.108-.308.288-.308q.025-.001.056.004a.6.6 0 0 0-.48-.236c-.424 0-.452.292-.452.744v.408c0 .452.028.748.452.748.32 0 .556-.28.632-.604.008-.028.028-.04.048-.04.024 0 .052.016.052.048" /><text font-size="2.51" text-anchor="start" transform="translate(8.2 6.969)">
<tspan>Gran</tspan>
</text><rect width=".13" height="4.13" x="-.07" y="-1.82" ry=".04" transform="translate(11.372 1.639)" /><path d="M16.146 2.823c0-.364.464-.728.868-.728.252 0 .436.14.436.36 0 .348-.44.728-.88.728-.268 0-.424-.156-.424-.36" /><text font-size="2.51" text-anchor="start" transform="translate(13.875 6.969)">
<tspan>des</tspan>
</text><path d="M18.59 7.429c0 .055-.387.4-1.073.4s-1.072-.345-1.072-.4c0-.033.028-.065.065-.065.014 0 .027 0 .041.014.258.225.621.24.966.24s.709-.015.966-.24c.014-.014.028-.014.042-.014.037 0 .064.032.064.065" /><text font-size="2.51" text-anchor="start" transform="translate(17.817 6.969)">
<tspan>et</tspan>
</text><rect width=".13" height="3.07" x="-.07" y="-2.25" ry=".04" transform="translate(17.383 1.639)" /><text font-size="1.85" text-anchor="start" transform="translate(21.983 -1.88)">
<tspan>Ré</tspan>
</text><path d="M21.983 2.323c0-.364.464-.728.868-.728.252 0 .436.14.436.36 0 .348-.44.728-.88.728-.268 0-.424-.156-.424-.36" /><text font-size="2.51" text-anchor="start" transform="translate(20.622 6.969)">
<tspan>mer</tspan>
</text><rect width=".13" height="2.99" x="-.07" y="-2.68" ry=".04" transform="translate(23.22 1.639)" /><rect width="3.64" height=".08" x="0" y="-.08" ry=".03" transform="translate(64.474 6.969)" /><path d="M26.328 1.823c0-.364.464-.728.868-.728.252 0 .436.14.436.36 0 .348-.44.728-.88.728-.268 0-.424-.156-.424-.36" /><text font-size="2.51" text-anchor="start" transform="translate(25.147 6.969)">
<tspan>veil</tspan>
</text><rect width=".13" height="2.81" x="-.07" y="-3" ry=".04" transform="translate(27.565 1.639)" /><path stroke="currentColor" stroke-linecap="round" stroke-linejoin="round" stroke-width=".08" d="M63.803.157c1-.54 2.867-.364 3.705.35h0c-.85-.59-2.716-.766-3.705-.35" /><text font-size="1.85" text-anchor="start" transform="translate(30.207 -1.88)">
<tspan>Mi</tspan>
</text><text font-size="1.85" text-anchor="start" transform="translate(32.927 -1.88)">
<tspan>m</tspan>
</text><text font-size="1.31" text-anchor="start" transform="translate(34.437 -2.72)">
<tspan>7</tspan>
</text><path d="M30.207 1.823c0-.364.464-.728.868-.728.252 0 .436.14.436.36 0 .348-.44.728-.88.728-.268 0-.424-.156-.424-.36" /><text font-size="2.51" text-anchor="start" transform="translate(29.313 6.969)">
<tspan>leu</tspan>
</text><rect width=".13" height="3.15" x="-.07" y=".19" ry=".04" transform="translate(30.274 1.639)" /><path d="M33.893 2.323c0-.364.464-.728.868-.728.252 0 .436.14.436.36 0 .348-.44.728-.88.728-.268 0-.424-.156-.424-.36" /><text font-size="2.51" text-anchor="start" transform="translate(33.017 6.969)">
<tspan>ses</tspan>
</text><rect width=".13" height="2.5" x="-.07" y="-2.19" ry=".04" transform="translate(35.13 1.639)" /><path stroke="currentColor" stroke-linecap="round" stroke-linejoin="round" stroke-width=".08" d="M52.835-.748v.396l-4.85.188v-.395z" /><path d="M37.758 2.823c0-.364.464-.728.868-.728.252 0 .436.14.436.36 0 .348-.44.728-.88.728-.268 0-.424-.156-.424-.36" /><text font-size="2.51" text-anchor="start" transform="translate(36.972 6.969)">
<tspan>tes</tspan>
</text><rect width=".13" height="2.82" x="-.07" y="-2" ry=".04" transform="translate(38.995 1.639)" /><rect width=".36" height=".13" x="0" y="-.56" ry=".04" transform="translate(53.804 6.969)" /><text font-size="1.85" text-anchor="start" transform="translate(41.73 -1.88)">
<tspan>La</tspan>
</text><text font-size="1.85" text-anchor="start" transform="translate(44.164 -1.88)">
<tspan>m</tspan>
</text><path d="M41.73 3.823c0-.364.465-.728.869-.728.252 0 .436.14.436.36 0 .348-.44.728-.88.728-.268 0-.424-.156-.424-.36" /><text font-size="2.51" text-anchor="start" transform="translate(40.747 6.969)">
<tspan>œu</tspan>
</text><rect width=".13" height="3.31" x="-.07" y="-1.5" ry=".04" transform="translate(42.968 1.639)" /><path stroke="currentColor" stroke-linecap="round" stroke-linejoin="round" stroke-width=".08" d="M39.02-.56v.397l-3.916-.189v-.396z" /><text font-size="1.85" text-anchor="start" transform="translate(46.773 -1.88)">
<tspan>La</tspan>
</text><path d="M46.773 2.823c0-.364.464-.728.868-.728.252 0 .436.14.436.36 0 .348-.44.728-.88.728-.268 0-.424-.156-.424-.36" /><text font-size="2.51" text-anchor="start" transform="translate(45.035 6.969)">
<tspan>vres,</tspan>
</text><rect width=".13" height="2.82" x="-.07" y="-2" ry=".04" transform="translate(48.01 1.639)" /><rect width=".66" height=".13" x="0" y="-.56" ry=".04" transform="translate(44.197 6.969)" /><path d="M51.573 2.323c0-.364.464-.728.868-.728.252 0 .436.14.436.36 0 .348-.44.728-.88.728-.268 0-.424-.156-.424-.36" /><text font-size="2.51" text-anchor="start" transform="translate(50.715 6.969)">
<tspan>Sei</tspan>
</text><rect width=".13" height="2.5" x="-.07" y="-2.19" ry=".04" transform="translate(52.81 1.639)" /><rect width=".66" height=".13" x="0" y="-.56" ry=".04" transform="translate(80.747 6.969)" /><path d="M57.032 2.563c.16 0 .816-.44.924-.572A.2.2 0 0 0 58 1.879a.166.166 0 0 0-.168-.164c-.16 0-.816.44-.924.572a.2.2 0 0 0-.04.112c0 .088.068.164.164.164m-.288-.156c0-.284.184-.812 1.032-.812.164 0 .344.04.344.276 0 .284-.184.812-1.032.812-.164 0-.344-.04-.344-.276" /><text font-size="2.51" text-anchor="start" transform="translate(54.234 6.969)">
<tspan>gneur,</tspan>
</text><rect width=".13" height="3.24" x="-.07" y="-3" ry=".04" transform="translate(58.054 1.639)" /><text font-size="1.85" text-anchor="start" transform="translate(63.11 -1.88)">
<tspan>Do</tspan>
</text><path d="M63.11 1.323c0-.364.464-.728.868-.728.252 0 .436.14.436.36 0 .348-.44.728-.88.728-.268 0-.424-.156-.424-.36" /><text font-size="2.51" text-anchor="start" transform="translate(63.134 6.969)">
<tspan>ô</tspan>
</text><rect width=".13" height="3.31" x="-.07" y="-.31" ry=".04" transform="translate(63.178 1.639)" /><path stroke="currentColor" stroke-linecap="round" stroke-linejoin="round" stroke-width=".08" d="M27.59-1.56v.396L11.347.025v-.396z" /><text font-size="1.85" text-anchor="start" transform="translate(66.815 -1.88)">
<tspan>Sol</tspan>
</text><path d="M66.815 1.823c0-.364.464-.728.868-.728.252 0 .436.14.436.36 0 .348-.44.728-.88.728-.268 0-.424-.156-.424-.36" /><rect width=".13" height="3.15" x="-.07" y=".19" ry=".04" transform="translate(66.882 1.639)" /><rect width=".47" height=".13" x="0" y="-.56" ry=".04" transform="translate(32.474 6.969)" /><text font-size="1.85" text-anchor="start" transform="translate(70.5 -1.88)">
<tspan>La</tspan>
</text><text font-size="1.85" text-anchor="start" transform="translate(72.933 -1.88)">
<tspan>m</tspan>
</text><path d="M70.5 2.323c0-.364.465-.728.869-.728.252 0 .436.14.436.36 0 .348-.44.728-.88.728-.268 0-.424-.156-.424-.36" /><text font-size="2.51" text-anchor="start" transform="translate(69.445 6.969)">
<tspan>Roi</tspan>
</text><rect width=".13" height="3.31" x="-.07" y="-3" ry=".04" transform="translate(71.737 1.639)" /><rect width=".36" height=".13" x="0" y="-.56" ry=".04" transform="translate(28.883 6.969)" /><path d="M74.779 2.823c0-.364.464-.728.868-.728.252 0 .436.14.436.36 0 .348-.44.728-.88.728-.268 0-.424-.156-.424-.36" /><text font-size="2.51" text-anchor="start" transform="translate(73.76 6.969)">
<tspan>des</tspan>
</text><rect width=".13" height="2.62" x="-.07" y="-1.8" ry=".04" transform="translate(76.016 1.639)" /><rect width=".36" height=".13" x="0" y="-.56" ry=".04" transform="translate(24.717 6.969)" /><path d="M78.608 3.823c0-.364.464-.728.868-.728.252 0 .436.14.436.36 0 .348-.44.728-.88.728-.268 0-.424-.156-.424-.36" /><text font-size="2.51" text-anchor="start" transform="translate(78.002 6.969)">
<tspan>na</tspan>
</text><rect width=".13" height="3.01" x="-.07" y="-1.2" ry=".04" transform="translate(79.845 1.639)" /><rect width=".36" height=".13" x="0" y="-.56" ry=".04" transform="translate(13.445 6.969)" /><text font-size="1.85" text-anchor="start" transform="translate(83.459 -1.88)">
<tspan>Sol</tspan>
</text><path d="M84.847 2.743a.55.55 0 0 0-.532-.556c-.092 0-.28.04-.28.356 0 .364.304.544.528.544.088 0 .284-.032.284-.344m-.408-.648c.576 0 .984.26.984.544s-.408.544-.984.544-.98-.26-.98-.544.404-.544.98-.544" /><text font-size="2.51" text-anchor="start" transform="translate(81.636 6.969)">
<tspan>tions.</tspan>
</text><text font-size="1.85" text-anchor="start" transform="translate(56.744 -1.88)">
<tspan>Ré</tspan>
</text><rect width=".2" height="4" x="0" y="-2" ry="0" transform="translate(24.166 12.027)" /><rect width="1.96" height=".2" x="49.91" y="-.1" ry=".1" transform="translate(0 15.027)" /><rect width="1.96" height=".2" x="14.64" y="-.1" ry=".1" transform="translate(0 15.027)" /><path stroke="currentColor" stroke-linecap="round" stroke-linejoin="round" stroke-width=".1" d="M.05 14.027h55.11M.05 13.027h55.11M.05 12.027h55.11M.05 11.027h55.11M.05 10.027h55.11" /><rect width=".62" height="4" x="0" y="-2" ry="0" transform="translate(54.59 12.027)" /><rect width=".2" height="4" x="0" y="-2" ry="0" transform="translate(54.083 12.027)" /><rect width=".2" height="4" x="0" y="-2" ry="0" transform="translate(41.911 12.027)" /><rect width=".2" height="4" x="0" y="-2" ry="0" transform="translate(41.404 12.027)" /><path stroke="currentColor" stroke-linecap="round" stroke-linejoin="round" stroke-width=".08" d="M18.983 11.641v.396l-2.804.188v-.396z" /><path d="M1.864 15.567H1.84a.783.783 0 0 1-.78-.788c0-.232.212-.412.448-.412.216 0 .38.188.38.412 0 .208-.172.38-.38.38a.3.3 0 0 1-.124-.024c.104.156.272.26.468.26h.016zm.54-3.144c.076.356.192.968.24 1.416a.67.67 0 0 0 .448-.652.753.753 0 0 0-.688-.764m-1.308.492c0 .448.392.988 1.112.988q.127 0 .272-.024a17 17 0 0 0-.252-1.456c-.316.032-.496.244-.496.476 0 .176.1.364.324.492q.029.03.028.06c0 .044-.04.088-.088.088-.06 0-.504-.248-.504-.748 0-.352.232-.696.64-.788a15 15 0 0 0-.184-.7c-.428.484-.852.972-.852 1.612m1.132-4.664c.112 0 .572.824.572 1.444 0 .572-.344 1.02-.72 1.456.084.272.156.552.224.828.02 0 .04-.004.056-.004.62 0 1.02.516 1.02 1.048 0 .452-.296.848-.72.98q.019.21.02.42c0 .076-.004.156-.008.232-.028.476-.352.9-.808.912l.004-.172c.372-.008.612-.368.636-.764q.007-.11.008-.22c0-.124-.004-.244-.016-.368q-.169.031-.32.032c-.956 0-1.368-.868-1.368-1.496 0-.708.524-1.224.992-1.764-.116-.384-.208-.68-.208-1.384 0-.756.576-1.18.636-1.18M1.788 9.9c0 .22.048.46.14.76.328-.4.588-.808.588-1.304 0-.16-.024-.328-.084-.508A1.13 1.13 0 0 0 1.788 9.9M4.185 9.551c0-.032.02-.06.052-.072l.184-.068V8.78c0-.04.032-.076.072-.076s.076.036.076.076v.58l.332-.124v-.632c0-.04.036-.076.076-.076s.072.036.072.076v.58l.128-.048q.014-.005.028-.004a.08.08 0 0 1 .08.08v.24c0 .032-.02.064-.052.076l-.184.064v.64l.128-.044q.014-.005.028-.004a.08.08 0 0 1 .08.08v.24c0 .032-.02.06-.052.072l-.184.068v.632c0 .04-.032.076-.072.076s-.076-.036-.076-.076v-.58l-.332.124v.632c0 .04-.036.076-.076.076s-.072-.036-.072-.076v-.58l-.128.048q-.014.005-.028.004a.08.08 0 0 1-.08-.08v-.24c0-.032.02-.064.052-.076l.184-.064v-.64l-.128.044q-.014.005-.028.004a.08.08 0 0 1-.08-.08zm.716.096-.332.12v.64l.332-.12z" /><text font-size="1.85" text-anchor="start" transform="translate(7.785 9.01)">
<tspan>Sol</tspan>
</text><path d="M10.165 15.167c0 .044-.036.08-.08.08s-.08-.036-.08-.08v-1.28c0-.044.036-.08.08-.08s.08.036.08.08zm-2.668 0c0 .044-.036.08-.08.08s-.08-.036-.08-.08v-1.28c0-.044.036-.08.08-.08s.08.036.08.08zm1.256-1.184c.012 0 .836.008.968.452v-.548c0-.044.036-.08.08-.08s.08.036.08.08v1.28c0 .044-.036.08-.08.08s-.08-.036-.08-.08v-.548c-.068.224-.424.452-.968.452-.012 0-.836-.008-.968-.452v.548c0 .044-.036.08-.08.08s-.08-.036-.08-.08v-1.28c0-.044.036-.08.08-.08s.08.036.08.08v.548c.068-.224.424-.452.968-.452m.408.648c0-.408-.36-.556-.536-.556-.092 0-.28.04-.28.356a.54.54 0 0 0 .532.544c.088 0 .284-.032.284-.344M14.967 15.711c0-.364.464-.728.868-.728.252 0 .436.14.436.36 0 .348-.44.728-.88.728-.268 0-.424-.156-.424-.36" /><rect width=".13" height="3.32" x="-.07" y="0" ry=".04" transform="translate(16.204 12.027)" /><path d="M17.721 14.711c0-.364.464-.728.868-.728.252 0 .436.14.436.36 0 .348-.44.728-.88.728-.268 0-.424-.156-.424-.36" /><rect width=".13" height="2.5" x="-.07" y="-.18" ry=".04" transform="translate(18.958 12.027)" /><text font-size="1.85" text-anchor="start" transform="translate(20.225 9.01)">
<tspan>Do</tspan>
</text><path d="M20.225 14.211c0-.364.464-.728.868-.728.252 0 .436.14.436.36 0 .348-.44.728-.88.728-.268 0-.424-.156-.424-.36" /><rect width=".13" height="3.31" x="-.07" y="-1.5" ry=".04" transform="translate(21.462 12.027)" /><text font-size="1.85" text-anchor="start" transform="translate(25.31 9.01)">
<tspan>La</tspan>
</text><text font-size="1.85" text-anchor="start" transform="translate(27.742 9.01)">
<tspan>m</tspan>
</text><path d="M27.69 14.667c0 .044-.037.08-.08.08s-.08-.036-.08-.08v-1.28c0-.044.035-.08.08-.08s.08.036.08.08zm-2.669 0c0 .044-.036.08-.08.08s-.08-.036-.08-.08v-1.28c0-.044.036-.08.08-.08s.08.036.08.08zm1.256-1.184c.012 0 .836.008.968.452v-.548c0-.044.036-.08.08-.08s.08.036.08.08v1.28c0 .044-.036.08-.08.08s-.08-.036-.08-.08v-.548c-.068.224-.424.452-.968.452-.012 0-.836-.008-.968-.452v.548c0 .044-.036.08-.08.08s-.08-.036-.08-.08v-1.28c0-.044.036-.08.08-.08s.08.036.08.08v.548c.068-.224.424-.452.968-.452m.408.648c0-.408-.36-.556-.536-.556-.092 0-.28.04-.28.356a.54.54 0 0 0 .532.544c.088 0 .284-.032.284-.344" /><text font-size="1.85" text-anchor="start" transform="translate(32.49 9.01)">
<tspan>Ré</tspan>
</text><path d="M32.49 13.211c0-.364.465-.728.869-.728.252 0 .436.14.436.36 0 .348-.44.728-.88.728-.268 0-.424-.156-.424-.36" /><rect width=".13" height="2.81" x="-.07" y="-2" ry=".04" transform="translate(33.728 12.027)" /><path d="M34.995 13.711c0-.364.464-.728.868-.728.252 0 .436.14.436.36 0 .348-.44.728-.88.728-.268 0-.424-.156-.424-.36" /><rect width=".13" height="3.13" x="-.07" y="-1.82" ry=".04" transform="translate(36.232 12.027)" /><text font-size="1.85" text-anchor="start" transform="translate(37.5 9.01)">
<tspan>Sol</tspan>
</text><path d="M37.5 13.211c0-.364.463-.728.867-.728.252 0 .436.14.436.36 0 .348-.44.728-.88.728-.268 0-.424-.156-.424-.36" /><rect width=".13" height="3.31" x="-.07" y="-2.5" ry=".04" transform="translate(38.736 12.027)" /><text font-size="1.85" text-anchor="start" transform="translate(43.054 9.01)">
<tspan>Sol</tspan>
</text><path d="M45.434 15.167c0 .044-.036.08-.08.08s-.08-.036-.08-.08v-1.28c0-.044.036-.08.08-.08s.08.036.08.08zm-2.668 0c0 .044-.036.08-.08.08s-.08-.036-.08-.08v-1.28c0-.044.036-.08.08-.08s.08.036.08.08zm1.256-1.184c.012 0 .836.008.968.452v-.548c0-.044.036-.08.08-.08s.08.036.08.08v1.28c0 .044-.036.08-.08.08s-.08-.036-.08-.08v-.548c-.068.224-.424.452-.968.452-.012 0-.836-.008-.968-.452v.548c0 .044-.036.08-.08.08s-.08-.036-.08-.08v-1.28c0-.044.036-.08.08-.08s.08.036.08.08v.548c.068-.224.424-.452.968-.452m.408.648c0-.408-.36-.556-.536-.556-.092 0-.28.04-.28.356a.54.54 0 0 0 .532.544c.088 0 .284-.032.284-.344" /><text color="rgba(100.0000%, 0.0000%, 0.0000%, 100.0000%)" font-size="3.3" font-weight="bold" text-anchor="start" transform="translate(40.876 16.595)">
<tspan>+</tspan>
</text><path d="M50.236 15.711c0-.364.464-.728.868-.728.252 0 .436.14.436.36 0 .348-.44.728-.88.728-.268 0-.424-.156-.424-.36" /><rect width=".13" height="3.31" x="-.07" y="0" ry=".04" transform="translate(51.473 12.027)" /><path stroke="currentColor" stroke-linecap="round" stroke-linejoin="round" stroke-width=".08" d="M36.257 10.018v.395l-2.554-.188V9.83z" /></svg>