<svg xmlns="http://www.w3.org/2000/svg" width="543.27" height="126.46" viewBox="0 -3.66 86.1 20.04" fill="currentColor" font-family="Linux Libertine"><style type="text/css">tspan{white-space:pre}</style><rect width=".2" height="4" x="0" y="-2" ry="0" transform="translate(15.896 1.63)" /><path stroke="currentColor" stroke-linecap="round" stroke-linejoin="round" stroke-width=".1" d="M.05 3.63h86M.05 2.63h86M.05 1.63h86M.05.63h86M.05-.37h86" /><rect width=".2" height="4" x="0" y="-2" ry="0" transform="translate(85.905 1.63)" /><rect width=".2" height="4" x="0" y="-2" ry="0" transform="translate(85.398 1.63)" /><rect width=".2" height="4" x="0" y="-2" ry="0" transform="translate(75.995 1.63)" /><rect width=".2" height="4" x="0" y="-2" ry="0" transform="translate(53.813 1.63)" /><rect width=".2" height="4" x="0" y="-2" ry="0" transform="translate(40.45 1.63)" /><path d="M49.391-.981c.148 0 .268.116.268.264v.08c0 .428-.408.64-.456.64a.053.053 0 0 1-.052-.052c0-.072.264-.1.32-.48h-.108a.213.213 0 0 1-.212-.212.24.24 0 0 1 .24-.24M51.962.673v1.5h-.064v-1.5zm.492 2.916c0-.04.168-.348.168-.784 0-.412-.376-.832-.66-1.132v-1c0 .788.828 1.344.828 2.132 0 .284-.06.564-.164.828a.1.1 0 0 1-.08.048.09.09 0 0 1-.092-.092" /><path stroke="currentColor" stroke-linecap="round" stroke-linejoin="round" stroke-width=".08" d="M74.47-.567v.396h-6.32v-.396z" /><path d="M9.909 2.315c0-.364.464-.728.868-.728.252 0 .436.14.436.36 0 .348-.44.728-.88.728-.268 0-.424-.156-.424-.36M1.864 5.17H1.84a.783.783 0 0 1-.78-.787c0-.232.212-.412.448-.412.216 0 .38.188.38.412 0 .208-.172.38-.38.38a.3.3 0 0 1-.124-.024c.104.156.272.26.468.26h.016zm.54-3.143c.076.356.192.968.24 1.416a.67.67 0 0 0 .448-.652.753.753 0 0 0-.688-.764m-1.308.492c0 .448.392.988 1.112.988q.127 0 .272-.024a17 17 0 0 0-.252-1.456c-.316.032-.496.244-.496.476 0 .176.1.364.324.492q.029.03.028.06c0 .044-.04.088-.088.088-.06 0-.504-.248-.504-.748 0-.352.232-.696.64-.788a15 15 0 0 0-.184-.7c-.428.484-.852.972-.852 1.612m1.132-4.664c.112 0 .572.824.572 1.444 0 .572-.344 1.02-.72 1.456.084.272.156.552.224.828q.031-.002.056-.004c.62 0 1.02.516 1.02 1.048 0 .452-.296.848-.72.98q.019.21.02.42-.001.116-.008.232c-.028.476-.352.9-.808.912l.004-.172c.372-.008.612-.368.636-.764q.007-.11.008-.22c0-.124-.004-.244-.016-.368q-.169.031-.32.032C1.22 3.679.808 2.81.808 2.183c0-.708.524-1.224.992-1.764-.116-.384-.208-.68-.208-1.384 0-.756.576-1.18.636-1.18m-.44 1.648c0 .22.048.46.14.76.328-.4.588-.808.588-1.304 0-.16-.024-.328-.084-.508a1.13 1.13 0 0 0-.644 1.052M4.185-.845c0-.032.02-.06.052-.072l.184-.068v-.632c0-.04.032-.076.072-.076s.076.036.076.076v.58l.332-.124v-.632c0-.04.036-.076.076-.076s.072.036.072.076v.58l.128-.048q.014-.005.028-.004a.08.08 0 0 1 .08.08v.24c0 .032-.02.064-.052.076l-.184.064v.64l.128-.044q.014-.005.028-.004a.08.08 0 0 1 .08.08v.24c0 .032-.02.06-.052.072l-.184.068v.632c0 .04-.032.076-.072.076S4.901.919 4.901.879v-.58l-.332.124v.632c0 .04-.036.076-.076.076s-.072-.036-.072-.076v-.58l-.128.048q-.014.005-.028.004a.08.08 0 0 1-.08-.08v-.24c0-.032.02-.064.052-.076l.184-.064v-.64l-.128.044q-.014.005-.028.004a.08.08 0 0 1-.08-.08zm.716.096-.332.12v.64l.332-.12zM7.169.595c-.204 0-.212.172-.212.4v.144c0 .228.008.4.212.4.228 0 .244-.204.244-.472S7.397.595 7.169.595M6.957.567a.4.4 0 0 1 .212-.064c.404 0 .68.184.68.564s-.276.564-.68.564c-.448 0-.68-.496-.68-1 0-.512.288-1 .76-1 .28 0 .544.156.544.412 0 .144-.116.264-.26.264s-.264-.12-.264-.264c0-.096.16-.1.16-.196 0-.08-.092-.124-.18-.124-.264 0-.3.26-.3.556 0 .096.008.192.008.288M7.479 2.483c.1-.12.176-.256.176-.412 0-.216-.22-.348-.456-.348a.284.284 0 0 0-.292.284c0 .084.04.168.124.216zm.124.072c.216.124.32.316.32.5 0 .292-.264.576-.756.576-.376 0-.732-.216-.732-.56 0-.2.144-.348.288-.492a.52.52 0 0 1-.22-.412c0-.272.24-.536.696-.536.32 0 .628.156.628.44 0 .184-.1.344-.224.484m-.756.1c-.124.12-.236.244-.236.416 0 .276.264.468.556.468a.334.334 0 0 0 .344-.332.27.27 0 0 0-.14-.248z" /><text font-size="2.51" text-anchor="start" transform="translate(9.195 7.298)">
<tspan>Tu</tspan>
</text><rect width=".13" height="3.13" x="-.07" y="-2.82" ry=".04" transform="translate(11.146 1.63)" /><rect width=".36" height=".13" x="0" y="-.56" ry=".04" transform="translate(72.406 7.298)" /><path d="M13.235 1.815c0-.364.464-.728.868-.728.252 0 .436.14.436.36 0 .348-.44.728-.88.728-.269 0-.425-.156-.425-.36" /><text font-size="2.51" text-anchor="start" transform="translate(12.826 7.298)">
<tspan>as</tspan>
</text><rect width=".13" height="2.81" x="-.07" y="-3" ry=".04" transform="translate(14.472 1.63)" /><text font-size="1.85" text-anchor="start" transform="translate(17.136 -2.03)">
<tspan>Do</tspan>
</text><text font-size="1.85" text-anchor="start" transform="translate(19.6 -2.03)">
<tspan>/</tspan>
</text><text font-size="1.85" text-anchor="start" transform="translate(20.21 -2.03)">
<tspan>Sol</tspan>
</text><path d="M17.136 1.315c0-.364.464-.728.868-.728.251 0 .435.14.435.36 0 .348-.44.728-.88.728-.268 0-.424-.156-.424-.36" /><text font-size="2.51" text-anchor="start" transform="translate(15.847 7.298)">
<tspan>pris</tspan>
</text><rect width=".13" height="3.31" x="-.07" y="-.31" ry=".04" transform="translate(17.203 1.63)" /><path d="M21.755 1.815c0-.364.464-.728.868-.728.252 0 .436.14.436.36 0 .348-.44.728-.88.728-.268 0-.424-.156-.424-.36" /><text font-size="2.51" text-anchor="start" transform="translate(20.628 7.298)">
<tspan>pos</tspan>
</text><rect width=".13" height="2.81" x="-.07" y="-3" ry=".04" transform="translate(22.992 1.63)" /><rect width=".36" height=".13" x="0" y="-.56" ry=".04" transform="translate(52.89 7.298)" /><path d="M25.562 2.315c0-.364.464-.728.868-.728.252 0 .436.14.436.36 0 .348-.44.728-.88.728-.268 0-.424-.156-.424-.36" /><text font-size="2.51" text-anchor="start" transform="translate(24.686 7.298)">
<tspan>ses</tspan>
</text><rect width=".13" height="3.13" x="-.07" y="-2.81" ry=".04" transform="translate(26.799 1.63)" /><text font-size="1.85" text-anchor="start" transform="translate(29.728 -2.03)">
<tspan>Sol</tspan>
</text><text font-size="1.85" text-anchor="start" transform="translate(32.264 -2.03)">
<tspan>/</tspan>
</text><text font-size="1.85" text-anchor="start" transform="translate(32.875 -2.03)">
<tspan>Ré</tspan>
</text><path d="M29.728 1.815c0-.364.464-.728.868-.728.252 0 .436.14.436.36 0 .348-.44.728-.88.728-.268 0-.424-.156-.424-.36" /><text font-size="2.51" text-anchor="start" transform="translate(28.241 7.298)">
<tspan>sion</tspan>
</text><rect width=".13" height="2.62" x="-.07" y="-2.81" ry=".04" transform="translate(30.965 1.63)" /><path stroke="currentColor" stroke-linecap="round" stroke-linejoin="round" stroke-width=".08" d="M39.008-.755v.396L30.94-.983v-.396z" /><path d="M33.952 2.315c0-.364.464-.728.868-.728.252 0 .436.14.436.36 0 .348-.44.728-.88.728-.268 0-.424-.156-.424-.36" /><text font-size="2.51" text-anchor="start" transform="translate(33.418 7.298)">
<tspan>de</tspan>
</text><rect width=".13" height="2.8" x="-.07" y="-2.48" ry=".04" transform="translate(35.19 1.63)" /><rect width=".66" height=".13" x="0" y="-.56" ry=".04" transform="translate(43.515 7.298)" /><path d="M37.746 2.815c0-.364.463-.728.867-.728.253 0 .437.14.437.36 0 .348-.44.728-.88.728-.269 0-.425-.156-.425-.36" /><text font-size="2.51" text-anchor="start" transform="translate(36.69 7.298)">
<tspan>ton</tspan>
</text><rect width=".13" height="3.01" x="-.07" y="-2.19" ry=".04" transform="translate(38.982 1.63)" /><text font-size="1.85" text-anchor="start" transform="translate(41.547 -2.03)">
<tspan>La</tspan>
</text><text font-size="1.31" text-anchor="start" transform="translate(43.58 -2.871)">
<tspan>4</tspan>
</text><path d="M41.547 2.315c0-.364.464-.728.868-.728.252 0 .436.14.436.36 0 .348-.44.728-.88.728-.268 0-.424-.156-.424-.36" /><text font-size="2.51" text-anchor="start" transform="translate(41.175 7.298)">
<tspan>rè</tspan>
</text><path d="M43.301 2.13a.224.224 0 1 1 .448 0 .224.224 0 0 1-.448 0" /><rect width=".13" height="3.31" x="-.07" y="-3" ry=".04" transform="translate(42.784 1.63)" /><text font-size="1.85" text-anchor="start" transform="translate(45.953 -2.03)">
<tspan>La</tspan>
</text><path d="M45.953 2.315c0-.364.464-.728.868-.728.252 0 .436.14.436.36 0 .348-.44.728-.88.728-.268 0-.424-.156-.424-.36" /><text font-size="2.51" text-anchor="start" transform="translate(44.467 7.298)">
<tspan>gne,</tspan>
</text><rect width=".13" height="3.31" x="-.07" y="-3" ry=".04" transform="translate(47.19 1.63)" /><path stroke="currentColor" stroke-linecap="round" stroke-linejoin="round" stroke-width=".08" d="M26.824-1.379v.396l-3.857-.188v-.396zM26.824-.567v.396L22.967-.36v-.395zM77.775 3.207c1.048 1.094 3.357 1.094 4.406 0h0c-1.049.97-3.358.97-4.406 0" /><path d="M50.658 4.315c0-.364.464-.728.868-.728.252 0 .436.14.436.36 0 .348-.44.728-.88.728-.268 0-.424-.156-.424-.36" /><text font-size="2.51" text-anchor="start" transform="translate(49.8 7.298)">
<tspan>Sei</tspan>
</text><rect width=".13" height="3.31" x="-.07" y="-1" ry=".04" transform="translate(51.895 1.63)" /><rect width=".36" height=".13" x="0" y="-.56" ry=".04" transform="translate(74.955 7.298)" /><rect width=".36" height=".13" x="0" y="-.56" ry=".04" transform="translate(27.811 7.298)" /><rect width=".36" height=".13" x="0" y="-.56" ry=".04" transform="translate(24.256 7.298)" /><text font-size="1.85" text-anchor="start" transform="translate(55.866 -2.03)">
<tspan>Fa</tspan>
</text><path d="M55.866 3.315c0-.364.464-.728.868-.728.252 0 .436.14.436.36 0 .348-.44.728-.88.728-.268 0-.424-.156-.424-.36" /><text font-size="2.51" text-anchor="start" transform="translate(53.32 7.298)">
<tspan>gneur,</tspan>
</text><rect width=".13" height="3.31" x="-.07" y="-2" ry=".04" transform="translate(57.103 1.63)" /><path d="M54.804 1.63c.031-.015.067-.027.1-.027s.063.012.095.028l-.008.732.424-.08h.012c.04 0 .072.028.072.068l.028 2.28c-.032.016-.068.028-.1.028s-.064-.012-.096-.028l.008-.732-.423.08h-.012c-.04 0-.073-.028-.073-.068zm.551 1.053-.367.068-.013.828.368-.068zM62.408 3.315c0-.364.464-.728.868-.728.252 0 .436.14.436.36 0 .348-.44.728-.88.728-.268 0-.424-.156-.424-.36" /><text font-size="2.51" text-anchor="start" transform="translate(60.617 7.298)">
<tspan>Dieu</tspan>
</text><rect width=".13" height="3.31" x="-.07" y="-2" ry=".04" transform="translate(63.645 1.63)" /><path d="M63.713-.327v1.5h-.064v-1.5zm.492 2.916c0-.04.168-.348.168-.784 0-.412-.376-.832-.66-1.132v-1c0 .788.828 1.344.828 2.132 0 .284-.06.564-.164.828a.1.1 0 0 1-.08.048.09.09 0 0 1-.092-.092" /><path stroke="currentColor" stroke-linecap="round" stroke-linejoin="round" stroke-width=".08" d="M14.497-1.567v.396l-3.377.188v-.396z" /><text font-size="1.85" text-anchor="start" transform="translate(66.938 -2.03)">
<tspan>Do</tspan>
</text><text font-size="1.85" text-anchor="start" transform="translate(69.403 -2.03)">
<tspan>/</tspan>
</text><text font-size="1.85" text-anchor="start" transform="translate(70.014 -2.03)">
<tspan>Sol</tspan>
</text><path d="M66.938 2.815c0-.364.464-.728.868-.728.252 0 .436.14.436.36 0 .348-.44.728-.88.728-.268 0-.424-.156-.424-.36" /><text font-size="2.51" text-anchor="start" transform="translate(66.404 7.298)">
<tspan>de</tspan>
</text><rect width=".13" height="2.81" x="-.07" y="-2" ry=".04" transform="translate(68.175 1.63)" /><path d="M70.354 3.815c0-.364.464-.728.868-.728.252 0 .436.14.436.36 0 .348-.44.728-.88.728-.268 0-.424-.156-.424-.36" /><text font-size="2.51" text-anchor="start" transform="translate(69.677 7.298)">
<tspan>l’u</tspan>
</text><rect width=".13" height="3.81" x="-.07" y="-2" ry=".04" transform="translate(71.591 1.63)" /><path d="M73.208 2.815c0-.364.464-.728.868-.728.252 0 .436.14.436.36 0 .348-.44.728-.88.728-.268 0-.424-.156-.424-.36" /><text font-size="2.51" text-anchor="start" transform="translate(72.836 7.298)">
<tspan>ni</tspan>
</text><rect width=".13" height="2.81" x="-.07" y="-2" ry=".04" transform="translate(74.445 1.63)" /><text font-size="1.85" text-anchor="start" transform="translate(77.123 -2.03)">
<tspan>Ré</tspan>
</text><text font-size="1.31" text-anchor="start" transform="translate(79.263 -2.871)">
<tspan>4</tspan>
</text><path d="M77.123 2.315c0-.364.464-.728.868-.728.252 0 .436.14.436.36 0 .348-.44.728-.88.728-.268 0-.424-.156-.424-.36" /><text font-size="2.51" text-anchor="start" transform="translate(75.385 7.298)">
<tspan>vers.</tspan>
</text><path d="M78.877 2.13a.224.224 0 1 1 .447 0 .224.224 0 0 1-.447 0" /><rect width=".13" height="3.31" x="-.07" y="-3" ry=".04" transform="translate(78.36 1.63)" /><text font-size="1.85" text-anchor="start" transform="translate(81.529 -2.03)">
<tspan>Ré</tspan>
</text><path d="M81.529 2.315c0-.364.464-.728.868-.728.252 0 .436.14.436.36 0 .348-.44.728-.88.728-.268 0-.424-.156-.424-.36" /><rect width=".13" height="3.31" x="-.07" y="-3" ry=".04" transform="translate(82.766 1.63)" /><rect width=".2" height="4" x="0" y="-2" ry="0" transform="translate(23.382 12.205)" /><path stroke="currentColor" stroke-linecap="round" stroke-linejoin="round" stroke-width=".1" d="M.05 14.205h53.46M.05 13.205h53.46M.05 12.205h53.46M.05 11.205h53.46M.05 10.205h53.46" /><rect width=".62" height="4" x="0" y="-2" ry="0" transform="translate(52.94 12.205)" /><rect width=".2" height="4" x="0" y="-2" ry="0" transform="translate(52.433 12.205)" /><rect width=".2" height="4" x="0" y="-2" ry="0" transform="translate(40.665 12.205)" /><rect width=".2" height="4" x="0" y="-2" ry="0" transform="translate(40.158 12.205)" /><path stroke="currentColor" stroke-linecap="round" stroke-linejoin="round" stroke-width=".08" d="M18.235 10.819v.396l-2.554.188v-.396z" /><path d="M1.864 15.745H1.84a.783.783 0 0 1-.78-.788c0-.232.212-.412.448-.412.216 0 .38.188.38.412 0 .208-.172.38-.38.38a.3.3 0 0 1-.124-.024c.104.156.272.26.468.26h.016zm.54-3.144c.076.356.192.968.24 1.416a.67.67 0 0 0 .448-.652.753.753 0 0 0-.688-.764m-1.308.492c0 .448.392.988 1.112.988q.127 0 .272-.024a17 17 0 0 0-.252-1.456c-.316.032-.496.244-.496.476 0 .176.1.364.324.492q.029.03.028.06c0 .044-.04.088-.088.088-.06 0-.504-.248-.504-.748 0-.352.232-.696.64-.788a15 15 0 0 0-.184-.7c-.428.484-.852.972-.852 1.612M2.228 8.43c.112 0 .572.824.572 1.444 0 .572-.344 1.02-.72 1.456.084.272.156.552.224.828.02 0 .04-.004.056-.004.62 0 1.02.516 1.02 1.048 0 .452-.296.848-.72.98q.019.21.02.42c0 .076-.004.156-.008.232-.028.476-.352.9-.808.912l.004-.172c.372-.008.612-.368.636-.764a3.775 3.775 0 0 0-.008-.588q-.169.031-.32.032c-.956 0-1.368-.868-1.368-1.496 0-.708.524-1.224.992-1.764-.116-.384-.208-.68-.208-1.384 0-.756.576-1.18.636-1.18m-.44 1.648c0 .22.048.46.14.76.328-.4.588-.808.588-1.304 0-.16-.024-.328-.084-.508a1.13 1.13 0 0 0-.644 1.052M4.185 9.73c0-.033.02-.06.052-.073l.184-.068v-.632c0-.04.032-.076.072-.076s.076.036.076.076v.58l.332-.124v-.632c0-.04.036-.076.076-.076s.072.036.072.076v.58l.128-.048q.014-.005.028-.004a.08.08 0 0 1 .08.08v.24c0 .032-.02.064-.052.076l-.184.064v.64l.128-.044q.014-.005.028-.004a.08.08 0 0 1 .08.08v.24c0 .032-.02.06-.052.072l-.184.068v.632c0 .04-.032.076-.072.076s-.076-.036-.076-.076v-.58l-.332.124v.632c0 .04-.036.076-.076.076s-.072-.036-.072-.076v-.58l-.128.048q-.014.005-.028.004a.08.08 0 0 1-.08-.08v-.24c0-.032.02-.064.052-.076l.184-.064v-.64l-.128.044q-.014.005-.028.004a.08.08 0 0 1-.08-.08zm.716.095-.332.12v.64l.332-.12z" /><text font-size="1.85" text-anchor="start" transform="translate(7.785 9.187)">
<tspan>Ré</tspan>
</text><path d="M10.165 14.345c0 .044-.036.08-.08.08s-.08-.036-.08-.08v-1.28c0-.044.036-.08.08-.08s.08.036.08.08zm-2.668 0c0 .044-.036.08-.08.08s-.08-.036-.08-.08v-1.28c0-.044.036-.08.08-.08s.08.036.08.08zm1.256-1.184c.012 0 .836.008.968.452v-.548c0-.044.036-.08.08-.08s.08.036.08.08v1.28c0 .044-.036.08-.08.08s-.08-.036-.08-.08v-.548c-.068.224-.424.452-.968.452-.012 0-.836-.008-.968-.452v.548c0 .044-.036.08-.08.08s-.08-.036-.08-.08v-1.28c0-.044.036-.08.08-.08s.08.036.08.08v.548c.068-.224.424-.452.968-.452m.408.648c0-.408-.36-.556-.536-.556-.092 0-.28.04-.28.356a.54.54 0 0 0 .532.544c.088 0 .284-.032.284-.344M14.469 14.39c0-.365.464-.729.868-.729.252 0 .436.14.436.36 0 .348-.44.728-.88.728-.268 0-.424-.156-.424-.36" /><rect width=".13" height="2.82" x="-.07" y="-1" ry=".04" transform="translate(15.706 12.205)" /><path d="M16.973 13.89c0-.365.464-.729.868-.729.252 0 .436.14.436.36 0 .348-.44.728-.88.728-.268 0-.424-.156-.424-.36" /><rect width=".13" height="2.5" x="-.07" y="-1.18" ry=".04" transform="translate(18.21 12.205)" /><text font-size="1.85" text-anchor="start" transform="translate(19.477 9.187)">
<tspan>Do</tspan>
</text><path d="M19.477 13.39c0-.365.464-.729.868-.729.252 0 .436.14.436.36 0 .348-.44.728-.88.728-.268 0-.424-.156-.424-.36" /><rect width=".13" height="3.31" x="-.07" y="-2.5" ry=".04" transform="translate(20.714 12.205)" /><text font-size="1.85" text-anchor="start" transform="translate(24.525 9.187)">
<tspan>Sol</tspan>
</text><path d="M26.905 13.845c0 .044-.036.08-.08.08s-.08-.036-.08-.08v-1.28c0-.044.036-.08.08-.08s.08.036.08.08zm-2.668 0c0 .044-.036.08-.08.08s-.08-.036-.08-.08v-1.28c0-.044.036-.08.08-.08s.08.036.08.08zm1.256-1.184c.012 0 .836.008.968.452v-.548c0-.044.036-.08.08-.08s.08.036.08.08v1.28c0 .044-.036.08-.08.08s-.08-.036-.08-.08v-.548c-.068.224-.424.452-.968.452-.012 0-.836-.008-.968-.452v.548c0 .044-.036.08-.08.08s-.08-.036-.08-.08v-1.28c0-.044.036-.08.08-.08s.08.036.08.08v.548c.068-.224.424-.452.968-.452m.408.648c0-.408-.36-.556-.536-.556-.092 0-.28.04-.28.356a.54.54 0 0 0 .532.544c.088 0 .284-.032.284-.344M31.21 12.89c0-.365.463-.729.867-.729.252 0 .436.14.436.36 0 .348-.44.728-.88.728-.268 0-.424-.156-.424-.36" /><rect width=".13" height="2.5" x="-.07" y="-2.18" ry=".04" transform="translate(32.446 12.205)" /><path d="M33.713 13.39c0-.365.464-.729.868-.729.252 0 .436.14.436.36 0 .348-.44.728-.88.728-.268 0-.424-.156-.424-.36" /><rect width=".13" height="2.82" x="-.07" y="-2" ry=".04" transform="translate(34.95 12.205)" /><text font-size="1.85" text-anchor="start" transform="translate(36.218 9.187)">
<tspan>Ré</tspan>
</text><path d="M36.218 13.89c0-.365.463-.729.867-.729.253 0 .437.14.437.36 0 .348-.44.728-.88.728-.269 0-.425-.156-.425-.36" /><rect width=".13" height="3.31" x="-.07" y="-2" ry=".04" transform="translate(37.454 12.205)" /><text font-size="1.85" text-anchor="start" transform="translate(41.808 9.187)">
<tspan>Ré</tspan>
</text><path d="M44.188 14.345c0 .044-.036.08-.08.08s-.08-.036-.08-.08v-1.28c0-.044.036-.08.08-.08s.08.036.08.08zm-2.668 0c0 .044-.036.08-.08.08s-.08-.036-.08-.08v-1.28c0-.044.036-.08.08-.08s.08.036.08.08zm1.256-1.184c.012 0 .836.008.968.452v-.548c0-.044.036-.08.08-.08s.08.036.08.08v1.28c0 .044-.036.08-.08.08s-.08-.036-.08-.08v-.548c-.068.224-.424.452-.968.452-.012 0-.836-.008-.968-.452v.548c0 .044-.036.08-.08.08s-.08-.036-.08-.08v-1.28c0-.044.036-.08.08-.08s.08.036.08.08v.548c.068-.224.424-.452.968-.452m.408.648c0-.408-.36-.556-.536-.556-.092 0-.28.04-.28.356a.54.54 0 0 0 .532.544c.088 0 .284-.032.284-.344" /><text color="rgba(100.0000%, 0.0000%, 0.0000%, 100.0000%)" font-size="3.3" font-weight="bold" text-anchor="start" transform="translate(39.63 16.486)">
<tspan>+</tspan>
</text><text font-size="1.85" text-anchor="start" transform="translate(48.492 9.187)">
<tspan>Do</tspan>
</text><path d="M48.492 14.39c0-.365.464-.729.868-.729.252 0 .436.14.436.36 0 .348-.44.728-.88.728-.268 0-.424-.156-.424-.36" /><rect width=".13" height="3.31" x="-.07" y="-1.5" ry=".04" transform="translate(49.729 12.205)" /><path stroke="currentColor" stroke-linecap="round" stroke-linejoin="round" stroke-width=".08" d="M34.975 10.007v.396l-2.554-.188v-.396z" /></svg>