<svg xmlns="http://www.w3.org/2000/svg" width="680.31" height="135.34" viewBox="0 -3.85 107.82 21.45" fill="currentColor" font-family="Linux Libertine"><style type="text/css">tspan{white-space:pre}</style><rect width=".2" height="4" x="0" y="-2" ry="0" transform="translate(42.05 2.162)" /><path stroke="currentColor" stroke-linecap="round" stroke-linejoin="round" stroke-width=".1" d="M.05 4.162h107.72M.05 3.162h107.72M.05 2.162h107.72M.05 1.162h107.72M.05.162h107.72" /><rect width=".62" height="4" x="0" y="-2" ry="0" transform="translate(107.2 2.162)" /><rect width=".2" height="4" x="0" y="-2" ry="0" transform="translate(106.693 2.162)" /><rect width=".2" height="4" x="0" y="-2" ry="0" transform="translate(95.522 2.162)" /><rect width=".2" height="4" x="0" y="-2" ry="0" transform="translate(70.748 2.162)" /><path stroke="currentColor" stroke-linecap="round" stroke-linejoin="round" stroke-width=".08" d="M93.5.776v.396L89.622.548V.152z" /><rect width=".66" height=".13" x="0" y="-.56" ry=".04" transform="translate(94.741 7.492)" /><text font-size="1.85" text-anchor="start" transform="translate(10.135 -1.687)">
<tspan>Sol</tspan>
</text><path d="M10.135 4.846c0-.364.464-.728.868-.728.252 0 .436.14.436.36 0 .348-.44.728-.88.728-.268 0-.424-.156-.424-.36M1.864 5.702H1.84a.783.783 0 0 1-.78-.788c0-.232.212-.412.448-.412.216 0 .38.188.38.412 0 .208-.172.38-.38.38a.3.3 0 0 1-.124-.024c.104.156.272.26.468.26h.016zm.54-3.144c.076.356.192.968.24 1.416a.67.67 0 0 0 .448-.652.753.753 0 0 0-.688-.764m-1.308.492c0 .448.392.988 1.112.988q.127 0 .272-.024a17 17 0 0 0-.252-1.456c-.316.032-.496.244-.496.476 0 .176.1.364.324.492q.029.03.028.06c0 .044-.04.088-.088.088-.06 0-.504-.248-.504-.748 0-.352.232-.696.64-.788a15 15 0 0 0-.184-.7c-.428.484-.852.972-.852 1.612m1.132-4.664c.112 0 .572.824.572 1.444 0 .572-.344 1.02-.72 1.456.084.272.156.552.224.828q.031-.002.056-.004c.62 0 1.02.516 1.02 1.048 0 .452-.296.848-.72.98q.019.21.02.42c0 .076-.004.156-.008.232-.028.476-.352.9-.808.912l.004-.172c.372-.008.612-.368.636-.764a3.775 3.775 0 0 0-.008-.588q-.169.031-.32.032C1.22 4.21.808 3.342.808 2.714c0-.708.524-1.224.992-1.764-.116-.384-.208-.68-.208-1.384 0-.756.576-1.18.636-1.18M1.788.034c0 .22.048.46.14.76.328-.4.588-.808.588-1.304 0-.16-.024-.328-.084-.508A1.13 1.13 0 0 0 1.788.034M4.185-.314c0-.032.02-.06.052-.072l.184-.068v-.632c0-.04.032-.076.072-.076s.076.036.076.076v.58l.332-.124v-.632c0-.04.036-.076.076-.076s.072.036.072.076v.58l.128-.048q.014-.005.028-.004a.08.08 0 0 1 .08.08v.24c0 .032-.02.064-.052.076l-.184.064v.64l.128-.044q.014-.005.028-.004a.08.08 0 0 1 .08.08v.24c0 .032-.02.06-.052.072l-.184.068v.632c0 .04-.032.076-.072.076s-.076-.036-.076-.076V.83l-.332.124v.632c0 .04-.036.076-.076.076s-.072-.036-.072-.076v-.58l-.128.048q-.014.005-.028.004a.08.08 0 0 1-.08-.08v-.24c0-.032.02-.064.052-.076l.184-.064v-.64l-.128.044q-.014.005-.028.004a.08.08 0 0 1-.08-.08zm.716.096-.332.12v.64l.332-.12zM8.167 2.518c0 .088-.2.696-.732.696-.236 0-1-.076-1-1.052 0-.248.072-1.048 1-1.048.464 0 .704.424.704.652 0 .16-.12.288-.268.288-.124 0-.3-.1-.3-.3 0-.152.108-.308.288-.308q.025-.001.056.004a.6.6 0 0 0-.48-.236c-.424 0-.452.292-.452.744v.408c0 .452.028.748.452.748.32 0 .556-.28.632-.604.008-.028.028-.04.048-.04.024 0 .052.016.052.048" /><text font-size="2.51" text-anchor="start" transform="translate(8.2 7.492)">
<tspan>Gran</tspan>
</text><rect width=".13" height="4.13" x="-.07" y="-1.82" ry=".04" transform="translate(11.372 2.162)" /><path d="M16.146 3.346c0-.364.464-.728.868-.728.252 0 .436.14.436.36 0 .348-.44.728-.88.728-.268 0-.424-.156-.424-.36" /><text font-size="2.51" text-anchor="start" transform="translate(13.875 7.492)">
<tspan>des</tspan>
</text><path d="M18.59 7.952c0 .055-.387.4-1.073.4s-1.072-.345-1.072-.4c0-.032.028-.064.065-.064.014 0 .027 0 .041.013.258.226.621.24.966.24s.709-.014.966-.24c.014-.013.028-.013.042-.013.037 0 .064.032.064.064" /><text font-size="2.51" text-anchor="start" transform="translate(17.817 7.492)">
<tspan>et</tspan>
</text><rect width=".13" height="3.07" x="-.07" y="-2.25" ry=".04" transform="translate(17.383 2.162)" /><text font-size="1.85" text-anchor="start" transform="translate(21.983 -1.687)">
<tspan>Ré</tspan>
</text><text font-size="1.85" text-anchor="start" transform="translate(24.123 -1.687)">
<tspan>/</tspan>
</text><text font-size="1.85" text-anchor="start" transform="translate(24.734 -1.687)">
<tspan>Fa</tspan>
</text><path d="M27.067-3.067c0-.036.021-.066.054-.078l.111-.045v-.453c0-.036.03-.066.066-.066s.066.03.066.066v.402l.231-.087v-.456c0-.036.03-.066.066-.066s.066.03.066.066v.402l.048-.018a.1.1 0 0 1 .033-.006c.045 0 .084.036.084.084v.15a.09.09 0 0 1-.054.08l-.11.043v.456l.047-.021a.1.1 0 0 1 .033-.006c.045 0 .084.039.084.087v.15a.08.08 0 0 1-.054.078l-.11.045v.453c0 .036-.03.066-.067.066s-.066-.03-.066-.066v-.402l-.23.087v.456c0 .036-.03.066-.067.066s-.066-.03-.066-.066v-.402l-.048.018a.1.1 0 0 1-.033.006.084.084 0 0 1-.084-.084v-.15c0-.036.021-.07.054-.081l.111-.042v-.456l-.048.02a.1.1 0 0 1-.033.007.086.086 0 0 1-.084-.087zm.528.069-.23.09v.455l.23-.09zM21.983 2.846c0-.364.464-.728.868-.728.252 0 .436.14.436.36 0 .348-.44.728-.88.728-.268 0-.424-.156-.424-.36" /><text font-size="2.51" text-anchor="start" transform="translate(20.622 7.492)">
<tspan>mer</tspan>
</text><rect width=".13" height="2.99" x="-.07" y="-2.68" ry=".04" transform="translate(23.22 2.162)" /><rect width="4.7" height=".08" x="0" y="-.08" ry=".03" transform="translate(73.538 7.492)" /><path d="M26.328 2.346c0-.364.464-.728.868-.728.252 0 .436.14.436.36 0 .348-.44.728-.88.728-.268 0-.424-.156-.424-.36" /><text font-size="2.51" text-anchor="start" transform="translate(25.147 7.492)">
<tspan>veil</tspan>
</text><rect width=".13" height="2.81" x="-.07" y="-3" ry=".04" transform="translate(27.565 2.162)" /><path stroke="currentColor" stroke-linecap="round" stroke-linejoin="round" stroke-width=".08" d="M72.859.551c1.184-1.184 3.727-.997 4.761.35h0c-1.043-1.223-3.587-1.41-4.761-.35" /><text font-size="1.85" text-anchor="start" transform="translate(30.207 -1.687)">
<tspan>Mi</tspan>
</text><text font-size="1.85" text-anchor="start" transform="translate(32.927 -1.687)">
<tspan>m</tspan>
</text><text font-size="1.31" text-anchor="start" transform="translate(34.437 -2.528)">
<tspan>7</tspan>
</text><path d="M30.207 2.346c0-.364.464-.728.868-.728.252 0 .436.14.436.36 0 .348-.44.728-.88.728-.268 0-.424-.156-.424-.36" /><text font-size="2.51" text-anchor="start" transform="translate(29.313 7.492)">
<tspan>leu</tspan>
</text><rect width=".13" height="3.15" x="-.07" y=".19" ry=".04" transform="translate(30.274 2.162)" /><path d="M34.95 2.846c0-.364.464-.728.868-.728.252 0 .436.14.436.36 0 .348-.44.728-.88.728-.268 0-.424-.156-.424-.36" /><text font-size="2.51" text-anchor="start" transform="translate(34.075 7.492)">
<tspan>ses</tspan>
</text><rect width=".13" height="2.5" x="-.07" y="-2.19" ry=".04" transform="translate(36.187 2.162)" /><path stroke="currentColor" stroke-linecap="round" stroke-linejoin="round" stroke-width=".08" d="M57.523-.224v.396l-4.85.188v-.396z" /><path d="M38.815 3.346c0-.364.464-.728.868-.728.252 0 .436.14.436.36 0 .348-.44.728-.88.728-.268 0-.424-.156-.424-.36" /><text font-size="2.51" text-anchor="start" transform="translate(38.03 7.492)">
<tspan>tes</tspan>
</text><rect width=".13" height="2.82" x="-.07" y="-2" ry=".04" transform="translate(40.052 2.162)" /><rect width=".36" height=".13" x="0" y="-.56" ry=".04" transform="translate(58.493 7.492)" /><text font-size="1.85" text-anchor="start" transform="translate(43.344 -1.687)">
<tspan>La</tspan>
</text><text font-size="1.85" text-anchor="start" transform="translate(45.777 -1.687)">
<tspan>m</tspan>
</text><text font-size="1.85" text-anchor="start" transform="translate(47.286 -1.687)">
<tspan>/</tspan>
</text><text font-size="1.85" text-anchor="start" transform="translate(47.897 -1.687)">
<tspan>Do</tspan>
</text><path d="M43.344 4.346c0-.364.464-.728.868-.728.252 0 .436.14.436.36 0 .348-.44.728-.88.728-.268 0-.424-.156-.424-.36" /><text font-size="2.51" text-anchor="start" transform="translate(42.36 7.492)">
<tspan>œu</tspan>
</text><rect width=".13" height="3.31" x="-.07" y="-1.5" ry=".04" transform="translate(44.58 2.162)" /><path stroke="currentColor" stroke-linecap="round" stroke-linejoin="round" stroke-width=".08" d="M40.077-.036V.36L36.162.172v-.396z" /><text font-size="1.85" text-anchor="start" transform="translate(51.462 -1.687)">
<tspan>La</tspan>
</text><text font-size="1.85" text-anchor="start" transform="translate(53.495 -1.687)">
<tspan>/</tspan>
</text><text font-size="1.85" text-anchor="start" transform="translate(54.106 -1.687)">
<tspan>Do</tspan>
</text><path d="M56.87-3.067c0-.036.02-.066.054-.078l.11-.045v-.453c0-.036.03-.066.067-.066s.066.03.066.066v.402l.23-.087v-.456c0-.036.03-.066.067-.066s.066.03.066.066v.402l.048-.018a.1.1 0 0 1 .033-.006c.045 0 .084.036.084.084v.15a.09.09 0 0 1-.054.08l-.111.043v.456l.048-.021a.1.1 0 0 1 .033-.006c.045 0 .084.039.084.087v.15a.08.08 0 0 1-.054.078l-.111.045v.453c0 .036-.03.066-.066.066s-.066-.03-.066-.066v-.402l-.231.087v.456c0 .036-.03.066-.066.066s-.066-.03-.066-.066v-.402l-.048.018a.1.1 0 0 1-.033.006.084.084 0 0 1-.084-.084v-.15c0-.036.02-.07.054-.081l.11-.042v-.456l-.047.02a.1.1 0 0 1-.033.007.086.086 0 0 1-.084-.087zm.528.069-.231.09v.455l.23-.09zM51.462 3.346c0-.364.464-.728.868-.728.252 0 .436.14.436.36 0 .348-.44.728-.88.728-.268 0-.424-.156-.424-.36" /><text font-size="2.51" text-anchor="start" transform="translate(49.724 7.492)">
<tspan>vres,</tspan>
</text><rect width=".13" height="2.82" x="-.07" y="-2" ry=".04" transform="translate(52.699 2.162)" /><rect width=".66" height=".13" x="0" y="-.56" ry=".04" transform="translate(47.347 7.492)" /><path d="M56.261 2.846c0-.364.464-.728.868-.728.252 0 .436.14.436.36 0 .348-.44.728-.88.728-.268 0-.424-.156-.424-.36" /><text font-size="2.51" text-anchor="start" transform="translate(55.404 7.492)">
<tspan>Sei</tspan>
</text><rect width=".13" height="2.5" x="-.07" y="-2.19" ry=".04" transform="translate(57.498 2.162)" /><text font-size="1.85" text-anchor="start" transform="translate(61.433 -1.687)">
<tspan>Ré</tspan>
</text><text font-size="1.31" text-anchor="start" transform="translate(63.574 -2.528)">
<tspan>4</tspan>
</text><text font-size="2.51" text-anchor="start" transform="translate(58.923 7.492)">
<tspan>gneur,</tspan>
</text><rect width=".13" height="3.24" x="-.07" y="-3" ry=".04" transform="translate(62.743 2.162)" /><text font-size="1.85" text-anchor="start" transform="translate(66.09 -1.687)">
<tspan>Ré</tspan>
</text><path stroke="currentColor" stroke-linecap="round" stroke-linejoin="round" stroke-width=".08" d="M27.59-1.036v.396L11.347.548V.152z" /><text font-size="1.85" text-anchor="start" transform="translate(72.175 -1.687)">
<tspan>Do</tspan>
</text><path d="M72.175 1.846c0-.364.464-.728.868-.728.252 0 .436.14.436.36 0 .348-.44.728-.88.728-.268 0-.424-.156-.424-.36" /><text font-size="2.51" text-anchor="start" transform="translate(72.198 7.492)">
<tspan>ô</tspan>
</text><rect width=".13" height="3.31" x="-.07" y="-.31" ry=".04" transform="translate(72.242 2.162)" /><rect width=".66" height=".13" x="0" y="-.56" ry=".04" transform="translate(32.91 7.492)" /><text font-size="1.85" text-anchor="start" transform="translate(76.936 -1.687)">
<tspan>Sol</tspan>
</text><text font-size="1.85" text-anchor="start" transform="translate(79.472 -1.687)">
<tspan>/</tspan>
</text><text font-size="1.85" text-anchor="start" transform="translate(80.084 -1.687)">
<tspan>Do</tspan>
</text><path d="M76.936 2.346c0-.364.464-.728.868-.728.252 0 .436.14.436.36 0 .348-.44.728-.88.728-.268 0-.424-.156-.424-.36" /><rect width=".13" height="3.15" x="-.07" y=".19" ry=".04" transform="translate(77.004 2.162)" /><rect width=".36" height=".13" x="0" y="-.56" ry=".04" transform="translate(28.883 7.492)" /><text font-size="1.85" text-anchor="start" transform="translate(83.648 -1.687)">
<tspan>La</tspan>
</text><text font-size="1.85" text-anchor="start" transform="translate(86.08 -1.687)">
<tspan>m</tspan>
</text><text font-size="1.85" text-anchor="start" transform="translate(87.59 -1.687)">
<tspan>/</tspan>
</text><text font-size="1.85" text-anchor="start" transform="translate(88.201 -1.687)">
<tspan>Do</tspan>
</text><path d="M83.648 2.846c0-.364.464-.728.868-.728.252 0 .436.14.436.36 0 .348-.44.728-.88.728-.268 0-.424-.156-.424-.36" /><text font-size="2.51" text-anchor="start" transform="translate(82.593 7.492)">
<tspan>Roi</tspan>
</text><rect width=".13" height="3.31" x="-.07" y="-3" ry=".04" transform="translate(84.885 2.162)" /><rect width=".36" height=".13" x="0" y="-.56" ry=".04" transform="translate(24.717 7.492)" /><path d="M88.41 3.346c0-.364.463-.728.867-.728.252 0 .436.14.436.36 0 .348-.44.728-.88.728-.268 0-.424-.156-.424-.36" /><text font-size="2.51" text-anchor="start" transform="translate(87.39 7.492)">
<tspan>des</tspan>
</text><rect width=".13" height="2.62" x="-.07" y="-1.8" ry=".04" transform="translate(89.646 2.162)" /><path d="M92.239 4.346c0-.364.463-.728.867-.728.253 0 .437.14.437.36 0 .348-.44.728-.88.728-.268 0-.424-.156-.424-.36" /><text font-size="2.51" text-anchor="start" transform="translate(91.633 7.492)">
<tspan>na</tspan>
</text><rect width=".13" height="3.01" x="-.07" y="-1.2" ry=".04" transform="translate(93.475 2.162)" /><rect width=".36" height=".13" x="0" y="-.56" ry=".04" transform="translate(13.445 7.492)" /><text font-size="1.85" text-anchor="start" transform="translate(97.816 -1.687)">
<tspan>Sol</tspan>
</text><path d="M99.204 3.266a.55.55 0 0 0-.532-.556c-.092 0-.28.04-.28.356 0 .364.304.544.528.544.088 0 .284-.032.284-.344m-.408-.648c.576 0 .984.26.984.544s-.408.544-.984.544-.98-.26-.98-.544.404-.544.98-.544" /><text font-size="2.51" text-anchor="start" transform="translate(95.994 7.492)">
<tspan>tions.</tspan>
</text><path d="M61.72 3.086c.16 0 .817-.44.925-.572a.2.2 0 0 0 .044-.112.166.166 0 0 0-.168-.164c-.16 0-.816.44-.924.572a.2.2 0 0 0-.04.112c0 .088.068.164.164.164m-.287-.156c0-.284.184-.812 1.032-.812.164 0 .344.04.344.276 0 .284-.184.812-1.032.812-.164 0-.344-.04-.344-.276" /><rect width=".2" height="4" x="0" y="-2" ry="0" transform="translate(24.166 13.555)" /><rect width="1.96" height=".2" x="49.91" y="-.1" ry=".1" transform="translate(0 16.555)" /><rect width="1.96" height=".2" x="14.64" y="-.1" ry=".1" transform="translate(0 16.555)" /><path stroke="currentColor" stroke-linecap="round" stroke-linejoin="round" stroke-width=".1" d="M.05 15.555h55.11M.05 14.555h55.11M.05 13.555h55.11M.05 12.555h55.11M.05 11.555h55.11" /><rect width=".62" height="4" x="0" y="-2" ry="0" transform="translate(54.59 13.555)" /><rect width=".2" height="4" x="0" y="-2" ry="0" transform="translate(54.083 13.555)" /><rect width=".2" height="4" x="0" y="-2" ry="0" transform="translate(41.911 13.555)" /><rect width=".2" height="4" x="0" y="-2" ry="0" transform="translate(41.404 13.555)" /><path stroke="currentColor" stroke-linecap="round" stroke-linejoin="round" stroke-width=".08" d="M18.983 13.169v.396l-2.804.188v-.396z" /><path d="M1.864 17.095H1.84a.783.783 0 0 1-.78-.788c0-.232.212-.412.448-.412.216 0 .38.188.38.412 0 .208-.172.38-.38.38a.3.3 0 0 1-.124-.024c.104.156.272.26.468.26h.016zm.54-3.144c.076.356.192.968.24 1.416a.67.67 0 0 0 .448-.652.753.753 0 0 0-.688-.764m-1.308.492c0 .448.392.988 1.112.988q.127 0 .272-.024a17 17 0 0 0-.252-1.456c-.316.032-.496.244-.496.476 0 .176.1.364.324.492q.029.03.028.06c0 .044-.04.088-.088.088-.06 0-.504-.248-.504-.748 0-.352.232-.696.64-.788a15 15 0 0 0-.184-.7c-.428.484-.852.972-.852 1.612M2.228 9.78c.112 0 .572.824.572 1.444 0 .572-.344 1.02-.72 1.456.084.272.156.552.224.828.02 0 .04-.004.056-.004.62 0 1.02.516 1.02 1.048 0 .452-.296.848-.72.98q.019.21.02.42c0 .076-.004.156-.008.232-.028.476-.352.9-.808.912l.004-.172c.372-.008.612-.368.636-.764a3.775 3.775 0 0 0-.008-.588q-.169.031-.32.032c-.956 0-1.368-.868-1.368-1.496 0-.708.524-1.224.992-1.764-.116-.384-.208-.68-.208-1.384 0-.756.576-1.18.636-1.18m-.44 1.648c0 .22.048.46.14.76.328-.4.588-.808.588-1.304 0-.16-.024-.328-.084-.508a1.13 1.13 0 0 0-.644 1.052M4.185 11.08c0-.033.02-.06.052-.073l.184-.068v-.632c0-.04.032-.076.072-.076s.076.036.076.076v.58l.332-.124v-.632c0-.04.036-.076.076-.076s.072.036.072.076v.58l.128-.048q.014-.005.028-.004a.08.08 0 0 1 .08.08v.24c0 .032-.02.064-.052.076l-.184.064v.64l.128-.044q.014-.005.028-.004a.08.08 0 0 1 .08.08v.24c0 .032-.02.06-.052.072l-.184.068v.632c0 .04-.032.076-.072.076s-.076-.036-.076-.076v-.58l-.332.124v.632c0 .04-.036.076-.076.076s-.072-.036-.072-.076v-.58l-.128.048q-.014.005-.028.004a.08.08 0 0 1-.08-.08v-.24c0-.032.02-.064.052-.076l.184-.064v-.64l-.128.044q-.014.005-.028.004a.08.08 0 0 1-.08-.08zm.716.095-.332.12v.64l.332-.12z" /><text font-size="1.85" text-anchor="start" transform="translate(7.785 9.533)">
<tspan>Sol</tspan>
</text><path d="M10.165 16.695c0 .044-.036.08-.08.08s-.08-.036-.08-.08v-1.28c0-.044.036-.08.08-.08s.08.036.08.08zm-2.668 0c0 .044-.036.08-.08.08s-.08-.036-.08-.08v-1.28c0-.044.036-.08.08-.08s.08.036.08.08zm1.256-1.184c.012 0 .836.008.968.452v-.548c0-.044.036-.08.08-.08s.08.036.08.08v1.28c0 .044-.036.08-.08.08s-.08-.036-.08-.08v-.548c-.068.224-.424.452-.968.452-.012 0-.836-.008-.968-.452v.548c0 .044-.036.08-.08.08s-.08-.036-.08-.08v-1.28c0-.044.036-.08.08-.08s.08.036.08.08v.548c.068-.224.424-.452.968-.452m.408.648c0-.408-.36-.556-.536-.556-.092 0-.28.04-.28.356a.54.54 0 0 0 .532.544c.088 0 .284-.032.284-.344M14.967 17.24c0-.365.464-.729.868-.729.252 0 .436.14.436.36 0 .348-.44.728-.88.728-.268 0-.424-.156-.424-.36" /><rect width=".13" height="3.32" x="-.07" y="0" ry=".04" transform="translate(16.204 13.555)" /><path d="M17.721 16.24c0-.365.464-.729.868-.729.252 0 .436.14.436.36 0 .348-.44.728-.88.728-.268 0-.424-.156-.424-.36" /><rect width=".13" height="2.5" x="-.07" y="-.18" ry=".04" transform="translate(18.958 13.555)" /><text font-size="1.85" text-anchor="start" transform="translate(20.225 9.533)">
<tspan>Do</tspan>
</text><path d="M20.225 15.74c0-.365.464-.729.868-.729.252 0 .436.14.436.36 0 .348-.44.728-.88.728-.268 0-.424-.156-.424-.36" /><rect width=".13" height="3.31" x="-.07" y="-1.5" ry=".04" transform="translate(21.462 13.555)" /><text font-size="1.85" text-anchor="start" transform="translate(25.31 9.533)">
<tspan>La</tspan>
</text><text font-size="1.85" text-anchor="start" transform="translate(27.742 9.533)">
<tspan>m</tspan>
</text><path d="M27.69 16.195c0 .044-.037.08-.08.08s-.08-.036-.08-.08v-1.28c0-.044.035-.08.08-.08s.08.036.08.08zm-2.669 0c0 .044-.036.08-.08.08s-.08-.036-.08-.08v-1.28c0-.044.036-.08.08-.08s.08.036.08.08zm1.256-1.184c.012 0 .836.008.968.452v-.548c0-.044.036-.08.08-.08s.08.036.08.08v1.28c0 .044-.036.08-.08.08s-.08-.036-.08-.08v-.548c-.068.224-.424.452-.968.452-.012 0-.836-.008-.968-.452v.548c0 .044-.036.08-.08.08s-.08-.036-.08-.08v-1.28c0-.044.036-.08.08-.08s.08.036.08.08v.548c.068-.224.424-.452.968-.452m.408.648c0-.408-.36-.556-.536-.556-.092 0-.28.04-.28.356a.54.54 0 0 0 .532.544c.088 0 .284-.032.284-.344" /><text font-size="1.85" text-anchor="start" transform="translate(32.49 9.533)">
<tspan>Ré</tspan>
</text><path d="M32.49 14.74c0-.365.465-.729.869-.729.252 0 .436.14.436.36 0 .348-.44.728-.88.728-.268 0-.424-.156-.424-.36" /><rect width=".13" height="2.81" x="-.07" y="-2" ry=".04" transform="translate(33.728 13.555)" /><path d="M34.995 15.24c0-.365.464-.729.868-.729.252 0 .436.14.436.36 0 .348-.44.728-.88.728-.268 0-.424-.156-.424-.36" /><rect width=".13" height="3.13" x="-.07" y="-1.82" ry=".04" transform="translate(36.232 13.555)" /><text font-size="1.85" text-anchor="start" transform="translate(37.5 9.533)">
<tspan>Sol</tspan>
</text><path d="M37.5 14.74c0-.365.463-.729.867-.729.252 0 .436.14.436.36 0 .348-.44.728-.88.728-.268 0-.424-.156-.424-.36" /><rect width=".13" height="3.31" x="-.07" y="-2.5" ry=".04" transform="translate(38.736 13.555)" /><text font-size="1.85" text-anchor="start" transform="translate(43.054 9.533)">
<tspan>Sol</tspan>
</text><path d="M45.434 16.695c0 .044-.036.08-.08.08s-.08-.036-.08-.08v-1.28c0-.044.036-.08.08-.08s.08.036.08.08zm-2.668 0c0 .044-.036.08-.08.08s-.08-.036-.08-.08v-1.28c0-.044.036-.08.08-.08s.08.036.08.08zm1.256-1.184c.012 0 .836.008.968.452v-.548c0-.044.036-.08.08-.08s.08.036.08.08v1.28c0 .044-.036.08-.08.08s-.08-.036-.08-.08v-.548c-.068.224-.424.452-.968.452-.012 0-.836-.008-.968-.452v.548c0 .044-.036.08-.08.08s-.08-.036-.08-.08v-1.28c0-.044.036-.08.08-.08s.08.036.08.08v.548c.068-.224.424-.452.968-.452m.408.648c0-.408-.36-.556-.536-.556-.092 0-.28.04-.28.356a.54.54 0 0 0 .532.544c.088 0 .284-.032.284-.344" /><text color="rgba(100.0000%, 0.0000%, 0.0000%, 100.0000%)" font-size="2.2" font-weight="bold" text-anchor="start" transform="translate(43.054 11.004)">
<tspan>+</tspan>
</text><path d="M50.236 17.24c0-.365.464-.729.868-.729.252 0 .436.14.436.36 0 .348-.44.728-.88.728-.268 0-.424-.156-.424-.36" /><rect width=".13" height="3.31" x="-.07" y="0" ry=".04" transform="translate(51.473 13.555)" /><path stroke="currentColor" stroke-linecap="round" stroke-linejoin="round" stroke-width=".08" d="M36.257 11.546v.395l-2.554-.188v-.396z" /></svg>