<svg xmlns="http://www.w3.org/2000/svg" width="365.25" height="61.34" viewBox="0 -4.02 57.89 9.72" fill="currentColor" font-family="Linux Libertine"><style type="text/css">tspan{white-space:pre}</style><rect width=".2" height="4" x="0" y="-2" ry="0" transform="translate(28.087 2.15)" /><rect width=".62" height="4" x="0" y="-2" ry="0" transform="translate(57.269 2.15)" /><rect width=".2" height="4" x="0" y="-2" ry="0" transform="translate(56.762 2.15)" /><path stroke="currentColor" stroke-linecap="round" stroke-linejoin="round" stroke-width=".1" d="M.05 4.15h57.79M.05 3.15h57.79M.05 2.15h57.79M.05 1.15h57.79M.05.15h57.79" /><rect width=".2" height="4" x="0" y="-2" ry="0" transform="translate(45.936 2.15)" /><rect width=".2" height="4" x="0" y="-2" ry="0" transform="translate(45.429 2.15)" /><path stroke="currentColor" stroke-linecap="round" stroke-linejoin="round" stroke-width=".08" d="M10.971-.048v.395L8.817.536V.14z" /><text font-size="1.85" text-anchor="start" transform="translate(7.605 -1.873)">
<tspan>Fa</tspan>
</text><path d="M7.605 3.834c0-.364.464-.728.868-.728.252 0 .436.14.436.36 0 .348-.44.728-.88.728-.268 0-.424-.156-.424-.36M1.864 5.69H1.84a.783.783 0 0 1-.78-.788c0-.232.212-.412.448-.412.216 0 .38.188.38.412 0 .208-.172.38-.38.38a.3.3 0 0 1-.124-.024c.104.156.272.26.468.26h.016zm.54-3.144c.076.356.192.968.24 1.416a.67.67 0 0 0 .448-.652.753.753 0 0 0-.688-.764m-1.308.492c0 .448.392.988 1.112.988q.127 0 .272-.024a17 17 0 0 0-.252-1.456c-.316.032-.496.244-.496.476 0 .176.1.364.324.492q.029.03.028.06c0 .044-.04.088-.088.088-.06 0-.504-.248-.504-.748 0-.352.232-.696.64-.788a15 15 0 0 0-.184-.7c-.428.484-.852.972-.852 1.612m1.132-4.664c.112 0 .572.824.572 1.444 0 .572-.344 1.02-.72 1.456.084.272.156.552.224.828q.031-.002.056-.004c.62 0 1.02.516 1.02 1.048 0 .452-.296.848-.72.98q.019.21.02.42c0 .076-.004.156-.008.232-.028.476-.352.9-.808.912l.004-.172c.372-.008.612-.368.636-.764a3.775 3.775 0 0 0-.008-.588q-.169.031-.32.032C1.22 4.198.808 3.33.808 2.702c0-.708.524-1.224.992-1.764-.116-.384-.208-.68-.208-1.384 0-.756.576-1.18.636-1.18M1.788.022c0 .22.048.46.14.76.328-.4.588-.808.588-1.304 0-.16-.024-.328-.084-.508A1.13 1.13 0 0 0 1.788.022M4.413 1.986l-.004.264v.044q-.001.132.016.264c.18-.152.372-.32.372-.556 0-.132-.056-.268-.172-.268-.124 0-.208.12-.212.252m-.168.716L4.197.322c.032-.02.072-.032.108-.032s.076.012.108.032l-.028 1.38a.58.58 0 0 1 .364-.136c.208 0 .356.192.356.408 0 .32-.344.468-.588.676-.06.052-.096.152-.18.152-.052 0-.092-.044-.092-.1" /><rect width=".13" height="3.13" x="-.07" y="-1.82" ry=".04" transform="translate(8.842 2.15)" /><path d="M9.71 3.334c0-.364.463-.728.867-.728.252 0 .436.14.436.36 0 .348-.44.728-.88.728-.268 0-.424-.156-.424-.36" /><rect width=".13" height="2.81" x="-.07" y="-1.99" ry=".04" transform="translate(10.946 2.15)" /><path d="M14.34 3.29c0 .044-.036.08-.08.08s-.08-.036-.08-.08V2.01c0-.044.036-.08.08-.08s.08.036.08.08zm-2.668 0c0 .044-.036.08-.08.08s-.08-.036-.08-.08V2.01c0-.044.036-.08.08-.08s.08.036.08.08zm1.256-1.184c.012 0 .836.008.968.452V2.01c0-.044.036-.08.08-.08s.08.036.08.08v1.28c0 .044-.036.08-.08.08s-.08-.036-.08-.08v-.548c-.068.224-.424.452-.968.452-.012 0-.836-.008-.968-.452v.548c0 .044-.036.08-.08.08s-.08-.036-.08-.08V2.01c0-.044.036-.08.08-.08s.08.036.08.08v.548c.068-.224.424-.452.968-.452m.408.648c0-.408-.36-.556-.536-.556-.092 0-.28.04-.28.356a.54.54 0 0 0 .532.544c.088 0 .284-.032.284-.344" /><text font-size="1.85" text-anchor="start" transform="translate(18.44 -1.873)">
<tspan>Si</tspan>
</text><path d="m20.628-2.791-.006.18v.033q0 .095.015.191c.126-.113.26-.242.26-.413 0-.097-.038-.19-.122-.19-.093 0-.144.097-.147.199m-.003-1.233-.027 1.01a.4.4 0 0 1 .285-.12c.15 0 .246.154.246.316 0 .23-.24.35-.411.507-.054.05-.078.144-.156.144-.048 0-.084-.045-.084-.096l-.045-1.761q.046-.025.096-.024c.05 0 .066.006.096.024M20.82 2.79c0 .044-.036.08-.08.08s-.08-.036-.08-.08V1.51c0-.044.036-.08.08-.08s.08.036.08.08zm-2.668 0c0 .044-.036.08-.08.08s-.08-.036-.08-.08V1.51c0-.044.036-.08.08-.08s.08.036.08.08zm1.256-1.184c.012 0 .836.008.968.452V1.51c0-.044.036-.08.08-.08s.08.036.08.08v1.28c0 .044-.036.08-.08.08s-.08-.036-.08-.08v-.548c-.068.224-.424.452-.968.452-.012 0-.836-.008-.968-.452v.548c0 .044-.036.08-.08.08s-.08-.036-.08-.08V1.51c0-.044.036-.08.08-.08s.08.036.08.08v.548c.068-.224.424-.452.968-.452m.408.648c0-.408-.36-.556-.536-.556-.092 0-.28.04-.28.356a.54.54 0 0 0 .532.544c.088 0 .284-.032.284-.344" /><text font-size="1.85" text-anchor="start" transform="translate(24.92 -1.873)">
<tspan>Fa</tspan>
</text><path d="M24.92 2.834c0-.364.463-.728.867-.728.252 0 .436.14.436.36 0 .348-.44.728-.88.728-.268 0-.424-.156-.424-.36" /><rect width=".13" height="3.31" x="-.07" y="-3" ry=".04" transform="translate(26.156 2.15)" /><text font-size="1.85" text-anchor="start" transform="translate(29.23 -1.873)">
<tspan>Fa</tspan>
</text><path d="M31.61 3.29c0 .044-.036.08-.08.08s-.08-.036-.08-.08V2.01c0-.044.036-.08.08-.08s.08.036.08.08zm-2.668 0c0 .044-.036.08-.08.08s-.08-.036-.08-.08V2.01c0-.044.036-.08.08-.08s.08.036.08.08zm1.256-1.184c.012 0 .836.008.968.452V2.01c0-.044.036-.08.08-.08s.08.036.08.08v1.28c0 .044-.036.08-.08.08s-.08-.036-.08-.08v-.548c-.068.224-.424.452-.968.452-.012 0-.836-.008-.968-.452v.548c0 .044-.036.08-.08.08s-.08-.036-.08-.08V2.01c0-.044.036-.08.08-.08s.08.036.08.08v.548c.068-.224.424-.452.968-.452m.408.648c0-.408-.36-.556-.536-.556-.092 0-.28.04-.28.356a.54.54 0 0 0 .532.544c.088 0 .284-.032.284-.344" /><text font-size="1.85" text-anchor="start" transform="translate(35.71 -1.873)">
<tspan>Do</tspan>
</text><text font-size="1.31" text-anchor="start" transform="translate(38.174 -2.714)">
<tspan>7</tspan>
</text><path d="M38.09 3.79c0 .044-.036.08-.08.08s-.08-.036-.08-.08V2.51c0-.044.036-.08.08-.08s.08.036.08.08zm-2.668 0c0 .044-.036.08-.08.08s-.08-.036-.08-.08V2.51c0-.044.036-.08.08-.08s.08.036.08.08zm1.256-1.184c.012 0 .836.008.968.452V2.51c0-.044.036-.08.08-.08s.08.036.08.08v1.28c0 .044-.036.08-.08.08s-.08-.036-.08-.08v-.548c-.068.224-.424.452-.968.452-.012 0-.836-.008-.968-.452v.548c0 .044-.036.08-.08.08s-.08-.036-.08-.08V2.51c0-.044.036-.08.08-.08s.08.036.08.08v.548c.068-.224.424-.452.968-.452m.408.648c0-.408-.36-.556-.536-.556-.092 0-.28.04-.28.356a.54.54 0 0 0 .532.544c.088 0 .284-.032.284-.344" /><text font-size="1.85" text-anchor="start" transform="translate(42.19 -1.873)">
<tspan>Fa</tspan>
</text><path d="M42.19 3.834c0-.364.464-.728.868-.728.252 0 .436.14.436.36 0 .348-.44.728-.88.728-.268 0-.424-.156-.424-.36" /><rect width=".13" height="3.31" x="-.07" y="-2" ry=".04" transform="translate(43.427 2.15)" /><text font-size="1.85" text-anchor="start" transform="translate(47.078 -1.873)">
<tspan>Fa</tspan>
</text><path d="M49.459 3.29c0 .044-.037.08-.08.08s-.08-.036-.08-.08V2.01c0-.044.036-.08.08-.08s.08.036.08.08zm-2.669 0c0 .044-.035.08-.08.08s-.08-.036-.08-.08V2.01c0-.044.037-.08.08-.08s.08.036.08.08zm1.256-1.184c.012 0 .836.008.968.452V2.01c0-.044.036-.08.08-.08s.08.036.08.08v1.28c0 .044-.036.08-.08.08s-.08-.036-.08-.08v-.548c-.068.224-.424.452-.968.452-.012 0-.836-.008-.968-.452v.548c0 .044-.036.08-.08.08s-.08-.036-.08-.08V2.01c0-.044.036-.08.08-.08s.08.036.08.08v.548c.068-.224.424-.452.968-.452m.408.648c0-.408-.36-.556-.536-.556-.092 0-.28.04-.28.356a.54.54 0 0 0 .532.544c.088 0 .284-.032.284-.344" /><text color="rgba(100.0000%, 0.0000%, 0.0000%, 100.0000%)" font-size="2.2" font-weight="bold" text-anchor="start" transform="translate(47.078 -.402)">
<tspan>+</tspan>
</text><g color="rgba(100.0000%, 0.0000%, 0.0000%, 100.0000%)"><text font-size="1.75" text-anchor="start" transform="translate(3 -1.3)">
<tspan>Magn.</tspan>
</text><rect width=".1" height="2.07" x="-.26" y="-1.39" ry="0" transform="translate(3 -1.3)" /><rect width=".1" height="2.07" x="4.62" y="-1.39" ry="0" transform="translate(3 -1.3)" /><rect width="4.98" height=".1" x="-.26" y=".57" ry="0" transform="translate(3 -1.3)" /><rect width="4.98" height=".1" x="-.26" y="-1.39" ry="0" transform="translate(3 -1.3)" /></g><text font-size="1.85" text-anchor="start" transform="translate(53.558 -1.873)">
<tspan>Do</tspan>
</text><text font-size="1.31" text-anchor="start" transform="translate(56.023 -2.714)">
<tspan>7</tspan>
</text><path d="M53.558 3.334c0-.364.464-.728.868-.728.252 0 .436.14.436.36 0 .348-.44.728-.88.728-.268 0-.424-.156-.424-.36" /><rect width=".13" height="3.31" x="-.07" y="-2.5" ry=".04" transform="translate(54.795 2.15)" /></svg>