<svg xmlns="http://www.w3.org/2000/svg" width="388.35" height="66.29" viewBox="0 -2.66 61.55 10.51" fill="currentColor" font-family="Linux Libertine"><style type="text/css">tspan{white-space:pre}</style><rect width=".2" height="4" x="0" y="-2" ry="0" transform="translate(16.762 1.292)" /><rect width=".2" height="4" x="0" y="-2" ry="0" transform="translate(61.35 1.292)" /><rect width=".2" height="4" x="0" y="-2" ry="0" transform="translate(60.843 1.292)" /><path stroke="currentColor" stroke-linecap="round" stroke-linejoin="round" stroke-width=".1" d="M.05 3.292h61.44M.05 2.292h61.44M.05 1.292h61.44M.05.292h61.44M.05-.708h61.44" /><rect width=".2" height="4" x="0" y="-2" ry="0" transform="translate(38.82 1.292)" /><path stroke="currentColor" stroke-linecap="round" stroke-linejoin="round" stroke-width=".08" d="M51.752 3.906v.396H40.09v-.396z" /><path d="M10.875 2.476c0-.364.464-.728.868-.728.252 0 .436.14.436.36 0 .348-.44.728-.88.728-.268 0-.424-.156-.424-.36M1.864 4.832H1.84a.783.783 0 0 1-.78-.788c0-.232.212-.412.448-.412.216 0 .38.188.38.412 0 .208-.172.38-.38.38a.3.3 0 0 1-.124-.024c.104.156.272.26.468.26h.016zm.54-3.144c.076.356.192.968.24 1.416a.67.67 0 0 0 .448-.652.753.753 0 0 0-.688-.764m-1.308.492c0 .448.392.988 1.112.988q.127 0 .272-.024a17 17 0 0 0-.252-1.456c-.316.032-.496.244-.496.476 0 .176.1.364.324.492q.029.03.028.06c0 .044-.04.088-.088.088-.06 0-.504-.248-.504-.748 0-.352.232-.696.64-.788a15 15 0 0 0-.184-.7c-.428.484-.852.972-.852 1.612m1.132-4.664c.112 0 .572.824.572 1.444 0 .572-.344 1.02-.72 1.456.084.272.156.552.224.828.02 0 .04-.004.056-.004.62 0 1.02.516 1.02 1.048 0 .452-.296.848-.72.98q.019.21.02.42-.001.116-.008.232c-.028.476-.352.9-.808.912l.004-.172c.372-.008.612-.368.636-.764q.007-.11.008-.22.001-.184-.016-.368-.169.031-.32.032C1.22 3.34.808 2.472.808 1.844c0-.708.524-1.224.992-1.764-.116-.384-.208-.68-.208-1.384 0-.756.576-1.18.636-1.18m-.44 1.648c0 .22.048.46.14.76.328-.4.588-.808.588-1.304 0-.16-.024-.328-.084-.508a1.13 1.13 0 0 0-.644 1.052M4.413 1.128l-.004.264v.044q-.001.132.016.264c.18-.152.372-.32.372-.556 0-.132-.056-.268-.172-.268-.124 0-.208.12-.212.252m-.168.716-.048-2.38c.032-.02.072-.032.108-.032s.076.012.108.032L4.385.844a.58.58 0 0 1 .364-.136c.208 0 .356.192.356.408 0 .32-.344.468-.588.676-.06.052-.096.152-.18.152-.052 0-.092-.044-.092-.1M5.333-.372l-.004.264v.044q-.001.132.016.264c.18-.152.372-.32.372-.556 0-.132-.056-.268-.172-.268-.124 0-.208.12-.212.252m-.168.716-.048-2.38c.032-.02.072-.032.108-.032s.076.012.108.032l-.028 1.38a.58.58 0 0 1 .364-.136c.208 0 .356.192.356.408 0 .32-.344.468-.588.676-.06.052-.096.152-.18.152-.052 0-.092-.044-.092-.1M8.907 1.648c0 .088-.2.696-.732.696-.236 0-1-.076-1-1.052 0-.248.072-1.048 1-1.048.464 0 .704.424.704.652 0 .16-.12.288-.268.288-.124 0-.3-.1-.3-.3 0-.152.108-.308.288-.308q.025-.001.056.004a.6.6 0 0 0-.48-.236c-.424 0-.452.292-.452.744v.408c0 .452.028.748.452.748.32 0 .556-.28.632-.604.008-.028.028-.04.048-.04.024 0 .052.016.052.048" /><text font-size="2.51" text-anchor="start" transform="translate(10.305 7.098)">
<tspan>Le</tspan>
</text><rect width=".13" height="2.81" x="-.07" y="-2" ry=".04" transform="translate(12.112 1.292)" /><path d="M14.057 2.476c0-.364.464-.728.868-.728.252 0 .436.14.436.36 0 .348-.44.728-.88.728-.268 0-.424-.156-.424-.36" /><text font-size="2.51" text-anchor="start" transform="translate(13.65 7.098)">
<tspan>sa</tspan>
</text><rect width=".13" height="2.81" x="-.07" y="-2" ry=".04" transform="translate(15.294 1.292)" /><rect width=".36" height=".13" x="0" y="-.56" ry=".04" transform="translate(42.693 7.098)" /><text font-size="1.85" text-anchor="start" transform="translate(18.02 -1.37)">
<tspan>Sol</tspan>
</text><text font-size="1.85" text-anchor="start" transform="translate(20.956 -1.37)">
<tspan>m</tspan>
</text><path d="M18.02.476c0-.364.464-.728.868-.728.252 0 .436.14.436.36 0 .348-.44.728-.88.728-.268 0-.424-.156-.424-.36" /><text font-size="2.51" text-anchor="start" transform="translate(17.019 7.098)">
<tspan>lut,</tspan>
</text><rect width=".13" height="3.31" x="-.07" y="-.81" ry=".04" transform="translate(18.087 1.292)" /><path d="M21.724.476c0-.364.464-.728.868-.728.252 0 .436.14.436.36 0 .348-.44.728-.88.728-.268 0-.424-.156-.424-.36" /><text font-size="2.51" text-anchor="start" transform="translate(21.477 7.098)">
<tspan>la</tspan>
</text><rect width=".13" height="2.81" x="-.07" y="-.81" ry=".04" transform="translate(21.791 1.292)" /><path stroke="currentColor" stroke-linecap="round" stroke-linejoin="round" stroke-width=".08" d="M25.753 3.094v.396h-3.987v-.396z" /><path d="M25.66.476c0-.364.465-.728.869-.728.252 0 .436.14.436.36 0 .348-.44.728-.88.728-.268 0-.424-.156-.424-.36" /><text font-size="2.51" text-anchor="start" transform="translate(24.175 7.098)">
<tspan>puis</tspan>
</text><rect width=".13" height="2.81" x="-.07" y="-.81" ry=".04" transform="translate(25.728 1.292)" /><rect width=".36" height=".13" x="0" y="-.56" ry=".04" transform="translate(28.521 7.098)" /><text font-size="1.85" text-anchor="start" transform="translate(31.408 -1.37)">
<tspan>Ré</tspan>
</text><text font-size="1.85" text-anchor="start" transform="translate(33.949 -1.37)">
<tspan>m</tspan>
</text><text font-size="1.85" text-anchor="start" transform="translate(35.459 -1.37)">
<tspan>/</tspan>
</text><text font-size="1.85" text-anchor="start" transform="translate(36.07 -1.37)">
<tspan>Fa</tspan>
</text><path d="M31.408.476c0-.364.464-.728.868-.728.252 0 .436.14.436.36 0 .348-.44.728-.88.728-.268 0-.424-.156-.424-.36" /><text font-size="2.51" text-anchor="start" transform="translate(28.951 7.098)">
<tspan>sance,</tspan>
</text><path d="M33.162-.208a.224.224 0 1 1 .448 0 .224.224 0 0 1-.448 0" /><rect width=".13" height="3.31" x="-.07" y="-.81" ry=".04" transform="translate(31.475 1.292)" /><path d="M36.316.476c0-.364.463-.728.867-.728.253 0 .437.14.437.36 0 .348-.44.728-.88.728-.269 0-.425-.156-.425-.36" /><text font-size="2.51" text-anchor="start" transform="translate(36.07 7.098)">
<tspan>la</tspan>
</text><rect width=".13" height="3.31" x="-.07" y="-.81" ry=".04" transform="translate(36.383 1.292)" /><path d="M36.45 3.75h-.064v-1.5h.064zm.896-2.036c0-.376-.16-.632-.16-.672 0-.056.044-.088.092-.088.028 0 .06.012.08.044.1.224.16.468.16.716 0 .812-1.068 1.224-1.068 2.036v-1c.388-.236.896-.592.896-1.036" /><rect width=".36" height=".13" x="0" y="-.56" ry=".04" transform="translate(50.48 7.098)" /><text font-size="1.85" text-anchor="start" transform="translate(40.048 -1.37)">
<tspan>Do</tspan>
</text><text font-size="1.85" text-anchor="start" transform="translate(42.913 -1.37)">
<tspan>m</tspan>
</text><path d="M40.049.976c0-.364.463-.728.867-.728.253 0 .437.14.437.36 0 .348-.44.728-.88.728-.269 0-.425-.156-.425-.36" /><text font-size="2.51" text-anchor="start" transform="translate(38.778 7.098)">
<tspan>gloi</tspan>
</text><rect width=".13" height="3.13" x="-.07" y="-.31" ry=".04" transform="translate(40.116 1.292)" /><path stroke="currentColor" stroke-linecap="round" stroke-linejoin="round" stroke-width=".08" d="M15.32-.906v.396h-3.233v-.396z" /><path d="M44.353.976c0-.364.464-.728.868-.728.252 0 .436.14.436.36 0 .348-.44.728-.88.728-.268 0-.424-.156-.424-.36" /><text font-size="2.51" text-anchor="start" transform="translate(43.123 7.098)">
<tspan>re</tspan>
</text><path d="M46.508 7.558c0 .055-.386.4-1.072.4s-1.072-.345-1.072-.4c0-.032.028-.064.065-.064.013 0 .027 0 .041.013.258.226.621.24.966.24s.709-.014.966-.24c.014-.013.028-.013.042-.013.036 0 .064.032.064.064" /><text font-size="2.51" text-anchor="start" transform="translate(45.736 7.098)">
<tspan>à</tspan>
</text><rect width=".13" height="3.13" x="-.07" y="-.31" ry=".04" transform="translate(44.42 1.292)" /><rect width=".66" height=".13" x="0" y="-.56" ry=".04" transform="translate(16.064 7.098)" /><path d="M48.446 1.476c0-.364.464-.728.868-.728.252 0 .436.14.436.36 0 .348-.44.728-.88.728-.268 0-.424-.156-.424-.36" /><text font-size="2.51" text-anchor="start" transform="translate(47.786 7.098)">
<tspan>no</tspan>
</text><rect width=".13" height="2.63" x="-.07" y=".19" ry=".04" transform="translate(48.513 1.292)" /><path d="M51.66.976c0-.364.463-.728.867-.728.252 0 .436.14.436.36 0 .348-.44.728-.88.728-.268 0-.424-.156-.424-.36" /><text font-size="2.51" text-anchor="start" transform="translate(50.91 7.098)">
<tspan>tre</tspan>
</text><rect width=".13" height="3.13" x="-.07" y="-.31" ry=".04" transform="translate(51.727 1.292)" /><text font-size="1.85" text-anchor="start" transform="translate(57.34 -1.37)">
<tspan>Ré</tspan>
</text><path d="M57.34.476c0-.364.463-.728.867-.728.253 0 .437.14.437.36 0 .348-.44.728-.88.728-.269 0-.425-.156-.425-.36" /><text font-size="2.51" text-anchor="start" transform="translate(54.613 7.098)">
<tspan>Dieu…</tspan>
</text><rect width=".13" height="3.31" x="-.07" y="-.81" ry=".04" transform="translate(57.407 1.292)" /></svg>