<svg xmlns="http://www.w3.org/2000/svg" width="616.03" height="66.48" viewBox="0 -0.02 97.63 10.54" fill="currentColor" font-family="Linux Libertine"><style type="text/css">tspan{white-space:pre}</style><rect width=".2" height="4" x="0" y="-2" ry="0" transform="translate(16.762 3.776)" /><path stroke="currentColor" stroke-linecap="round" stroke-linejoin="round" stroke-width=".1" d="M.05 5.776h97.53M.05 4.776h97.53M.05 3.776h97.53M.05 2.776h97.53M.05 1.776h97.53" /><rect width=".62" height="4" x="0" y="-2" ry="0" transform="translate(97.012 3.776)" /><rect width=".2" height="4" x="0" y="-2" ry="0" transform="translate(96.505 3.776)" /><rect width=".2" height="4" x="0" y="-2" ry="0" transform="translate(82.838 3.776)" /><rect width=".2" height="4" x="0" y="-2" ry="0" transform="translate(66.745 3.776)" /><rect width=".2" height="4" x="0" y="-2" ry="0" transform="translate(38.82 3.776)" /><path d="M10.875 4.96c0-.364.464-.728.868-.728.252 0 .436.14.436.36 0 .348-.44.728-.88.728-.268 0-.424-.156-.424-.36M1.864 7.316H1.84a.783.783 0 0 1-.78-.788c0-.232.212-.412.448-.412.216 0 .38.188.38.412 0 .208-.172.38-.38.38a.3.3 0 0 1-.124-.024c.104.156.272.26.468.26h.016zm.54-3.144c.076.356.192.968.24 1.416a.67.67 0 0 0 .448-.652.753.753 0 0 0-.688-.764m-1.308.492c0 .448.392.988 1.112.988q.127 0 .272-.024a17 17 0 0 0-.252-1.456c-.316.032-.496.244-.496.476 0 .176.1.364.324.492q.029.03.028.06c0 .044-.04.088-.088.088-.06 0-.504-.248-.504-.748 0-.352.232-.696.64-.788a15 15 0 0 0-.184-.7c-.428.484-.852.972-.852 1.612M2.228 0C2.34 0 2.8.824 2.8 1.444c0 .572-.344 1.02-.72 1.456.084.272.156.552.224.828.02 0 .04-.004.056-.004.62 0 1.02.516 1.02 1.048 0 .452-.296.848-.72.98q.019.21.02.42c0 .076-.004.156-.008.232-.028.476-.352.9-.808.912l.004-.172c.372-.008.612-.368.636-.764q.007-.11.008-.22.001-.184-.016-.368-.169.031-.32.032c-.956 0-1.368-.868-1.368-1.496 0-.708.524-1.224.992-1.764-.116-.384-.208-.68-.208-1.384 0-.756.576-1.18.636-1.18m-.44 1.648c0 .22.048.46.14.76.328-.4.588-.808.588-1.304 0-.16-.024-.328-.084-.508a1.13 1.13 0 0 0-.644 1.052M4.413 3.612l-.004.264v.044q-.001.132.016.264c.18-.152.372-.32.372-.556 0-.132-.056-.268-.172-.268-.124 0-.208.12-.212.252m-.168.716-.048-2.38c.032-.02.072-.032.108-.032s.076.012.108.032l-.028 1.38a.58.58 0 0 1 .364-.136c.208 0 .356.192.356.408 0 .32-.344.468-.588.676-.06.052-.096.152-.18.152-.052 0-.092-.044-.092-.1M5.333 2.112l-.004.264v.044q-.001.132.016.264c.18-.152.372-.32.372-.556 0-.132-.056-.268-.172-.268-.124 0-.208.12-.212.252m-.168.716L5.117.448c.032-.02.072-.032.108-.032s.076.012.108.032l-.028 1.38a.58.58 0 0 1 .364-.136c.208 0 .356.192.356.408 0 .32-.344.468-.588.676-.06.052-.096.152-.18.152-.052 0-.092-.044-.092-.1M8.907 4.132c0 .088-.2.696-.732.696-.236 0-1-.076-1-1.052 0-.248.072-1.048 1-1.048.464 0 .704.424.704.652 0 .16-.12.288-.268.288-.124 0-.3-.1-.3-.3 0-.152.108-.308.288-.308q.025-.001.056.004a.6.6 0 0 0-.48-.236c-.424 0-.452.292-.452.744v.408c0 .452.028.748.452.748.32 0 .556-.28.632-.604.008-.028.028-.04.048-.04.024 0 .052.016.052.048" /><text font-size="2.51" text-anchor="start" transform="translate(10.305 9.765)">
<tspan>Le</tspan>
</text><rect width=".13" height="2.81" x="-.07" y="-2" ry=".04" transform="translate(12.112 3.776)" /><rect width=".66" height=".13" x="0" y="-.54" ry=".04" transform="translate(86.15 9.765)" /><path d="M14.057 4.96c0-.364.464-.728.868-.728.252 0 .436.14.436.36 0 .348-.44.728-.88.728-.268 0-.424-.156-.424-.36" /><text font-size="2.51" text-anchor="start" transform="translate(13.65 9.765)">
<tspan>sa</tspan>
</text><rect width=".13" height="2.81" x="-.07" y="-2" ry=".04" transform="translate(15.294 3.776)" /><rect width=".66" height=".13" x="0" y="-.54" ry=".04" transform="translate(73.69 9.765)" /><path d="M18.02 2.96c0-.364.464-.728.868-.728.252 0 .436.14.436.36 0 .348-.44.728-.88.728-.268 0-.424-.156-.424-.36" /><rect width=".66" height=".13" x="0" y="-.54" ry=".04" transform="translate(70.057 9.765)" /><text font-size="2.51" text-anchor="start" transform="translate(17.019 9.765)">
<tspan>lut,</tspan>
</text><rect width=".13" height="3.31" x="-.07" y="-.81" ry=".04" transform="translate(18.087 3.776)" /><rect width=".66" height=".13" x="0" y="-.54" ry=".04" transform="translate(65.885 9.765)" /><path d="M21.724 2.96c0-.364.464-.728.868-.728.252 0 .436.14.436.36 0 .348-.44.728-.88.728-.268 0-.424-.156-.424-.36" /><text font-size="2.51" text-anchor="start" transform="translate(21.477 9.765)">
<tspan>la</tspan>
</text><rect width=".13" height="2.81" x="-.07" y="-.81" ry=".04" transform="translate(21.791 3.776)" /><path d="M25.66 2.96c0-.364.465-.728.869-.728.252 0 .436.14.436.36 0 .348-.44.728-.88.728-.268 0-.424-.156-.424-.36" /><text font-size="2.51" text-anchor="start" transform="translate(24.175 9.765)">
<tspan>puis</tspan>
</text><rect width=".13" height="2.81" x="-.07" y="-.81" ry=".04" transform="translate(25.728 3.776)" /><path stroke="currentColor" stroke-linecap="round" stroke-linejoin="round" stroke-width=".08" d="M51.752 6.39v.396H40.09V6.39z" /><path d="M31.408 2.96c0-.364.464-.728.868-.728.252 0 .436.14.436.36 0 .348-.44.728-.88.728-.268 0-.424-.156-.424-.36" /><text font-size="2.51" text-anchor="start" transform="translate(28.951 9.765)">
<tspan>sance,</tspan>
</text><path d="M33.162 2.276a.224.224 0 1 1 .448 0 .224.224 0 0 1-.448 0" /><rect width=".13" height="3.31" x="-.07" y="-.81" ry=".04" transform="translate(31.475 3.776)" /><path d="M36.316 2.96c0-.364.463-.728.867-.728.253 0 .437.14.437.36 0 .348-.44.728-.88.728-.269 0-.425-.156-.425-.36" /><text font-size="2.51" text-anchor="start" transform="translate(36.07 9.765)">
<tspan>la</tspan>
</text><rect width=".13" height="3.31" x="-.07" y="-.81" ry=".04" transform="translate(36.383 3.776)" /><path d="M36.45 6.234h-.064v-1.5h.064zm.896-2.036c0-.376-.16-.632-.16-.672 0-.056.044-.088.092-.088.028 0 .06.012.08.044.1.224.16.468.16.716 0 .812-1.068 1.224-1.068 2.036v-1c.388-.236.896-.592.896-1.036" /><rect width=".36" height=".13" x="0" y="-.56" ry=".04" transform="translate(50.48 9.765)" /><path d="M40.049 3.46c0-.364.463-.728.867-.728.253 0 .437.14.437.36 0 .348-.44.728-.88.728-.269 0-.425-.156-.425-.36" /><text font-size="2.51" text-anchor="start" transform="translate(38.778 9.765)">
<tspan>gloi</tspan>
</text><rect width=".13" height="3.13" x="-.07" y="-.31" ry=".04" transform="translate(40.116 3.776)" /><rect width=".36" height=".13" x="0" y="-.56" ry=".04" transform="translate(42.693 9.765)" /><path d="M44.353 3.46c0-.364.464-.728.868-.728.252 0 .436.14.436.36 0 .348-.44.728-.88.728-.268 0-.424-.156-.424-.36" /><text font-size="2.51" text-anchor="start" transform="translate(43.123 9.765)">
<tspan>re</tspan>
</text><path d="M46.508 10.225c0 .056-.386.4-1.072.4s-1.072-.344-1.072-.4c0-.032.028-.064.065-.064.013 0 .027 0 .041.014.258.225.621.239.966.239s.709-.014.966-.24c.014-.013.028-.013.042-.013.036 0 .064.032.064.064" /><text font-size="2.51" text-anchor="start" transform="translate(45.736 9.765)">
<tspan>à</tspan>
</text><rect width=".13" height="3.13" x="-.07" y="-.31" ry=".04" transform="translate(44.42 3.776)" /><path d="M48.446 3.96c0-.364.464-.728.868-.728.252 0 .436.14.436.36 0 .348-.44.728-.88.728-.268 0-.424-.156-.424-.36" /><text font-size="2.51" text-anchor="start" transform="translate(47.786 9.765)">
<tspan>no</tspan>
</text><rect width=".13" height="2.63" x="-.07" y=".19" ry=".04" transform="translate(48.513 3.776)" /><path d="M51.66 3.46c0-.364.463-.728.867-.728.252 0 .436.14.436.36 0 .348-.44.728-.88.728-.268 0-.424-.156-.424-.36" /><text font-size="2.51" text-anchor="start" transform="translate(50.91 9.765)">
<tspan>tre</tspan>
</text><rect width=".13" height="3.13" x="-.07" y="-.31" ry=".04" transform="translate(51.727 3.776)" /><rect width=".66" height=".13" x="0" y="-.54" ry=".04" transform="translate(81.834 9.765)" /><path d="M57.34 2.96c0-.364.463-.728.867-.728.253 0 .437.14.437.36 0 .348-.44.728-.88.728-.269 0-.425-.156-.425-.36" /><text font-size="2.51" text-anchor="start" transform="translate(54.613 9.765)">
<tspan>Dieu…</tspan>
</text><rect width=".13" height="3.31" x="-.07" y="-.81" ry=".04" transform="translate(57.407 3.776)" /><path stroke="currentColor" stroke-linecap="round" stroke-linejoin="round" stroke-width=".08" d="M25.753 5.578v.396h-3.987v-.396z" /><rect width=".36" height=".13" x="0" y="-.56" ry=".04" transform="translate(28.521 9.765)" /><path d="M61.61 1.164c.147 0 .267.116.267.264v.08c0 .428-.408.64-.456.64a.053.053 0 0 1-.052-.052c0-.072.264-.1.32-.48h-.108a.213.213 0 0 1-.212-.212.24.24 0 0 1 .24-.24M62.876 4.46c0-.364.464-.728.868-.728.252 0 .436.14.436.36 0 .348-.44.728-.88.728-.268 0-.424-.156-.424-.36" /><text font-size="2.37" font-weight="bold" text-anchor="start" transform="translate(62.27 9.765)">
<tspan>Al</tspan>
</text><rect width=".13" height="3.31" x="-.07" y="-3" ry=".04" transform="translate(64.113 3.776)" /><path d="M67.946 3.96c0-.364.463-.728.867-.728.252 0 .436.14.436.36 0 .348-.44.728-.88.728-.267 0-.423-.156-.423-.36" /><text font-size="2.37" font-weight="bold" text-anchor="start" transform="translate(67.645 9.765)">
<tspan>lé</tspan>
</text><rect width=".13" height="3.15" x="-.07" y=".19" ry=".04" transform="translate(68.013 3.776)" /><path stroke="currentColor" stroke-linecap="round" stroke-linejoin="round" stroke-width=".08" d="M15.32 1.578v.396h-3.233v-.396z" /><path d="M71.65 3.46c0-.364.464-.728.868-.728.252 0 .436.14.436.36 0 .348-.44.728-.88.728-.268 0-.424-.156-.424-.36" /><text font-size="2.37" font-weight="bold" text-anchor="start" transform="translate(71.224 9.765)">
<tspan>lu</tspan>
</text><rect width=".13" height="3.31" x="-.07" y="-.31" ry=".04" transform="translate(71.717 3.776)" /><rect width=".66" height=".13" x="0" y="-.56" ry=".04" transform="translate(16.064 9.765)" /><path d="M75.264 4.46c0-.364.464-.728.868-.728.252 0 .436.14.436.36 0 .348-.44.728-.88.728-.268 0-.424-.156-.424-.36" /><text font-size="2.37" font-weight="bold" text-anchor="start" transform="translate(74.658 9.765)">
<tspan>ia,</tspan>
</text><rect width=".13" height="3.31" x="-.07" y="-3" ry=".04" transform="translate(76.501 3.776)" /><path d="M78.968 4.46c0-.364.464-.728.868-.728.252 0 .436.14.436.36 0 .348-.44.728-.88.728-.268 0-.424-.156-.424-.36" /><text font-size="2.37" font-weight="bold" text-anchor="start" transform="translate(78.65 9.765)">
<tspan>al</tspan>
</text><rect width=".13" height="3.31" x="-.07" y="-3" ry=".04" transform="translate(80.205 3.776)" /><path d="M84.038 3.96c0-.364.464-.728.868-.728.252 0 .436.14.436.36 0 .348-.44.728-.88.728-.268 0-.424-.156-.424-.36" /><text font-size="2.37" font-weight="bold" text-anchor="start" transform="translate(83.738 9.765)">
<tspan>lé</tspan>
</text><rect width=".13" height="3.15" x="-.07" y=".19" ry=".04" transform="translate(84.105 3.776)" /><path d="M87.742 3.46c0-.364.464-.728.868-.728.252 0 .436.14.436.36 0 .348-.44.728-.88.728-.268 0-.424-.156-.424-.36" /><text font-size="2.37" font-weight="bold" text-anchor="start" transform="translate(87.316 9.765)">
<tspan>lu</tspan>
</text><rect width=".13" height="3.31" x="-.07" y="-.31" ry=".04" transform="translate(87.81 3.776)" /><path d="M91.655 4.7c.16 0 .816-.44.924-.572a.2.2 0 0 0 .044-.112.166.166 0 0 0-.168-.164c-.16 0-.816.44-.924.572a.2.2 0 0 0-.04.112c0 .088.068.164.164.164m-.288-.156c0-.284.184-.812 1.032-.812.164 0 .344.04.344.276 0 .284-.184.812-1.032.812-.164 0-.344-.04-.344-.276" /><text font-size="2.37" font-weight="bold" text-anchor="start" transform="translate(90.475 9.765)">
<tspan>ia !</tspan>
</text><rect width=".13" height="3.24" x="-.07" y="-3" ry=".04" transform="translate(92.677 3.776)" /><rect width=".66" height=".13" x="0" y="-.54" ry=".04" transform="translate(89.644 9.765)" /></svg>