<svg xmlns="http://www.w3.org/2000/svg" width="407.17" height="62.1" viewBox="0 -4.13 64.53 9.84" fill="currentColor" font-family="Linux Libertine"><style type="text/css">tspan{white-space:pre}</style><rect width=".2" height="4" x="0" y="-2" ry="0" transform="translate(26.445 2.162)" /><rect width=".62" height="4" x="0" y="-2" ry="0" transform="translate(63.909 2.162)" /><rect width=".2" height="4" x="0" y="-2" ry="0" transform="translate(63.402 2.162)" /><path stroke="currentColor" stroke-linecap="round" stroke-linejoin="round" stroke-width=".1" d="M.05 4.162h64.43M.05 3.162h64.43M.05 2.162h64.43M.05 1.162h64.43M.05.162h64.43" /><rect width=".2" height="4" x="0" y="-2" ry="0" transform="translate(51.136 2.162)" /><rect width=".2" height="4" x="0" y="-2" ry="0" transform="translate(50.629 2.162)" /><rect width=".13" height="3.31" x="-.07" y="-1.5" ry=".04" transform="translate(60.698 2.162)" /><path stroke="currentColor" stroke-linecap="round" stroke-linejoin="round" stroke-width=".08" d="M45.468.776v.396L43.164.548V.152z" /><path d="M7.785 4.846c0-.364.464-.728.868-.728.252 0 .436.14.436.36 0 .348-.44.728-.88.728-.268 0-.424-.156-.424-.36M1.864 5.702H1.84a.783.783 0 0 1-.78-.788c0-.232.212-.412.448-.412.216 0 .38.188.38.412 0 .208-.172.38-.38.38a.3.3 0 0 1-.124-.024c.104.156.272.26.468.26h.016zm.54-3.144c.076.356.192.968.24 1.416a.67.67 0 0 0 .448-.652.753.753 0 0 0-.688-.764m-1.308.492c0 .448.392.988 1.112.988q.127 0 .272-.024a17 17 0 0 0-.252-1.456c-.316.032-.496.244-.496.476 0 .176.1.364.324.492q.029.03.028.06c0 .044-.04.088-.088.088-.06 0-.504-.248-.504-.748 0-.352.232-.696.64-.788a15 15 0 0 0-.184-.7c-.428.484-.852.972-.852 1.612m1.132-4.664c.112 0 .572.824.572 1.444 0 .572-.344 1.02-.72 1.456.084.272.156.552.224.828q.031-.002.056-.004c.62 0 1.02.516 1.02 1.048 0 .452-.296.848-.72.98q.019.21.02.42c0 .076-.004.156-.008.232-.028.476-.352.9-.808.912l.004-.172c.372-.008.612-.368.636-.764a3.775 3.775 0 0 0-.008-.588q-.169.031-.32.032C1.22 4.21.808 3.342.808 2.714c0-.708.524-1.224.992-1.764-.116-.384-.208-.68-.208-1.384 0-.756.576-1.18.636-1.18M1.788.034c0 .22.048.46.14.76.328-.4.588-.808.588-1.304 0-.16-.024-.328-.084-.508A1.13 1.13 0 0 0 1.788.034M4.185-.314c0-.032.02-.06.052-.072l.184-.068v-.632c0-.04.032-.076.072-.076s.076.036.076.076v.58l.332-.124v-.632c0-.04.036-.076.076-.076s.072.036.072.076v.58l.128-.048q.014-.005.028-.004a.08.08 0 0 1 .08.08v.24c0 .032-.02.064-.052.076l-.184.064v.64l.128-.044q.014-.005.028-.004a.08.08 0 0 1 .08.08v.24c0 .032-.02.06-.052.072l-.184.068v.632c0 .04-.032.076-.072.076s-.076-.036-.076-.076V.83l-.332.124v.632c0 .04-.036.076-.076.076s-.072-.036-.072-.076v-.58l-.128.048q-.014.005-.028.004a.08.08 0 0 1-.08-.08v-.24c0-.032.02-.064.052-.076l.184-.064v-.64l-.128.044q-.014.005-.028.004a.08.08 0 0 1-.08-.08zm.716.096-.332.12v.64l.332-.12z" /><rect width=".13" height="3.13" x="-.07" y="-.82" ry=".04" transform="translate(9.022 2.162)" /><path d="M10.29 4.346c0-.364.463-.728.867-.728.252 0 .436.14.436.36 0 .348-.44.728-.88.728-.268 0-.424-.156-.424-.36" /><rect width=".13" height="2.81" x="-.07" y="-1" ry=".04" transform="translate(11.526 2.162)" /><text font-size="1.85" text-anchor="start" transform="translate(12.793 -1.952)">
<tspan>Sol</tspan>
</text><text font-size="1.85" text-anchor="start" transform="translate(15.33 -1.952)">
<tspan>/</tspan>
</text><text font-size="1.85" text-anchor="start" transform="translate(15.94 -1.952)">
<tspan>Si</tspan>
</text><path d="M15.173 3.802c0 .044-.036.08-.08.08s-.08-.036-.08-.08v-1.28c0-.044.036-.08.08-.08s.08.036.08.08zm-2.668 0c0 .044-.036.08-.08.08s-.08-.036-.08-.08v-1.28c0-.044.036-.08.08-.08s.08.036.08.08zm1.256-1.184c.012 0 .836.008.968.452v-.548c0-.044.036-.08.08-.08s.08.036.08.08v1.28c0 .044-.036.08-.08.08s-.08-.036-.08-.08v-.548c-.068.224-.424.452-.968.452-.012 0-.836-.008-.968-.452v.548c0 .044-.036.08-.08.08s-.08-.036-.08-.08v-1.28c0-.044.036-.08.08-.08s.08.036.08.08v.548c.068-.224.424-.452.968-.452m.408.648c0-.408-.36-.556-.536-.556-.092 0-.28.04-.28.356a.54.54 0 0 0 .532.544c.088 0 .284-.032.284-.344M19.975 2.846c0-.364.464-.728.868-.728.252 0 .436.14.436.36 0 .348-.44.728-.88.728-.268 0-.424-.156-.424-.36" /><rect width=".13" height="3.31" x="-.07" y="-3" ry=".04" transform="translate(21.212 2.162)" /><path d="M21.28-.796v1.5h-.065v-1.5zm.491 2.916c0-.04.168-.348.168-.784 0-.412-.376-.832-.66-1.132v-1c0 .788.828 1.344.828 2.132 0 .284-.06.564-.164.828a.1.1 0 0 1-.08.048.09.09 0 0 1-.092-.092" /><text font-size="1.85" text-anchor="start" transform="translate(22.54 -1.952)">
<tspan>Do</tspan>
</text><path d="M22.54 3.346c0-.364.464-.728.868-.728.252 0 .436.14.436.36 0 .348-.44.728-.88.728-.268 0-.424-.156-.424-.36" /><rect width=".13" height="3.31" x="-.07" y="-2.5" ry=".04" transform="translate(23.777 2.162)" /><text font-size="1.85" text-anchor="start" transform="translate(27.588 -1.952)">
<tspan>Mi</tspan>
</text><text font-size="1.85" text-anchor="start" transform="translate(30.309 -1.952)">
<tspan>m</tspan>
</text><path d="M29.969 3.802c0 .044-.037.08-.08.08s-.08-.036-.08-.08v-1.28c0-.044.036-.08.08-.08s.08.036.08.08zm-2.669 0c0 .044-.036.08-.08.08s-.08-.036-.08-.08v-1.28c0-.044.037-.08.08-.08s.08.036.08.08zm1.256-1.184c.012 0 .836.008.968.452v-.548c0-.044.036-.08.08-.08s.08.036.08.08v1.28c0 .044-.036.08-.08.08s-.08-.036-.08-.08v-.548c-.068.224-.424.452-.968.452-.012 0-.836-.008-.968-.452v.548c0 .044-.036.08-.08.08s-.08-.036-.08-.08v-1.28c0-.044.037-.08.08-.08s.08.036.08.08v.548c.068-.224.424-.452.968-.452m.409.648c0-.408-.36-.556-.536-.556-.092 0-.28.04-.28.356a.54.54 0 0 0 .531.544c.088 0 .284-.032.284-.344" /><path stroke="currentColor" stroke-linecap="round" stroke-linejoin="round" stroke-width=".08" d="M11.551.964v.396l-2.554.188v-.396z" /><path d="M37.15 4.302c0 .044-.036.08-.08.08s-.08-.036-.08-.08v-1.28c0-.044.036-.08.08-.08s.08.036.08.08zm-2.668 0c0 .044-.036.08-.08.08s-.08-.036-.08-.08v-1.28c0-.044.036-.08.08-.08s.08.036.08.08zm1.256-1.184c.012 0 .836.008.968.452v-.548c0-.044.036-.08.08-.08s.08.036.08.08v1.28c0 .044-.036.08-.08.08s-.08-.036-.08-.08v-.548c-.068.224-.424.452-.968.452-.012 0-.836-.008-.968-.452v.548c0 .044-.036.08-.08.08s-.08-.036-.08-.08v-1.28c0-.044.036-.08.08-.08s.08.036.08.08v.548c.068-.224.424-.452.968-.452m.408.648c0-.408-.36-.556-.536-.556-.092 0-.28.04-.28.356a.54.54 0 0 0 .532.544c.088 0 .284-.032.284-.344M41.952 3.346c0-.364.464-.728.868-.728.252 0 .436.14.436.36 0 .348-.44.728-.88.728-.268 0-.424-.156-.424-.36" /><rect width=".13" height="2.61" x="-.07" y="-1.79" ry=".04" transform="translate(43.19 2.162)" /><path d="M44.206 4.346c0-.364.464-.728.868-.728.252 0 .436.14.436.36 0 .348-.44.728-.88.728-.268 0-.424-.156-.424-.36" /><rect width=".13" height="3.02" x="-.07" y="-1.21" ry=".04" transform="translate(45.443 2.162)" /><text font-size="1.85" text-anchor="start" transform="translate(46.71 -1.952)">
<tspan>Ré</tspan>
</text><path d="M46.71 4.846c0-.364.465-.728.869-.728.252 0 .436.14.436.36 0 .348-.44.728-.88.728-.268 0-.424-.156-.424-.36" /><rect width=".13" height="3.31" x="-.07" y="-1" ry=".04" transform="translate(47.947 2.162)" /><text font-size="1.85" text-anchor="start" transform="translate(52.279 -1.952)">
<tspan>Sol</tspan>
</text><text font-size="1.85" text-anchor="start" transform="translate(54.815 -1.952)">
<tspan>/</tspan>
</text><text font-size="1.85" text-anchor="start" transform="translate(55.426 -1.952)">
<tspan>Si</tspan>
</text><path d="M54.659 3.802c0 .044-.036.08-.08.08s-.08-.036-.08-.08v-1.28c0-.044.036-.08.08-.08s.08.036.08.08zm-2.668 0c0 .044-.036.08-.08.08s-.08-.036-.08-.08v-1.28c0-.044.036-.08.08-.08s.08.036.08.08zm1.256-1.184c.012 0 .836.008.968.452v-.548c0-.044.036-.08.08-.08s.08.036.08.08v1.28c0 .044-.036.08-.08.08s-.08-.036-.08-.08v-.548c-.068.224-.424.452-.968.452-.012 0-.836-.008-.968-.452v.548c0 .044-.036.08-.08.08s-.08-.036-.08-.08v-1.28c0-.044.036-.08.08-.08s.08.036.08.08v.548c.068-.224.424-.452.968-.452m.408.648c0-.408-.36-.556-.536-.556-.092 0-.28.04-.28.356a.54.54 0 0 0 .532.544c.088 0 .284-.032.284-.344" /><text color="rgba(100.0000%, 0.0000%, 0.0000%, 100.0000%)" font-size="2.2" font-weight="bold" text-anchor="start" transform="translate(52.279 -.39)">
<tspan>+</tspan>
</text><g color="rgba(100.0000%, 0.0000%, 0.0000%, 100.0000%)"><text font-size="2.2" text-anchor="start" transform="translate(3 -2.4)">
<tspan>Ben.</tspan>
</text><rect width=".1" height="2.05" x="-.3" y="-1.73" ry="0" transform="translate(3 -2.4)" /><rect width=".1" height="2.05" x="4.12" y="-1.73" ry="0" transform="translate(3 -2.4)" /><rect width="4.52" height=".1" x="-.3" y=".22" ry="0" transform="translate(3 -2.4)" /><rect width="4.52" height=".1" x="-.3" y="-1.73" ry="0" transform="translate(3 -2.4)" /></g><text font-size="1.85" text-anchor="start" transform="translate(59.46 -1.952)">
<tspan>Do</tspan>
</text><path d="M59.46 4.346c0-.364.465-.728.869-.728.252 0 .436.14.436.36 0 .348-.44.728-.88.728-.268 0-.424-.156-.424-.36" /><text font-size="1.85" text-anchor="start" transform="translate(34.77 -1.952)">
<tspan>Si</tspan>
</text><text font-size="1.85" text-anchor="start" transform="translate(36.772 -1.952)">
<tspan>m</tspan>
</text><text font-size="1.85" text-anchor="start" transform="translate(38.282 -1.952)">
<tspan>/</tspan>
</text><text font-size="1.85" text-anchor="start" transform="translate(38.892 -1.952)">
<tspan>Fa</tspan>
</text><path d="M41.225-3.332c0-.036.021-.066.054-.078l.111-.045v-.453c0-.036.03-.066.066-.066s.066.03.066.066v.402l.231-.087v-.456c0-.036.03-.066.066-.066s.066.03.066.066v.402l.048-.018a.1.1 0 0 1 .033-.006c.045 0 .084.036.084.084v.15a.09.09 0 0 1-.054.08l-.11.043v.456l.047-.021a.1.1 0 0 1 .033-.006c.045 0 .084.039.084.087v.15a.08.08 0 0 1-.054.078l-.11.045v.453c0 .036-.03.066-.067.066s-.066-.03-.066-.066v-.402l-.23.087v.456c0 .036-.03.066-.067.066s-.066-.03-.066-.066v-.402l-.048.018a.1.1 0 0 1-.033.006.084.084 0 0 1-.084-.084v-.15c0-.036.021-.07.054-.081l.111-.042v-.456l-.048.02a.1.1 0 0 1-.033.007.086.086 0 0 1-.084-.087zm.528.069-.23.09v.456l.23-.09z" /></svg>