<svg xmlns="http://www.w3.org/2000/svg" width="583.26" height="221.06" viewBox="0 -3.66 92.44 35.04" fill="currentColor" font-family="Linux Libertine"><style type="text/css">tspan{white-space:pre}</style><rect width=".2" height="4" x="0" y="-2" ry="0" transform="translate(21.818 3.543)" /><path d="M90.55 3.043a.224.224 0 1 1 .448 0 .224.224 0 0 1-.448 0M90.55 4.043a.224.224 0 1 1 .448 0 .224.224 0 0 1-.448 0" /><rect width=".62" height="4" x="0" y="-2" ry="0" transform="translate(91.818 3.543)" /><rect width=".2" height="4" x="0" y="-2" ry="0" transform="translate(91.31 3.543)" /><path stroke="currentColor" stroke-linecap="round" stroke-linejoin="round" stroke-width=".1" d="M.05 5.543h92.34M.05 4.543h92.34M.05 3.543h92.34M.05 2.543h92.34M.05 1.543h92.34" /><rect width=".2" height="4" x="0" y="-2" ry="0" transform="translate(84.708 3.543)" /><rect width=".2" height="4" x="0" y="-2" ry="0" transform="translate(56.426 3.543)" /><rect width=".2" height="4" x="0" y="-2" ry="0" transform="translate(38.32 3.543)" /><text font-size="2.51" text-anchor="start" transform="translate(48.95 9.537)">
<tspan>Jé</tspan>
</text><path d="M57.935-3.02c.04 0 .075-.036.103-.036.03 0 .057.035.057.078v.857c0 .115.088.213.2.213.035 0 .05.027.05.052s-.015.053-.05.053c-.12 0-.24-.033-.36-.033s-.238.033-.357.033c-.036 0-.053-.028-.053-.053s.018-.052.053-.052c.112 0 .197-.098.197-.213v-.357c0-.055-.037-.085-.072-.085a.05.05 0 0 0-.043.025l-.085.17a.06.06 0 0 1-.057.035c-.035 0-.068-.025-.068-.063q0-.016.008-.032l.317-.625a.03.03 0 0 1 .025-.015c.038 0 .098.047.135.047M58.428-1.936c0-.072.06-.132.132-.132s.133.06.133.132-.06.133-.133.133-.132-.06-.132-.133" /><path stroke="currentColor" stroke-linecap="round" stroke-linejoin="round" stroke-width=".17" d="M92.356-3.578v2M56.536-3.578v2M56.536-3.578h35.82" /><path stroke="currentColor" stroke-linecap="round" stroke-linejoin="round" stroke-width=".08" d="M82.396 1.345v.396l-10.245.812v-.396z" /><rect width=".36" height=".13" x="0" y="-.56" ry=".04" transform="translate(83.365 9.537)" /><path d="M9.909 6.227c0-.364.464-.728.868-.728.252 0 .436.14.436.36 0 .348-.44.728-.88.728-.268 0-.424-.156-.424-.36M1.864 7.083H1.84a.783.783 0 0 1-.78-.788c0-.232.212-.412.448-.412.216 0 .38.188.38.412 0 .208-.172.38-.38.38a.3.3 0 0 1-.124-.024c.104.156.272.26.468.26h.016zm.54-3.144c.076.356.192.968.24 1.416a.67.67 0 0 0 .448-.652.753.753 0 0 0-.688-.764m-1.308.492c0 .448.392.988 1.112.988q.127 0 .272-.024a17 17 0 0 0-.252-1.456c-.316.032-.496.244-.496.476 0 .176.1.364.324.492q.029.03.028.06c0 .044-.04.088-.088.088-.06 0-.504-.248-.504-.748 0-.352.232-.696.64-.788a15 15 0 0 0-.184-.7c-.428.484-.852.972-.852 1.612M2.228-.233c.112 0 .572.824.572 1.444 0 .572-.344 1.02-.72 1.456.084.272.156.552.224.828q.031-.002.056-.004c.62 0 1.02.516 1.02 1.048 0 .452-.296.848-.72.98q.019.21.02.42c0 .076-.004.156-.008.232-.028.476-.352.9-.808.912l.004-.172c.372-.008.612-.368.636-.764q.007-.11.008-.22.001-.184-.016-.368-.169.031-.32.032C1.22 5.59.808 4.723.808 4.095c0-.708.524-1.224.992-1.764-.116-.384-.208-.68-.208-1.384 0-.756.576-1.18.636-1.18m-.44 1.648c0 .22.048.46.14.76.328-.4.588-.808.588-1.304 0-.16-.024-.328-.084-.508a1.13 1.13 0 0 0-.644 1.052M4.185 1.067c0-.032.02-.06.052-.072l.184-.068V.295c0-.04.032-.076.072-.076s.076.036.076.076v.58L4.901.75V.119c0-.04.036-.076.076-.076s.072.036.072.076v.58L5.177.65q.014-.005.028-.004a.08.08 0 0 1 .08.08v.24c0 .032-.02.064-.052.076l-.184.064v.64l.128-.044q.014-.005.028-.004a.08.08 0 0 1 .08.08v.24c0 .032-.02.06-.052.072l-.184.068v.632c0 .04-.032.076-.072.076s-.076-.036-.076-.076v-.58l-.332.124v.632c0 .04-.036.076-.076.076s-.072-.036-.072-.076v-.58l-.128.048q-.014.005-.028.004a.08.08 0 0 1-.08-.08v-.24c0-.032.02-.064.052-.076l.184-.064v-.64l-.128.044q-.014.005-.028.004a.08.08 0 0 1-.08-.08zm.716.096-.332.12v.64l.332-.12zM7.169 2.507c-.204 0-.212.172-.212.4v.144c0 .228.008.4.212.4.228 0 .244-.204.244-.472s-.016-.472-.244-.472m-.212-.028a.4.4 0 0 1 .212-.064c.404 0 .68.184.68.564s-.276.564-.68.564c-.448 0-.68-.496-.68-1 0-.512.288-1 .76-1 .28 0 .544.156.544.412 0 .144-.116.264-.26.264s-.264-.12-.264-.264c0-.096.16-.1.16-.196 0-.08-.092-.124-.18-.124-.264 0-.3.26-.3.556 0 .096.008.192.008.288" /><path d="M7.479 4.395c.1-.12.176-.256.176-.412 0-.216-.22-.348-.456-.348a.284.284 0 0 0-.292.284c0 .084.04.168.124.216zm.124.072c.216.124.32.316.32.5 0 .292-.264.576-.756.576-.376 0-.732-.216-.732-.56 0-.2.144-.348.288-.492a.52.52 0 0 1-.22-.412c0-.272.24-.536.696-.536.32 0 .628.156.628.44 0 .184-.1.344-.224.484m-.756.1c-.124.12-.236.244-.236.416 0 .276.264.468.556.468a.334.334 0 0 0 .344-.332.27.27 0 0 0-.14-.248z" /><text font-size="2.51" text-anchor="start" transform="translate(7.99 9.537)">
<tspan>Qu’il</tspan>
</text><rect width=".13" height="3.32" x="-.07" y="-1.01" ry=".04" transform="translate(11.146 3.543)" /><path d="M15.23 4.727c0-.364.463-.728.867-.728.252 0 .436.14.436.36 0 .348-.44.728-.88.728-.268 0-.424-.156-.424-.36" /><text font-size="2.51" text-anchor="start" transform="translate(14.03 9.537)">
<tspan>soit</tspan>
</text><rect width=".13" height="2.5" x="-.07" y="-1.68" ry=".04" transform="translate(16.466 3.543)" /><path stroke="currentColor" stroke-linecap="round" stroke-linejoin="round" stroke-width=".08" d="M67.923 1.345v.396h-8.656v-.396z" /><path d="M19.148 4.227c0-.364.464-.728.868-.728.252 0 .436.14.436.36 0 .348-.44.728-.88.728-.268 0-.424-.156-.424-.36" /><text font-size="2.51" text-anchor="start" transform="translate(18.632 9.537)">
<tspan>bé</tspan>
</text><rect width=".13" height="2.49" x="-.07" y="-2.18" ry=".04" transform="translate(20.385 3.543)" /><rect width=".36" height=".13" x="0" y="-.56" ry=".04" transform="translate(73.638 9.537)" /><text font-size="1.85" text-anchor="start" transform="translate(23.018 -.118)">
<tspan>Sol</tspan>
</text><path d="M23.018 3.727c0-.364.464-.728.868-.728.252 0 .436.14.436.36 0 .348-.44.728-.88.728-.268 0-.424-.156-.424-.36" /><text font-size="2.51" text-anchor="start" transform="translate(22.646 9.537)">
<tspan>ni</tspan>
</text><path d="M24.772 3.043a.224.224 0 1 1 .447 0 .224.224 0 0 1-.447 0" /><rect width=".13" height="3.15" x="-.07" y=".19" ry=".04" transform="translate(23.085 3.543)" /><rect width=".36" height=".13" x="0" y="-.56" ry=".04" transform="translate(65.481 9.537)" /><path d="M27.424 3.727c0-.364.464-.728.868-.728.252 0 .436.14.436.36 0 .348-.44.728-.88.728-.268 0-.424-.156-.424-.36" /><text font-size="2.51" text-anchor="start" transform="translate(27.196 9.537)">
<tspan>le</tspan>
</text><rect width=".13" height="2.81" x="-.07" y=".19" ry=".04" transform="translate(27.491 3.543)" /><path d="M31.649 3.227c0-.364.463-.728.867-.728.253 0 .437.14.437.36 0 .348-.44.728-.88.728-.269 0-.425-.156-.425-.36" /><text font-size="2.51" text-anchor="start" transform="translate(29.857 9.537)">
<tspan>Dieu</tspan>
</text><rect width=".13" height="3.31" x="-.07" y="-.31" ry=".04" transform="translate(31.716 3.543)" /><path stroke="currentColor" stroke-linecap="round" stroke-linejoin="round" stroke-width=".08" d="M53.6.533V.93h-6.176V.533z" /><path d="M35.945 3.727c0-.364.464-.728.868-.728.252 0 .436.14.436.36 0 .348-.44.728-.88.728-.268 0-.424-.156-.424-.36" /><text font-size="2.51" text-anchor="start" transform="translate(35.645 9.537)">
<tspan>et</tspan>
</text><rect width=".13" height="2.81" x="-.07" y=".19" ry=".04" transform="translate(36.012 3.543)" /><rect width=".36" height=".13" x="0" y="-.56" ry=".04" transform="translate(50.926 9.537)" /><text font-size="1.85" text-anchor="start" transform="translate(39.416 -.118)">
<tspan>Ré</tspan>
</text><path d="M39.416 4.227c0-.364.464-.728.868-.728.252 0 .436.14.436.36 0 .348-.44.728-.88.728-.268 0-.424-.156-.424-.36" /><text font-size="2.51" text-anchor="start" transform="translate(38.828 9.537)">
<tspan>Pè</tspan>
</text><rect width=".13" height="3.31" x="-.07" y="-3" ry=".04" transform="translate(40.653 3.543)" /><path d="M43.12 4.227c0-.364.464-.728.868-.728.252 0 .436.14.436.36 0 .348-.44.728-.88.728-.268 0-.424-.156-.424-.36" /><text font-size="2.51" text-anchor="start" transform="translate(42.766 9.537)">
<tspan>re</tspan>
</text><rect width=".13" height="3.31" x="-.07" y="-3" ry=".04" transform="translate(44.357 3.543)" /><path d="M44.425.585v1.5h-.064v-1.5zm.492 2.916c0-.04.167-.348.167-.784 0-.412-.376-.832-.66-1.132v-1c0 .788.829 1.344.829 2.132 0 .284-.06.564-.164.828a.1.1 0 0 1-.08.048.09.09 0 0 1-.092-.092" /><text font-size="1.85" text-anchor="start" transform="translate(46.213 -.118)">
<tspan>Si</tspan>
</text><text font-size="1.31" text-anchor="start" transform="translate(47.814 -.959)">
<tspan>7</tspan>
</text><text font-size="1.85" text-anchor="start" transform="translate(48.425 -.118)">
<tspan>/</tspan>
</text><text font-size="1.85" text-anchor="start" transform="translate(49.036 -.118)">
<tspan>Ré</tspan>
</text><path d="M51.477-1.498c0-.036.021-.066.054-.078l.111-.045v-.453c0-.036.03-.066.066-.066s.066.03.066.066v.402l.231-.087v-.456c0-.036.03-.066.066-.066s.066.03.066.066v.402l.048-.018a.1.1 0 0 1 .033-.006c.045 0 .084.036.084.084v.15a.09.09 0 0 1-.054.08l-.11.043v.456l.047-.021a.1.1 0 0 1 .033-.006c.045 0 .084.039.084.087v.15a.08.08 0 0 1-.054.078l-.11.045v.453c0 .036-.03.066-.067.066s-.066-.03-.066-.066V-.64l-.23.087v.456c0 .036-.03.066-.067.066s-.066-.03-.066-.066V-.5l-.048.018a.1.1 0 0 1-.033.006.084.084 0 0 1-.084-.084v-.15c0-.036.021-.07.054-.081l.111-.042v-.456l-.048.02a.1.1 0 0 1-.033.007.086.086 0 0 1-.084-.087zm.528.069-.23.09v.456l.23-.09zM46.213 4.227c0-.364.464-.728.868-.728.252 0 .436.14.436.36 0 .348-.44.728-.88.728-.268 0-.424-.156-.424-.36" /><text font-size="2.51" text-anchor="start" transform="translate(45.679 9.537)">
<tspan>de</tspan>
</text><rect width=".13" height="3.13" x="-.07" y="-2.81" ry=".04" transform="translate(47.45 3.543)" /><path stroke="currentColor" stroke-linecap="round" stroke-linejoin="round" stroke-width=".08" d="M36.037 6.345v.396h-8.57v-.396z" /><path d="M49.251 3.727c0-.364.464-.728.868-.728.252 0 .436.14.436.36 0 .348-.44.728-.88.728-.268 0-.424-.156-.424-.36" /><rect width=".13" height="2.63" x="-.07" y="-2.81" ry=".04" transform="translate(50.488 3.543)" /><rect width=".66" height=".13" x="0" y="-.56" ry=".04" transform="translate(41.707 9.537)" /><path d="M52.339 4.227c0-.364.464-.728.868-.728.252 0 .436.14.436.36 0 .348-.44.728-.88.728-.268 0-.424-.156-.424-.36" /><text font-size="2.51" text-anchor="start" transform="translate(51.356 9.537)">
<tspan>sus</tspan>
</text><rect width=".13" height="3.13" x="-.07" y="-2.81" ry=".04" transform="translate(53.576 3.543)" /><text font-size="1.85" text-anchor="start" transform="translate(58.055 -.118)">
<tspan>Mi</tspan>
</text><text font-size="1.85" text-anchor="start" transform="translate(60.775 -.118)">
<tspan>m</tspan>
</text><path d="M58.055 4.727c0-.364.464-.728.868-.728.252 0 .436.14.436.36 0 .348-.44.728-.88.728-.268 0-.424-.156-.424-.36" /><text font-size="2.51" text-anchor="start" transform="translate(55.526 9.537)">
<tspan>Christ</tspan>
</text><rect width=".13" height="2.81" x="-.07" y="-2" ry=".04" transform="translate(59.292 3.543)" /><path d="M63.447 4.727c0-.364.464-.728.868-.728.252 0 .436.14.436.36 0 .348-.44.728-.88.728-.268 0-.424-.156-.424-.36" /><text font-size="2.51" text-anchor="start" transform="translate(62.788 9.537)">
<tspan>no</tspan>
</text><rect width=".13" height="2.81" x="-.07" y="-2" ry=".04" transform="translate(64.684 3.543)" /><path d="M66.66 4.727c0-.364.465-.728.869-.728.252 0 .436.14.436.36 0 .348-.44.728-.88.728-.268 0-.424-.156-.424-.36" /><text font-size="2.51" text-anchor="start" transform="translate(65.911 9.537)">
<tspan>tre</tspan>
</text><rect width=".13" height="2.81" x="-.07" y="-2" ry=".04" transform="translate(67.898 3.543)" /><path stroke="currentColor" stroke-linecap="round" stroke-linejoin="round" stroke-width=".08" d="M20.41 1.157v.395l-9.29 1.189v-.396z" /><text font-size="1.85" text-anchor="start" transform="translate(70.94 -.118)">
<tspan>Do</tspan>
</text><path d="M70.94 5.727c0-.364.463-.728.867-.728.252 0 .436.14.436.36 0 .348-.44.728-.88.728-.268 0-.424-.156-.424-.36" /><text font-size="2.51" text-anchor="start" transform="translate(69.615 9.537)">
<tspan>Maî</tspan>
</text><rect width=".13" height="3.01" x="-.07" y="-1.19" ry=".04" transform="translate(72.176 3.543)" /><rect width=".66" height=".13" x="0" y="-.56" ry=".04" transform="translate(21.477 9.537)" /><path d="M76.07 4.727c0-.364.464-.728.868-.728.252 0 .436.14.436.36 0 .348-.44.728-.88.728-.268 0-.424-.156-.424-.36" /><text font-size="2.51" text-anchor="start" transform="translate(74.068 9.537)">
<tspan>tre</tspan>
</text><path d="M78.243 9.997c0 .055-.386.4-1.072.4s-1.071-.345-1.071-.4c0-.032.027-.064.064-.064.014 0 .028 0 .041.014.258.225.621.239.966.239s.709-.014.966-.24c.014-.013.028-.013.042-.013.037 0 .064.032.064.064" /><text font-size="2.51" text-anchor="start" transform="translate(77.471 9.537)">
<tspan>et</tspan>
</text><rect width=".13" height="2.41" x="-.07" y="-1.6" ry=".04" transform="translate(77.307 3.543)" /><path d="M81.134 4.227c0-.364.464-.728.868-.728.252 0 .436.14.436.36 0 .348-.44.728-.88.728-.268 0-.424-.156-.424-.36" /><text font-size="2.51" text-anchor="start" transform="translate(80.276 9.537)">
<tspan>Sei</tspan>
</text><rect width=".13" height="2.31" x="-.07" y="-1.99" ry=".04" transform="translate(82.37 3.543)" /><text font-size="1.85" text-anchor="start" transform="translate(86.144 -.118)">
<tspan>Ré</tspan>
</text><path d="M86.144 4.227c0-.364.464-.728.868-.728.252 0 .436.14.436.36 0 .348-.44.728-.88.728-.268 0-.424-.156-.424-.36" /><text font-size="2.51" text-anchor="start" transform="translate(83.795 9.537)">
<tspan>gneur</tspan>
</text><path d="M87.898 4.043a.224.224 0 1 1 .448 0 .224.224 0 0 1-.448 0" /><rect width=".13" height="3.31" x="-.07" y="-3" ry=".04" transform="translate(87.381 3.543)" /><rect width=".2" height="4" x="0" y="-2" ry="0" transform="translate(33.704 16.47)" /><rect width=".62" height="4" x="0" y="-2" ry="0" transform="translate(42.22 16.47)" /><rect width=".2" height="4" x="0" y="-2" ry="0" transform="translate(41.713 16.47)" /><path stroke="currentColor" stroke-linecap="round" stroke-linejoin="round" stroke-width=".1" d="M.05 18.47h42.74M.05 17.47h42.74M.05 16.47h42.74M.05 15.47h42.74M.05 14.47h42.74" /><path d="M6.549 11.964c-.15 0-.1.165-.18.165-.028 0-.053-.018-.053-.05v-.008c.038-.422.58-.392.58-.83 0-.127-.045-.257-.155-.257-.077 0-.155.032-.155.102 0 .063.082.098.082.16a.159.159 0 0 1-.317 0c0-.207.177-.367.39-.367.242 0 .472.14.472.362 0 .353-.332.385-.567.515.215 0 .287.155.42.155.112 0 .072-.102.142-.102.028 0 .053.022.053.052 0 .07-.118.268-.358.268-.23 0-.237-.165-.355-.165M7.286 11.996a.133.133 0 0 1 .265 0c0 .073-.06.133-.132.133s-.133-.06-.133-.133" /><path stroke="currentColor" stroke-linecap="round" stroke-linejoin="round" stroke-width=".17" d="M42.755 10.369v2M5.395 10.369v2M5.395 10.369h37.36" /><path stroke="currentColor" stroke-linecap="round" stroke-linejoin="round" stroke-width=".08" d="M32.126 14.46v.396H21.88v-.396z" /><path d="M1.864 20.01H1.84a.783.783 0 0 1-.78-.789c0-.232.212-.412.448-.412.216 0 .38.188.38.412 0 .208-.172.38-.38.38a.3.3 0 0 1-.124-.024c.104.156.272.26.468.26h.016zm.54-3.145c.076.357.192.969.24 1.417a.67.67 0 0 0 .448-.652.753.753 0 0 0-.688-.764m-1.308.493c0 .448.392.988 1.112.988q.127 0 .272-.024a17 17 0 0 0-.252-1.456c-.316.032-.496.244-.496.476 0 .176.1.364.324.492q.029.03.028.06c0 .044-.04.088-.088.088-.06 0-.504-.248-.504-.748 0-.353.232-.697.64-.789a15 15 0 0 0-.184-.7c-.428.485-.852.973-.852 1.613m1.132-4.664c.112 0 .572.823.572 1.443 0 .572-.344 1.02-.72 1.456.084.272.156.552.224.828.02 0 .04-.004.056-.004.62 0 1.02.516 1.02 1.048 0 .452-.296.848-.72.98q.019.21.02.42-.001.117-.008.233c-.028.476-.352.9-.808.912l.004-.173c.372-.008.612-.368.636-.764q.007-.11.008-.22.001-.184-.016-.368-.169.032-.32.033c-.956 0-1.368-.868-1.368-1.496 0-.708.524-1.224.992-1.764-.116-.384-.208-.68-.208-1.384 0-.756.576-1.18.636-1.18m-.44 1.647c0 .22.048.46.14.76.328-.4.588-.808.588-1.304 0-.16-.024-.328-.084-.508a1.13 1.13 0 0 0-.644 1.053M4.185 13.994c0-.033.02-.06.052-.073l.184-.067v-.632c0-.04.032-.076.072-.076s.076.035.076.075v.58l.332-.123v-.633c0-.04.036-.075.076-.075s.072.035.072.075v.58l.128-.047q.014-.005.028-.004a.08.08 0 0 1 .08.08v.24c0 .032-.02.064-.052.076l-.184.064v.64l.128-.044q.014-.005.028-.004a.08.08 0 0 1 .08.08v.24c0 .032-.02.06-.052.072l-.184.068v.632c0 .04-.032.076-.072.076s-.076-.036-.076-.076v-.58l-.332.124v.632c0 .04-.036.076-.076.076s-.072-.036-.072-.076v-.58l-.128.048q-.014.005-.028.004a.08.08 0 0 1-.08-.08v-.24c0-.032.02-.064.052-.076l.184-.065v-.64l-.128.044q-.014.006-.028.005a.08.08 0 0 1-.08-.08zm.716.095-.332.12v.64l.332-.12z" /><rect width=".36" height=".13" x="0" y="-.56" ry=".04" transform="translate(33.095 21.641)" /><text font-size="1.85" text-anchor="start" transform="translate(7.785 13.451)">
<tspan>Mi</tspan>
</text><text font-size="1.85" text-anchor="start" transform="translate(10.505 13.451)">
<tspan>m</tspan>
</text><path d="M7.785 17.654c0-.364.464-.728.868-.728.252 0 .436.14.436.36 0 .347-.44.727-.88.727-.268 0-.424-.156-.424-.36" /><text font-size="2.51" text-anchor="start" transform="translate(5.256 21.641)">
<tspan>Christ</tspan>
</text><rect width=".13" height="2.81" x="-.07" y="-2" ry=".04" transform="translate(9.022 16.47)" /><path d="M13.178 17.654c0-.364.463-.728.867-.728.253 0 .437.14.437.36 0 .347-.44.727-.88.727-.269 0-.425-.156-.425-.36" /><text font-size="2.51" text-anchor="start" transform="translate(12.518 21.641)">
<tspan>no</tspan>
</text><rect width=".13" height="2.81" x="-.07" y="-2" ry=".04" transform="translate(14.415 16.47)" /><path stroke="currentColor" stroke-linecap="round" stroke-linejoin="round" stroke-width=".08" d="M17.653 14.272v.395H8.997v-.395z" /><path d="M16.391 17.654c0-.364.464-.728.868-.728.252 0 .436.14.436.36 0 .347-.44.727-.88.727-.268 0-.424-.156-.424-.36" /><text font-size="2.51" text-anchor="start" transform="translate(15.642 21.641)">
<tspan>tre</tspan>
</text><rect width=".13" height="2.81" x="-.07" y="-2" ry=".04" transform="translate(17.628 16.47)" /><rect width=".36" height=".13" x="0" y="-.56" ry=".04" transform="translate(23.368 21.641)" /><text font-size="1.85" text-anchor="start" transform="translate(20.67 13.451)">
<tspan>Do</tspan>
</text><path d="M20.67 18.654c0-.364.463-.728.867-.728.252 0 .436.14.436.36 0 .347-.44.727-.88.727-.268 0-.424-.156-.424-.36" /><text font-size="2.51" text-anchor="start" transform="translate(19.345 21.641)">
<tspan>Maî</tspan>
</text><rect width=".13" height="3.63" x="-.07" y="-1.81" ry=".04" transform="translate(21.906 16.47)" /><path d="M25.8 17.654c0-.364.464-.728.868-.728.252 0 .436.14.436.36 0 .347-.44.727-.88.727-.268 0-.424-.156-.424-.36" /><text font-size="2.51" text-anchor="start" transform="translate(23.798 21.641)">
<tspan>tre</tspan>
</text><path d="M27.973 22.101c0 .055-.386.4-1.071.4s-1.072-.345-1.072-.4c0-.032.027-.064.064-.064.014 0 .028 0 .042.014.257.225.62.239.966.239s.708-.014.966-.24c.013-.013.027-.013.041-.013.037 0 .064.032.064.064" /><text font-size="2.51" text-anchor="start" transform="translate(27.202 21.641)">
<tspan>et</tspan>
</text><rect width=".13" height="2.63" x="-.07" y="-1.81" ry=".04" transform="translate(27.037 16.47)" /><rect width=".36" height=".13" x="0" y="-.56" ry=".04" transform="translate(15.211 21.641)" /><text font-size="1.85" text-anchor="start" transform="translate(30.864 13.451)">
<tspan>Ré</tspan>
</text><text font-size="1.31" text-anchor="start" transform="translate(33.005 12.61)">
<tspan>7</tspan>
</text><path d="M30.864 18.154c0-.364.464-.728.868-.728.252 0 .436.14.436.36 0 .347-.44.727-.88.727-.268 0-.424-.156-.424-.36" /><text font-size="2.51" text-anchor="start" transform="translate(30.006 21.641)">
<tspan>Sei</tspan>
</text><rect width=".13" height="3.13" x="-.07" y="-1.81" ry=".04" transform="translate(32.1 16.47)" /><text font-size="1.85" text-anchor="start" transform="translate(35.838 13.451)">
<tspan>Sol</tspan>
</text><path d="M36.126 17.894c.16 0 .816-.44.924-.572a.2.2 0 0 0 .044-.112.166.166 0 0 0-.168-.164c-.16 0-.816.44-.924.572a.2.2 0 0 0-.04.112c0 .087.068.163.164.163m-.288-.156c0-.284.184-.812 1.032-.812.164 0 .344.04.344.276 0 .283-.184.811-1.032.811-.164 0-.344-.04-.344-.276" /><text font-size="2.51" text-anchor="start" transform="translate(33.525 21.641)">
<tspan>gneur</tspan>
</text><path d="M37.665 16.97a.224.224 0 1 1 .447-.001.224.224 0 0 1-.447 0" /><rect width=".13" height="3.24" x="-.07" y="-2.5" ry=".04" transform="translate(37.148 16.47)" /><rect width=".2" height="4" x="0" y="-2" ry="0" transform="translate(26.072 27.2)" /><rect width=".62" height="4" x="0" y="-2" ry="0" transform="translate(55.583 27.2)" /><rect width=".2" height="4" x="0" y="-2" ry="0" transform="translate(55.076 27.2)" /><path stroke="currentColor" stroke-linecap="round" stroke-linejoin="round" stroke-width=".1" d="M.05 29.2h56.1M.05 28.2h56.1M.05 27.2h56.1M.05 26.2h56.1M.05 25.2h56.1" /><rect width=".2" height="4" x="0" y="-2" ry="0" transform="translate(43.38 27.2)" /><rect width=".2" height="4" x="0" y="-2" ry="0" transform="translate(42.873 27.2)" /><path stroke="currentColor" stroke-linecap="round" stroke-linejoin="round" stroke-width=".08" d="M37.511 25.814v.396l-2.304-.624v-.396z" /><path d="M1.864 30.74H1.84a.783.783 0 0 1-.78-.788c0-.232.212-.412.448-.412.216 0 .38.188.38.412 0 .208-.172.38-.38.38a.3.3 0 0 1-.124-.024c.104.156.272.26.468.26h.016zm.54-3.144c.076.356.192.968.24 1.416a.67.67 0 0 0 .448-.652.753.753 0 0 0-.688-.764m-1.308.492c0 .448.392.988 1.112.988q.127 0 .272-.024a17 17 0 0 0-.252-1.456c-.316.032-.496.244-.496.476 0 .176.1.364.324.492q.029.03.028.06c0 .044-.04.088-.088.088-.06 0-.504-.248-.504-.748 0-.352.232-.696.64-.788a15 15 0 0 0-.184-.7c-.428.484-.852.972-.852 1.612m1.132-4.664c.112 0 .572.824.572 1.444 0 .572-.344 1.02-.72 1.456.084.272.156.552.224.828.02 0 .04-.004.056-.004.62 0 1.02.516 1.02 1.048 0 .452-.296.848-.72.98q.019.21.02.42-.001.116-.008.232c-.028.476-.352.9-.808.912l.004-.172c.372-.008.612-.368.636-.764a3.775 3.775 0 0 0-.008-.588q-.169.031-.32.032c-.956 0-1.368-.868-1.368-1.496 0-.708.524-1.224.992-1.764-.116-.384-.208-.68-.208-1.384 0-.756.576-1.18.636-1.18m-.44 1.648c0 .22.048.46.14.76.328-.4.588-.808.588-1.304 0-.16-.024-.328-.084-.508a1.13 1.13 0 0 0-.644 1.052M4.185 24.724c0-.032.02-.06.052-.072l.184-.068v-.632c0-.04.032-.076.072-.076s.076.036.076.076v.58l.332-.124v-.632c0-.04.036-.076.076-.076s.072.036.072.076v.58l.128-.048q.014-.005.028-.004a.08.08 0 0 1 .08.08v.24c0 .032-.02.064-.052.076l-.184.064v.64l.128-.044q.014-.005.028-.004a.08.08 0 0 1 .08.08v.24c0 .032-.02.06-.052.072l-.184.068v.632c0 .04-.032.076-.072.076s-.076-.036-.076-.076v-.58l-.332.124v.632c0 .04-.036.076-.076.076s-.072-.036-.072-.076v-.58l-.128.048q-.014.005-.028.004a.08.08 0 0 1-.08-.08v-.24c0-.032.02-.064.052-.076l.184-.064v-.64l-.128.044q-.014.005-.028.004a.08.08 0 0 1-.08-.08zm.716.096-.332.12v.64l.332-.12z" /><path stroke="currentColor" stroke-linecap="round" stroke-linejoin="round" stroke-width=".08" d="M19.57 29.19v.396l-5.06.624v-.396z" /><text font-size="1.85" text-anchor="start" transform="translate(7.785 23.682)">
<tspan>Sol</tspan>
</text><path d="M10.165 27.84c0 .044-.036.08-.08.08s-.08-.036-.08-.08v-1.28c0-.044.036-.08.08-.08s.08.036.08.08zm-2.668 0c0 .044-.036.08-.08.08s-.08-.036-.08-.08v-1.28c0-.044.036-.08.08-.08s.08.036.08.08zm1.256-1.184c.012 0 .836.008.968.452v-.548c0-.044.036-.08.08-.08s.08.036.08.08v1.28c0 .044-.036.08-.08.08s-.08-.036-.08-.08v-.548c-.068.224-.424.452-.968.452-.012 0-.836-.008-.968-.452v.548c0 .044-.036.08-.08.08s-.08-.036-.08-.08v-1.28c0-.044.036-.08.08-.08s.08.036.08.08v.548c.068-.224.424-.452.968-.452m.408.648c0-.408-.36-.556-.536-.556-.092 0-.28.04-.28.356a.54.54 0 0 0 .532.544c.088 0 .284-.032.284-.344M14.469 27.884c0-.364.464-.728.868-.728.252 0 .436.14.436.36 0 .348-.44.728-.88.728-.268 0-.424-.156-.424-.36" /><rect width=".13" height="2.12" x="-.07" y=".69" ry=".04" transform="translate(14.536 27.2)" /><path d="M16.973 27.384c0-.364.464-.728.868-.728.252 0 .436.14.436.36 0 .348-.44.728-.88.728-.268 0-.424-.156-.424-.36" /><rect width=".13" height="2.31" x="-.07" y=".19" ry=".04" transform="translate(17.04 27.2)" /><path d="M19.477 26.884c0-.364.464-.728.868-.728.252 0 .436.14.436.36 0 .348-.44.728-.88.728-.268 0-.424-.156-.424-.36" /><rect width=".13" height="2.51" x="-.07" y="-.31" ry=".04" transform="translate(19.544 27.2)" /><text font-size="1.85" text-anchor="start" transform="translate(21.981 23.682)">
<tspan>Mi</tspan>
</text><text font-size="1.85" text-anchor="start" transform="translate(24.702 23.682)">
<tspan>m</tspan>
</text><path d="M21.981 27.384c0-.364.464-.728.868-.728.252 0 .436.14.436.36 0 .348-.44.728-.88.728-.268 0-.424-.156-.424-.36" /><rect width=".13" height="3.15" x="-.07" y=".19" ry=".04" transform="translate(22.049 27.2)" /><text font-size="1.85" text-anchor="start" transform="translate(27.311 23.682)">
<tspan>Si</tspan>
</text><text font-size="1.85" text-anchor="start" transform="translate(29.313 23.682)">
<tspan>m</tspan>
</text><path d="M29.691 27.84c0 .044-.036.08-.08.08s-.08-.036-.08-.08v-1.28c0-.044.036-.08.08-.08s.08.036.08.08zm-2.668 0c0 .044-.036.08-.08.08s-.08-.036-.08-.08v-1.28c0-.044.036-.08.08-.08s.08.036.08.08zm1.256-1.184c.012 0 .836.008.968.452v-.548c0-.044.036-.08.08-.08s.08.036.08.08v1.28c0 .044-.036.08-.08.08s-.08-.036-.08-.08v-.548c-.068.224-.424.452-.968.452-.012 0-.836-.008-.968-.452v.548c0 .044-.036.08-.08.08s-.08-.036-.08-.08v-1.28c0-.044.036-.08.08-.08s.08.036.08.08v.548c.068-.224.424-.452.968-.452m.408.648c0-.408-.36-.556-.536-.556-.092 0-.28.04-.28.356a.54.54 0 0 0 .532.544c.088 0 .284-.032.284-.344" /><text font-size="1.85" text-anchor="start" transform="translate(33.995 23.682)">
<tspan>Do</tspan>
</text><path d="M33.995 28.384c0-.364.464-.728.868-.728.252 0 .436.14.436.36 0 .348-.44.728-.88.728-.268 0-.424-.156-.424-.36" /><rect width=".13" height="2.61" x="-.07" y="-1.79" ry=".04" transform="translate(35.232 27.2)" /><path d="M36.25 29.384c0-.364.463-.728.867-.728.252 0 .436.14.436.36 0 .348-.44.728-.88.728-.268 0-.424-.156-.424-.36" /><rect width=".13" height="3.02" x="-.07" y="-1.21" ry=".04" transform="translate(37.486 27.2)" /><text font-size="1.85" text-anchor="start" transform="translate(39.004 23.682)">
<tspan>Ré</tspan>
</text><path d="M39.004 27.884c0-.364.464-.728.868-.728.252 0 .436.14.436.36 0 .348-.44.728-.88.728-.268 0-.424-.156-.424-.36" /><rect width=".13" height="3.31" x="-.07" y="-3" ry=".04" transform="translate(40.24 27.2)" /><text font-size="1.85" text-anchor="start" transform="translate(44.523 23.682)">
<tspan>Sol</tspan>
</text><path d="M46.903 27.84c0 .044-.036.08-.08.08s-.08-.036-.08-.08v-1.28c0-.044.036-.08.08-.08s.08.036.08.08zm-2.668 0c0 .044-.036.08-.08.08s-.08-.036-.08-.08v-1.28c0-.044.036-.08.08-.08s.08.036.08.08zm1.256-1.184c.012 0 .836.008.968.452v-.548c0-.044.036-.08.08-.08s.08.036.08.08v1.28c0 .044-.036.08-.08.08s-.08-.036-.08-.08v-.548c-.068.224-.424.452-.968.452-.012 0-.836-.008-.968-.452v.548c0 .044-.036.08-.08.08s-.08-.036-.08-.08v-1.28c0-.044.036-.08.08-.08s.08.036.08.08v.548c.068-.224.424-.452.968-.452m.408.648c0-.408-.36-.556-.536-.556-.092 0-.28.04-.28.356a.54.54 0 0 0 .532.544c.088 0 .284-.032.284-.344" /><text color="rgba(100.0000%, 0.0000%, 0.0000%, 100.0000%)" font-size="3.3" font-weight="bold" text-anchor="start" transform="translate(42.344 31.48)">
<tspan>+</tspan>
</text><text font-size="1.85" text-anchor="start" transform="translate(51.207 23.682)">
<tspan>Ré</tspan>
</text><path d="M51.207 27.884c0-.364.464-.728.868-.728.252 0 .436.14.436.36 0 .348-.44.728-.88.728-.268 0-.424-.156-.424-.36" /><rect width=".13" height="3.31" x="-.07" y="-3" ry=".04" transform="translate(52.444 27.2)" /></svg>