<svg xmlns="http://www.w3.org/2000/svg" width="680.31" height="128.2" viewBox="0 0 107.82 20.32" fill="currentColor" font-family="Linux Libertine"><style type="text/css">tspan{white-space:pre}</style><rect width=".2" height="4" x="0" y="-2" ry="0" transform="translate(20.796 5.217)" /><rect width=".62" height="4" x="0" y="-2" ry="0" transform="translate(107.2 5.217)" /><rect width=".2" height="4" x="0" y="-2" ry="0" transform="translate(106.693 5.217)" /><path stroke="currentColor" stroke-linecap="round" stroke-linejoin="round" stroke-width=".1" d="M.05 7.217h107.72M.05 6.217h107.72M.05 5.217h107.72M.05 4.217h107.72M.05 3.217h107.72" /><rect width=".2" height="4" x="0" y="-2" ry="0" transform="translate(100.883 5.217)" /><path d="M85.21 4.717a.224.224 0 1 1 .448 0 .224.224 0 0 1-.448 0M85.21 5.717a.224.224 0 1 1 .448 0 .224.224 0 0 1-.448 0" /><rect width=".62" height="4" x="0" y="-2" ry="0" transform="translate(86.478 5.217)" /><rect width=".2" height="4" x="0" y="-2" ry="0" transform="translate(85.97 5.217)" /><rect width=".2" height="4" x="0" y="-2" ry="0" transform="translate(80.534 5.217)" /><rect width=".2" height="4" x="0" y="-2" ry="0" transform="translate(52.253 5.217)" /><rect width=".2" height="4" x="0" y="-2" ry="0" transform="translate(35.198 5.217)" /><path d="M88.165 1.678c-.15 0-.1.165-.18.165-.027 0-.052-.018-.052-.05v-.008c.037-.422.58-.392.58-.83 0-.127-.045-.257-.155-.257-.078 0-.155.032-.155.102 0 .063.082.098.082.16a.159.159 0 0 1-.317 0c0-.207.177-.367.39-.367.242 0 .472.14.472.362 0 .353-.332.385-.567.515.215 0 .287.155.42.155.112 0 .072-.102.142-.102.028 0 .053.022.053.052 0 .07-.118.268-.358.268-.23 0-.237-.165-.355-.165M88.903 1.71a.133.133 0 0 1 .265 0c0 .073-.06.133-.132.133s-.133-.06-.133-.133" /><path stroke="currentColor" stroke-linecap="round" stroke-linejoin="round" stroke-width=".17" d="M107.74.083v2M87.01.083v2M87.01.083h20.73" /><path stroke="currentColor" stroke-linecap="round" stroke-linejoin="round" stroke-width=".08" d="M99.305 3.208v.395H89.06v-.395z" /><rect width=".36" height=".13" x="0" y="-.56" ry=".04" transform="translate(100.274 11.212)" /><path d="M9.5 7.901c0-.364.464-.728.868-.728.252 0 .436.14.436.36 0 .348-.44.728-.88.728-.268 0-.424-.156-.424-.36M1.864 8.757H1.84a.783.783 0 0 1-.78-.788c0-.232.212-.412.448-.412.216 0 .38.188.38.412 0 .208-.172.38-.38.38a.3.3 0 0 1-.124-.024c.104.156.272.26.468.26h.016zm.54-3.144c.076.356.192.968.24 1.416a.67.67 0 0 0 .448-.652.753.753 0 0 0-.688-.764m-1.308.492c0 .448.392.988 1.112.988q.127 0 .272-.024a17 17 0 0 0-.252-1.456c-.316.032-.496.244-.496.476 0 .176.1.364.324.492q.029.03.028.06c0 .044-.04.088-.088.088-.06 0-.504-.248-.504-.748 0-.352.232-.696.64-.788a15 15 0 0 0-.184-.7c-.428.484-.852.972-.852 1.612m1.132-4.664c.112 0 .572.824.572 1.444 0 .572-.344 1.02-.72 1.456.084.272.156.552.224.828.02 0 .04-.004.056-.004.62 0 1.02.516 1.02 1.048 0 .452-.296.848-.72.98q.019.21.02.42-.001.116-.008.232c-.028.476-.352.9-.808.912l.004-.172c.372-.008.612-.368.636-.764a3.775 3.775 0 0 0-.008-.588q-.169.031-.32.032C1.22 7.265.808 6.397.808 5.77c0-.708.524-1.224.992-1.764-.116-.384-.208-.68-.208-1.384 0-.756.576-1.18.636-1.18m-.44 1.648c0 .22.048.46.14.76.328-.4.588-.808.588-1.304 0-.16-.024-.328-.084-.508a1.13 1.13 0 0 0-.644 1.052M4.185 2.741c0-.032.02-.06.052-.072l.184-.068V1.97c0-.04.032-.076.072-.076s.076.036.076.076v.58l.332-.124v-.632c0-.04.036-.076.076-.076s.072.036.072.076v.58l.128-.048q.014-.005.028-.004a.08.08 0 0 1 .08.08v.24c0 .032-.02.064-.052.076l-.184.064v.64l.128-.044q.014-.005.028-.004a.08.08 0 0 1 .08.08v.24c0 .032-.02.06-.052.072l-.184.068v.632c0 .04-.032.076-.072.076s-.076-.036-.076-.076v-.58l-.332.124v.632c0 .04-.036.076-.076.076s-.072-.036-.072-.076v-.58l-.128.048q-.014.005-.028.004a.08.08 0 0 1-.08-.08v-.24c0-.032.02-.064.052-.076l.184-.064v-.64l-.128.044q-.014.005-.028.004a.08.08 0 0 1-.08-.08zm.716.096-.332.12v.64l.332-.12zM7.169 4.181c-.204 0-.212.172-.212.4v.144c0 .228.008.4.212.4.228 0 .244-.204.244-.472s-.016-.472-.244-.472m-.212-.028a.4.4 0 0 1 .212-.064c.404 0 .68.184.68.564s-.276.564-.68.564c-.448 0-.68-.496-.68-1 0-.512.288-1 .76-1 .28 0 .544.156.544.412 0 .144-.116.264-.26.264s-.264-.12-.264-.264c0-.096.16-.1.16-.196 0-.08-.092-.124-.18-.124-.264 0-.3.26-.3.556 0 .096.008.192.008.288" /><path d="M7.479 6.07c.1-.12.176-.257.176-.413 0-.216-.22-.348-.456-.348a.284.284 0 0 0-.292.284c0 .084.04.168.124.216zm.124.071c.216.124.32.316.32.5 0 .292-.264.576-.756.576-.376 0-.732-.216-.732-.56 0-.2.144-.348.288-.492a.52.52 0 0 1-.22-.412c0-.272.24-.536.696-.536.32 0 .628.156.628.44 0 .184-.1.344-.224.484m-.756.1c-.124.12-.236.244-.236.416 0 .276.264.468.556.468a.334.334 0 0 0 .344-.332.27.27 0 0 0-.14-.248z" /><text font-size="2.51" text-anchor="start" transform="translate(7.582 11.212)">
<tspan>Qu’il</tspan>
</text><rect width=".13" height="3.32" x="-.07" y="-1.01" ry=".04" transform="translate(10.737 5.217)" /><path d="M14.82 6.401c0-.364.464-.728.868-.728.252 0 .436.14.436.36 0 .348-.44.728-.88.728-.268 0-.424-.156-.424-.36" /><text font-size="2.51" text-anchor="start" transform="translate(13.622 11.212)">
<tspan>soit</tspan>
</text><rect width=".13" height="2.5" x="-.07" y="-1.68" ry=".04" transform="translate(16.057 5.217)" /><rect width=".36" height=".13" x="0" y="-.56" ry=".04" transform="translate(90.547 11.212)" /><path d="M18.74 5.901c0-.364.463-.728.867-.728.252 0 .436.14.436.36 0 .348-.44.728-.88.728-.268 0-.424-.156-.424-.36" /><text font-size="2.51" text-anchor="start" transform="translate(18.223 11.212)">
<tspan>bé</tspan>
</text><rect width=".13" height="2.49" x="-.07" y="-2.18" ry=".04" transform="translate(19.976 5.217)" /><path stroke="currentColor" stroke-linecap="round" stroke-linejoin="round" stroke-width=".08" d="M78.222 3.02v.395l-10.245.812V3.83z" /><path d="M21.766 5.401c0-.364.464-.728.868-.728.252 0 .436.14.436.36 0 .348-.44.728-.88.728-.268 0-.424-.156-.424-.36" /><text font-size="2.51" text-anchor="start" transform="translate(21.394 11.212)">
<tspan>ni</tspan>
</text><path d="M23.52 4.717a.224.224 0 1 1 .447 0 .224.224 0 0 1-.447 0" /><rect width=".13" height="3.15" x="-.07" y=".19" ry=".04" transform="translate(21.833 5.217)" /><rect width=".36" height=".13" x="0" y="-.56" ry=".04" transform="translate(79.191 11.212)" /><path d="M24.587 5.401c0-.364.464-.728.868-.728.252 0 .436.14.436.36 0 .348-.44.728-.88.728-.268 0-.424-.156-.424-.36" /><text font-size="2.51" text-anchor="start" transform="translate(24.359 11.212)">
<tspan>le</tspan>
</text><rect width=".13" height="2.81" x="-.07" y=".19" ry=".04" transform="translate(24.654 5.217)" /><path d="M28.812 4.901c0-.364.463-.728.867-.728.252 0 .436.14.436.36 0 .348-.44.728-.88.728-.268 0-.424-.156-.424-.36" /><text font-size="2.51" text-anchor="start" transform="translate(27.02 11.212)">
<tspan>Dieu</tspan>
</text><rect width=".13" height="3.31" x="-.07" y="-.31" ry=".04" transform="translate(28.879 5.217)" /><path stroke="currentColor" stroke-linecap="round" stroke-linejoin="round" stroke-width=".08" d="M63.75 3.02v.395h-8.657V3.02z" /><path d="M33.108 5.401c0-.364.464-.728.868-.728.252 0 .436.14.436.36 0 .348-.44.728-.88.728-.268 0-.424-.156-.424-.36" /><text font-size="2.51" text-anchor="start" transform="translate(32.808 11.212)">
<tspan>et</tspan>
</text><rect width=".13" height="2.81" x="-.07" y=".19" ry=".04" transform="translate(33.175 5.217)" /><path d="M67.369.64c.04 0 .075-.035.102-.035.03 0 .058.035.058.078v.857c0 .115.087.213.2.213.035 0 .05.027.05.052s-.015.053-.05.053c-.12 0-.24-.033-.36-.033s-.238.033-.358.033c-.035 0-.052-.028-.052-.053s.017-.052.052-.052c.113 0 .198-.098.198-.213v-.357c0-.055-.038-.085-.073-.085a.05.05 0 0 0-.042.025l-.085.17a.06.06 0 0 1-.058.035c-.035 0-.067-.025-.067-.063q0-.016.007-.032l.318-.625a.03.03 0 0 1 .025-.015c.037 0 .097.047.135.047M67.861 1.725a.133.133 0 0 1 .265 0c0 .073-.06.133-.132.133s-.133-.06-.133-.133" /><path stroke="currentColor" stroke-linecap="round" stroke-linejoin="round" stroke-width=".17" d="M86.05.083v2M65.97.083v2M65.97.083h20.08" /><rect width=".36" height=".13" x="0" y="-.56" ry=".04" transform="translate(69.464 11.212)" /><path d="M36.2 5.901c0-.364.464-.728.868-.728.252 0 .436.14.436.36 0 .348-.44.728-.88.728-.268 0-.424-.156-.424-.36" /><text font-size="2.51" text-anchor="start" transform="translate(35.612 11.212)">
<tspan>Pè</tspan>
</text><rect width=".13" height="3.31" x="-.07" y="-3" ry=".04" transform="translate(37.437 5.217)" /><path d="M38.947 5.901c0-.364.463-.728.867-.728.253 0 .437.14.437.36 0 .348-.44.728-.88.728-.269 0-.425-.156-.425-.36" /><text font-size="2.51" text-anchor="start" transform="translate(38.592 11.212)">
<tspan>re</tspan>
</text><rect width=".13" height="3.31" x="-.07" y="-3" ry=".04" transform="translate(40.184 5.217)" /><path d="M40.25 2.26v1.5h-.063v-1.5zm.493 2.915c0-.04.168-.348.168-.784 0-.412-.376-.832-.66-1.132v-1c0 .788.828 1.344.828 2.132 0 .284-.06.564-.164.828a.1.1 0 0 1-.08.048.09.09 0 0 1-.092-.092" /><rect width=".36" height=".13" x="0" y="-.56" ry=".04" transform="translate(61.307 11.212)" /><path d="M42.039 5.901c0-.364.464-.728.868-.728.252 0 .436.14.436.36 0 .348-.44.728-.88.728-.268 0-.424-.156-.424-.36" /><text font-size="2.51" text-anchor="start" transform="translate(41.505 11.212)">
<tspan>de</tspan>
</text><rect width=".13" height="3.13" x="-.07" y="-2.81" ry=".04" transform="translate(43.276 5.217)" /><path d="M45.077 5.401c0-.364.464-.728.868-.728.252 0 .436.14.436.36 0 .348-.44.728-.88.728-.268 0-.424-.156-.424-.36" /><text font-size="2.51" text-anchor="start" transform="translate(44.777 11.212)">
<tspan>Jé</tspan>
</text><rect width=".13" height="2.63" x="-.07" y="-2.81" ry=".04" transform="translate(46.314 5.217)" /><path stroke="currentColor" stroke-linecap="round" stroke-linejoin="round" stroke-width=".08" d="M49.427 2.208v.395h-6.176v-.395z" /><path d="M48.165 5.901c0-.364.464-.728.868-.728.252 0 .436.14.436.36 0 .348-.44.728-.88.728-.268 0-.424-.156-.424-.36" /><text font-size="2.51" text-anchor="start" transform="translate(47.182 11.212)">
<tspan>sus</tspan>
</text><rect width=".13" height="3.13" x="-.07" y="-2.81" ry=".04" transform="translate(49.402 5.217)" /><rect width=".36" height=".13" x="0" y="-.56" ry=".04" transform="translate(46.752 11.212)" /><path d="M53.881 6.401c0-.364.464-.728.868-.728.252 0 .436.14.436.36 0 .348-.44.728-.88.728-.268 0-.424-.156-.424-.36" /><text font-size="2.51" text-anchor="start" transform="translate(51.352 11.212)">
<tspan>Christ</tspan>
</text><rect width=".13" height="2.81" x="-.07" y="-2" ry=".04" transform="translate(55.118 5.217)" /><path d="M59.274 6.401c0-.364.464-.728.868-.728.252 0 .436.14.436.36 0 .348-.44.728-.88.728-.268 0-.424-.156-.424-.36" /><text font-size="2.51" text-anchor="start" transform="translate(58.614 11.212)">
<tspan>no</tspan>
</text><path d="M62.487 6.401c0-.364.464-.728.868-.728.252 0 .436.14.436.36 0 .348-.44.728-.88.728-.268 0-.424-.156-.424-.36" /><text font-size="2.51" text-anchor="start" transform="translate(61.737 11.212)">
<tspan>tre</tspan>
</text><rect width=".13" height="2.81" x="-.07" y="-2" ry=".04" transform="translate(63.724 5.217)" /><path stroke="currentColor" stroke-linecap="round" stroke-linejoin="round" stroke-width=".08" d="M33.2 8.02v.395h-8.57V8.02z" /><rect width=".36" height=".13" x="0" y="-.56" ry=".04" transform="translate(38.162 11.212)" /><path d="M66.766 7.401c0-.364.463-.728.867-.728.253 0 .437.14.437.36 0 .348-.44.728-.88.728-.268 0-.424-.156-.424-.36" /><text font-size="2.51" text-anchor="start" transform="translate(65.44 11.212)">
<tspan>Maî</tspan>
</text><rect width=".13" height="3.01" x="-.07" y="-1.19" ry=".04" transform="translate(68.002 5.217)" /><path d="M71.896 6.401c0-.364.464-.728.868-.728.252 0 .436.14.436.36 0 .348-.44.728-.88.728-.268 0-.424-.156-.424-.36" /><text font-size="2.51" text-anchor="start" transform="translate(69.894 11.212)">
<tspan>tre</tspan>
</text><path d="M74.07 11.672c0 .055-.387.4-1.072.4s-1.072-.345-1.072-.4c0-.033.027-.065.064-.065.014 0 .028 0 .042.014.257.225.62.24.966.24s.708-.015.966-.24c.013-.014.027-.014.041-.014.037 0 .064.032.064.065" /><text font-size="2.51" text-anchor="start" transform="translate(73.298 11.212)">
<tspan>et</tspan>
</text><rect width=".13" height="2.41" x="-.07" y="-1.6" ry=".04" transform="translate(73.133 5.217)" /><path d="M76.96 5.901c0-.364.464-.728.868-.728.252 0 .436.14.436.36 0 .348-.44.728-.88.728-.268 0-.424-.156-.424-.36" /><text font-size="2.51" text-anchor="start" transform="translate(76.103 11.212)">
<tspan>Sei</tspan>
</text><rect width=".13" height="2.31" x="-.07" y="-1.99" ry=".04" transform="translate(78.197 5.217)" /><path d="M81.97 5.901c0-.364.464-.728.868-.728.252 0 .436.14.436.36 0 .348-.44.728-.88.728-.268 0-.424-.156-.424-.36" /><text font-size="2.51" text-anchor="start" transform="translate(79.621 11.212)">
<tspan>gneur</tspan>
</text><path d="M83.725 5.717a.224.224 0 1 1 .447 0 .224.224 0 0 1-.447 0" /><rect width=".13" height="3.31" x="-.07" y="-3" ry=".04" transform="translate(83.207 5.217)" /><path stroke="currentColor" stroke-linecap="round" stroke-linejoin="round" stroke-width=".08" d="M20.002 2.831v.396l-9.29 1.188V4.02z" /><rect width=".66" height=".13" x="0" y="-.56" ry=".04" transform="translate(20.647 11.212)" /><path d="M87.848 7.401c0-.364.464-.728.868-.728.252 0 .436.14.436.36 0 .348-.44.728-.88.728-.268 0-.424-.156-.424-.36" /><text font-size="2.51" text-anchor="start" transform="translate(86.523 11.212)">
<tspan>Maî</tspan>
</text><rect width=".13" height="3.63" x="-.07" y="-1.81" ry=".04" transform="translate(89.085 5.217)" /><path d="M92.979 6.401c0-.364.464-.728.868-.728.252 0 .436.14.436.36 0 .348-.44.728-.88.728-.268 0-.424-.156-.424-.36" /><text font-size="2.51" text-anchor="start" transform="translate(90.977 11.212)">
<tspan>tre</tspan>
</text><path d="M95.152 11.672c0 .055-.386.4-1.072.4s-1.072-.345-1.072-.4c0-.033.028-.065.065-.065.014 0 .028 0 .041.014.258.225.621.24.966.24s.709-.015.966-.24c.014-.014.028-.014.042-.014.036 0 .064.032.064.065" /><text font-size="2.51" text-anchor="start" transform="translate(94.38 11.212)">
<tspan>et</tspan>
</text><rect width=".13" height="2.63" x="-.07" y="-1.81" ry=".04" transform="translate(94.216 5.217)" /><path d="M98.043 6.901c0-.364.463-.728.867-.728.253 0 .437.14.437.36 0 .348-.44.728-.88.728-.268 0-.424-.156-.424-.36" /><text font-size="2.51" text-anchor="start" transform="translate(97.185 11.212)">
<tspan>Sei</tspan>
</text><rect width=".13" height="3.13" x="-.07" y="-1.81" ry=".04" transform="translate(99.28 5.217)" /><path d="M103.304 6.641c.16 0 .816-.44.924-.572a.2.2 0 0 0 .044-.112.166.166 0 0 0-.168-.164c-.16 0-.816.44-.924.572a.2.2 0 0 0-.04.112c0 .088.068.164.164.164m-.288-.156c0-.284.184-.812 1.032-.812.164 0 .344.04.344.276 0 .284-.184.812-1.032.812-.164 0-.344-.04-.344-.276" /><text font-size="2.51" text-anchor="start" transform="translate(100.704 11.212)">
<tspan>gneur</tspan>
</text><path d="M104.844 5.717a.224.224 0 1 1 .447 0 .224.224 0 0 1-.447 0" /><rect width=".13" height="3.24" x="-.07" y="-2.5" ry=".04" transform="translate(104.326 5.217)" /><rect width=".13" height="2.81" x="-.07" y="-2" ry=".04" transform="translate(60.51 5.217)" /><rect width=".2" height="4" x="0" y="-2" ry="0" transform="translate(26.072 16.77)" /><rect width=".62" height="4" x="0" y="-2" ry="0" transform="translate(55.583 16.77)" /><rect width=".2" height="4" x="0" y="-2" ry="0" transform="translate(55.076 16.77)" /><path stroke="currentColor" stroke-linecap="round" stroke-linejoin="round" stroke-width=".1" d="M.05 18.77h56.1M.05 17.77h56.1M.05 16.77h56.1M.05 15.77h56.1M.05 14.77h56.1" /><rect width=".2" height="4" x="0" y="-2" ry="0" transform="translate(43.38 16.77)" /><rect width=".2" height="4" x="0" y="-2" ry="0" transform="translate(42.873 16.77)" /><path stroke="currentColor" stroke-linecap="round" stroke-linejoin="round" stroke-width=".08" d="M37.511 15.384v.396l-2.304-.624v-.395z" /><path d="M1.864 20.31H1.84a.783.783 0 0 1-.78-.788c0-.232.212-.412.448-.412.216 0 .38.188.38.412 0 .208-.172.38-.38.38a.3.3 0 0 1-.124-.024c.104.156.272.26.468.26h.016zm.54-3.144c.076.356.192.968.24 1.416a.67.67 0 0 0 .448-.652.753.753 0 0 0-.688-.764m-1.308.492c0 .448.392.988 1.112.988q.127 0 .272-.024a17 17 0 0 0-.252-1.456c-.316.032-.496.244-.496.476 0 .176.1.364.324.492q.029.03.028.06c0 .044-.04.088-.088.088-.06 0-.504-.248-.504-.748 0-.352.232-.696.64-.788a15 15 0 0 0-.184-.7c-.428.484-.852.972-.852 1.612m1.132-4.664c.112 0 .572.824.572 1.444 0 .572-.344 1.02-.72 1.456.084.272.156.552.224.828q.031-.002.056-.004c.62 0 1.02.516 1.02 1.048 0 .452-.296.848-.72.98q.019.21.02.42-.001.116-.008.232c-.028.476-.352.9-.808.912l.004-.172c.372-.008.612-.368.636-.764q.007-.11.008-.22.001-.184-.016-.368-.169.031-.32.032c-.956 0-1.368-.868-1.368-1.496 0-.708.524-1.224.992-1.764-.116-.384-.208-.68-.208-1.384 0-.756.576-1.18.636-1.18m-.44 1.648c0 .22.048.46.14.76.328-.4.588-.808.588-1.304 0-.16-.024-.328-.084-.508a1.13 1.13 0 0 0-.644 1.052M4.185 14.294c0-.032.02-.06.052-.072l.184-.068v-.632c0-.04.032-.076.072-.076s.076.036.076.076v.58l.332-.124v-.632c0-.04.036-.076.076-.076s.072.036.072.076v.58l.128-.048q.014-.005.028-.004a.08.08 0 0 1 .08.08v.24c0 .032-.02.064-.052.076l-.184.064v.64l.128-.044q.014-.005.028-.004a.08.08 0 0 1 .08.08v.24c0 .032-.02.06-.052.072l-.184.068v.632c0 .04-.032.076-.072.076s-.076-.036-.076-.076v-.58l-.332.124v.632c0 .04-.036.076-.076.076s-.072-.036-.072-.076v-.58l-.128.048q-.014.005-.028.004a.08.08 0 0 1-.08-.08v-.24c0-.032.02-.064.052-.076l.184-.064v-.64l-.128.044q-.014.005-.028.004a.08.08 0 0 1-.08-.08zm.716.096-.332.12v.64l.332-.12z" /><path stroke="currentColor" stroke-linecap="round" stroke-linejoin="round" stroke-width=".08" d="M19.57 18.76v.396l-5.06.624v-.396z" /><text font-size="1.85" text-anchor="start" transform="translate(7.785 13.252)">
<tspan>Sol</tspan>
</text><path d="M10.165 17.41c0 .044-.036.08-.08.08s-.08-.036-.08-.08v-1.28c0-.044.036-.08.08-.08s.08.036.08.08zm-2.668 0c0 .044-.036.08-.08.08s-.08-.036-.08-.08v-1.28c0-.044.036-.08.08-.08s.08.036.08.08zm1.256-1.184c.012 0 .836.008.968.452v-.548c0-.044.036-.08.08-.08s.08.036.08.08v1.28c0 .044-.036.08-.08.08s-.08-.036-.08-.08v-.548c-.068.224-.424.452-.968.452-.012 0-.836-.008-.968-.452v.548c0 .044-.036.08-.08.08s-.08-.036-.08-.08v-1.28c0-.044.036-.08.08-.08s.08.036.08.08v.548c.068-.224.424-.452.968-.452m.408.648c0-.408-.36-.556-.536-.556-.092 0-.28.04-.28.356a.54.54 0 0 0 .532.544c.088 0 .284-.032.284-.344M14.469 17.454c0-.364.464-.728.868-.728.252 0 .436.14.436.36 0 .348-.44.728-.88.728-.268 0-.424-.156-.424-.36" /><rect width=".13" height="2.12" x="-.07" y=".69" ry=".04" transform="translate(14.536 16.77)" /><path d="M16.973 16.954c0-.364.464-.728.868-.728.252 0 .436.14.436.36 0 .348-.44.728-.88.728-.268 0-.424-.156-.424-.36" /><rect width=".13" height="2.31" x="-.07" y=".19" ry=".04" transform="translate(17.04 16.77)" /><path d="M19.477 16.454c0-.364.464-.728.868-.728.252 0 .436.14.436.36 0 .348-.44.728-.88.728-.268 0-.424-.156-.424-.36" /><rect width=".13" height="2.51" x="-.07" y="-.31" ry=".04" transform="translate(19.544 16.77)" /><text font-size="1.85" text-anchor="start" transform="translate(21.981 13.252)">
<tspan>Mi</tspan>
</text><text font-size="1.85" text-anchor="start" transform="translate(24.702 13.252)">
<tspan>m</tspan>
</text><path d="M21.981 16.954c0-.364.464-.728.868-.728.252 0 .436.14.436.36 0 .348-.44.728-.88.728-.268 0-.424-.156-.424-.36" /><rect width=".13" height="3.15" x="-.07" y=".19" ry=".04" transform="translate(22.049 16.77)" /><text font-size="1.85" text-anchor="start" transform="translate(27.311 13.252)">
<tspan>Si</tspan>
</text><text font-size="1.85" text-anchor="start" transform="translate(29.313 13.252)">
<tspan>m</tspan>
</text><path d="M29.691 17.41c0 .044-.036.08-.08.08s-.08-.036-.08-.08v-1.28c0-.044.036-.08.08-.08s.08.036.08.08zm-2.668 0c0 .044-.036.08-.08.08s-.08-.036-.08-.08v-1.28c0-.044.036-.08.08-.08s.08.036.08.08zm1.256-1.184c.012 0 .836.008.968.452v-.548c0-.044.036-.08.08-.08s.08.036.08.08v1.28c0 .044-.036.08-.08.08s-.08-.036-.08-.08v-.548c-.068.224-.424.452-.968.452-.012 0-.836-.008-.968-.452v.548c0 .044-.036.08-.08.08s-.08-.036-.08-.08v-1.28c0-.044.036-.08.08-.08s.08.036.08.08v.548c.068-.224.424-.452.968-.452m.408.648c0-.408-.36-.556-.536-.556-.092 0-.28.04-.28.356a.54.54 0 0 0 .532.544c.088 0 .284-.032.284-.344" /><text font-size="1.85" text-anchor="start" transform="translate(33.995 13.252)">
<tspan>Do</tspan>
</text><path d="M33.995 17.954c0-.364.464-.728.868-.728.252 0 .436.14.436.36 0 .348-.44.728-.88.728-.268 0-.424-.156-.424-.36" /><rect width=".13" height="2.61" x="-.07" y="-1.79" ry=".04" transform="translate(35.232 16.77)" /><path d="M36.25 18.954c0-.364.463-.728.867-.728.252 0 .436.14.436.36 0 .348-.44.728-.88.728-.268 0-.424-.156-.424-.36" /><rect width=".13" height="3.02" x="-.07" y="-1.21" ry=".04" transform="translate(37.486 16.77)" /><text font-size="1.85" text-anchor="start" transform="translate(39.004 13.252)">
<tspan>Ré</tspan>
</text><path d="M39.004 17.454c0-.364.464-.728.868-.728.252 0 .436.14.436.36 0 .348-.44.728-.88.728-.268 0-.424-.156-.424-.36" /><rect width=".13" height="3.31" x="-.07" y="-3" ry=".04" transform="translate(40.24 16.77)" /><text font-size="1.85" text-anchor="start" transform="translate(44.523 13.252)">
<tspan>Sol</tspan>
</text><path d="M46.903 17.41c0 .044-.036.08-.08.08s-.08-.036-.08-.08v-1.28c0-.044.036-.08.08-.08s.08.036.08.08zm-2.668 0c0 .044-.036.08-.08.08s-.08-.036-.08-.08v-1.28c0-.044.036-.08.08-.08s.08.036.08.08zm1.256-1.184c.012 0 .836.008.968.452v-.548c0-.044.036-.08.08-.08s.08.036.08.08v1.28c0 .044-.036.08-.08.08s-.08-.036-.08-.08v-.548c-.068.224-.424.452-.968.452-.012 0-.836-.008-.968-.452v.548c0 .044-.036.08-.08.08s-.08-.036-.08-.08v-1.28c0-.044.036-.08.08-.08s.08.036.08.08v.548c.068-.224.424-.452.968-.452m.408.648c0-.408-.36-.556-.536-.556-.092 0-.28.04-.28.356a.54.54 0 0 0 .532.544c.088 0 .284-.032.284-.344" /><text font-size="1.85" text-anchor="start" transform="translate(51.207 13.252)">
<tspan>Ré</tspan>
</text><path d="M51.207 17.454c0-.364.464-.728.868-.728.252 0 .436.14.436.36 0 .348-.44.728-.88.728-.268 0-.424-.156-.424-.36" /><rect width=".13" height="3.31" x="-.07" y="-3" ry=".04" transform="translate(52.444 16.77)" /></svg>