<svg xmlns="http://www.w3.org/2000/svg" width="492.4" height="209.08" viewBox="0 -3.52 78.04 33.14" fill="currentColor" font-family="Linux Libertine"><style type="text/css">tspan{white-space:pre}</style><rect width=".2" height="4" x="0" y="-2" ry="0" transform="translate(18.466 2.15)" /><rect width="1.96" height=".2" x="11.24" y="-.1" ry=".1" transform="translate(0 5.15)" /><path stroke="currentColor" stroke-linecap="round" stroke-linejoin="round" stroke-width=".1" d="M.05 4.15h77.94M.05 3.15h77.94M.05 2.15h77.94M.05 1.15h77.94M.05.15h77.94" /><rect width=".2" height="4" x="0" y="-2" ry="0" transform="translate(77.84 2.15)" /><rect width=".2" height="4" x="0" y="-2" ry="0" transform="translate(62.64 2.15)" /><rect width=".2" height="4" x="0" y="-2" ry="0" transform="translate(48.058 2.15)" /><rect width=".2" height="4" x="0" y="-2" ry="0" transform="translate(34.468 2.15)" /><path stroke="currentColor" stroke-linecap="round" stroke-linejoin="round" stroke-width=".08" d="M15.918 1.763v.396l-3.138.189v-.396zM76.469-.86v.396l-2.805.623v-.396z" /><path d="M11.569 5.334c0-.364.464-.728.868-.728.252 0 .436.14.436.36 0 .348-.44.728-.88.728-.268 0-.424-.156-.424-.36M1.864 5.69H1.84a.783.783 0 0 1-.78-.788c0-.232.212-.412.448-.412.216 0 .38.188.38.412 0 .208-.172.38-.38.38a.3.3 0 0 1-.124-.024c.104.156.272.26.468.26h.016zm.54-3.144c.076.356.192.968.24 1.416a.67.67 0 0 0 .448-.652.753.753 0 0 0-.688-.764m-1.308.492c0 .448.392.988 1.112.988q.127 0 .272-.024a17 17 0 0 0-.252-1.456c-.316.032-.496.244-.496.476 0 .176.1.364.324.492q.029.03.028.06c0 .044-.04.088-.088.088-.06 0-.504-.248-.504-.748 0-.352.232-.696.64-.788a15 15 0 0 0-.184-.7c-.428.484-.852.972-.852 1.612m1.132-4.664c.112 0 .572.824.572 1.444 0 .572-.344 1.02-.72 1.456.084.272.156.552.224.828q.031-.002.056-.004c.62 0 1.02.516 1.02 1.048 0 .452-.296.848-.72.98q.019.21.02.42c0 .076-.004.156-.008.232-.028.476-.352.9-.808.912l.004-.172c.372-.008.612-.368.636-.764a3.775 3.775 0 0 0-.008-.588q-.169.031-.32.032C1.22 4.198.808 3.33.808 2.702c0-.708.524-1.224.992-1.764-.116-.384-.208-.68-.208-1.384 0-.756.576-1.18.636-1.18M1.788.022c0 .22.048.46.14.76.328-.4.588-.808.588-1.304 0-.16-.024-.328-.084-.508A1.13 1.13 0 0 0 1.788.022M4.413 1.986l-.004.264v.044q-.001.132.016.264c.18-.152.372-.32.372-.556 0-.132-.056-.268-.172-.268-.124 0-.208.12-.212.252m-.168.716L4.197.322c.032-.02.072-.032.108-.032s.076.012.108.032l-.028 1.38a.58.58 0 0 1 .364-.136c.208 0 .356.192.356.408 0 .32-.344.468-.588.676-.06.052-.096.152-.18.152-.052 0-.092-.044-.092-.1M5.333.486 5.329.75v.044q-.001.132.016.264c.18-.152.372-.32.372-.556 0-.132-.056-.268-.172-.268-.124 0-.208.12-.212.252m-.168.716-.048-2.38c.032-.02.072-.032.108-.032s.076.012.108.032L5.305.202a.58.58 0 0 1 .364-.136c.208 0 .356.192.356.408 0 .32-.344.468-.588.676-.06.052-.096.152-.18.152-.052 0-.092-.044-.092-.1M6.253 2.486l-.004.264v.044q-.001.132.016.264c.18-.152.372-.32.372-.556 0-.132-.056-.268-.172-.268-.124 0-.208.12-.212.252m-.168.716L6.037.822c.032-.02.072-.032.108-.032s.076.012.108.032l-.028 1.38a.58.58 0 0 1 .364-.136c.208 0 .356.192.356.408 0 .32-.344.468-.588.676-.06.052-.096.152-.18.152-.052 0-.092-.044-.092-.1M8.829 1.114c-.204 0-.212.172-.212.4v.144c0 .228.008.4.212.4.228 0 .244-.204.244-.472s-.016-.472-.244-.472m-.212-.028a.4.4 0 0 1 .212-.064c.404 0 .68.184.68.564s-.276.564-.68.564c-.448 0-.68-.496-.68-1 0-.512.288-1 .76-1 .28 0 .544.156.544.412 0 .144-.116.264-.26.264s-.264-.12-.264-.264c0-.096.16-.1.16-.196 0-.08-.092-.124-.18-.124-.264 0-.3.26-.3.556 0 .096.008.192.008.288" /><path d="M9.139 3.002c.1-.12.176-.256.176-.412 0-.216-.22-.348-.456-.348a.284.284 0 0 0-.292.284c0 .084.04.168.124.216zm.124.072c.216.124.32.316.32.5 0 .292-.264.576-.756.576-.376 0-.732-.216-.732-.56 0-.2.144-.348.288-.492a.52.52 0 0 1-.22-.412c0-.272.24-.536.696-.536.32 0 .628.156.628.44 0 .184-.1.344-.224.484m-.756.1c-.124.12-.236.244-.236.416 0 .276.264.468.556.468a.334.334 0 0 0 .344-.332.27.27 0 0 0-.14-.248z" /><text font-size="2.51" text-anchor="start" transform="translate(11.268 8.385)">
<tspan>Jé</tspan>
</text><rect width=".13" height="2.82" x="-.07" y="0" ry=".04" transform="translate(12.806 2.15)" /><path d="M14.656 4.834c0-.364.464-.728.868-.728.252 0 .436.14.436.36 0 .348-.44.728-.88.728-.268 0-.424-.156-.424-.36" /><text font-size="2.51" text-anchor="start" transform="translate(13.673 8.385)">
<tspan>sus</tspan>
</text><rect width=".13" height="2.5" x="-.07" y="-.18" ry=".04" transform="translate(15.893 2.15)" /><path stroke="currentColor" stroke-linecap="round" stroke-linejoin="round" stroke-width=".08" d="M65.611 1.925c.684-.721 2.538-.721 3.222 0h0c-.684-.597-2.538-.597-3.222 0" /><text font-size="1.85" text-anchor="start" transform="translate(19.972 -1.369)">
<tspan>Do</tspan>
</text><text font-size="1.85" text-anchor="start" transform="translate(22.837 -1.369)">
<tspan>m</tspan>
</text><path d="M19.972 4.334c0-.364.464-.728.868-.728.252 0 .436.14.436.36 0 .348-.44.728-.88.728-.268 0-.424-.156-.424-.36" /><text font-size="2.51" text-anchor="start" transform="translate(17.444 8.385)">
<tspan>Christ</tspan>
</text><path d="M21.727 3.65a.224.224 0 1 1 .447-.001.224.224 0 0 1-.447 0" /><rect width=".13" height="3.31" x="-.07" y="-1.5" ry=".04" transform="translate(21.21 2.15)" /><path stroke="currentColor" stroke-linecap="round" stroke-linejoin="round" stroke-width=".08" d="M60.527-.237V.16l-5.755-.623V-.86z" /><path d="M24.378 4.334c0-.364.464-.728.868-.728.252 0 .436.14.436.36 0 .348-.44.728-.88.728-.268 0-.424-.156-.424-.36" /><rect width=".13" height="2.63" x="-.07" y="-.82" ry=".04" transform="translate(25.615 2.15)" /><path d="M26.883 4.334c0-.364.464-.728.868-.728.252 0 .436.14.436.36 0 .348-.44.728-.88.728-.268 0-.424-.156-.424-.36" /><text font-size="2.51" text-anchor="start" transform="translate(26.097 8.385)">
<tspan>est</tspan>
</text><rect width=".13" height="2.77" x="-.07" y="-.96" ry=".04" transform="translate(28.12 2.15)" /><path d="M30.73 3.834c0-.364.464-.728.868-.728.252 0 .436.14.436.36 0 .348-.44.728-.88.728-.268 0-.424-.156-.424-.36" /><text font-size="2.51" text-anchor="start" transform="translate(29.872 8.385)">
<tspan>Sei</tspan>
</text><rect width=".13" height="2.5" x="-.07" y="-1.18" ry=".04" transform="translate(31.967 2.15)" /><text font-size="1.85" text-anchor="start" transform="translate(35.938 -1.369)">
<tspan>Si</tspan>
</text><path d="m38.126-2.287-.006.18v.033c0 .063.006.13.015.192.126-.114.26-.243.26-.414 0-.096-.038-.189-.122-.189-.093 0-.144.096-.147.198m-.003-1.233-.027 1.011a.4.4 0 0 1 .285-.12c.15 0 .246.153.246.315 0 .231-.24.351-.411.507-.054.051-.078.144-.156.144-.048 0-.084-.045-.084-.096l-.045-1.76q.046-.027.096-.025c.05.002.066.006.096.024M35.938 3.834c0-.364.464-.728.868-.728.252 0 .436.14.436.36 0 .348-.44.728-.88.728-.268 0-.424-.156-.424-.36" /><text font-size="2.51" text-anchor="start" transform="translate(33.391 8.385)">
<tspan>gneur,</tspan>
</text><path d="M37.692 3.65a.224.224 0 1 1 .447-.001.224.224 0 0 1-.447 0" /><rect width=".13" height="3.31" x="-.07" y="-2" ry=".04" transform="translate(37.175 2.15)" /><path stroke="currentColor" stroke-linecap="round" stroke-linejoin="round" stroke-width=".08" d="M50.006 3.372c.785.779 3.221.779 4.007 0h0c-.786.655-3.222.655-4.007 0" /><path d="M40.344 3.834c0-.364.464-.728.868-.728.252 0 .436.14.436.36 0 .348-.44.728-.88.728-.268 0-.424-.156-.424-.36" /><rect width=".13" height="3.13" x="-.07" y="-1.81" ry=".04" transform="translate(41.581 2.15)" /><path stroke="currentColor" stroke-linecap="round" stroke-linejoin="round" stroke-width=".08" d="M46.615-.048v.395l-5.06.189V.14z" /><path d="M42.848 3.834c0-.364.464-.728.868-.728.252 0 .436.14.436.36 0 .348-.44.728-.88.728-.268 0-.424-.156-.424-.36" /><text font-size="2.51" text-anchor="start" transform="translate(42.925 8.385)">
<tspan>à</tspan>
</text><rect width=".13" height="3.22" x="-.07" y="-1.91" ry=".04" transform="translate(44.085 2.15)" /><rect width="3.05" height=".08" x="0" y="-.08" ry=".03" transform="translate(51.812 8.385)" /><path d="M45.353 3.334c0-.364.463-.728.867-.728.253 0 .437.14.437.36 0 .348-.44.728-.88.728-.269 0-.425-.156-.425-.36" /><text font-size="2.51" text-anchor="start" transform="translate(45.106 8.385)">
<tspan>la</tspan>
</text><rect width=".13" height="2.81" x="-.07" y="-2" ry=".04" transform="translate(46.59 2.15)" /><text font-size="1.85" text-anchor="start" transform="translate(49.154 -1.369)">
<tspan>Fa</tspan>
</text><text font-size="1.85" text-anchor="start" transform="translate(51.587 -1.369)">
<tspan>m</tspan>
</text><path d="M49.154 2.834c0-.364.464-.728.868-.728.252 0 .436.14.436.36 0 .348-.44.728-.88.728-.268 0-.424-.156-.424-.36" /><text font-size="2.51" text-anchor="start" transform="translate(47.883 8.385)">
<tspan>gloi</tspan>
</text><rect width=".13" height="3.31" x="-.07" y="-3" ry=".04" transform="translate(50.391 2.15)" /><path d="M53.56 2.834c0-.364.464-.728.868-.728.252 0 .436.14.436.36 0 .348-.44.728-.88.728-.268 0-.424-.156-.424-.36" /><rect width=".13" height="3.12" x="-.07" y="-2.8" ry=".04" transform="translate(54.797 2.15)" /><path d="M56.065 3.334c0-.364.464-.728.868-.728.252 0 .436.14.436.36 0 .348-.44.728-.88.728-.268 0-.424-.156-.424-.36" /><text font-size="2.51" text-anchor="start" transform="translate(55.71 8.385)">
<tspan>re</tspan>
</text><rect width=".13" height="3.35" x="-.07" y="-2.54" ry=".04" transform="translate(57.301 2.15)" /><path stroke="currentColor" stroke-linecap="round" stroke-linejoin="round" stroke-width=".08" d="M37.442 4.15c.607.67 2.095.67 2.702 0h0c-.607.545-2.095.545-2.702 0" /><path d="M59.265 3.834c0-.364.464-.728.868-.728.252 0 .436.14.436.36 0 .348-.44.728-.88.728-.268 0-.424-.156-.424-.36" /><text font-size="2.51" text-anchor="start" transform="translate(58.623 8.385)">
<tspan>du</tspan>
</text><rect width=".13" height="3.51" x="-.07" y="-2.2" ry=".04" transform="translate(60.502 2.15)" /><path stroke="currentColor" stroke-linecap="round" stroke-linejoin="round" stroke-width=".08" d="M31.992.763v.396l-6.402.377V1.14z" /><rect width="1.78" height=".08" x="0" y="-.08" ry=".03" transform="translate(39.871 8.385)" /><text font-size="1.85" text-anchor="start" transform="translate(63.974 -1.369)">
<tspan>Do</tspan>
</text><text font-size="1.85" text-anchor="start" transform="translate(66.839 -1.369)">
<tspan>m</tspan>
</text><path d="M63.974 3.334c0-.364.464-.728.868-.728.252 0 .436.14.436.36 0 .348-.44.728-.88.728-.268 0-.424-.156-.424-.36" /><text font-size="2.51" text-anchor="start" transform="translate(62.11 8.385)">
<tspan>Père,</tspan>
</text><path d="M65.729 2.65a.224.224 0 1 1 .447-.001.224.224 0 0 1-.447 0" /><rect width=".13" height="3.31" x="-.07" y="-2.5" ry=".04" transform="translate(65.211 2.15)" /><rect width=".36" height=".13" x="0" y="-.56" ry=".04" transform="translate(32.961 8.385)" /><path d="M68.38 3.334c0-.364.465-.728.869-.728.252 0 .436.14.436.36 0 .348-.44.728-.88.728-.268 0-.424-.156-.424-.36" /><rect width=".13" height="3.31" x="-.07" y="-2.5" ry=".04" transform="translate(69.618 2.15)" /><path d="M69.685-.308v1.5h-.064v-1.5zm.492 2.916c0-.04.168-.348.168-.784 0-.412-.376-.832-.66-1.132v-1c0 .788.828 1.344.828 2.132 0 .284-.06.564-.164.828a.1.1 0 0 1-.08.048.09.09 0 0 1-.092-.092M71.186-.462c.148 0 .268.116.268.264v.08c0 .428-.408.64-.456.64a.053.053 0 0 1-.052-.052c0-.072.264-.1.32-.48h-.108a.213.213 0 0 1-.212-.212.24.24 0 0 1 .24-.24M72.452 3.334c0-.364.464-.728.868-.728.252 0 .436.14.436.36 0 .348-.44.728-.88.728-.268 0-.424-.156-.424-.36" /><text font-size="2.51" text-anchor="start" transform="translate(72.53 8.385)">
<tspan>à</tspan>
</text><rect width=".13" height="3.02" x="-.07" y="-2.2" ry=".04" transform="translate(73.69 2.15)" /><path d="M75.207 2.334c0-.364.464-.728.868-.728.251 0 .435.14.435.36 0 .348-.44.728-.88.728-.267 0-.423-.156-.423-.36" /><text font-size="2.51" text-anchor="start" transform="translate(74.96 8.385)">
<tspan>la</tspan>
</text><rect width=".13" height="2.61" x="-.07" y="-2.8" ry=".04" transform="translate(76.444 2.15)" /><path stroke="currentColor" stroke-linecap="round" stroke-linejoin="round" stroke-width=".08" d="M20.824 4.9c.785.778 3.221.778 4.007 0h0c-.785.654-3.222.654-4.007 0" /><rect width=".36" height=".13" x="0" y="-.56" ry=".04" transform="translate(13.243 8.385)" /><rect width=".36" height=".13" x="0" y="-.56" ry=".04" transform="translate(17.014 8.385)" /><rect width="1.79" height=".08" x="0" y="-.08" ry=".03" transform="translate(23.888 8.385)" /><path d="M50.908 2.65a.224.224 0 1 1 .448-.001.224.224 0 0 1-.448 0" /><rect width=".2" height="4" x="0" y="-2" ry="0" transform="translate(21.735 15.317)" /><path stroke="currentColor" stroke-linecap="round" stroke-linejoin="round" stroke-width=".1" d="M.05 17.317h43.29M.05 16.317h43.29M.05 15.317h43.29M.05 14.317h43.29M.05 13.317h43.29" /><rect width=".62" height="4" x="0" y="-2" ry="0" transform="translate(42.772 15.317)" /><rect width=".2" height="4" x="0" y="-2" ry="0" transform="translate(42.264 15.317)" /><rect width=".2" height="4" x="0" y="-2" ry="0" transform="translate(33.325 15.317)" /><path d="M1.864 18.857H1.84a.783.783 0 0 1-.78-.788c0-.232.212-.412.448-.412.216 0 .38.188.38.412 0 .208-.172.38-.38.38a.3.3 0 0 1-.124-.024c.104.156.272.26.468.26h.016zm.54-3.144c.076.356.192.968.24 1.416a.67.67 0 0 0 .448-.652.753.753 0 0 0-.688-.764m-1.308.492c0 .448.392.988 1.112.988q.127 0 .272-.024a17 17 0 0 0-.252-1.456c-.316.032-.496.244-.496.476 0 .176.1.364.324.492q.029.03.028.06c0 .044-.04.088-.088.088-.06 0-.504-.248-.504-.748 0-.352.232-.696.64-.788a15 15 0 0 0-.184-.7c-.428.484-.852.972-.852 1.612m1.132-4.664c.112 0 .572.824.572 1.444 0 .572-.344 1.02-.72 1.456.084.272.156.552.224.828.02 0 .04-.004.056-.004.62 0 1.02.516 1.02 1.048 0 .452-.296.848-.72.98q.019.21.02.42-.001.116-.008.232c-.028.476-.352.9-.808.912l.004-.172c.372-.008.612-.368.636-.764a3.775 3.775 0 0 0-.008-.588q-.169.031-.32.032c-.956 0-1.368-.868-1.368-1.496 0-.708.524-1.224.992-1.764-.116-.384-.208-.68-.208-1.384 0-.756.576-1.18.636-1.18m-.44 1.648c0 .22.048.46.14.76.328-.4.588-.808.588-1.304 0-.16-.024-.328-.084-.508a1.13 1.13 0 0 0-.644 1.052M4.413 15.153l-.004.264v.044q-.001.132.016.264c.18-.152.372-.32.372-.556 0-.132-.056-.268-.172-.268-.124 0-.208.12-.212.252m-.168.716-.048-2.38c.032-.02.072-.032.108-.032s.076.012.108.032l-.028 1.38a.58.58 0 0 1 .364-.136c.208 0 .356.192.356.408 0 .32-.344.468-.588.676-.06.052-.096.152-.18.152-.052 0-.092-.044-.092-.1M5.333 13.653l-.004.264v.044q-.001.132.016.264c.18-.152.372-.32.372-.556 0-.132-.056-.268-.172-.268-.124 0-.208.12-.212.252m-.168.716-.048-2.38c.032-.02.072-.032.108-.032s.076.012.108.032l-.028 1.38a.58.58 0 0 1 .364-.136c.208 0 .356.192.356.408 0 .32-.344.468-.588.676-.06.052-.096.152-.18.152-.052 0-.092-.044-.092-.1M6.253 15.653l-.004.264v.044q-.001.132.016.264c.18-.152.372-.32.372-.556 0-.132-.056-.268-.172-.268-.124 0-.208.12-.212.252m-.168.716-.048-2.38c.032-.02.072-.032.108-.032s.076.012.108.032l-.028 1.38a.58.58 0 0 1 .364-.136c.208 0 .356.192.356.408 0 .32-.344.468-.588.676-.06.052-.096.152-.18.152-.052 0-.092-.044-.092-.1" /><rect width="4.51" height=".08" x="0" y="-.08" ry=".03" transform="translate(24.806 20.133)" /><text font-size="1.85" text-anchor="start" transform="translate(9.445 11.132)">
<tspan>La</tspan>
</text><path d="m12.064 10.214-.006.18v.033q0 .096.015.192c.126-.114.261-.243.261-.414 0-.096-.039-.19-.123-.19-.093 0-.144.097-.147.199m-.003-1.233-.027 1.01a.4.4 0 0 1 .285-.12c.15 0 .246.154.246.316 0 .23-.24.35-.41.507-.055.05-.079.144-.157.144-.048 0-.084-.045-.084-.096L11.87 8.98q.046-.025.096-.024c.05 0 .066.006.096.024M9.445 15c0-.363.464-.727.868-.727.252 0 .436.14.436.36 0 .348-.44.728-.88.728-.268 0-.424-.156-.424-.36" /><text font-size="2.51" text-anchor="start" transform="translate(8.174 20.133)">
<tspan>gloi</tspan>
</text><path d="M11.2 14.817a.224.224 0 1 1 .446 0 .224.224 0 0 1-.447 0" /><rect width=".13" height="2.98" x="-.07" y="-3.67" ry=".04" transform="translate(10.682 15.317)" /><path stroke="currentColor" stroke-linecap="round" stroke-linejoin="round" stroke-width=".08" d="M24.436 13.698c1.132-1.172 3.469-.988 4.447.35h0c-.988-1.214-3.325-1.398-4.447-.35" /><text font-size="1.85" text-anchor="start" transform="translate(14.627 11.132)">
<tspan>Fa</tspan>
</text><text font-size="1.85" text-anchor="start" transform="translate(17.06 11.132)">
<tspan>m</tspan>
</text><path d="M14.627 15c0-.363.464-.727.868-.727.252 0 .436.14.436.36 0 .348-.44.728-.88.728-.268 0-.424-.156-.424-.36" /><text font-size="2.51" text-anchor="start" transform="translate(14.272 20.133)">
<tspan>re</tspan>
</text><rect width=".13" height="2.98" x="-.07" y="-3.67" ry=".04" transform="translate(15.864 15.317)" /><path d="M18.93 15c0-.363.465-.727.869-.727.252 0 .436.14.436.36 0 .348-.44.728-.88.728-.268 0-.424-.156-.424-.36" /><text font-size="2.51" text-anchor="start" transform="translate(18.29 20.133)">
<tspan>du</tspan>
</text><rect width=".13" height="3.06" x="-.07" y="-3.75" ry=".04" transform="translate(20.168 15.317)" /><path d="M20.235 11.609v1.5h-.064v-1.5zm.492 2.916c0-.04.168-.348.168-.784 0-.412-.376-.832-.66-1.132v-1c0 .788.828 1.344.828 2.132 0 .284-.06.564-.164.828a.1.1 0 0 1-.08.048.09.09 0 0 1-.092-.092" /><rect width=".66" height=".13" x="0" y="-.56" ry=".04" transform="translate(12.816 20.133)" /><path d="M22.832 15c0-.363.464-.727.868-.727.252 0 .436.14.436.36 0 .348-.44.728-.88.728-.268 0-.424-.156-.424-.36" /><text font-size="2.51" text-anchor="start" transform="translate(22.244 20.133)">
<tspan>Pè</tspan>
</text><path d="M24.586 14.817a.224.224 0 1 1 .447 0 .224.224 0 0 1-.447 0" /><rect width=".13" height="2.98" x="-.07" y="-3.67" ry=".04" transform="translate(24.069 15.317)" /><text font-size="1.85" text-anchor="start" transform="translate(28.013 11.132)">
<tspan>Sol</tspan>
</text><text font-size="1.31" text-anchor="start" transform="translate(30.55 10.291)">
<tspan>7</tspan>
</text><path d="M28.013 15.5c0-.363.464-.727.868-.727.252 0 .436.14.436.36 0 .348-.44.728-.88.728-.268 0-.424-.156-.424-.36M29.768 14.817a.224.224 0 1 1 .447 0 .224.224 0 0 1-.448 0" /><rect width=".13" height="3.15" x="-.07" y="-3.33" ry=".04" transform="translate(29.25 15.317)" /><path d="M26.951 13.817c.032-.016.068-.028.1-.028s.064.012.096.028l-.008.732.424-.08h.012c.04 0 .072.028.072.068l.028 2.28c-.032.016-.068.028-.1.028s-.064-.012-.096-.028l.008-.732-.424.08h-.012c-.04 0-.072-.028-.072-.068zm.552 1.052-.368.068-.012.828.368-.068z" /><text font-size="1.85" text-anchor="start" transform="translate(35.421 11.132)">
<tspan>Do</tspan>
</text><text font-size="1.85" text-anchor="start" transform="translate(38.285 11.132)">
<tspan>m</tspan>
</text><path d="M35.709 15.24c.16 0 .816-.44.924-.571a.2.2 0 0 0 .044-.112.166.166 0 0 0-.168-.164c-.16 0-.816.44-.924.572a.2.2 0 0 0-.04.112c0 .088.068.164.164.164m-.288-.155c0-.284.184-.812 1.032-.812.164 0 .344.04.344.276 0 .284-.184.812-1.032.812-.164 0-.344-.04-.344-.276" /><text font-size="2.51" text-anchor="start" transform="translate(34.834 20.133)">
<tspan>re.</tspan>
</text><path d="M37.248 14.817a.224.224 0 1 1 .448 0 .224.224 0 0 1-.448 0" /><rect width=".13" height="2.91" x="-.07" y="-3.67" ry=".04" transform="translate(36.731 15.317)" /><rect width=".2" height="4" x="0" y="-2" ry="0" transform="translate(25.032 25.447)" /><path stroke="currentColor" stroke-linecap="round" stroke-linejoin="round" stroke-width=".1" d="M.05 27.447h55.08M.05 26.447h55.08M.05 25.447h55.08M.05 24.447h55.08M.05 23.447h55.08" /><rect width=".62" height="4" x="0" y="-2" ry="0" transform="translate(54.559 25.447)" /><rect width=".2" height="4" x="0" y="-2" ry="0" transform="translate(54.051 25.447)" /><rect width=".2" height="4" x="0" y="-2" ry="0" transform="translate(42.284 25.447)" /><rect width=".2" height="4" x="0" y="-2" ry="0" transform="translate(41.777 25.447)" /><path stroke="currentColor" stroke-linecap="round" stroke-linejoin="round" stroke-width=".08" d="M19.895 23.249v.396l-2.554.188v-.396z" /><path d="M1.864 28.987H1.84a.783.783 0 0 1-.78-.788c0-.232.212-.412.448-.412.216 0 .38.188.38.412 0 .208-.172.38-.38.38a.3.3 0 0 1-.124-.024c.104.156.272.26.468.26h.016zm.54-3.144c.076.356.192.968.24 1.416a.67.67 0 0 0 .448-.652.753.753 0 0 0-.688-.764m-1.308.492c0 .448.392.988 1.112.988q.127 0 .272-.024a17 17 0 0 0-.252-1.456c-.316.032-.496.244-.496.476 0 .176.1.364.324.492q.029.03.028.06c0 .044-.04.088-.088.088-.06 0-.504-.248-.504-.748 0-.352.232-.696.64-.788a15 15 0 0 0-.184-.7c-.428.484-.852.972-.852 1.612m1.132-4.664c.112 0 .572.824.572 1.444 0 .572-.344 1.02-.72 1.456.084.272.156.552.224.828q.031-.002.056-.004c.62 0 1.02.516 1.02 1.048 0 .452-.296.848-.72.98q.019.21.02.42-.001.116-.008.232c-.028.476-.352.9-.808.912l.004-.172c.372-.008.612-.368.636-.764q.007-.11.008-.22.001-.184-.016-.368-.169.031-.32.032c-.956 0-1.368-.868-1.368-1.496 0-.708.524-1.224.992-1.764-.116-.384-.208-.68-.208-1.384 0-.756.576-1.18.636-1.18m-.44 1.648c0 .22.048.46.14.76.328-.4.588-.808.588-1.304 0-.16-.024-.328-.084-.508a1.13 1.13 0 0 0-.644 1.052M4.413 25.283l-.004.264v.044q-.001.132.016.264c.18-.152.372-.32.372-.556 0-.132-.056-.268-.172-.268-.124 0-.208.12-.212.252m-.168.716-.048-2.38c.032-.02.072-.032.108-.032s.076.012.108.032l-.028 1.38a.58.58 0 0 1 .364-.136c.208 0 .356.192.356.408 0 .32-.344.468-.588.676-.06.052-.096.152-.18.152-.052 0-.092-.044-.092-.1M5.333 23.783l-.004.264v.044q-.001.132.016.264c.18-.152.372-.32.372-.556 0-.132-.056-.268-.172-.268-.124 0-.208.12-.212.252m-.168.716-.048-2.38c.032-.02.072-.032.108-.032s.076.012.108.032l-.028 1.38a.58.58 0 0 1 .364-.136c.208 0 .356.192.356.408 0 .32-.344.468-.588.676-.06.052-.096.152-.18.152-.052 0-.092-.044-.092-.1M6.253 25.783l-.004.264v.044q-.001.132.016.264c.18-.152.372-.32.372-.556 0-.132-.056-.268-.172-.268-.124 0-.208.12-.212.252m-.168.716-.048-2.38c.032-.02.072-.032.108-.032s.076.012.108.032l-.028 1.38a.58.58 0 0 1 .364-.136c.208 0 .356.192.356.408 0 .32-.344.468-.588.676-.06.052-.096.152-.18.152-.052 0-.092-.044-.092-.1" /><text font-size="1.85" text-anchor="start" transform="translate(9.445 21.929)">
<tspan>Do</tspan>
</text><text font-size="1.85" text-anchor="start" transform="translate(12.31 21.929)">
<tspan>m</tspan>
</text><path d="M11.825 27.087c0 .044-.036.08-.08.08s-.08-.036-.08-.08v-1.28c0-.044.036-.08.08-.08s.08.036.08.08zm-2.668 0c0 .044-.036.08-.08.08s-.08-.036-.08-.08v-1.28c0-.044.036-.08.08-.08s.08.036.08.08zm1.256-1.184c.012 0 .836.008.968.452v-.548c0-.044.036-.08.08-.08s.08.036.08.08v1.28c0 .044-.036.08-.08.08s-.08-.036-.08-.08v-.548c-.068.224-.424.452-.968.452-.012 0-.836-.008-.968-.452v.548c0 .044-.036.08-.08.08s-.08-.036-.08-.08v-1.28c0-.044.036-.08.08-.08s.08.036.08.08v.548c.068-.224.424-.452.968-.452m.408.648c0-.408-.36-.556-.536-.556-.092 0-.28.04-.28.356a.54.54 0 0 0 .532.544c.088 0 .284-.032.284-.344M16.129 27.13c0-.363.464-.727.868-.727.252 0 .436.14.436.36 0 .348-.44.728-.88.728-.268 0-.424-.156-.424-.36" /><rect width=".13" height="3.13" x="-.07" y="-1.82" ry=".04" transform="translate(17.366 25.447)" /><path d="M18.633 26.63c0-.363.464-.727.868-.727.252 0 .436.14.436.36 0 .348-.44.728-.88.728-.268 0-.424-.156-.424-.36" /><rect width=".13" height="2.81" x="-.07" y="-2" ry=".04" transform="translate(19.87 25.447)" /><text font-size="1.85" text-anchor="start" transform="translate(21.137 21.929)">
<tspan>Fa</tspan>
</text><text font-size="1.85" text-anchor="start" transform="translate(23.57 21.929)">
<tspan>m</tspan>
</text><path d="M21.137 26.13c0-.363.464-.727.868-.727.252 0 .436.14.436.36 0 .348-.44.728-.88.728-.268 0-.424-.156-.424-.36" /><rect width=".13" height="3.31" x="-.07" y="-3" ry=".04" transform="translate(22.374 25.447)" /><text font-size="1.85" text-anchor="start" transform="translate(26.18 21.929)">
<tspan>Fa</tspan>
</text><text font-size="1.85" text-anchor="start" transform="translate(28.613 21.929)">
<tspan>m</tspan>
</text><path d="M28.56 26.587c0 .044-.036.08-.08.08s-.08-.036-.08-.08v-1.28c0-.044.036-.08.08-.08s.08.036.08.08zm-2.668 0c0 .044-.036.08-.08.08s-.08-.036-.08-.08v-1.28c0-.044.036-.08.08-.08s.08.036.08.08zm1.256-1.184c.012 0 .836.008.968.452v-.548c0-.044.036-.08.08-.08s.08.036.08.08v1.28c0 .044-.036.08-.08.08s-.08-.036-.08-.08v-.548c-.068.224-.424.452-.968.452-.012 0-.836-.008-.968-.452v.548c0 .044-.036.08-.08.08s-.08-.036-.08-.08v-1.28c0-.044.036-.08.08-.08s.08.036.08.08v.548c.068-.224.424-.452.968-.452m.408.648c0-.408-.36-.556-.536-.556-.092 0-.28.04-.28.356a.54.54 0 0 0 .532.544c.088 0 .284-.032.284-.344M32.863 26.63c0-.363.464-.727.868-.727.252 0 .436.14.436.36 0 .348-.44.728-.88.728-.268 0-.424-.156-.424-.36" /><rect width=".13" height="2.81" x="-.07" y="-2" ry=".04" transform="translate(34.1 25.447)" /><path d="M35.368 27.13c0-.363.464-.727.868-.727.252 0 .436.14.436.36 0 .348-.44.728-.88.728-.268 0-.424-.156-.424-.36" /><rect width=".13" height="3.13" x="-.07" y="-1.82" ry=".04" transform="translate(36.605 25.447)" /><text font-size="1.85" text-anchor="start" transform="translate(37.872 21.929)">
<tspan>Do</tspan>
</text><text font-size="1.85" text-anchor="start" transform="translate(40.736 21.929)">
<tspan>m</tspan>
</text><path d="M37.872 26.63c0-.363.464-.727.868-.727.252 0 .436.14.436.36 0 .348-.44.728-.88.728-.268 0-.424-.156-.424-.36" /><rect width=".13" height="3.31" x="-.07" y="-2.5" ry=".04" transform="translate(39.109 25.447)" /><text font-size="1.85" text-anchor="start" transform="translate(43.427 21.929)">
<tspan>Do</tspan>
</text><text font-size="1.85" text-anchor="start" transform="translate(46.291 21.929)">
<tspan>m</tspan>
</text><path d="M45.807 27.087c0 .044-.036.08-.08.08s-.08-.036-.08-.08v-1.28c0-.044.036-.08.08-.08s.08.036.08.08zm-2.668 0c0 .044-.036.08-.08.08s-.08-.036-.08-.08v-1.28c0-.044.036-.08.08-.08s.08.036.08.08zm1.256-1.184c.012 0 .836.008.968.452v-.548c0-.044.036-.08.08-.08s.08.036.08.08v1.28c0 .044-.036.08-.08.08s-.08-.036-.08-.08v-.548c-.068.224-.424.452-.968.452-.012 0-.836-.008-.968-.452v.548c0 .044-.036.08-.08.08s-.08-.036-.08-.08v-1.28c0-.044.036-.08.08-.08s.08.036.08.08v.548c.068-.224.424-.452.968-.452m.408.648c0-.408-.36-.556-.536-.556-.092 0-.28.04-.28.356a.54.54 0 0 0 .532.544c.088 0 .284-.032.284-.344" /><text color="rgba(100.0000%, 0.0000%, 0.0000%, 100.0000%)" font-size="3.3" font-weight="bold" text-anchor="start" transform="translate(41.248 29.728)">
<tspan>+</tspan>
</text><text font-size="1.85" text-anchor="start" transform="translate(50.11 21.929)">
<tspan>Fa</tspan>
</text><text font-size="1.85" text-anchor="start" transform="translate(52.544 21.929)">
<tspan>m</tspan>
</text><path d="M50.11 27.13c0-.363.465-.727.869-.727.252 0 .436.14.436.36 0 .348-.44.728-.88.728-.268 0-.424-.156-.424-.36" /><rect width=".13" height="3.31" x="-.07" y="-2" ry=".04" transform="translate(51.348 25.447)" /><path stroke="currentColor" stroke-linecap="round" stroke-linejoin="round" stroke-width=".08" d="M36.63 23.437v.396l-2.555-.188v-.396z" /></svg>