<svg xmlns="http://www.w3.org/2000/svg" width="680.31" height="139.54" viewBox="0 -4.36 107.82 22.11" fill="currentColor" font-family="Linux Libertine"><style type="text/css">tspan{white-space:pre}</style><rect width=".2" height="4" x="0" y="-2" ry="0" transform="translate(18.378 2.15)" /><rect width="1.96" height=".2" x="11.15" y="-.1" ry=".1" transform="translate(0 5.15)" /><path stroke="currentColor" stroke-linecap="round" stroke-linejoin="round" stroke-width=".1" d="M.05 4.15h107.72M.05 3.15h107.72M.05 2.15h107.72M.05 1.15h107.72M.05.15h107.72" /><rect width=".62" height="4" x="0" y="-2" ry="0" transform="translate(107.2 2.15)" /><rect width=".2" height="4" x="0" y="-2" ry="0" transform="translate(106.693 2.15)" /><rect width=".2" height="4" x="0" y="-2" ry="0" transform="translate(99.459 2.15)" /><rect width=".2" height="4" x="0" y="-2" ry="0" transform="translate(88.96 2.15)" /><rect width=".2" height="4" x="0" y="-2" ry="0" transform="translate(75.936 2.15)" /><rect width=".2" height="4" x="0" y="-2" ry="0" transform="translate(61.35 2.15)" /><rect width=".2" height="4" x="0" y="-2" ry="0" transform="translate(47.264 2.15)" /><rect width=".2" height="4" x="0" y="-2" ry="0" transform="translate(33.904 2.15)" /><path d="M64.44 2.65a.224.224 0 1 1 .446-.001.224.224 0 0 1-.447 0M11.48 5.334c0-.364.464-.728.868-.728.252 0 .436.14.436.36 0 .348-.44.728-.88.728-.268 0-.424-.156-.424-.36M1.864 5.69H1.84a.783.783 0 0 1-.78-.788c0-.232.212-.412.448-.412.216 0 .38.188.38.412 0 .208-.172.38-.38.38a.3.3 0 0 1-.124-.024c.104.156.272.26.468.26h.016zm.54-3.144c.076.356.192.968.24 1.416a.67.67 0 0 0 .448-.652.753.753 0 0 0-.688-.764m-1.308.492c0 .448.392.988 1.112.988q.127 0 .272-.024a17 17 0 0 0-.252-1.456c-.316.032-.496.244-.496.476 0 .176.1.364.324.492q.029.03.028.06c0 .044-.04.088-.088.088-.06 0-.504-.248-.504-.748 0-.352.232-.696.64-.788a15 15 0 0 0-.184-.7c-.428.484-.852.972-.852 1.612m1.132-4.664c.112 0 .572.824.572 1.444 0 .572-.344 1.02-.72 1.456.084.272.156.552.224.828q.031-.002.056-.004c.62 0 1.02.516 1.02 1.048 0 .452-.296.848-.72.98q.019.21.02.42c0 .076-.004.156-.008.232-.028.476-.352.9-.808.912l.004-.172c.372-.008.612-.368.636-.764a3.775 3.775 0 0 0-.008-.588q-.169.031-.32.032C1.22 4.198.808 3.33.808 2.702c0-.708.524-1.224.992-1.764-.116-.384-.208-.68-.208-1.384 0-.756.576-1.18.636-1.18M1.788.022c0 .22.048.46.14.76.328-.4.588-.808.588-1.304 0-.16-.024-.328-.084-.508A1.13 1.13 0 0 0 1.788.022M4.413 1.986l-.004.264v.044q-.001.132.016.264c.18-.152.372-.32.372-.556 0-.132-.056-.268-.172-.268-.124 0-.208.12-.212.252m-.168.716L4.197.322c.032-.02.072-.032.108-.032s.076.012.108.032l-.028 1.38a.58.58 0 0 1 .364-.136c.208 0 .356.192.356.408 0 .32-.344.468-.588.676-.06.052-.096.152-.18.152-.052 0-.092-.044-.092-.1M5.333.486 5.329.75v.044q-.001.132.016.264c.18-.152.372-.32.372-.556 0-.132-.056-.268-.172-.268-.124 0-.208.12-.212.252m-.168.716-.048-2.38c.032-.02.072-.032.108-.032s.076.012.108.032L5.305.202a.58.58 0 0 1 .364-.136c.208 0 .356.192.356.408 0 .32-.344.468-.588.676-.06.052-.096.152-.18.152-.052 0-.092-.044-.092-.1M6.253 2.486l-.004.264v.044q-.001.132.016.264c.18-.152.372-.32.372-.556 0-.132-.056-.268-.172-.268-.124 0-.208.12-.212.252m-.168.716L6.037.822c.032-.02.072-.032.108-.032s.076.012.108.032l-.028 1.38a.58.58 0 0 1 .364-.136c.208 0 .356.192.356.408 0 .32-.344.468-.588.676-.06.052-.096.152-.18.152-.052 0-.092-.044-.092-.1M8.829 1.114c-.204 0-.212.172-.212.4v.144c0 .228.008.4.212.4.228 0 .244-.204.244-.472s-.016-.472-.244-.472m-.212-.028a.4.4 0 0 1 .212-.064c.404 0 .68.184.68.564s-.276.564-.68.564c-.448 0-.68-.496-.68-1 0-.512.288-1 .76-1 .28 0 .544.156.544.412 0 .144-.116.264-.26.264s-.264-.12-.264-.264c0-.096.16-.1.16-.196 0-.08-.092-.124-.18-.124-.264 0-.3.26-.3.556 0 .096.008.192.008.288" /><path d="M9.139 3.002c.1-.12.176-.256.176-.412 0-.216-.22-.348-.456-.348a.284.284 0 0 0-.292.284c0 .084.04.168.124.216zm.124.072c.216.124.32.316.32.5 0 .292-.264.576-.756.576-.376 0-.732-.216-.732-.56 0-.2.144-.348.288-.492a.52.52 0 0 1-.22-.412c0-.272.24-.536.696-.536.32 0 .628.156.628.44 0 .184-.1.344-.224.484m-.756.1c-.124.12-.236.244-.236.416 0 .276.264.468.556.468a.334.334 0 0 0 .344-.332.27.27 0 0 0-.14-.248z" /><text font-size="2.51" text-anchor="start" transform="translate(11.18 8.385)">
<tspan>Jé</tspan>
</text><rect width=".13" height="2.82" x="-.07" y="0" ry=".04" transform="translate(12.717 2.15)" /><rect width="4.37" height=".08" x="0" y="-.08" ry=".03" transform="translate(92.198 8.385)" /><path d="M14.568 4.834c0-.364.464-.728.868-.728.252 0 .436.14.436.36 0 .348-.44.728-.88.728-.268 0-.424-.156-.424-.36" /><text font-size="2.51" text-anchor="start" transform="translate(13.585 8.385)">
<tspan>sus</tspan>
</text><rect width=".13" height="2.5" x="-.07" y="-.18" ry=".04" transform="translate(15.805 2.15)" /><path stroke="currentColor" stroke-linecap="round" stroke-linejoin="round" stroke-width=".08" d="M91.827.526c1.109-1.165 3.356-.983 4.308.35h0c-.963-1.21-3.21-1.392-4.308-.35" /><text font-size="1.85" text-anchor="start" transform="translate(19.884 -2.21)">
<tspan>Do</tspan>
</text><text font-size="1.85" text-anchor="start" transform="translate(22.748 -2.21)">
<tspan>m</tspan>
</text><path d="M19.884 4.334c0-.364.464-.728.868-.728.252 0 .436.14.436.36 0 .348-.44.728-.88.728-.268 0-.424-.156-.424-.36" /><text font-size="2.51" text-anchor="start" transform="translate(17.355 8.385)">
<tspan>Christ</tspan>
</text><path d="M21.638 3.65a.224.224 0 1 1 .447-.001.224.224 0 0 1-.447 0" /><rect width=".13" height="3.31" x="-.07" y="-1.5" ry=".04" transform="translate(21.12 2.15)" /><path stroke="currentColor" stroke-linecap="round" stroke-linejoin="round" stroke-width=".08" d="M74.571-.86v.396L71.9.159v-.396z" /><path d="M23.947 4.334c0-.364.464-.728.868-.728.252 0 .436.14.436.36 0 .348-.44.728-.88.728-.268 0-.424-.156-.424-.36" /><rect width=".13" height="2.63" x="-.07" y="-.82" ry=".04" transform="translate(25.184 2.15)" /><rect width=".66" height=".13" x="0" y="-.56" ry=".04" transform="translate(79.97 8.385)" /><path d="M26.319 4.334c0-.364.464-.728.868-.728.252 0 .436.14.436.36 0 .348-.44.728-.88.728-.268 0-.424-.156-.424-.36" /><text font-size="2.51" text-anchor="start" transform="translate(25.534 8.385)">
<tspan>est</tspan>
</text><rect width=".13" height="2.77" x="-.07" y="-.96" ry=".04" transform="translate(27.556 2.15)" /><path d="M30.166 3.834c0-.364.464-.728.868-.728.252 0 .436.14.436.36 0 .348-.44.728-.88.728-.268 0-.424-.156-.424-.36" /><text font-size="2.51" text-anchor="start" transform="translate(29.309 8.385)">
<tspan>Sei</tspan>
</text><rect width=".13" height="2.5" x="-.07" y="-1.18" ry=".04" transform="translate(31.403 2.15)" /><text font-size="1.85" text-anchor="start" transform="translate(35.374 -2.21)">
<tspan>Si</tspan>
</text><path d="m37.562-3.128-.006.18v.033q0 .096.015.192c.126-.114.261-.243.261-.414 0-.096-.039-.19-.123-.19-.093 0-.144.097-.147.199m-.003-1.233-.027 1.01a.4.4 0 0 1 .285-.12c.15 0 .246.154.246.316 0 .23-.24.35-.41.507-.055.05-.079.144-.157.144-.048 0-.084-.045-.084-.096l-.045-1.761q.046-.025.096-.024c.05 0 .066.006.096.024" /><text font-size="1.31" text-anchor="start" transform="translate(38.163 -3.05)">
<tspan>4</tspan>
</text><path d="M35.374 3.834c0-.364.464-.728.868-.728.252 0 .436.14.436.36 0 .348-.44.728-.88.728-.268 0-.424-.156-.424-.36" /><text font-size="2.51" text-anchor="start" transform="translate(32.828 8.385)">
<tspan>gneur,</tspan>
</text><path d="M37.129 3.65a.224.224 0 1 1 .447-.001.224.224 0 0 1-.447 0" /><rect width=".13" height="3.31" x="-.07" y="-2" ry=".04" transform="translate(36.611 2.15)" /><text font-size="1.85" text-anchor="start" transform="translate(39.873 -2.21)">
<tspan>Si</tspan>
</text><path d="m42.061-3.128-.006.18v.033q0 .096.015.192c.126-.114.261-.243.261-.414 0-.096-.039-.19-.123-.19-.092 0-.143.097-.146.199m-.003-1.233-.027 1.01a.4.4 0 0 1 .285-.12c.15 0 .246.154.246.316 0 .23-.24.35-.41.507-.055.05-.079.144-.157.144-.048 0-.084-.045-.084-.096l-.045-1.761q.046-.025.096-.024c.05 0 .066.006.096.024M39.874 3.834c0-.364.463-.728.867-.728.253 0 .437.14.437.36 0 .348-.44.728-.88.728-.269 0-.425-.156-.425-.36" /><rect width=".13" height="3.13" x="-.07" y="-1.81" ry=".04" transform="translate(41.11 2.15)" /><path stroke="currentColor" stroke-linecap="round" stroke-linejoin="round" stroke-width=".08" d="M64.322 1.925c.634-.69 2.244-.69 2.879 0h0c-.635-.565-2.245-.565-2.879 0" /><path d="M42.245 3.834c0-.364.464-.728.868-.728.252 0 .436.14.436.36 0 .348-.44.728-.88.728-.268 0-.424-.156-.424-.36" /><text font-size="2.51" text-anchor="start" transform="translate(42.322 8.385)">
<tspan>à</tspan>
</text><rect width=".13" height="3.22" x="-.07" y="-1.91" ry=".04" transform="translate(43.482 2.15)" /><path stroke="currentColor" stroke-linecap="round" stroke-linejoin="round" stroke-width=".08" d="M59.237-.237V.16l-5.622-.623V-.86z" /><path d="M44.619 3.334c0-.364.464-.728.868-.728.252 0 .436.14.436.36 0 .348-.44.728-.88.728-.268 0-.424-.156-.424-.36" /><text font-size="2.51" text-anchor="start" transform="translate(44.372 8.385)">
<tspan>la</tspan>
</text><rect width=".13" height="2.81" x="-.07" y="-2" ry=".04" transform="translate(45.856 2.15)" /><text font-size="1.85" text-anchor="start" transform="translate(48.34 -2.21)">
<tspan>Fa</tspan>
</text><text font-size="1.85" text-anchor="start" transform="translate(50.773 -2.21)">
<tspan>m</tspan>
</text><path d="M48.34 2.834c0-.364.464-.728.868-.728.252 0 .436.14.436.36 0 .348-.44.728-.88.728-.268 0-.424-.156-.424-.36" /><text font-size="2.51" text-anchor="start" transform="translate(47.07 8.385)">
<tspan>gloi</tspan>
</text><path d="M50.094 2.65a.224.224 0 1 1 .447-.001.224.224 0 0 1-.447 0" /><rect width=".13" height="3.31" x="-.07" y="-3" ry=".04" transform="translate(49.577 2.15)" /><path d="M52.404 2.834c0-.364.463-.728.867-.728.253 0 .437.14.437.36 0 .348-.44.728-.88.728-.269 0-.425-.156-.425-.36" /><rect width=".13" height="3.12" x="-.07" y="-2.8" ry=".04" transform="translate(53.64 2.15)" /><path stroke="currentColor" stroke-linecap="round" stroke-linejoin="round" stroke-width=".08" d="M49.977 1.925c.634-.69 2.244-.69 2.879 0h0c-.635-.565-2.245-.565-2.879 0" /><path d="M54.775 3.334c0-.364.464-.728.868-.728.252 0 .436.14.436.36 0 .348-.44.728-.88.728-.268 0-.424-.156-.424-.36" /><text font-size="2.51" text-anchor="start" transform="translate(54.42 8.385)">
<tspan>re</tspan>
</text><rect width=".13" height="3.36" x="-.07" y="-2.55" ry=".04" transform="translate(56.012 2.15)" /><path stroke="currentColor" stroke-linecap="round" stroke-linejoin="round" stroke-width=".08" d="M45.88-.048v.395l-4.795.189V.14z" /><path d="M57.975 3.834c0-.364.464-.728.868-.728.252 0 .436.14.436.36 0 .348-.44.728-.88.728-.268 0-.424-.156-.424-.36" /><text font-size="2.51" text-anchor="start" transform="translate(57.334 8.385)">
<tspan>du</tspan>
</text><rect width=".13" height="3.51" x="-.07" y="-2.2" ry=".04" transform="translate(59.212 2.15)" /><rect width=".66" height=".13" x="0" y="-.56" ry=".04" transform="translate(52.338 8.385)" /><text font-size="1.85" text-anchor="start" transform="translate(62.685 -2.21)">
<tspan>Do</tspan>
</text><text font-size="1.85" text-anchor="start" transform="translate(65.55 -2.21)">
<tspan>m</tspan>
</text><path d="M62.685 3.334c0-.364.464-.728.868-.728.252 0 .436.14.436.36 0 .348-.44.728-.88.728-.268 0-.424-.156-.424-.36" /><text font-size="2.51" text-anchor="start" transform="translate(60.821 8.385)">
<tspan>Père,</tspan>
</text><rect width=".13" height="3.31" x="-.07" y="-2.5" ry=".04" transform="translate(63.922 2.15)" /><path d="M66.748 3.334c0-.364.464-.728.868-.728.252 0 .436.14.436.36 0 .348-.44.728-.88.728-.268 0-.424-.156-.424-.36" /><rect width=".13" height="3.31" x="-.07" y="-2.5" ry=".04" transform="translate(67.985 2.15)" /><path d="M68.053-.308v1.5h-.064v-1.5zm.492 2.916c0-.04.168-.348.168-.784 0-.412-.376-.832-.66-1.132v-1c0 .788.828 1.344.828 2.132 0 .284-.06.564-.164.828a.1.1 0 0 1-.08.048.09.09 0 0 1-.092-.092M69.421-.462c.148 0 .268.116.268.264v.08c0 .428-.408.64-.456.64a.053.053 0 0 1-.052-.052c0-.072.264-.1.32-.48h-.108a.213.213 0 0 1-.212-.212.24.24 0 0 1 .24-.24M70.688 3.334c0-.364.464-.728.868-.728.252 0 .436.14.436.36 0 .348-.44.728-.88.728-.268 0-.424-.156-.424-.36" /><text font-size="2.51" text-anchor="start" transform="translate(70.765 8.385)">
<tspan>à</tspan>
</text><rect width=".13" height="3.02" x="-.07" y="-2.2" ry=".04" transform="translate(71.925 2.15)" /><path stroke="currentColor" stroke-linecap="round" stroke-linejoin="round" stroke-width=".08" d="M37.011 2.925c.697-.73 2.618-.73 3.315 0h0c-.697-.605-2.618-.605-3.315 0" /><path d="M73.31 2.334c0-.364.463-.728.867-.728.252 0 .436.14.436.36 0 .348-.44.728-.88.728-.268 0-.424-.156-.424-.36" /><text font-size="2.51" text-anchor="start" transform="translate(73.063 8.385)">
<tspan>la</tspan>
</text><rect width=".13" height="2.61" x="-.07" y="-2.8" ry=".04" transform="translate(74.546 2.15)" /><path stroke="currentColor" stroke-linecap="round" stroke-linejoin="round" stroke-width=".08" d="M31.428.763v.396l-6.269.377V1.14z" /><rect width=".36" height=".13" x="0" y="-.56" ry=".04" transform="translate(32.398 8.385)" /><text font-size="1.85" text-anchor="start" transform="translate(77.03 -2.21)">
<tspan>La</tspan>
</text><path d="m79.65-3.128-.006.18v.033q0 .096.015.192c.126-.114.26-.243.26-.414 0-.096-.038-.19-.122-.19-.093 0-.144.097-.147.199m-.003-1.233-.027 1.01a.4.4 0 0 1 .285-.12c.15 0 .246.154.246.316 0 .23-.24.35-.411.507-.054.05-.078.144-.156.144-.048 0-.084-.045-.084-.096l-.045-1.761q.046-.025.096-.024c.05 0 .066.006.096.024M77.03 1.834c0-.364.465-.728.869-.728.252 0 .436.14.436.36 0 .348-.44.728-.88.728-.268 0-.424-.156-.424-.36" /><text font-size="2.51" text-anchor="start" transform="translate(75.76 8.385)">
<tspan>gloi</tspan>
</text><path d="M78.785 1.65a.224.224 0 1 1 .447-.001.224.224 0 0 1-.447 0" /><rect width=".13" height="2.98" x="-.07" y="-3.67" ry=".04" transform="translate(78.267 2.15)" /><text font-size="1.85" text-anchor="start" transform="translate(81.35 -2.21)">
<tspan>Fa</tspan>
</text><text font-size="1.85" text-anchor="start" transform="translate(83.783 -2.21)">
<tspan>m</tspan>
</text><text font-size="1.85" text-anchor="start" transform="translate(85.293 -2.21)">
<tspan>/</tspan>
</text><text font-size="1.85" text-anchor="start" transform="translate(85.904 -2.21)">
<tspan>La</tspan>
</text><path d="m88.523-3.128-.006.18v.033q0 .096.015.192c.126-.114.26-.243.26-.414 0-.096-.038-.19-.122-.19-.093 0-.144.097-.147.199m-.003-1.233-.027 1.01a.4.4 0 0 1 .285-.12c.15 0 .246.154.246.316 0 .23-.24.35-.411.507-.054.05-.078.144-.156.144-.048 0-.084-.045-.084-.096l-.045-1.761q.046-.025.096-.024c.05 0 .066.006.096.024M81.35 1.834c0-.364.464-.728.868-.728.252 0 .436.14.436.36 0 .348-.44.728-.88.728-.268 0-.424-.156-.424-.36" /><text font-size="2.51" text-anchor="start" transform="translate(80.996 8.385)">
<tspan>re</tspan>
</text><rect width=".13" height="2.98" x="-.07" y="-3.67" ry=".04" transform="translate(82.587 2.15)" /><path d="M85.947 1.834c0-.364.464-.728.868-.728.252 0 .436.14.436.36 0 .348-.44.728-.88.728-.268 0-.424-.156-.424-.36" /><text font-size="2.51" text-anchor="start" transform="translate(85.306 8.385)">
<tspan>du</tspan>
</text><rect width=".13" height="3.06" x="-.07" y="-3.75" ry=".04" transform="translate(87.184 2.15)" /><path d="M87.252-1.558v1.5h-.064v-1.5zm.492 2.916c0-.04.168-.348.168-.784 0-.412-.376-.832-.66-1.132v-1c0 .788.828 1.344.828 2.132 0 .284-.06.564-.164.828a.1.1 0 0 1-.08.048.09.09 0 0 1-.092-.092" /><path stroke="currentColor" stroke-linecap="round" stroke-linejoin="round" stroke-width=".08" d="M21.52 2.925c.635-.69 2.245-.69 2.88 0h0c-.635-.565-2.245-.565-2.88 0" /><text font-size="1.85" text-anchor="start" transform="translate(90.223 -2.21)">
<tspan>Fa</tspan>
</text><text font-size="1.85" text-anchor="start" transform="translate(92.656 -2.21)">
<tspan>m</tspan>
</text><path d="M90.223 1.834c0-.364.464-.728.868-.728.252 0 .436.14.436.36 0 .348-.44.728-.88.728-.268 0-.424-.156-.424-.36" /><text font-size="2.51" text-anchor="start" transform="translate(89.635 8.385)">
<tspan>Pè</tspan>
</text><path d="M91.977 1.65a.224.224 0 1 1 .448-.001.224.224 0 0 1-.448 0" /><rect width=".13" height="2.98" x="-.07" y="-3.67" ry=".04" transform="translate(91.46 2.15)" /><path stroke="currentColor" stroke-linecap="round" stroke-linejoin="round" stroke-width=".08" d="M15.83 1.763v.396l-3.138.189v-.396z" /><text font-size="1.85" text-anchor="start" transform="translate(95.266 -2.21)">
<tspan>Sol</tspan>
</text><text font-size="1.31" text-anchor="start" transform="translate(97.802 -3.05)">
<tspan>7</tspan>
</text><path d="M95.266 2.334c0-.364.464-.728.868-.728.252 0 .436.14.436.36 0 .348-.44.728-.88.728-.268 0-.424-.156-.424-.36M97.02 1.65a.224.224 0 1 1 .447-.001.224.224 0 0 1-.447 0" /><rect width=".13" height="3.15" x="-.07" y="-3.33" ry=".04" transform="translate(96.503 2.15)" /><path d="M94.203.65c.032-.016.068-.028.1-.028s.064.012.096.028l-.008.732.424-.08h.012c.04 0 .072.028.072.068l.028 2.28c-.032.016-.068.028-.1.028s-.064-.012-.096-.028l.008-.732-.424.08h-.012c-.04 0-.072-.028-.072-.068zm.552 1.052-.368.068-.012.828.368-.068z" /><rect width=".36" height=".13" x="0" y="-.56" ry=".04" transform="translate(16.925 8.385)" /><rect width=".36" height=".13" x="0" y="-.56" ry=".04" transform="translate(13.155 8.385)" /><text font-size="1.85" text-anchor="start" transform="translate(101.4 -2.21)">
<tspan>Do</tspan>
</text><text font-size="1.85" text-anchor="start" transform="translate(104.265 -2.21)">
<tspan>m</tspan>
</text><path d="M101.688 2.074c.16 0 .816-.44.924-.572a.2.2 0 0 0 .045-.112.166.166 0 0 0-.169-.164c-.16 0-.816.44-.924.572a.2.2 0 0 0-.04.112c0 .088.068.164.164.164m-.288-.156c0-.284.184-.812 1.032-.812.164 0 .344.04.344.276 0 .284-.184.812-1.032.812-.164 0-.344-.04-.344-.276" /><text font-size="2.51" text-anchor="start" transform="translate(100.813 8.385)">
<tspan>re.</tspan>
</text><path d="M103.228 1.65a.224.224 0 1 1 .447-.001.224.224 0 0 1-.447 0" /><rect width=".13" height="2.91" x="-.07" y="-3.67" ry=".04" transform="translate(102.71 2.15)" /><rect width=".2" height="4" x="0" y="-2" ry="0" transform="translate(25.032 14.204)" /><path stroke="currentColor" stroke-linecap="round" stroke-linejoin="round" stroke-width=".1" d="M.05 16.204h55.08M.05 15.204h55.08M.05 14.204h55.08M.05 13.204h55.08M.05 12.204h55.08" /><rect width=".62" height="4" x="0" y="-2" ry="0" transform="translate(54.559 14.204)" /><rect width=".2" height="4" x="0" y="-2" ry="0" transform="translate(54.051 14.204)" /><rect width=".2" height="4" x="0" y="-2" ry="0" transform="translate(42.284 14.204)" /><rect width=".2" height="4" x="0" y="-2" ry="0" transform="translate(41.777 14.204)" /><path stroke="currentColor" stroke-linecap="round" stroke-linejoin="round" stroke-width=".08" d="M19.895 12.006v.396l-2.554.188v-.396z" /><path d="M1.864 17.744H1.84a.783.783 0 0 1-.78-.788c0-.232.212-.412.448-.412.216 0 .38.188.38.412 0 .208-.172.38-.38.38a.3.3 0 0 1-.124-.024c.104.156.272.26.468.26h.016zm.54-3.144c.076.356.192.968.24 1.416a.67.67 0 0 0 .448-.652.753.753 0 0 0-.688-.764m-1.308.492c0 .448.392.988 1.112.988q.127 0 .272-.024a17 17 0 0 0-.252-1.456c-.316.032-.496.244-.496.476 0 .176.1.364.324.492q.029.03.028.06c0 .044-.04.088-.088.088-.06 0-.504-.248-.504-.748 0-.352.232-.696.64-.788a15 15 0 0 0-.184-.7c-.428.484-.852.972-.852 1.612m1.132-4.664c.112 0 .572.824.572 1.444 0 .572-.344 1.02-.72 1.456.084.272.156.552.224.828.02 0 .04-.004.056-.004.62 0 1.02.516 1.02 1.048 0 .452-.296.848-.72.98q.019.21.02.42-.001.116-.008.232c-.028.476-.352.9-.808.912l.004-.172c.372-.008.612-.368.636-.764q.007-.11.008-.22.001-.184-.016-.368-.169.031-.32.032c-.956 0-1.368-.868-1.368-1.496 0-.708.524-1.224.992-1.764-.116-.384-.208-.68-.208-1.384 0-.756.576-1.18.636-1.18m-.44 1.648c0 .22.048.46.14.76.328-.4.588-.808.588-1.304 0-.16-.024-.328-.084-.508a1.13 1.13 0 0 0-.644 1.052M4.413 14.04l-.004.264v.044q-.001.132.016.264c.18-.152.372-.32.372-.556 0-.132-.056-.268-.172-.268-.124 0-.208.12-.212.252m-.168.716-.048-2.38c.032-.02.072-.032.108-.032s.076.012.108.032l-.028 1.38a.58.58 0 0 1 .364-.136c.208 0 .356.192.356.408 0 .32-.344.468-.588.676-.06.052-.096.152-.18.152-.052 0-.092-.044-.092-.1M5.333 12.54l-.004.264v.044q-.001.132.016.264c.18-.152.372-.32.372-.556 0-.132-.056-.268-.172-.268-.124 0-.208.12-.212.252m-.168.716-.048-2.38c.032-.02.072-.032.108-.032s.076.012.108.032l-.028 1.38a.58.58 0 0 1 .364-.136c.208 0 .356.192.356.408 0 .32-.344.468-.588.676-.06.052-.096.152-.18.152-.052 0-.092-.044-.092-.1M6.253 14.54l-.004.264v.044q-.001.132.016.264c.18-.152.372-.32.372-.556 0-.132-.056-.268-.172-.268-.124 0-.208.12-.212.252m-.168.716-.048-2.38c.032-.02.072-.032.108-.032s.076.012.108.032l-.028 1.38a.58.58 0 0 1 .364-.136c.208 0 .356.192.356.408 0 .32-.344.468-.588.676-.06.052-.096.152-.18.152-.052 0-.092-.044-.092-.1" /><text font-size="1.85" text-anchor="start" transform="translate(9.445 10.181)">
<tspan>Do</tspan>
</text><text font-size="1.85" text-anchor="start" transform="translate(12.31 10.181)">
<tspan>m</tspan>
</text><path d="M11.825 15.844c0 .044-.036.08-.08.08s-.08-.036-.08-.08v-1.28c0-.044.036-.08.08-.08s.08.036.08.08zm-2.668 0c0 .044-.036.08-.08.08s-.08-.036-.08-.08v-1.28c0-.044.036-.08.08-.08s.08.036.08.08zm1.256-1.184c.012 0 .836.008.968.452v-.548c0-.044.036-.08.08-.08s.08.036.08.08v1.28c0 .044-.036.08-.08.08s-.08-.036-.08-.08v-.548c-.068.224-.424.452-.968.452-.012 0-.836-.008-.968-.452v.548c0 .044-.036.08-.08.08s-.08-.036-.08-.08v-1.28c0-.044.036-.08.08-.08s.08.036.08.08v.548c.068-.224.424-.452.968-.452m.408.648c0-.408-.36-.556-.536-.556-.092 0-.28.04-.28.356a.54.54 0 0 0 .532.544c.088 0 .284-.032.284-.344M16.129 15.888c0-.364.464-.728.868-.728.252 0 .436.14.436.36 0 .348-.44.728-.88.728-.268 0-.424-.156-.424-.36" /><rect width=".13" height="3.13" x="-.07" y="-1.82" ry=".04" transform="translate(17.366 14.204)" /><path d="M18.633 15.388c0-.364.464-.728.868-.728.252 0 .436.14.436.36 0 .348-.44.728-.88.728-.268 0-.424-.156-.424-.36" /><rect width=".13" height="2.81" x="-.07" y="-2" ry=".04" transform="translate(19.87 14.204)" /><text font-size="1.85" text-anchor="start" transform="translate(21.137 10.181)">
<tspan>Fa</tspan>
</text><text font-size="1.85" text-anchor="start" transform="translate(23.57 10.181)">
<tspan>m</tspan>
</text><path d="M21.137 14.888c0-.364.464-.728.868-.728.252 0 .436.14.436.36 0 .348-.44.728-.88.728-.268 0-.424-.156-.424-.36" /><rect width=".13" height="3.31" x="-.07" y="-3" ry=".04" transform="translate(22.374 14.204)" /><text font-size="1.85" text-anchor="start" transform="translate(26.18 10.181)">
<tspan>Fa</tspan>
</text><text font-size="1.85" text-anchor="start" transform="translate(28.613 10.181)">
<tspan>m</tspan>
</text><path d="M28.56 15.344c0 .044-.036.08-.08.08s-.08-.036-.08-.08v-1.28c0-.044.036-.08.08-.08s.08.036.08.08zm-2.668 0c0 .044-.036.08-.08.08s-.08-.036-.08-.08v-1.28c0-.044.036-.08.08-.08s.08.036.08.08zm1.256-1.184c.012 0 .836.008.968.452v-.548c0-.044.036-.08.08-.08s.08.036.08.08v1.28c0 .044-.036.08-.08.08s-.08-.036-.08-.08v-.548c-.068.224-.424.452-.968.452-.012 0-.836-.008-.968-.452v.548c0 .044-.036.08-.08.08s-.08-.036-.08-.08v-1.28c0-.044.036-.08.08-.08s.08.036.08.08v.548c.068-.224.424-.452.968-.452m.408.648c0-.408-.36-.556-.536-.556-.092 0-.28.04-.28.356a.54.54 0 0 0 .532.544c.088 0 .284-.032.284-.344M32.863 15.388c0-.364.464-.728.868-.728.252 0 .436.14.436.36 0 .348-.44.728-.88.728-.268 0-.424-.156-.424-.36" /><rect width=".13" height="2.81" x="-.07" y="-2" ry=".04" transform="translate(34.1 14.204)" /><path d="M35.368 15.888c0-.364.464-.728.868-.728.252 0 .436.14.436.36 0 .348-.44.728-.88.728-.268 0-.424-.156-.424-.36" /><rect width=".13" height="3.13" x="-.07" y="-1.82" ry=".04" transform="translate(36.605 14.204)" /><text font-size="1.85" text-anchor="start" transform="translate(37.872 10.181)">
<tspan>Do</tspan>
</text><text font-size="1.85" text-anchor="start" transform="translate(40.736 10.181)">
<tspan>m</tspan>
</text><path d="M37.872 15.388c0-.364.464-.728.868-.728.252 0 .436.14.436.36 0 .348-.44.728-.88.728-.268 0-.424-.156-.424-.36" /><rect width=".13" height="3.31" x="-.07" y="-2.5" ry=".04" transform="translate(39.109 14.204)" /><text font-size="1.85" text-anchor="start" transform="translate(43.427 10.181)">
<tspan>Do</tspan>
</text><text font-size="1.85" text-anchor="start" transform="translate(46.291 10.181)">
<tspan>m</tspan>
</text><path d="M45.807 15.844c0 .044-.036.08-.08.08s-.08-.036-.08-.08v-1.28c0-.044.036-.08.08-.08s.08.036.08.08zm-2.668 0c0 .044-.036.08-.08.08s-.08-.036-.08-.08v-1.28c0-.044.036-.08.08-.08s.08.036.08.08zm1.256-1.184c.012 0 .836.008.968.452v-.548c0-.044.036-.08.08-.08s.08.036.08.08v1.28c0 .044-.036.08-.08.08s-.08-.036-.08-.08v-.548c-.068.224-.424.452-.968.452-.012 0-.836-.008-.968-.452v.548c0 .044-.036.08-.08.08s-.08-.036-.08-.08v-1.28c0-.044.036-.08.08-.08s.08.036.08.08v.548c.068-.224.424-.452.968-.452m.408.648c0-.408-.36-.556-.536-.556-.092 0-.28.04-.28.356a.54.54 0 0 0 .532.544c.088 0 .284-.032.284-.344" /><text color="rgba(100.0000%, 0.0000%, 0.0000%, 100.0000%)" font-size="2.2" font-weight="bold" text-anchor="start" transform="translate(43.427 11.652)">
<tspan>+</tspan>
</text><text font-size="1.85" text-anchor="start" transform="translate(50.11 10.181)">
<tspan>Fa</tspan>
</text><text font-size="1.85" text-anchor="start" transform="translate(52.544 10.181)">
<tspan>m</tspan>
</text><path d="M50.11 15.888c0-.364.465-.728.869-.728.252 0 .436.14.436.36 0 .348-.44.728-.88.728-.268 0-.424-.156-.424-.36" /><rect width=".13" height="3.31" x="-.07" y="-2" ry=".04" transform="translate(51.348 14.204)" /><path stroke="currentColor" stroke-linecap="round" stroke-linejoin="round" stroke-width=".08" d="M36.63 12.194v.396l-2.555-.188v-.396z" /></svg>