<svg xmlns="http://www.w3.org/2000/svg" width="680.31" height="123.82" viewBox="0 -0.02 107.82 19.62" fill="currentColor" font-family="Linux Libertine"><style type="text/css">tspan{white-space:pre}</style><rect width=".2" height="4" x="0" y="-2" ry="0" transform="translate(22.466 3.776)" /><path stroke="currentColor" stroke-linecap="round" stroke-linejoin="round" stroke-width=".1" d="M.05 5.776h107.72M.05 4.776h107.72M.05 3.776h107.72M.05 2.776h107.72M.05 1.776h107.72" /><rect width=".62" height="4" x="0" y="-2" ry="0" transform="translate(107.2 3.776)" /><rect width=".2" height="4" x="0" y="-2" ry="0" transform="translate(106.693 3.776)" /><rect width=".2" height="4" x="0" y="-2" ry="0" transform="translate(92.282 3.776)" /><rect width=".2" height="4" x="0" y="-2" ry="0" transform="translate(68.91 3.776)" /><rect width=".2" height="4" x="0" y="-2" ry="0" transform="translate(46.038 3.776)" /><rect width=".13" height="2.91" x="-.07" y="-2.09" ry=".04" transform="translate(61.72 3.776)" /><path stroke="currentColor" stroke-linecap="round" stroke-linejoin="round" stroke-width=".08" d="M89.249 1.39v.396l-8.811 1.188v-.396z" /><path d="M11.569 3.46c0-.364.464-.728.868-.728.252 0 .436.14.436.36 0 .348-.44.728-.88.728-.268 0-.424-.156-.424-.36M1.864 7.316H1.84a.783.783 0 0 1-.78-.788c0-.232.212-.412.448-.412.216 0 .38.188.38.412 0 .208-.172.38-.38.38a.3.3 0 0 1-.124-.024c.104.156.272.26.468.26h.016zm.54-3.144c.076.356.192.968.24 1.416a.67.67 0 0 0 .448-.652.753.753 0 0 0-.688-.764m-1.308.492c0 .448.392.988 1.112.988q.127 0 .272-.024a17 17 0 0 0-.252-1.456c-.316.032-.496.244-.496.476 0 .176.1.364.324.492q.029.03.028.06c0 .044-.04.088-.088.088-.06 0-.504-.248-.504-.748 0-.352.232-.696.64-.788a15 15 0 0 0-.184-.7c-.428.484-.852.972-.852 1.612M2.228 0C2.34 0 2.8.824 2.8 1.444c0 .572-.344 1.02-.72 1.456.084.272.156.552.224.828.02 0 .04-.004.056-.004.62 0 1.02.516 1.02 1.048 0 .452-.296.848-.72.98q.019.21.02.42c0 .076-.004.156-.008.232-.028.476-.352.9-.808.912l.004-.172c.372-.008.612-.368.636-.764q.007-.11.008-.22.001-.184-.016-.368-.169.031-.32.032c-.956 0-1.368-.868-1.368-1.496 0-.708.524-1.224.992-1.764-.116-.384-.208-.68-.208-1.384 0-.756.576-1.18.636-1.18m-.44 1.648c0 .22.048.46.14.76.328-.4.588-.808.588-1.304 0-.16-.024-.328-.084-.508a1.13 1.13 0 0 0-.644 1.052M4.413 3.612l-.004.264v.044q-.001.132.016.264c.18-.152.372-.32.372-.556 0-.132-.056-.268-.172-.268-.124 0-.208.12-.212.252m-.168.716-.048-2.38c.032-.02.072-.032.108-.032s.076.012.108.032l-.028 1.38a.58.58 0 0 1 .364-.136c.208 0 .356.192.356.408 0 .32-.344.468-.588.676-.06.052-.096.152-.18.152-.052 0-.092-.044-.092-.1M5.333 2.112l-.004.264v.044q-.001.132.016.264c.18-.152.372-.32.372-.556 0-.132-.056-.268-.172-.268-.124 0-.208.12-.212.252m-.168.716L5.117.448c.032-.02.072-.032.108-.032s.076.012.108.032l-.028 1.38a.58.58 0 0 1 .364-.136c.208 0 .356.192.356.408 0 .32-.344.468-.588.676-.06.052-.096.152-.18.152-.052 0-.092-.044-.092-.1M6.253 4.112l-.004.264v.044q-.001.132.016.264c.18-.152.372-.32.372-.556 0-.132-.056-.268-.172-.268-.124 0-.208.12-.212.252m-.168.716-.048-2.38c.032-.02.072-.032.108-.032s.076.012.108.032l-.028 1.38a.58.58 0 0 1 .364-.136c.208 0 .356.192.356.408 0 .32-.344.468-.588.676-.06.052-.096.152-.18.152-.052 0-.092-.044-.092-.1M8.829 2.74c-.204 0-.212.172-.212.4v.144c0 .228.008.4.212.4.228 0 .244-.204.244-.472s-.016-.472-.244-.472m-.212-.028a.4.4 0 0 1 .212-.064c.404 0 .68.184.68.564s-.276.564-.68.564c-.448 0-.68-.496-.68-1 0-.512.288-1 .76-1 .28 0 .544.156.544.412 0 .144-.116.264-.26.264s-.264-.12-.264-.264c0-.096.16-.1.16-.196 0-.08-.092-.124-.18-.124-.264 0-.3.26-.3.556 0 .096.008.192.008.288" /><path d="M9.139 4.628c.1-.12.176-.256.176-.412 0-.216-.22-.348-.456-.348a.284.284 0 0 0-.292.284c0 .084.04.168.124.216zm.124.072c.216.124.32.316.32.5 0 .292-.264.576-.756.576-.376 0-.732-.216-.732-.56 0-.2.144-.348.288-.492a.52.52 0 0 1-.22-.412c0-.272.24-.536.696-.536.32 0 .628.156.628.44 0 .184-.1.344-.224.484m-.756.1c-.124.12-.236.244-.236.416 0 .276.264.468.556.468a.334.334 0 0 0 .344-.332.27.27 0 0 0-.14-.248z" /><text font-size="2.47" text-anchor="start" transform="translate(10.082 9.142)">
<tspan>Gloi</tspan>
</text><rect width=".13" height="2.98" x="-.07" y="-3.67" ry=".04" transform="translate(12.806 3.776)" /><path d="M18.275 4.96c0-.364.464-.728.868-.728.252 0 .436.14.436.36 0 .348-.44.728-.88.728-.268 0-.424-.156-.424-.36" /><text font-size="2.47" text-anchor="start" transform="translate(17.064 9.142)">
<tspan>re</tspan>
</text><path d="M20.425 9.592c0 .054-.378.391-1.049.391s-1.048-.337-1.048-.391c0-.032.027-.063.063-.063.013 0 .027 0 .04.013.252.22.608.234.945.234s.693-.013.945-.234c.014-.013.027-.013.04-.013.037 0 .064.031.064.063" /><text font-size="2.47" text-anchor="start" transform="translate(19.676 9.142)">
<tspan>à</tspan>
</text><rect width=".13" height="3.31" x="-.07" y="-2.5" ry=".04" transform="translate(19.512 3.776)" /><path d="M19.58 1.318v1.5h-.065v-1.5zm.491 2.916c0-.04.168-.348.168-.784 0-.412-.376-.832-.66-1.132v-1c0 .788.828 1.344.828 2.132 0 .284-.06.564-.164.828a.1.1 0 0 1-.08.048.09.09 0 0 1-.092-.092" /><rect width=".66" height=".13" x="0" y="-.55" ry=".04" transform="translate(82.115 9.142)" /><path d="M24.173 3.96c0-.364.464-.728.868-.728.252 0 .436.14.436.36 0 .348-.44.728-.88.728-.268 0-.424-.156-.424-.36" /><text font-size="2.47" text-anchor="start" transform="translate(23.19 9.142)">
<tspan>toi,</tspan>
</text><path d="M25.927 3.276a.224.224 0 1 1 .447 0 .224.224 0 0 1-.447 0" /><rect width=".13" height="3.15" x="-.07" y="-3.33" ry=".04" transform="translate(25.41 3.776)" /><path stroke="currentColor" stroke-linecap="round" stroke-linejoin="round" stroke-width=".08" d="M65.876 1.39v.396l-8.31.188v-.396z" /><path d="M32.782 4.46c0-.364.464-.728.868-.728.252 0 .436.14.436.36 0 .348-.44.728-.88.728-.268 0-.424-.156-.424-.36" /><text font-size="2.47" text-anchor="start" transform="translate(31.943 9.142)">
<tspan>Sei</tspan>
</text><rect width=".13" height="3.12" x="-.07" y="-2.81" ry=".04" transform="translate(34.02 3.776)" /><path d="M37.321 4.96c0-.364.464-.728.868-.728.252 0 .436.14.436.36 0 .348-.44.728-.88.728-.268 0-.424-.156-.424-.36" /><text font-size="2.47" text-anchor="start" transform="translate(35.026 9.142)">
<tspan>gneur</tspan>
</text><rect width=".13" height="3.31" x="-.07" y="-2.49" ry=".04" transform="translate(38.558 3.776)" /><path d="M41.67 5.46c0-.364.464-.728.868-.728.253 0 .437.14.437.36 0 .348-.44.728-.88.728-.269 0-.425-.156-.425-.36" /><text font-size="2.47" text-anchor="start" transform="translate(41.37 9.142)">
<tspan>Jé</tspan>
</text><rect width=".13" height="3.51" x="-.07" y="-2.19" ry=".04" transform="translate(42.907 3.776)" /><path d="M47.744 4.96c0-.364.464-.728.868-.728.252 0 .436.14.436.36 0 .348-.44.728-.88.728-.268 0-.424-.156-.424-.36" /><text font-size="2.47" text-anchor="start" transform="translate(47.744 9.142)">
<tspan>sus,</tspan>
</text><path d="M49.498 4.276a.224.224 0 1 1 .447 0 .224.224 0 0 1-.447 0" /><rect width=".13" height="3.31" x="-.07" y="-2.5" ry=".04" transform="translate(48.98 3.776)" /><path stroke="currentColor" stroke-linecap="round" stroke-linejoin="round" stroke-width=".08" d="M50.148 4.026c1.036-.884 5.622-.884 6.658 0h0c-1.036-.76-5.622-.76-6.658 0" /><path d="M56.354 4.96c0-.364.463-.728.867-.728.253 0 .437.14.437.36 0 .348-.44.728-.88.728-.269 0-.425-.156-.425-.36" /><rect width=".13" height="2.82" x="-.07" y="-2" ry=".04" transform="translate(57.59 3.776)" /><path stroke="currentColor" stroke-linecap="round" stroke-linejoin="round" stroke-width=".08" d="M42.933 1.39v.396l-8.939-.624V.766z" /><path d="M60.484 4.96c0-.364.464-.728.868-.728.252 0 .436.14.436.36 0 .348-.44.728-.88.728-.268 0-.424-.156-.424-.36" /><text font-size="2.47" text-anchor="start" transform="translate(59.483 9.142)">
<tspan>pre</tspan>
</text><rect width="6.06" height=".08" x="0" y="-.08" ry=".03" transform="translate(51.6 9.142)" /><path d="M64.614 4.46c0-.364.464-.728.868-.728.252 0 .436.14.436.36 0 .348-.44.728-.88.728-.268 0-.424-.156-.424-.36" /><text font-size="2.47" text-anchor="start" transform="translate(62.93 9.142)">
<tspan>mier</tspan>
</text><rect width=".13" height="2.5" x="-.07" y="-2.19" ry=".04" transform="translate(65.851 3.776)" /><rect width=".66" height=".13" x="0" y="-.55" ry=".04" transform="translate(45.18 9.142)" /><path d="M70.616 5.46c0-.364.464-.728.868-.728.252 0 .436.14.436.36 0 .348-.44.728-.88.728-.268 0-.424-.156-.424-.36" /><text font-size="2.47" text-anchor="start" transform="translate(70.046 9.142)">
<tspan>né</tspan>
</text><path d="M72.37 5.276a.224.224 0 1 1 .448 0 .224.224 0 0 1-.448 0" /><rect width=".13" height="3.31" x="-.07" y="-2" ry=".04" transform="translate(71.853 3.776)" /><path d="M79.226 6.46c0-.364.464-.728.868-.728.252 0 .436.14.436.36 0 .348-.44.728-.88.728-.268 0-.424-.156-.424-.36" /><text font-size="2.47" text-anchor="start" transform="translate(77.722 9.142)">
<tspan>d’en</tspan>
</text><rect width=".13" height="3.32" x="-.07" y="-1.01" ry=".04" transform="translate(80.463 3.776)" /><path d="m78.184 6.112-.004.264v.044q-.001.132.016.264c.18-.152.372-.32.372-.556 0-.132-.056-.268-.172-.268-.124 0-.208.12-.212.252m-.168.716-.048-2.38c.032-.02.072-.032.108-.032s.076.012.108.032l-.028 1.38a.58.58 0 0 1 .364-.136c.208 0 .356.192.356.408 0 .32-.344.468-.588.676-.06.052-.096.152-.18.152-.052 0-.092-.044-.092-.1M83.606 5.46c0-.364.464-.728.868-.728.252 0 .436.14.436.36 0 .348-.44.728-.88.728-.268 0-.424-.156-.424-.36" /><text font-size="2.47" text-anchor="start" transform="translate(82.857 9.142)">
<tspan>tre</tspan>
</text><rect width=".13" height="2.91" x="-.07" y="-1.59" ry=".04" transform="translate(84.843 3.776)" /><path d="M87.987 4.46c0-.364.464-.728.868-.728.251 0 .435.14.435.36 0 .348-.44.728-.88.728-.267 0-.423-.156-.423-.36" /><text font-size="2.47" text-anchor="start" transform="translate(87.273 9.142)">
<tspan>les</tspan>
</text><rect width=".13" height="2.49" x="-.07" y="-2.18" ry=".04" transform="translate(89.224 3.776)" /><rect width=".66" height=".13" x="0" y="-.55" ry=".04" transform="translate(15.381 9.142)" /><path d="M95.277 5.2c.16 0 .815-.44.923-.572a.2.2 0 0 0 .045-.112.166.166 0 0 0-.169-.164c-.16 0-.815.44-.923.572a.2.2 0 0 0-.04.112c0 .088.067.164.163.164m-.288-.156c0-.284.183-.812 1.031-.812.165 0 .345.04.345.276 0 .284-.185.812-1.033.812-.163 0-.343-.04-.343-.276" /><text font-size="2.47" text-anchor="start" transform="translate(92.065 9.142)">
<tspan>morts !</tspan>
</text><path d="M96.816 4.276a.224.224 0 1 1 .447 0 .224.224 0 0 1-.447 0" /><rect width=".13" height="3.24" x="-.07" y="-2.5" ry=".04" transform="translate(96.299 3.776)" /><rect width=".2" height="4" x="0" y="-2" ry="0" transform="translate(25.4 16.05)" /><path stroke="currentColor" stroke-linecap="round" stroke-linejoin="round" stroke-width=".1" d="M.05 18.05h55.76M.05 17.05h55.76M.05 16.05h55.76M.05 15.05h55.76M.05 14.05h55.76" /><rect width=".62" height="4" x="0" y="-2" ry="0" transform="translate(55.24 16.05)" /><rect width=".2" height="4" x="0" y="-2" ry="0" transform="translate(54.733 16.05)" /><rect width=".2" height="4" x="0" y="-2" ry="0" transform="translate(42.965 16.05)" /><rect width=".2" height="4" x="0" y="-2" ry="0" transform="translate(42.458 16.05)" /><path stroke="currentColor" stroke-linecap="round" stroke-linejoin="round" stroke-width=".08" d="M37.31 13.04v.396l-2.804.623v-.395z" /><path d="M1.864 19.59H1.84a.783.783 0 0 1-.78-.788c0-.232.212-.412.448-.412.216 0 .38.188.38.412 0 .208-.172.38-.38.38a.3.3 0 0 1-.124-.024c.104.156.272.26.468.26h.016zm.54-3.144c.076.356.192.968.24 1.416a.67.67 0 0 0 .448-.652.753.753 0 0 0-.688-.764m-1.308.492c0 .448.392.988 1.112.988q.127 0 .272-.024a17 17 0 0 0-.252-1.456c-.316.032-.496.244-.496.476 0 .176.1.364.324.492q.029.03.028.06c0 .044-.04.088-.088.088-.06 0-.504-.248-.504-.748 0-.352.232-.696.64-.788a15 15 0 0 0-.184-.7c-.428.484-.852.972-.852 1.612m1.132-4.664c.112 0 .572.824.572 1.444 0 .572-.344 1.02-.72 1.456.084.272.156.552.224.828.02 0 .04-.004.056-.004.62 0 1.02.516 1.02 1.048 0 .452-.296.848-.72.98q.019.21.02.42-.001.116-.008.232c-.028.476-.352.9-.808.912l.004-.172c.372-.008.612-.368.636-.764a3.775 3.775 0 0 0-.008-.588q-.169.031-.32.032c-.956 0-1.368-.868-1.368-1.496 0-.708.524-1.224.992-1.764-.116-.384-.208-.68-.208-1.384 0-.756.576-1.18.636-1.18m-.44 1.648c0 .22.048.46.14.76.328-.4.588-.808.588-1.304 0-.16-.024-.328-.084-.508a1.13 1.13 0 0 0-.644 1.052M4.413 15.886l-.004.264v.044q-.001.132.016.264c.18-.152.372-.32.372-.556 0-.132-.056-.268-.172-.268-.124 0-.208.12-.212.252m-.168.716-.048-2.38c.032-.02.072-.032.108-.032s.076.012.108.032l-.028 1.38a.58.58 0 0 1 .364-.136c.208 0 .356.192.356.408 0 .32-.344.468-.588.676-.06.052-.096.152-.18.152-.052 0-.092-.044-.092-.1M5.333 14.386l-.004.264v.044q-.001.132.016.264c.18-.152.372-.32.372-.556 0-.132-.056-.268-.172-.268-.124 0-.208.12-.212.252m-.168.716-.048-2.38c.032-.02.072-.032.108-.032s.076.012.108.032l-.028 1.38a.58.58 0 0 1 .364-.136c.208 0 .356.192.356.408 0 .32-.344.468-.588.676-.06.052-.096.152-.18.152-.052 0-.092-.044-.092-.1M6.253 16.386l-.004.264v.044q-.001.132.016.264c.18-.152.372-.32.372-.556 0-.132-.056-.268-.172-.268-.124 0-.208.12-.212.252m-.168.716-.048-2.38c.032-.02.072-.032.108-.032s.076.012.108.032l-.028 1.38a.58.58 0 0 1 .364-.136c.208 0 .356.192.356.408 0 .32-.344.468-.588.676-.06.052-.096.152-.18.152-.052 0-.092-.044-.092-.1" /><path stroke="currentColor" stroke-linecap="round" stroke-linejoin="round" stroke-width=".08" d="M19.895 13.04v.396l-2.554-.188v-.396z" /><text font-size="1.85" text-anchor="start" transform="translate(9.445 12.027)">
<tspan>Fa</tspan>
</text><text font-size="1.85" text-anchor="start" transform="translate(11.878 12.027)">
<tspan>m</tspan>
</text><path d="M11.825 17.19c0 .044-.036.08-.08.08s-.08-.036-.08-.08v-1.28c0-.044.036-.08.08-.08s.08.036.08.08zm-2.668 0c0 .044-.036.08-.08.08s-.08-.036-.08-.08v-1.28c0-.044.036-.08.08-.08s.08.036.08.08zm1.256-1.184c.012 0 .836.008.968.452v-.548c0-.044.036-.08.08-.08s.08.036.08.08v1.28c0 .044-.036.08-.08.08s-.08-.036-.08-.08v-.548c-.068.224-.424.452-.968.452-.012 0-.836-.008-.968-.452v.548c0 .044-.036.08-.08.08s-.08-.036-.08-.08v-1.28c0-.044.036-.08.08-.08s.08.036.08.08v.548c.068-.224.424-.452.968-.452m.408.648c0-.408-.36-.556-.536-.556-.092 0-.28.04-.28.356a.54.54 0 0 0 .532.544c.088 0 .284-.032.284-.344M16.129 16.234c0-.364.464-.728.868-.728.252 0 .436.14.436.36 0 .348-.44.728-.88.728-.268 0-.424-.156-.424-.36" /><rect width=".13" height="2.81" x="-.07" y="-3" ry=".04" transform="translate(17.366 16.05)" /><path d="M18.633 16.734c0-.364.464-.728.868-.728.252 0 .436.14.436.36 0 .348-.44.728-.88.728-.268 0-.424-.156-.424-.36" /><rect width=".13" height="3.13" x="-.07" y="-2.82" ry=".04" transform="translate(19.87 16.05)" /><text font-size="1.85" text-anchor="start" transform="translate(21.137 12.027)">
<tspan>Do</tspan>
</text><text font-size="1.85" text-anchor="start" transform="translate(24.001 12.027)">
<tspan>m</tspan>
</text><path d="M21.137 17.234c0-.364.464-.728.868-.728.252 0 .436.14.436.36 0 .348-.44.728-.88.728-.268 0-.424-.156-.424-.36" /><rect width=".13" height="3.31" x="-.07" y="-2.5" ry=".04" transform="translate(22.374 16.05)" /><text font-size="1.85" text-anchor="start" transform="translate(26.61 12.027)">
<tspan>Ré</tspan>
</text><path d="m29.338 11.109-.006.18v.033q0 .096.015.192c.126-.114.261-.243.261-.414 0-.096-.039-.19-.123-.19-.093 0-.144.097-.147.199m-.003-1.233-.027 1.01a.4.4 0 0 1 .285-.12c.15 0 .246.154.246.316 0 .23-.24.35-.411.507-.054.05-.078.144-.156.144-.048 0-.084-.045-.084-.096l-.045-1.761q.046-.026.096-.024c.05.002.066.006.096.024M28.99 18.19c0 .044-.035.08-.08.08s-.08-.036-.08-.08v-1.28c0-.044.037-.08.08-.08s.08.036.08.08zm-2.667 0c0 .044-.036.08-.08.08s-.08-.036-.08-.08v-1.28c0-.044.036-.08.08-.08s.08.036.08.08zm1.256-1.184c.012 0 .836.008.968.452v-.548c0-.044.036-.08.08-.08s.08.036.08.08v1.28c0 .044-.036.08-.08.08s-.08-.036-.08-.08v-.548c-.068.224-.424.452-.968.452-.012 0-.836-.008-.968-.452v.548c0 .044-.036.08-.08.08s-.08-.036-.08-.08v-1.28c0-.044.036-.08.08-.08s.08.036.08.08v.548c.068-.224.424-.452.968-.452m.408.648c0-.408-.36-.556-.536-.556-.092 0-.28.04-.28.356a.54.54 0 0 0 .532.544c.088 0 .284-.032.284-.344M33.295 17.734c0-.364.464-.728.868-.728.252 0 .436.14.436.36 0 .348-.44.728-.88.728-.268 0-.424-.156-.424-.36" /><rect width=".13" height="3.52" x="-.07" y="-2.2" ry=".04" transform="translate(34.532 16.05)" /><path d="M36.049 16.734c0-.364.464-.728.868-.728.252 0 .436.14.436.36 0 .348-.44.728-.88.728-.268 0-.424-.156-.424-.36" /><rect width=".13" height="3.11" x="-.07" y="-2.8" ry=".04" transform="translate(37.286 16.05)" /><text font-size="1.85" text-anchor="start" transform="translate(38.553 12.027)">
<tspan>Do</tspan>
</text><path d="M38.553 17.234c0-.364.464-.728.868-.728.252 0 .436.14.436.36 0 .348-.44.728-.88.728-.268 0-.424-.156-.424-.36" /><rect width=".13" height="3.31" x="-.07" y="-2.5" ry=".04" transform="translate(39.79 16.05)" /><text font-size="1.85" text-anchor="start" transform="translate(44.108 12.027)">
<tspan>Fa</tspan>
</text><text font-size="1.85" text-anchor="start" transform="translate(46.541 12.027)">
<tspan>m</tspan>
</text><path d="M46.488 17.19c0 .044-.036.08-.08.08s-.08-.036-.08-.08v-1.28c0-.044.036-.08.08-.08s.08.036.08.08zm-2.668 0c0 .044-.036.08-.08.08s-.08-.036-.08-.08v-1.28c0-.044.036-.08.08-.08s.08.036.08.08zm1.256-1.184c.012 0 .836.008.968.452v-.548c0-.044.036-.08.08-.08s.08.036.08.08v1.28c0 .044-.036.08-.08.08s-.08-.036-.08-.08v-.548c-.068.224-.424.452-.968.452-.012 0-.836-.008-.968-.452v.548c0 .044-.036.08-.08.08s-.08-.036-.08-.08v-1.28c0-.044.036-.08.08-.08s.08.036.08.08v.548c.068-.224.424-.452.968-.452m.408.648c0-.408-.36-.556-.536-.556-.092 0-.28.04-.28.356a.54.54 0 0 0 .532.544c.088 0 .284-.032.284-.344" /><text color="rgba(100.0000%, 0.0000%, 0.0000%, 100.0000%)" font-size="2.2" font-weight="bold" text-anchor="start" transform="translate(44.108 13.498)">
<tspan>+</tspan>
</text><path d="M50.792 17.734c0-.364.464-.728.868-.728.252 0 .436.14.436.36 0 .348-.44.728-.88.728-.268 0-.424-.156-.424-.36" /><rect width=".13" height="3.31" x="-.07" y="-2" ry=".04" transform="translate(52.029 16.05)" /></svg>