<svg xmlns="http://www.w3.org/2000/svg" width="475.96" height="134.66" viewBox="0 -4.18 75.43 21.34" fill="currentColor" font-family="Linux Libertine"><style type="text/css">tspan{white-space:pre}</style><rect width=".2" height="4" x="0" y="-2" ry="0" transform="translate(18.444 2.15)" /><path stroke="currentColor" stroke-linecap="round" stroke-linejoin="round" stroke-width=".1" d="M.05 4.15h75.33M.05 3.15h75.33M.05 2.15h75.33M.05 1.15h75.33M.05.15h75.33" /><rect width=".62" height="4" x="0" y="-2" ry="0" transform="translate(74.814 2.15)" /><rect width=".2" height="4" x="0" y="-2" ry="0" transform="translate(74.307 2.15)" /><rect width=".2" height="4" x="0" y="-2" ry="0" transform="translate(66.164 2.15)" /><rect width=".2" height="4" x="0" y="-2" ry="0" transform="translate(50.596 2.15)" /><rect width=".2" height="4" x="0" y="-2" ry="0" transform="translate(35.654 2.15)" /><text font-size="2.47" text-anchor="start" transform="translate(42.66 7.419)">
<tspan>pre</tspan>
</text><path stroke="currentColor" stroke-linecap="round" stroke-linejoin="round" stroke-width=".08" d="M64.303-.237V.16l-6.926 1.189V.951z" /><text font-size="1.85" text-anchor="start" transform="translate(11.569 -2.035)">
<tspan>Do</tspan>
</text><text font-size="1.85" text-anchor="start" transform="translate(14.433 -2.035)">
<tspan>m</tspan>
</text><path d="M11.569 1.834c0-.364.464-.728.868-.728.252 0 .436.14.436.36 0 .348-.44.728-.88.728-.268 0-.424-.156-.424-.36M1.864 5.69H1.84a.783.783 0 0 1-.78-.788c0-.232.212-.412.448-.412.216 0 .38.188.38.412 0 .208-.172.38-.38.38a.3.3 0 0 1-.124-.024c.104.156.272.26.468.26h.016zm.54-3.144c.076.356.192.968.24 1.416a.67.67 0 0 0 .448-.652.753.753 0 0 0-.688-.764m-1.308.492c0 .448.392.988 1.112.988q.127 0 .272-.024a17 17 0 0 0-.252-1.456c-.316.032-.496.244-.496.476 0 .176.1.364.324.492q.029.03.028.06c0 .044-.04.088-.088.088-.06 0-.504-.248-.504-.748 0-.352.232-.696.64-.788a15 15 0 0 0-.184-.7c-.428.484-.852.972-.852 1.612m1.132-4.664c.112 0 .572.824.572 1.444 0 .572-.344 1.02-.72 1.456.084.272.156.552.224.828q.031-.002.056-.004c.62 0 1.02.516 1.02 1.048 0 .452-.296.848-.72.98q.019.21.02.42c0 .076-.004.156-.008.232-.028.476-.352.9-.808.912l.004-.172c.372-.008.612-.368.636-.764a3.775 3.775 0 0 0-.008-.588q-.169.031-.32.032C1.22 4.198.808 3.33.808 2.702c0-.708.524-1.224.992-1.764-.116-.384-.208-.68-.208-1.384 0-.756.576-1.18.636-1.18M1.788.022c0 .22.048.46.14.76.328-.4.588-.808.588-1.304 0-.16-.024-.328-.084-.508A1.13 1.13 0 0 0 1.788.022M4.413 1.986l-.004.264v.044q-.001.132.016.264c.18-.152.372-.32.372-.556 0-.132-.056-.268-.172-.268-.124 0-.208.12-.212.252m-.168.716L4.197.322c.032-.02.072-.032.108-.032s.076.012.108.032l-.028 1.38a.58.58 0 0 1 .364-.136c.208 0 .356.192.356.408 0 .32-.344.468-.588.676-.06.052-.096.152-.18.152-.052 0-.092-.044-.092-.1M5.333.486 5.329.75v.044q-.001.132.016.264c.18-.152.372-.32.372-.556 0-.132-.056-.268-.172-.268-.124 0-.208.12-.212.252m-.168.716-.048-2.38c.032-.02.072-.032.108-.032s.076.012.108.032L5.305.202a.58.58 0 0 1 .364-.136c.208 0 .356.192.356.408 0 .32-.344.468-.588.676-.06.052-.096.152-.18.152-.052 0-.092-.044-.092-.1M6.253 2.486l-.004.264v.044q-.001.132.016.264c.18-.152.372-.32.372-.556 0-.132-.056-.268-.172-.268-.124 0-.208.12-.212.252m-.168.716L6.037.822c.032-.02.072-.032.108-.032s.076.012.108.032l-.028 1.38a.58.58 0 0 1 .364-.136c.208 0 .356.192.356.408 0 .32-.344.468-.588.676-.06.052-.096.152-.18.152-.052 0-.092-.044-.092-.1M8.829 1.114c-.204 0-.212.172-.212.4v.144c0 .228.008.4.212.4.228 0 .244-.204.244-.472s-.016-.472-.244-.472m-.212-.028a.4.4 0 0 1 .212-.064c.404 0 .68.184.68.564s-.276.564-.68.564c-.448 0-.68-.496-.68-1 0-.512.288-1 .76-1 .28 0 .544.156.544.412 0 .144-.116.264-.26.264s-.264-.12-.264-.264c0-.096.16-.1.16-.196 0-.08-.092-.124-.18-.124-.264 0-.3.26-.3.556 0 .096.008.192.008.288" /><path d="M9.139 3.002c.1-.12.176-.256.176-.412 0-.216-.22-.348-.456-.348a.284.284 0 0 0-.292.284c0 .084.04.168.124.216zm.124.072c.216.124.32.316.32.5 0 .292-.264.576-.756.576-.376 0-.732-.216-.732-.56 0-.2.144-.348.288-.492a.52.52 0 0 1-.22-.412c0-.272.24-.536.696-.536.32 0 .628.156.628.44 0 .184-.1.344-.224.484m-.756.1c-.124.12-.236.244-.236.416 0 .276.264.468.556.468a.334.334 0 0 0 .344-.332.27.27 0 0 0-.14-.248z" /><text font-size="2.47" text-anchor="start" transform="translate(10.082 7.419)">
<tspan>Gloi</tspan>
</text><rect width=".13" height="2.98" x="-.07" y="-3.67" ry=".04" transform="translate(12.806 2.15)" /><path d="M15.67 3.334c0-.364.464-.728.868-.728.252 0 .436.14.436.36 0 .348-.44.728-.88.728-.268 0-.424-.156-.424-.36" /><text font-size="2.47" text-anchor="start" transform="translate(14.46 7.419)">
<tspan>re</tspan>
</text><path d="M17.82 7.869c0 .054-.378.391-1.048.391s-1.049-.337-1.049-.391c0-.032.027-.063.063-.063.014 0 .027 0 .04.013.253.22.608.234.946.234s.693-.013.945-.234c.013-.013.027-.013.04-.013.036 0 .063.031.063.063" /><text font-size="2.47" text-anchor="start" transform="translate(17.072 7.419)">
<tspan>à</tspan>
</text><rect width=".13" height="3.31" x="-.07" y="-2.5" ry=".04" transform="translate(16.907 2.15)" /><path d="M16.975-.308v1.5h-.064v-1.5zm.492 2.916c0-.04.168-.348.168-.784 0-.412-.376-.832-.66-1.132v-1c0 .788.828 1.344.828 2.132 0 .284-.06.564-.164.828a.1.1 0 0 1-.08.048.09.09 0 0 1-.092-.092" /><text font-size="1.85" text-anchor="start" transform="translate(19.62 -2.035)">
<tspan>Si</tspan>
</text><path d="m21.807-2.953-.006.18v.033q0 .096.015.192c.126-.114.261-.243.261-.414 0-.096-.039-.19-.123-.19-.093 0-.144.097-.147.199m-.003-1.234-.027 1.011a.4.4 0 0 1 .285-.12c.15 0 .246.153.246.315 0 .231-.24.351-.41.507-.055.051-.079.144-.157.144-.048 0-.084-.045-.084-.096l-.045-1.76q.046-.027.096-.025c.05.002.066.006.096.024M19.62 2.334c0-.364.463-.728.867-.728.252 0 .436.14.436.36 0 .348-.44.728-.88.728-.268 0-.424-.156-.424-.36" /><text font-size="2.47" text-anchor="start" transform="translate(18.636 7.419)">
<tspan>toi,</tspan>
</text><path d="M21.373 1.65a.224.224 0 1 1 .448-.001.224.224 0 0 1-.448 0" /><rect width=".13" height="3.15" x="-.07" y="-3.33" ry=".04" transform="translate(20.856 2.15)" /><path stroke="currentColor" stroke-linecap="round" stroke-linejoin="round" stroke-width=".08" d="M49.013-.237V.16l-6.644.377V.14z" /><text font-size="1.85" text-anchor="start" transform="translate(24.025 -2.035)">
<tspan>Fa</tspan>
</text><text font-size="1.85" text-anchor="start" transform="translate(26.458 -2.035)">
<tspan>m</tspan>
</text><path d="M24.025 2.834c0-.364.464-.728.868-.728.252 0 .436.14.436.36 0 .348-.44.728-.88.728-.268 0-.424-.156-.424-.36" /><text font-size="2.47" text-anchor="start" transform="translate(23.186 7.419)">
<tspan>Sei</tspan>
</text><rect width=".13" height="3.12" x="-.07" y="-2.81" ry=".04" transform="translate(25.262 2.15)" /><path d="M28.564 3.334c0-.364.464-.728.868-.728.252 0 .436.14.436.36 0 .348-.44.728-.88.728-.268 0-.424-.156-.424-.36" /><text font-size="2.47" text-anchor="start" transform="translate(26.269 7.419)">
<tspan>gneur</tspan>
</text><rect width=".13" height="3.31" x="-.07" y="-2.49" ry=".04" transform="translate(29.8 2.15)" /><path d="M32.913 3.834c0-.364.464-.728.868-.728.252 0 .436.14.436.36 0 .348-.44.728-.88.728-.268 0-.424-.156-.424-.36" /><text font-size="2.47" text-anchor="start" transform="translate(32.613 7.419)">
<tspan>Jé</tspan>
</text><rect width=".13" height="3.51" x="-.07" y="-2.19" ry=".04" transform="translate(34.15 2.15)" /><text font-size="1.85" text-anchor="start" transform="translate(36.75 -2.035)">
<tspan>Do</tspan>
</text><text font-size="1.85" text-anchor="start" transform="translate(39.615 -2.035)">
<tspan>m</tspan>
</text><path d="M36.75 3.334c0-.364.465-.728.869-.728.252 0 .436.14.436.36 0 .348-.44.728-.88.728-.268 0-.424-.156-.424-.36" /><text font-size="2.47" text-anchor="start" transform="translate(36.75 7.419)">
<tspan>sus,</tspan>
</text><path d="M38.505 2.65a.224.224 0 1 1 .447-.001.224.224 0 0 1-.447 0" /><rect width=".13" height="3.31" x="-.07" y="-2.5" ry=".04" transform="translate(37.988 2.15)" /><path stroke="currentColor" stroke-linecap="round" stroke-linejoin="round" stroke-width=".08" d="M38.388 1.925c.684-.721 2.537-.721 3.221 0h0c-.684-.597-2.537-.597-3.221 0" /><path d="M41.157 3.334c0-.364.464-.728.868-.728.252 0 .436.14.436.36 0 .348-.44.728-.88.728-.268 0-.424-.156-.424-.36" /><rect width=".13" height="2.63" x="-.07" y="-1.82" ry=".04" transform="translate(42.394 2.15)" /><path stroke="currentColor" stroke-linecap="round" stroke-linejoin="round" stroke-width=".08" d="M34.176-.237V.16l-8.939-.623V-.86z" /><path d="M43.661 3.334c0-.364.464-.728.868-.728.252 0 .436.14.436.36 0 .348-.44.728-.88.728-.268 0-.424-.156-.424-.36" /><rect width=".13" height="2.77" x="-.07" y="-1.96" ry=".04" transform="translate(44.898 2.15)" /><rect width="1.85" height=".08" x="0" y="-.08" ry=".03" transform="translate(40.607 7.419)" /><path d="M47.75 2.834c0-.364.465-.728.869-.728.252 0 .436.14.436.36 0 .348-.44.728-.88.728-.268 0-.424-.156-.424-.36" /><text font-size="2.47" text-anchor="start" transform="translate(46.067 7.419)">
<tspan>mier</tspan>
</text><rect width=".13" height="2.5" x="-.07" y="-2.18" ry=".04" transform="translate(48.988 2.15)" /><rect width=".66" height=".13" x="0" y="-.55" ry=".04" transform="translate(35.304 7.419)" /><text font-size="1.85" text-anchor="start" transform="translate(51.759 -2.035)">
<tspan>Ré</tspan>
</text><path d="m54.486-2.953-.006.18v.033q0 .096.015.192c.126-.114.26-.243.26-.414 0-.096-.038-.19-.122-.19-.093 0-.144.097-.147.199m-.003-1.234-.027 1.011a.4.4 0 0 1 .285-.12c.15 0 .246.153.246.315 0 .231-.24.351-.411.507-.054.051-.078.144-.156.144-.048 0-.084-.045-.084-.096l-.045-1.76q.046-.027.096-.025c.05.002.066.006.096.024M51.759 3.834c0-.364.464-.728.868-.728.252 0 .436.14.436.36 0 .348-.44.728-.88.728-.268 0-.424-.156-.424-.36" /><text font-size="2.47" text-anchor="start" transform="translate(51.189 7.419)">
<tspan>né</tspan>
</text><path d="M53.513 3.65a.224.224 0 1 1 .447-.001.224.224 0 0 1-.447 0" /><rect width=".13" height="3.31" x="-.07" y="-2" ry=".04" transform="translate(52.996 2.15)" /><path d="M56.165 4.834c0-.364.464-.728.868-.728.252 0 .436.14.436.36 0 .348-.44.728-.88.728-.268 0-.424-.156-.424-.36" /><text font-size="2.47" text-anchor="start" transform="translate(54.66 7.419)">
<tspan>d’en</tspan>
</text><rect width=".13" height="3.33" x="-.07" y="-1.01" ry=".04" transform="translate(57.402 2.15)" /><path d="m55.123 4.486-.004.264v.044q-.001.132.016.264c.18-.152.372-.32.372-.556 0-.132-.056-.268-.172-.268-.124 0-.208.12-.212.252m-.168.716-.048-2.38c.032-.02.072-.032.108-.032s.076.012.108.032l-.028 1.38a.58.58 0 0 1 .364-.136c.208 0 .356.192.356.408 0 .32-.344.468-.588.676-.06.052-.096.152-.18.152-.052 0-.092-.044-.092-.1M59.823 3.834c0-.364.464-.728.868-.728.252 0 .436.14.436.36 0 .348-.44.728-.88.728-.268 0-.424-.156-.424-.36" /><text font-size="2.47" text-anchor="start" transform="translate(59.073 7.419)">
<tspan>tre</tspan>
</text><rect width=".13" height="2.95" x="-.07" y="-1.63" ry=".04" transform="translate(61.06 2.15)" /><path d="M63.04 2.834c0-.364.464-.728.868-.728.252 0 .436.14.436.36 0 .348-.44.728-.88.728-.268 0-.424-.156-.424-.36" /><text font-size="2.47" text-anchor="start" transform="translate(62.327 7.419)">
<tspan>les</tspan>
</text><rect width=".13" height="2.49" x="-.07" y="-2.18" ry=".04" transform="translate(64.277 2.15)" /><text font-size="1.85" text-anchor="start" transform="translate(68.431 -2.035)">
<tspan>Do</tspan>
</text><path d="M68.72 3.574c.16 0 .815-.44.923-.572a.2.2 0 0 0 .045-.112.166.166 0 0 0-.169-.164c-.16 0-.816.44-.924.572a.2.2 0 0 0-.04.112c0 .088.068.164.164.164m-.288-.156c0-.284.183-.812 1.031-.812.165 0 .345.04.345.276 0 .284-.185.812-1.033.812-.164 0-.344-.04-.344-.276" /><text font-size="2.47" text-anchor="start" transform="translate(65.508 7.419)">
<tspan>morts !</tspan>
</text><path d="M70.259 2.65a.224.224 0 1 1 .447-.001.224.224 0 0 1-.447 0" /><rect width=".13" height="3.24" x="-.07" y="-2.5" ry=".04" transform="translate(69.742 2.15)" /><rect width=".2" height="4" x="0" y="-2" ry="0" transform="translate(25.4 13.322)" /><path stroke="currentColor" stroke-linecap="round" stroke-linejoin="round" stroke-width=".1" d="M.05 15.322h55.76M.05 14.322h55.76M.05 13.322h55.76M.05 12.322h55.76M.05 11.322h55.76" /><rect width=".62" height="4" x="0" y="-2" ry="0" transform="translate(55.24 13.322)" /><rect width=".2" height="4" x="0" y="-2" ry="0" transform="translate(54.733 13.322)" /><rect width=".2" height="4" x="0" y="-2" ry="0" transform="translate(42.965 13.322)" /><rect width=".2" height="4" x="0" y="-2" ry="0" transform="translate(42.458 13.322)" /><path stroke="currentColor" stroke-linecap="round" stroke-linejoin="round" stroke-width=".08" d="M37.31 10.312v.396l-2.804.624v-.396z" /><path d="M1.864 16.862H1.84a.783.783 0 0 1-.78-.788c0-.232.212-.412.448-.412.216 0 .38.188.38.412 0 .208-.172.38-.38.38a.3.3 0 0 1-.124-.024c.104.156.272.26.468.26h.016zm.54-3.144c.076.356.192.968.24 1.416a.67.67 0 0 0 .448-.652.753.753 0 0 0-.688-.764m-1.308.492c0 .448.392.988 1.112.988q.127 0 .272-.024a17 17 0 0 0-.252-1.456c-.316.032-.496.244-.496.476 0 .176.1.364.324.492q.029.03.028.06c0 .044-.04.088-.088.088-.06 0-.504-.248-.504-.748 0-.352.232-.696.64-.788a15 15 0 0 0-.184-.7c-.428.484-.852.972-.852 1.612m1.132-4.664c.112 0 .572.824.572 1.444 0 .572-.344 1.02-.72 1.456.084.272.156.552.224.828q.031-.002.056-.004c.62 0 1.02.516 1.02 1.048 0 .452-.296.848-.72.98q.019.21.02.42c0 .076-.004.156-.008.232-.028.476-.352.9-.808.912l.004-.172c.372-.008.612-.368.636-.764q.007-.11.008-.22.001-.184-.016-.368-.169.031-.32.032c-.956 0-1.368-.868-1.368-1.496 0-.708.524-1.224.992-1.764-.116-.384-.208-.68-.208-1.384 0-.756.576-1.18.636-1.18m-.44 1.648c0 .22.048.46.14.76.328-.4.588-.808.588-1.304 0-.16-.024-.328-.084-.508a1.13 1.13 0 0 0-.644 1.052M4.413 13.158l-.004.264v.044q-.001.132.016.264c.18-.152.372-.32.372-.556 0-.132-.056-.268-.172-.268-.124 0-.208.12-.212.252m-.168.716-.048-2.38c.032-.02.072-.032.108-.032s.076.012.108.032l-.028 1.38a.58.58 0 0 1 .364-.136c.208 0 .356.192.356.408 0 .32-.344.468-.588.676-.06.052-.096.152-.18.152-.052 0-.092-.044-.092-.1M5.333 11.658l-.004.264v.044q-.001.132.016.264c.18-.152.372-.32.372-.556 0-.132-.056-.268-.172-.268-.124 0-.208.12-.212.252m-.168.716-.048-2.38c.032-.02.072-.032.108-.032s.076.012.108.032l-.028 1.38a.58.58 0 0 1 .364-.136c.208 0 .356.192.356.408 0 .32-.344.468-.588.676-.06.052-.096.152-.18.152-.052 0-.092-.044-.092-.1M6.253 13.658l-.004.264v.044q-.001.132.016.264c.18-.152.372-.32.372-.556 0-.132-.056-.268-.172-.268-.124 0-.208.12-.212.252m-.168.716-.048-2.38c.032-.02.072-.032.108-.032s.076.012.108.032l-.028 1.38a.58.58 0 0 1 .364-.136c.208 0 .356.192.356.408 0 .32-.344.468-.588.676-.06.052-.096.152-.18.152-.052 0-.092-.044-.092-.1" /><path stroke="currentColor" stroke-linecap="round" stroke-linejoin="round" stroke-width=".08" d="M19.895 10.313v.395l-2.554-.188v-.396z" /><text font-size="1.85" text-anchor="start" transform="translate(9.445 10.304)">
<tspan>Fa</tspan>
</text><text font-size="1.85" text-anchor="start" transform="translate(11.878 10.304)">
<tspan>m</tspan>
</text><path d="M11.825 14.462c0 .044-.036.08-.08.08s-.08-.036-.08-.08v-1.28c0-.044.036-.08.08-.08s.08.036.08.08zm-2.668 0c0 .044-.036.08-.08.08s-.08-.036-.08-.08v-1.28c0-.044.036-.08.08-.08s.08.036.08.08zm1.256-1.184c.012 0 .836.008.968.452v-.548c0-.044.036-.08.08-.08s.08.036.08.08v1.28c0 .044-.036.08-.08.08s-.08-.036-.08-.08v-.548c-.068.224-.424.452-.968.452-.012 0-.836-.008-.968-.452v.548c0 .044-.036.08-.08.08s-.08-.036-.08-.08v-1.28c0-.044.036-.08.08-.08s.08.036.08.08v.548c.068-.224.424-.452.968-.452m.408.648c0-.408-.36-.556-.536-.556-.092 0-.28.04-.28.356a.54.54 0 0 0 .532.544c.088 0 .284-.032.284-.344M16.129 13.506c0-.364.464-.728.868-.728.252 0 .436.14.436.36 0 .348-.44.728-.88.728-.268 0-.424-.156-.424-.36" /><rect width=".13" height="2.81" x="-.07" y="-3" ry=".04" transform="translate(17.366 13.322)" /><path d="M18.633 14.006c0-.364.464-.728.868-.728.252 0 .436.14.436.36 0 .348-.44.728-.88.728-.268 0-.424-.156-.424-.36" /><rect width=".13" height="3.13" x="-.07" y="-2.82" ry=".04" transform="translate(19.87 13.322)" /><text font-size="1.85" text-anchor="start" transform="translate(21.137 10.304)">
<tspan>Do</tspan>
</text><text font-size="1.85" text-anchor="start" transform="translate(24.001 10.304)">
<tspan>m</tspan>
</text><path d="M21.137 14.506c0-.364.464-.728.868-.728.252 0 .436.14.436.36 0 .348-.44.728-.88.728-.268 0-.424-.156-.424-.36" /><rect width=".13" height="3.31" x="-.07" y="-2.5" ry=".04" transform="translate(22.374 13.322)" /><text font-size="1.85" text-anchor="start" transform="translate(26.61 10.304)">
<tspan>Ré</tspan>
</text><path d="m29.338 9.386-.006.18v.033q0 .096.015.192c.126-.114.261-.243.261-.414 0-.096-.039-.19-.123-.19-.093 0-.144.097-.147.199m-.003-1.233-.027 1.01a.4.4 0 0 1 .285-.12c.15 0 .246.154.246.316 0 .23-.24.35-.411.507-.054.05-.078.144-.156.144-.048 0-.084-.045-.084-.096l-.045-1.761q.046-.025.096-.024c.05 0 .066.006.096.024M28.99 15.462c0 .044-.035.08-.08.08s-.08-.036-.08-.08v-1.28c0-.044.037-.08.08-.08s.08.036.08.08zm-2.667 0c0 .044-.036.08-.08.08s-.08-.036-.08-.08v-1.28c0-.044.036-.08.08-.08s.08.036.08.08zm1.256-1.184c.012 0 .836.008.968.452v-.548c0-.044.036-.08.08-.08s.08.036.08.08v1.28c0 .044-.036.08-.08.08s-.08-.036-.08-.08v-.548c-.068.224-.424.452-.968.452-.012 0-.836-.008-.968-.452v.548c0 .044-.036.08-.08.08s-.08-.036-.08-.08v-1.28c0-.044.036-.08.08-.08s.08.036.08.08v.548c.068-.224.424-.452.968-.452m.408.648c0-.408-.36-.556-.536-.556-.092 0-.28.04-.28.356a.54.54 0 0 0 .532.544c.088 0 .284-.032.284-.344M33.295 15.006c0-.364.464-.728.868-.728.252 0 .436.14.436.36 0 .348-.44.728-.88.728-.268 0-.424-.156-.424-.36" /><rect width=".13" height="3.52" x="-.07" y="-2.2" ry=".04" transform="translate(34.532 13.322)" /><path d="M36.049 14.006c0-.364.464-.728.868-.728.252 0 .436.14.436.36 0 .348-.44.728-.88.728-.268 0-.424-.156-.424-.36" /><rect width=".13" height="3.11" x="-.07" y="-2.8" ry=".04" transform="translate(37.286 13.322)" /><text font-size="1.85" text-anchor="start" transform="translate(38.553 10.304)">
<tspan>Do</tspan>
</text><path d="M38.553 14.506c0-.364.464-.728.868-.728.252 0 .436.14.436.36 0 .348-.44.728-.88.728-.268 0-.424-.156-.424-.36" /><rect width=".13" height="3.31" x="-.07" y="-2.5" ry=".04" transform="translate(39.79 13.322)" /><text font-size="1.85" text-anchor="start" transform="translate(44.108 10.304)">
<tspan>Fa</tspan>
</text><text font-size="1.85" text-anchor="start" transform="translate(46.541 10.304)">
<tspan>m</tspan>
</text><path d="M46.488 14.462c0 .044-.036.08-.08.08s-.08-.036-.08-.08v-1.28c0-.044.036-.08.08-.08s.08.036.08.08zm-2.668 0c0 .044-.036.08-.08.08s-.08-.036-.08-.08v-1.28c0-.044.036-.08.08-.08s.08.036.08.08zm1.256-1.184c.012 0 .836.008.968.452v-.548c0-.044.036-.08.08-.08s.08.036.08.08v1.28c0 .044-.036.08-.08.08s-.08-.036-.08-.08v-.548c-.068.224-.424.452-.968.452-.012 0-.836-.008-.968-.452v.548c0 .044-.036.08-.08.08s-.08-.036-.08-.08v-1.28c0-.044.036-.08.08-.08s.08.036.08.08v.548c.068-.224.424-.452.968-.452m.408.648c0-.408-.36-.556-.536-.556-.092 0-.28.04-.28.356a.54.54 0 0 0 .532.544c.088 0 .284-.032.284-.344" /><text color="rgba(100.0000%, 0.0000%, 0.0000%, 100.0000%)" font-size="3.3" font-weight="bold" text-anchor="start" transform="translate(44.108 17.263)">
<tspan>+</tspan>
</text><path d="M50.792 15.006c0-.364.464-.728.868-.728.252 0 .436.14.436.36 0 .348-.44.728-.88.728-.268 0-.424-.156-.424-.36" /><rect width=".13" height="3.31" x="-.07" y="-2" ry=".04" transform="translate(52.029 13.322)" /></svg>