<svg xmlns="http://www.w3.org/2000/svg" width="478.9" height="155.45" viewBox="-1.32 0 75.9 24.64" fill="currentColor" font-family="Linux Libertine"><style type="text/css">tspan{white-space:pre}</style><rect width="2.07" height=".2" x="68.82" y="-.1" ry=".1" transform="translate(0 7.04)" /><rect width="1.9" height=".2" x="68.99" y="-.1" ry=".1" transform="translate(0 8.04)" /><rect width="2.07" height=".2" x="64.55" y="-.1" ry=".1" transform="translate(0 7.04)" /><rect width="2.07" height=".2" x="64.55" y="-.1" ry=".1" transform="translate(0 8.04)" /><rect width="1.96" height=".2" x="59.94" y="-.1" ry=".1" transform="translate(0 7.04)" /><rect width="1.96" height=".2" x="59.94" y="-.1" ry=".1" transform="translate(0 8.04)" /><rect width="1.96" height=".2" x="55.31" y="-.1" ry=".1" transform="translate(0 7.04)" /><rect width="1.96" height=".2" x="55.31" y="-.1" ry=".1" transform="translate(0 8.04)" /><rect width="1.96" height=".2" x="49.85" y="-.1" ry=".1" transform="translate(0 7.04)" /><rect width="1.96" height=".2" x="49.85" y="-.1" ry=".1" transform="translate(0 8.04)" /><rect width="1.96" height=".2" x="44.63" y="-.1" ry=".1" transform="translate(0 7.04)" /><rect width="1.96" height=".2" x="44.63" y="-.1" ry=".1" transform="translate(0 8.04)" /><rect width="2.07" height=".2" x="38.63" y="-.1" ry=".1" transform="translate(0 7.04)" /><rect width="2.07" height=".2" x="38.63" y="-.1" ry=".1" transform="translate(0 8.04)" /><rect width="2.07" height=".2" x="32.63" y="-.1" ry=".1" transform="translate(0 7.04)" /><path stroke="currentColor" stroke-linecap="round" stroke-linejoin="round" stroke-width=".1" d="M.05 6.04h74.48M.05 5.04h74.48M.05 4.04h74.48M.05 3.04h74.48M.05 2.04h74.48" /><rect width=".62" height="4" x="0" y="-2" ry="0" transform="translate(73.966 19.711)" /><rect width=".2" height="4" x="0" y="-2" ry="0" transform="translate(73.459 19.711)" /><rect width=".62" height="4" x="0" y="-2" ry="0" transform="translate(73.966 4.04)" /><rect width=".2" height="4" x="0" y="-2" ry="0" transform="translate(73.459 4.04)" /><rect width="1.96" height=".2" x="59.94" y="-.1" ry=".1" transform="translate(0 16.711)" /><rect width="1.96" height=".2" x="55.31" y="-.1" ry=".1" transform="translate(0 16.711)" /><rect width="1.96" height=".2" x="49.85" y="-.1" ry=".1" transform="translate(0 16.711)" /><rect width="1.96" height=".2" x="44.63" y="-.1" ry=".1" transform="translate(0 16.711)" /><rect width="2.07" height=".2" x="38.63" y="-.1" ry=".1" transform="translate(0 16.711)" /><rect width="1.96" height=".2" x="19.15" y="-.1" ry=".1" transform="translate(0 16.711)" /><rect width="1.96" height=".2" x="14.64" y="-.1" ry=".1" transform="translate(0 16.711)" /><rect width="1.96" height=".2" x="10.61" y="-.1" ry=".1" transform="translate(0 16.711)" /><rect width="1.96" height=".2" x="5.47" y="-.1" ry=".1" transform="translate(0 16.711)" /><path stroke="currentColor" stroke-linecap="round" stroke-linejoin="round" stroke-width=".1" d="M.05 21.711h74.48M.05 20.711h74.48M.05 19.711h74.48M.05 18.711h74.48M.05 17.711h74.48" /><rect width=".13" height="3.24" x="-.07" y="-1.5" ry=".04" transform="translate(40.285 4.04)" /><path d="M-1.315 1.987v-.348c0-.056.044-.1.1-.1h.2C-.38 1.539.069.995.433.459A.06.06 0 0 1 .48.431c.032 0 .068.028.068.064a.07.07 0 0 1-.012.036c-.396.576-.86 1.456-1.552 1.456zM-1.315 21.764h.3c.692 0 1.156.88 1.552 1.456a.07.07 0 0 1 .012.036c0 .036-.036.064-.068.064a.06.06 0 0 1-.048-.028c-.364-.536-.812-1.08-1.448-1.08h-.2a.1.1 0 0 1-.1-.1z" /><rect width=".45" height="19.87" x="0" y="-9.93" ry="0" transform="translate(-1.315 11.876)" /><rect width=".17" height="19.78" x="0" y="-9.89" ry=".05" transform="translate(-.066 11.876)" /><rect width=".47" height=".13" x="0" y="-.56" ry=".04" transform="translate(67.374 13.144)" /><path d="M5.8 4.724c0-.364.464-.728.868-.728.252 0 .436.14.436.36 0 .348-.44.728-.88.728-.268 0-.424-.156-.424-.36M5.8 6.224c0-.364.464-.728.868-.728.252 0 .436.14.436.36 0 .348-.44.728-.88.728-.268 0-.424-.156-.424-.36M1.864 7.58H1.84a.783.783 0 0 1-.78-.788c0-.232.212-.412.448-.412.216 0 .38.188.38.412 0 .208-.172.38-.38.38a.3.3 0 0 1-.124-.024c.104.156.272.26.468.26h.016zm.54-3.144c.076.356.192.968.24 1.416a.67.67 0 0 0 .448-.652.753.753 0 0 0-.688-.764m-1.308.492c0 .448.392.988 1.112.988q.127 0 .272-.024a17 17 0 0 0-.252-1.456c-.316.032-.496.244-.496.476 0 .176.1.364.324.492q.029.03.028.06c0 .044-.04.088-.088.088-.06 0-.504-.248-.504-.748 0-.352.232-.696.64-.788a15 15 0 0 0-.184-.7c-.428.484-.852.972-.852 1.612M2.228.264c.112 0 .572.824.572 1.444 0 .572-.344 1.02-.72 1.456.084.272.156.552.224.828.02 0 .04-.004.056-.004.62 0 1.02.516 1.02 1.048 0 .452-.296.848-.72.98q.019.21.02.42c0 .076-.004.156-.008.232-.028.476-.352.9-.808.912l.004-.172c.372-.008.612-.368.636-.764q.007-.11.008-.22.001-.184-.016-.368-.169.031-.32.032C1.22 6.088.808 5.22.808 4.592c0-.708.524-1.224.992-1.764-.116-.384-.208-.68-.208-1.384 0-.756.576-1.18.636-1.18m-.44 1.648c0 .22.048.46.14.76.328-.4.588-.808.588-1.304 0-.16-.024-.328-.084-.508a1.13 1.13 0 0 0-.644 1.052" /><text font-size="2.51" text-anchor="start" transform="translate(3.9 13.144)">
<tspan>C’est</tspan>
</text><path d="M5.8 16.895c0-.364.464-.728.868-.728.252 0 .436.14.436.36 0 .348-.44.728-.88.728-.268 0-.424-.156-.424-.36M5.8 21.395c0-.364.464-.728.868-.728.252 0 .436.14.436.36 0 .348-.44.728-.88.728-.268 0-.424-.156-.424-.36M3.028 19.211c0-.112.092-.204.204-.204s.204.092.204.204-.092.204-.204.204-.204-.092-.204-.204m0-1c0-.112.092-.204.204-.204s.204.092.204.204-.092.204-.204.204-.204-.092-.204-.204m-1.3-.552c.688 0 1.172.352 1.172 1.004 0 1.052-1.052 1.656-2.064 2.084a.05.05 0 0 1-.036.016.053.053 0 0 1-.052-.052q-.001-.018.016-.036c.808-.472 1.648-1.06 1.648-1.972 0-.48-.252-.94-.684-.94-.296 0-.516.216-.616.504a.3.3 0 0 1 .136-.032c.22 0 .4.18.4.4 0 .232-.176.424-.4.424-.24 0-.448-.188-.448-.424 0-.532.408-.976.928-.976" /><rect width=".13" height="3.31" x="-.07" y="-3" ry=".04" transform="translate(7.037 4.04)" /><rect width=".13" height="2.48" x="-.07" y="2.19" ry=".04" transform="translate(5.867 4.04)" /><rect width=".13" height="2.31" x="-.07" y="-5.5" ry=".04" transform="translate(7.037 19.711)" /><rect width=".13" height="2.65" x="-.07" y="1.69" ry=".04" transform="translate(5.867 19.711)" /><rect width=".36" height=".13" x="0" y="-.56" ry=".04" transform="translate(58.462 13.144)" /><path d="M10.941 4.724c0-.364.464-.728.868-.728.252 0 .436.14.436.36 0 .348-.44.728-.88.728-.268 0-.424-.156-.424-.36M10.941 6.224c0-.364.464-.728.868-.728.252 0 .436.14.436.36 0 .348-.44.728-.88.728-.268 0-.424-.156-.424-.36" /><text font-size="2.51" text-anchor="start" transform="translate(9.904 13.144)">
<tspan>par</tspan>
</text><path d="M10.941 16.895c0-.364.464-.728.868-.728.252 0 .436.14.436.36 0 .348-.44.728-.88.728-.268 0-.424-.156-.424-.36M10.941 21.395c0-.364.464-.728.868-.728.252 0 .436.14.436.36 0 .348-.44.728-.88.728-.268 0-.424-.156-.424-.36" /><rect width=".13" height="3.31" x="-.07" y="-3" ry=".04" transform="translate(12.178 4.04)" /><rect width=".13" height="2.48" x="-.07" y="2.19" ry=".04" transform="translate(11.008 4.04)" /><rect width=".13" height="2.31" x="-.07" y="-5.5" ry=".04" transform="translate(12.178 19.711)" /><rect width=".13" height="2.65" x="-.07" y="1.69" ry=".04" transform="translate(11.008 19.711)" /><path d="M14.968 4.724c0-.364.464-.728.868-.728.252 0 .436.14.436.36 0 .348-.44.728-.88.728-.268 0-.424-.156-.424-.36M14.968 6.224c0-.364.464-.728.868-.728.252 0 .436.14.436.36 0 .348-.44.728-.88.728-.268 0-.424-.156-.424-.36" /><text font-size="2.51" text-anchor="start" transform="translate(14.182 13.144)">
<tspan>tes</tspan>
</text><path d="M14.968 16.895c0-.364.464-.728.868-.728.252 0 .436.14.436.36 0 .348-.44.728-.88.728-.268 0-.424-.156-.424-.36M14.968 21.395c0-.364.464-.728.868-.728.252 0 .436.14.436.36 0 .348-.44.728-.88.728-.268 0-.424-.156-.424-.36" /><rect width=".13" height="3.31" x="-.07" y="-3" ry=".04" transform="translate(16.205 4.04)" /><rect width=".13" height="2.48" x="-.07" y="2.19" ry=".04" transform="translate(15.035 4.04)" /><rect width=".13" height="2.31" x="-.07" y="-5.5" ry=".04" transform="translate(16.205 19.711)" /><rect width=".13" height="2.65" x="-.07" y="1.69" ry=".04" transform="translate(15.035 19.711)" /><path d="M19.48 4.724c0-.364.464-.728.868-.728.252 0 .436.14.436.36 0 .348-.44.728-.88.728-.268 0-.424-.156-.424-.36M19.48 6.224c0-.364.464-.728.868-.728.252 0 .436.14.436.36 0 .348-.44.728-.88.728-.268 0-.424-.156-.424-.36" /><text font-size="2.51" text-anchor="start" transform="translate(17.957 13.144)">
<tspan>souf</tspan>
</text><path d="M19.48 16.895c0-.364.464-.728.868-.728.252 0 .436.14.436.36 0 .348-.44.728-.88.728-.268 0-.424-.156-.424-.36M19.48 21.395c0-.364.464-.728.868-.728.252 0 .436.14.436.36 0 .348-.44.728-.88.728-.268 0-.424-.156-.424-.36" /><rect width=".13" height="3.31" x="-.07" y="-3" ry=".04" transform="translate(20.717 4.04)" /><rect width=".13" height="2.48" x="-.07" y="2.19" ry=".04" transform="translate(19.547 4.04)" /><rect width=".13" height="2.31" x="-.07" y="-5.5" ry=".04" transform="translate(20.717 19.711)" /><rect width=".13" height="2.65" x="-.07" y="1.69" ry=".04" transform="translate(19.547 19.711)" /><path d="M24.275 5.224c0-.364.464-.728.868-.728.252 0 .436.14.436.36 0 .348-.44.728-.88.728-.268 0-.424-.156-.424-.36" /><path d="M24.275 6.224c0-.364.464-.728.868-.728.252 0 .436.14.436.36 0 .348-.44.728-.88.728-.268 0-.424-.156-.424-.36" /><text font-size="2.51" text-anchor="start" transform="translate(22.806 13.144)">
<tspan>fran</tspan>
</text><path d="M24.275 17.395c0-.364.464-.728.868-.728.252 0 .436.14.436.36 0 .348-.44.728-.88.728-.268 0-.424-.156-.424-.36M24.275 19.395c0-.364.464-.728.868-.728.252 0 .436.14.436.36 0 .348-.44.728-.88.728-.268 0-.424-.156-.424-.36" /><rect width=".13" height="3.31" x="-.07" y="-2.5" ry=".04" transform="translate(25.512 4.04)" /><rect width=".13" height="2.48" x="-.07" y="2.19" ry=".04" transform="translate(24.342 4.04)" /><rect width=".13" height="2.31" x="-.07" y="-5" ry=".04" transform="translate(25.512 19.711)" /><rect width=".13" height="3.31" x="-.07" y="-.31" ry=".04" transform="translate(24.342 19.711)" /><path stroke="currentColor" stroke-linecap="round" stroke-linejoin="round" stroke-width=".08" d="M34.574 16.666c.486-.728 1.521-.956 2.268-.5h0c-.72-.335-1.756-.107-2.268.5" /><path d="M28.746 5.224c0-.364.464-.728.868-.728.252 0 .436.14.436.36 0 .348-.44.728-.88.728-.268 0-.424-.156-.424-.36" /><path d="M28.746 6.224c0-.364.464-.728.868-.728.252 0 .436.14.436.36 0 .348-.44.728-.88.728-.268 0-.424-.156-.424-.36" /><text font-size="2.51" text-anchor="start" transform="translate(27.547 13.144)">
<tspan>ces,</tspan>
</text><path d="M28.746 17.395c0-.364.464-.728.868-.728.252 0 .436.14.436.36 0 .348-.44.728-.88.728-.268 0-.424-.156-.424-.36M28.746 19.395c0-.364.464-.728.868-.728.252 0 .436.14.436.36 0 .348-.44.728-.88.728-.268 0-.424-.156-.424-.36" /><rect width=".13" height="3.31" x="-.07" y="-2.5" ry=".04" transform="translate(29.983 4.04)" /><rect width=".13" height="2.48" x="-.07" y="2.19" ry=".04" transform="translate(28.813 4.04)" /><rect width=".13" height="2.31" x="-.07" y="-5" ry=".04" transform="translate(29.983 19.711)" /><rect width=".13" height="3.31" x="-.07" y="-.31" ry=".04" transform="translate(28.813 19.711)" /><rect width=".66" height=".13" x="0" y="-.56" ry=".04" transform="translate(35.486 13.144)" /><path d="M33.258 5.964c.16 0 .816-.44.924-.572a.2.2 0 0 0 .044-.112.166.166 0 0 0-.168-.164c-.16 0-.816.44-.924.572a.2.2 0 0 0-.04.112c0 .088.068.164.164.164m-.288-.156c0-.284.184-.812 1.032-.812.164 0 .344.04.344.276 0 .284-.184.812-1.032.812-.164 0-.344-.04-.344-.276M33.258 7.464c.16 0 .816-.44.924-.572a.2.2 0 0 0 .044-.112.166.166 0 0 0-.168-.164c-.16 0-.816.44-.924.572a.2.2 0 0 0-.04.112c0 .088.068.164.164.164m-.288-.156c0-.284.184-.812 1.032-.812.164 0 .344.04.344.276 0 .284-.184.812-1.032.812-.164 0-.344-.04-.344-.276" /><text font-size="2.51" text-anchor="start" transform="translate(32.15 13.144)">
<tspan>Sei</tspan>
</text><path d="M32.97 17.895c0-.364.464-.728.868-.728.252 0 .436.14.436.36 0 .348-.44.728-.88.728-.268 0-.424-.156-.424-.36" /><path d="M33.258 19.135c.16 0 .816-.44.924-.572a.2.2 0 0 0 .044-.112.166.166 0 0 0-.168-.164c-.16 0-.816.44-.924.572a.2.2 0 0 0-.04.112c0 .088.068.164.164.164m-.288-.156c0-.284.184-.812 1.032-.812.164 0 .344.04.344.276 0 .284-.184.812-1.032.812-.164 0-.344-.04-.344-.276" /><rect width=".13" height="3.24" x="-.07" y="-2" ry=".04" transform="translate(34.28 4.04)" /><rect width=".13" height="2.24" x="-.07" y="3.26" ry=".04" transform="translate(33.037 4.04)" /><rect width=".13" height="2.48" x="-.07" y="-4.67" ry=".04" transform="translate(34.207 19.711)" /><rect width=".13" height="3.24" x="-.07" y="-.74" ry=".04" transform="translate(33.037 19.711)" /><path d="M35.972 17.395c0-.364.464-.728.868-.728.252 0 .436.14.436.36 0 .348-.44.728-.88.728-.268 0-.424-.156-.424-.36" /><rect width=".13" height="2.31" x="-.07" y="-5" ry=".04" transform="translate(37.21 19.711)" /><rect width=".36" height=".13" x="0" y="-.56" ry=".04" transform="translate(27.117 13.144)" /><path d="M39.262 6.464c.16 0 .816-.44.924-.572a.2.2 0 0 0 .044-.112.166.166 0 0 0-.168-.164c-.16 0-.816.44-.924.572a.2.2 0 0 0-.04.112c0 .088.068.164.164.164m-.288-.156c0-.284.184-.812 1.032-.812.164 0 .344.04.344.276 0 .284-.184.812-1.032.812-.164 0-.344-.04-.344-.276M39.262 8.964c.16 0 .816-.44.924-.572a.2.2 0 0 0 .044-.112.166.166 0 0 0-.168-.164c-.16 0-.816.44-.924.572a.2.2 0 0 0-.04.112c0 .088.068.164.164.164m-.288-.156c0-.284.184-.812 1.032-.812.164 0 .344.04.344.276 0 .284-.184.812-1.032.812-.164 0-.344-.04-.344-.276" /><text font-size="2.51" text-anchor="start" transform="translate(36.464 13.144)">
<tspan>gneur,</tspan>
</text><path d="M39.262 17.135c.16 0 .816-.44.924-.572a.2.2 0 0 0 .044-.112.166.166 0 0 0-.168-.164c-.16 0-.816.44-.924.572a.2.2 0 0 0-.04.112c0 .088.068.164.164.164m-.288-.156c0-.284.184-.812 1.032-.812.164 0 .344.04.344.276 0 .284-.184.812-1.032.812-.164 0-.344-.04-.344-.276M39.262 20.635c.16 0 .816-.44.924-.572a.2.2 0 0 0 .044-.112.166.166 0 0 0-.168-.164c-.16 0-.816.44-.924.572a.2.2 0 0 0-.04.112c0 .088.068.164.164.164m-.288-.156c0-.284.184-.812 1.032-.812.164 0 .344.04.344.276 0 .284-.184.812-1.032.812-.164 0-.344-.04-.344-.276" /><rect width=".13" height="2.24" x="-.07" y="-5.5" ry=".04" transform="translate(40.285 19.711)" /><rect width=".13" height="2.91" x="-.07" y=".76" ry=".04" transform="translate(39.042 19.711)" /><rect width=".36" height=".13" x="0" y="-.56" ry=".04" transform="translate(22.376 13.144)" /><path d="M43.694 1.428c.148 0 .268.116.268.264v.08c0 .428-.408.64-.456.64a.053.053 0 0 1-.052-.052c0-.072.264-.1.32-.48h-.108a.213.213 0 0 1-.212-.212.24.24 0 0 1 .24-.24M44.96 6.224c0-.364.465-.728.869-.728.252 0 .436.14.436.36 0 .348-.44.728-.88.728-.268 0-.424-.156-.424-.36M44.96 8.724c0-.364.465-.728.869-.728.252 0 .436.14.436.36 0 .348-.44.728-.88.728-.268 0-.424-.156-.424-.36" /><text font-size="2.51" text-anchor="start" transform="translate(43.762 13.144)">
<tspan>que</tspan>
</text><path d="M43.694 17.1c.148 0 .268.115.268.263v.08c0 .428-.408.64-.456.64a.053.053 0 0 1-.052-.052c0-.072.264-.1.32-.48h-.108a.213.213 0 0 1-.212-.212.24.24 0 0 1 .24-.24M44.96 16.895c0-.364.465-.728.869-.728.252 0 .436.14.436.36 0 .348-.44.728-.88.728-.268 0-.424-.156-.424-.36M44.96 20.395c0-.364.465-.728.869-.728.252 0 .436.14.436.36 0 .348-.44.728-.88.728-.268 0-.424-.156-.424-.36" /><rect width=".13" height="3.31" x="-.07" y="-1.5" ry=".04" transform="translate(46.197 4.04)" /><rect width=".13" height="2.31" x="-.07" y="4.69" ry=".04" transform="translate(45.028 4.04)" /><rect width=".13" height="2.31" x="-.07" y="-5.5" ry=".04" transform="translate(46.197 19.711)" /><rect width=".13" height="2.98" x="-.07" y=".69" ry=".04" transform="translate(45.028 19.711)" /><path d="M50.173 6.224c0-.364.464-.728.868-.728.252 0 .436.14.436.36 0 .348-.44.728-.88.728-.268 0-.424-.156-.424-.36M50.173 8.724c0-.364.464-.728.868-.728.252 0 .436.14.436.36 0 .348-.44.728-.88.728-.268 0-.424-.156-.424-.36" /><text font-size="2.51" text-anchor="start" transform="translate(48.364 13.144)">
<tspan>nous</tspan>
</text><path d="M50.173 16.895c0-.364.464-.728.868-.728.252 0 .436.14.436.36 0 .348-.44.728-.88.728-.268 0-.424-.156-.424-.36M50.173 20.395c0-.364.464-.728.868-.728.252 0 .436.14.436.36 0 .348-.44.728-.88.728-.268 0-.424-.156-.424-.36" /><rect width=".13" height="3.31" x="-.07" y="-1.5" ry=".04" transform="translate(51.41 4.04)" /><rect width=".13" height="2.31" x="-.07" y="4.69" ry=".04" transform="translate(50.24 4.04)" /><rect width=".13" height="2.31" x="-.07" y="-5.5" ry=".04" transform="translate(51.41 19.711)" /><rect width=".13" height="2.98" x="-.07" y=".69" ry=".04" transform="translate(50.24 19.711)" /><path d="M55.638 6.224c0-.364.464-.728.868-.728.252 0 .436.14.436.36 0 .348-.44.728-.88.728-.268 0-.424-.156-.424-.36M55.638 8.224c0-.364.464-.728.868-.728.252 0 .436.14.436.36 0 .348-.44.728-.88.728-.268 0-.424-.156-.424-.36" /><text font-size="2.51" text-anchor="start" transform="translate(54.187 13.144)">
<tspan>som</tspan>
</text><path d="M55.638 16.895c0-.364.464-.728.868-.728.252 0 .436.14.436.36 0 .348-.44.728-.88.728-.268 0-.424-.156-.424-.36M55.638 21.395c0-.364.464-.728.868-.728.252 0 .436.14.436.36 0 .348-.44.728-.88.728-.268 0-.424-.156-.424-.36" /><rect width=".13" height="3.31" x="-.07" y="-1.5" ry=".04" transform="translate(56.875 4.04)" /><rect width=".13" height="2.31" x="-.07" y="4.19" ry=".04" transform="translate(55.705 4.04)" /><rect width=".13" height="2.31" x="-.07" y="-5.5" ry=".04" transform="translate(56.875 19.711)" /><rect width=".13" height="2.65" x="-.07" y="1.69" ry=".04" transform="translate(55.705 19.711)" /><path d="M60.271 6.224c0-.364.464-.728.868-.728.252 0 .436.14.436.36 0 .348-.44.728-.88.728-.268 0-.424-.156-.424-.36M60.271 8.224c0-.364.464-.728.868-.728.252 0 .436.14.436.36 0 .348-.44.728-.88.728-.268 0-.424-.156-.424-.36" /><text font-size="2.51" text-anchor="start" transform="translate(58.892 13.144)">
<tspan>mes</tspan>
</text><path d="M60.271 16.895c0-.364.464-.728.868-.728.252 0 .436.14.436.36 0 .348-.44.728-.88.728-.268 0-.424-.156-.424-.36M60.271 21.395c0-.364.464-.728.868-.728.252 0 .436.14.436.36 0 .348-.44.728-.88.728-.268 0-.424-.156-.424-.36" /><rect width=".13" height="3.31" x="-.07" y="-1.5" ry=".04" transform="translate(61.508 4.04)" /><rect width=".13" height="2.31" x="-.07" y="4.19" ry=".04" transform="translate(60.338 4.04)" /><rect width=".13" height="2.31" x="-.07" y="-5.5" ry=".04" transform="translate(61.508 19.711)" /><rect width=".13" height="2.65" x="-.07" y="1.69" ry=".04" transform="translate(60.338 19.711)" /><path d="M65.178 6.464c.16 0 .816-.44.924-.572a.2.2 0 0 0 .044-.112.166.166 0 0 0-.168-.164c-.16 0-.816.44-.924.572a.2.2 0 0 0-.04.112c0 .088.068.164.164.164m-.288-.156c0-.284.184-.812 1.032-.812.164 0 .344.04.344.276 0 .284-.184.812-1.032.812-.164 0-.344-.04-.344-.276M65.178 8.464c.16 0 .816-.44.924-.572a.2.2 0 0 0 .044-.112.166.166 0 0 0-.168-.164c-.16 0-.816.44-.924.572a.2.2 0 0 0-.04.112c0 .088.068.164.164.164m-.288-.156c0-.284.184-.812 1.032-.812.164 0 .344.04.344.276 0 .284-.184.812-1.032.812-.164 0-.344-.04-.344-.276" /><text font-size="2.51" text-anchor="start" transform="translate(63.854 13.144)">
<tspan>sau</tspan>
</text><path d="M65.178 17.635c.16 0 .816-.44.924-.572a.2.2 0 0 0 .044-.112.166.166 0 0 0-.168-.164c-.16 0-.816.44-.924.572a.2.2 0 0 0-.04.112c0 .088.068.164.164.164m-.288-.156c0-.284.184-.812 1.032-.812.164 0 .344.04.344.276 0 .284-.184.812-1.032.812-.164 0-.344-.04-.344-.276M65.178 19.635c.16 0 .816-.44.924-.572a.2.2 0 0 0 .044-.112.166.166 0 0 0-.168-.164c-.16 0-.816.44-.924.572a.2.2 0 0 0-.04.112c0 .088.068.164.164.164m-.288-.156c0-.284.184-.812 1.032-.812.164 0 .344.04.344.276 0 .284-.184.812-1.032.812-.164 0-.344-.04-.344-.276" /><rect width=".13" height="3.24" x="-.07" y="-1.5" ry=".04" transform="translate(66.2 4.04)" /><rect width=".13" height="2.24" x="-.07" y="4.26" ry=".04" transform="translate(64.957 4.04)" /><rect width=".13" height="2.24" x="-.07" y="-5" ry=".04" transform="translate(66.2 19.711)" /><rect width=".13" height="3.24" x="-.07" y="-.24" ry=".04" transform="translate(64.957 19.711)" /><path d="M69.454 6.464c.16 0 .816-.44.924-.572a.2.2 0 0 0 .044-.112.166.166 0 0 0-.168-.164c-.16 0-.816.44-.924.572a.2.2 0 0 0-.04.112c0 .088.068.164.164.164m-.288-.156c0-.284.184-.812 1.032-.812.164 0 .344.04.344.276 0 .284-.184.812-1.032.812-.164 0-.344-.04-.344-.276M69.586 1.26a.268.268 0 1 1 .536 0 .268.268 0 0 1-.536 0m-1.06.204c0-.14.308-1.464 1.328-1.464s1.328 1.324 1.328 1.464c0 .036-.04.06-.076.06s-.068-.02-.076-.072C70.926.86 70.446.404 69.854.404s-1.072.456-1.176 1.048c-.008.052-.04.072-.076.072s-.076-.024-.076-.06M69.454 8.964c.16 0 .816-.44.924-.572a.2.2 0 0 0 .044-.112.166.166 0 0 0-.168-.164c-.16 0-.816.44-.924.572a.2.2 0 0 0-.04.112c0 .088.068.164.164.164m-.288-.156c0-.284.184-.812 1.032-.812.164 0 .344.04.344.276 0 .284-.184.812-1.032.812-.164 0-.344-.04-.344-.276" /><text font-size="2.51" text-anchor="start" transform="translate(67.913 13.144)">
<tspan>vés.</tspan>
</text><path d="M69.454 17.635c.16 0 .816-.44.924-.572a.2.2 0 0 0 .044-.112.166.166 0 0 0-.168-.164c-.16 0-.816.44-.924.572a.2.2 0 0 0-.04.112c0 .088.068.164.164.164m-.288-.156c0-.284.184-.812 1.032-.812.164 0 .344.04.344.276 0 .284-.184.812-1.032.812-.164 0-.344-.04-.344-.276M69.454 19.635c.16 0 .816-.44.924-.572a.2.2 0 0 0 .044-.112.166.166 0 0 0-.168-.164c-.16 0-.816.44-.924.572a.2.2 0 0 0-.04.112c0 .088.068.164.164.164m-.288-.156c0-.284.184-.812 1.032-.812.164 0 .344.04.344.276 0 .284-.184.812-1.032.812-.164 0-.344-.04-.344-.276M69.586 23.38a.268.268 0 1 1 .536 0 .268.268 0 0 1-.536 0m1.596-.205c0 .14-.308 1.464-1.328 1.464s-1.328-1.324-1.328-1.464c0-.036.04-.06.076-.06s.068.02.076.072c.104.592.584 1.048 1.176 1.048s1.072-.456 1.176-1.048c.008-.052.04-.072.076-.072s.076.024.076.06" /><rect width=".13" height="3.24" x="-.07" y="-1.5" ry=".04" transform="translate(70.476 4.04)" /><rect width=".13" height="2.24" x="-.07" y="4.76" ry=".04" transform="translate(69.233 4.04)" /><path d="M67.716 8.064c0-.032.02-.06.052-.072l.184-.068v-.632c0-.04.032-.076.072-.076s.076.036.076.076v.58l.332-.124v-.632c0-.04.036-.076.076-.076s.072.036.072.076v.58l.128-.048c.008-.004.02-.004.028-.004a.08.08 0 0 1 .08.08v.24c0 .032-.02.064-.052.076l-.184.064v.64l.128-.044c.008-.004.02-.004.028-.004a.08.08 0 0 1 .08.08v.24c0 .032-.02.06-.052.072l-.184.068v.632c0 .04-.032.076-.072.076s-.076-.036-.076-.076v-.58l-.332.124v.632c0 .04-.036.076-.076.076s-.072-.036-.072-.076v-.58l-.128.048q-.014.005-.028.004a.08.08 0 0 1-.08-.08v-.24c0-.032.02-.064.052-.076l.184-.064v-.64l-.128.044q-.014.005-.028.004a.08.08 0 0 1-.08-.08zm.716.096-.332.12v.64l.332-.12z" /><rect width=".13" height="2.24" x="-.07" y="-5" ry=".04" transform="translate(70.476 19.711)" /><rect width=".13" height="3.24" x="-.07" y="-.24" ry=".04" transform="translate(69.233 19.711)" /><rect width=".13" height="2.24" x="-.07" y="4.76" ry=".04" transform="translate(39.042 4.04)" /></svg>