<svg xmlns="http://www.w3.org/2000/svg" width="680.31" height="123.78" viewBox="0 -3.52 107.82 19.62" fill="currentColor" font-family="Linux Libertine"><style type="text/css">tspan{white-space:pre}</style><rect width=".2" height="4" x="0" y="-2" ry="0" transform="translate(23.176 1.639)" /><path stroke="currentColor" stroke-linecap="round" stroke-linejoin="round" stroke-width=".1" d="M.05 3.639h107.72M.05 2.639h107.72M.05 1.639h107.72M.05.639h107.72M.05-.361h107.72" /><rect width=".62" height="4" x="0" y="-2" ry="0" transform="translate(107.2 1.639)" /><rect width=".2" height="4" x="0" y="-2" ry="0" transform="translate(106.693 1.639)" /><rect width=".2" height="4" x="0" y="-2" ry="0" transform="translate(97.067 1.639)" /><rect width=".2" height="4" x="0" y="-2" ry="0" transform="translate(70.009 1.639)" /><rect width=".2" height="4" x="0" y="-2" ry="0" transform="translate(47.688 1.639)" /><rect width=".13" height="2.81" x="-.07" y="-3" ry=".04" transform="translate(59.551 1.639)" /><text font-size="1.85" text-anchor="start" transform="translate(10.135 -1.88)">
<tspan>Mi</tspan>
</text><text font-size="1.85" text-anchor="start" transform="translate(12.855 -1.88)">
<tspan>m</tspan>
</text><path d="M10.135 1.823c0-.364.464-.728.868-.728.252 0 .436.14.436.36 0 .348-.44.728-.88.728-.268 0-.424-.156-.424-.36M1.864 5.179H1.84a.783.783 0 0 1-.78-.788c0-.232.212-.412.448-.412.216 0 .38.188.38.412 0 .208-.172.38-.38.38a.3.3 0 0 1-.124-.024c.104.156.272.26.468.26h.016zm.54-3.144c.076.356.192.968.24 1.416a.67.67 0 0 0 .448-.652.753.753 0 0 0-.688-.764m-1.308.492c0 .448.392.988 1.112.988q.127 0 .272-.024a17 17 0 0 0-.252-1.456c-.316.032-.496.244-.496.476 0 .176.1.364.324.492q.029.03.028.06c0 .044-.04.088-.088.088-.06 0-.504-.248-.504-.748 0-.352.232-.696.64-.788a15 15 0 0 0-.184-.7c-.428.484-.852.972-.852 1.612m1.132-4.664c.112 0 .572.824.572 1.444 0 .572-.344 1.02-.72 1.456.084.272.156.552.224.828q.031-.002.056-.004c.62 0 1.02.516 1.02 1.048 0 .452-.296.848-.72.98q.019.21.02.42-.001.116-.008.232c-.028.476-.352.9-.808.912l.004-.172c.372-.008.612-.368.636-.764q.007-.11.008-.22c0-.124-.004-.244-.016-.368q-.169.031-.32.032C1.22 3.687.808 2.819.808 2.19c0-.708.524-1.224.992-1.764-.116-.384-.208-.68-.208-1.384 0-.756.576-1.18.636-1.18M1.788-.49c0 .22.048.46.14.76.328-.4.588-.808.588-1.304 0-.16-.024-.328-.084-.508A1.13 1.13 0 0 0 1.788-.49M4.185-.837c0-.032.02-.06.052-.072l.184-.068v-.632c0-.04.032-.076.072-.076s.076.036.076.076v.58l.332-.124v-.632c0-.04.036-.076.076-.076s.072.036.072.076v.58l.128-.048q.014-.005.028-.004a.08.08 0 0 1 .08.08v.24c0 .032-.02.064-.052.076l-.184.064v.64l.128-.044q.014-.005.028-.004a.08.08 0 0 1 .08.08v.24c0 .032-.02.06-.052.072l-.184.068v.632c0 .04-.032.076-.072.076S4.901.927 4.901.887v-.58L4.569.43v.632c0 .04-.036.076-.076.076s-.072-.036-.072-.076v-.58L4.293.53q-.014.005-.028.004a.08.08 0 0 1-.08-.08v-.24c0-.032.02-.064.052-.076l.184-.064v-.64l-.128.044q-.014.005-.028.004a.08.08 0 0 1-.08-.08zm.716.096-.332.12v.64l.332-.12zM8.167 1.995c0 .088-.2.696-.732.696-.236 0-1-.076-1-1.052 0-.248.072-1.048 1-1.048.464 0 .704.424.704.652 0 .16-.12.288-.268.288-.124 0-.3-.1-.3-.3 0-.152.108-.308.288-.308q.025-.001.056.004a.6.6 0 0 0-.48-.236c-.424 0-.452.292-.452.744v.408c0 .452.028.748.452.748.32 0 .556-.28.632-.604.008-.028.028-.04.048-.04.024 0 .052.016.052.048" /><text font-size="2.47" text-anchor="start" transform="translate(8.649 7.196)">
<tspan>Gloi</tspan>
</text><rect width=".13" height="3.15" x="-.07" y=".19" ry=".04" transform="translate(10.202 1.639)" /><path d="M15.789 2.323c0-.364.464-.728.868-.728.252 0 .436.14.436.36 0 .348-.44.728-.88.728-.268 0-.424-.156-.424-.36" /><text font-size="2.47" text-anchor="start" transform="translate(14.578 7.196)">
<tspan>re</tspan>
</text><path d="M17.939 7.646c0 .054-.378.392-1.049.392s-1.048-.338-1.048-.392c0-.031.027-.063.063-.063.013 0 .027 0 .04.014.252.22.608.234.945.234s.693-.014.945-.234c.014-.014.027-.014.04-.014.037 0 .064.032.064.063" /><text font-size="2.47" text-anchor="start" transform="translate(17.19 7.196)">
<tspan>à</tspan>
</text><rect width=".13" height="3.13" x="-.07" y="-2.81" ry=".04" transform="translate(17.026 1.639)" /><path d="M19.558 1.823c0-.364.464-.728.868-.728.252 0 .436.14.436.36 0 .348-.44.728-.88.728-.268 0-.424-.156-.424-.36" /><text font-size="2.47" text-anchor="start" transform="translate(18.755 7.196)">
<tspan>l’A</tspan>
</text><rect width=".13" height="2.81" x="-.07" y="-3" ry=".04" transform="translate(20.795 1.639)" /><rect width=".66" height=".13" x="0" y="-.55" ry=".04" transform="translate(74.77 7.196)" /><text font-size="1.85" text-anchor="start" transform="translate(24.773 -1.88)">
<tspan>La</tspan>
</text><text font-size="1.85" text-anchor="start" transform="translate(27.206 -1.88)">
<tspan>m</tspan>
</text><path d="M24.774 1.323c0-.364.463-.728.867-.728.252 0 .436.14.436.36 0 .348-.44.728-.88.728-.268 0-.424-.156-.424-.36" /><text font-size="2.47" text-anchor="start" transform="translate(22.389 7.196)">
<tspan>gneau</tspan>
</text><rect width=".13" height="3.31" x="-.07" y="-.31" ry=".04" transform="translate(24.84 1.639)" /><path d="M30.427 1.823c0-.364.464-.728.868-.728.252 0 .436.14.436.36 0 .348-.44.728-.88.728-.268 0-.424-.156-.424-.36" /><text font-size="2.47" text-anchor="start" transform="translate(29.768 7.196)">
<tspan>im</tspan>
</text><rect width=".13" height="2.81" x="-.07" y="-3" ry=".04" transform="translate(31.664 1.639)" /><path stroke="currentColor" stroke-linecap="round" stroke-linejoin="round" stroke-width=".08" d="M59.576-1.56v.396l-3.538.189v-.396z" /><path d="M33.916 2.323c0-.364.464-.728.868-.728.252 0 .436.14.436.36 0 .348-.44.728-.88.728-.268 0-.424-.156-.424-.36" /><text font-size="2.47" text-anchor="start" transform="translate(32.968 7.196)">
<tspan>mo</tspan>
</text><rect width=".13" height="3.13" x="-.07" y="-2.82" ry=".04" transform="translate(35.153 1.639)" /><text font-size="1.85" text-anchor="start" transform="translate(37.422 -1.88)">
<tspan>Mi</tspan>
</text><text font-size="1.85" text-anchor="start" transform="translate(40.142 -1.88)">
<tspan>m</tspan>
</text><path d="M37.422 1.823c0-.364.464-.728.868-.728.252 0 .436.14.436.36 0 .348-.44.728-.88.728-.268 0-.424-.156-.424-.36" /><text font-size="2.47" text-anchor="start" transform="translate(37.194 7.196)">
<tspan>lé</tspan>
</text><path d="M39.176 1.139a.224.224 0 1 1 .447-.001.224.224 0 0 1-.447 0" /><rect width=".13" height="3.15" x="-.07" y=".19" ry=".04" transform="translate(37.49 1.639)" /><path d="M44.14 3.823c0-.364.463-.728.867-.728.252 0 .436.14.436.36 0 .348-.44.728-.88.728-.268 0-.424-.156-.424-.36" /><text font-size="2.47" text-anchor="start" transform="translate(43.048 7.196)">
<tspan>por</tspan>
</text><rect width=".13" height="3.31" x="-.07" y="-1.5" ry=".04" transform="translate(45.376 1.639)" /><path d="M45.443.18v1.5h-.064V.18zm.492 2.917c0-.04.168-.348.168-.784 0-.412-.376-.832-.66-1.132v-1c0 .788.828 1.344.828 2.132 0 .284-.06.564-.164.828a.1.1 0 0 1-.08.048.09.09 0 0 1-.092-.092" /><rect width=".66" height=".13" x="0" y="-.55" ry=".04" transform="translate(46.834 7.196)" /><text font-size="1.85" text-anchor="start" transform="translate(49.154 -1.88)">
<tspan>Ré</tspan>
</text><path d="M49.154 2.323c0-.364.464-.728.868-.728.252 0 .436.14.436.36 0 .348-.44.728-.88.728-.268 0-.424-.156-.424-.36" /><text font-size="2.47" text-anchor="start" transform="translate(47.793 7.196)">
<tspan>tant</tspan>
</text><rect width=".13" height="3.31" x="-.07" y="-3" ry=".04" transform="translate(50.39 1.639)" /><path d="M54.826 2.323c0-.364.464-.728.868-.728.252 0 .436.14.436.36 0 .348-.44.728-.88.728-.268 0-.424-.156-.424-.36" /><text font-size="2.47" text-anchor="start" transform="translate(53.7 7.196)">
<tspan>nos</tspan>
</text><rect width=".13" height="3.13" x="-.07" y="-2.82" ry=".04" transform="translate(56.063 1.639)" /><path stroke="currentColor" stroke-linecap="round" stroke-linejoin="round" stroke-width=".08" d="M35.178-1.371v.396l-3.539-.188v-.396z" /><path d="M58.314 1.823c0-.364.464-.728.868-.728.252 0 .436.14.436.36 0 .348-.44.728-.88.728-.268 0-.424-.156-.424-.36" /><path stroke="currentColor" stroke-linecap="round" stroke-linejoin="round" stroke-width=".08" d="M82.178-.56v.396l-3.82.189v-.396z" /><rect width=".66" height=".13" x="0" y="-.55" ry=".04" transform="translate(36.35 7.196)" /><text font-size="1.85" text-anchor="start" transform="translate(62.08 -1.88)">
<tspan>Mi</tspan>
</text><text font-size="1.85" text-anchor="start" transform="translate(64.8 -1.88)">
<tspan>m</tspan>
</text><path d="M62.368 3.063c.16 0 .816-.44.924-.572a.2.2 0 0 0 .044-.112.166.166 0 0 0-.168-.164c-.16 0-.816.44-.924.572a.2.2 0 0 0-.04.112c0 .088.068.164.164.164m-.288-.156c0-.284.184-.812 1.032-.812.164 0 .344.04.344.276 0 .284-.184.812-1.032.812-.164 0-.344-.04-.344-.276" /><text font-size="2.47" text-anchor="start" transform="translate(60.27 7.196)">
<tspan>chés.</tspan>
</text><rect width=".13" height="3.24" x="-.07" y="-2.5" ry=".04" transform="translate(63.39 1.639)" /><rect width=".44" height=".13" x="0" y="-.55" ry=".04" transform="translate(32.461 7.196)" /><text font-size="1.85" text-anchor="start" transform="translate(71.475 -1.88)">
<tspan>Ré</tspan>
</text><path d="M68.749-.973c.148 0 .268.116.268.264v.08c0 .428-.408.64-.456.64a.053.053 0 0 1-.052-.052c0-.072.264-.1.32-.48h-.108a.213.213 0 0 1-.212-.212.24.24 0 0 1 .24-.24M71.475 3.323c0-.364.464-.728.868-.728.251 0 .435.14.435.36 0 .348-.44.728-.88.728-.267 0-.423-.156-.423-.36" /><text font-size="2.47" text-anchor="start" transform="translate(69.988 7.196)">
<tspan>Gloi</tspan>
</text><rect width=".13" height="3.31" x="-.07" y="-2" ry=".04" transform="translate(72.711 1.639)" /><path stroke="currentColor" stroke-linecap="round" stroke-linejoin="round" stroke-width=".08" d="M20.82-1.56v.396L17-.975v-.396z" /><path d="M77.147 3.323c0-.364.464-.728.868-.728.252 0 .436.14.436.36 0 .348-.44.728-.88.728-.268 0-.424-.156-.424-.36" /><text font-size="2.47" text-anchor="start" transform="translate(75.935 7.196)">
<tspan>re</tspan>
</text><path d="M79.297 7.646c0 .054-.378.392-1.049.392S77.2 7.7 77.2 7.646c0-.031.026-.063.062-.063.014 0 .028 0 .041.014.252.22.607.234.945.234s.693-.014.945-.234c.013-.014.027-.014.04-.014.036 0 .063.032.063.063" /><text font-size="2.47" text-anchor="start" transform="translate(78.548 7.196)">
<tspan>à</tspan>
</text><rect width=".13" height="3.13" x="-.07" y="-1.81" ry=".04" transform="translate(78.384 1.639)" /><rect width=".58" height=".13" x="0" y="-.55" ry=".04" transform="translate(21.736 7.196)" /><path d="M80.916 2.823c0-.364.464-.728.868-.728.252 0 .436.14.436.36 0 .348-.44.728-.88.728-.268 0-.424-.156-.424-.36" /><text font-size="2.47" text-anchor="start" transform="translate(80.112 7.196)">
<tspan>l’A</tspan>
</text><rect width=".13" height="2.81" x="-.07" y="-2" ry=".04" transform="translate(82.153 1.639)" /><text font-size="1.85" text-anchor="start" transform="translate(85.508 -1.88)">
<tspan>Si</tspan>
</text><text font-size="1.31" text-anchor="start" transform="translate(87.11 -2.72)">
<tspan>4</tspan>
</text><path d="M85.508 3.823c0-.364.464-.728.868-.728.252 0 .436.14.436.36 0 .348-.44.728-.88.728-.268 0-.424-.156-.424-.36" /><text font-size="2.47" text-anchor="start" transform="translate(83.123 7.196)">
<tspan>gneau</tspan>
</text><rect width=".13" height="3.31" x="-.07" y="-1.5" ry=".04" transform="translate(86.745 1.639)" /><rect width=".66" height=".13" x="0" y="-.55" ry=".04" transform="translate(13.422 7.196)" /><text font-size="1.85" text-anchor="start" transform="translate(91.18 -1.88)">
<tspan>Si</tspan>
</text><text font-size="1.85" text-anchor="start" transform="translate(93.182 -1.88)">
<tspan>m</tspan>
</text><text font-size="1.31" text-anchor="start" transform="translate(94.692 -2.72)">
<tspan>7</tspan>
</text><path d="M91.18 4.323c0-.364.464-.728.868-.728.252 0 .436.14.436.36 0 .348-.44.728-.88.728-.268 0-.424-.156-.424-.36" /><text font-size="2.47" text-anchor="start" transform="translate(90.646 7.196)">
<tspan>de</tspan>
</text><rect width=".13" height="3.31" x="-.07" y="-1" ry=".04" transform="translate(92.417 1.639)" /><text font-size="1.85" text-anchor="start" transform="translate(98.532 -1.88)">
<tspan>Mi</tspan>
</text><text font-size="1.85" text-anchor="start" transform="translate(101.253 -1.88)">
<tspan>m</tspan>
</text><path d="M98.82 4.063c.16 0 .816-.44.924-.572a.2.2 0 0 0 .044-.112.166.166 0 0 0-.168-.164c-.16 0-.816.44-.924.572a.2.2 0 0 0-.04.112c0 .088.068.164.164.164m-.288-.156c0-.284.184-.812 1.032-.812.164 0 .344.04.344.276 0 .284-.184.812-1.032.812-.164 0-.344-.04-.344-.276" /><text font-size="2.47" text-anchor="start" transform="translate(96.544 7.196)">
<tspan>Dieu.</tspan>
</text><rect width=".13" height="3.24" x="-.07" y="-1.5" ry=".04" transform="translate(99.843 1.639)" /><text font-size="2.47" text-anchor="start" transform="translate(57.762 7.196)">
<tspan>pé</tspan>
</text><rect width=".2" height="4" x="0" y="-2" ry="0" transform="translate(23.883 12.55)" /><path stroke="currentColor" stroke-linecap="round" stroke-linejoin="round" stroke-width=".1" d="M.05 14.55h76.92M.05 13.55h76.92M.05 12.55h76.92M.05 11.55h76.92M.05 10.55h76.92" /><rect width=".62" height="4" x="0" y="-2" ry="0" transform="translate(76.403 12.55)" /><rect width=".2" height="4" x="0" y="-2" ry="0" transform="translate(75.896 12.55)" /><rect width=".2" height="4" x="0" y="-2" ry="0" transform="translate(58.57 12.55)" /><rect width=".2" height="4" x="0" y="-2" ry="0" transform="translate(41.112 12.55)" /><text font-size="1.85" text-anchor="start" transform="translate(72.322 9.532)">
<tspan>Si</tspan>
</text><path d="M1.864 16.09H1.84a.783.783 0 0 1-.78-.788c0-.232.212-.412.448-.412.216 0 .38.188.38.412 0 .208-.172.38-.38.38a.3.3 0 0 1-.124-.024c.104.156.272.26.468.26h.016zm.54-3.144c.076.356.192.968.24 1.416a.67.67 0 0 0 .448-.652.753.753 0 0 0-.688-.764m-1.308.492c0 .448.392.988 1.112.988q.127 0 .272-.024a17 17 0 0 0-.252-1.456c-.316.032-.496.244-.496.476 0 .176.1.364.324.492q.029.03.028.06c0 .044-.04.088-.088.088-.06 0-.504-.248-.504-.748 0-.352.232-.696.64-.788a15 15 0 0 0-.184-.7c-.428.484-.852.972-.852 1.612m1.132-4.664c.112 0 .572.824.572 1.444 0 .572-.344 1.02-.72 1.456.084.272.156.552.224.828q.031-.002.056-.004c.62 0 1.02.516 1.02 1.048 0 .452-.296.848-.72.98q.019.21.02.42c0 .076-.004.156-.008.232-.028.476-.352.9-.808.912l.004-.172c.372-.008.612-.368.636-.764q.007-.11.008-.22.001-.184-.016-.368-.169.031-.32.032c-.956 0-1.368-.868-1.368-1.496 0-.708.524-1.224.992-1.764-.116-.384-.208-.68-.208-1.384 0-.756.576-1.18.636-1.18m-.44 1.648c0 .22.048.46.14.76.328-.4.588-.808.588-1.304 0-.16-.024-.328-.084-.508a1.13 1.13 0 0 0-.644 1.052M4.185 10.074c0-.032.02-.06.052-.072l.184-.068v-.632c0-.04.032-.076.072-.076s.076.036.076.076v.58l.332-.124v-.632c0-.04.036-.076.076-.076s.072.036.072.076v.58l.128-.048q.014-.005.028-.004a.08.08 0 0 1 .08.08v.24c0 .032-.02.064-.052.076l-.184.064v.64l.128-.044q.014-.005.028-.004a.08.08 0 0 1 .08.08v.24c0 .032-.02.06-.052.072l-.184.068v.632c0 .04-.032.076-.072.076s-.076-.036-.076-.076v-.58l-.332.124v.632c0 .04-.036.076-.076.076s-.072-.036-.072-.076v-.58l-.128.048q-.014.005-.028.004a.08.08 0 0 1-.08-.08v-.24c0-.032.02-.064.052-.076l.184-.064v-.64l-.128.044q-.014.005-.028.004a.08.08 0 0 1-.08-.08zm.716.096-.332.12v.64l.332-.12z" /><path stroke="currentColor" stroke-linecap="round" stroke-linejoin="round" stroke-width=".08" d="M69.749 15.164v.395l-2.715.189v-.396z" /><text font-size="1.85" text-anchor="start" transform="translate(7.785 9.532)">
<tspan>Mi</tspan>
</text><text font-size="1.85" text-anchor="start" transform="translate(10.505 9.532)">
<tspan>m</tspan>
</text><path d="M10.165 15.19c0 .044-.036.08-.08.08s-.08-.036-.08-.08v-1.28c0-.044.036-.08.08-.08s.08.036.08.08zm-2.668 0c0 .044-.036.08-.08.08s-.08-.036-.08-.08v-1.28c0-.044.036-.08.08-.08s.08.036.08.08zm1.256-1.184c.012 0 .836.008.968.452v-.548c0-.044.036-.08.08-.08s.08.036.08.08v1.28c0 .044-.036.08-.08.08s-.08-.036-.08-.08v-.548c-.068.224-.424.452-.968.452-.012 0-.836-.008-.968-.452v.548c0 .044-.036.08-.08.08s-.08-.036-.08-.08v-1.28c0-.044.036-.08.08-.08s.08.036.08.08v.548c.068-.224.424-.452.968-.452m.408.648c0-.408-.36-.556-.536-.556-.092 0-.28.04-.28.356a.54.54 0 0 0 .532.544c.088 0 .284-.032.284-.344" /><path stroke="currentColor" stroke-linecap="round" stroke-linejoin="round" stroke-width=".08" d="M52.05 14.54v.396l-2.57-.188v-.396z" /><text font-size="1.85" text-anchor="start" transform="translate(14.967 9.532)">
<tspan>Si</tspan>
</text><text font-size="1.85" text-anchor="start" transform="translate(16.968 9.532)">
<tspan>m</tspan>
</text><path d="M14.967 14.234c0-.364.464-.728.868-.728.252 0 .436.14.436.36 0 .348-.44.728-.88.728-.268 0-.424-.156-.424-.36" /><rect width=".13" height="3.31" x="-.07" y="-2" ry=".04" transform="translate(16.204 12.55)" /><path d="M16.271 10.592v1.5h-.064v-1.5zm.492 2.916c0-.04.168-.348.168-.784 0-.412-.376-.832-.66-1.132v-1c0 .788.828 1.344.828 2.132 0 .284-.06.564-.164.828a.1.1 0 0 1-.08.048.09.09 0 0 1-.092-.092M14.619 7.932c0 .068-.252.232-.252 1s.252.932.252 1a.053.053 0 0 1-.052.052q-.023 0-.04-.024c-.212-.304-.36-.656-.36-1.028s.148-.724.36-1.028q.017-.024.04-.024c.028 0 .052.024.052.052M18.826 9.932c0-.068.252-.232.252-1s-.252-.932-.252-1c0-.028.024-.052.052-.052q.023 0 .04.024c.212.304.36.656.36 1.028s-.148.724-.36 1.028q-.017.024-.04.024a.053.053 0 0 1-.052-.052" /><text font-size="1.85" text-anchor="start" transform="translate(19.978 9.532)">
<tspan>Do</tspan>
</text><path d="M19.978 13.734c0-.364.464-.728.868-.728.252 0 .436.14.436.36 0 .348-.44.728-.88.728-.268 0-.424-.156-.424-.36" /><rect width=".13" height="3.31" x="-.07" y="-2.5" ry=".04" transform="translate(21.215 12.55)" /><text font-size="1.85" text-anchor="start" transform="translate(25.026 9.532)">
<tspan>La</tspan>
</text><text font-size="1.85" text-anchor="start" transform="translate(27.46 9.532)">
<tspan>m</tspan>
</text><path d="M27.406 13.69c0 .044-.036.08-.08.08s-.08-.036-.08-.08v-1.28c0-.044.036-.08.08-.08s.08.036.08.08zm-2.668 0c0 .044-.036.08-.08.08s-.08-.036-.08-.08v-1.28c0-.044.036-.08.08-.08s.08.036.08.08zm1.256-1.184c.012 0 .836.008.968.452v-.548c0-.044.036-.08.08-.08s.08.036.08.08v1.28c0 .044-.036.08-.08.08s-.08-.036-.08-.08v-.548c-.068.224-.424.452-.968.452-.012 0-.836-.008-.968-.452v.548c0 .044-.036.08-.08.08s-.08-.036-.08-.08v-1.28c0-.044.036-.08.08-.08s.08.036.08.08v.548c.068-.224.424-.452.968-.452m.408.648c0-.408-.36-.556-.536-.556-.092 0-.28.04-.28.356a.54.54 0 0 0 .532.544c.088 0 .284-.032.284-.344" /><text font-size="1.85" text-anchor="start" transform="translate(32.208 9.532)">
<tspan>Mi</tspan>
</text><text font-size="1.85" text-anchor="start" transform="translate(34.928 9.532)">
<tspan>m</tspan>
</text><path d="M32.208 12.734c0-.364.464-.728.868-.728.252 0 .436.14.436.36 0 .348-.44.728-.88.728-.268 0-.424-.156-.424-.36" /><rect width=".13" height="2.81" x="-.07" y=".19" ry=".04" transform="translate(32.275 12.55)" /><path d="M34.873 12.234c0-.364.464-.728.868-.728.252 0 .436.14.436.36 0 .348-.44.728-.88.728-.268 0-.424-.156-.424-.36" /><rect width=".13" height="3.13" x="-.07" y="-.31" ry=".04" transform="translate(34.94 12.55)" /><text font-size="1.85" text-anchor="start" transform="translate(37.538 9.532)">
<tspan>Si</tspan>
</text><path d="M37.538 12.734c0-.364.464-.728.868-.728.252 0 .436.14.436.36 0 .348-.44.728-.88.728-.268 0-.424-.156-.424-.36" /><rect width=".13" height="3.15" x="-.07" y=".19" ry=".04" transform="translate(37.605 12.55)" /><text font-size="1.85" text-anchor="start" transform="translate(42.255 9.532)">
<tspan>Do</tspan>
</text><path d="M44.636 12.69c0 .044-.037.08-.08.08s-.08-.036-.08-.08v-1.28c0-.044.036-.08.08-.08s.08.036.08.08zm-2.669 0c0 .044-.035.08-.08.08s-.08-.036-.08-.08v-1.28c0-.044.037-.08.08-.08s.08.036.08.08zm1.257-1.184c.012 0 .836.008.968.452v-.548c0-.044.036-.08.08-.08s.08.036.08.08v1.28c0 .044-.036.08-.08.08s-.08-.036-.08-.08v-.548c-.068.224-.424.452-.968.452-.012 0-.836-.008-.968-.452v.548c0 .044-.037.08-.08.08s-.08-.036-.08-.08v-1.28c0-.044.036-.08.08-.08s.08.036.08.08v.548c.067-.224.423-.452.967-.452m.407.648c0-.408-.36-.556-.536-.556-.092 0-.28.04-.28.356a.54.54 0 0 0 .532.544c.088 0 .284-.032.284-.344" /><path stroke="currentColor" stroke-linecap="round" stroke-linejoin="round" stroke-width=".08" d="M34.965 15.164v.395l-2.715.189v-.396z" /><text font-size="1.85" text-anchor="start" transform="translate(49.437 9.532)">
<tspan>La</tspan>
</text><text font-size="1.85" text-anchor="start" transform="translate(51.87 9.532)">
<tspan>m</tspan>
</text><path d="M49.437 11.734c0-.364.464-.728.868-.728.252 0 .436.14.436.36 0 .348-.44.728-.88.728-.268 0-.424-.156-.424-.36" /><rect width=".13" height="2.82" x="-.07" y="-.81" ry=".04" transform="translate(49.505 12.55)" /><path d="M51.959 12.234c0-.364.463-.728.867-.728.253 0 .437.14.437.36 0 .348-.44.728-.88.728-.269 0-.425-.156-.425-.36" /><rect width=".13" height="2.5" x="-.07" y="-.31" ry=".04" transform="translate(52.026 12.55)" /><text font-size="1.85" text-anchor="start" transform="translate(54.48 9.532)">
<tspan>Mi</tspan>
</text><text font-size="1.85" text-anchor="start" transform="translate(57.2 9.532)">
<tspan>m</tspan>
</text><path d="M54.48 12.734c0-.364.464-.728.868-.728.252 0 .436.14.436.36 0 .348-.44.728-.88.728-.268 0-.424-.156-.424-.36" /><rect width=".13" height="3.15" x="-.07" y=".19" ry=".04" transform="translate(54.547 12.55)" /><text font-size="1.85" text-anchor="start" transform="translate(59.81 9.532)">
<tspan>La</tspan>
</text><text font-size="1.85" text-anchor="start" transform="translate(62.243 9.532)">
<tspan>m</tspan>
</text><path d="M62.19 13.69c0 .044-.036.08-.08.08s-.08-.036-.08-.08v-1.28c0-.044.036-.08.08-.08s.08.036.08.08zm-2.668 0c0 .044-.036.08-.08.08s-.08-.036-.08-.08v-1.28c0-.044.036-.08.08-.08s.08.036.08.08zm1.256-1.184c.012 0 .836.008.968.452v-.548c0-.044.036-.08.08-.08s.08.036.08.08v1.28c0 .044-.036.08-.08.08s-.08-.036-.08-.08v-.548c-.068.224-.424.452-.968.452-.012 0-.836-.008-.968-.452v.548c0 .044-.036.08-.08.08s-.08-.036-.08-.08v-1.28c0-.044.036-.08.08-.08s.08.036.08.08v.548c.068-.224.424-.452.968-.452m.408.648c0-.408-.36-.556-.536-.556-.092 0-.28.04-.28.356a.54.54 0 0 0 .532.544c.088 0 .284-.032.284-.344" /><rect width=".13" height="3.15" x="-.07" y=".19" ry=".04" transform="translate(72.389 12.55)" /><text font-size="1.85" text-anchor="start" transform="translate(66.992 9.532)">
<tspan>Mi</tspan>
</text><text font-size="1.85" text-anchor="start" transform="translate(69.712 9.532)">
<tspan>m</tspan>
</text><path d="M66.992 12.734c0-.364.463-.728.867-.728.253 0 .437.14.437.36 0 .348-.44.728-.88.728-.268 0-.424-.156-.424-.36" /><rect width=".13" height="2.81" x="-.07" y=".19" ry=".04" transform="translate(67.059 12.55)" /><path d="M72.322 12.734c0-.364.463-.728.867-.728.253 0 .437.14.437.36 0 .348-.44.728-.88.728-.268 0-.424-.156-.424-.36M69.657 12.234c0-.364.463-.728.867-.728.252 0 .436.14.436.36 0 .348-.44.728-.88.728-.267 0-.423-.156-.423-.36" /><rect width=".13" height="3.13" x="-.07" y="-.31" ry=".04" transform="translate(69.724 12.55)" /></svg>