<svg xmlns="http://www.w3.org/2000/svg" width="321.22" height="57.83" viewBox="0 -4.02 50.91 9.16" fill="currentColor" font-family="Linux Libertine"><style type="text/css">tspan{white-space:pre}</style><rect width=".2" height="4" x="0" y="-2" ry="0" transform="translate(21.232 1.59)" /><rect width=".62" height="4" x="0" y="-2" ry="0" transform="translate(50.288 1.59)" /><rect width=".2" height="4" x="0" y="-2" ry="0" transform="translate(49.78 1.59)" /><path stroke="currentColor" stroke-linecap="round" stroke-linejoin="round" stroke-width=".1" d="M.05 3.59h50.81M.05 2.59h50.81M.05 1.59h50.81M.05.59h50.81M.05-.41h50.81" /><rect width=".2" height="4" x="0" y="-2" ry="0" transform="translate(37.515 1.59)" /><rect width=".2" height="4" x="0" y="-2" ry="0" transform="translate(37.008 1.59)" /><text font-size="1.85" text-anchor="start" transform="translate(7.605 -2.432)">
<tspan>Ré</tspan>
</text><text font-size="1.85" text-anchor="start" transform="translate(10.146 -2.432)">
<tspan>m</tspan>
</text><path d="M9.985 3.73c0 .044-.036.08-.08.08s-.08-.036-.08-.08V2.45c0-.044.036-.08.08-.08s.08.036.08.08zm-2.668 0c0 .044-.036.08-.08.08s-.08-.036-.08-.08V2.45c0-.044.036-.08.08-.08s.08.036.08.08zm1.256-1.184c.012 0 .836.008.968.452V2.45c0-.044.036-.08.08-.08s.08.036.08.08v1.28c0 .044-.036.08-.08.08s-.08-.036-.08-.08v-.548c-.068.224-.424.452-.968.452-.012 0-.836-.008-.968-.452v.548c0 .044-.036.08-.08.08s-.08-.036-.08-.08V2.45c0-.044.036-.08.08-.08s.08.036.08.08v.548c.068-.224.424-.452.968-.452m.408.648c0-.408-.36-.556-.536-.556-.092 0-.28.04-.28.356a.54.54 0 0 0 .532.544c.088 0 .284-.032.284-.344M1.864 5.13H1.84a.783.783 0 0 1-.78-.788c0-.232.212-.412.448-.412.216 0 .38.188.38.412 0 .208-.172.38-.38.38a.3.3 0 0 1-.124-.024c.104.156.272.26.468.26h.016zm.54-3.144c.076.356.192.968.24 1.416a.67.67 0 0 0 .448-.652.753.753 0 0 0-.688-.764m-1.308.492c0 .448.392.988 1.112.988q.127 0 .272-.024a17 17 0 0 0-.252-1.456c-.316.032-.496.244-.496.476 0 .176.1.364.324.492q.029.03.028.06c0 .044-.04.088-.088.088-.06 0-.504-.248-.504-.748 0-.352.232-.696.64-.788a15 15 0 0 0-.184-.7c-.428.484-.852.972-.852 1.612m1.132-4.664c.112 0 .572.824.572 1.444 0 .572-.344 1.02-.72 1.456.084.272.156.552.224.828.02 0 .04-.004.056-.004.62 0 1.02.516 1.02 1.048 0 .452-.296.848-.72.98q.019.21.02.42-.001.116-.008.232c-.028.476-.352.9-.808.912l.004-.172c.372-.008.612-.368.636-.764q.007-.11.008-.22c0-.124-.004-.244-.016-.368q-.169.031-.32.032C1.22 3.638.808 2.77.808 2.142c0-.708.524-1.224.992-1.764-.116-.384-.208-.68-.208-1.384 0-.756.576-1.18.636-1.18m-.44 1.648c0 .22.048.46.14.76.328-.4.588-.808.588-1.304 0-.16-.024-.328-.084-.508a1.13 1.13 0 0 0-.644 1.052M4.413 1.426l-.004.264v.044q-.001.132.016.264c.18-.152.372-.32.372-.556 0-.132-.056-.268-.172-.268-.124 0-.208.12-.212.252m-.168.716-.048-2.38c.032-.02.072-.032.108-.032s.076.012.108.032l-.028 1.38a.58.58 0 0 1 .364-.136c.208 0 .356.192.356.408 0 .32-.344.468-.588.676-.06.052-.096.152-.18.152-.052 0-.092-.044-.092-.1M14.787 2.274c0-.364.464-.728.868-.728.252 0 .436.14.436.36 0 .348-.44.728-.88.728-.268 0-.424-.156-.424-.36" /><rect width=".13" height="3.31" x="-.07" y="-3" ry=".04" transform="translate(16.024 1.59)" /><path d="M16.091-1.367v1.5h-.064v-1.5zm.492 2.915c0-.04.168-.348.168-.784 0-.412-.376-.832-.66-1.132v-1c0 .789.828 1.345.828 2.133 0 .284-.06.564-.164.828a.1.1 0 0 1-.08.048.09.09 0 0 1-.092-.092M17.291 3.274c0-.364.464-.728.868-.728.252 0 .436.14.436.36 0 .348-.44.728-.88.728-.268 0-.424-.156-.424-.36" /><rect width=".13" height="3.31" x="-.07" y="-2" ry=".04" transform="translate(18.528 1.59)" /><text font-size="1.85" text-anchor="start" transform="translate(22.375 -2.432)">
<tspan>Sol</tspan>
</text><text font-size="1.85" text-anchor="start" transform="translate(25.311 -2.432)">
<tspan>m</tspan>
</text><path d="M24.755 3.23c0 .044-.036.08-.08.08s-.08-.036-.08-.08V1.95c0-.044.036-.08.08-.08s.08.036.08.08zm-2.668 0c0 .044-.036.08-.08.08s-.08-.036-.08-.08V1.95c0-.044.036-.08.08-.08s.08.036.08.08zm1.256-1.184c.012 0 .836.008.968.452V1.95c0-.044.036-.08.08-.08s.08.036.08.08v1.28c0 .044-.036.08-.08.08s-.08-.036-.08-.08v-.548c-.068.224-.424.452-.968.452-.012 0-.836-.008-.968-.452v.548c0 .044-.036.08-.08.08s-.08-.036-.08-.08V1.95c0-.044.036-.08.08-.08s.08.036.08.08v.548c.068-.224.424-.452.968-.452m.408.648c0-.408-.36-.556-.536-.556-.092 0-.28.04-.28.356a.54.54 0 0 0 .532.544c.088 0 .284-.032.284-.344" /><text font-size="1.85" text-anchor="start" transform="translate(29.557 -2.432)">
<tspan>La</tspan>
</text><path d="M29.557 2.274c0-.364.464-.728.868-.728.252 0 .436.14.436.36 0 .348-.44.728-.88.728-.268 0-.424-.156-.424-.36" /><rect width=".13" height="3.31" x="-.07" y="-3" ry=".04" transform="translate(30.794 1.59)" /><path d="M30.86-1.367v1.5h-.063v-1.5zm.493 2.915c0-.04.168-.348.168-.784 0-.412-.376-.832-.66-1.132v-1c0 .789.828 1.345.828 2.133 0 .284-.06.564-.164.828a.1.1 0 0 1-.08.048.09.09 0 0 1-.092-.092M29.209-4.023c0 .068-.252.232-.252 1s.252.932.252 1a.053.053 0 0 1-.052.052q-.023 0-.04-.024c-.212-.304-.36-.656-.36-1.028s.148-.724.36-1.028q.017-.024.04-.024c.028 0 .052.024.052.052M31.938-2.023c0-.068.252-.232.252-1s-.252-.932-.252-1c0-.028.024-.052.052-.052q.023 0 .04.024c.212.304.36.656.36 1.028s-.148.724-.36 1.028q-.017.024-.04.024a.053.053 0 0 1-.052-.052" /><text font-size="1.85" text-anchor="start" transform="translate(33.09 -2.432)">
<tspan>Ré</tspan>
</text><text font-size="1.85" text-anchor="start" transform="translate(35.63 -2.432)">
<tspan>m</tspan>
</text><path d="M33.09 4.274c0-.364.464-.728.868-.728.252 0 .436.14.436.36 0 .348-.44.728-.88.728-.268 0-.424-.156-.424-.36" /><rect width=".13" height="3.31" x="-.07" y="-1" ry=".04" transform="translate(34.327 1.59)" /><text font-size="1.85" text-anchor="start" transform="translate(38.658 -2.432)">
<tspan>Ré</tspan>
</text><text font-size="1.85" text-anchor="start" transform="translate(41.199 -2.432)">
<tspan>m</tspan>
</text><path d="M41.038 3.73c0 .044-.036.08-.08.08s-.08-.036-.08-.08V2.45c0-.044.036-.08.08-.08s.08.036.08.08zm-2.668 0c0 .044-.036.08-.08.08s-.08-.036-.08-.08V2.45c0-.044.036-.08.08-.08s.08.036.08.08zm1.256-1.184c.012 0 .836.008.968.452V2.45c0-.044.036-.08.08-.08s.08.036.08.08v1.28c0 .044-.036.08-.08.08s-.08-.036-.08-.08v-.548c-.068.224-.424.452-.968.452-.012 0-.836-.008-.968-.452v.548c0 .044-.036.08-.08.08s-.08-.036-.08-.08V2.45c0-.044.036-.08.08-.08s.08.036.08.08v.548c.068-.224.424-.452.968-.452m.408.648c0-.408-.36-.556-.536-.556-.092 0-.28.04-.28.356a.54.54 0 0 0 .532.544c.088 0 .284-.032.284-.344" /><text color="rgba(100.0000%, 0.0000%, 0.0000%, 100.0000%)" font-size="2.2" font-weight="bold" text-anchor="start" transform="translate(38.658 -.961)">
<tspan>+</tspan>
</text><text font-size="1.85" text-anchor="start" transform="translate(45.84 -2.432)">
<tspan>La</tspan>
</text><path d="M45.84 3.774c0-.364.464-.728.868-.728.252 0 .436.14.436.36 0 .348-.44.728-.88.728-.268 0-.424-.156-.424-.36" /><rect width=".13" height="3.31" x="-.07" y="-1.5" ry=".04" transform="translate(47.077 1.59)" /></svg>