<svg xmlns="http://www.w3.org/2000/svg" width="331.01" height="61.34" viewBox="0 -4.02 52.46 9.72" fill="currentColor" font-family="Linux Libertine"><style type="text/css">tspan{white-space:pre}</style><rect width=".2" height="4" x="0" y="-2" ry="0" transform="translate(22.506 2.15)" /><rect width=".62" height="4" x="0" y="-2" ry="0" transform="translate(51.84 2.15)" /><rect width=".2" height="4" x="0" y="-2" ry="0" transform="translate(51.334 2.15)" /><path stroke="currentColor" stroke-linecap="round" stroke-linejoin="round" stroke-width=".1" d="M.05 4.15h52.36M.05 3.15h52.36M.05 2.15h52.36M.05 1.15h52.36M.05.15h52.36" /><rect width=".2" height="4" x="0" y="-2" ry="0" transform="translate(40.508 2.15)" /><rect width=".2" height="4" x="0" y="-2" ry="0" transform="translate(40 2.15)" /><text font-size="1.85" text-anchor="start" transform="translate(5.8 -1.873)">
<tspan>Ré</tspan>
</text><text font-size="1.85" text-anchor="start" transform="translate(8.34 -1.873)">
<tspan>m</tspan>
</text><path d="M8.18 3.29c0 .044-.036.08-.08.08s-.08-.036-.08-.08V2.01c0-.044.036-.08.08-.08s.08.036.08.08zm-2.668 0c0 .044-.036.08-.08.08s-.08-.036-.08-.08V2.01c0-.044.036-.08.08-.08s.08.036.08.08zm1.256-1.184c.012 0 .836.008.968.452V2.01c0-.044.036-.08.08-.08s.08.036.08.08v1.28c0 .044-.036.08-.08.08s-.08-.036-.08-.08v-.548c-.068.224-.424.452-.968.452-.012 0-.836-.008-.968-.452v.548c0 .044-.036.08-.08.08s-.08-.036-.08-.08V2.01c0-.044.036-.08.08-.08s.08.036.08.08v.548c.068-.224.424-.452.968-.452m.408.648c0-.408-.36-.556-.536-.556-.092 0-.28.04-.28.356a.54.54 0 0 0 .532.544c.088 0 .284-.032.284-.344M1.864 5.69H1.84a.783.783 0 0 1-.78-.788c0-.232.212-.412.448-.412.216 0 .38.188.38.412 0 .208-.172.38-.38.38a.3.3 0 0 1-.124-.024c.104.156.272.26.468.26h.016zm.54-3.144c.076.356.192.968.24 1.416a.67.67 0 0 0 .448-.652.753.753 0 0 0-.688-.764m-1.308.492c0 .448.392.988 1.112.988q.127 0 .272-.024a17 17 0 0 0-.252-1.456c-.316.032-.496.244-.496.476 0 .176.1.364.324.492q.029.03.028.06c0 .044-.04.088-.088.088-.06 0-.504-.248-.504-.748 0-.352.232-.696.64-.788a15 15 0 0 0-.184-.7c-.428.484-.852.972-.852 1.612m1.132-4.664c.112 0 .572.824.572 1.444 0 .572-.344 1.02-.72 1.456.084.272.156.552.224.828q.031-.002.056-.004c.62 0 1.02.516 1.02 1.048 0 .452-.296.848-.72.98q.019.21.02.42c0 .076-.004.156-.008.232-.028.476-.352.9-.808.912l.004-.172c.372-.008.612-.368.636-.764a3.775 3.775 0 0 0-.008-.588q-.169.031-.32.032C1.22 4.198.808 3.33.808 2.702c0-.708.524-1.224.992-1.764-.116-.384-.208-.68-.208-1.384 0-.756.576-1.18.636-1.18M1.788.022c0 .22.048.46.14.76.328-.4.588-.808.588-1.304 0-.16-.024-.328-.084-.508A1.13 1.13 0 0 0 1.788.022" /><text font-size="1.85" text-anchor="start" transform="translate(12.28 -1.873)">
<tspan>Mi</tspan>
</text><text font-size="1.85" text-anchor="start" transform="translate(15 -1.873)">
<tspan>m</tspan>
</text><path d="M14.66 3.79c0 .044-.036.08-.08.08s-.08-.036-.08-.08V2.51c0-.044.036-.08.08-.08s.08.036.08.08zm-2.668 0c0 .044-.036.08-.08.08s-.08-.036-.08-.08V2.51c0-.044.036-.08.08-.08s.08.036.08.08zm1.256-1.184c.012 0 .836.008.968.452V2.51c0-.044.036-.08.08-.08s.08.036.08.08v1.28c0 .044-.036.08-.08.08s-.08-.036-.08-.08v-.548c-.068.224-.424.452-.968.452-.012 0-.836-.008-.968-.452v.548c0 .044-.036.08-.08.08s-.08-.036-.08-.08V2.51c0-.044.036-.08.08-.08s.08.036.08.08v.548c.068-.224.424-.452.968-.452m.408.648c0-.408-.36-.556-.536-.556-.092 0-.28.04-.28.356a.54.54 0 0 0 .532.544c.088 0 .284-.032.284-.344" /><text font-size="1.85" text-anchor="start" transform="translate(18.76 -1.873)">
<tspan>La</tspan>
</text><text font-size="1.85" text-anchor="start" transform="translate(21.193 -1.873)">
<tspan>m</tspan>
</text><path d="M18.76 2.834c0-.364.464-.728.868-.728.252 0 .436.14.436.36 0 .348-.44.728-.88.728-.268 0-.424-.156-.424-.36" /><rect width=".13" height="3.31" x="-.07" y="-3" ry=".04" transform="translate(19.997 2.15)" /><text font-size="1.85" text-anchor="start" transform="translate(23.802 -1.873)">
<tspan>Fa</tspan>
</text><path d="M26.182 3.29c0 .044-.036.08-.08.08s-.08-.036-.08-.08V2.01c0-.044.036-.08.08-.08s.08.036.08.08zm-2.668 0c0 .044-.036.08-.08.08s-.08-.036-.08-.08V2.01c0-.044.036-.08.08-.08s.08.036.08.08zm1.256-1.184c.012 0 .836.008.968.452V2.01c0-.044.036-.08.08-.08s.08.036.08.08v1.28c0 .044-.036.08-.08.08s-.08-.036-.08-.08v-.548c-.068.224-.424.452-.968.452-.012 0-.836-.008-.968-.452v.548c0 .044-.036.08-.08.08s-.08-.036-.08-.08V2.01c0-.044.036-.08.08-.08s.08.036.08.08v.548c.068-.224.424-.452.968-.452m.408.648c0-.408-.36-.556-.536-.556-.092 0-.28.04-.28.356a.54.54 0 0 0 .532.544c.088 0 .284-.032.284-.344" /><text font-size="1.85" text-anchor="start" transform="translate(30.282 -1.873)">
<tspan>Si</tspan>
</text><path d="m32.47-2.791-.006.18v.033q0 .095.015.191c.126-.113.261-.242.261-.413 0-.097-.039-.19-.123-.19-.093 0-.144.097-.147.199m-.003-1.233-.027 1.01a.4.4 0 0 1 .285-.12c.15 0 .246.154.246.316 0 .23-.24.35-.411.507-.054.05-.078.144-.156.144-.048 0-.084-.045-.084-.096l-.045-1.761q.046-.025.096-.024c.05 0 .066.006.096.024M32.662 3.79c0 .044-.036.08-.08.08s-.08-.036-.08-.08V2.51c0-.044.036-.08.08-.08s.08.036.08.08zm-2.668 0c0 .044-.036.08-.08.08s-.08-.036-.08-.08V2.51c0-.044.036-.08.08-.08s.08.036.08.08zm1.256-1.184c.012 0 .836.008.968.452V2.51c0-.044.036-.08.08-.08s.08.036.08.08v1.28c0 .044-.036.08-.08.08s-.08-.036-.08-.08v-.548c-.068.224-.424.452-.968.452-.012 0-.836-.008-.968-.452v.548c0 .044-.036.08-.08.08s-.08-.036-.08-.08V2.51c0-.044.036-.08.08-.08s.08.036.08.08v.548c.068-.224.424-.452.968-.452m.408.648c0-.408-.36-.556-.536-.556-.092 0-.28.04-.28.356a.54.54 0 0 0 .532.544c.088 0 .284-.032.284-.344" /><text font-size="1.85" text-anchor="start" transform="translate(36.762 -1.873)">
<tspan>Sol</tspan>
</text><path d="M36.762 4.334c0-.364.464-.728.868-.728.252 0 .436.14.436.36 0 .348-.44.728-.88.728-.268 0-.424-.156-.424-.36" /><rect width=".13" height="3.31" x="-.07" y="-1.5" ry=".04" transform="translate(37.999 2.15)" /><text font-size="1.85" text-anchor="start" transform="translate(41.65 -1.873)">
<tspan>Ré</tspan>
</text><text font-size="1.85" text-anchor="start" transform="translate(44.191 -1.873)">
<tspan>m</tspan>
</text><path d="M44.03 3.29c0 .044-.035.08-.08.08s-.08-.036-.08-.08V2.01c0-.044.037-.08.08-.08s.08.036.08.08zm-2.667 0c0 .044-.036.08-.08.08s-.08-.036-.08-.08V2.01c0-.044.036-.08.08-.08s.08.036.08.08zm1.256-1.184c.012 0 .836.008.968.452V2.01c0-.044.036-.08.08-.08s.08.036.08.08v1.28c0 .044-.036.08-.08.08s-.08-.036-.08-.08v-.548c-.068.224-.424.452-.968.452-.012 0-.836-.008-.968-.452v.548c0 .044-.036.08-.08.08s-.08-.036-.08-.08V2.01c0-.044.036-.08.08-.08s.08.036.08.08v.548c.068-.224.424-.452.968-.452m.408.648c0-.408-.36-.556-.536-.556-.092 0-.28.04-.28.356a.54.54 0 0 0 .532.544c.088 0 .284-.032.284-.344" /><text color="rgba(100.0000%, 0.0000%, 0.0000%, 100.0000%)" font-size="2.2" font-weight="bold" text-anchor="start" transform="translate(41.65 -.402)">
<tspan>+</tspan>
</text><g color="rgba(100.0000%, 0.0000%, 0.0000%, 100.0000%)"><text font-size="2.2" text-anchor="start" transform="translate(2.6 -1.3)">
<tspan>D8</tspan>
</text><rect width=".1" height="2.05" x="-.3" y="-1.73" ry="0" transform="translate(2.6 -1.3)" /><rect width=".1" height="2.05" x="2.75" y="-1.73" ry="0" transform="translate(2.6 -1.3)" /><rect width="3.16" height=".1" x="-.3" y=".22" ry="0" transform="translate(2.6 -1.3)" /><rect width="3.16" height=".1" x="-.3" y="-1.73" ry="0" transform="translate(2.6 -1.3)" /></g><text font-size="1.85" text-anchor="start" transform="translate(48.13 -1.873)">
<tspan>Mi</tspan>
</text><text font-size="1.85" text-anchor="start" transform="translate(50.851 -1.873)">
<tspan>m</tspan>
</text><path d="M48.13 3.334c0-.364.464-.728.868-.728.253 0 .437.14.437.36 0 .348-.44.728-.88.728-.269 0-.425-.156-.425-.36" /><rect width=".13" height="3.31" x="-.07" y="-2.5" ry=".04" transform="translate(49.367 2.15)" /></svg>