<svg xmlns="http://www.w3.org/2000/svg" width="345.56" height="57.11" viewBox="0 -3.52 54.77 9.05" fill="currentColor" font-family="Linux Libertine"><style type="text/css">tspan{white-space:pre}</style><rect width=".2" height="4" x="0" y="-2" ry="0" transform="translate(23.916 1.245)" /><rect width=".62" height="4" x="0" y="-2" ry="0" transform="translate(54.148 1.245)" /><rect width=".2" height="4" x="0" y="-2" ry="0" transform="translate(53.641 1.245)" /><path stroke="currentColor" stroke-linecap="round" stroke-linejoin="round" stroke-width=".1" d="M.05 3.245h54.67M.05 2.245h54.67M.05 1.245h54.67M.05.245h54.67M.05-.755h54.67" /><rect width=".2" height="4" x="0" y="-2" ry="0" transform="translate(41.447 1.245)" /><rect width=".2" height="4" x="0" y="-2" ry="0" transform="translate(40.94 1.245)" /><path stroke="currentColor" stroke-linecap="round" stroke-linejoin="round" stroke-width=".08" d="M36.007-.953v.396l-2.554.188v-.396zM18.733-.953v.396L16.18-.745v-.396z" /><text font-size="1.85" text-anchor="start" transform="translate(7.785 -2.273)">
<tspan>Mi</tspan>
</text><text font-size="1.85" text-anchor="start" transform="translate(10.505 -2.273)">
<tspan>m</tspan>
</text><path d="M10.165 1.885c0 .044-.036.08-.08.08s-.08-.036-.08-.08V.605c0-.044.036-.08.08-.08s.08.036.08.08zm-2.668 0c0 .044-.036.08-.08.08s-.08-.036-.08-.08V.605c0-.044.036-.08.08-.08s.08.036.08.08zM8.753.7c.012 0 .836.008.968.452V.605c0-.044.036-.08.08-.08s.08.036.08.08v1.28c0 .044-.036.08-.08.08s-.08-.036-.08-.08v-.548c-.068.224-.424.452-.968.452-.012 0-.836-.008-.968-.452v.548c0 .044-.036.08-.08.08s-.08-.036-.08-.08V.605c0-.044.036-.08.08-.08s.08.036.08.08v.548C7.853.929 8.209.7 8.753.7m.408.648c0-.408-.36-.556-.536-.556-.092 0-.28.04-.28.356a.54.54 0 0 0 .532.544c.088 0 .284-.032.284-.344M1.864 4.785H1.84a.783.783 0 0 1-.78-.788c0-.232.212-.412.448-.412.216 0 .38.188.38.412 0 .208-.172.38-.38.38a.3.3 0 0 1-.124-.024c.104.156.272.26.468.26h.016zm.54-3.144c.076.356.192.968.24 1.416a.67.67 0 0 0 .448-.652.753.753 0 0 0-.688-.764m-1.308.492c0 .448.392.988 1.112.988q.127 0 .272-.024a17 17 0 0 0-.252-1.456c-.316.032-.496.244-.496.476 0 .176.1.364.324.492q.029.03.028.06c0 .044-.04.088-.088.088-.06 0-.504-.248-.504-.748 0-.352.232-.696.64-.788a15 15 0 0 0-.184-.7c-.428.484-.852.972-.852 1.612m1.132-4.664c.112 0 .572.824.572 1.444 0 .572-.344 1.02-.72 1.456.084.272.156.552.224.828q.031-.002.056-.004c.62 0 1.02.516 1.02 1.048 0 .452-.296.848-.72.98q.019.21.02.42-.001.116-.008.232c-.028.476-.352.9-.808.912l.004-.172c.372-.008.612-.368.636-.764q.007-.11.008-.22.001-.184-.016-.368-.169.031-.32.032c-.956 0-1.368-.868-1.368-1.496 0-.708.524-1.224.992-1.764-.116-.384-.208-.68-.208-1.384 0-.756.576-1.18.636-1.18m-.44 1.648c0 .22.048.46.14.76.328-.4.588-.808.588-1.304 0-.16-.024-.328-.084-.508a1.13 1.13 0 0 0-.644 1.052M4.185-1.231c0-.032.02-.06.052-.072l.184-.068v-.632c0-.04.032-.076.072-.076s.076.036.076.076v.58l.332-.124v-.632c0-.04.036-.076.076-.076s.072.036.072.076v.58l.128-.048q.014-.005.028-.004a.08.08 0 0 1 .08.08v.24c0 .032-.02.064-.052.076l-.184.064v.64l.128-.044Q5.191-.6 5.205-.6a.08.08 0 0 1 .08.08v.24c0 .032-.02.06-.052.072l-.184.068v.632c0 .04-.032.076-.072.076S4.901.533 4.901.493v-.58l-.332.124v.632c0 .04-.036.076-.076.076S4.421.709 4.421.669v-.58l-.128.048q-.014.005-.028.004a.08.08 0 0 1-.08-.08v-.24c0-.032.02-.064.052-.076l.184-.064v-.64l-.128.044q-.014.005-.028.004a.08.08 0 0 1-.08-.08zm.716.096-.332.12v.64l.332-.12zM14.967 1.929c0-.364.464-.728.868-.728.252 0 .436.14.436.36 0 .348-.44.728-.88.728-.268 0-.424-.156-.424-.36" /><rect width=".13" height="2.5" x="-.07" y="-2.18" ry=".04" transform="translate(16.204 1.245)" /><path d="M17.471 2.429c0-.364.464-.728.868-.728.252 0 .436.14.436.36 0 .348-.44.728-.88.728-.268 0-.424-.156-.424-.36" /><rect width=".13" height="2.82" x="-.07" y="-2" ry=".04" transform="translate(18.708 1.245)" /><text font-size="1.85" text-anchor="start" transform="translate(19.975 -2.273)">
<tspan>Ré</tspan>
</text><path d="M19.975 2.929c0-.364.464-.728.868-.728.252 0 .436.14.436.36 0 .348-.44.728-.88.728-.268 0-.424-.156-.424-.36" /><rect width=".13" height="3.31" x="-.07" y="-2" ry=".04" transform="translate(21.212 1.245)" /><text font-size="1.85" text-anchor="start" transform="translate(25.06 -2.273)">
<tspan>Ré</tspan>
</text><path d="M27.44 2.385c0 .044-.037.08-.08.08s-.08-.036-.08-.08v-1.28c0-.044.035-.08.08-.08s.08.036.08.08zm-2.669 0c0 .044-.036.08-.08.08s-.08-.036-.08-.08v-1.28c0-.044.036-.08.08-.08s.08.036.08.08zM26.027 1.2c.012 0 .836.008.968.452v-.548c0-.044.036-.08.08-.08s.08.036.08.08v1.28c0 .044-.036.08-.08.08s-.08-.036-.08-.08v-.548c-.068.224-.424.452-.968.452-.012 0-.836-.008-.968-.452v.548c0 .044-.036.08-.08.08s-.08-.036-.08-.08v-1.28c0-.044.036-.08.08-.08s.08.036.08.08v.548c.068-.224.424-.452.968-.452m.408.648c0-.408-.36-.556-.536-.556-.092 0-.28.04-.28.356a.54.54 0 0 0 .532.544c.088 0 .284-.032.284-.344M32.24 2.929c0-.364.465-.728.869-.728.252 0 .436.14.436.36 0 .348-.44.728-.88.728-.268 0-.424-.156-.424-.36" /><rect width=".13" height="3.13" x="-.07" y="-1.82" ry=".04" transform="translate(33.478 1.245)" /><path d="M34.745 2.429c0-.364.464-.728.868-.728.252 0 .436.14.436.36 0 .348-.44.728-.88.728-.268 0-.424-.156-.424-.36" /><rect width=".13" height="2.81" x="-.07" y="-2" ry=".04" transform="translate(35.982 1.245)" /><text font-size="1.85" text-anchor="start" transform="translate(37 -2.273)">
<tspan>Mi</tspan>
</text><text font-size="1.85" text-anchor="start" transform="translate(39.72 -2.273)">
<tspan>m</tspan>
</text><path d="M37 3.429c0-.364.463-.728.867-.728.252 0 .436.14.436.36 0 .348-.44.728-.88.728-.268 0-.424-.156-.424-.36" /><rect width=".13" height="3.31" x="-.07" y="-1.5" ry=".04" transform="translate(38.236 1.245)" /><text font-size="1.85" text-anchor="start" transform="translate(42.59 -2.273)">
<tspan>Mi</tspan>
</text><text font-size="1.85" text-anchor="start" transform="translate(45.31 -2.273)">
<tspan>m</tspan>
</text><path d="M44.97 1.885c0 .044-.036.08-.08.08s-.08-.036-.08-.08V.605c0-.044.036-.08.08-.08s.08.036.08.08zm-2.668 0c0 .044-.036.08-.08.08s-.08-.036-.08-.08V.605c0-.044.036-.08.08-.08s.08.036.08.08zM43.558.7c.012 0 .836.008.968.452V.605c0-.044.036-.08.08-.08s.08.036.08.08v1.28c0 .044-.036.08-.08.08s-.08-.036-.08-.08v-.548c-.068.224-.424.452-.968.452-.012 0-.836-.008-.968-.452v.548c0 .044-.036.08-.08.08s-.08-.036-.08-.08V.605c0-.044.036-.08.08-.08s.08.036.08.08v.548c.068-.224.424-.452.968-.452m.408.648c0-.408-.36-.556-.536-.556-.092 0-.28.04-.28.356a.54.54 0 0 0 .532.544c.088 0 .284-.032.284-.344" /><text font-size="2.2" text-anchor="start" transform="translate(4 5.2)">
<tspan>7Hm</tspan>
</text><rect width=".1" height="2.06" x="-.3" y="-1.73" ry="0" transform="translate(4 5.2)" /><rect width=".1" height="2.06" x="4.55" y="-1.73" ry="0" transform="translate(4 5.2)" /><rect width="4.96" height=".1" x="-.3" y=".23" ry="0" transform="translate(4 5.2)" /><rect width="4.96" height=".1" x="-.3" y="-1.73" ry="0" transform="translate(4 5.2)" /><text color="rgba(100.0000%, 0.0000%, 0.0000%, 100.0000%)" font-size="3.3" font-weight="bold" text-anchor="start" transform="translate(40.411 5.526)">
<tspan>+</tspan>
</text><text font-size="1.85" text-anchor="start" transform="translate(49.772 -2.273)">
<tspan>Ré</tspan>
</text><path d="M49.772 1.929c0-.364.464-.728.868-.728.252 0 .436.14.436.36 0 .348-.44.728-.88.728-.268 0-.424-.156-.424-.36" /><rect width=".13" height="3.31" x="-.07" y="-3" ry=".04" transform="translate(51.009 1.245)" /></svg>