<svg xmlns="http://www.w3.org/2000/svg" width="402.26" height="75.82" viewBox="0 -4.64 63.75 12.02" fill="currentColor" font-family="Linux Libertine"><style type="text/css">tspan{white-space:pre}</style><rect width=".2" height="4" x="0" y="-2" ry="0" transform="translate(17.799 1.292)" /><rect width=".62" height="4" x="0" y="-2" ry="0" transform="translate(63.129 1.292)" /><rect width=".2" height="4" x="0" y="-2" ry="0" transform="translate(62.622 1.292)" /><path stroke="currentColor" stroke-linecap="round" stroke-linejoin="round" stroke-width=".1" d="M.05 3.292H63.7M.05 2.292H63.7M.05 1.292H63.7M.05.292H63.7M.05-.708H63.7" /><rect width=".2" height="4" x="0" y="-2" ry="0" transform="translate(55.452 1.292)" /><rect width=".2" height="4" x="0" y="-2" ry="0" transform="translate(44.767 1.292)" /><rect width=".2" height="4" x="0" y="-2" ry="0" transform="translate(33.157 1.292)" /><path d="M39.338 2.476c0-.364.464-.728.868-.728.252 0 .436.14.436.36 0 .348-.44.728-.88.728-.268 0-.424-.156-.424-.36" /><text font-size="1.85" text-anchor="start" transform="translate(8.502 -2.226)">
<tspan>La</tspan>
</text><text font-size="1.85" text-anchor="start" transform="translate(10.935 -2.226)">
<tspan>m</tspan>
</text><path d="M8.502.976c0-.364.464-.728.868-.728.252 0 .436.14.436.36 0 .348-.44.728-.88.728-.268 0-.424-.156-.424-.36M1.864 4.832H1.84a.783.783 0 0 1-.78-.788c0-.232.212-.412.448-.412.216 0 .38.188.38.412 0 .208-.172.38-.38.38a.3.3 0 0 1-.124-.024c.104.156.272.26.468.26h.016zm.54-3.144c.076.356.192.968.24 1.416a.67.67 0 0 0 .448-.652.753.753 0 0 0-.688-.764m-1.308.492c0 .448.392.988 1.112.988q.127 0 .272-.024a17 17 0 0 0-.252-1.456c-.316.032-.496.244-.496.476 0 .176.1.364.324.492q.029.03.028.06c0 .044-.04.088-.088.088-.06 0-.504-.248-.504-.748 0-.352.232-.696.64-.788a15 15 0 0 0-.184-.7c-.428.484-.852.972-.852 1.612m1.132-4.664c.112 0 .572.824.572 1.444 0 .572-.344 1.02-.72 1.456.084.272.156.552.224.828.02 0 .04-.004.056-.004.62 0 1.02.516 1.02 1.048 0 .452-.296.848-.72.98q.019.21.02.42-.001.116-.008.232c-.028.476-.352.9-.808.912l.004-.172c.372-.008.612-.368.636-.764q.007-.11.008-.22.001-.184-.016-.368-.169.031-.32.032C1.22 3.34.808 2.472.808 1.844c0-.708.524-1.224.992-1.764-.116-.384-.208-.68-.208-1.384 0-.756.576-1.18.636-1.18m-.44 1.648c0 .22.048.46.14.76.328-.4.588-.808.588-1.304 0-.16-.024-.328-.084-.508a1.13 1.13 0 0 0-.644 1.052M5.873 1.292c-.352 0-.36-.264-.576-.264-.12 0-.236.08-.248.22-.004.028-.024.044-.044.044-.024 0-.048-.016-.048-.044V1.24c.06-.688.928-.66.928-1.368 0-.236-.064-.488-.268-.488-.1 0-.196.056-.196.148 0 .108.14.164.14.272a.277.277 0 0 1-.552 0c0-.304.288-.512.608-.512.38 0 .732.228.732.58 0 .604-.6.636-.984.88A.5.5 0 0 1 5.473.74c.332 0 .444.236.684.236.192 0 .152-.152.22-.152.024 0 .048.02.048.048 0 .088-.176.42-.552.42" /><path d="M5.669 2.824h.468c0 .192.108.376.288.376.032 0 .048.02.048.044s-.016.048-.048.048c-.176 0-.348-.052-.524-.052s-.348.052-.524.052c-.032 0-.048-.024-.048-.048s.016-.044.048-.044c.18 0 .292-.184.292-.376m.116-1.48c.144 0 .276-.056.304-.056.032 0 .056.024.056.048 0 .008-.004.012-.008.02l-1.136 1.32h.668v-.524c0-.136.136-.108.272-.288.088-.12.092-.224.144-.224.024 0 .052.02.052.056v.98h.288c.04 0 .06.028.06.056s-.02.06-.06.06h-.288v.032h-.468v-.032h-.668c-.092 0-.124-.056-.124-.092 0-.048.56-.572.56-1.344 0-.036.024-.064.052-.064.02 0 .156.052.296.052" /><text font-size="2.47" text-anchor="start" transform="translate(7.214 6.792)">
<tspan>Tou</tspan>
</text><rect width=".13" height="3.31" x="-.07" y="-.31" ry=".04" transform="translate(8.57 1.292)" /><path d="M12.207.976c0-.364.463-.728.867-.728.253 0 .437.14.437.36 0 .348-.44.728-.88.728-.269 0-.425-.156-.425-.36" /><text font-size="2.47" text-anchor="start" transform="translate(11.421 6.792)">
<tspan>tes</tspan>
</text><rect width=".13" height="3.13" x="-.07" y="-.31" ry=".04" transform="translate(12.274 1.292)" /><path stroke="currentColor" stroke-linecap="round" stroke-linejoin="round" stroke-width=".08" d="M43.36-1.094v.396l-2.81.188v-.396z" /><path d="M15.46.976c0-.364.464-.728.868-.728.252 0 .436.14.436.36 0 .348-.44.728-.88.728-.268 0-.424-.156-.424-.36" /><text font-size="2.47" text-anchor="start" transform="translate(14.746 6.792)">
<tspan>les</tspan>
</text><rect width=".13" height="3.13" x="-.07" y="-.31" ry=".04" transform="translate(15.527 1.292)" /><rect width=".66" height=".13" x="0" y="-.55" ry=".04" transform="translate(44.319 6.792)" /><path d="M19.028.976c0-.364.464-.728.868-.728.252 0 .436.14.436.36 0 .348-.44.728-.88.728-.268 0-.424-.156-.424-.36" /><text font-size="2.47" text-anchor="start" transform="translate(18.08 6.792)">
<tspan>œu</tspan>
</text><rect width=".13" height="3.13" x="-.07" y="-.31" ry=".04" transform="translate(19.095 1.292)" /><path d="M22.83.976c0-.364.463-.728.867-.728.252 0 .436.14.436.36 0 .348-.44.728-.88.728-.268 0-.424-.156-.424-.36" /><text font-size="2.47" text-anchor="start" transform="translate(21.379 6.792)">
<tspan>vres</tspan>
</text><rect width=".13" height="3.13" x="-.07" y="-.31" ry=".04" transform="translate(22.897 1.292)" /><path stroke="currentColor" stroke-linecap="round" stroke-linejoin="round" stroke-width=".08" d="M29.968 4.094v.396L26.7 4.302v-.396z" /><path d="M26.658.976c0-.364.464-.728.868-.728.252 0 .436.14.436.36 0 .348-.44.728-.88.728-.268 0-.424-.156-.424-.36" /><text font-size="2.47" text-anchor="start" transform="translate(26.034 6.792)">
<tspan>du</tspan>
</text><rect width=".13" height="3.13" x="-.07" y="-.31" ry=".04" transform="translate(26.725 1.292)" /><path d="M29.875 1.476c0-.364.464-.728.868-.728.252 0 .436.14.436.36 0 .348-.44.728-.88.728-.268 0-.424-.156-.424-.36" /><text font-size="2.47" text-anchor="start" transform="translate(29.036 6.792)">
<tspan>Sei</tspan>
</text><rect width=".13" height="2.81" x="-.07" y=".19" ry=".04" transform="translate(29.942 1.292)" /><path stroke="currentColor" stroke-linecap="round" stroke-linejoin="round" stroke-width=".08" d="M22.922 3.906v.396H19.07v-.396z" /><text font-size="1.85" text-anchor="start" transform="translate(34.594 -2.226)">
<tspan>Fa</tspan>
</text><path d="M34.594 1.976c0-.364.464-.728.868-.728.252 0 .436.14.436.36 0 .348-.44.728-.88.728-.268 0-.424-.156-.424-.36" /><text font-size="2.47" text-anchor="start" transform="translate(32.119 6.792)">
<tspan>gneur,</tspan>
</text><rect width=".13" height="3.31" x="-.07" y="-3" ry=".04" transform="translate(35.83 1.292)" /><text font-size="2.47" text-anchor="start" transform="translate(38.822 6.792)">
<tspan>bé</tspan>
</text><rect width=".13" height="2.82" x="-.07" y="-2" ry=".04" transform="translate(40.575 1.292)" /><path d="M42.098 1.976c0-.364.464-.728.868-.728.252 0 .436.14.436.36 0 .348-.44.728-.88.728-.268 0-.424-.156-.424-.36" /><text font-size="2.47" text-anchor="start" transform="translate(41.259 6.792)">
<tspan>nis</tspan>
</text><rect width=".13" height="2.5" x="-.07" y="-2.18" ry=".04" transform="translate(43.335 1.292)" /><path stroke="currentColor" stroke-linecap="round" stroke-linejoin="round" stroke-width=".08" d="M15.552 3.906v.396H12.25v-.396z" /><text font-size="1.85" text-anchor="start" transform="translate(45.968 -2.226)">
<tspan>Sol</tspan>
</text><path d="M45.968 1.476c0-.364.464-.728.868-.728.252 0 .436.14.436.36 0 .348-.44.728-.88.728-.268 0-.424-.156-.424-.36" /><text font-size="2.47" text-anchor="start" transform="translate(45.056 6.792)">
<tspan>sez</tspan>
</text><rect width=".13" height="3.15" x="-.07" y=".19" ry=".04" transform="translate(46.035 1.292)" /><path d="M49.654 1.976c0-.364.464-.728.868-.728.252 0 .436.14.436.36 0 .348-.44.728-.88.728-.268 0-.424-.156-.424-.36" /><text font-size="2.47" text-anchor="start" transform="translate(49.425 6.792)">
<tspan>le</tspan>
</text><rect width=".13" height="3.13" x="-.07" y="-2.82" ry=".04" transform="translate(50.89 1.292)" /><path d="M52.476 1.476c0-.364.464-.728.868-.728.252 0 .436.14.436.36 0 .348-.44.728-.88.728-.268 0-.424-.156-.424-.36" /><text font-size="2.47" text-anchor="start" transform="translate(51.636 6.792)">
<tspan>Sei</tspan>
</text><rect width=".13" height="2.81" x="-.07" y="-3" ry=".04" transform="translate(53.713 1.292)" /><rect width=".3" height=".13" x="0" y="-.55" ry=".04" transform="translate(11.108 6.792)" /><text font-size="1.85" text-anchor="start" transform="translate(57.804 -2.226)">
<tspan>Do</tspan>
</text><path d="M58.092 1.216c.16 0 .816-.44.924-.572a.2.2 0 0 0 .044-.112.166.166 0 0 0-.168-.164c-.16 0-.816.44-.924.572a.2.2 0 0 0-.04.112c0 .088.068.164.164.164m-.288-.156c0-.284.184-.812 1.032-.812.164 0 .344.04.344.276 0 .284-.184.812-1.032.812-.164 0-.344-.04-.344-.276" /><g color="rgba(100.0000%, 0.0000%, 0.0000%, 100.0000%)"><text font-size="2.2" text-anchor="start" transform="translate(.5 -2.8)">
<tspan>Berthier</tspan>
</text><rect width=".1" height="2.16" x="-.3" y="-1.84" ry="0" transform="translate(.5 -2.8)" /><rect width=".1" height="2.16" x="7.57" y="-1.84" ry="0" transform="translate(.5 -2.8)" /><rect width="7.97" height=".1" x="-.3" y=".22" ry="0" transform="translate(.5 -2.8)" /><rect width="7.97" height=".1" x="-.3" y="-1.84" ry="0" transform="translate(.5 -2.8)" /></g><text font-size="2.47" text-anchor="start" transform="translate(54.72 6.792)">
<tspan>gneur...</tspan>
</text><rect width=".13" height="3.24" x="-.07" y="-.24" ry=".04" transform="translate(57.872 1.292)" /><path stroke="currentColor" stroke-linecap="round" stroke-linejoin="round" stroke-width=".08" d="M53.738-1.906v.396l-2.873.188v-.396z" /></svg>