<svg xmlns="http://www.w3.org/2000/svg" width="680.31" height="73.51" viewBox="0 -3.61 107.82 11.65" fill="currentColor" font-family="Linux Libertine"><style type="text/css">tspan{white-space:pre}</style><rect width=".2" height="4" x="0" y="-2" ry="0" transform="translate(28.16 1.292)" /><rect width=".62" height="4" x="0" y="-2" ry="0" transform="translate(107.2 1.292)" /><rect width=".2" height="4" x="0" y="-2" ry="0" transform="translate(106.693 1.292)" /><path stroke="currentColor" stroke-linecap="round" stroke-linejoin="round" stroke-width=".1" d="M.05 3.292h107.72M.05 2.292h107.72M.05 1.292h107.72M.05.292h107.72M.05-.708h107.72" /><rect width=".2" height="4" x="0" y="-2" ry="0" transform="translate(85.487 1.292)" /><rect width=".2" height="4" x="0" y="-2" ry="0" transform="translate(57.954 1.292)" /><rect width=".13" height="2.81" x="-.07" y="-2" ry=".04" transform="translate(60.25 1.292)" /><path stroke="currentColor" stroke-linecap="round" stroke-linejoin="round" stroke-width=".08" d="M97.983-.094v.396l-9.978-.624v-.396z" /><text font-size="1.85" text-anchor="start" transform="translate(10.06 -2.317)">
<tspan>Mi</tspan>
</text><text font-size="1.85" text-anchor="start" transform="translate(12.78 -2.317)">
<tspan>m</tspan>
</text><path d="M10.06 1.476c0-.364.464-.728.868-.728.252 0 .436.14.436.36 0 .348-.44.728-.88.728-.268 0-.424-.156-.424-.36M1.864 4.832H1.84a.783.783 0 0 1-.78-.788c0-.232.212-.412.448-.412.216 0 .38.188.38.412 0 .208-.172.38-.38.38a.3.3 0 0 1-.124-.024c.104.156.272.26.468.26h.016zm.54-3.144c.076.356.192.968.24 1.416a.67.67 0 0 0 .448-.652.753.753 0 0 0-.688-.764m-1.308.492c0 .448.392.988 1.112.988q.127 0 .272-.024a17 17 0 0 0-.252-1.456c-.316.032-.496.244-.496.476 0 .176.1.364.324.492q.029.03.028.06c0 .044-.04.088-.088.088-.06 0-.504-.248-.504-.748 0-.352.232-.696.64-.788a15 15 0 0 0-.184-.7c-.428.484-.852.972-.852 1.612m1.132-4.664c.112 0 .572.824.572 1.444 0 .572-.344 1.02-.72 1.456.084.272.156.552.224.828.02 0 .04-.004.056-.004.62 0 1.02.516 1.02 1.048 0 .452-.296.848-.72.98q.019.21.02.42-.001.116-.008.232c-.028.476-.352.9-.808.912l.004-.172c.372-.008.612-.368.636-.764q.007-.11.008-.22.001-.184-.016-.368-.169.031-.32.032C1.22 3.34.808 2.472.808 1.844c0-.708.524-1.224.992-1.764-.116-.384-.208-.68-.208-1.384 0-.756.576-1.18.636-1.18m-.44 1.648c0 .22.048.46.14.76.328-.4.588-.808.588-1.304 0-.16-.024-.328-.084-.508a1.13 1.13 0 0 0-.644 1.052M4.185-1.184c0-.032.02-.06.052-.072l.184-.068v-.632c0-.04.032-.076.072-.076s.076.036.076.076v.58l.332-.124v-.632c0-.04.036-.076.076-.076s.072.036.072.076v.58l.128-.048q.014-.005.028-.004a.08.08 0 0 1 .08.08v.24c0 .032-.02.064-.052.076l-.184.064v.64l.128-.044q.014-.005.028-.004a.08.08 0 0 1 .08.08v.24c0 .032-.02.06-.052.072l-.184.068V.54c0 .04-.032.076-.072.076S4.901.58 4.901.54v-.58l-.332.124v.632c0 .04-.036.076-.076.076S4.421.756 4.421.716v-.58l-.128.048q-.014.005-.028.004a.08.08 0 0 1-.08-.08v-.24c0-.032.02-.064.052-.076l.184-.064v-.64l-.128.044q-.014.005-.028.004a.08.08 0 0 1-.08-.08zm.716.096-.332.12v.64l.332-.12zM8.167 1.648c0 .088-.2.696-.732.696-.236 0-1-.076-1-1.052 0-.248.072-1.048 1-1.048.464 0 .704.424.704.652 0 .16-.12.288-.268.288-.124 0-.3-.1-.3-.3 0-.152.108-.308.288-.308q.025-.001.056.004a.6.6 0 0 0-.48-.236c-.424 0-.452.292-.452.744v.408c0 .452.028.748.452.748.32 0 .556-.28.632-.604.008-.028.028-.04.048-.04.024 0 .052.016.052.048" /><text font-size="2.51" text-anchor="start" transform="translate(9.418 7.292)">
<tspan>Bé</tspan>
</text><rect width=".13" height="3.19" x="-.07" y=".19" ry=".04" transform="translate(10.127 1.292)" /><path d="M10.195 4.625h-.064v-1.5h.064zm.896-2.036c0-.376-.16-.632-.16-.672 0-.056.044-.088.092-.088.028 0 .06.012.08.044.1.224.16.468.16.716 0 .812-1.068 1.224-1.068 2.036v-1c.388-.236.896-.592.896-1.036" /><rect width=".36" height=".13" x="0" y="-.56" ry=".04" transform="translate(98.467 7.292)" /><path d="M12.878 1.476c0-.364.464-.728.868-.728.252 0 .436.14.436.36 0 .348-.44.728-.88.728-.268 0-.424-.156-.424-.36" /><text font-size="2.51" text-anchor="start" transform="translate(12.506 7.292)">
<tspan>ni</tspan>
</text><rect width=".13" height="3.15" x="-.07" y=".19" ry=".04" transform="translate(12.946 1.292)" /><rect width=".36" height=".13" x="0" y="-.56" ry=".04" transform="translate(91.825 7.292)" /><path d="M16.744.976c0-.364.464-.728.868-.728.252 0 .436.14.436.36 0 .348-.44.728-.88.728-.268 0-.424-.156-.424-.36" /><text font-size="2.51" text-anchor="start" transform="translate(15.455 7.292)">
<tspan>sois</tspan>
</text><rect width=".13" height="3.31" x="-.07" y="-.31" ry=".04" transform="translate(16.81 1.292)" /><path d="M16.878 4.25h-.064v-1.5h.064zm.896-2.036c0-.376-.16-.632-.16-.672 0-.056.044-.088.092-.088.028 0 .06.012.08.044.1.224.16.468.16.716 0 .812-1.068 1.224-1.068 2.036v-1c.388-.236.896-.592.896-1.036" /><rect width=".36" height=".13" x="0" y="-.56" ry=".04" transform="translate(88.126 7.292)" /><text font-size="1.85" text-anchor="start" transform="translate(20.514 -2.317)">
<tspan>Do</tspan>
</text><path d="M20.514.976c0-.364.464-.728.868-.728.252 0 .436.14.436.36 0 .348-.44.728-.88.728-.268 0-.424-.156-.424-.36" /><text font-size="2.51" text-anchor="start" transform="translate(19.836 7.292)">
<tspan>tu,</tspan>
</text><path d="M22.268.792a.224.224 0 1 1 .448 0 .224.224 0 0 1-.448 0" /><rect width=".13" height="3.31" x="-.07" y="-.31" ry=".04" transform="translate(20.581 1.292)" /><path d="M24.63.976c0-.364.464-.728.868-.728.252 0 .436.14.436.36 0 .348-.44.728-.88.728-.268 0-.424-.156-.424-.36" /><text font-size="2.51" text-anchor="start" transform="translate(23.773 7.292)">
<tspan>Sei</tspan>
</text><rect width=".13" height="3.31" x="-.07" y="-.31" ry=".04" transform="translate(24.698 1.292)" /><path d="M24.765 4.25H24.7v-1.5h.064zm.896-2.036c0-.376-.16-.632-.16-.672 0-.056.044-.088.092-.088.028 0 .06.012.08.044.1.224.16.468.16.716 0 .812-1.068 1.224-1.068 2.036v-1c.388-.236.896-.592.896-1.036" /><path stroke="currentColor" stroke-linecap="round" stroke-linejoin="round" stroke-width=".08" d="M72.88-1.094v.396L70.25-.51v-.396z" /><text font-size="1.85" text-anchor="start" transform="translate(29.64 -2.317)">
<tspan>Sol</tspan>
</text><path d="M29.64 1.476c0-.364.465-.728.869-.728.252 0 .436.14.436.36 0 .348-.44.728-.88.728-.268 0-.424-.156-.424-.36" /><text font-size="2.51" text-anchor="start" transform="translate(27.292 7.292)">
<tspan>gneur</tspan>
</text><rect width=".13" height="2.62" x="-.07" y="-2.81" ry=".04" transform="translate(30.878 1.292)" /><path d="M35.986 1.476c0-.364.464-.728.868-.728.252 0 .436.14.436.36 0 .348-.44.728-.88.728-.268 0-.424-.156-.424-.36" /><text font-size="2.51" text-anchor="start" transform="translate(34.194 7.292)">
<tspan>Dieu</tspan>
</text><rect width=".13" height="2.36" x="-.07" y="-2.54" ry=".04" transform="translate(37.223 1.292)" /><path stroke="currentColor" stroke-linecap="round" stroke-linejoin="round" stroke-width=".08" d="M68.36-.906v.396h-8.135v-.396zM68.36-.094v.396h-3.82v-.396z" /><path d="M40.516 1.976c0-.364.464-.728.868-.728.252 0 .436.14.436.36 0 .348-.44.728-.88.728-.268 0-.424-.156-.424-.36" /><text font-size="2.51" text-anchor="start" transform="translate(39.982 7.292)">
<tspan>de</tspan>
</text><rect width=".13" height="2.67" x="-.07" y="-2.35" ry=".04" transform="translate(41.753 1.292)" /><path stroke="currentColor" stroke-linecap="round" stroke-linejoin="round" stroke-width=".08" d="M67.95 3.292a.987.987 0 0 0 1.541 0h0c-.398.37-1.143.37-1.541 0" /><path d="M44.399 2.476c0-.364.464-.728.868-.728.252 0 .436.14.436.36 0 .348-.44.728-.88.728-.268 0-.424-.156-.424-.36" /><text font-size="2.51" text-anchor="start" transform="translate(43.254 7.292)">
<tspan>nos</tspan>
</text><rect width=".13" height="3" x="-.07" y="-2.19" ry=".04" transform="translate(45.636 1.292)" /><rect width=".36" height=".13" x="0" y="-.56" ry=".04" transform="translate(69.222 7.292)" /><text font-size="1.85" text-anchor="start" transform="translate(50.384 -2.317)">
<tspan>Ré</tspan>
</text><path d="M50.384 1.976c0-.364.464-.728.868-.728.252 0 .436.14.436.36 0 .348-.44.728-.88.728-.268 0-.424-.156-.424-.36" /><text font-size="2.51" text-anchor="start" transform="translate(47.748 7.292)">
<tspan>pères :</tspan>
</text><path d="M52.139 1.792a.224.224 0 1 1 .447 0 .224.224 0 0 1-.447 0" /><rect width=".13" height="3.31" x="-.07" y="-3" ry=".04" transform="translate(51.621 1.292)" /><rect width=".36" height=".13" x="0" y="-.56" ry=".04" transform="translate(65.918 7.292)" /><path d="M54.234-1.32c.148 0 .268.116.268.264v.08c0 .428-.408.64-.456.64a.053.053 0 0 1-.052-.052c0-.072.264-.1.32-.48h-.108a.213.213 0 0 1-.212-.212.24.24 0 0 1 .24-.24M55.5 3.476c0-.364.465-.728.869-.728.252 0 .436.14.436.36 0 .348-.44.728-.88.728-.268 0-.424-.156-.424-.36" /><text font-size="2.51" font-weight="bold" text-anchor="start" transform="translate(55.524 7.292)">
<tspan>à</tspan>
</text><rect width=".13" height="3.31" x="-.07" y="-1.5" ry=".04" transform="translate(56.738 1.292)" /><path d="M56.805-.166v1.5h-.064v-1.5zm.492 2.916c0-.04.168-.348.168-.784 0-.412-.376-.832-.66-1.132v-1c0 .788.828 1.344.828 2.132 0 .284-.06.564-.164.828a.1.1 0 0 1-.08.048.09.09 0 0 1-.092-.092" /><text font-size="1.85" text-anchor="start" transform="translate(59.013 -2.317)">
<tspan>Mi</tspan>
</text><text font-size="1.85" text-anchor="start" transform="translate(61.733 -2.317)">
<tspan>m</tspan>
</text><path d="M59.013 2.476c0-.364.464-.728.868-.728.252 0 .436.14.436.36 0 .348-.44.728-.88.728-.268 0-.424-.156-.424-.36" /><text font-size="2.51" font-weight="bold" text-anchor="start" transform="translate(58.12 7.292)">
<tspan>toi</tspan>
</text><rect width=".36" height=".13" x="0" y="-.56" ry=".04" transform="translate(95.919 7.292)" /><path stroke="currentColor" stroke-linecap="round" stroke-linejoin="round" stroke-width=".08" d="M45.661-1.094v.396l-14.808-.624v-.396z" /><path d="M63.327 2.476c0-.364.464-.728.868-.728.252 0 .436.14.436.36 0 .348-.44.728-.88.728-.268 0-.424-.156-.424-.36" /><text font-size="2.51" font-weight="bold" text-anchor="start" transform="translate(62.11 7.292)">
<tspan>lou</tspan>
</text><rect width=".13" height="2.81" x="-.07" y="-2" ry=".04" transform="translate(64.564 1.292)" /><path d="M67.098 2.476c0-.364.464-.728.868-.728.252 0 .436.14.436.36 0 .348-.44.728-.88.728-.268 0-.424-.156-.424-.36" /><text font-size="2.51" font-weight="bold" text-anchor="start" transform="translate(66.348 7.292)">
<tspan>an</tspan>
</text><rect width=".13" height="2.81" x="-.07" y="-2" ry=".04" transform="translate(68.335 1.292)" /><path d="M69.04 2.476c0-.364.463-.728.867-.728.252 0 .436.14.436.36 0 .348-.44.728-.88.728-.268 0-.424-.156-.424-.36" /><rect width=".13" height="2.82" x="-.07" y="-2" ry=".04" transform="translate(70.276 1.292)" /><path d="M71.618 1.976c0-.364.464-.728.868-.728.252 0 .436.14.436.36 0 .348-.44.728-.88.728-.268 0-.424-.156-.424-.36" /><text font-size="2.51" font-weight="bold" text-anchor="start" transform="translate(69.652 7.292)">
<tspan>ge</tspan>
</text><path d="M73.54 7.752c0 .056-.387.4-1.073.4s-1.071-.344-1.071-.4c0-.032.027-.064.064-.064.014 0 .028 0 .042.014.257.225.62.239.966.239s.708-.014.965-.24c.014-.013.028-.013.042-.013.037 0 .064.032.064.064" /><text font-size="2.51" font-weight="bold" text-anchor="start" transform="translate(72.767 7.292)">
<tspan>et</tspan>
</text><rect width=".13" height="2.5" x="-.07" y="-2.18" ry=".04" transform="translate(72.855 1.292)" /><text font-size="1.85" text-anchor="start" transform="translate(78.675 -2.317)">
<tspan>La</tspan>
</text><text font-size="1.85" text-anchor="start" transform="translate(81.108 -2.317)">
<tspan>m</tspan>
</text><text font-size="1.85" text-anchor="start" transform="translate(82.618 -2.317)">
<tspan>/</tspan>
</text><text font-size="1.85" text-anchor="start" transform="translate(83.229 -2.317)">
<tspan>Do</tspan>
</text><path d="M78.963 2.216c.16 0 .816-.44.924-.572a.2.2 0 0 0 .044-.112.166.166 0 0 0-.168-.164c-.16 0-.816.44-.924.572a.2.2 0 0 0-.04.112c0 .088.068.164.164.164m-.288-.156c0-.284.184-.812 1.032-.812.164 0 .344.04.344.276 0 .284-.184.812-1.032.812-.164 0-.344-.04-.344-.276" /><text font-size="2.51" font-weight="bold" text-anchor="start" transform="translate(75.788 7.292)">
<tspan>gloire,</tspan>
</text><rect width=".13" height="3.24" x="-.07" y="-3" ry=".04" transform="translate(79.986 1.292)" /><rect width=".36" height=".13" x="0" y="-.56" ry=".04" transform="translate(26.862 7.292)" /><text font-size="1.85" text-anchor="start" transform="translate(86.793 -2.317)">
<tspan>Ré</tspan>
</text><path d="M86.793 2.976c0-.364.464-.728.868-.728.252 0 .436.14.436.36 0 .348-.44.728-.88.728-.268 0-.424-.156-.424-.36" /><text font-size="2.51" font-weight="bold" text-anchor="start" transform="translate(86.834 7.292)">
<tspan>é</tspan>
</text><rect width=".13" height="3.12" x="-.07" y="-1.81" ry=".04" transform="translate(88.03 1.292)" /><rect width=".36" height=".13" x="0" y="-.56" ry=".04" transform="translate(19.406 7.292)" /><path d="M89.503 2.976c0-.364.464-.728.868-.728.252 0 .436.14.436.36 0 .348-.44.728-.88.728-.268 0-.424-.156-.424-.36" /><text font-size="2.51" font-weight="bold" text-anchor="start" transform="translate(88.556 7.292)">
<tspan>ter</tspan>
</text><rect width=".13" height="2.95" x="-.07" y="-1.64" ry=".04" transform="translate(90.74 1.292)" /><path d="M93.4 3.476c0-.364.464-.728.868-.728.252 0 .436.14.436.36 0 .348-.44.728-.88.728-.268 0-.424-.156-.424-.36" /><text font-size="2.51" font-weight="bold" text-anchor="start" transform="translate(92.255 7.292)">
<tspan>nel</tspan>
</text><rect width=".13" height="3.21" x="-.07" y="-1.4" ry=".04" transform="translate(94.637 1.292)" /><rect width=".36" height=".13" x="0" y="-.56" ry=".04" transform="translate(12.076 7.292)" /><path d="M96.721 3.976c0-.364.464-.728.868-.728.252 0 .436.14.436.36 0 .348-.44.728-.88.728-.268 0-.424-.156-.424-.36" /><text font-size="2.51" font-weight="bold" text-anchor="start" transform="translate(96.349 7.292)">
<tspan>le</tspan>
</text><rect width=".13" height="3.51" x="-.07" y="-1.19" ry=".04" transform="translate(97.958 1.292)" /><text font-size="1.85" text-anchor="start" transform="translate(101.82 -2.317)">
<tspan>Mi</tspan>
</text><path d="M102.109 3.716c.16 0 .816-.44.924-.572a.2.2 0 0 0 .044-.112.166.166 0 0 0-.168-.164c-.16 0-.816.44-.924.572a.2.2 0 0 0-.04.112c0 .088.068.164.164.164m-.288-.156c0-.284.184-.812 1.032-.812.164 0 .344.04.344.276 0 .284-.184.812-1.032.812-.164 0-.344-.04-.344-.276" /><text font-size="2.51" font-weight="bold" text-anchor="start" transform="translate(98.897 7.292)">
<tspan>ment !</tspan>
</text><rect width=".13" height="3.24" x="-.07" y="-1.5" ry=".04" transform="translate(103.13 1.292)" /></svg>