<svg xmlns="http://www.w3.org/2000/svg" width="624.94" height="64.97" viewBox="0 0 99.05 10.29" fill="currentColor" font-family="Linux Libertine"><style type="text/css">tspan{white-space:pre}</style><rect width=".2" height="4" x="0" y="-2" ry="0" transform="translate(27.288 4.09)" /><rect width=".62" height="4" x="0" y="-2" ry="0" transform="translate(98.425 4.09)" /><rect width=".2" height="4" x="0" y="-2" ry="0" transform="translate(97.918 4.09)" /><path stroke="currentColor" stroke-linecap="round" stroke-linejoin="round" stroke-width=".1" d="M.05 6.09h98.94M.05 5.09h98.94M.05 4.09h98.94M.05 3.09h98.94M.05 2.09h98.94" /><rect width=".2" height="4" x="0" y="-2" ry="0" transform="translate(78.62 4.09)" /><rect width=".2" height="4" x="0" y="-2" ry="0" transform="translate(55.394 4.09)" /><rect width=".13" height="2.81" x="-.07" y="-2" ry=".04" transform="translate(57.727 4.09)" /><path stroke="currentColor" stroke-linecap="round" stroke-linejoin="round" stroke-width=".08" d="M89.523 2.703v.396l-8.595-.624V2.08z" /><path d="M10.135 4.273c0-.364.464-.728.868-.728.252 0 .436.14.436.36 0 .348-.44.728-.88.728-.268 0-.424-.156-.424-.36" /><text font-size="2.2" font-style="italic" text-anchor="start" transform="translate(10.135 1.537)">
<tspan>soliste</tspan>
</text><path d="M1.864 7.63H1.84a.783.783 0 0 1-.78-.789c0-.232.212-.412.448-.412.216 0 .38.188.38.412 0 .208-.172.38-.38.38a.3.3 0 0 1-.124-.024c.104.156.272.26.468.26h.016zm.54-3.145c.076.356.192.968.24 1.416a.67.67 0 0 0 .448-.652.753.753 0 0 0-.688-.764m-1.308.492c0 .448.392.988 1.112.988q.127 0 .272-.024a17 17 0 0 0-.252-1.456c-.316.032-.496.244-.496.476 0 .176.1.364.324.492q.029.03.028.06c0 .044-.04.088-.088.088-.06 0-.504-.248-.504-.748 0-.352.232-.696.64-.788a15 15 0 0 0-.184-.7c-.428.484-.852.972-.852 1.612M2.228.313c.112 0 .572.824.572 1.444 0 .572-.344 1.02-.72 1.456.084.272.156.552.224.828q.031-.002.056-.004c.62 0 1.02.516 1.02 1.048 0 .452-.296.848-.72.98q.019.21.02.42-.001.116-.008.232c-.028.476-.352.9-.808.912l.004-.172c.372-.008.612-.368.636-.764q.007-.11.008-.22.001-.184-.016-.368-.169.031-.32.032C1.22 6.137.808 5.27.808 4.641c0-.708.524-1.224.992-1.764-.116-.384-.208-.68-.208-1.384 0-.756.576-1.18.636-1.18m-.44 1.648c0 .22.048.46.14.76.328-.4.588-.808.588-1.304 0-.16-.024-.328-.084-.508a1.13 1.13 0 0 0-.644 1.052M4.185 1.613c0-.032.02-.06.052-.072l.184-.068V.841c0-.04.032-.076.072-.076s.076.036.076.076v.58l.332-.124V.665c0-.04.036-.076.076-.076s.072.036.072.076v.58l.128-.048q.014-.005.028-.004a.08.08 0 0 1 .08.08v.24c0 .032-.02.064-.052.076l-.184.064v.64l.128-.044q.014-.005.028-.004a.08.08 0 0 1 .08.08v.24c0 .032-.02.06-.052.072l-.184.068v.632c0 .04-.032.076-.072.076s-.076-.036-.076-.076v-.58l-.332.124v.632c0 .04-.036.076-.076.076s-.072-.036-.072-.076v-.58l-.128.048q-.014.005-.028.004a.08.08 0 0 1-.08-.08v-.24c0-.032.02-.064.052-.076l.184-.064v-.64l-.128.044q-.014.005-.028.004a.08.08 0 0 1-.08-.08zm.716.096-.332.12v.64l.332-.12zM8.167 4.445c0 .088-.2.696-.732.696-.236 0-1-.076-1-1.052 0-.248.072-1.048 1-1.048.464 0 .704.424.704.652 0 .16-.12.288-.268.288-.124 0-.3-.1-.3-.3 0-.152.108-.308.288-.308q.025-.001.056.004a.6.6 0 0 0-.48-.236c-.424 0-.452.292-.452.744v.408c0 .452.028.748.452.748.32 0 .556-.28.632-.604.008-.028.028-.04.048-.04.024 0 .052.016.052.048" /><text font-size="2.47" text-anchor="start" transform="translate(9.511 9.59)">
<tspan>Bé</tspan>
</text><rect width=".13" height="3.19" x="-.07" y=".19" ry=".04" transform="translate(10.202 4.09)" /><path d="M10.27 7.422h-.064v-1.5h.064zm.896-2.036c0-.376-.16-.632-.16-.672 0-.056.044-.088.092-.088.028 0 .06.012.08.044.1.224.16.468.16.716 0 .812-1.068 1.224-1.068 2.036v-1c.388-.236.896-.592.896-1.036M12.64 4.273c0-.364.463-.728.867-.728.252 0 .436.14.436.36 0 .348-.44.728-.88.728-.268 0-.424-.156-.424-.36" /><text font-size="2.47" text-anchor="start" transform="translate(12.285 9.59)">
<tspan>ni</tspan>
</text><rect width=".13" height="3.15" x="-.07" y=".19" ry=".04" transform="translate(12.706 4.09)" /><path d="M16.343 3.773c0-.364.464-.728.868-.728.252 0 .436.14.436.36 0 .348-.44.728-.88.728-.268 0-.424-.156-.424-.36" /><text font-size="2.47" text-anchor="start" transform="translate(15.055 9.59)">
<tspan>sois</tspan>
</text><rect width=".13" height="3.31" x="-.07" y="-.31" ry=".04" transform="translate(16.41 4.09)" /><path d="M16.478 7.047h-.064v-1.5h.064zm.896-2.036c0-.376-.16-.632-.16-.672 0-.056.044-.088.092-.088.028 0 .06.012.08.044.1.224.16.468.16.716 0 .812-1.068 1.224-1.068 2.036v-1c.388-.236.896-.592.896-1.036" /><rect width=".3" height=".13" x="0" y="-.54" ry=".04" transform="translate(81.003 9.59)" /><path d="M19.696 3.773c0-.364.464-.728.868-.728.252 0 .436.14.436.36 0 .348-.44.728-.88.728-.268 0-.424-.156-.424-.36" /><text font-size="2.47" text-anchor="start" transform="translate(19.036 9.59)">
<tspan>tu,</tspan>
</text><path d="M21.45 3.59a.224.224 0 1 1 .447-.002.224.224 0 0 1-.447.001" /><rect width=".13" height="3.31" x="-.07" y="-.31" ry=".04" transform="translate(19.763 4.09)" /><path d="M24.102 3.773c0-.364.464-.728.868-.728.252 0 .436.14.436.36 0 .348-.44.728-.88.728-.268 0-.424-.156-.424-.36" /><text font-size="2.47" text-anchor="start" transform="translate(23.263 9.59)">
<tspan>Sei</tspan>
</text><rect width=".13" height="3.31" x="-.07" y="-.31" ry=".04" transform="translate(24.17 4.09)" /><path d="M24.237 7.047h-.064v-1.5h.064zm.896-2.036c0-.376-.16-.632-.16-.672 0-.056.044-.088.092-.088.028 0 .06.012.08.044.1.224.16.468.16.716 0 .812-1.068 1.224-1.068 2.036v-1c.388-.236.896-.592.896-1.036" /><path stroke="currentColor" stroke-linecap="round" stroke-linejoin="round" stroke-width=".08" d="M68.46 1.703v.396l-2.682.188v-.396z" /><path d="M28.64 4.273c0-.364.465-.728.869-.728.252 0 .436.14.436.36 0 .348-.44.728-.88.728-.268 0-.424-.156-.424-.36" /><text font-size="2.47" text-anchor="start" transform="translate(26.346 9.59)">
<tspan>gneur</tspan>
</text><rect width=".13" height="2.62" x="-.07" y="-2.81" ry=".04" transform="translate(29.878 4.09)" /><path d="M34.446 4.273c0-.364.464-.728.868-.728.252 0 .436.14.436.36 0 .348-.44.728-.88.728-.268 0-.424-.156-.424-.36" /><text font-size="2.47" text-anchor="start" transform="translate(32.69 9.59)">
<tspan>Dieu</tspan>
</text><rect width=".13" height="2.35" x="-.07" y="-2.54" ry=".04" transform="translate(35.683 4.09)" /><path stroke="currentColor" stroke-linecap="round" stroke-linejoin="round" stroke-width=".08" d="M63.86 1.891v.396h-6.158v-.396zM63.86 2.703v.396h-2.527v-.396z" /><path d="M38.49 4.773c0-.364.464-.728.868-.728.252 0 .436.14.436.36 0 .348-.44.728-.88.728-.268 0-.424-.156-.424-.36" /><text font-size="2.47" text-anchor="start" transform="translate(37.956 9.59)">
<tspan>de</tspan>
</text><rect width=".13" height="2.66" x="-.07" y="-2.35" ry=".04" transform="translate(39.727 4.09)" /><path stroke="currentColor" stroke-linecap="round" stroke-linejoin="round" stroke-width=".08" d="M63.45 6.09c.404.498 1.165.498 1.569 0h0c-.404.374-1.165.374-1.569 0" /><path d="M41.905 5.273c0-.364.464-.728.868-.728.252 0 .436.14.436.36 0 .348-.44.728-.88.728-.268 0-.424-.156-.424-.36" /><text font-size="2.47" text-anchor="start" transform="translate(40.778 9.59)">
<tspan>nos</tspan>
</text><rect width=".13" height="3.01" x="-.07" y="-2.19" ry=".04" transform="translate(43.142 4.09)" /><path d="M47.423 4.773c0-.364.464-.728.868-.728.252 0 .436.14.436.36 0 .348-.44.728-.88.728-.268 0-.424-.156-.424-.36" /><text font-size="2.47" text-anchor="start" transform="translate(44.786 9.59)">
<tspan>pères :</tspan>
</text><path d="M49.177 4.59a.224.224 0 1 1 .447-.002.224.224 0 0 1-.447.001" /><rect width=".13" height="3.31" x="-.07" y="-3" ry=".04" transform="translate(48.66 4.09)" /><path d="M51.562 1.477c.148 0 .268.116.268.264v.08c0 .428-.408.64-.456.64a.053.053 0 0 1-.052-.052c0-.072.264-.1.32-.48h-.108a.213.213 0 0 1-.212-.212.24.24 0 0 1 .24-.24M52.829 6.273c0-.364.464-.728.868-.728.252 0 .436.14.436.36 0 .348-.44.728-.88.728-.268 0-.424-.156-.424-.36" /><text font-size="2.2" font-style="italic" text-anchor="start" transform="translate(52.829 1.537)">
<tspan>tous</tspan>
</text><text font-size="2.37" font-weight="bold" text-anchor="start" transform="translate(52.888 9.59)">
<tspan>à</tspan>
</text><rect width=".13" height="3.31" x="-.07" y="-1.5" ry=".04" transform="translate(54.066 4.09)" /><path d="M54.133 2.631v1.5h-.064v-1.5zm.492 2.916c0-.04.168-.348.168-.784 0-.412-.376-.832-.66-1.132v-1c0 .788.828 1.344.828 2.132 0 .284-.06.564-.164.828a.1.1 0 0 1-.08.048.09.09 0 0 1-.092-.092M56.49 5.273c0-.364.464-.728.868-.728.253 0 .437.14.437.36 0 .348-.44.728-.88.728-.269 0-.425-.156-.425-.36" /><text font-size="2.37" font-weight="bold" text-anchor="start" transform="translate(55.687 9.59)">
<tspan>toi</tspan>
</text><path stroke="currentColor" stroke-linecap="round" stroke-linejoin="round" stroke-width=".08" d="M43.167 1.703v.396l-13.314-.624V1.08z" /><path d="M60.121 5.273c0-.364.464-.728.868-.728.252 0 .436.14.436.36 0 .348-.44.728-.88.728-.268 0-.424-.156-.424-.36" /><text font-size="2.37" font-weight="bold" text-anchor="start" transform="translate(59.048 9.59)">
<tspan>lou</tspan>
</text><rect width=".13" height="2.81" x="-.07" y="-2" ry=".04" transform="translate(61.358 4.09)" /><path d="M62.598 5.273c0-.364.464-.728.868-.728.252 0 .436.14.436.36 0 .348-.44.728-.88.728-.268 0-.424-.156-.424-.36" /><text font-size="2.37" font-weight="bold" text-anchor="start" transform="translate(62.598 9.59)">
<tspan>an</tspan>
</text><rect width=".13" height="2.81" x="-.07" y="-2" ry=".04" transform="translate(63.835 4.09)" /><path d="M64.566 5.273c0-.364.464-.728.868-.728.252 0 .436.14.436.36 0 .348-.44.728-.88.728-.268 0-.424-.156-.424-.36" /><rect width=".13" height="2.82" x="-.07" y="-2" ry=".04" transform="translate(65.803 4.09)" /><path d="M67.198 4.773c0-.364.464-.728.868-.728.252 0 .436.14.436.36 0 .348-.44.728-.88.728-.268 0-.424-.156-.424-.36" /><text font-size="2.37" font-weight="bold" text-anchor="start" transform="translate(65.358 9.59)">
<tspan>ge</tspan>
</text><path d="M69.036 10.02c0 .06-.374.382-1.006.382s-1.006-.323-1.006-.383c0-.034.03-.064.064-.064q.022-.001.043.017c.241.206.58.215.9.215s.657-.009.898-.215a.06.06 0 0 1 .043-.017c.034 0 .064.03.064.064" /><text font-size="2.37" font-weight="bold" text-anchor="start" transform="translate(68.33 9.59)">
<tspan>et</tspan>
</text><rect width=".13" height="2.5" x="-.07" y="-2.18" ry=".04" transform="translate(68.435 4.09)" /><path d="M73.77 5.013c.16 0 .816-.44.924-.572a.2.2 0 0 0 .044-.112.166.166 0 0 0-.168-.164c-.16 0-.816.44-.924.572a.2.2 0 0 0-.04.112c0 .088.068.164.164.164m-.288-.156c0-.284.184-.812 1.032-.812.164 0 .344.04.344.276 0 .284-.184.812-1.032.812-.164 0-.344-.04-.344-.276" /><text font-size="2.37" font-weight="bold" text-anchor="start" transform="translate(70.793 9.59)">
<tspan>gloire,</tspan>
</text><rect width=".13" height="3.24" x="-.07" y="-3" ry=".04" transform="translate(74.793 4.09)" /><path d="M79.717 5.773c0-.364.463-.728.867-.728.252 0 .436.14.436.36 0 .348-.44.728-.88.728-.267 0-.423-.156-.423-.36" /><g color="rgba(100.0000%, 0.0000%, 0.0000%, 100.0000%)"><rect width="-.1" height="-.61" x=".3" y=".3" ry="0" transform="translate(3 -1.3)" /><rect width="-.1" height="-.61" x="-.2" y=".3" ry="0" transform="translate(3 -1.3)" /><rect width="-.61" height="-.1" x=".3" y="-.2" ry="0" transform="translate(3 -1.3)" /><rect width="-.61" height="-.1" x=".3" y=".3" ry="0" transform="translate(3 -1.3)" /></g><text font-size="2.37" font-weight="bold" text-anchor="start" transform="translate(79.793 9.59)">
<tspan>é</tspan>
</text><rect width=".13" height="3.12" x="-.07" y="-1.81" ry=".04" transform="translate(80.953 4.09)" /><path d="M82.22 5.773c0-.364.465-.728.869-.728.252 0 .436.14.436.36 0 .348-.44.728-.88.728-.268 0-.424-.156-.424-.36" /><text font-size="2.37" font-weight="bold" text-anchor="start" transform="translate(81.363 9.59)">
<tspan>ter</tspan>
</text><rect width=".13" height="2.94" x="-.07" y="-1.63" ry=".04" transform="translate(83.458 4.09)" /><path d="M85.52 6.273c0-.364.463-.728.867-.728.252 0 .436.14.436.36 0 .348-.44.728-.88.728-.268 0-.424-.156-.424-.36" /><text font-size="2.37" font-weight="bold" text-anchor="start" transform="translate(84.482 9.59)">
<tspan>nel</tspan>
</text><rect width=".13" height="3.2" x="-.07" y="-1.39" ry=".04" transform="translate(86.756 4.09)" /><path d="M88.261 6.773c0-.364.464-.728.868-.728.252 0 .436.14.436.36 0 .348-.44.728-.88.728-.268 0-.424-.156-.424-.36" /><text font-size="2.37" font-weight="bold" text-anchor="start" transform="translate(87.96 9.59)">
<tspan>le</tspan>
</text><rect width=".13" height="3.51" x="-.07" y="-1.19" ry=".04" transform="translate(89.498 4.09)" /><path d="M92.997 6.513c.16 0 .816-.44.924-.572a.2.2 0 0 0 .044-.112.166.166 0 0 0-.168-.164c-.16 0-.816.44-.924.572a.2.2 0 0 0-.04.112c0 .088.068.164.164.164m-.288-.156c0-.284.184-.812 1.032-.812.164 0 .344.04.344.276 0 .284-.184.812-1.032.812-.164 0-.344-.04-.344-.276" /><text font-size="2.37" font-weight="bold" text-anchor="start" transform="translate(89.966 9.59)">
<tspan>ment !</tspan>
</text><rect width=".13" height="3.24" x="-.07" y="-1.5" ry=".04" transform="translate(94.02 4.09)" /></svg>