<svg xmlns="http://www.w3.org/2000/svg" width="338.8" height="57.94" viewBox="0 -4.02 53.7 9.18" fill="currentColor" font-family="Linux Libertine"><style type="text/css">tspan{white-space:pre}</style><rect width=".2" height="4" x="0" y="-2" ry="0" transform="translate(21.864 1.61)" /><rect width=".62" height="4" x="0" y="-2" ry="0" transform="translate(53.077 1.61)" /><rect width=".2" height="4" x="0" y="-2" ry="0" transform="translate(52.57 1.61)" /><path stroke="currentColor" stroke-linecap="round" stroke-linejoin="round" stroke-width=".1" d="M.05 3.61h53.6M.05 2.61h53.6M.05 1.61h53.6M.05.61h53.6M.05-.39h53.6" /><rect width=".2" height="4" x="0" y="-2" ry="0" transform="translate(40.34 1.61)" /><rect width=".2" height="4" x="0" y="-2" ry="0" transform="translate(39.833 1.61)" /><path stroke="currentColor" stroke-linecap="round" stroke-linejoin="round" stroke-width=".08" d="M15.328 4.224v.395l-2.304-.623V3.6z" /><text font-size="1.85" text-anchor="start" transform="translate(5.8 -2.413)">
<tspan>La</tspan>
</text><text font-size="1.85" text-anchor="start" transform="translate(8.233 -2.413)">
<tspan>m</tspan>
</text><path d="M8.18 2.75c0 .044-.036.08-.08.08s-.08-.036-.08-.08V1.47c0-.044.036-.08.08-.08s.08.036.08.08zm-2.668 0c0 .044-.036.08-.08.08s-.08-.036-.08-.08V1.47c0-.044.036-.08.08-.08s.08.036.08.08zm1.256-1.184c.012 0 .836.008.968.452V1.47c0-.044.036-.08.08-.08s.08.036.08.08v1.28c0 .044-.036.08-.08.08s-.08-.036-.08-.08v-.548c-.068.224-.424.452-.968.452-.012 0-.836-.008-.968-.452v.548c0 .044-.036.08-.08.08s-.08-.036-.08-.08V1.47c0-.044.036-.08.08-.08s.08.036.08.08v.548c.068-.224.424-.452.968-.452m.408.648c0-.408-.36-.556-.536-.556-.092 0-.28.04-.28.356a.54.54 0 0 0 .532.544c.088 0 .284-.032.284-.344M1.864 5.15H1.84a.783.783 0 0 1-.78-.788c0-.232.212-.412.448-.412.216 0 .38.188.38.412 0 .208-.172.38-.38.38a.3.3 0 0 1-.124-.024c.104.156.272.26.468.26h.016zm.54-3.144c.076.356.192.968.24 1.416a.67.67 0 0 0 .448-.652.753.753 0 0 0-.688-.764m-1.308.492c0 .448.392.988 1.112.988q.127 0 .272-.024a17 17 0 0 0-.252-1.456c-.316.032-.496.244-.496.476 0 .176.1.364.324.492q.029.03.028.06c0 .044-.04.088-.088.088-.06 0-.504-.248-.504-.748 0-.352.232-.696.64-.788a15 15 0 0 0-.184-.7c-.428.484-.852.972-.852 1.612m1.132-4.664c.112 0 .572.824.572 1.444 0 .572-.344 1.02-.72 1.456.084.272.156.552.224.828.02 0 .04-.004.056-.004.62 0 1.02.516 1.02 1.048 0 .452-.296.848-.72.98q.019.21.02.42c0 .076-.004.156-.008.232-.028.476-.352.9-.808.912l.004-.172c.372-.008.612-.368.636-.764q.007-.11.008-.22c0-.124-.004-.244-.016-.368q-.169.031-.32.032C1.22 3.658.808 2.79.808 2.162c0-.708.524-1.224.992-1.764-.116-.384-.208-.68-.208-1.384 0-.756.576-1.18.636-1.18m-.44 1.648c0 .22.048.46.14.76.328-.4.588-.808.588-1.304 0-.16-.024-.328-.084-.508a1.13 1.13 0 0 0-.644 1.052M12.982 1.294c0-.364.464-.728.868-.728.252 0 .436.14.436.36 0 .348-.44.728-.88.728-.268 0-.424-.156-.424-.36" /><rect width=".13" height="2.52" x="-.07" y="-.31" ry=".04" transform="translate(13.049 1.61)" /><path d="M15.236 2.294c0-.364.464-.728.868-.728.252 0 .436.14.436.36 0 .348-.44.728-.88.728-.268 0-.424-.156-.424-.36" /><rect width=".13" height="2.11" x="-.07" y=".69" ry=".04" transform="translate(15.303 1.61)" /><text font-size="1.85" text-anchor="start" transform="translate(17.722 -2.413)">
<tspan>Mi</tspan>
</text><text font-size="1.85" text-anchor="start" transform="translate(20.442 -2.413)">
<tspan>m</tspan>
</text><path d="M17.722 2.794c0-.364.464-.728.868-.728.252 0 .436.14.436.36 0 .348-.44.728-.88.728-.268 0-.424-.156-.424-.36" /><rect width=".13" height="3.31" x="-.07" y="-2.5" ry=".04" transform="translate(18.959 1.61)" /><text font-size="1.85" text-anchor="start" transform="translate(23.052 -2.413)">
<tspan>Fa</tspan>
</text><path d="M25.432 2.75c0 .044-.036.08-.08.08s-.08-.036-.08-.08V1.47c0-.044.036-.08.08-.08s.08.036.08.08zm-2.668 0c0 .044-.036.08-.08.08s-.08-.036-.08-.08V1.47c0-.044.036-.08.08-.08s.08.036.08.08zm1.256-1.184c.012 0 .836.008.968.452V1.47c0-.044.036-.08.08-.08s.08.036.08.08v1.28c0 .044-.036.08-.08.08s-.08-.036-.08-.08v-.548c-.068.224-.424.452-.968.452-.012 0-.836-.008-.968-.452v.548c0 .044-.036.08-.08.08s-.08-.036-.08-.08V1.47c0-.044.036-.08.08-.08s.08.036.08.08v.548c.068-.224.424-.452.968-.452m.408.648c0-.408-.36-.556-.536-.556-.092 0-.28.04-.28.356a.54.54 0 0 0 .532.544c.088 0 .284-.032.284-.344" /><text font-size="1.85" text-anchor="start" transform="translate(30.234 -2.413)">
<tspan>Mi</tspan>
</text><text font-size="1.85" text-anchor="start" transform="translate(32.954 -2.413)">
<tspan>m</tspan>
</text><path d="M30.234 2.794c0-.364.464-.728.868-.728.252 0 .436.14.436.36 0 .348-.44.728-.88.728-.268 0-.424-.156-.424-.36" /><rect width=".13" height="3.31" x="-.07" y="-2.5" ry=".04" transform="translate(31.47 1.61)" /><path d="M31.538-.848v1.5h-.064v-1.5zm.492 2.916c0-.04.168-.348.168-.784 0-.412-.376-.832-.66-1.132v-1c0 .788.828 1.344.828 2.132 0 .284-.06.564-.164.828a.1.1 0 0 1-.08.048.09.09 0 0 1-.092-.092M29.886-4.023c0 .068-.252.232-.252 1s.252.932.252 1a.053.053 0 0 1-.052.052q-.023 0-.04-.024c-.212-.304-.36-.656-.36-1.028s.148-.724.36-1.028q.017-.024.04-.024c.028 0 .052.024.052.052M34.812-2.023c0-.068.252-.232.252-1s-.252-.932-.252-1c0-.028.024-.052.052-.052q.023 0 .04.024c.212.304.36.656.36 1.028s-.148.724-.36 1.028q-.017.024-.04.024a.053.053 0 0 1-.052-.052" /><text font-size="1.85" text-anchor="start" transform="translate(35.964 -2.413)">
<tspan>La</tspan>
</text><text font-size="1.85" text-anchor="start" transform="translate(38.397 -2.413)">
<tspan>m</tspan>
</text><path d="M35.964 2.294c0-.364.464-.728.868-.728.252 0 .436.14.436.36 0 .348-.44.728-.88.728-.268 0-.424-.156-.424-.36" /><rect width=".13" height="3.31" x="-.07" y="-3" ry=".04" transform="translate(37.2 1.61)" /><text font-size="1.85" text-anchor="start" transform="translate(41.483 -2.413)">
<tspan>La</tspan>
</text><text font-size="1.85" text-anchor="start" transform="translate(43.916 -2.413)">
<tspan>m</tspan>
</text><path d="M43.863 2.75c0 .044-.036.08-.08.08s-.08-.036-.08-.08V1.47c0-.044.036-.08.08-.08s.08.036.08.08zm-2.668 0c0 .044-.036.08-.08.08s-.08-.036-.08-.08V1.47c0-.044.036-.08.08-.08s.08.036.08.08zm1.256-1.184c.012 0 .836.008.968.452V1.47c0-.044.036-.08.08-.08s.08.036.08.08v1.28c0 .044-.036.08-.08.08s-.08-.036-.08-.08v-.548c-.068.224-.424.452-.968.452-.012 0-.836-.008-.968-.452v.548c0 .044-.036.08-.08.08s-.08-.036-.08-.08V1.47c0-.044.036-.08.08-.08s.08.036.08.08v.548c.068-.224.424-.452.968-.452m.408.648c0-.408-.36-.556-.536-.556-.092 0-.28.04-.28.356a.54.54 0 0 0 .532.544c.088 0 .284-.032.284-.344" /><text color="rgba(100.0000%, 0.0000%, 0.0000%, 100.0000%)" font-size="2.2" font-weight="bold" text-anchor="start" transform="translate(41.483 -.942)">
<tspan>+</tspan>
</text><text font-size="1.85" text-anchor="start" transform="translate(48.665 -2.413)">
<tspan>Mi</tspan>
</text><text font-size="1.85" text-anchor="start" transform="translate(51.385 -2.413)">
<tspan>m</tspan>
</text><path d="M48.665 2.794c0-.364.464-.728.868-.728.252 0 .436.14.436.36 0 .348-.44.728-.88.728-.268 0-.424-.156-.424-.36" /><rect width=".13" height="3.31" x="-.07" y="-2.5" ry=".04" transform="translate(49.902 1.61)" /></svg>