<svg xmlns="http://www.w3.org/2000/svg" width="556.12" height="130.85" viewBox="0 -3.59 88.14 20.74" fill="currentColor" font-family="Linux Libertine"><style type="text/css">tspan{white-space:pre}</style><rect width=".2" height="4" x="0" y="-2" ry="0" transform="translate(26.321 4.215)" /><rect width=".2" height="4" x="0" y="-2" ry="0" transform="translate(87.94 4.215)" /><path stroke="currentColor" stroke-linecap="round" stroke-linejoin="round" stroke-width=".1" d="M.05 6.215h88.04M.05 5.215h88.04M.05 4.215h88.04M.05 3.215h88.04M.05 2.215h88.04" /><rect width=".2" height="4" x="0" y="-2" ry="0" transform="translate(64.236 4.215)" /><rect width=".2" height="4" x="0" y="-2" ry="0" transform="translate(43.938 4.215)" /><text font-size="1.85" text-anchor="start" transform="translate(8.885 .629)">
<tspan>Ré</tspan>
</text><path d="M11.265 7.355c0 .044-.036.08-.08.08s-.08-.036-.08-.08v-1.28c0-.044.036-.08.08-.08s.08.036.08.08zm-2.668 0c0 .044-.036.08-.08.08s-.08-.036-.08-.08v-1.28c0-.044.036-.08.08-.08s.08.036.08.08zM9.853 6.17c.012 0 .836.008.968.452v-.548c0-.044.036-.08.08-.08s.08.036.08.08v1.28c0 .044-.036.08-.08.08s-.08-.036-.08-.08v-.548c-.068.224-.424.452-.968.452-.012 0-.836-.008-.968-.452v.548c0 .044-.036.08-.08.08s-.08-.036-.08-.08v-1.28c0-.044.036-.08.08-.08s.08.036.08.08v.548c.068-.224.424-.452.968-.452m.408.648c0-.408-.36-.556-.536-.556-.092 0-.28.04-.28.356a.54.54 0 0 0 .532.544c.088 0 .284-.032.284-.344M1.864 7.755H1.84a.783.783 0 0 1-.78-.788c0-.232.212-.412.448-.412.216 0 .38.188.38.412 0 .208-.172.38-.38.38a.3.3 0 0 1-.124-.024c.104.156.272.26.468.26h.016zm.54-3.144c.076.356.192.968.24 1.416a.67.67 0 0 0 .448-.652.753.753 0 0 0-.688-.764m-1.308.492c0 .448.392.988 1.112.988q.127 0 .272-.024a17 17 0 0 0-.252-1.456c-.316.032-.496.244-.496.476 0 .176.1.364.324.492q.029.03.028.06c0 .044-.04.088-.088.088-.06 0-.504-.248-.504-.748 0-.352.232-.696.64-.788a15 15 0 0 0-.184-.7c-.428.484-.852.972-.852 1.612M2.228.439c.112 0 .572.824.572 1.444 0 .572-.344 1.02-.72 1.456.084.272.156.552.224.828.02 0 .04-.004.056-.004.62 0 1.02.516 1.02 1.048 0 .452-.296.848-.72.98q.019.21.02.42-.001.116-.008.232c-.028.476-.352.9-.808.912l.004-.172c.372-.008.612-.368.636-.764q.007-.11.008-.22.001-.184-.016-.368-.169.031-.32.032c-.956 0-1.368-.868-1.368-1.496 0-.708.524-1.224.992-1.764-.116-.384-.208-.68-.208-1.384 0-.756.576-1.18.636-1.18m-.44 1.648c0 .22.048.46.14.76.328-.4.588-.808.588-1.304 0-.16-.024-.328-.084-.508a1.13 1.13 0 0 0-.644 1.052M4.185 1.739c0-.032.02-.06.052-.072l.184-.068V.967c0-.04.032-.076.072-.076s.076.036.076.076v.58l.332-.124V.79c0-.04.036-.076.076-.076s.072.036.072.076v.58l.128-.048q.014-.005.028-.004a.08.08 0 0 1 .08.08v.24c0 .032-.02.064-.052.076l-.184.064v.64l.128-.044q.014-.005.028-.004a.08.08 0 0 1 .08.08v.24c0 .032-.02.06-.052.072l-.184.068v.632c0 .04-.032.076-.072.076s-.076-.036-.076-.076v-.58l-.332.124v.632c0 .04-.036.076-.076.076s-.072-.036-.072-.076v-.58l-.128.048q-.014.005-.028.004a.08.08 0 0 1-.08-.08v-.24c0-.032.02-.064.052-.076l.184-.064v-.64l-.128.044q-.014.005-.028.004a.08.08 0 0 1-.08-.08zm.716.096-.332.12v.64l.332-.12zM5.285 3.239c0-.032.02-.06.052-.072l.184-.068v-.632c0-.04.032-.076.072-.076s.076.036.076.076v.58l.332-.124V2.29c0-.04.036-.076.076-.076s.072.036.072.076v.58l.128-.048c.008-.004.02-.004.028-.004a.08.08 0 0 1 .08.08v.24c0 .032-.02.064-.052.076l-.184.064v.64l.128-.044c.008-.004.02-.004.028-.004a.08.08 0 0 1 .08.08v.24c0 .032-.02.06-.052.072l-.184.068v.632c0 .04-.032.076-.072.076s-.076-.036-.076-.076v-.58l-.332.124v.632c0 .04-.036.076-.076.076s-.072-.036-.072-.076v-.58l-.128.048c-.008.004-.02.004-.028.004a.08.08 0 0 1-.08-.08v-.24c0-.032.02-.064.052-.076l.184-.064v-.64l-.128.044c-.008.004-.02.004-.028.004a.08.08 0 0 1-.08-.08zm.716.096-.332.12v.64l.332-.12z" /><text font-size="1.75" text-anchor="start" transform="translate(6.385 -.527)">
<tspan>(1)</tspan>
</text><text font-size="1.85" text-anchor="start" transform="translate(15.365 .629)">
<tspan>Si</tspan>
</text><text font-size="1.85" text-anchor="start" transform="translate(17.366 .629)">
<tspan>m</tspan>
</text><path d="M17.745 6.355c0 .044-.036.08-.08.08s-.08-.036-.08-.08v-1.28c0-.044.036-.08.08-.08s.08.036.08.08zm-2.668 0c0 .044-.036.08-.08.08s-.08-.036-.08-.08v-1.28c0-.044.036-.08.08-.08s.08.036.08.08zm1.256-1.184c.012 0 .836.008.968.452v-.548c0-.044.036-.08.08-.08s.08.036.08.08v1.28c0 .044-.036.08-.08.08s-.08-.036-.08-.08v-.548c-.068.224-.424.452-.968.452-.012 0-.836-.008-.968-.452v.548c0 .044-.036.08-.08.08s-.08-.036-.08-.08v-1.28c0-.044.036-.08.08-.08s.08.036.08.08v.548c.068-.224.424-.452.968-.452m.408.648c0-.408-.36-.556-.536-.556-.092 0-.28.04-.28.356a.54.54 0 0 0 .532.544c.088 0 .284-.032.284-.344" /><text font-size="1.85" text-anchor="start" transform="translate(21.845 .629)">
<tspan>Fa</tspan>
</text><path d="M24.178-.751c0-.036.02-.066.054-.078l.11-.045v-.453c0-.036.03-.066.067-.066s.066.03.066.066v.402l.23-.087v-.456c0-.036.03-.066.067-.066s.066.03.066.066v.402l.048-.018a.1.1 0 0 1 .033-.006c.045 0 .084.036.084.084v.15a.09.09 0 0 1-.054.08l-.111.043v.456l.048-.021a.1.1 0 0 1 .033-.006c.045 0 .084.039.084.087v.15a.08.08 0 0 1-.054.078l-.111.045v.453c0 .036-.03.066-.066.066s-.066-.03-.066-.066V.107l-.231.087V.65c0 .036-.03.066-.066.066s-.066-.03-.066-.066V.248l-.048.018a.1.1 0 0 1-.033.006.084.084 0 0 1-.084-.084v-.15c0-.036.02-.07.054-.081l.11-.042v-.456l-.047.02a.1.1 0 0 1-.033.007.086.086 0 0 1-.084-.087zm.528.069-.231.09v.456l.23-.09z" /><text font-size="1.85" text-anchor="start" transform="translate(25.202 .629)">
<tspan>m</tspan>
</text><path d="M21.845 4.899c0-.364.464-.728.868-.728.252 0 .436.14.436.36 0 .348-.44.728-.88.728-.268 0-.424-.156-.424-.36" /><rect width=".13" height="3.31" x="-.07" y="-3" ry=".04" transform="translate(23.082 4.215)" /><text font-size="1.85" text-anchor="start" transform="translate(27.811 .629)">
<tspan>Fa</tspan>
</text><path d="M30.144-.751c0-.036.021-.066.054-.078l.111-.045v-.453c0-.036.03-.066.066-.066s.066.03.066.066v.402l.231-.087v-.456c0-.036.03-.066.066-.066s.066.03.066.066v.402l.048-.018a.1.1 0 0 1 .033-.006c.045 0 .084.036.084.084v.15a.09.09 0 0 1-.054.08l-.11.043v.456l.047-.021a.1.1 0 0 1 .033-.006c.045 0 .084.039.084.087v.15a.08.08 0 0 1-.054.078l-.11.045v.453c0 .036-.03.066-.067.066s-.066-.03-.066-.066V.107l-.23.087V.65c0 .036-.03.066-.067.066S30.31.686 30.31.65V.248l-.048.018a.1.1 0 0 1-.033.006.084.084 0 0 1-.084-.084v-.15c0-.036.021-.07.054-.081l.111-.042v-.456l-.048.02a.1.1 0 0 1-.033.007.086.086 0 0 1-.084-.087zm.528.069-.23.09v.456l.23-.09z" /><text font-size="1.85" text-anchor="start" transform="translate(31.168 .629)">
<tspan>m</tspan>
</text><path d="M30.191 5.355c0 .044-.036.08-.08.08s-.08-.036-.08-.08v-1.28c0-.044.036-.08.08-.08s.08.036.08.08zm-2.668 0c0 .044-.036.08-.08.08s-.08-.036-.08-.08v-1.28c0-.044.036-.08.08-.08s.08.036.08.08zM28.78 4.17c.012 0 .836.008.968.452v-.548c0-.044.036-.08.08-.08s.08.036.08.08v1.28c0 .044-.036.08-.08.08s-.08-.036-.08-.08v-.548c-.068.224-.424.452-.968.452-.012 0-.836-.008-.968-.452v.548c0 .044-.036.08-.08.08s-.08-.036-.08-.08v-1.28c0-.044.036-.08.08-.08s.08.036.08.08v.548c.068-.224.424-.452.968-.452m.408.648c0-.408-.36-.556-.536-.556-.092 0-.28.04-.28.356a.54.54 0 0 0 .532.544c.088 0 .284-.032.284-.344" /><text font-size="1.75" text-anchor="start" transform="translate(25.503 -2.35)">
<tspan>(2)</tspan>
</text><text font-size="1.85" text-anchor="start" transform="translate(34.291 .629)">
<tspan>Sol</tspan>
</text><path d="M36.671 4.855c0 .044-.036.08-.08.08s-.08-.036-.08-.08v-1.28c0-.044.036-.08.08-.08s.08.036.08.08zm-2.668 0c0 .044-.036.08-.08.08s-.08-.036-.08-.08v-1.28c0-.044.036-.08.08-.08s.08.036.08.08zM35.26 3.67c.012 0 .836.008.968.452v-.548c0-.044.036-.08.08-.08s.08.036.08.08v1.28c0 .044-.036.08-.08.08s-.08-.036-.08-.08v-.548c-.068.224-.424.452-.968.452-.012 0-.836-.008-.968-.452v.548c0 .044-.036.08-.08.08s-.08-.036-.08-.08v-1.28c0-.044.036-.08.08-.08s.08.036.08.08v.548c.068-.224.424-.452.968-.452m.408.648c0-.408-.36-.556-.536-.556-.092 0-.28.04-.28.356a.54.54 0 0 0 .532.544c.088 0 .284-.032.284-.344" /><text font-size="1.85" text-anchor="start" transform="translate(40.771 .629)">
<tspan>Ré</tspan>
</text><path d="M40.771 4.899c0-.364.464-.728.868-.728.252 0 .436.14.436.36 0 .348-.44.728-.88.728-.268 0-.424-.156-.424-.36" /><rect width=".13" height="3.31" x="-.07" y="-3" ry=".04" transform="translate(42.008 4.215)" /><path d="M45.035 4.899c0-.364.464-.728.868-.728.252 0 .436.14.436.36 0 .348-.44.728-.88.728-.268 0-.424-.156-.424-.36" /><text font-size="1.75" text-anchor="start" transform="translate(43.12 -.872)">
<tspan>(3)</tspan>
</text><rect width=".13" height="3.31" x="-.07" y="-3" ry=".04" transform="translate(46.272 4.215)" /><text font-size="1.85" text-anchor="start" transform="translate(48.037 .629)">
<tspan>Ré</tspan>
</text><path d="M50.417 6.355c0 .044-.036.08-.08.08s-.08-.036-.08-.08v-1.28c0-.044.036-.08.08-.08s.08.036.08.08zm-2.668 0c0 .044-.036.08-.08.08s-.08-.036-.08-.08v-1.28c0-.044.036-.08.08-.08s.08.036.08.08zm1.256-1.184c.012 0 .836.008.968.452v-.548c0-.044.036-.08.08-.08s.08.036.08.08v1.28c0 .044-.036.08-.08.08s-.08-.036-.08-.08v-.548c-.068.224-.424.452-.968.452-.012 0-.836-.008-.968-.452v.548c0 .044-.036.08-.08.08s-.08-.036-.08-.08v-1.28c0-.044.036-.08.08-.08s.08.036.08.08v.548c.068-.224.424-.452.968-.452m.408.648c0-.408-.36-.556-.536-.556-.092 0-.28.04-.28.356a.54.54 0 0 0 .532.544c.088 0 .284-.032.284-.344" /><text font-size="1.85" text-anchor="start" transform="translate(54.517 .629)">
<tspan>Mi</tspan>
</text><path d="M56.897 5.855c0 .044-.036.08-.08.08s-.08-.036-.08-.08v-1.28c0-.044.036-.08.08-.08s.08.036.08.08zm-2.668 0c0 .044-.036.08-.08.08s-.08-.036-.08-.08v-1.28c0-.044.036-.08.08-.08s.08.036.08.08zm1.256-1.184c.012 0 .836.008.968.452v-.548c0-.044.036-.08.08-.08s.08.036.08.08v1.28c0 .044-.036.08-.08.08s-.08-.036-.08-.08v-.548c-.068.224-.424.452-.968.452-.012 0-.836-.008-.968-.452v.548c0 .044-.036.08-.08.08s-.08-.036-.08-.08v-1.28c0-.044.036-.08.08-.08s.08.036.08.08v.548c.068-.224.424-.452.968-.452m.408.648c0-.408-.36-.556-.536-.556-.092 0-.28.04-.28.356a.54.54 0 0 0 .532.544c.088 0 .284-.032.284-.344M52.62 4.739c0-.032.02-.06.053-.072l.184-.068v-.632c0-.04.032-.076.072-.076s.076.036.076.076v.58l.332-.124V3.79c0-.04.036-.076.076-.076s.072.036.072.076v.58l.128-.048q.014-.005.028-.004a.08.08 0 0 1 .08.08v.24c0 .032-.02.064-.052.076l-.184.064v.64l.128-.044q.014-.005.028-.004a.08.08 0 0 1 .08.08v.24c0 .032-.02.06-.052.072l-.184.068v.632c0 .04-.032.076-.072.076s-.076-.036-.076-.076v-.58l-.332.124v.632c0 .04-.036.076-.076.076s-.072-.036-.072-.076v-.58l-.128.048q-.014.005-.028.004a.08.08 0 0 1-.08-.08v-.24c0-.032.02-.064.052-.076l.184-.064v-.64l-.128.044q-.014.005-.028.004a.08.08 0 0 1-.08-.08zm.717.096-.332.12v.64l.332-.12z" /><text font-size="1.85" text-anchor="start" transform="translate(60.997 .629)">
<tspan>Si</tspan>
</text><text font-size="1.85" text-anchor="start" transform="translate(62.999 .629)">
<tspan>m</tspan>
</text><path d="M60.997 5.899c0-.364.464-.728.868-.728.252 0 .436.14.436.36 0 .348-.44.728-.88.728-.268 0-.424-.156-.424-.36" /><rect width=".13" height="3.31" x="-.07" y="-2" ry=".04" transform="translate(62.234 4.215)" /><rect width=".13" height="3.31" x="-.07" y="-1" ry=".04" transform="translate(85.96 4.215)" /><path d="M65.332 5.899c0-.364.465-.728.869-.728.251 0 .435.14.435.36 0 .348-.44.728-.88.728-.267 0-.423-.156-.423-.36" /><text font-size="1.75" text-anchor="start" transform="translate(63.418 -1.405)">
<tspan>(4)</tspan>
</text><rect width=".13" height="3.31" x="-.07" y="-2" ry=".04" transform="translate(66.57 4.215)" /><path d="M84.724 6.899c0-.364.464-.728.868-.728.252 0 .436.14.436.36 0 .348-.44.728-.88.728-.268 0-.424-.156-.424-.36" /><text font-size="1.85" text-anchor="start" transform="translate(68.335 .629)">
<tspan>La</tspan>
</text><text font-size="1.85" text-anchor="start" transform="translate(70.368 .629)">
<tspan>/</tspan>
</text><text font-size="1.85" text-anchor="start" transform="translate(70.979 .629)">
<tspan>Do</tspan>
</text><path d="M73.743-.751c0-.036.021-.066.054-.078l.111-.045v-.453c0-.036.03-.066.066-.066s.066.03.066.066v.402l.231-.087v-.456c0-.036.03-.066.066-.066s.066.03.066.066v.402l.048-.018a.1.1 0 0 1 .033-.006c.045 0 .084.036.084.084v.15a.09.09 0 0 1-.054.08l-.111.043v.456l.048-.021a.1.1 0 0 1 .033-.006c.045 0 .084.039.084.087v.15a.08.08 0 0 1-.054.078l-.111.045v.453c0 .036-.03.066-.066.066s-.066-.03-.066-.066V.107l-.231.087V.65c0 .036-.03.066-.066.066s-.066-.03-.066-.066V.248l-.048.018a.1.1 0 0 1-.033.006.084.084 0 0 1-.084-.084v-.15c0-.036.021-.07.054-.081l.111-.042v-.456l-.048.02a.1.1 0 0 1-.033.007.086.086 0 0 1-.084-.087zm.528.069-.231.09v.456l.231-.09zM70.715 6.855c0 .044-.036.08-.08.08s-.08-.036-.08-.08v-1.28c0-.044.036-.08.08-.08s.08.036.08.08zm-2.668 0c0 .044-.036.08-.08.08s-.08-.036-.08-.08v-1.28c0-.044.036-.08.08-.08s.08.036.08.08zm1.256-1.184c.012 0 .836.008.968.452v-.548c0-.044.036-.08.08-.08s.08.036.08.08v1.28c0 .044-.036.08-.08.08s-.08-.036-.08-.08v-.548c-.068.224-.424.452-.968.452-.012 0-.836-.008-.968-.452v.548c0 .044-.036.08-.08.08s-.08-.036-.08-.08v-1.28c0-.044.036-.08.08-.08s.08.036.08.08v.548c.068-.224.424-.452.968-.452m.408.648c0-.408-.36-.556-.536-.556-.092 0-.28.04-.28.356a.54.54 0 0 0 .532.544c.088 0 .284-.032.284-.344" /><text font-size="1.85" text-anchor="start" transform="translate(84.724 .629)">
<tspan>Ré</tspan>
</text><text font-size="1.85" text-anchor="start" transform="translate(75.867 .629)">
<tspan>Fa</tspan>
</text><path d="M78.2-.751c0-.036.021-.066.054-.078l.111-.045v-.453c0-.036.03-.066.066-.066s.066.03.066.066v.402l.231-.087v-.456c0-.036.03-.066.066-.066s.066.03.066.066v.402l.048-.018a.1.1 0 0 1 .033-.006c.045 0 .084.036.084.084v.15a.09.09 0 0 1-.054.08l-.11.043v.456l.047-.021a.1.1 0 0 1 .033-.006c.045 0 .084.039.084.087v.15a.08.08 0 0 1-.054.078l-.11.045v.453c0 .036-.03.066-.067.066s-.066-.03-.066-.066V.107l-.23.087V.65c0 .036-.03.066-.067.066s-.066-.03-.066-.066V.248l-.048.018a.1.1 0 0 1-.033.006.084.084 0 0 1-.084-.084v-.15c0-.036.021-.07.054-.081l.111-.042v-.456l-.048.02a.1.1 0 0 1-.033.007.086.086 0 0 1-.084-.087zm.528.069-.23.09v.456l.23-.09z" /><text font-size="1.85" text-anchor="start" transform="translate(79.224 .629)">
<tspan>/</tspan>
</text><text font-size="1.85" text-anchor="start" transform="translate(79.835 .629)">
<tspan>Do</tspan>
</text><path d="M82.6-.751c0-.036.02-.066.054-.078l.11-.045v-.453c0-.036.03-.066.067-.066s.066.03.066.066v.402l.23-.087v-.456c0-.036.03-.066.067-.066s.066.03.066.066v.402l.048-.018a.1.1 0 0 1 .033-.006c.045 0 .084.036.084.084v.15a.09.09 0 0 1-.054.08l-.111.043v.456l.048-.021a.1.1 0 0 1 .033-.006c.045 0 .084.039.084.087v.15a.08.08 0 0 1-.054.078l-.111.045v.453c0 .036-.03.066-.066.066s-.066-.03-.066-.066V.107l-.231.087V.65c0 .036-.03.066-.066.066s-.066-.03-.066-.066V.248l-.048.018a.1.1 0 0 1-.033.006.084.084 0 0 1-.084-.084v-.15c0-.036.02-.07.054-.081l.11-.042v-.456l-.047.02a.1.1 0 0 1-.033.007.086.086 0 0 1-.084-.087zm.528.069-.231.09v.456l.23-.09zM78.247 6.355c0 .044-.036.08-.08.08s-.08-.036-.08-.08v-1.28c0-.044.036-.08.08-.08s.08.036.08.08zm-2.668 0c0 .044-.036.08-.08.08s-.08-.036-.08-.08v-1.28c0-.044.036-.08.08-.08s.08.036.08.08zm1.256-1.184c.012 0 .836.008.968.452v-.548c0-.044.036-.08.08-.08s.08.036.08.08v1.28c0 .044-.036.08-.08.08s-.08-.036-.08-.08v-.548c-.068.224-.424.452-.968.452-.012 0-.836-.008-.968-.452v.548c0 .044-.036.08-.08.08s-.08-.036-.08-.08v-1.28c0-.044.036-.08.08-.08s.08.036.08.08v.548c.068-.224.424-.452.968-.452m.408.648c0-.408-.36-.556-.536-.556-.092 0-.28.04-.28.356a.54.54 0 0 0 .532.544c.088 0 .284-.032.284-.344" /><rect width=".2" height="4" x="0" y="-2" ry="0" transform="translate(25.061 13.605)" /><rect width=".62" height="4" x="0" y="-2" ry="0" transform="translate(46.228 13.605)" /><rect width=".2" height="4" x="0" y="-2" ry="0" transform="translate(45.721 13.605)" /><path stroke="currentColor" stroke-linecap="round" stroke-linejoin="round" stroke-width=".1" d="M.05 15.605H46.8M.05 14.605H46.8M.05 13.605H46.8M.05 12.605H46.8M.05 11.605H46.8" /><path d="M1.864 17.145H1.84a.783.783 0 0 1-.78-.788c0-.232.212-.412.448-.412.216 0 .38.188.38.412 0 .208-.172.38-.38.38a.3.3 0 0 1-.124-.024c.104.156.272.26.468.26h.016zm.54-3.144c.076.356.192.968.24 1.416a.67.67 0 0 0 .448-.652.753.753 0 0 0-.688-.764m-1.308.492c0 .448.392.988 1.112.988q.127 0 .272-.024a17 17 0 0 0-.252-1.456c-.316.032-.496.244-.496.476 0 .176.1.364.324.492q.029.03.028.06c0 .044-.04.088-.088.088-.06 0-.504-.248-.504-.748 0-.352.232-.696.64-.788a15 15 0 0 0-.184-.7c-.428.484-.852.972-.852 1.612m1.132-4.664c.112 0 .572.824.572 1.444 0 .572-.344 1.02-.72 1.456.084.272.156.552.224.828q.031-.002.056-.004c.62 0 1.02.516 1.02 1.048 0 .452-.296.848-.72.98q.019.21.02.42-.001.116-.008.232c-.028.476-.352.9-.808.912l.004-.172c.372-.008.612-.368.636-.764q.007-.11.008-.22.001-.184-.016-.368-.169.031-.32.032c-.956 0-1.368-.868-1.368-1.496 0-.708.524-1.224.992-1.764-.116-.384-.208-.68-.208-1.384 0-.756.576-1.18.636-1.18m-.44 1.648c0 .22.048.46.14.76.328-.4.588-.808.588-1.304 0-.16-.024-.328-.084-.508a1.13 1.13 0 0 0-.644 1.052M4.185 11.129c0-.032.02-.06.052-.072l.184-.068v-.632c0-.04.032-.076.072-.076s.076.036.076.076v.58l.332-.124v-.632c0-.04.036-.076.076-.076s.072.036.072.076v.58l.128-.048q.014-.005.028-.004a.08.08 0 0 1 .08.08v.24c0 .032-.02.064-.052.076l-.184.064v.64l.128-.044q.014-.005.028-.004a.08.08 0 0 1 .08.08v.24c0 .032-.02.06-.052.072l-.184.068v.632c0 .04-.032.076-.072.076s-.076-.036-.076-.076v-.58l-.332.124v.632c0 .04-.036.076-.076.076s-.072-.036-.072-.076v-.58l-.128.048q-.014.005-.028.004a.08.08 0 0 1-.08-.08v-.24c0-.032.02-.064.052-.076l.184-.064v-.64l-.128.044q-.014.005-.028.004a.08.08 0 0 1-.08-.08zm.716.096-.332.12v.64l.332-.12zM5.285 12.629c0-.032.02-.06.052-.072l.184-.068v-.632c0-.04.032-.076.072-.076s.076.036.076.076v.58l.332-.124v-.632c0-.04.036-.076.076-.076s.072.036.072.076v.58l.128-.048c.008-.004.02-.004.028-.004a.08.08 0 0 1 .08.08v.24c0 .032-.02.064-.052.076l-.184.064v.64l.128-.044c.008-.004.02-.004.028-.004a.08.08 0 0 1 .08.08v.24c0 .032-.02.06-.052.072l-.184.068v.632c0 .04-.032.076-.072.076s-.076-.036-.076-.076v-.58l-.332.124v.632c0 .04-.036.076-.076.076s-.072-.036-.072-.076v-.58l-.128.048c-.008.004-.02.004-.028.004a.08.08 0 0 1-.08-.08v-.24c0-.032.02-.064.052-.076l.184-.064v-.64l-.128.044c-.008.004-.02.004-.028.004a.08.08 0 0 1-.08-.08zm.716.096-.332.12v.64l.332-.12z" /><text font-size="1.75" text-anchor="start" transform="translate(6.385 9.879)">
<tspan>(5)</tspan>
</text><text font-size="1.85" text-anchor="start" transform="translate(8.885 11.035)">
<tspan>Ré</tspan>
</text><path d="M11.265 16.745c0 .044-.036.08-.08.08s-.08-.036-.08-.08v-1.28c0-.044.036-.08.08-.08s.08.036.08.08zm-2.668 0c0 .044-.036.08-.08.08s-.08-.036-.08-.08v-1.28c0-.044.036-.08.08-.08s.08.036.08.08zm1.256-1.184c.012 0 .836.008.968.452v-.548c0-.044.036-.08.08-.08s.08.036.08.08v1.28c0 .044-.036.08-.08.08s-.08-.036-.08-.08v-.548c-.068.224-.424.452-.968.452-.012 0-.836-.008-.968-.452v.548c0 .044-.036.08-.08.08s-.08-.036-.08-.08v-1.28c0-.044.036-.08.08-.08s.08.036.08.08v.548c.068-.224.424-.452.968-.452m.408.648c0-.408-.36-.556-.536-.556-.092 0-.28.04-.28.356a.54.54 0 0 0 .532.544c.088 0 .284-.032.284-.344" /><text font-size="1.85" text-anchor="start" transform="translate(15.365 11.035)">
<tspan>La</tspan>
</text><path d="M17.745 16.245c0 .044-.036.08-.08.08s-.08-.036-.08-.08v-1.28c0-.044.036-.08.08-.08s.08.036.08.08zm-2.668 0c0 .044-.036.08-.08.08s-.08-.036-.08-.08v-1.28c0-.044.036-.08.08-.08s.08.036.08.08zm1.256-1.184c.012 0 .836.008.968.452v-.548c0-.044.036-.08.08-.08s.08.036.08.08v1.28c0 .044-.036.08-.08.08s-.08-.036-.08-.08v-.548c-.068.224-.424.452-.968.452-.012 0-.836-.008-.968-.452v.548c0 .044-.036.08-.08.08s-.08-.036-.08-.08v-1.28c0-.044.036-.08.08-.08s.08.036.08.08v.548c.068-.224.424-.452.968-.452m.408.648c0-.408-.36-.556-.536-.556-.092 0-.28.04-.28.356a.54.54 0 0 0 .532.544c.088 0 .284-.032.284-.344" /><text font-size="1.85" text-anchor="start" transform="translate(21.845 11.035)">
<tspan>Si</tspan>
</text><text font-size="1.85" text-anchor="start" transform="translate(23.846 11.035)">
<tspan>m</tspan>
</text><path d="M21.845 16.289c0-.364.464-.728.868-.728.252 0 .436.14.436.36 0 .348-.44.728-.88.728-.268 0-.424-.156-.424-.36" /><rect width=".13" height="3.31" x="-.07" y="-1" ry=".04" transform="translate(23.082 13.605)" /><path d="M26.158 16.289c0-.364.464-.728.868-.728.252 0 .436.14.436.36 0 .348-.44.728-.88.728-.268 0-.424-.156-.424-.36" /><text font-size="1.75" text-anchor="start" transform="translate(24.243 9.001)">
<tspan>(6)</tspan>
</text><rect width=".13" height="3.31" x="-.07" y="-1" ry=".04" transform="translate(27.395 13.605)" /><text font-size="1.85" text-anchor="start" transform="translate(29.545 11.035)">
<tspan>Sol</tspan>
</text><path d="M31.925 15.245c0 .044-.036.08-.08.08s-.08-.036-.08-.08v-1.28c0-.044.036-.08.08-.08s.08.036.08.08zm-2.668 0c0 .044-.036.08-.08.08s-.08-.036-.08-.08v-1.28c0-.044.036-.08.08-.08s.08.036.08.08zm1.256-1.184c.012 0 .836.008.968.452v-.548c0-.044.036-.08.08-.08s.08.036.08.08v1.28c0 .044-.036.08-.08.08s-.08-.036-.08-.08v-.548c-.068.224-.424.452-.968.452-.012 0-.836-.008-.968-.452v.548c0 .044-.036.08-.08.08s-.08-.036-.08-.08v-1.28c0-.044.036-.08.08-.08s.08.036.08.08v.548c.068-.224.424-.452.968-.452m.408.648c0-.408-.36-.556-.536-.556-.092 0-.28.04-.28.356a.54.54 0 0 0 .532.544c.088 0 .284-.032.284-.344M28.034 13.105c.032-.016.068-.028.1-.028s.064.012.096.028l-.008.732.424-.08h.012c.04 0 .072.028.072.068l.028 2.28c-.032.016-.068.028-.1.028s-.064-.012-.096-.028l.008-.732-.424.08h-.012c-.04 0-.072-.028-.072-.068zm.552 1.052-.368.068-.012.828.368-.068z" /><text font-size="1.85" text-anchor="start" transform="translate(36.025 11.035)">
<tspan>La</tspan>
</text><path d="M38.405 16.245c0 .044-.036.08-.08.08s-.08-.036-.08-.08v-1.28c0-.044.036-.08.08-.08s.08.036.08.08zm-2.668 0c0 .044-.036.08-.08.08s-.08-.036-.08-.08v-1.28c0-.044.036-.08.08-.08s.08.036.08.08zm1.256-1.184c.012 0 .836.008.968.452v-.548c0-.044.036-.08.08-.08s.08.036.08.08v1.28c0 .044-.036.08-.08.08s-.08-.036-.08-.08v-.548c-.068.224-.424.452-.968.452-.012 0-.836-.008-.968-.452v.548c0 .044-.036.08-.08.08s-.08-.036-.08-.08v-1.28c0-.044.036-.08.08-.08s.08.036.08.08v.548c.068-.224.424-.452.968-.452m.408.648c0-.408-.36-.556-.536-.556-.092 0-.28.04-.28.356a.54.54 0 0 0 .532.544c.088 0 .284-.032.284-.344" /><text font-size="1.85" text-anchor="start" transform="translate(42.505 11.035)">
<tspan>Ré</tspan>
</text><path d="M42.505 16.289c0-.364.463-.728.867-.728.253 0 .437.14.437.36 0 .348-.44.728-.88.728-.269 0-.425-.156-.425-.36" /><rect width=".13" height="3.31" x="-.07" y="-1" ry=".04" transform="translate(43.742 13.605)" /></svg>