<svg xmlns="http://www.w3.org/2000/svg" width="398.89" height="61.27" viewBox="0 -4.01 63.22 9.71" fill="currentColor" font-family="Linux Libertine"><style type="text/css">tspan{white-space:pre}</style><rect width=".2" height="4" x="0" y="-2" ry="0" transform="translate(27.34 2.15)" /><rect width=".62" height="4" x="0" y="-2" ry="0" transform="translate(62.6 2.15)" /><rect width=".2" height="4" x="0" y="-2" ry="0" transform="translate(62.094 2.15)" /><path stroke="currentColor" stroke-linecap="round" stroke-linejoin="round" stroke-width=".1" d="M.05 4.15h63.12M.05 3.15h63.12M.05 2.15h63.12M.05 1.15h63.12M.05.15h63.12" /><rect width=".2" height="4" x="0" y="-2" ry="0" transform="translate(48.693 2.15)" /><rect width=".2" height="4" x="0" y="-2" ry="0" transform="translate(48.186 2.15)" /><text font-size="1.85" text-anchor="start" transform="translate(9.445 -1.86)">
<tspan>Mi</tspan>
</text><path d="m12.352-2.779-.006.18v.033c0 .063.006.13.015.192.126-.114.26-.243.26-.414 0-.096-.038-.189-.122-.189-.093 0-.144.096-.147.198m-.003-1.233L12.322-3a.4.4 0 0 1 .285-.12c.15 0 .246.153.246.315 0 .231-.24.351-.411.507-.054.051-.078.144-.156.144-.048 0-.084-.045-.084-.096l-.045-1.76q.046-.027.096-.025c.05.002.066.006.096.024M11.825 3.79c0 .044-.036.08-.08.08s-.08-.036-.08-.08V2.51c0-.044.036-.08.08-.08s.08.036.08.08zm-2.668 0c0 .044-.036.08-.08.08s-.08-.036-.08-.08V2.51c0-.044.036-.08.08-.08s.08.036.08.08zm1.256-1.184c.012 0 .836.008.968.452V2.51c0-.044.036-.08.08-.08s.08.036.08.08v1.28c0 .044-.036.08-.08.08s-.08-.036-.08-.08v-.548c-.068.224-.424.452-.968.452-.012 0-.836-.008-.968-.452v.548c0 .044-.036.08-.08.08s-.08-.036-.08-.08V2.51c0-.044.036-.08.08-.08s.08.036.08.08v.548c.068-.224.424-.452.968-.452m.408.648c0-.408-.36-.556-.536-.556-.092 0-.28.04-.28.356a.54.54 0 0 0 .532.544c.088 0 .284-.032.284-.344M1.864 5.69H1.84a.783.783 0 0 1-.78-.788c0-.232.212-.412.448-.412.216 0 .38.188.38.412 0 .208-.172.38-.38.38a.3.3 0 0 1-.124-.024c.104.156.272.26.468.26h.016zm.54-3.144c.076.356.192.968.24 1.416a.67.67 0 0 0 .448-.652.753.753 0 0 0-.688-.764m-1.308.492c0 .448.392.988 1.112.988q.127 0 .272-.024a17 17 0 0 0-.252-1.456c-.316.032-.496.244-.496.476 0 .176.1.364.324.492q.029.03.028.06c0 .044-.04.088-.088.088-.06 0-.504-.248-.504-.748 0-.352.232-.696.64-.788a15 15 0 0 0-.184-.7c-.428.484-.852.972-.852 1.612m1.132-4.664c.112 0 .572.824.572 1.444 0 .572-.344 1.02-.72 1.456.084.272.156.552.224.828q.031-.002.056-.004c.62 0 1.02.516 1.02 1.048 0 .452-.296.848-.72.98q.019.21.02.42c0 .076-.004.156-.008.232-.028.476-.352.9-.808.912l.004-.172c.372-.008.612-.368.636-.764a3.775 3.775 0 0 0-.008-.588q-.169.031-.32.032C1.22 4.198.808 3.33.808 2.702c0-.708.524-1.224.992-1.764-.116-.384-.208-.68-.208-1.384 0-.756.576-1.18.636-1.18M1.788.022c0 .22.048.46.14.76.328-.4.588-.808.588-1.304 0-.16-.024-.328-.084-.508A1.13 1.13 0 0 0 1.788.022M4.413 1.986l-.004.264v.044q-.001.132.016.264c.18-.152.372-.32.372-.556 0-.132-.056-.268-.172-.268-.124 0-.208.12-.212.252m-.168.716L4.197.322c.032-.02.072-.032.108-.032s.076.012.108.032l-.028 1.38a.58.58 0 0 1 .364-.136c.208 0 .356.192.356.408 0 .32-.344.468-.588.676-.06.052-.096.152-.18.152-.052 0-.092-.044-.092-.1M5.333.486 5.329.75v.044q-.001.132.016.264c.18-.152.372-.32.372-.556 0-.132-.056-.268-.172-.268-.124 0-.208.12-.212.252m-.168.716-.048-2.38c.032-.02.072-.032.108-.032s.076.012.108.032L5.305.202a.58.58 0 0 1 .364-.136c.208 0 .356.192.356.408 0 .32-.344.468-.588.676-.06.052-.096.152-.18.152-.052 0-.092-.044-.092-.1M6.253 2.486l-.004.264v.044q-.001.132.016.264c.18-.152.372-.32.372-.556 0-.132-.056-.268-.172-.268-.124 0-.208.12-.212.252m-.168.716L6.037.822c.032-.02.072-.032.108-.032s.076.012.108.032l-.028 1.38a.58.58 0 0 1 .364-.136c.208 0 .356.192.356.408 0 .32-.344.468-.588.676-.06.052-.096.152-.18.152-.052 0-.092-.044-.092-.1" /><text font-size="1.85" text-anchor="start" transform="translate(15.925 -1.86)">
<tspan>Si</tspan>
</text><path d="m18.113-2.779-.006.18v.033c0 .063.006.13.015.192.126-.114.26-.243.26-.414 0-.096-.038-.189-.122-.189-.093 0-.144.096-.147.198m-.003-1.233L18.083-3a.4.4 0 0 1 .285-.12c.15 0 .246.153.246.315 0 .231-.24.351-.411.507-.054.051-.078.144-.156.144-.048 0-.084-.045-.084-.096l-.045-1.76q.046-.027.096-.025c.05.002.066.006.096.024" /><text font-size="1.85" text-anchor="start" transform="translate(18.713 -1.86)">
<tspan>/</tspan>
</text><text font-size="1.85" text-anchor="start" transform="translate(19.324 -1.86)">
<tspan>Mi</tspan>
</text><path d="m22.23-2.779-.005.18v.033c0 .063.006.13.015.192.126-.114.26-.243.26-.414 0-.096-.038-.189-.122-.189-.093 0-.144.096-.147.198m-.002-1.233L22.2-3a.4.4 0 0 1 .285-.12c.15 0 .246.153.246.315 0 .231-.24.351-.411.507-.054.051-.078.144-.156.144-.048 0-.084-.045-.084-.096l-.045-1.76q.046-.027.096-.025c.05.002.066.006.096.024M18.305 2.79c0 .044-.036.08-.08.08s-.08-.036-.08-.08V1.51c0-.044.036-.08.08-.08s.08.036.08.08zm-2.668 0c0 .044-.036.08-.08.08s-.08-.036-.08-.08V1.51c0-.044.036-.08.08-.08s.08.036.08.08zm1.256-1.184c.012 0 .836.008.968.452V1.51c0-.044.036-.08.08-.08s.08.036.08.08v1.28c0 .044-.036.08-.08.08s-.08-.036-.08-.08v-.548c-.068.224-.424.452-.968.452-.012 0-.836-.008-.968-.452v.548c0 .044-.036.08-.08.08s-.08-.036-.08-.08V1.51c0-.044.036-.08.08-.08s.08.036.08.08v.548c.068-.224.424-.452.968-.452m.408.648c0-.408-.36-.556-.536-.556-.092 0-.28.04-.28.356a.54.54 0 0 0 .532.544c.088 0 .284-.032.284-.344" /><text font-size="1.85" text-anchor="start" transform="translate(23.931 -1.86)">
<tspan>Mi</tspan>
</text><path d="m26.838-2.779-.006.18v.033c0 .063.006.13.015.192.126-.114.261-.243.261-.414 0-.096-.039-.189-.123-.189-.093 0-.144.096-.147.198m-.003-1.233L26.808-3a.4.4 0 0 1 .285-.12c.15 0 .246.153.246.315 0 .231-.24.351-.411.507-.054.051-.078.144-.156.144-.048 0-.084-.045-.084-.096l-.045-1.76q.046-.027.096-.025c.05.002.066.006.096.024M23.931 3.334c0-.364.464-.728.868-.728.252 0 .436.14.436.36 0 .348-.44.728-.88.728-.268 0-.424-.156-.424-.36" /><rect width=".13" height="3.31" x="-.07" y="-2.5" ry=".04" transform="translate(25.168 2.15)" /><text font-size="1.85" text-anchor="start" transform="translate(28.538 -1.86)">
<tspan>La</tspan>
</text><path d="m31.158-2.779-.006.18v.033c0 .063.006.13.015.192.126-.114.26-.243.26-.414 0-.096-.038-.189-.122-.189-.093 0-.144.096-.147.198m-.003-1.233L31.128-3a.4.4 0 0 1 .285-.12c.15 0 .246.153.246.315 0 .231-.24.351-.411.507-.054.051-.078.144-.156.144-.048 0-.084-.045-.084-.096l-.045-1.76q.046-.027.096-.025c.05.002.066.006.096.024" /><text font-size="1.85" text-anchor="start" transform="translate(31.758 -1.86)">
<tspan>/</tspan>
</text><text font-size="1.85" text-anchor="start" transform="translate(32.369 -1.86)">
<tspan>Mi</tspan>
</text><path d="m35.276-2.779-.006.18v.033c0 .063.006.13.015.192.126-.114.26-.243.26-.414 0-.096-.038-.189-.122-.189-.093 0-.144.096-.147.198m-.003-1.233L35.246-3a.4.4 0 0 1 .285-.12c.15 0 .246.153.246.315 0 .231-.24.351-.411.507-.054.051-.078.144-.156.144-.048 0-.084-.045-.084-.096l-.045-1.76q.046-.027.096-.025c.05.002.066.006.096.024M30.918 3.29c0 .044-.036.08-.08.08s-.08-.036-.08-.08V2.01c0-.044.036-.08.08-.08s.08.036.08.08zm-2.668 0c0 .044-.036.08-.08.08s-.08-.036-.08-.08V2.01c0-.044.036-.08.08-.08s.08.036.08.08zm1.256-1.184c.012 0 .836.008.968.452V2.01c0-.044.036-.08.08-.08s.08.036.08.08v1.28c0 .044-.036.08-.08.08s-.08-.036-.08-.08v-.548c-.068.224-.424.452-.968.452-.012 0-.836-.008-.968-.452v.548c0 .044-.036.08-.08.08s-.08-.036-.08-.08V2.01c0-.044.036-.08.08-.08s.08.036.08.08v.548c.068-.224.424-.452.968-.452m.408.648c0-.408-.36-.556-.536-.556-.092 0-.28.04-.28.356a.54.54 0 0 0 .532.544c.088 0 .284-.032.284-.344" /><text font-size="1.85" text-anchor="start" transform="translate(36.976 -1.86)">
<tspan>Si</tspan>
</text><path d="m39.164-2.779-.006.18v.033c0 .063.006.13.015.192.126-.114.26-.243.26-.414 0-.096-.038-.189-.122-.189-.093 0-.144.096-.147.198m-.003-1.233L39.134-3a.4.4 0 0 1 .285-.12c.15 0 .246.153.246.315 0 .231-.24.351-.411.507-.054.051-.078.144-.156.144-.048 0-.084-.045-.084-.096l-.045-1.76q.046-.027.096-.025c.05.002.066.006.096.024" /><text font-size="1.85" text-anchor="start" transform="translate(39.764 -1.86)">
<tspan>/</tspan>
</text><text font-size="1.85" text-anchor="start" transform="translate(40.375 -1.86)">
<tspan>Mi</tspan>
</text><path d="m43.282-2.779-.006.18v.033c0 .063.006.13.015.192.126-.114.261-.243.261-.414 0-.096-.039-.189-.123-.189-.093 0-.144.096-.147.198m-.003-1.233L43.252-3a.4.4 0 0 1 .285-.12c.15 0 .246.153.246.315 0 .231-.24.351-.411.507-.054.051-.078.144-.156.144-.048 0-.084-.045-.084-.096l-.045-1.76q.046-.027.096-.025c.05.002.066.006.096.024M39.356 4.29c0 .044-.036.08-.08.08s-.08-.036-.08-.08V3.01c0-.044.036-.08.08-.08s.08.036.08.08zm-2.668 0c0 .044-.036.08-.08.08s-.08-.036-.08-.08V3.01c0-.044.036-.08.08-.08s.08.036.08.08zm1.256-1.184c.012 0 .836.008.968.452V3.01c0-.044.036-.08.08-.08s.08.036.08.08v1.28c0 .044-.036.08-.08.08s-.08-.036-.08-.08v-.548c-.068.224-.424.452-.968.452-.012 0-.836-.008-.968-.452v.548c0 .044-.036.08-.08.08s-.08-.036-.08-.08V3.01c0-.044.036-.08.08-.08s.08.036.08.08v.548c.068-.224.424-.452.968-.452m.408.648c0-.408-.36-.556-.536-.556-.092 0-.28.04-.28.356a.54.54 0 0 0 .532.544c.088 0 .284-.032.284-.344" /><text font-size="1.85" text-anchor="start" transform="translate(44.982 -1.86)">
<tspan>Mi</tspan>
</text><path d="m47.89-2.779-.007.18v.033c0 .063.006.13.015.192.126-.114.261-.243.261-.414 0-.096-.039-.189-.123-.189-.093 0-.144.096-.147.198m-.004-1.233L47.86-3a.4.4 0 0 1 .285-.12c.15 0 .246.153.246.315 0 .231-.24.351-.41.507-.055.051-.079.144-.157.144-.048 0-.084-.045-.084-.096l-.045-1.76q.046-.027.096-.025c.05.002.066.006.096.024M44.982 3.334c0-.364.464-.728.868-.728.252 0 .436.14.436.36 0 .348-.44.728-.88.728-.268 0-.424-.156-.424-.36" /><rect width=".13" height="3.31" x="-.07" y="-2.5" ry=".04" transform="translate(46.22 2.15)" /><text font-size="1.85" text-anchor="start" transform="translate(49.836 -1.86)">
<tspan>Mi</tspan>
</text><path d="m52.742-2.779-.006.18v.033c0 .063.006.13.015.192.126-.114.261-.243.261-.414 0-.096-.039-.189-.123-.189-.093 0-.144.096-.147.198m-.003-1.233L52.712-3a.4.4 0 0 1 .285-.12c.15 0 .246.153.246.315 0 .231-.24.351-.41.507-.055.051-.079.144-.157.144-.048 0-.084-.045-.084-.096l-.045-1.76q.046-.027.096-.025c.05.002.066.006.096.024M52.216 3.79c0 .044-.036.08-.08.08s-.08-.036-.08-.08V2.51c0-.044.036-.08.08-.08s.08.036.08.08zm-2.668 0c0 .044-.036.08-.08.08s-.08-.036-.08-.08V2.51c0-.044.036-.08.08-.08s.08.036.08.08zm1.255-1.184c.013 0 .837.008.969.452V2.51c0-.044.036-.08.08-.08s.08.036.08.08v1.28c0 .044-.037.08-.08.08s-.08-.036-.08-.08v-.548c-.068.224-.424.452-.968.452-.013 0-.837-.008-.969-.452v.548c0 .044-.036.08-.08.08s-.08-.036-.08-.08V2.51c0-.044.037-.08.08-.08s.08.036.08.08v.548c.068-.224.424-.452.968-.452m.409.648c0-.408-.36-.556-.537-.556-.091 0-.28.04-.28.356a.54.54 0 0 0 .532.544c.088 0 .284-.032.284-.344" /><text color="rgba(100.0000%, 0.0000%, 0.0000%, 100.0000%)" font-size="2.2" font-weight="bold" text-anchor="start" transform="translate(49.836 -.402)">
<tspan>+</tspan>
</text><g color="rgba(100.0000%, 0.0000%, 0.0000%, 100.0000%)"><text font-size="2.2" text-anchor="start" transform="translate(3 -1.3)">
<tspan>PH</tspan>
</text><rect width=".1" height="2.05" x="-.3" y="-1.74" ry="0" transform="translate(3 -1.3)" /><rect width=".1" height="2.05" x="3" y="-1.74" ry="0" transform="translate(3 -1.3)" /><rect width="3.41" height=".1" x="-.3" y=".2" ry="0" transform="translate(3 -1.3)" /><rect width="3.41" height=".1" x="-.3" y="-1.74" ry="0" transform="translate(3 -1.3)" /></g><text font-size="1.85" text-anchor="start" transform="translate(56.315 -1.86)">
<tspan>Si</tspan>
</text><path d="m58.503-2.779-.006.18v.033c0 .063.006.13.015.192.126-.114.261-.243.261-.414 0-.096-.039-.189-.123-.189-.093 0-.144.096-.147.198M58.5-4.012 58.473-3a.4.4 0 0 1 .285-.12c.15 0 .246.153.246.315 0 .231-.24.351-.41.507-.055.051-.079.144-.157.144-.048 0-.084-.045-.084-.096l-.045-1.76q.046-.027.096-.025c.05.002.066.006.096.024" /><text font-size="1.85" text-anchor="start" transform="translate(59.104 -1.86)">
<tspan>/</tspan>
</text><text font-size="1.85" text-anchor="start" transform="translate(59.715 -1.86)">
<tspan>Mi</tspan>
</text><path d="m62.621-2.779-.006.18v.033c0 .063.006.13.015.192.126-.114.261-.243.261-.414 0-.096-.039-.189-.123-.189-.093 0-.144.096-.147.198m-.003-1.233L62.591-3a.4.4 0 0 1 .285-.12c.15 0 .246.153.246.315 0 .231-.24.351-.41.507-.055.051-.079.144-.157.144-.048 0-.084-.045-.084-.096l-.045-1.76q.046-.027.096-.025c.05.002.066.006.096.024M56.315 3.834c0-.364.464-.728.868-.728.252 0 .436.14.436.36 0 .348-.44.728-.88.728-.268 0-.424-.156-.424-.36" /><rect width=".13" height="3.31" x="-.07" y="-2" ry=".04" transform="translate(57.552 2.15)" /></svg>