<svg xmlns="http://www.w3.org/2000/svg" width="268.5" height="55.94" viewBox="0 -4.02 42.55 8.86" fill="currentColor" font-family="Linux Libertine"><style type="text/css">tspan{white-space:pre}</style><rect width=".2" height="4" x="0" y="-2" ry="0" transform="translate(15.447 1.292)" /><rect width=".62" height="4" x="0" y="-2" ry="0" transform="translate(41.93 1.292)" /><rect width=".2" height="4" x="0" y="-2" ry="0" transform="translate(41.424 1.292)" /><path stroke="currentColor" stroke-linecap="round" stroke-linejoin="round" stroke-width=".1" d="M.05 3.292H42.5M.05 2.292H42.5M.05 1.292H42.5M.05.292H42.5M.05-.708H42.5" /><rect width=".2" height="4" x="0" y="-2" ry="0" transform="translate(30.88 1.292)" /><rect width=".2" height="4" x="0" y="-2" ry="0" transform="translate(30.374 1.292)" /><path stroke="currentColor" stroke-linecap="round" stroke-linejoin="round" stroke-width=".08" d="M26.187-1.094v.396l-1.905-.624v-.396z" /><text font-size="1.85" text-anchor="start" transform="translate(5.8 -2.73)">
<tspan>Do</tspan>
</text><path d="M8.18 1.432c0 .044-.036.08-.08.08s-.08-.036-.08-.08V.152c0-.044.036-.08.08-.08s.08.036.08.08zm-2.668 0c0 .044-.036.08-.08.08s-.08-.036-.08-.08V.152c0-.044.036-.08.08-.08s.08.036.08.08zM6.768.248c.012 0 .836.008.968.452V.152c0-.044.036-.08.08-.08s.08.036.08.08v1.28c0 .044-.036.08-.08.08s-.08-.036-.08-.08V.884c-.068.224-.424.452-.968.452-.012 0-.836-.008-.968-.452v.548c0 .044-.036.08-.08.08s-.08-.036-.08-.08V.152c0-.044.036-.08.08-.08s.08.036.08.08V.7c.068-.224.424-.452.968-.452m.408.648c0-.408-.36-.556-.536-.556-.092 0-.28.04-.28.356a.54.54 0 0 0 .532.544c.088 0 .284-.032.284-.344M1.864 4.832H1.84a.783.783 0 0 1-.78-.788c0-.232.212-.412.448-.412.216 0 .38.188.38.412 0 .208-.172.38-.38.38a.3.3 0 0 1-.124-.024c.104.156.272.26.468.26h.016zm.54-3.144c.076.356.192.968.24 1.416a.67.67 0 0 0 .448-.652.753.753 0 0 0-.688-.764m-1.308.492c0 .448.392.988 1.112.988q.127 0 .272-.024a17 17 0 0 0-.252-1.456c-.316.032-.496.244-.496.476 0 .176.1.364.324.492q.029.03.028.06c0 .044-.04.088-.088.088-.06 0-.504-.248-.504-.748 0-.352.232-.696.64-.788a15 15 0 0 0-.184-.7c-.428.484-.852.972-.852 1.612m1.132-4.664c.112 0 .572.824.572 1.444 0 .572-.344 1.02-.72 1.456.084.272.156.552.224.828.02 0 .04-.004.056-.004.62 0 1.02.516 1.02 1.048 0 .452-.296.848-.72.98q.019.21.02.42-.001.116-.008.232c-.028.476-.352.9-.808.912l.004-.172c.372-.008.612-.368.636-.764q.007-.11.008-.22.001-.184-.016-.368-.169.031-.32.032C1.22 3.34.808 2.472.808 1.844c0-.708.524-1.224.992-1.764-.116-.384-.208-.68-.208-1.384 0-.756.576-1.18.636-1.18m-.44 1.648c0 .22.048.46.14.76.328-.4.588-.808.588-1.304 0-.16-.024-.328-.084-.508a1.13 1.13 0 0 0-.644 1.052" /><text font-size="1.85" text-anchor="start" transform="translate(12.28 -2.73)">
<tspan>Fa</tspan>
</text><path d="M12.28 1.976c0-.364.464-.728.868-.728.252 0 .436.14.436.36 0 .348-.44.728-.88.728-.268 0-.424-.156-.424-.36" /><rect width=".13" height="3.31" x="-.07" y="-3" ry=".04" transform="translate(13.517 1.292)" /><text font-size="1.85" text-anchor="start" transform="translate(16.59 -2.73)">
<tspan>Mi</tspan>
</text><text font-size="1.85" text-anchor="start" transform="translate(19.31 -2.73)">
<tspan>m</tspan>
</text><path d="M18.97 2.932c0 .044-.036.08-.08.08s-.08-.036-.08-.08v-1.28c0-.044.036-.08.08-.08s.08.036.08.08zm-2.668 0c0 .044-.036.08-.08.08s-.08-.036-.08-.08v-1.28c0-.044.036-.08.08-.08s.08.036.08.08zm1.256-1.184c.012 0 .836.008.968.452v-.548c0-.044.036-.08.08-.08s.08.036.08.08v1.28c0 .044-.036.08-.08.08s-.08-.036-.08-.08v-.548c-.068.224-.424.452-.968.452-.012 0-.836-.008-.968-.452v.548c0 .044-.036.08-.08.08s-.08-.036-.08-.08v-1.28c0-.044.036-.08.08-.08s.08.036.08.08V2.2c.068-.224.424-.452.968-.452m.408.648c0-.408-.36-.556-.536-.556-.092 0-.28.04-.28.356a.54.54 0 0 0 .532.544c.088 0 .284-.032.284-.344M23.07 1.476c0-.364.464-.728.868-.728.252 0 .436.14.436.36 0 .348-.44.728-.88.728-.268 0-.424-.156-.424-.36" /><rect width=".13" height="2.6" x="-.07" y="-2.79" ry=".04" transform="translate(24.307 1.292)" /><path d="M24.924 2.476c0-.364.464-.728.868-.728.252 0 .436.14.436.36 0 .348-.44.728-.88.728-.268 0-.424-.156-.424-.36" /><rect width=".13" height="3.02" x="-.07" y="-2.21" ry=".04" transform="translate(26.161 1.292)" /><text font-size="1.85" text-anchor="start" transform="translate(27.029 -2.73)">
<tspan>La</tspan>
</text><text font-size="1.85" text-anchor="start" transform="translate(29.462 -2.73)">
<tspan>m</tspan>
</text><path d="M27.029 1.976c0-.364.464-.728.868-.728.252 0 .436.14.436.36 0 .348-.44.728-.88.728-.268 0-.424-.156-.424-.36" /><rect width=".13" height="3.31" x="-.07" y="-3" ry=".04" transform="translate(28.265 1.292)" /><text font-size="1.85" text-anchor="start" transform="translate(32.071 -2.73)">
<tspan>Do</tspan>
</text><path d="M34.451 1.432c0 .044-.036.08-.08.08s-.08-.036-.08-.08V.152c0-.044.036-.08.08-.08s.08.036.08.08zm-2.668 0c0 .044-.036.08-.08.08s-.08-.036-.08-.08V.152c0-.044.036-.08.08-.08s.08.036.08.08zM33.039.248c.012 0 .836.008.968.452V.152c0-.044.036-.08.08-.08s.08.036.08.08v1.28c0 .044-.036.08-.08.08s-.08-.036-.08-.08V.884c-.068.224-.424.452-.968.452-.012 0-.836-.008-.968-.452v.548c0 .044-.036.08-.08.08s-.08-.036-.08-.08V.152c0-.044.036-.08.08-.08s.08.036.08.08V.7c.068-.224.424-.452.968-.452m.408.648c0-.408-.36-.556-.536-.556-.092 0-.28.04-.28.356a.54.54 0 0 0 .532.544c.088 0 .284-.032.284-.344" /><text color="rgba(100.0000%, 0.0000%, 0.0000%, 100.0000%)" font-size="2.2" font-weight="bold" text-anchor="start" transform="translate(32.071 -1.26)">
<tspan>+</tspan>
</text><text font-size="1.85" text-anchor="start" transform="translate(38.55 -2.73)">
<tspan>Sol</tspan>
</text><path d="M38.55 1.476c0-.364.465-.728.869-.728.252 0 .436.14.436.36 0 .348-.44.728-.88.728-.268 0-.424-.156-.424-.36" /><rect width=".13" height="3.15" x="-.07" y=".19" ry=".04" transform="translate(38.618 1.292)" /></svg>