<svg xmlns="http://www.w3.org/2000/svg" width="364.04" height="55.97" viewBox="0 -4.03 57.7 8.87" fill="currentColor" font-family="Linux Libertine"><style type="text/css">tspan{white-space:pre}</style><rect width=".2" height="4" x="0" y="-2" ry="0" transform="translate(26.57 1.292)" /><rect width=".62" height="4" x="0" y="-2" ry="0" transform="translate(57.077 1.292)" /><rect width=".2" height="4" x="0" y="-2" ry="0" transform="translate(56.57 1.292)" /><path stroke="currentColor" stroke-linecap="round" stroke-linejoin="round" stroke-width=".1" d="M.05 3.292h57.6M.05 2.292h57.6M.05 1.292h57.6M.05.292h57.6M.05-.708h57.6" /><rect width=".2" height="4" x="0" y="-2" ry="0" transform="translate(44.376 1.292)" /><rect width=".2" height="4" x="0" y="-2" ry="0" transform="translate(43.869 1.292)" /><path stroke="currentColor" stroke-linecap="round" stroke-linejoin="round" stroke-width=".08" d="M38.508-.094v.396l-2.305-.624v-.396zM20.068 3.282v.396l-5.06.624v-.396z" /><text font-size="1.85" text-anchor="start" transform="translate(7.785 -2.73)">
<tspan>Sol</tspan>
</text><path d="M10.165 1.932c0 .044-.036.08-.08.08s-.08-.036-.08-.08V.652c0-.044.036-.08.08-.08s.08.036.08.08zm-2.668 0c0 .044-.036.08-.08.08s-.08-.036-.08-.08V.652c0-.044.036-.08.08-.08s.08.036.08.08zM8.753.748c.012 0 .836.008.968.452V.652c0-.044.036-.08.08-.08s.08.036.08.08v1.28c0 .044-.036.08-.08.08s-.08-.036-.08-.08v-.548c-.068.224-.424.452-.968.452-.012 0-.836-.008-.968-.452v.548c0 .044-.036.08-.08.08s-.08-.036-.08-.08V.652c0-.044.036-.08.08-.08s.08.036.08.08V1.2c.068-.224.424-.452.968-.452m.408.648c0-.408-.36-.556-.536-.556-.092 0-.28.04-.28.356a.54.54 0 0 0 .532.544c.088 0 .284-.032.284-.344M1.864 4.832H1.84a.783.783 0 0 1-.78-.788c0-.232.212-.412.448-.412.216 0 .38.188.38.412 0 .208-.172.38-.38.38a.3.3 0 0 1-.124-.024c.104.156.272.26.468.26h.016zm.54-3.144c.076.356.192.968.24 1.416a.67.67 0 0 0 .448-.652.753.753 0 0 0-.688-.764m-1.308.492c0 .448.392.988 1.112.988q.127 0 .272-.024a17 17 0 0 0-.252-1.456c-.316.032-.496.244-.496.476 0 .176.1.364.324.492q.029.03.028.06c0 .044-.04.088-.088.088-.06 0-.504-.248-.504-.748 0-.352.232-.696.64-.788a15 15 0 0 0-.184-.7c-.428.484-.852.972-.852 1.612m1.132-4.664c.112 0 .572.824.572 1.444 0 .572-.344 1.02-.72 1.456.084.272.156.552.224.828.02 0 .04-.004.056-.004.62 0 1.02.516 1.02 1.048 0 .452-.296.848-.72.98q.019.21.02.42-.001.116-.008.232c-.028.476-.352.9-.808.912l.004-.172c.372-.008.612-.368.636-.764q.007-.11.008-.22.001-.184-.016-.368-.169.031-.32.032C1.22 3.34.808 2.472.808 1.844c0-.708.524-1.224.992-1.764-.116-.384-.208-.68-.208-1.384 0-.756.576-1.18.636-1.18m-.44 1.648c0 .22.048.46.14.76.328-.4.588-.808.588-1.304 0-.16-.024-.328-.084-.508a1.13 1.13 0 0 0-.644 1.052M4.185-1.184c0-.032.02-.06.052-.072l.184-.068v-.632c0-.04.032-.076.072-.076s.076.036.076.076v.58l.332-.124v-.632c0-.04.036-.076.076-.076s.072.036.072.076v.58l.128-.048q.014-.005.028-.004a.08.08 0 0 1 .08.08v.24c0 .032-.02.064-.052.076l-.184.064v.64l.128-.044q.014-.005.028-.004a.08.08 0 0 1 .08.08v.24c0 .032-.02.06-.052.072l-.184.068V.54c0 .04-.032.076-.072.076S4.901.58 4.901.54v-.58l-.332.124v.632c0 .04-.036.076-.076.076S4.421.756 4.421.716v-.58l-.128.048q-.014.005-.028.004a.08.08 0 0 1-.08-.08v-.24c0-.032.02-.064.052-.076l.184-.064v-.64l-.128.044q-.014.005-.028.004a.08.08 0 0 1-.08-.08zm.716.096-.332.12v.64l.332-.12zM14.967 1.976c0-.364.464-.728.868-.728.252 0 .436.14.436.36 0 .348-.44.728-.88.728-.268 0-.424-.156-.424-.36" /><rect width=".13" height="2.12" x="-.07" y=".69" ry=".04" transform="translate(15.034 1.292)" /><path d="M17.471 1.476c0-.364.464-.728.868-.728.252 0 .436.14.436.36 0 .348-.44.728-.88.728-.268 0-.424-.156-.424-.36" /><rect width=".13" height="2.31" x="-.07" y=".19" ry=".04" transform="translate(17.538 1.292)" /><path d="M19.975.976c0-.364.464-.728.868-.728.252 0 .436.14.436.36 0 .348-.44.728-.88.728-.268 0-.424-.156-.424-.36" /><rect width=".13" height="2.51" x="-.07" y="-.31" ry=".04" transform="translate(20.042 1.292)" /><text font-size="1.85" text-anchor="start" transform="translate(22.48 -2.73)">
<tspan>Mi</tspan>
</text><text font-size="1.85" text-anchor="start" transform="translate(25.2 -2.73)">
<tspan>m</tspan>
</text><path d="M22.48 1.476c0-.364.463-.728.867-.728.252 0 .436.14.436.36 0 .348-.44.728-.88.728-.268 0-.424-.156-.424-.36" /><rect width=".13" height="3.15" x="-.07" y=".19" ry=".04" transform="translate(22.547 1.292)" /><text font-size="1.85" text-anchor="start" transform="translate(27.81 -2.73)">
<tspan>Si</tspan>
</text><text font-size="1.85" text-anchor="start" transform="translate(29.811 -2.73)">
<tspan>m</tspan>
</text><path d="M30.19 1.932c0 .044-.037.08-.08.08s-.08-.036-.08-.08V.652c0-.044.035-.08.08-.08s.08.036.08.08zm-2.669 0c0 .044-.036.08-.08.08s-.08-.036-.08-.08V.652c0-.044.036-.08.08-.08s.08.036.08.08zM28.777.748c.012 0 .836.008.968.452V.652c0-.044.036-.08.08-.08s.08.036.08.08v1.28c0 .044-.036.08-.08.08s-.08-.036-.08-.08v-.548c-.068.224-.424.452-.968.452-.012 0-.836-.008-.968-.452v.548c0 .044-.036.08-.08.08s-.08-.036-.08-.08V.652c0-.044.036-.08.08-.08s.08.036.08.08V1.2c.068-.224.424-.452.968-.452m.408.648c0-.408-.36-.556-.536-.556-.092 0-.28.04-.28.356a.54.54 0 0 0 .532.544c.088 0 .284-.032.284-.344" /><text font-size="1.85" text-anchor="start" transform="translate(34.991 -2.73)">
<tspan>Do</tspan>
</text><path d="M34.991 2.476c0-.364.464-.728.868-.728.252 0 .436.14.436.36 0 .348-.44.728-.88.728-.268 0-.424-.156-.424-.36" /><rect width=".13" height="2.61" x="-.07" y="-1.79" ry=".04" transform="translate(36.228 1.292)" /><path d="M37.245 3.476c0-.364.464-.728.868-.728.252 0 .436.14.436.36 0 .348-.44.728-.88.728-.268 0-.424-.156-.424-.36" /><rect width=".13" height="3.02" x="-.07" y="-1.21" ry=".04" transform="translate(38.482 1.292)" /><text font-size="1.85" text-anchor="start" transform="translate(40 -2.73)">
<tspan>Ré</tspan>
</text><path d="M40 1.976c0-.364.464-.728.868-.728.252 0 .436.14.436.36 0 .348-.44.728-.88.728-.268 0-.424-.156-.424-.36" /><rect width=".13" height="3.31" x="-.07" y="-3" ry=".04" transform="translate(41.236 1.292)" /><text font-size="1.85" text-anchor="start" transform="translate(45.519 -2.73)">
<tspan>Sol</tspan>
</text><path d="M47.899 1.932c0 .044-.036.08-.08.08s-.08-.036-.08-.08V.652c0-.044.036-.08.08-.08s.08.036.08.08zm-2.668 0c0 .044-.036.08-.08.08s-.08-.036-.08-.08V.652c0-.044.036-.08.08-.08s.08.036.08.08zM46.487.748c.012 0 .836.008.968.452V.652c0-.044.036-.08.08-.08s.08.036.08.08v1.28c0 .044-.036.08-.08.08s-.08-.036-.08-.08v-.548c-.068.224-.424.452-.968.452-.012 0-.836-.008-.968-.452v.548c0 .044-.036.08-.08.08s-.08-.036-.08-.08V.652c0-.044.036-.08.08-.08s.08.036.08.08V1.2c.068-.224.424-.452.968-.452m.408.648c0-.408-.36-.556-.536-.556-.092 0-.28.04-.28.356a.54.54 0 0 0 .532.544c.088 0 .284-.032.284-.344" /><text color="rgba(100.0000%, 0.0000%, 0.0000%, 100.0000%)" font-size="2.2" font-weight="bold" text-anchor="start" transform="translate(45.519 -1.26)">
<tspan>+</tspan>
</text><g color="rgba(100.0000%, 0.0000%, 0.0000%, 100.0000%)"><text font-size="2.2" text-anchor="start" transform="translate(3 -2.3)">
<tspan>F</tspan>
</text><rect width=".1" height="2.04" x="-.3" y="-1.73" ry="0" transform="translate(3 -2.3)" /><rect width=".1" height="2.04" x="1.28" y="-1.73" ry="0" transform="translate(3 -2.3)" /><rect width="1.69" height=".1" x="-.3" y=".2" ry="0" transform="translate(3 -2.3)" /><rect width="1.69" height=".1" x="-.3" y="-1.73" ry="0" transform="translate(3 -2.3)" /></g><text font-size="1.85" text-anchor="start" transform="translate(52.7 -2.73)">
<tspan>Ré</tspan>
</text><path d="M52.7 1.976c0-.364.465-.728.869-.728.252 0 .436.14.436.36 0 .348-.44.728-.88.728-.268 0-.424-.156-.424-.36" /><rect width=".13" height="3.31" x="-.07" y="-3" ry=".04" transform="translate(53.938 1.292)" /></svg>