<svg xmlns="http://www.w3.org/2000/svg" width="345.15" height="59.45" viewBox="0 -4.24 54.7 9.42" fill="currentColor" font-family="Linux Libertine"><style type="text/css">tspan{white-space:pre}</style><rect width=".2" height="4" x="0" y="-2" ry="0" transform="translate(24.656 1.637)" /><rect width=".62" height="4" x="0" y="-2" ry="0" transform="translate(54.078 1.637)" /><rect width=".2" height="4" x="0" y="-2" ry="0" transform="translate(53.57 1.637)" /><path stroke="currentColor" stroke-linecap="round" stroke-linejoin="round" stroke-width=".1" d="M.05 3.637h54.6M.05 2.637h54.6M.05 1.637h54.6M.05.637h54.6M.05-.363h54.6" /><rect width=".2" height="4" x="0" y="-2" ry="0" transform="translate(42.78 1.637)" /><rect width=".2" height="4" x="0" y="-2" ry="0" transform="translate(42.273 1.637)" /><text font-size="1.85" text-anchor="start" transform="translate(7.785 -2.385)">
<tspan>Sol</tspan>
</text><path d="M10.165 2.277c0 .044-.036.08-.08.08s-.08-.036-.08-.08V.997c0-.044.036-.08.08-.08s.08.036.08.08zm-2.668 0c0 .044-.036.08-.08.08s-.08-.036-.08-.08V.997c0-.044.036-.08.08-.08s.08.036.08.08zm1.256-1.184c.012 0 .836.008.968.452V.997c0-.044.036-.08.08-.08s.08.036.08.08v1.28c0 .044-.036.08-.08.08s-.08-.036-.08-.08V1.73c-.068.224-.424.452-.968.452-.012 0-.836-.008-.968-.452v.548c0 .044-.036.08-.08.08s-.08-.036-.08-.08V.997c0-.044.036-.08.08-.08s.08.036.08.08v.548c.068-.224.424-.452.968-.452m.408.648c0-.408-.36-.556-.536-.556-.092 0-.28.04-.28.356a.54.54 0 0 0 .532.544c.088 0 .284-.032.284-.344M1.864 5.177H1.84a.783.783 0 0 1-.78-.788c0-.232.212-.412.448-.412.216 0 .38.188.38.412 0 .208-.172.38-.38.38a.3.3 0 0 1-.124-.024c.104.156.272.26.468.26h.016zm.54-3.144c.076.356.192.968.24 1.416a.67.67 0 0 0 .448-.652.753.753 0 0 0-.688-.764m-1.308.492c0 .448.392.988 1.112.988q.127 0 .272-.024a17 17 0 0 0-.252-1.456c-.316.032-.496.244-.496.476 0 .176.1.364.324.492q.029.03.028.06c0 .044-.04.088-.088.088-.06 0-.504-.248-.504-.748 0-.352.232-.696.64-.788a15 15 0 0 0-.184-.7c-.428.484-.852.972-.852 1.612m1.132-4.664c.112 0 .572.824.572 1.444 0 .572-.344 1.02-.72 1.456.084.272.156.552.224.828q.031-.002.056-.004c.62 0 1.02.516 1.02 1.048 0 .452-.296.848-.72.98q.019.21.02.42c0 .076-.004.156-.008.232-.028.476-.352.9-.808.912l.004-.172c.372-.008.612-.368.636-.764a3.775 3.775 0 0 0-.008-.588q-.169.031-.32.032C1.22 3.685.808 2.817.808 2.19c0-.708.524-1.224.992-1.764-.116-.384-.208-.68-.208-1.384 0-.756.576-1.18.636-1.18M1.788-.49c0 .22.048.46.14.76.328-.4.588-.808.588-1.304 0-.16-.024-.328-.084-.508A1.13 1.13 0 0 0 1.788-.49M4.185-.839c0-.032.02-.06.052-.072l.184-.068v-.632c0-.04.032-.076.072-.076s.076.036.076.076v.58l.332-.124v-.632c0-.04.036-.076.076-.076s.072.036.072.076v.58l.128-.048q.014-.005.028-.004a.08.08 0 0 1 .08.08v.24c0 .032-.02.064-.052.076l-.184.064v.64l.128-.044q.014-.005.028-.004a.08.08 0 0 1 .08.08v.24c0 .032-.02.06-.052.072l-.184.068v.632c0 .04-.032.076-.072.076S4.901.925 4.901.885v-.58L4.569.43v.632c0 .04-.036.076-.076.076s-.072-.036-.072-.076v-.58L4.293.53q-.014.005-.028.004a.08.08 0 0 1-.08-.08v-.24c0-.032.02-.064.052-.076l.184-.064v-.64l-.128.044q-.014.005-.028.004a.08.08 0 0 1-.08-.08zm.716.096-.332.12v.64l.332-.12z" /><text font-size="1.85" text-anchor="start" transform="translate(14.265 -2.385)">
<tspan>Sol</tspan>
</text><text font-size="1.31" text-anchor="start" transform="translate(16.801 -3.226)">
<tspan>9</tspan>
</text><path d="M16.645 2.777c0 .044-.036.08-.08.08s-.08-.036-.08-.08v-1.28c0-.044.036-.08.08-.08s.08.036.08.08zm-2.668 0c0 .044-.036.08-.08.08s-.08-.036-.08-.08v-1.28c0-.044.036-.08.08-.08s.08.036.08.08zm1.256-1.184c.012 0 .836.008.968.452v-.548c0-.044.036-.08.08-.08s.08.036.08.08v1.28c0 .044-.036.08-.08.08s-.08-.036-.08-.08V2.23c-.068.224-.424.452-.968.452-.012 0-.836-.008-.968-.452v.548c0 .044-.036.08-.08.08s-.08-.036-.08-.08v-1.28c0-.044.036-.08.08-.08s.08.036.08.08v.548c.068-.224.424-.452.968-.452m.408.648c0-.408-.36-.556-.536-.556-.092 0-.28.04-.28.356a.54.54 0 0 0 .532.544c.088 0 .284-.032.284-.344" /><text font-size="1.85" text-anchor="start" transform="translate(20.745 -2.385)">
<tspan>Mi</tspan>
</text><text font-size="1.85" text-anchor="start" transform="translate(23.465 -2.385)">
<tspan>m</tspan>
</text><path d="M20.745 1.821c0-.364.464-.728.868-.728.252 0 .436.14.436.36 0 .348-.44.728-.88.728-.268 0-.424-.156-.424-.36" /><rect width=".13" height="3.15" x="-.07" y=".19" ry=".04" transform="translate(20.812 1.637)" /><text font-size="1.85" text-anchor="start" transform="translate(26.075 -2.385)">
<tspan>Sol</tspan>
</text><path d="M28.455 2.277c0 .044-.036.08-.08.08s-.08-.036-.08-.08V.997c0-.044.036-.08.08-.08s.08.036.08.08zm-2.668 0c0 .044-.036.08-.08.08s-.08-.036-.08-.08V.997c0-.044.036-.08.08-.08s.08.036.08.08zm1.256-1.184c.012 0 .836.008.968.452V.997c0-.044.036-.08.08-.08s.08.036.08.08v1.28c0 .044-.036.08-.08.08s-.08-.036-.08-.08V1.73c-.068.224-.424.452-.968.452-.012 0-.836-.008-.968-.452v.548c0 .044-.036.08-.08.08s-.08-.036-.08-.08V.997c0-.044.036-.08.08-.08s.08.036.08.08v.548c.068-.224.424-.452.968-.452m.408.648c0-.408-.36-.556-.536-.556-.092 0-.28.04-.28.356a.54.54 0 0 0 .532.544c.088 0 .284-.032.284-.344" /><text font-size="1.85" text-anchor="start" transform="translate(32.554 -2.385)">
<tspan>Do</tspan>
</text><path d="M34.935 3.277c0 .044-.037.08-.08.08s-.08-.036-.08-.08v-1.28c0-.044.036-.08.08-.08s.08.036.08.08zm-2.669 0c0 .044-.035.08-.08.08s-.08-.036-.08-.08v-1.28c0-.044.037-.08.08-.08s.08.036.08.08zm1.256-1.184c.012 0 .836.008.968.452v-.548c0-.044.036-.08.08-.08s.08.036.08.08v1.28c0 .044-.036.08-.08.08s-.08-.036-.08-.08V2.73c-.068.224-.424.452-.968.452-.012 0-.836-.008-.968-.452v.548c0 .044-.036.08-.08.08s-.08-.036-.08-.08v-1.28c0-.044.036-.08.08-.08s.08.036.08.08v.548c.068-.224.424-.452.968-.452m.408.648c0-.408-.36-.556-.536-.556-.092 0-.28.04-.28.356a.54.54 0 0 0 .532.544c.088 0 .284-.032.284-.344M39.034 3.821c0-.364.464-.728.868-.728.252 0 .436.14.436.36 0 .348-.44.728-.88.728-.268 0-.424-.156-.424-.36" /><rect width=".13" height="3.31" x="-.07" y="-1.5" ry=".04" transform="translate(40.271 1.637)" /><text font-size="1.85" text-anchor="start" transform="translate(43.923 -2.385)">
<tspan>Sol</tspan>
</text><path d="M46.303 2.277c0 .044-.036.08-.08.08s-.08-.036-.08-.08V.997c0-.044.036-.08.08-.08s.08.036.08.08zm-2.668 0c0 .044-.036.08-.08.08s-.08-.036-.08-.08V.997c0-.044.036-.08.08-.08s.08.036.08.08zm1.256-1.184c.012 0 .836.008.968.452V.997c0-.044.036-.08.08-.08s.08.036.08.08v1.28c0 .044-.036.08-.08.08s-.08-.036-.08-.08V1.73c-.068.224-.424.452-.968.452-.012 0-.836-.008-.968-.452v.548c0 .044-.036.08-.08.08s-.08-.036-.08-.08V.997c0-.044.036-.08.08-.08s.08.036.08.08v.548c.068-.224.424-.452.968-.452m.408.648c0-.408-.36-.556-.536-.556-.092 0-.28.04-.28.356a.54.54 0 0 0 .532.544c.088 0 .284-.032.284-.344" /><text color="rgba(100.0000%, 0.0000%, 0.0000%, 100.0000%)" font-size="2.2" font-weight="bold" text-anchor="start" transform="translate(43.923 -.914)">
<tspan>+</tspan>
</text><g color="rgba(100.0000%, 0.0000%, 0.0000%, 100.0000%)"><text font-size="2.2" text-anchor="start" transform="translate(3 -2.5)">
<tspan>P20</tspan>
</text><rect width=".1" height="2.06" x="-.3" y="-1.74" ry="0" transform="translate(3 -2.5)" /><rect width=".1" height="2.06" x="3.4" y="-1.74" ry="0" transform="translate(3 -2.5)" /><rect width="3.81" height=".1" x="-.3" y=".22" ry="0" transform="translate(3 -2.5)" /><rect width="3.81" height=".1" x="-.3" y="-1.74" ry="0" transform="translate(3 -2.5)" /></g><text font-size="1.85" text-anchor="start" transform="translate(50.403 -2.385)">
<tspan>Ré</tspan>
</text><path d="M50.403 2.321c0-.364.464-.728.868-.728.252 0 .436.14.436.36 0 .348-.44.728-.88.728-.268 0-.424-.156-.424-.36" /><rect width=".13" height="3.31" x="-.07" y="-3" ry=".04" transform="translate(51.64 1.637)" /></svg>