<svg xmlns="http://www.w3.org/2000/svg" width="345.9" height="62.1" viewBox="0 -3.52 54.82 9.84" fill="currentColor" font-family="Linux Libertine"><style type="text/css">tspan{white-space:pre}</style><rect width=".2" height="4" x="0" y="-2" ry="0" transform="translate(24.088 1.953)" /><rect width=".62" height="4" x="0" y="-2" ry="0" transform="translate(54.2 1.953)" /><rect width=".2" height="4" x="0" y="-2" ry="0" transform="translate(53.693 1.953)" /><path stroke="currentColor" stroke-linecap="round" stroke-linejoin="round" stroke-width=".1" d="M.05 3.953h54.72M.05 2.953h54.72M.05 1.953h54.72M.05.953h54.72M.05-.047h54.72" /><rect width=".2" height="4" x="0" y="-2" ry="0" transform="translate(42.061 1.953)" /><rect width=".2" height="4" x="0" y="-2" ry="0" transform="translate(41.554 1.953)" /><text font-size="1.85" text-anchor="start" transform="translate(7.785 -1.565)">
<tspan>Mi</tspan>
</text><text font-size="1.85" text-anchor="start" transform="translate(10.505 -1.565)">
<tspan>m</tspan>
</text><path d="M10.165 2.593c0 .044-.036.08-.08.08s-.08-.036-.08-.08v-1.28c0-.044.036-.08.08-.08s.08.036.08.08zm-2.668 0c0 .044-.036.08-.08.08s-.08-.036-.08-.08v-1.28c0-.044.036-.08.08-.08s.08.036.08.08zM8.753 1.41c.012 0 .836.008.968.452v-.548c0-.044.036-.08.08-.08s.08.036.08.08v1.28c0 .044-.036.08-.08.08s-.08-.036-.08-.08v-.548c-.068.224-.424.452-.968.452-.012 0-.836-.008-.968-.452v.548c0 .044-.036.08-.08.08s-.08-.036-.08-.08v-1.28c0-.044.036-.08.08-.08s.08.036.08.08v.548c.068-.224.424-.452.968-.452m.408.648c0-.408-.36-.556-.536-.556-.092 0-.28.04-.28.356a.54.54 0 0 0 .532.544c.088 0 .284-.032.284-.344M1.864 5.493H1.84a.783.783 0 0 1-.78-.788c0-.232.212-.412.448-.412.216 0 .38.188.38.412 0 .208-.172.38-.38.38a.3.3 0 0 1-.124-.024c.104.156.272.26.468.26h.016zm.54-3.144c.076.356.192.968.24 1.416a.67.67 0 0 0 .448-.652.753.753 0 0 0-.688-.764m-1.308.492c0 .448.392.988 1.112.988q.127 0 .272-.024a17 17 0 0 0-.252-1.456c-.316.032-.496.244-.496.476 0 .176.1.364.324.492q.029.03.028.06c0 .044-.04.088-.088.088-.06 0-.504-.248-.504-.748 0-.352.232-.696.64-.788a15 15 0 0 0-.184-.7c-.428.484-.852.972-.852 1.612m1.132-4.664c.112 0 .572.824.572 1.444 0 .572-.344 1.02-.72 1.456.084.272.156.552.224.828q.031-.002.056-.004c.62 0 1.02.516 1.02 1.048 0 .452-.296.848-.72.98q.019.21.02.42-.001.116-.008.232c-.028.476-.352.9-.808.912l.004-.172c.372-.008.612-.368.636-.764a3.775 3.775 0 0 0-.008-.588q-.169.031-.32.032c-.956 0-1.368-.868-1.368-1.496 0-.708.524-1.224.992-1.764-.116-.384-.208-.68-.208-1.384 0-.756.576-1.18.636-1.18m-.44 1.648c0 .22.048.46.14.76.328-.4.588-.808.588-1.304 0-.16-.024-.328-.084-.508a1.13 1.13 0 0 0-.644 1.052M4.185-.523c0-.032.02-.06.052-.072l.184-.068v-.632c0-.04.032-.076.072-.076s.076.036.076.076v.58l.332-.124v-.632c0-.04.036-.076.076-.076s.072.036.072.076v.58l.128-.048q.014-.005.028-.004a.08.08 0 0 1 .08.08v.24c0 .032-.02.064-.052.076l-.184.064v.64l.128-.044q.014-.005.028-.004a.08.08 0 0 1 .08.08v.24c0 .032-.02.06-.052.072L5.049.57v.632c0 .04-.032.076-.072.076s-.076-.036-.076-.076v-.58l-.332.124v.632c0 .04-.036.076-.076.076s-.072-.036-.072-.076v-.58l-.128.048Q4.279.85 4.265.85a.08.08 0 0 1-.08-.08V.53c0-.032.02-.064.052-.076L4.421.39v-.64l-.128.044q-.014.005-.028.004a.08.08 0 0 1-.08-.08zm.716.096-.332.12v.64l.332-.12z" /><text font-size="1.85" text-anchor="start" transform="translate(14.265 -1.565)">
<tspan>La</tspan>
</text><text font-size="1.85" text-anchor="start" transform="translate(16.698 -1.565)">
<tspan>m</tspan>
</text><path d="M18.207-2.954c0-.03.02-.06.046-.07l.063-.027v-.302c0-.03.024-.055.053-.055s.055.025.055.055v.26l.144-.06v-.305c0-.03.026-.053.055-.053s.053.023.053.053v.26q.021-.007.037-.006c.047 0 .072.042.072.073v.088c0 .03-.02.06-.046.07l-.063.025v.302a.1.1 0 0 1 .037-.008c.047 0 .072.044.072.076v.086c0 .03-.02.058-.046.069l-.063.027v.303c0 .03-.023.054-.053.054s-.054-.025-.054-.054v-.26l-.145.06v.305c0 .03-.026.052-.055.052s-.052-.023-.052-.052v-.26q-.023.007-.038.006c-.046 0-.072-.042-.072-.074v-.088c0-.03.02-.059.047-.07l.063-.025V-2.8a.1.1 0 0 1-.038.008c-.046 0-.072-.044-.072-.075zm.361.05-.144.059v.302l.145-.058z" /><text font-size="1.31" text-anchor="start" transform="translate(18.79 -2.405)">
<tspan>6</tspan>
</text><path d="M16.645 3.093c0 .044-.036.08-.08.08s-.08-.036-.08-.08v-1.28c0-.044.036-.08.08-.08s.08.036.08.08zm-2.668 0c0 .044-.036.08-.08.08s-.08-.036-.08-.08v-1.28c0-.044.036-.08.08-.08s.08.036.08.08zm1.256-1.184c.012 0 .836.008.968.452v-.548c0-.044.036-.08.08-.08s.08.036.08.08v1.28c0 .044-.036.08-.08.08s-.08-.036-.08-.08v-.548c-.068.224-.424.452-.968.452-.012 0-.836-.008-.968-.452v.548c0 .044-.036.08-.08.08s-.08-.036-.08-.08v-1.28c0-.044.036-.08.08-.08s.08.036.08.08v.548c.068-.224.424-.452.968-.452m.408.648c0-.408-.36-.556-.536-.556-.092 0-.28.04-.28.356a.54.54 0 0 0 .532.544c.088 0 .284-.032.284-.344" /><text font-size="1.85" text-anchor="start" transform="translate(20.745 -1.565)">
<tspan>Si</tspan>
</text><text font-size="1.85" text-anchor="start" transform="translate(22.746 -1.565)">
<tspan>m</tspan>
</text><path d="M20.745 2.137c0-.364.464-.728.868-.728.252 0 .436.14.436.36 0 .348-.44.728-.88.728-.268 0-.424-.156-.424-.36" /><rect width=".13" height="3.15" x="-.07" y=".19" ry=".04" transform="translate(20.812 1.953)" /><text font-size="1.85" text-anchor="start" transform="translate(25.356 -1.565)">
<tspan>Si</tspan>
</text><text font-size="1.85" text-anchor="start" transform="translate(27.358 -1.565)">
<tspan>m</tspan>
</text><path d="M27.736 2.593c0 .044-.036.08-.08.08s-.08-.036-.08-.08v-1.28c0-.044.036-.08.08-.08s.08.036.08.08zm-2.668 0c0 .044-.036.08-.08.08s-.08-.036-.08-.08v-1.28c0-.044.036-.08.08-.08s.08.036.08.08zm1.256-1.184c.012 0 .836.008.968.452v-.548c0-.044.036-.08.08-.08s.08.036.08.08v1.28c0 .044-.036.08-.08.08s-.08-.036-.08-.08v-.548c-.068.224-.424.452-.968.452-.012 0-.836-.008-.968-.452v.548c0 .044-.036.08-.08.08s-.08-.036-.08-.08v-1.28c0-.044.036-.08.08-.08s.08.036.08.08v.548c.068-.224.424-.452.968-.452m.408.648c0-.408-.36-.556-.536-.556-.092 0-.28.04-.28.356a.54.54 0 0 0 .532.544c.088 0 .284-.032.284-.344" /><text font-size="1.85" text-anchor="start" transform="translate(31.836 -1.565)">
<tspan>Mi</tspan>
</text><text font-size="1.85" text-anchor="start" transform="translate(34.556 -1.565)">
<tspan>m</tspan>
</text><path d="M34.216 3.593c0 .044-.036.08-.08.08s-.08-.036-.08-.08v-1.28c0-.044.036-.08.08-.08s.08.036.08.08zm-2.668 0c0 .044-.036.08-.08.08s-.08-.036-.08-.08v-1.28c0-.044.036-.08.08-.08s.08.036.08.08zm1.256-1.184c.012 0 .836.008.968.452v-.548c0-.044.036-.08.08-.08s.08.036.08.08v1.28c0 .044-.036.08-.08.08s-.08-.036-.08-.08v-.548c-.068.224-.424.452-.968.452-.012 0-.836-.008-.968-.452v.548c0 .044-.036.08-.08.08s-.08-.036-.08-.08v-1.28c0-.044.036-.08.08-.08s.08.036.08.08v.548c.068-.224.424-.452.968-.452m.408.648c0-.408-.36-.556-.536-.556-.092 0-.28.04-.28.356a.54.54 0 0 0 .532.544c.088 0 .284-.032.284-.344M38.316 4.137c0-.364.463-.728.867-.728.253 0 .437.14.437.36 0 .348-.44.728-.88.728-.269 0-.425-.156-.425-.36" /><rect width=".13" height="3.31" x="-.07" y="-1.5" ry=".04" transform="translate(39.553 1.953)" /><text font-size="1.85" text-anchor="start" transform="translate(43.204 -1.565)">
<tspan>Mi</tspan>
</text><text font-size="1.85" text-anchor="start" transform="translate(45.925 -1.565)">
<tspan>m</tspan>
</text><path d="M45.584 2.593c0 .044-.036.08-.08.08s-.08-.036-.08-.08v-1.28c0-.044.036-.08.08-.08s.08.036.08.08zm-2.668 0c0 .044-.036.08-.08.08s-.08-.036-.08-.08v-1.28c0-.044.036-.08.08-.08s.08.036.08.08zm1.256-1.184c.012 0 .836.008.968.452v-.548c0-.044.036-.08.08-.08s.08.036.08.08v1.28c0 .044-.036.08-.08.08s-.08-.036-.08-.08v-.548c-.068.224-.424.452-.968.452-.012 0-.836-.008-.968-.452v.548c0 .044-.036.08-.08.08s-.08-.036-.08-.08v-1.28c0-.044.036-.08.08-.08s.08.036.08.08v.548c.068-.224.424-.452.968-.452m.408.648c0-.408-.36-.556-.536-.556-.092 0-.28.04-.28.356a.54.54 0 0 0 .532.544c.088 0 .284-.032.284-.344" /><text font-size="2.2" text-anchor="start" transform="translate(4 6)">
<tspan>P13</tspan>
</text><rect width=".1" height="2.06" x="-.3" y="-1.74" ry="0" transform="translate(4 6)" /><rect width=".1" height="2.06" x="3.4" y="-1.74" ry="0" transform="translate(4 6)" /><rect width="3.81" height=".1" x="-.3" y=".22" ry="0" transform="translate(4 6)" /><rect width="3.81" height=".1" x="-.3" y="-1.74" ry="0" transform="translate(4 6)" /><text color="rgba(100.0000%, 0.0000%, 0.0000%, 100.0000%)" font-size="3.3" font-weight="bold" text-anchor="start" transform="translate(41.026 6.234)">
<tspan>+</tspan>
</text><text font-size="1.85" text-anchor="start" transform="translate(49.684 -1.565)">
<tspan>La</tspan>
</text><text font-size="1.85" text-anchor="start" transform="translate(52.117 -1.565)">
<tspan>m</tspan>
</text><path d="M53.627-2.954c0-.03.019-.06.046-.07l.063-.027v-.302c0-.03.023-.055.052-.055s.055.025.055.055v.26l.145-.06v-.305c0-.03.025-.053.055-.053s.052.023.052.053v.26q.022-.007.038-.006c.046 0 .071.042.071.073v.088c0 .03-.019.06-.046.07l-.063.025v.302a.1.1 0 0 1 .038-.008c.046 0 .071.044.071.076v.086c0 .03-.019.058-.046.069l-.063.027v.303c0 .03-.023.054-.053.054s-.054-.025-.054-.054v-.26l-.145.06v.305c0 .03-.025.052-.055.052s-.052-.023-.052-.052v-.26q-.022.007-.038.006c-.046 0-.071-.042-.071-.074v-.088c0-.03.019-.059.046-.07l.063-.025V-2.8a.1.1 0 0 1-.038.008c-.046 0-.071-.044-.071-.075zm.36.05-.144.059v.302l.145-.058z" /><text font-size="1.31" text-anchor="start" transform="translate(54.21 -2.405)">
<tspan>6</tspan>
</text><path d="M49.684 2.637c0-.364.464-.728.868-.728.252 0 .436.14.436.36 0 .348-.44.728-.88.728-.268 0-.424-.156-.424-.36" /><rect width=".13" height="3.31" x="-.07" y="-3" ry=".04" transform="translate(50.921 1.953)" /></svg>