<svg xmlns="http://www.w3.org/2000/svg" width="348.47" height="56.01" viewBox="0 -3.52 55.23 8.87" fill="currentColor" font-family="Linux Libertine"><style type="text/css">tspan{white-space:pre}</style><rect width=".2" height="4" x="0" y="-2" ry="0" transform="translate(17.252 1.806)" /><rect width=".62" height="4" x="0" y="-2" ry="0" transform="translate(54.61 1.806)" /><rect width=".2" height="4" x="0" y="-2" ry="0" transform="translate(54.103 1.806)" /><path stroke="currentColor" stroke-linecap="round" stroke-linejoin="round" stroke-width=".1" d="M.05 3.806h55.13M.05 2.806h55.13M.05 1.806h55.13M.05.806h55.13M.05-.194h55.13" /><rect width=".2" height="4" x="0" y="-2" ry="0" transform="translate(38.574 1.806)" /><rect width=".2" height="4" x="0" y="-2" ry="0" transform="translate(28.078 1.806)" /><rect width=".13" height="3.31" x="-.07" y="-2.5" ry=".04" transform="translate(52.137 1.806)" /><text font-size="1.85" text-anchor="start" transform="translate(7.605 -1.712)">
<tspan>Do</tspan>
</text><text font-size="1.31" text-anchor="start" transform="translate(10.07 -2.553)">
<tspan>7</tspan>
</text><path d="M9.985 2.446c0 .044-.036.08-.08.08s-.08-.036-.08-.08v-1.28c0-.044.036-.08.08-.08s.08.036.08.08zm-2.668 0c0 .044-.036.08-.08.08s-.08-.036-.08-.08v-1.28c0-.044.036-.08.08-.08s.08.036.08.08zm1.256-1.184c.012 0 .836.008.968.452v-.548c0-.044.036-.08.08-.08s.08.036.08.08v1.28c0 .044-.036.08-.08.08s-.08-.036-.08-.08v-.548c-.068.224-.424.452-.968.452-.012 0-.836-.008-.968-.452v.548c0 .044-.036.08-.08.08s-.08-.036-.08-.08v-1.28c0-.044.036-.08.08-.08s.08.036.08.08v.548c.068-.224.424-.452.968-.452m.408.648c0-.408-.36-.556-.536-.556-.092 0-.28.04-.28.356a.54.54 0 0 0 .532.544c.088 0 .284-.032.284-.344M1.864 5.346H1.84a.783.783 0 0 1-.78-.788c0-.232.212-.412.448-.412.216 0 .38.188.38.412 0 .208-.172.38-.38.38a.3.3 0 0 1-.124-.024c.104.156.272.26.468.26h.016zm.54-3.144c.076.356.192.968.24 1.416a.67.67 0 0 0 .448-.652.753.753 0 0 0-.688-.764m-1.308.492c0 .448.392.988 1.112.988q.127 0 .272-.024a17 17 0 0 0-.252-1.456c-.316.032-.496.244-.496.476 0 .176.1.364.324.492q.029.03.028.06c0 .044-.04.088-.088.088-.06 0-.504-.248-.504-.748 0-.352.232-.696.64-.788a15 15 0 0 0-.184-.7c-.428.484-.852.972-.852 1.612M2.228-1.97c.112 0 .572.824.572 1.444C2.8.046 2.456.494 2.08.93c.084.272.156.552.224.828.02 0 .04-.004.056-.004.62 0 1.02.516 1.02 1.048 0 .452-.296.848-.72.98q.019.21.02.42c0 .076-.004.156-.008.232-.028.476-.352.9-.808.912l.004-.172c.372-.008.612-.368.636-.764a3.775 3.775 0 0 0-.008-.588q-.169.031-.32.032c-.956 0-1.368-.868-1.368-1.496 0-.708.524-1.224.992-1.764-.116-.384-.208-.68-.208-1.384 0-.756.576-1.18.636-1.18m-.44 1.648c0 .22.048.46.14.76.328-.4.588-.808.588-1.304 0-.16-.024-.328-.084-.508a1.13 1.13 0 0 0-.644 1.052M4.413 1.642l-.004.264v.044q-.001.132.016.264c.18-.152.372-.32.372-.556 0-.132-.056-.268-.172-.268-.124 0-.208.12-.212.252m-.168.716-.048-2.38c.032-.02.072-.032.108-.032s.076.012.108.032l-.028 1.38a.58.58 0 0 1 .364-.136c.208 0 .356.192.356.408 0 .32-.344.468-.588.676-.06.052-.096.152-.18.152-.052 0-.092-.044-.092-.1" /><text font-size="1.85" text-anchor="start" transform="translate(14.085 -1.712)">
<tspan>Fa</tspan>
</text><path d="M14.085 2.49c0-.364.464-.728.868-.728.252 0 .436.14.436.36 0 .348-.44.728-.88.728-.268 0-.424-.156-.424-.36" /><rect width=".13" height="3.31" x="-.07" y="-3" ry=".04" transform="translate(15.322 1.806)" /><text font-size="1.85" text-anchor="start" transform="translate(18.395 -1.712)">
<tspan>Sol</tspan>
</text><text font-size="1.31" text-anchor="start" transform="translate(20.931 -2.553)">
<tspan>7</tspan>
</text><path d="M20.775 3.446c0 .044-.036.08-.08.08s-.08-.036-.08-.08v-1.28c0-.044.036-.08.08-.08s.08.036.08.08zm-2.668 0c0 .044-.036.08-.08.08s-.08-.036-.08-.08v-1.28c0-.044.036-.08.08-.08s.08.036.08.08zm1.256-1.184c.012 0 .836.008.968.452v-.548c0-.044.036-.08.08-.08s.08.036.08.08v1.28c0 .044-.036.08-.08.08s-.08-.036-.08-.08v-.548c-.068.224-.424.452-.968.452-.012 0-.836-.008-.968-.452v.548c0 .044-.036.08-.08.08s-.08-.036-.08-.08v-1.28c0-.044.036-.08.08-.08s.08.036.08.08v.548c.068-.224.424-.452.968-.452m.408.648c0-.408-.36-.556-.536-.556-.092 0-.28.04-.28.356a.54.54 0 0 0 .532.544c.088 0 .284-.032.284-.344" /><text font-size="1.85" text-anchor="start" transform="translate(24.875 -1.712)">
<tspan>Do</tspan>
</text><path d="M24.875 2.99c0-.364.464-.728.868-.728.252 0 .436.14.436.36 0 .348-.44.728-.88.728-.268 0-.424-.156-.424-.36" /><rect width=".13" height="3.31" x="-.07" y="-2.5" ry=".04" transform="translate(26.112 1.806)" /><text font-size="1.85" text-anchor="start" transform="translate(29.221 -1.712)">
<tspan>Do</tspan>
</text><path d="M31.601 1.946c0 .044-.036.08-.08.08s-.08-.036-.08-.08V.666c0-.044.036-.08.08-.08s.08.036.08.08zm-2.668 0c0 .044-.036.08-.08.08s-.08-.036-.08-.08V.666c0-.044.036-.08.08-.08s.08.036.08.08zM30.19.762c.012 0 .836.008.968.452V.666c0-.044.036-.08.08-.08s.08.036.08.08v1.28c0 .044-.036.08-.08.08s-.08-.036-.08-.08v-.548c-.068.224-.424.452-.968.452-.012 0-.836-.008-.968-.452v.548c0 .044-.036.08-.08.08s-.08-.036-.08-.08V.666c0-.044.036-.08.08-.08s.08.036.08.08v.548c.068-.224.424-.452.968-.452m.408.648c0-.408-.36-.556-.536-.556-.092 0-.28.04-.28.356a.54.54 0 0 0 .532.544c.088 0 .284-.032.284-.344" /><text font-size="1.85" text-anchor="start" transform="translate(35.701 -1.712)">
<tspan>Fa</tspan>
</text><text font-size="1.31" text-anchor="start" transform="translate(37.734 -2.553)">
<tspan>4</tspan>
</text><path d="M35.701 1.99c0-.364.464-.728.868-.728.252 0 .436.14.436.36 0 .348-.44.728-.88.728-.268 0-.424-.156-.424-.36" /><rect width=".13" height="3.15" x="-.07" y=".19" ry=".04" transform="translate(35.769 1.806)" /><text font-size="1.85" text-anchor="start" transform="translate(39.717 -1.712)">
<tspan>Fa</tspan>
</text><text font-size="1.85" text-anchor="start" transform="translate(41.75 -1.712)">
<tspan>/</tspan>
</text><text font-size="1.85" text-anchor="start" transform="translate(42.36 -1.712)">
<tspan>Do</tspan>
</text><path d="M42.097 2.946c0 .044-.036.08-.08.08s-.08-.036-.08-.08v-1.28c0-.044.036-.08.08-.08s.08.036.08.08zm-2.668 0c0 .044-.036.08-.08.08s-.08-.036-.08-.08v-1.28c0-.044.036-.08.08-.08s.08.036.08.08zm1.256-1.184c.012 0 .836.008.968.452v-.548c0-.044.036-.08.08-.08s.08.036.08.08v1.28c0 .044-.036.08-.08.08s-.08-.036-.08-.08v-.548c-.068.224-.424.452-.968.452-.012 0-.836-.008-.968-.452v.548c0 .044-.036.08-.08.08s-.08-.036-.08-.08v-1.28c0-.044.036-.08.08-.08s.08.036.08.08v.548c.068-.224.424-.452.968-.452m.408.648c0-.408-.36-.556-.536-.556-.092 0-.28.04-.28.356a.54.54 0 0 0 .532.544c.088 0 .284-.032.284-.344" /><g color="rgba(100.0000%, 0.0000%, 0.0000%, 100.0000%)"><text font-size="1.75" text-anchor="start" transform="translate(3 -1.3)">
<tspan>MdP</tspan>
</text><rect width=".1" height="1.76" x="-.26" y="-1.48" ry="0" transform="translate(3 -1.3)" /><rect width=".1" height="1.76" x="3.47" y="-1.48" ry="0" transform="translate(3 -1.3)" /><rect width="3.83" height=".1" x="-.26" y=".18" ry="0" transform="translate(3 -1.3)" /><rect width="3.83" height=".1" x="-.26" y="-1.48" ry="0" transform="translate(3 -1.3)" /></g><text font-size="1.85" text-anchor="start" transform="translate(46.325 -1.712)">
<tspan>Do</tspan>
</text><text font-size="1.31" text-anchor="start" transform="translate(48.79 -2.553)">
<tspan>4</tspan>
</text><path d="M46.325 2.99c0-.364.464-.728.868-.728.252 0 .436.14.436.36 0 .348-.44.728-.88.728-.268 0-.424-.156-.424-.36" /><rect width=".13" height="3.31" x="-.07" y="-2.5" ry=".04" transform="translate(47.562 1.806)" /><path d="M47.63-.651v1.5h-.065v-1.5zm.491 2.915c0-.04.168-.347.168-.783 0-.413-.376-.833-.66-1.133v-1c0 .788.828 1.345.828 2.133 0 .283-.06.563-.164.827a.1.1 0 0 1-.08.049.09.09 0 0 1-.092-.093M45.977-3.518c0 .068-.252.232-.252 1s.252.932.252 1a.053.053 0 0 1-.052.052q-.023 0-.04-.024c-.212-.304-.36-.656-.36-1.028s.148-.724.36-1.028q.017-.024.04-.024c.028 0 .052.024.052.052M49.748-1.518c0-.068.252-.232.252-1s-.252-.932-.252-1c0-.028.024-.052.052-.052q.023 0 .04.024c.212.304.36.656.36 1.028s-.148.724-.36 1.028q-.017.024-.04.024a.053.053 0 0 1-.052-.052" /><text font-size="1.85" text-anchor="start" transform="translate(50.9 -1.712)">
<tspan>Do</tspan>
</text><path d="M50.9 2.99c0-.364.464-.728.868-.728.252 0 .436.14.436.36 0 .348-.44.728-.88.728-.268 0-.424-.156-.424-.36" /></svg>