<svg xmlns="http://www.w3.org/2000/svg" width="483.33" height="63.38" viewBox="0 -3.52 76.6 10.05" fill="currentColor" font-family="Linux Libertine"><style type="text/css">tspan{white-space:pre}</style><rect width=".2" height="4" x="0" y="-2" ry="0" transform="translate(23.842 2.15)" /><rect width=".2" height="4" x="0" y="-2" ry="0" transform="translate(38.602 2.15)" /><path stroke="currentColor" stroke-linecap="round" stroke-linejoin="round" stroke-width=".1" d="M.05 4.15h76.5M.05 3.15h76.5M.05 2.15h76.5M.05 1.15h76.5M.05.15h76.5" /><rect width=".62" height="4" x="0" y="-2" ry="0" transform="translate(75.983 2.15)" /><rect width=".2" height="4" x="0" y="-2" ry="0" transform="translate(75.476 2.15)" /><rect width=".2" height="4" x="0" y="-2" ry="0" transform="translate(60.67 2.15)" /><text font-size="1.85" text-anchor="start" transform="translate(7.605 -1.369)">
<tspan>Sol</tspan>
</text><text font-size="1.85" text-anchor="start" transform="translate(10.541 -1.369)">
<tspan>m</tspan>
</text><path d="M9.985 2.79c0 .044-.036.08-.08.08s-.08-.036-.08-.08V1.51c0-.044.036-.08.08-.08s.08.036.08.08zm-2.668 0c0 .044-.036.08-.08.08s-.08-.036-.08-.08V1.51c0-.044.036-.08.08-.08s.08.036.08.08zm1.256-1.184c.012 0 .836.008.968.452V1.51c0-.044.036-.08.08-.08s.08.036.08.08v1.28c0 .044-.036.08-.08.08s-.08-.036-.08-.08v-.548c-.068.224-.424.452-.968.452-.012 0-.836-.008-.968-.452v.548c0 .044-.036.08-.08.08s-.08-.036-.08-.08V1.51c0-.044.036-.08.08-.08s.08.036.08.08v.548c.068-.224.424-.452.968-.452m.408.648c0-.408-.36-.556-.536-.556-.092 0-.28.04-.28.356a.54.54 0 0 0 .532.544c.088 0 .284-.032.284-.344M1.864 5.69H1.84a.783.783 0 0 1-.78-.788c0-.232.212-.412.448-.412.216 0 .38.188.38.412 0 .208-.172.38-.38.38a.3.3 0 0 1-.124-.024c.104.156.272.26.468.26h.016zm.54-3.144c.076.356.192.968.24 1.416a.67.67 0 0 0 .448-.652.753.753 0 0 0-.688-.764m-1.308.492c0 .448.392.988 1.112.988q.127 0 .272-.024a17 17 0 0 0-.252-1.456c-.316.032-.496.244-.496.476 0 .176.1.364.324.492q.029.03.028.06c0 .044-.04.088-.088.088-.06 0-.504-.248-.504-.748 0-.352.232-.696.64-.788a15 15 0 0 0-.184-.7c-.428.484-.852.972-.852 1.612m1.132-4.664c.112 0 .572.824.572 1.444 0 .572-.344 1.02-.72 1.456.084.272.156.552.224.828q.031-.002.056-.004c.62 0 1.02.516 1.02 1.048 0 .452-.296.848-.72.98q.019.21.02.42c0 .076-.004.156-.008.232-.028.476-.352.9-.808.912l.004-.172c.372-.008.612-.368.636-.764a3.775 3.775 0 0 0-.008-.588q-.169.031-.32.032C1.22 4.198.808 3.33.808 2.702c0-.708.524-1.224.992-1.764-.116-.384-.208-.68-.208-1.384 0-.756.576-1.18.636-1.18M1.788.022c0 .22.048.46.14.76.328-.4.588-.808.588-1.304 0-.16-.024-.328-.084-.508A1.13 1.13 0 0 0 1.788.022M4.413 1.986l-.004.264v.044q-.001.132.016.264c.18-.152.372-.32.372-.556 0-.132-.056-.268-.172-.268-.124 0-.208.12-.212.252m-.168.716L4.197.322c.032-.02.072-.032.108-.032s.076.012.108.032l-.028 1.38a.58.58 0 0 1 .364-.136c.208 0 .356.192.356.408 0 .32-.344.468-.588.676-.06.052-.096.152-.18.152-.052 0-.092-.044-.092-.1" /><text font-size="1.85" text-anchor="start" transform="translate(14.787 -1.369)">
<tspan>Ré</tspan>
</text><text font-size="1.85" text-anchor="start" transform="translate(17.328 -1.369)">
<tspan>m</tspan>
</text><path d="M14.787 2.834c0-.364.464-.728.868-.728.252 0 .436.14.436.36 0 .348-.44.728-.88.728-.268 0-.424-.156-.424-.36" /><rect width=".13" height="3.31" x="-.07" y="-3" ry=".04" transform="translate(16.024 2.15)" /><path d="M16.091-.808v1.5h-.064v-1.5zm.492 2.916c0-.04.168-.348.168-.784 0-.412-.376-.832-.66-1.132v-1c0 .788.828 1.344.828 2.132 0 .284-.06.564-.164.828a.1.1 0 0 1-.08.048.09.09 0 0 1-.092-.092" /><text font-size="1.85" text-anchor="start" transform="translate(19.937 -1.369)">
<tspan>Do</tspan>
</text><path d="M19.937 3.334c0-.364.464-.728.868-.728.252 0 .436.14.436.36 0 .348-.44.728-.88.728-.268 0-.424-.156-.424-.36" /><rect width=".13" height="3.31" x="-.07" y="-2.5" ry=".04" transform="translate(21.174 2.15)" /><text font-size="1.85" text-anchor="start" transform="translate(24.985 -1.369)">
<tspan>Do</tspan>
</text><path d="M27.365 3.79c0 .044-.036.08-.08.08s-.08-.036-.08-.08V2.51c0-.044.036-.08.08-.08s.08.036.08.08zm-2.668 0c0 .044-.036.08-.08.08s-.08-.036-.08-.08V2.51c0-.044.036-.08.08-.08s.08.036.08.08zm1.256-1.184c.012 0 .836.008.968.452V2.51c0-.044.036-.08.08-.08s.08.036.08.08v1.28c0 .044-.036.08-.08.08s-.08-.036-.08-.08v-.548c-.068.224-.424.452-.968.452-.012 0-.836-.008-.968-.452v.548c0 .044-.036.08-.08.08s-.08-.036-.08-.08V2.51c0-.044.036-.08.08-.08s.08.036.08.08v.548c.068-.224.424-.452.968-.452m.408.648c0-.408-.36-.556-.536-.556-.092 0-.28.04-.28.356a.54.54 0 0 0 .532.544c.088 0 .284-.032.284-.344M32.167 3.834c0-.364.464-.728.868-.728.252 0 .436.14.436.36 0 .348-.44.728-.88.728-.268 0-.424-.156-.424-.36" /><rect width=".13" height="3.31" x="-.07" y="-2" ry=".04" transform="translate(33.404 2.15)" /><path d="M33.471.192v1.5h-.064v-1.5zm.492 2.916c0-.04.168-.348.168-.784 0-.412-.376-.832-.66-1.132v-1c0 .788.828 1.344.828 2.132 0 .284-.06.564-.164.828a.1.1 0 0 1-.08.048.09.09 0 0 1-.092-.092" /><text font-size="1.85" text-anchor="start" transform="translate(34.732 -1.369)">
<tspan>Fa</tspan>
</text><path d="M34.732 2.834c0-.364.464-.728.868-.728.252 0 .436.14.436.36 0 .348-.44.728-.88.728-.268 0-.424-.156-.424-.36" /><rect width=".13" height="3.31" x="-.07" y="-3" ry=".04" transform="translate(35.97 2.15)" /><text font-size="2.2" text-anchor="start" transform="translate(4 6.2)">
<tspan>P5</tspan>
</text><rect width=".1" height="2.07" x="-.3" y="-1.74" ry="0" transform="translate(4 6.2)" /><rect width=".1" height="2.07" x="2.39" y="-1.74" ry="0" transform="translate(4 6.2)" /><rect width="2.8" height=".1" x="-.3" y=".22" ry="0" transform="translate(4 6.2)" /><rect width="2.8" height=".1" x="-.3" y="-1.74" ry="0" transform="translate(4 6.2)" /><text font-size="1.85" text-anchor="start" transform="translate(39.745 -1.369)">
<tspan>Do</tspan>
</text><path d="M42.125 3.79c0 .044-.036.08-.08.08s-.08-.036-.08-.08V2.51c0-.044.036-.08.08-.08s.08.036.08.08zm-2.668 0c0 .044-.036.08-.08.08s-.08-.036-.08-.08V2.51c0-.044.036-.08.08-.08s.08.036.08.08zm1.256-1.184c.012 0 .836.008.968.452V2.51c0-.044.036-.08.08-.08s.08.036.08.08v1.28c0 .044-.036.08-.08.08s-.08-.036-.08-.08v-.548c-.068.224-.424.452-.968.452-.012 0-.836-.008-.968-.452v.548c0 .044-.036.08-.08.08s-.08-.036-.08-.08V2.51c0-.044.036-.08.08-.08s.08.036.08.08v.548c.068-.224.424-.452.968-.452m.408.648c0-.408-.36-.556-.536-.556-.092 0-.28.04-.28.356a.54.54 0 0 0 .532.544c.088 0 .284-.032.284-.344" /><text font-size="1.85" text-anchor="start" transform="translate(46.926 -1.369)">
<tspan>La</tspan>
</text><text font-size="1.85" text-anchor="start" transform="translate(49.36 -1.369)">
<tspan>m</tspan>
</text><text font-size="1.85" text-anchor="start" transform="translate(50.869 -1.369)">
<tspan>/</tspan>
</text><text font-size="1.85" text-anchor="start" transform="translate(51.48 -1.369)">
<tspan>Do</tspan>
</text><path d="M49.306 3.29c0 .044-.036.08-.08.08s-.08-.036-.08-.08V2.01c0-.044.036-.08.08-.08s.08.036.08.08zm-2.668 0c0 .044-.036.08-.08.08s-.08-.036-.08-.08V2.01c0-.044.036-.08.08-.08s.08.036.08.08zm1.256-1.184c.012 0 .836.008.968.452V2.01c0-.044.036-.08.08-.08s.08.036.08.08v1.28c0 .044-.036.08-.08.08s-.08-.036-.08-.08v-.548c-.068.224-.424.452-.968.452-.012 0-.836-.008-.968-.452v.548c0 .044-.036.08-.08.08s-.08-.036-.08-.08V2.01c0-.044.036-.08.08-.08s.08.036.08.08v.548c.068-.224.424-.452.968-.452m.408.648c0-.408-.36-.556-.536-.556-.092 0-.28.04-.28.356a.54.54 0 0 0 .532.544c.088 0 .284-.032.284-.344M54.108 3.334c0-.364.464-.728.868-.728.252 0 .436.14.436.36 0 .348-.44.728-.88.728-.268 0-.424-.156-.424-.36" /><rect width=".13" height="3.31" x="-.07" y="-2.5" ry=".04" transform="translate(55.345 2.15)" /><path d="M55.412-.308v1.5h-.064v-1.5zm.492 2.916c0-.04.168-.348.168-.784 0-.412-.376-.832-.66-1.132v-1c0 .788.828 1.344.828 2.132 0 .284-.06.564-.164.828a.1.1 0 0 1-.08.048.09.09 0 0 1-.092-.092" /><text font-size="1.85" text-anchor="start" transform="translate(56.673 -1.369)">
<tspan>Ré</tspan>
</text><text font-size="1.85" text-anchor="start" transform="translate(59.214 -1.369)">
<tspan>m</tspan>
</text><path d="M56.673 3.834c0-.364.464-.728.868-.728.252 0 .436.14.436.36 0 .348-.44.728-.88.728-.268 0-.424-.156-.424-.36" /><rect width=".13" height="3.31" x="-.07" y="-2" ry=".04" transform="translate(57.91 2.15)" /><rect width=".13" height="3.31" x="-.07" y="-2.5" ry=".04" transform="translate(72.808 2.15)" /><path d="M71.57 3.334c0-.364.465-.728.869-.728.252 0 .436.14.436.36 0 .348-.44.728-.88.728-.268 0-.424-.156-.424-.36" /><text font-size="1.85" text-anchor="start" transform="translate(61.824 -1.369)">
<tspan>Si</tspan>
</text><path d="m64.012-2.287-.006.18v.033c0 .063.006.13.015.192.126-.114.26-.243.26-.414 0-.096-.038-.189-.122-.189-.093 0-.144.096-.147.198m-.003-1.233-.027 1.011a.4.4 0 0 1 .285-.12c.15 0 .246.153.246.315 0 .231-.24.351-.411.507-.054.051-.078.144-.156.144-.048 0-.084-.045-.084-.096l-.045-1.76q.046-.027.096-.025c.05.002.066.006.096.024M64.204 4.29c0 .044-.036.08-.08.08s-.08-.036-.08-.08V3.01c0-.044.036-.08.08-.08s.08.036.08.08zm-2.668 0c0 .044-.036.08-.08.08s-.08-.036-.08-.08V3.01c0-.044.036-.08.08-.08s.08.036.08.08zm1.256-1.184c.012 0 .836.008.968.452V3.01c0-.044.036-.08.08-.08s.08.036.08.08v1.28c0 .044-.036.08-.08.08s-.08-.036-.08-.08v-.548c-.068.224-.424.452-.968.452-.012 0-.836-.008-.968-.452v.548c0 .044-.036.08-.08.08s-.08-.036-.08-.08V3.01c0-.044.036-.08.08-.08s.08.036.08.08v.548c.068-.224.424-.452.968-.452m.408.648c0-.408-.36-.556-.536-.556-.092 0-.28.04-.28.356a.54.54 0 0 0 .532.544c.088 0 .284-.032.284-.344" /><text font-size="1.85" text-anchor="start" transform="translate(71.57 -1.369)">
<tspan>Do</tspan>
</text><path d="M69.005 4.334c0-.364.464-.728.868-.728.252 0 .436.14.436.36 0 .348-.44.728-.88.728-.268 0-.424-.156-.424-.36" /><rect width=".13" height="3.31" x="-.07" y="-1.5" ry=".04" transform="translate(70.242 2.15)" /><path d="M70.31.692v1.5h-.064v-1.5zm.492 2.916c0-.04.168-.348.168-.784 0-.412-.376-.832-.66-1.132v-1c0 .788.828 1.344.828 2.132 0 .284-.06.564-.164.828a.1.1 0 0 1-.08.048.09.09 0 0 1-.092-.092" /></svg>