<svg xmlns="http://www.w3.org/2000/svg" width="622.87" height="132.28" viewBox="0 0 98.72 20.96" fill="currentColor" font-family="Linux Libertine"><style type="text/css">tspan{white-space:pre}</style><rect width=".2" height="4" x="0" y="-2" ry="0" transform="translate(23.673 4.444)" /><path stroke="currentColor" stroke-linecap="round" stroke-linejoin="round" stroke-width=".1" d="M.05 6.445h98.61M.05 5.445h98.61M.05 4.445h98.61M.05 3.445h98.61M.05 2.445h98.61" /><rect width=".2" height="4" x="0" y="-2" ry="0" transform="translate(98.52 4.444)" /><rect width=".2" height="4" x="0" y="-2" ry="0" transform="translate(98.013 4.444)" /><rect width=".2" height="4" x="0" y="-2" ry="0" transform="translate(69.835 4.444)" /><rect width=".2" height="4" x="0" y="-2" ry="0" transform="translate(52.66 4.444)" /><rect width=".2" height="4" x="0" y="-2" ry="0" transform="translate(52.152 4.444)" /><rect width=".13" height="3.52" x="-.07" y="-2.2" ry=".04" transform="translate(62.221 4.444)" /><path d="M12.365 5.584c0 .044-.036.08-.08.08s-.08-.036-.08-.08v-1.28c0-.044.036-.08.08-.08s.08.036.08.08zm-2.668 0c0 .044-.036.08-.08.08s-.08-.036-.08-.08v-1.28c0-.044.036-.08.08-.08s.08.036.08.08zM10.953 4.4c.012 0 .836.008.968.452v-.548c0-.044.036-.08.08-.08s.08.036.08.08v1.28c0 .044-.036.08-.08.08s-.08-.036-.08-.08v-.548c-.068.224-.424.452-.968.452-.012 0-.836-.008-.968-.452v.548c0 .044-.036.08-.08.08s-.08-.036-.08-.08v-1.28c0-.044.036-.08.08-.08s.08.036.08.08v.548c.068-.224.424-.452.968-.452m.408.648c0-.408-.36-.556-.536-.556-.092 0-.28.04-.28.356a.54.54 0 0 0 .532.544c.088 0 .284-.032.284-.344" /><text font-size="1.75" text-anchor="start" transform="translate(9.985 1.893)">
<tspan>1</tspan>
</text><path d="M1.864 7.985H1.84a.783.783 0 0 1-.78-.789c0-.232.212-.412.448-.412.216 0 .38.188.38.412 0 .208-.172.38-.38.38a.3.3 0 0 1-.124-.024c.104.156.272.26.468.26h.016zm.54-3.145c.076.356.192.968.24 1.416a.67.67 0 0 0 .448-.652.753.753 0 0 0-.688-.764m-1.308.492c0 .448.392.988 1.112.988q.127 0 .272-.024a17 17 0 0 0-.252-1.456c-.316.032-.496.244-.496.476 0 .176.1.364.324.492q.029.03.028.06c0 .044-.04.088-.088.088-.06 0-.504-.248-.504-.748 0-.352.232-.696.64-.788a15 15 0 0 0-.184-.7c-.428.484-.852.972-.852 1.612M2.228.67c.112 0 .572.823.572 1.443 0 .572-.344 1.02-.72 1.456.084.272.156.552.224.828q.031-.002.056-.004c.62 0 1.02.516 1.02 1.048 0 .452-.296.848-.72.98q.019.21.02.42-.001.117-.008.233c-.028.476-.352.9-.808.912l.004-.172c.372-.008.612-.368.636-.764q.007-.11.008-.22c0-.124-.004-.244-.016-.368q-.169.031-.32.032c-.956 0-1.368-.868-1.368-1.496 0-.708.524-1.224.992-1.764-.116-.384-.208-.68-.208-1.384 0-.756.576-1.18.636-1.18m-.44 1.647c0 .22.048.46.14.76.328-.4.588-.808.588-1.304 0-.16-.024-.328-.084-.508a1.13 1.13 0 0 0-.644 1.052M4.185 1.969c0-.032.02-.06.052-.072l.184-.068v-.632c0-.04.032-.077.072-.077s.076.036.076.076v.58l.332-.124V1.02c0-.04.036-.076.076-.076s.072.036.072.076v.58l.128-.048q.014-.005.028-.004a.08.08 0 0 1 .08.08v.24c0 .032-.02.064-.052.076l-.184.064v.64l.128-.044q.014-.005.028-.004a.08.08 0 0 1 .08.08v.24c0 .032-.02.06-.052.072l-.184.068v.632c0 .04-.032.076-.072.076s-.076-.035-.076-.075v-.58l-.332.123v.632c0 .04-.036.077-.076.077s-.072-.036-.072-.076v-.58l-.128.047q-.014.006-.028.005a.08.08 0 0 1-.08-.08v-.24c0-.032.02-.064.052-.076l.184-.064v-.64l-.128.043q-.014.006-.028.005a.08.08 0 0 1-.08-.08zm.716.096-.332.12v.64l.332-.12zM5.285 3.469c0-.032.02-.06.052-.072l.184-.068v-.633c0-.04.032-.076.072-.076s.076.036.076.076v.58l.332-.123V2.52c0-.04.036-.076.076-.076s.072.036.072.076v.58l.128-.048c.008-.004.02-.004.028-.004a.08.08 0 0 1 .08.08v.24c0 .033-.02.065-.052.077l-.184.064v.64l.128-.044c.008-.004.02-.004.028-.004a.08.08 0 0 1 .08.08v.24c0 .032-.02.06-.052.072l-.184.068v.632c0 .04-.032.076-.072.076s-.076-.036-.076-.076v-.58l-.332.124v.632c0 .04-.036.076-.076.076s-.072-.037-.072-.077v-.58l-.128.048c-.008.004-.02.004-.028.004a.08.08 0 0 1-.08-.08v-.24c0-.032.02-.064.052-.076l.184-.064v-.64l-.128.044c-.008.004-.02.004-.028.004a.08.08 0 0 1-.08-.08zm.716.096-.332.12v.64l.332-.12zM6.385 1.469c0-.033.02-.06.052-.073l.184-.068V.696c0-.04.032-.076.072-.076s.076.036.076.076v.58l.332-.124V.52c0-.04.036-.076.076-.076s.072.036.072.076v.58l.128-.048q.014-.005.028-.004a.08.08 0 0 1 .08.08v.24c0 .032-.02.064-.052.076l-.184.064v.64l.128-.044q.014-.005.028-.004a.08.08 0 0 1 .08.08v.24c0 .032-.02.06-.052.072l-.184.068v.632c0 .04-.032.076-.072.076s-.076-.035-.076-.075v-.58l-.332.123v.632c0 .04-.036.077-.076.077s-.072-.036-.072-.076v-.58l-.128.047q-.014.006-.028.005a.08.08 0 0 1-.08-.08v-.24c0-.032.02-.064.052-.076l.184-.064v-.64l-.128.043q-.014.005-.028.004a.08.08 0 0 1-.08-.08zm.716.095-.332.12v.64l.332-.12z" /><rect width=".36" height=".13" x="0" y="-.56" ry=".04" transform="translate(91.534 10.777)" /><path d="M17.167 5.629c0-.364.464-.728.868-.728.252 0 .436.14.436.36 0 .348-.44.728-.88.728-.268 0-.424-.156-.424-.36" /><rect width=".13" height="3.31" x="-.07" y="-2.5" ry=".04" transform="translate(18.404 4.444)" /><path d="M18.471 1.987v1.5h-.064v-1.5zm.492 2.916c0-.04.168-.348.168-.784 0-.412-.376-.832-.66-1.132v-1c0 .788.828 1.344.828 2.132 0 .284-.06.564-.164.828a.1.1 0 0 1-.08.048.09.09 0 0 1-.092-.092M19.732 6.129c0-.364.464-.728.868-.728.252 0 .436.14.436.36 0 .348-.44.728-.88.728-.268 0-.424-.156-.424-.36" /><rect width=".13" height="3.31" x="-.07" y="-2" ry=".04" transform="translate(20.969 4.444)" /><path stroke="currentColor" stroke-linecap="round" stroke-linejoin="round" stroke-width=".08" d="M83.391 1.435v.396h-4.347v-.396z" /><path d="M24.873 4.629c0-.364.464-.728.868-.728.252 0 .436.14.436.36 0 .348-.44.728-.88.728-.268 0-.424-.156-.424-.36" /><text font-size="2.51" font-weight="bold" text-anchor="start" transform="translate(24.753 10.777)">
<tspan>É</tspan>
</text><rect width=".13" height="2.81" x="-.07" y=".19" ry=".04" transform="translate(24.94 4.444)" /><rect width=".36" height=".13" x="0" y="-.56" ry=".04" transform="translate(76.258 10.777)" /><path d="M27.745 4.629c0-.364.464-.728.868-.728.252 0 .436.14.436.36 0 .348-.44.728-.88.728-.268 0-.424-.156-.424-.36" /><text font-size="2.51" font-weight="bold" text-anchor="start" transform="translate(26.798 10.777)">
<tspan>ter</tspan>
</text><rect width=".13" height="2.81" x="-.07" y=".19" ry=".04" transform="translate(27.812 4.444)" /><rect width=".36" height=".13" x="0" y="-.56" ry=".04" transform="translate(72.559 10.777)" /><path d="M31.642 5.129c0-.364.464-.728.868-.728.252 0 .436.14.436.36 0 .348-.44.728-.88.728-.269 0-.425-.156-.425-.36" /><text font-size="2.51" font-weight="bold" text-anchor="start" transform="translate(30.497 10.777)">
<tspan>nel</tspan>
</text><rect width=".13" height="3.13" x="-.07" y="-2.81" ry=".04" transform="translate(32.878 4.444)" /><path stroke="currentColor" stroke-linecap="round" stroke-linejoin="round" stroke-width=".08" d="M74.029 7.058v.396h-2.923v-.396z" /><path d="M35.938 5.129c0-.364.464-.728.868-.728.252 0 .436.14.436.36 0 .348-.44.728-.88.728-.268 0-.424-.156-.424-.36" /><text font-size="2.51" font-weight="bold" text-anchor="start" transform="translate(34.99 10.777)">
<tspan>est</tspan>
</text><rect width=".13" height="3.13" x="-.07" y="-2.81" ry=".04" transform="translate(37.175 4.444)" /><path stroke="currentColor" stroke-linecap="round" stroke-linejoin="round" stroke-width=".08" d="M65 1.435v.396l-2.804.623v-.396z" /><path d="M40.45 5.129c0-.364.464-.728.868-.728.252 0 .436.14.436.36 0 .348-.44.728-.88.728-.268 0-.424-.156-.424-.36" /><text font-size="2.51" font-weight="bold" text-anchor="start" transform="translate(39.09 10.777)">
<tspan>son</tspan>
</text><rect width=".13" height="3.13" x="-.07" y="-2.81" ry=".04" transform="translate(41.687 4.444)" /><path d="M43.992 5.129c0-.364.464-.728.868-.728.252 0 .436.14.436.36 0 .348-.44.728-.88.728-.268 0-.424-.156-.424-.36" /><text font-size="2.51" font-weight="bold" text-anchor="start" transform="translate(44.015 10.777)">
<tspan>a</tspan>
</text><rect width=".13" height="3.13" x="-.07" y="-2.81" ry=".04" transform="translate(45.228 4.444)" /><rect width=".36" height=".13" x="0" y="-.56" ry=".04" transform="translate(45.343 10.777)" /><path d="M48.247 5.629c0-.364.464-.728.868-.728.252 0 .436.14.436.36 0 .348-.44.728-.88.728-.268 0-.424-.156-.424-.36" /><text font-size="2.51" font-weight="bold" text-anchor="start" transform="translate(45.773 10.777)">
<tspan>mour</tspan>
</text><rect width=".13" height="3.31" x="-.07" y="-2.5" ry=".04" transform="translate(49.484 4.444)" /><path stroke="currentColor" stroke-linecap="round" stroke-linejoin="round" stroke-width=".08" d="M45.254 1.435v.396h-3.592v-.396z" /><path d="M56.182 5.584c0 .044-.036.08-.08.08s-.08-.036-.08-.08v-1.28c0-.044.036-.08.08-.08s.08.036.08.08zm-2.668 0c0 .044-.036.08-.08.08s-.08-.036-.08-.08v-1.28c0-.044.036-.08.08-.08s.08.036.08.08zM54.77 4.4c.012 0 .836.008.968.452v-.548c0-.044.036-.08.08-.08s.08.036.08.08v1.28c0 .044-.036.08-.08.08s-.08-.036-.08-.08v-.548c-.068.224-.424.452-.968.452-.012 0-.836-.008-.968-.452v.548c0 .044-.036.08-.08.08s-.08-.036-.08-.08v-1.28c0-.044.036-.08.08-.08s.08.036.08.08v.548c.068-.224.424-.452.968-.452m.408.648c0-.408-.36-.556-.536-.556-.092 0-.28.04-.28.356a.54.54 0 0 0 .532.544c.088 0 .284-.032.284-.344" /><text font-size="1.75" text-anchor="start" transform="translate(51.588 1.236)">
<tspan>(2)</tspan>
</text><path d="M60.984 6.129c0-.364.464-.728.868-.728.252 0 .436.14.436.36 0 .348-.44.728-.88.728-.268 0-.424-.156-.424-.36M63.738 5.129c0-.364.464-.728.868-.728.252 0 .436.14.436.36 0 .348-.44.728-.88.728-.268 0-.424-.156-.424-.36" /><rect width=".13" height="3.11" x="-.07" y="-2.8" ry=".04" transform="translate(64.975 4.444)" /><path stroke="currentColor" stroke-linecap="round" stroke-linejoin="round" stroke-width=".08" d="M37.2 1.435v.396h-4.347v-.396z" /><path d="M66.26 4.629c0-.364.465-.728.869-.728.252 0 .436.14.436.36 0 .348-.44.728-.88.728-.268 0-.424-.156-.424-.36" /><rect width=".13" height="3.15" x="-.07" y=".19" ry=".04" transform="translate(66.328 4.444)" /><rect width=".36" height=".13" x="0" y="-.56" ry=".04" transform="translate(30.067 10.777)" /><rect width=".36" height=".13" x="0" y="-.56" ry=".04" transform="translate(26.368 10.777)" /><path d="M71.064 4.129c0-.364.464-.728.868-.728.252 0 .436.14.436.36 0 .347-.44.727-.88.727-.268 0-.424-.156-.424-.36" /><text font-size="2.51" font-weight="bold" text-anchor="start" transform="translate(70.944 10.777)">
<tspan>É</tspan>
</text><rect width=".13" height="3.13" x="-.07" y="-.31" ry=".04" transform="translate(71.131 4.444)" /><path stroke="currentColor" stroke-linecap="round" stroke-linejoin="round" stroke-width=".08" d="M27.838 7.247v.395h-2.923v-.395z" /><path d="M73.936 4.129c0-.364.464-.728.868-.728.252 0 .436.14.436.36 0 .347-.44.727-.88.727-.268 0-.424-.156-.424-.36" /><text font-size="2.51" font-weight="bold" text-anchor="start" transform="translate(72.989 10.777)">
<tspan>ter</tspan>
</text><rect width=".13" height="3.13" x="-.07" y="-.31" ry=".04" transform="translate(74.004 4.444)" /><path d="M77.833 5.129c0-.364.464-.728.868-.728.252 0 .436.14.436.36 0 .348-.44.728-.88.728-.268 0-.424-.156-.424-.36" /><text font-size="2.51" font-weight="bold" text-anchor="start" transform="translate(76.688 10.777)">
<tspan>nel</tspan>
</text><rect width=".13" height="3.13" x="-.07" y="-2.81" ry=".04" transform="translate(79.07 4.444)" /><path d="M82.129 5.129c0-.364.464-.728.868-.728.252 0 .436.14.436.36 0 .348-.44.728-.88.728-.268 0-.424-.156-.424-.36" /><text font-size="2.51" font-weight="bold" text-anchor="start" transform="translate(81.182 10.777)">
<tspan>est</tspan>
</text><rect width=".13" height="3.13" x="-.07" y="-2.81" ry=".04" transform="translate(83.366 4.444)" /><path d="M86.641 5.129c0-.364.464-.728.868-.728.252 0 .436.14.436.36 0 .348-.44.728-.88.728-.268 0-.424-.156-.424-.36" /><text font-size="2.51" font-weight="bold" text-anchor="start" transform="translate(85.28 10.777)">
<tspan>son</tspan>
</text><rect width=".13" height="3.13" x="-.07" y="-2.81" ry=".04" transform="translate(87.878 4.444)" /><path d="M90.183 5.129c0-.364.464-.728.868-.728.252 0 .436.14.436.36 0 .348-.44.728-.88.728-.268 0-.424-.156-.424-.36" /><text font-size="2.51" font-weight="bold" text-anchor="start" transform="translate(90.206 10.777)">
<tspan>a</tspan>
</text><rect width=".13" height="3.13" x="-.07" y="-2.81" ry=".04" transform="translate(91.42 4.444)" /><path d="M94.438 4.629c0-.364.464-.728.868-.728.252 0 .436.14.436.36 0 .348-.44.728-.88.728-.268 0-.424-.156-.424-.36" /><text font-size="2.51" font-weight="bold" text-anchor="start" transform="translate(91.964 10.777)">
<tspan>mour</tspan>
</text><rect width=".13" height="3.15" x="-.07" y=".19" ry=".04" transform="translate(94.506 4.444)" /><path stroke="currentColor" stroke-linecap="round" stroke-linejoin="round" stroke-width=".08" d="M91.445 1.435v.396h-3.592v-.396z" /><rect width=".2" height="4" x="0" y="-2" ry="0" transform="translate(33.276 14.802)" /><path stroke="currentColor" stroke-linecap="round" stroke-linejoin="round" stroke-width=".1" d="M.05 16.802h62.71M.05 15.802h62.71M.05 14.802h62.71M.05 13.802h62.71M.05 12.802h62.71" /><rect width=".62" height="4" x="0" y="-2" ry="0" transform="translate(62.194 14.802)" /><rect width=".2" height="4" x="0" y="-2" ry="0" transform="translate(61.687 14.802)" /><rect width=".36" height=".13" x="0" y="-.56" ry=".04" transform="translate(54.842 20.94)" /><path d="M1.864 18.342H1.84a.783.783 0 0 1-.78-.788c0-.232.212-.412.448-.412.216 0 .38.188.38.412 0 .208-.172.38-.38.38a.3.3 0 0 1-.124-.024c.104.156.272.26.468.26h.016zm.54-3.144c.076.356.192.968.24 1.416a.67.67 0 0 0 .448-.652.753.753 0 0 0-.688-.764m-1.308.492c0 .448.392.988 1.112.988q.127 0 .272-.024a17 17 0 0 0-.252-1.456c-.316.032-.496.244-.496.476 0 .176.1.364.324.492q.029.03.028.06c0 .044-.04.088-.088.088-.06 0-.504-.248-.504-.748 0-.352.232-.696.64-.788a15 15 0 0 0-.184-.7c-.428.484-.852.972-.852 1.612m1.132-4.664c.112 0 .572.824.572 1.444 0 .572-.344 1.02-.72 1.456.084.272.156.552.224.828q.031-.002.056-.004c.62 0 1.02.516 1.02 1.048 0 .452-.296.848-.72.98q.019.21.02.42-.001.116-.008.232c-.028.476-.352.9-.808.912l.004-.172c.372-.008.612-.368.636-.764q.007-.11.008-.22.001-.184-.016-.368-.169.031-.32.032c-.956 0-1.368-.868-1.368-1.496 0-.708.524-1.224.992-1.764-.116-.384-.208-.68-.208-1.384 0-.756.576-1.18.636-1.18m-.44 1.648c0 .22.048.46.14.76.328-.4.588-.808.588-1.304 0-.16-.024-.328-.084-.508a1.13 1.13 0 0 0-.644 1.052M4.185 12.326c0-.032.02-.06.052-.072l.184-.068v-.632c0-.04.032-.076.072-.076s.076.036.076.076v.58l.332-.124v-.632c0-.04.036-.076.076-.076s.072.036.072.076v.58l.128-.048q.014-.005.028-.004a.08.08 0 0 1 .08.08v.24c0 .032-.02.064-.052.076l-.184.064v.64l.128-.044q.014-.005.028-.004a.08.08 0 0 1 .08.08v.24c0 .032-.02.06-.052.072l-.184.068v.632c0 .04-.032.076-.072.076s-.076-.036-.076-.076v-.58l-.332.124v.632c0 .04-.036.076-.076.076s-.072-.036-.072-.076v-.58l-.128.048q-.014.005-.028.004a.08.08 0 0 1-.08-.08v-.24c0-.032.02-.064.052-.076l.184-.064v-.64l-.128.044q-.014.005-.028.004a.08.08 0 0 1-.08-.08zm.716.096-.332.12v.64l.332-.12zM5.285 13.826c0-.032.02-.06.052-.072l.184-.068v-.632c0-.04.032-.076.072-.076s.076.036.076.076v.58l.332-.124v-.632c0-.04.036-.076.076-.076s.072.036.072.076v.58l.128-.048c.008-.004.02-.004.028-.004a.08.08 0 0 1 .08.08v.24c0 .032-.02.064-.052.076l-.184.064v.64l.128-.044c.008-.004.02-.004.028-.004a.08.08 0 0 1 .08.08v.24c0 .032-.02.06-.052.072l-.184.068v.632c0 .04-.032.076-.072.076s-.076-.036-.076-.076v-.58l-.332.124v.632c0 .04-.036.076-.076.076s-.072-.036-.072-.076v-.58l-.128.048c-.008.004-.02.004-.028.004a.08.08 0 0 1-.08-.08v-.24c0-.032.02-.064.052-.076l.184-.064v-.64l-.128.044c-.008.004-.02.004-.028.004a.08.08 0 0 1-.08-.08zm.716.096-.332.12v.64l.332-.12zM6.385 11.826c0-.032.02-.06.052-.072l.184-.068v-.632c0-.04.032-.076.072-.076s.076.036.076.076v.58l.332-.124v-.632c0-.04.036-.076.076-.076s.072.036.072.076v.58l.128-.048q.014-.005.028-.004a.08.08 0 0 1 .08.08v.24c0 .032-.02.064-.052.076l-.184.064v.64l.128-.044q.014-.005.028-.004a.08.08 0 0 1 .08.08v.24c0 .032-.02.06-.052.072l-.184.068v.632c0 .04-.032.076-.072.076s-.076-.036-.076-.076v-.58l-.332.124v.632c0 .04-.036.076-.076.076s-.072-.036-.072-.076v-.58l-.128.048q-.014.005-.028.004a.08.08 0 0 1-.08-.08v-.24c0-.032.02-.064.052-.076l.184-.064v-.64l-.128.044q-.014.005-.028.004a.08.08 0 0 1-.08-.08zm.716.096-.332.12v.64l.332-.12z" /><path stroke="currentColor" stroke-linecap="round" stroke-linejoin="round" stroke-width=".08" d="M54.753 12.792v.396H51.16v-.396z" /><path d="M12.365 16.442c0 .044-.036.08-.08.08s-.08-.036-.08-.08v-1.28c0-.044.036-.08.08-.08s.08.036.08.08zm-2.668 0c0 .044-.036.08-.08.08s-.08-.036-.08-.08v-1.28c0-.044.036-.08.08-.08s.08.036.08.08zm1.256-1.184c.012 0 .836.008.968.452v-.548c0-.044.036-.08.08-.08s.08.036.08.08v1.28c0 .044-.036.08-.08.08s-.08-.036-.08-.08v-.548c-.068.224-.424.452-.968.452-.012 0-.836-.008-.968-.452v.548c0 .044-.036.08-.08.08s-.08-.036-.08-.08v-1.28c0-.044.036-.08.08-.08s.08.036.08.08v.548c.068-.224.424-.452.968-.452m.408.648c0-.408-.36-.556-.536-.556-.092 0-.28.04-.28.356a.54.54 0 0 0 .532.544c.088 0 .284-.032.284-.344" /><text font-size="1.75" text-anchor="start" transform="translate(9.985 12.25)">
<tspan>3</tspan>
</text><path d="M19.547 15.942c0 .044-.036.08-.08.08s-.08-.036-.08-.08v-1.28c0-.044.036-.08.08-.08s.08.036.08.08zm-2.668 0c0 .044-.036.08-.08.08s-.08-.036-.08-.08v-1.28c0-.044.036-.08.08-.08s.08.036.08.08zm1.256-1.184c.012 0 .836.008.968.452v-.548c0-.044.036-.08.08-.08s.08.036.08.08v1.28c0 .044-.036.08-.08.08s-.08-.036-.08-.08v-.548c-.068.224-.424.452-.968.452-.012 0-.836-.008-.968-.452v.548c0 .044-.036.08-.08.08s-.08-.036-.08-.08v-1.28c0-.044.036-.08.08-.08s.08.036.08.08v.548c.068-.224.424-.452.968-.452m.408.648c0-.408-.36-.556-.536-.556-.092 0-.28.04-.28.356a.54.54 0 0 0 .532.544c.088 0 .284-.032.284-.344M24.349 16.486c0-.364.464-.728.868-.728.252 0 .436.14.436.36 0 .348-.44.728-.88.728-.268 0-.424-.156-.424-.36" /><rect width=".13" height="2.5" x="-.07" y="-1.18" ry=".04" transform="translate(25.586 14.802)" /><path stroke="currentColor" stroke-linecap="round" stroke-linejoin="round" stroke-width=".08" d="M46.699 12.792v.396h-4.347v-.396z" /><path d="M26.853 16.986c0-.364.464-.728.868-.728.252 0 .436.14.436.36 0 .348-.44.728-.88.728-.268 0-.424-.156-.424-.36" /><rect width=".13" height="2.82" x="-.07" y="-1" ry=".04" transform="translate(28.09 14.802)" /><rect width=".36" height=".13" x="0" y="-.56" ry=".04" transform="translate(39.566 20.94)" /><path d="M29.357 17.486c0-.364.464-.728.868-.728.252 0 .436.14.436.36 0 .348-.44.728-.88.728-.268 0-.424-.156-.424-.36" /><rect width=".13" height="3.31" x="-.07" y="-1" ry=".04" transform="translate(30.594 14.802)" /><rect width=".36" height=".13" x="0" y="-.56" ry=".04" transform="translate(35.867 20.94)" /><path stroke="currentColor" stroke-linecap="round" stroke-linejoin="round" stroke-width=".08" d="M38.506 13.792v.396h-2.922v-.396z" /><path d="M34.372 17.486c0-.364.464-.728.868-.728.252 0 .436.14.436.36 0 .348-.44.728-.88.728-.268 0-.424-.156-.424-.36" /><text font-size="2.51" font-weight="bold" text-anchor="start" transform="translate(34.251 20.94)">
<tspan>É</tspan>
</text><rect width=".13" height="3.13" x="-.07" y="-.81" ry=".04" transform="translate(35.609 14.802)" /><text font-size="2.51" font-weight="bold" text-anchor="start" transform="translate(36.297 20.94)">
<tspan>ter</tspan>
</text><rect width=".13" height="3.13" x="-.07" y="-.81" ry=".04" transform="translate(38.481 14.802)" /><path stroke="currentColor" stroke-linecap="round" stroke-linejoin="round" stroke-width=".08" d="M28.115 13.604V14l-2.555-.188v-.396z" /><path d="M41.14 16.486c0-.364.465-.728.869-.728.252 0 .436.14.436.36 0 .348-.44.728-.88.728-.268 0-.424-.156-.424-.36" /><text font-size="2.51" font-weight="bold" text-anchor="start" transform="translate(39.996 20.94)">
<tspan>nel</tspan>
</text><rect width=".13" height="3.13" x="-.07" y="-1.81" ry=".04" transform="translate(42.377 14.802)" /><path d="M45.437 16.486c0-.364.464-.728.868-.728.252 0 .436.14.436.36 0 .348-.44.728-.88.728-.268 0-.424-.156-.424-.36" /><text font-size="2.51" font-weight="bold" text-anchor="start" transform="translate(44.49 20.94)">
<tspan>est</tspan>
</text><rect width=".13" height="3.13" x="-.07" y="-1.81" ry=".04" transform="translate(46.674 14.802)" /><path d="M49.949 16.486c0-.364.464-.728.868-.728.252 0 .436.14.436.36 0 .348-.44.728-.88.728-.268 0-.424-.156-.424-.36" /><text font-size="2.51" font-weight="bold" text-anchor="start" transform="translate(48.588 20.94)">
<tspan>son</tspan>
</text><rect width=".13" height="3.13" x="-.07" y="-1.81" ry=".04" transform="translate(51.186 14.802)" /><path d="M53.49 16.486c0-.364.464-.728.868-.728.253 0 .437.14.437.36 0 .348-.44.728-.88.728-.269 0-.425-.156-.425-.36" /><text font-size="2.51" font-weight="bold" text-anchor="start" transform="translate(53.514 20.94)">
<tspan>a</tspan>
</text><rect width=".13" height="3.13" x="-.07" y="-1.81" ry=".04" transform="translate(54.727 14.802)" /><path d="M57.746 16.986c0-.364.464-.728.868-.728.252 0 .436.14.436.36 0 .348-.44.728-.88.728-.268 0-.424-.156-.424-.36" /><text font-size="2.51" font-weight="bold" text-anchor="start" transform="translate(55.272 20.94)">
<tspan>mour</tspan>
</text><rect width=".13" height="3.31" x="-.07" y="-1.5" ry=".04" transform="translate(58.983 14.802)" /><path d="M37.244 17.486c0-.364.464-.728.868-.728.252 0 .436.14.436.36 0 .348-.44.728-.88.728-.268 0-.424-.156-.424-.36" /></svg>