<svg xmlns="http://www.w3.org/2000/svg" width="320.31" height="57" viewBox="0 -4.24 50.76 9.03" fill="currentColor" font-family="Linux Libertine"><style type="text/css">tspan{white-space:pre}</style><rect width=".2" height="4" x="0" y="-2" ry="0" transform="translate(19.86 1.245)" /><rect width=".62" height="4" x="0" y="-2" ry="0" transform="translate(50.143 1.245)" /><rect width=".2" height="4" x="0" y="-2" ry="0" transform="translate(49.636 1.245)" /><path stroke="currentColor" stroke-linecap="round" stroke-linejoin="round" stroke-width=".1" d="M.05 3.245h50.66M.05 2.245h50.66M.05 1.245h50.66M.05.245h50.66M.05-.755h50.66" /><rect width=".2" height="4" x="0" y="-2" ry="0" transform="translate(38.682 1.245)" /><rect width=".2" height="4" x="0" y="-2" ry="0" transform="translate(38.175 1.245)" /><text font-size="1.85" text-anchor="start" transform="translate(7.785 -2.765)">
<tspan>Mi</tspan>
</text><text font-size="1.85" text-anchor="start" transform="translate(10.505 -2.765)">
<tspan>m</tspan>
</text><path d="M10.165 2.885c0 .044-.036.08-.08.08s-.08-.036-.08-.08v-1.28c0-.044.036-.08.08-.08s.08.036.08.08zm-2.668 0c0 .044-.036.08-.08.08s-.08-.036-.08-.08v-1.28c0-.044.036-.08.08-.08s.08.036.08.08zM8.753 1.7c.012 0 .836.008.968.452v-.548c0-.044.036-.08.08-.08s.08.036.08.08v1.28c0 .044-.036.08-.08.08s-.08-.036-.08-.08v-.548c-.068.224-.424.452-.968.452-.012 0-.836-.008-.968-.452v.548c0 .044-.036.08-.08.08s-.08-.036-.08-.08v-1.28c0-.044.036-.08.08-.08s.08.036.08.08v.548c.068-.224.424-.452.968-.452m.408.648c0-.408-.36-.556-.536-.556-.092 0-.28.04-.28.356a.54.54 0 0 0 .532.544c.088 0 .284-.032.284-.344M1.864 4.785H1.84a.783.783 0 0 1-.78-.788c0-.232.212-.412.448-.412.216 0 .38.188.38.412 0 .208-.172.38-.38.38a.3.3 0 0 1-.124-.024c.104.156.272.26.468.26h.016zm.54-3.144c.076.356.192.968.24 1.416a.67.67 0 0 0 .448-.652.753.753 0 0 0-.688-.764m-1.308.492c0 .448.392.988 1.112.988q.127 0 .272-.024a17 17 0 0 0-.252-1.456c-.316.032-.496.244-.496.476 0 .176.1.364.324.492q.029.03.028.06c0 .044-.04.088-.088.088-.06 0-.504-.248-.504-.748 0-.352.232-.696.64-.788a15 15 0 0 0-.184-.7c-.428.484-.852.972-.852 1.612m1.132-4.664c.112 0 .572.824.572 1.444 0 .572-.344 1.02-.72 1.456.084.272.156.552.224.828q.031-.002.056-.004c.62 0 1.02.516 1.02 1.048 0 .452-.296.848-.72.98q.019.21.02.42-.001.116-.008.232c-.028.476-.352.9-.808.912l.004-.172c.372-.008.612-.368.636-.764q.007-.11.008-.22.001-.184-.016-.368-.169.031-.32.032c-.956 0-1.368-.868-1.368-1.496 0-.708.524-1.224.992-1.764-.116-.384-.208-.68-.208-1.384 0-.756.576-1.18.636-1.18m-.44 1.648c0 .22.048.46.14.76.328-.4.588-.808.588-1.304 0-.16-.024-.328-.084-.508a1.13 1.13 0 0 0-.644 1.052M4.185-1.231c0-.032.02-.06.052-.072l.184-.068v-.632c0-.04.032-.076.072-.076s.076.036.076.076v.58l.332-.124v-.632c0-.04.036-.076.076-.076s.072.036.072.076v.58l.128-.048q.014-.005.028-.004a.08.08 0 0 1 .08.08v.24c0 .032-.02.064-.052.076l-.184.064v.64l.128-.044Q5.191-.6 5.205-.6a.08.08 0 0 1 .08.08v.24c0 .032-.02.06-.052.072l-.184.068v.632c0 .04-.032.076-.072.076S4.901.533 4.901.493v-.58l-.332.124v.632c0 .04-.036.076-.076.076S4.421.709 4.421.669v-.58l-.128.048q-.014.005-.028.004a.08.08 0 0 1-.08-.08v-.24c0-.032.02-.064.052-.076l.184-.064v-.64l-.128.044q-.014.005-.028.004a.08.08 0 0 1-.08-.08zm.716.096-.332.12v.64l.332-.12z" /><text font-size="1.85" text-anchor="start" transform="translate(14.265 -2.765)">
<tspan>Si</tspan>
</text><text font-size="1.85" text-anchor="start" transform="translate(16.267 -2.765)">
<tspan>m</tspan>
</text><text font-size="1.85" text-anchor="start" transform="translate(17.776 -2.765)">
<tspan>/</tspan>
</text><text font-size="1.85" text-anchor="start" transform="translate(18.387 -2.765)">
<tspan>Ré</tspan>
</text><path d="M14.265 2.929c0-.364.464-.728.868-.728.252 0 .436.14.436.36 0 .348-.44.728-.88.728-.268 0-.424-.156-.424-.36" /><rect width=".13" height="3.31" x="-.07" y="-2" ry=".04" transform="translate(15.502 1.245)" /><text font-size="1.85" text-anchor="start" transform="translate(21.628 -2.765)">
<tspan>Si</tspan>
</text><text font-size="1.85" text-anchor="start" transform="translate(23.63 -2.765)">
<tspan>m</tspan>
</text><path d="M24.008 2.385c0 .044-.036.08-.08.08s-.08-.036-.08-.08v-1.28c0-.044.036-.08.08-.08s.08.036.08.08zm-2.668 0c0 .044-.036.08-.08.08s-.08-.036-.08-.08v-1.28c0-.044.036-.08.08-.08s.08.036.08.08zM22.596 1.2c.012 0 .836.008.968.452v-.548c0-.044.036-.08.08-.08s.08.036.08.08v1.28c0 .044-.036.08-.08.08s-.08-.036-.08-.08v-.548c-.068.224-.424.452-.968.452-.012 0-.836-.008-.968-.452v.548c0 .044-.036.08-.08.08s-.08-.036-.08-.08v-1.28c0-.044.036-.08.08-.08s.08.036.08.08v.548c.068-.224.424-.452.968-.452m.408.648c0-.408-.36-.556-.536-.556-.092 0-.28.04-.28.356a.54.54 0 0 0 .532.544c.088 0 .284-.032.284-.344M30.488 2.885c0 .044-.036.08-.08.08s-.08-.036-.08-.08v-1.28c0-.044.036-.08.08-.08s.08.036.08.08zm-2.668 0c0 .044-.036.08-.08.08s-.08-.036-.08-.08v-1.28c0-.044.036-.08.08-.08s.08.036.08.08zM29.076 1.7c.012 0 .836.008.968.452v-.548c0-.044.036-.08.08-.08s.08.036.08.08v1.28c0 .044-.036.08-.08.08s-.08-.036-.08-.08v-.548c-.068.224-.424.452-.968.452-.012 0-.836-.008-.968-.452v.548c0 .044-.036.08-.08.08s-.08-.036-.08-.08v-1.28c0-.044.036-.08.08-.08s.08.036.08.08v.548c.068-.224.424-.452.968-.452m.408.648c0-.408-.36-.556-.536-.556-.092 0-.28.04-.28.356a.54.54 0 0 0 .532.544c.088 0 .284-.032.284-.344" /><text font-size="1.85" text-anchor="start" transform="translate(34.587 -2.765)">
<tspan>Mi</tspan>
</text><text font-size="1.85" text-anchor="start" transform="translate(37.308 -2.765)">
<tspan>m</tspan>
</text><path d="M34.588 3.429c0-.364.463-.728.867-.728.253 0 .437.14.437.36 0 .348-.44.728-.88.728-.269 0-.425-.156-.425-.36" /><rect width=".13" height="3.31" x="-.07" y="-1.5" ry=".04" transform="translate(35.824 1.245)" /><text font-size="1.85" text-anchor="start" transform="translate(39.917 -2.765)">
<tspan>Mi</tspan>
</text><text font-size="1.85" text-anchor="start" transform="translate(42.638 -2.765)">
<tspan>m</tspan>
</text><path d="M42.297 2.885c0 .044-.036.08-.08.08s-.08-.036-.08-.08v-1.28c0-.044.036-.08.08-.08s.08.036.08.08zm-2.668 0c0 .044-.036.08-.08.08s-.08-.036-.08-.08v-1.28c0-.044.036-.08.08-.08s.08.036.08.08zM40.885 1.7c.012 0 .836.008.968.452v-.548c0-.044.036-.08.08-.08s.08.036.08.08v1.28c0 .044-.036.08-.08.08s-.08-.036-.08-.08v-.548c-.068.224-.424.452-.968.452-.012 0-.836-.008-.968-.452v.548c0 .044-.036.08-.08.08s-.08-.036-.08-.08v-1.28c0-.044.036-.08.08-.08s.08.036.08.08v.548c.068-.224.424-.452.968-.452m.408.648c0-.408-.36-.556-.536-.556-.092 0-.28.04-.28.356a.54.54 0 0 0 .532.544c.088 0 .284-.032.284-.344" /><text color="rgba(100.0000%, 0.0000%, 0.0000%, 100.0000%)" font-size="2.2" font-weight="bold" text-anchor="start" transform="translate(39.917 -1.307)">
<tspan>+</tspan>
</text><g color="rgba(100.0000%, 0.0000%, 0.0000%, 100.0000%)"><text font-size="2.2" text-anchor="start" transform="translate(3 -2.5)">
<tspan>P23</tspan>
</text><rect width=".1" height="2.06" x="-.3" y="-1.74" ry="0" transform="translate(3 -2.5)" /><rect width=".1" height="2.06" x="3.4" y="-1.74" ry="0" transform="translate(3 -2.5)" /><rect width="3.81" height=".1" x="-.3" y=".22" ry="0" transform="translate(3 -2.5)" /><rect width="3.81" height=".1" x="-.3" y="-1.74" ry="0" transform="translate(3 -2.5)" /></g><text font-size="1.85" text-anchor="start" transform="translate(46.397 -2.765)">
<tspan>Si</tspan>
</text><text font-size="1.85" text-anchor="start" transform="translate(48.399 -2.765)">
<tspan>m</tspan>
</text><path d="M46.397 3.429c0-.364.464-.728.868-.728.252 0 .436.14.436.36 0 .348-.44.728-.88.728-.268 0-.424-.156-.424-.36" /><rect width=".13" height="3.31" x="-.07" y="-1.5" ry=".04" transform="translate(47.634 1.245)" /></svg>