<svg xmlns="http://www.w3.org/2000/svg" width="348.06" height="58.13" viewBox="0 -4.03 55.16 9.22" fill="currentColor" font-family="Linux Libertine"><style type="text/css">tspan{white-space:pre}</style><rect width=".2" height="4" x="0" y="-2" ry="0" transform="translate(24.095 1.639)" /><rect width=".62" height="4" x="0" y="-2" ry="0" transform="translate(54.541 1.639)" /><rect width=".2" height="4" x="0" y="-2" ry="0" transform="translate(54.034 1.639)" /><path stroke="currentColor" stroke-linecap="round" stroke-linejoin="round" stroke-width=".1" d="M.05 3.639h55.06M.05 2.639h55.06M.05 1.639h55.06M.05.639h55.06M.05-.361h55.06" /><rect width=".2" height="4" x="0" y="-2" ry="0" transform="translate(41.84 1.639)" /><rect width=".2" height="4" x="0" y="-2" ry="0" transform="translate(41.333 1.639)" /><path stroke="currentColor" stroke-linecap="round" stroke-linejoin="round" stroke-width=".08" d="M36.186-.371v.396L33.63-.163V-.56zM18.983-1.371v.396l-2.804.623v-.396z" /><text font-size="1.85" text-anchor="start" transform="translate(7.785 -2.384)">
<tspan>Sol</tspan>
</text><path d="M10.165 2.279c0 .044-.036.08-.08.08s-.08-.036-.08-.08V.999c0-.044.036-.08.08-.08s.08.036.08.08zm-2.668 0c0 .044-.036.08-.08.08s-.08-.036-.08-.08V.999c0-.044.036-.08.08-.08s.08.036.08.08zm1.256-1.184c.012 0 .836.008.968.452V.999c0-.044.036-.08.08-.08s.08.036.08.08v1.28c0 .044-.036.08-.08.08s-.08-.036-.08-.08V1.73c-.068.224-.424.452-.968.452-.012 0-.836-.008-.968-.452v.548c0 .044-.036.08-.08.08s-.08-.036-.08-.08V.999c0-.044.036-.08.08-.08s.08.036.08.08v.548c.068-.224.424-.452.968-.452m.408.648c0-.408-.36-.556-.536-.556-.092 0-.28.04-.28.356a.54.54 0 0 0 .532.544c.088 0 .284-.032.284-.344M1.864 5.179H1.84a.783.783 0 0 1-.78-.788c0-.232.212-.412.448-.412.216 0 .38.188.38.412 0 .208-.172.38-.38.38a.3.3 0 0 1-.124-.024c.104.156.272.26.468.26h.016zm.54-3.144c.076.356.192.968.24 1.416a.67.67 0 0 0 .448-.652.753.753 0 0 0-.688-.764m-1.308.492c0 .448.392.988 1.112.988q.127 0 .272-.024a17 17 0 0 0-.252-1.456c-.316.032-.496.244-.496.476 0 .176.1.364.324.492q.029.03.028.06c0 .044-.04.088-.088.088-.06 0-.504-.248-.504-.748 0-.352.232-.696.64-.788a15 15 0 0 0-.184-.7c-.428.484-.852.972-.852 1.612m1.132-4.664c.112 0 .572.824.572 1.444 0 .572-.344 1.02-.72 1.456.084.272.156.552.224.828q.031-.002.056-.004c.62 0 1.02.516 1.02 1.048 0 .452-.296.848-.72.98q.019.21.02.42-.001.116-.008.232c-.028.476-.352.9-.808.912l.004-.172c.372-.008.612-.368.636-.764q.007-.11.008-.22c0-.124-.004-.244-.016-.368q-.169.031-.32.032C1.22 3.687.808 2.819.808 2.19c0-.708.524-1.224.992-1.764-.116-.384-.208-.68-.208-1.384 0-.756.576-1.18.636-1.18M1.788-.49c0 .22.048.46.14.76.328-.4.588-.808.588-1.304 0-.16-.024-.328-.084-.508A1.13 1.13 0 0 0 1.788-.49M4.185-.837c0-.032.02-.06.052-.072l.184-.068v-.632c0-.04.032-.076.072-.076s.076.036.076.076v.58l.332-.124v-.632c0-.04.036-.076.076-.076s.072.036.072.076v.58l.128-.048q.014-.005.028-.004a.08.08 0 0 1 .08.08v.24c0 .032-.02.064-.052.076l-.184.064v.64l.128-.044q.014-.005.028-.004a.08.08 0 0 1 .08.08v.24c0 .032-.02.06-.052.072l-.184.068v.632c0 .04-.032.076-.072.076S4.901.927 4.901.887v-.58L4.569.43v.632c0 .04-.036.076-.076.076s-.072-.036-.072-.076v-.58L4.293.53q-.014.005-.028.004a.08.08 0 0 1-.08-.08v-.24c0-.032.02-.064.052-.076l.184-.064v-.64l-.128.044q-.014.005-.028.004a.08.08 0 0 1-.08-.08zm.716.096-.332.12v.64l.332-.12zM14.967 2.823c0-.364.464-.728.868-.728.252 0 .436.14.436.36 0 .348-.44.728-.88.728-.268 0-.424-.156-.424-.36" /><rect width=".13" height="3.02" x="-.07" y="-2.2" ry=".04" transform="translate(16.204 1.639)" /><path d="M17.721 1.823c0-.364.464-.728.868-.728.252 0 .436.14.436.36 0 .348-.44.728-.88.728-.268 0-.424-.156-.424-.36" /><rect width=".13" height="2.61" x="-.07" y="-2.8" ry=".04" transform="translate(18.958 1.639)" /><text font-size="1.85" text-anchor="start" transform="translate(20.225 -2.384)">
<tspan>Ré</tspan>
</text><text font-size="1.31" text-anchor="start" transform="translate(22.366 -3.225)">
<tspan>7</tspan>
</text><path d="M20.225 2.323c0-.364.464-.728.868-.728.252 0 .436.14.436.36 0 .348-.44.728-.88.728-.268 0-.424-.156-.424-.36" /><rect width=".13" height="3.31" x="-.07" y="-3" ry=".04" transform="translate(21.462 1.639)" /><text font-size="1.85" text-anchor="start" transform="translate(25.238 -2.384)">
<tspan>La</tspan>
</text><text font-size="1.85" text-anchor="start" transform="translate(27.67 -2.384)">
<tspan>m</tspan>
</text><path d="M27.618 2.779c0 .044-.036.08-.08.08s-.08-.036-.08-.08v-1.28c0-.044.036-.08.08-.08s.08.036.08.08zm-2.668 0c0 .044-.036.08-.08.08s-.08-.036-.08-.08v-1.28c0-.044.036-.08.08-.08s.08.036.08.08zm1.256-1.184c.012 0 .836.008.968.452v-.548c0-.044.036-.08.08-.08s.08.036.08.08v1.28c0 .044-.036.08-.08.08s-.08-.036-.08-.08V2.23c-.068.224-.424.452-.968.452-.012 0-.836-.008-.968-.452v.548c0 .044-.036.08-.08.08s-.08-.036-.08-.08v-1.28c0-.044.036-.08.08-.08s.08.036.08.08v.548c.068-.224.424-.452.968-.452m.408.648c0-.408-.36-.556-.536-.556-.092 0-.28.04-.28.356a.54.54 0 0 0 .532.544c.088 0 .284-.032.284-.344M32.42 2.823c0-.364.463-.728.867-.728.252 0 .436.14.436.36 0 .348-.44.728-.88.728-.268 0-.424-.156-.424-.36" /><rect width=".13" height="2.81" x="-.07" y="-2" ry=".04" transform="translate(33.656 1.639)" /><path d="M34.924 3.323c0-.364.464-.728.868-.728.252 0 .436.14.436.36 0 .348-.44.728-.88.728-.268 0-.424-.156-.424-.36" /><rect width=".13" height="3.13" x="-.07" y="-1.82" ry=".04" transform="translate(36.16 1.639)" /><text font-size="1.85" text-anchor="start" transform="translate(37.428 -2.384)">
<tspan>Sol</tspan>
</text><path d="M37.428 2.823c0-.364.464-.728.868-.728.252 0 .436.14.436.36 0 .348-.44.728-.88.728-.268 0-.424-.156-.424-.36" /><rect width=".13" height="3.31" x="-.07" y="-2.5" ry=".04" transform="translate(38.665 1.639)" /><text font-size="1.85" text-anchor="start" transform="translate(42.983 -2.384)">
<tspan>Sol</tspan>
</text><path d="M45.363 2.279c0 .044-.036.08-.08.08s-.08-.036-.08-.08V.999c0-.044.036-.08.08-.08s.08.036.08.08zm-2.668 0c0 .044-.036.08-.08.08s-.08-.036-.08-.08V.999c0-.044.036-.08.08-.08s.08.036.08.08zm1.256-1.184c.012 0 .836.008.968.452V.999c0-.044.036-.08.08-.08s.08.036.08.08v1.28c0 .044-.036.08-.08.08s-.08-.036-.08-.08V1.73c-.068.224-.424.452-.968.452-.012 0-.836-.008-.968-.452v.548c0 .044-.036.08-.08.08s-.08-.036-.08-.08V.999c0-.044.036-.08.08-.08s.08.036.08.08v.548c.068-.224.424-.452.968-.452m.408.648c0-.408-.36-.556-.536-.556-.092 0-.28.04-.28.356a.54.54 0 0 0 .532.544c.088 0 .284-.032.284-.344" /><text color="rgba(100.0000%, 0.0000%, 0.0000%, 100.0000%)" font-size="2.2" font-weight="bold" text-anchor="start" transform="translate(42.983 -.913)">
<tspan>+</tspan>
</text><g color="rgba(100.0000%, 0.0000%, 0.0000%, 100.0000%)"><text font-size="2.2" text-anchor="start" transform="translate(3 -2.3)">
<tspan>I36</tspan>
</text><rect width=".1" height="2.06" x="-.3" y="-1.73" ry="0" transform="translate(3 -2.3)" /><rect width=".1" height="2.06" x="2.86" y="-1.73" ry="0" transform="translate(3 -2.3)" /><rect width="3.27" height=".1" x="-.3" y=".22" ry="0" transform="translate(3 -2.3)" /><rect width="3.27" height=".1" x="-.3" y="-1.73" ry="0" transform="translate(3 -2.3)" /></g><text font-size="1.85" text-anchor="start" transform="translate(50.165 -2.384)">
<tspan>Ré</tspan>
</text><text font-size="1.31" text-anchor="start" transform="translate(52.306 -3.225)">
<tspan>7</tspan>
</text><path d="M50.165 2.323c0-.364.464-.728.868-.728.252 0 .436.14.436.36 0 .348-.44.728-.88.728-.268 0-.424-.156-.424-.36" /><rect width=".13" height="3.31" x="-.07" y="-3" ry=".04" transform="translate(51.402 1.639)" /></svg>