<svg xmlns="http://www.w3.org/2000/svg" width="337.21" height="59.57" viewBox="0 -4.25 53.45 9.44" fill="currentColor" font-family="Linux Libertine"><style type="text/css">tspan{white-space:pre}</style><rect width=".2" height="4" x="0" y="-2" ry="0" transform="translate(22.613 1.639)" /><rect width=".62" height="4" x="0" y="-2" ry="0" transform="translate(52.824 1.639)" /><rect width=".2" height="4" x="0" y="-2" ry="0" transform="translate(52.317 1.639)" /><path stroke="currentColor" stroke-linecap="round" stroke-linejoin="round" stroke-width=".1" d="M.05 3.639h53.34M.05 2.639h53.34M.05 1.639h53.34M.05.639h53.34M.05-.361h53.34" /><rect width=".2" height="4" x="0" y="-2" ry="0" transform="translate(40.087 1.639)" /><rect width=".2" height="4" x="0" y="-2" ry="0" transform="translate(39.58 1.639)" /><path stroke="currentColor" stroke-linecap="round" stroke-linejoin="round" stroke-width=".08" d="M34.648-.748v.396l-2.305-.623v-.396zM16.748-.748v.396l-2.554.188v-.395z" /><text font-size="1.85" text-anchor="start" transform="translate(5.8 -2.384)">
<tspan>La</tspan>
</text><text font-size="1.85" text-anchor="start" transform="translate(8.233 -2.384)">
<tspan>m</tspan>
</text><path d="M8.18 2.779c0 .044-.036.08-.08.08s-.08-.036-.08-.08v-1.28c0-.044.036-.08.08-.08s.08.036.08.08zm-2.668 0c0 .044-.036.08-.08.08s-.08-.036-.08-.08v-1.28c0-.044.036-.08.08-.08s.08.036.08.08zm1.256-1.184c.012 0 .836.008.968.452v-.548c0-.044.036-.08.08-.08s.08.036.08.08v1.28c0 .044-.036.08-.08.08s-.08-.036-.08-.08V2.23c-.068.224-.424.452-.968.452-.012 0-.836-.008-.968-.452v.548c0 .044-.036.08-.08.08s-.08-.036-.08-.08v-1.28c0-.044.036-.08.08-.08s.08.036.08.08v.548c.068-.224.424-.452.968-.452m.408.648c0-.408-.36-.556-.536-.556-.092 0-.28.04-.28.356a.54.54 0 0 0 .532.544c.088 0 .284-.032.284-.344M1.864 5.179H1.84a.783.783 0 0 1-.78-.788c0-.232.212-.412.448-.412.216 0 .38.188.38.412 0 .208-.172.38-.38.38a.3.3 0 0 1-.124-.024c.104.156.272.26.468.26h.016zm.54-3.144c.076.356.192.968.24 1.416a.67.67 0 0 0 .448-.652.753.753 0 0 0-.688-.764m-1.308.492c0 .448.392.988 1.112.988q.127 0 .272-.024a17 17 0 0 0-.252-1.456c-.316.032-.496.244-.496.476 0 .176.1.364.324.492q.029.03.028.06c0 .044-.04.088-.088.088-.06 0-.504-.248-.504-.748 0-.352.232-.696.64-.788a15 15 0 0 0-.184-.7c-.428.484-.852.972-.852 1.612m1.132-4.664c.112 0 .572.824.572 1.444 0 .572-.344 1.02-.72 1.456.084.272.156.552.224.828q.031-.002.056-.004c.62 0 1.02.516 1.02 1.048 0 .452-.296.848-.72.98q.019.21.02.42-.001.116-.008.232c-.028.476-.352.9-.808.912l.004-.172c.372-.008.612-.368.636-.764q.007-.11.008-.22c0-.124-.004-.244-.016-.368q-.169.031-.32.032C1.22 3.687.808 2.819.808 2.19c0-.708.524-1.224.992-1.764-.116-.384-.208-.68-.208-1.384 0-.756.576-1.18.636-1.18M1.788-.49c0 .22.048.46.14.76.328-.4.588-.808.588-1.304 0-.16-.024-.328-.084-.508A1.13 1.13 0 0 0 1.788-.49M12.982 2.823c0-.364.464-.728.868-.728.252 0 .436.14.436.36 0 .348-.44.728-.88.728-.268 0-.424-.156-.424-.36" /><rect width=".13" height="2.82" x="-.07" y="-2" ry=".04" transform="translate(14.219 1.639)" /><path d="M15.486 2.323c0-.364.464-.728.868-.728.252 0 .436.14.436.36 0 .348-.44.728-.88.728-.268 0-.424-.156-.424-.36" /><rect width=".13" height="2.5" x="-.07" y="-2.18" ry=".04" transform="translate(16.723 1.639)" /><text font-size="1.85" text-anchor="start" transform="translate(18.008 -2.384)">
<tspan>Mi</tspan>
</text><text font-size="1.85" text-anchor="start" transform="translate(20.729 -2.384)">
<tspan>m</tspan>
</text><text font-size="1.31" text-anchor="start" transform="translate(22.238 -3.225)">
<tspan>7</tspan>
</text><path d="M18.008 1.823c0-.364.464-.728.868-.728.252 0 .436.14.436.36 0 .348-.44.728-.88.728-.268 0-.424-.156-.424-.36" /><rect width=".13" height="3.15" x="-.07" y=".19" ry=".04" transform="translate(18.076 1.639)" /><text font-size="1.85" text-anchor="start" transform="translate(23.95 -2.384)">
<tspan>La</tspan>
</text><text font-size="1.85" text-anchor="start" transform="translate(26.382 -2.384)">
<tspan>m</tspan>
</text><path d="M26.33 2.779c0 .044-.037.08-.08.08s-.08-.036-.08-.08v-1.28c0-.044.035-.08.08-.08s.08.036.08.08zm-2.669 0c0 .044-.036.08-.08.08s-.08-.036-.08-.08v-1.28c0-.044.036-.08.08-.08s.08.036.08.08zm1.256-1.184c.012 0 .836.008.968.452v-.548c0-.044.036-.08.08-.08s.08.036.08.08v1.28c0 .044-.036.08-.08.08s-.08-.036-.08-.08V2.23c-.068.224-.424.452-.968.452-.012 0-.836-.008-.968-.452v.548c0 .044-.036.08-.08.08s-.08-.036-.08-.08v-1.28c0-.044.036-.08.08-.08s.08.036.08.08v.548c.068-.224.424-.452.968-.452m.408.648c0-.408-.36-.556-.536-.556-.092 0-.28.04-.28.356a.54.54 0 0 0 .532.544c.088 0 .284-.032.284-.344" /><text font-size="1.85" text-anchor="start" transform="translate(31.131 -2.384)">
<tspan>Sol</tspan>
</text><path d="M31.131 1.823c0-.364.464-.728.868-.728.252 0 .436.14.436.36 0 .348-.44.728-.88.728-.268 0-.424-.156-.424-.36" /><rect width=".13" height="2.61" x="-.07" y="-2.79" ry=".04" transform="translate(32.368 1.639)" /><path d="M33.385 2.823c0-.364.464-.728.868-.728.252 0 .436.14.436.36 0 .348-.44.728-.88.728-.268 0-.424-.156-.424-.36" /><rect width=".13" height="3.02" x="-.07" y="-2.21" ry=".04" transform="translate(34.622 1.639)" /><text font-size="1.85" text-anchor="start" transform="translate(35.64 -2.384)">
<tspan>La</tspan>
</text><text font-size="1.85" text-anchor="start" transform="translate(38.072 -2.384)">
<tspan>m</tspan>
</text><path d="M35.64 3.823c0-.364.464-.728.868-.728.252 0 .436.14.436.36 0 .348-.44.728-.88.728-.268 0-.424-.156-.424-.36" /><rect width=".13" height="3.31" x="-.07" y="-1.5" ry=".04" transform="translate(36.877 1.639)" /><text font-size="1.85" text-anchor="start" transform="translate(41.23 -2.384)">
<tspan>La</tspan>
</text><text font-size="1.85" text-anchor="start" transform="translate(43.663 -2.384)">
<tspan>m</tspan>
</text><path d="M43.61 2.779c0 .044-.036.08-.08.08s-.08-.036-.08-.08v-1.28c0-.044.036-.08.08-.08s.08.036.08.08zm-2.668 0c0 .044-.036.08-.08.08s-.08-.036-.08-.08v-1.28c0-.044.036-.08.08-.08s.08.036.08.08zm1.256-1.184c.012 0 .836.008.968.452v-.548c0-.044.036-.08.08-.08s.08.036.08.08v1.28c0 .044-.036.08-.08.08s-.08-.036-.08-.08V2.23c-.068.224-.424.452-.968.452-.012 0-.836-.008-.968-.452v.548c0 .044-.036.08-.08.08s-.08-.036-.08-.08v-1.28c0-.044.036-.08.08-.08s.08.036.08.08v.548c.068-.224.424-.452.968-.452m.408.648c0-.408-.36-.556-.536-.556-.092 0-.28.04-.28.356a.54.54 0 0 0 .532.544c.088 0 .284-.032.284-.344" /><text color="rgba(100.0000%, 0.0000%, 0.0000%, 100.0000%)" font-size="2.2" font-weight="bold" text-anchor="start" transform="translate(41.23 -.913)">
<tspan>+</tspan>
</text><g color="rgba(100.0000%, 0.0000%, 0.0000%, 100.0000%)"><text font-size="2.2" text-anchor="start" transform="translate(2.5 -2.5)">
<tspan>4C</tspan>
</text><rect width=".1" height="2.08" x="-.3" y="-1.75" ry="0" transform="translate(2.5 -2.5)" /><rect width=".1" height="2.08" x="2.64" y="-1.75" ry="0" transform="translate(2.5 -2.5)" /><rect width="3.05" height=".1" x="-.3" y=".22" ry="0" transform="translate(2.5 -2.5)" /><rect width="3.05" height=".1" x="-.3" y="-1.75" ry="0" transform="translate(2.5 -2.5)" /></g><text font-size="1.85" text-anchor="start" transform="translate(48.412 -2.384)">
<tspan>Mi</tspan>
</text><text font-size="1.85" text-anchor="start" transform="translate(51.133 -2.384)">
<tspan>m</tspan>
</text><path d="M48.412 2.823c0-.364.464-.728.868-.728.252 0 .436.14.436.36 0 .348-.44.728-.88.728-.268 0-.424-.156-.424-.36" /><rect width=".13" height="3.31" x="-.07" y="-2.5" ry=".04" transform="translate(49.65 1.639)" /></svg>