<svg xmlns="http://www.w3.org/2000/svg" width="357.58" height="57.22" viewBox="0 -4.23 56.67 9.07" fill="currentColor" font-family="Linux Libertine"><style type="text/css">tspan{white-space:pre}</style><rect width=".2" height="4" x="0" y="-2" ry="0" transform="translate(25.53 1.292)" /><rect width=".62" height="4" x="0" y="-2" ry="0" transform="translate(56.053 1.292)" /><rect width=".2" height="4" x="0" y="-2" ry="0" transform="translate(55.546 1.292)" /><path stroke="currentColor" stroke-linecap="round" stroke-linejoin="round" stroke-width=".1" d="M.05 3.292h56.57M.05 2.292h56.57M.05 1.292h56.57M.05.292h56.57M.05-.708h56.57" /><rect width=".2" height="4" x="0" y="-2" ry="0" transform="translate(43.28 1.292)" /><rect width=".2" height="4" x="0" y="-2" ry="0" transform="translate(42.773 1.292)" /><path stroke="currentColor" stroke-linecap="round" stroke-linejoin="round" stroke-width=".08" d="M37.626-.718v.396L35.07-.51v-.396zM20.393-.906v.396l-2.554.188v-.396z" /><text font-size="1.85" text-anchor="start" transform="translate(9.445 -2.73)">
<tspan>Sol</tspan>
</text><text font-size="1.85" text-anchor="start" transform="translate(12.381 -2.73)">
<tspan>m</tspan>
</text><path d="M11.825 2.932c0 .044-.036.08-.08.08s-.08-.036-.08-.08v-1.28c0-.044.036-.08.08-.08s.08.036.08.08zm-2.668 0c0 .044-.036.08-.08.08s-.08-.036-.08-.08v-1.28c0-.044.036-.08.08-.08s.08.036.08.08zm1.256-1.184c.012 0 .836.008.968.452v-.548c0-.044.036-.08.08-.08s.08.036.08.08v1.28c0 .044-.036.08-.08.08s-.08-.036-.08-.08v-.548c-.068.224-.424.452-.968.452-.012 0-.836-.008-.968-.452v.548c0 .044-.036.08-.08.08s-.08-.036-.08-.08v-1.28c0-.044.036-.08.08-.08s.08.036.08.08V2.2c.068-.224.424-.452.968-.452m.408.648c0-.408-.36-.556-.536-.556-.092 0-.28.04-.28.356a.54.54 0 0 0 .532.544c.088 0 .284-.032.284-.344M1.864 4.832H1.84a.783.783 0 0 1-.78-.788c0-.232.212-.412.448-.412.216 0 .38.188.38.412 0 .208-.172.38-.38.38a.3.3 0 0 1-.124-.024c.104.156.272.26.468.26h.016zm.54-3.144c.076.356.192.968.24 1.416a.67.67 0 0 0 .448-.652.753.753 0 0 0-.688-.764m-1.308.492c0 .448.392.988 1.112.988q.127 0 .272-.024a17 17 0 0 0-.252-1.456c-.316.032-.496.244-.496.476 0 .176.1.364.324.492q.029.03.028.06c0 .044-.04.088-.088.088-.06 0-.504-.248-.504-.748 0-.352.232-.696.64-.788a15 15 0 0 0-.184-.7c-.428.484-.852.972-.852 1.612m1.132-4.664c.112 0 .572.824.572 1.444 0 .572-.344 1.02-.72 1.456.084.272.156.552.224.828.02 0 .04-.004.056-.004.62 0 1.02.516 1.02 1.048 0 .452-.296.848-.72.98q.019.21.02.42-.001.116-.008.232c-.028.476-.352.9-.808.912l.004-.172c.372-.008.612-.368.636-.764q.007-.11.008-.22.001-.184-.016-.368-.169.031-.32.032C1.22 3.34.808 2.472.808 1.844c0-.708.524-1.224.992-1.764-.116-.384-.208-.68-.208-1.384 0-.756.576-1.18.636-1.18m-.44 1.648c0 .22.048.46.14.76.328-.4.588-.808.588-1.304 0-.16-.024-.328-.084-.508a1.13 1.13 0 0 0-.644 1.052M4.413 1.128l-.004.264v.044q-.001.132.016.264c.18-.152.372-.32.372-.556 0-.132-.056-.268-.172-.268-.124 0-.208.12-.212.252m-.168.716-.048-2.38c.032-.02.072-.032.108-.032s.076.012.108.032L4.385.844a.58.58 0 0 1 .364-.136c.208 0 .356.192.356.408 0 .32-.344.468-.588.676-.06.052-.096.152-.18.152-.052 0-.092-.044-.092-.1M5.333-.372l-.004.264v.044q-.001.132.016.264c.18-.152.372-.32.372-.556 0-.132-.056-.268-.172-.268-.124 0-.208.12-.212.252m-.168.716-.048-2.38c.032-.02.072-.032.108-.032s.076.012.108.032l-.028 1.38a.58.58 0 0 1 .364-.136c.208 0 .356.192.356.408 0 .32-.344.468-.588.676-.06.052-.096.152-.18.152-.052 0-.092-.044-.092-.1M6.253 1.628l-.004.264v.044q-.001.132.016.264c.18-.152.372-.32.372-.556 0-.132-.056-.268-.172-.268-.124 0-.208.12-.212.252m-.168.716-.048-2.38c.032-.02.072-.032.108-.032s.076.012.108.032l-.028 1.38a.58.58 0 0 1 .364-.136c.208 0 .356.192.356.408 0 .32-.344.468-.588.676-.06.052-.096.152-.18.152-.052 0-.092-.044-.092-.1M16.627 2.976c0-.364.464-.728.868-.728.252 0 .436.14.436.36 0 .348-.44.728-.88.728-.268 0-.424-.156-.424-.36" /><rect width=".13" height="3.13" x="-.07" y="-1.82" ry=".04" transform="translate(17.864 1.292)" /><path d="M19.131 2.476c0-.364.464-.728.868-.728.252 0 .436.14.436.36 0 .348-.44.728-.88.728-.268 0-.424-.156-.424-.36" /><rect width=".13" height="2.81" x="-.07" y="-2" ry=".04" transform="translate(20.368 1.292)" /><text font-size="1.85" text-anchor="start" transform="translate(21.635 -2.73)">
<tspan>Fa</tspan>
</text><text font-size="1.85" text-anchor="start" transform="translate(24.068 -2.73)">
<tspan>m</tspan>
</text><path d="M21.635 1.976c0-.364.464-.728.868-.728.252 0 .436.14.436.36 0 .348-.44.728-.88.728-.268 0-.424-.156-.424-.36" /><rect width=".13" height="3.31" x="-.07" y="-3" ry=".04" transform="translate(22.872 1.292)" /><text font-size="1.85" text-anchor="start" transform="translate(26.678 -2.73)">
<tspan>Fa</tspan>
</text><text font-size="1.85" text-anchor="start" transform="translate(29.11 -2.73)">
<tspan>m</tspan>
</text><path d="M29.058 2.432c0 .044-.036.08-.08.08s-.08-.036-.08-.08v-1.28c0-.044.036-.08.08-.08s.08.036.08.08zm-2.668 0c0 .044-.036.08-.08.08s-.08-.036-.08-.08v-1.28c0-.044.036-.08.08-.08s.08.036.08.08zm1.256-1.184c.012 0 .836.008.968.452v-.548c0-.044.036-.08.08-.08s.08.036.08.08v1.28c0 .044-.036.08-.08.08s-.08-.036-.08-.08v-.548c-.068.224-.424.452-.968.452-.012 0-.836-.008-.968-.452v.548c0 .044-.036.08-.08.08s-.08-.036-.08-.08v-1.28c0-.044.036-.08.08-.08s.08.036.08.08V1.7c.068-.224.424-.452.968-.452m.408.648c0-.408-.36-.556-.536-.556-.092 0-.28.04-.28.356a.54.54 0 0 0 .532.544c.088 0 .284-.032.284-.344" /><text font-size="1.85" text-anchor="start" transform="translate(33.86 -2.73)">
<tspan>Sol</tspan>
</text><path d="M33.86 2.476c0-.364.463-.728.867-.728.253 0 .437.14.437.36 0 .348-.44.728-.88.728-.269 0-.425-.156-.425-.36" /><rect width=".13" height="2.81" x="-.07" y="-2" ry=".04" transform="translate(35.096 1.292)" /><path d="M36.364 2.976c0-.364.464-.728.868-.728.252 0 .436.14.436.36 0 .348-.44.728-.88.728-.268 0-.424-.156-.424-.36" /><rect width=".13" height="3.13" x="-.07" y="-1.82" ry=".04" transform="translate(37.6 1.292)" /><text font-size="1.85" text-anchor="start" transform="translate(38.868 -2.73)">
<tspan>Do</tspan>
</text><text font-size="1.85" text-anchor="start" transform="translate(41.732 -2.73)">
<tspan>m</tspan>
</text><path d="M38.868 2.476c0-.364.464-.728.868-.728.252 0 .436.14.436.36 0 .348-.44.728-.88.728-.268 0-.424-.156-.424-.36" /><rect width=".13" height="3.31" x="-.07" y="-2.5" ry=".04" transform="translate(40.105 1.292)" /><text font-size="1.85" text-anchor="start" transform="translate(44.423 -2.73)">
<tspan>Do</tspan>
</text><text font-size="1.85" text-anchor="start" transform="translate(47.287 -2.73)">
<tspan>m</tspan>
</text><path d="M46.803 2.932c0 .044-.036.08-.08.08s-.08-.036-.08-.08v-1.28c0-.044.036-.08.08-.08s.08.036.08.08zm-2.668 0c0 .044-.036.08-.08.08s-.08-.036-.08-.08v-1.28c0-.044.036-.08.08-.08s.08.036.08.08zm1.256-1.184c.012 0 .836.008.968.452v-.548c0-.044.036-.08.08-.08s.08.036.08.08v1.28c0 .044-.036.08-.08.08s-.08-.036-.08-.08v-.548c-.068.224-.424.452-.968.452-.012 0-.836-.008-.968-.452v.548c0 .044-.036.08-.08.08s-.08-.036-.08-.08v-1.28c0-.044.036-.08.08-.08s.08.036.08.08V2.2c.068-.224.424-.452.968-.452m.408.648c0-.408-.36-.556-.536-.556-.092 0-.28.04-.28.356a.54.54 0 0 0 .532.544c.088 0 .284-.032.284-.344" /><text color="rgba(100.0000%, 0.0000%, 0.0000%, 100.0000%)" font-size="2.2" font-weight="bold" text-anchor="start" transform="translate(44.423 -1.26)">
<tspan>+</tspan>
</text><g color="rgba(100.0000%, 0.0000%, 0.0000%, 100.0000%)"><text font-size="2.2" text-anchor="start" transform="translate(3 -2.5)">
<tspan>B</tspan>
</text><rect width=".1" height="2.03" x="-.3" y="-1.73" ry="0" transform="translate(3 -2.5)" /><rect width=".1" height="2.03" x="1.49" y="-1.73" ry="0" transform="translate(3 -2.5)" /><rect width="1.9" height=".1" x="-.3" y=".2" ry="0" transform="translate(3 -2.5)" /><rect width="1.9" height=".1" x="-.3" y="-1.73" ry="0" transform="translate(3 -2.5)" /></g><text font-size="1.85" text-anchor="start" transform="translate(51.605 -2.73)">
<tspan>Fa</tspan>
</text><text font-size="1.85" text-anchor="start" transform="translate(54.038 -2.73)">
<tspan>m</tspan>
</text><path d="M51.605 2.976c0-.364.464-.728.868-.728.252 0 .436.14.436.36 0 .348-.44.728-.88.728-.268 0-.424-.156-.424-.36" /><rect width=".13" height="3.31" x="-.07" y="-2" ry=".04" transform="translate(52.842 1.292)" /></svg>