<svg xmlns="http://www.w3.org/2000/svg" width="407.06" height="73.81" viewBox="0 -3.59 64.51 11.7" fill="currentColor" font-family="Linux Libertine"><style type="text/css">tspan{white-space:pre}</style><rect width=".2" height="4" x="0" y="-2" ry="0" transform="translate(26.321 2.162)" /><rect width=".62" height="4" x="0" y="-2" ry="0" transform="translate(63.891 2.162)" /><rect width=".2" height="4" x="0" y="-2" ry="0" transform="translate(63.384 2.162)" /><path stroke="currentColor" stroke-linecap="round" stroke-linejoin="round" stroke-width=".1" d="M.05 4.162h64.41M.05 3.162h64.41M.05 2.162h64.41M.05 1.162h64.41M.05.162h64.41" /><rect width=".2" height="4" x="0" y="-2" ry="0" transform="translate(43.938 2.162)" /><text font-size="1.96" font-style="italic" text-anchor="start" transform="translate(30.174 7.646)">
<tspan>sauf v.17-18</tspan>
</text><path stroke="currentColor" stroke-linecap="round" stroke-linejoin="round" stroke-width=".1" d="m41.575 5.725.5-1M27.865 5.725l-.5-1M27.865 5.725h13.71" /><text font-size="1.85" text-anchor="start" transform="translate(8.885 -1.424)">
<tspan>Ré</tspan>
</text><path d="M11.265 5.302c0 .044-.036.08-.08.08s-.08-.036-.08-.08v-1.28c0-.044.036-.08.08-.08s.08.036.08.08zm-2.668 0c0 .044-.036.08-.08.08s-.08-.036-.08-.08v-1.28c0-.044.036-.08.08-.08s.08.036.08.08zm1.256-1.184c.012 0 .836.008.968.452v-.548c0-.044.036-.08.08-.08s.08.036.08.08v1.28c0 .044-.036.08-.08.08s-.08-.036-.08-.08v-.548c-.068.224-.424.452-.968.452-.012 0-.836-.008-.968-.452v.548c0 .044-.036.08-.08.08s-.08-.036-.08-.08v-1.28c0-.044.036-.08.08-.08s.08.036.08.08v.548c.068-.224.424-.452.968-.452m.408.648c0-.408-.36-.556-.536-.556-.092 0-.28.04-.28.356a.54.54 0 0 0 .532.544c.088 0 .284-.032.284-.344M1.864 5.702H1.84a.783.783 0 0 1-.78-.788c0-.232.212-.412.448-.412.216 0 .38.188.38.412 0 .208-.172.38-.38.38a.3.3 0 0 1-.124-.024c.104.156.272.26.468.26h.016zm.54-3.144c.076.356.192.968.24 1.416a.67.67 0 0 0 .448-.652.753.753 0 0 0-.688-.764m-1.308.492c0 .448.392.988 1.112.988q.127 0 .272-.024a17 17 0 0 0-.252-1.456c-.316.032-.496.244-.496.476 0 .176.1.364.324.492q.029.03.028.06c0 .044-.04.088-.088.088-.06 0-.504-.248-.504-.748 0-.352.232-.696.64-.788a15 15 0 0 0-.184-.7c-.428.484-.852.972-.852 1.612m1.132-4.664c.112 0 .572.824.572 1.444 0 .572-.344 1.02-.72 1.456.084.272.156.552.224.828q.031-.002.056-.004c.62 0 1.02.516 1.02 1.048 0 .452-.296.848-.72.98q.019.21.02.42c0 .076-.004.156-.008.232-.028.476-.352.9-.808.912l.004-.172c.372-.008.612-.368.636-.764a3.775 3.775 0 0 0-.008-.588q-.169.031-.32.032C1.22 4.21.808 3.342.808 2.714c0-.708.524-1.224.992-1.764-.116-.384-.208-.68-.208-1.384 0-.756.576-1.18.636-1.18M1.788.034c0 .22.048.46.14.76.328-.4.588-.808.588-1.304 0-.16-.024-.328-.084-.508A1.13 1.13 0 0 0 1.788.034M4.185-.314c0-.032.02-.06.052-.072l.184-.068v-.632c0-.04.032-.076.072-.076s.076.036.076.076v.58l.332-.124v-.632c0-.04.036-.076.076-.076s.072.036.072.076v.58l.128-.048q.014-.005.028-.004a.08.08 0 0 1 .08.08v.24c0 .032-.02.064-.052.076l-.184.064v.64l.128-.044q.014-.005.028-.004a.08.08 0 0 1 .08.08v.24c0 .032-.02.06-.052.072l-.184.068v.632c0 .04-.032.076-.072.076s-.076-.036-.076-.076V.83l-.332.124v.632c0 .04-.036.076-.076.076s-.072-.036-.072-.076v-.58l-.128.048q-.014.005-.028.004a.08.08 0 0 1-.08-.08v-.24c0-.032.02-.064.052-.076l.184-.064v-.64l-.128.044q-.014.005-.028.004a.08.08 0 0 1-.08-.08zm.716.096-.332.12v.64l.332-.12zM5.285 1.186c0-.032.02-.06.052-.072l.184-.068V.414c0-.04.032-.076.072-.076s.076.036.076.076v.58L6.001.87V.238c0-.04.036-.076.076-.076s.072.036.072.076v.58L6.277.77c.008-.004.02-.004.028-.004a.08.08 0 0 1 .08.08v.24c0 .032-.02.064-.052.076l-.184.064v.64l.128-.044c.008-.004.02-.004.028-.004a.08.08 0 0 1 .08.08v.24c0 .032-.02.06-.052.072l-.184.068v.632c0 .04-.032.076-.072.076s-.076-.036-.076-.076v-.58l-.332.124v.632c0 .04-.036.076-.076.076s-.072-.036-.072-.076v-.58l-.128.048c-.008.004-.02.004-.028.004a.08.08 0 0 1-.08-.08v-.24c0-.032.02-.064.052-.076l.184-.064v-.64l-.128.044c-.008.004-.02.004-.028.004a.08.08 0 0 1-.08-.08zm.716.096-.332.12v.64l.332-.12zM17.745 4.302c0 .044-.036.08-.08.08s-.08-.036-.08-.08v-1.28c0-.044.036-.08.08-.08s.08.036.08.08zm-2.668 0c0 .044-.036.08-.08.08s-.08-.036-.08-.08v-1.28c0-.044.036-.08.08-.08s.08.036.08.08zm1.256-1.184c.012 0 .836.008.968.452v-.548c0-.044.036-.08.08-.08s.08.036.08.08v1.28c0 .044-.036.08-.08.08s-.08-.036-.08-.08v-.548c-.068.224-.424.452-.968.452-.012 0-.836-.008-.968-.452v.548c0 .044-.036.08-.08.08s-.08-.036-.08-.08v-1.28c0-.044.036-.08.08-.08s.08.036.08.08v.548c.068-.224.424-.452.968-.452m.408.648c0-.408-.36-.556-.536-.556-.092 0-.28.04-.28.356a.54.54 0 0 0 .532.544c.088 0 .284-.032.284-.344" /><text font-size="1.85" text-anchor="start" transform="translate(21.845 -1.424)">
<tspan>Fa</tspan>
</text><path d="M24.178-2.804c0-.036.02-.066.054-.078l.11-.045v-.453c0-.036.03-.066.067-.066s.066.03.066.066v.402l.23-.087v-.456c0-.036.03-.066.067-.066s.066.03.066.066v.402l.048-.018a.1.1 0 0 1 .033-.006c.045 0 .084.036.084.084v.15a.085.085 0 0 1-.054.081l-.111.042v.456l.048-.02a.1.1 0 0 1 .033-.007c.045 0 .084.04.084.087v.15a.08.08 0 0 1-.054.078l-.111.045v.453c0 .036-.03.066-.066.066s-.066-.03-.066-.066v-.402l-.231.087v.456c0 .036-.03.066-.066.066s-.066-.03-.066-.066v-.402l-.048.018a.1.1 0 0 1-.033.006.084.084 0 0 1-.084-.084v-.15c0-.036.02-.069.054-.08l.11-.043v-.456l-.047.021a.1.1 0 0 1-.033.006.086.086 0 0 1-.084-.087zm.528.07-.231.09v.455l.23-.09z" /><text font-size="1.85" text-anchor="start" transform="translate(25.202 -1.424)">
<tspan>m</tspan>
</text><path d="M21.845 2.846c0-.364.464-.728.868-.728.252 0 .436.14.436.36 0 .348-.44.728-.88.728-.268 0-.424-.156-.424-.36" /><rect width=".13" height="3.31" x="-.07" y="-3" ry=".04" transform="translate(23.082 2.162)" /><text font-size="1.85" text-anchor="start" transform="translate(27.811 -1.424)">
<tspan>Ré</tspan>
</text><path d="M30.191 3.302c0 .044-.036.08-.08.08s-.08-.036-.08-.08v-1.28c0-.044.036-.08.08-.08s.08.036.08.08zm-2.668 0c0 .044-.036.08-.08.08s-.08-.036-.08-.08v-1.28c0-.044.036-.08.08-.08s.08.036.08.08zm1.256-1.184c.012 0 .836.008.968.452v-.548c0-.044.036-.08.08-.08s.08.036.08.08v1.28c0 .044-.036.08-.08.08s-.08-.036-.08-.08v-.548c-.068.224-.424.452-.968.452-.012 0-.836-.008-.968-.452v.548c0 .044-.036.08-.08.08s-.08-.036-.08-.08v-1.28c0-.044.036-.08.08-.08s.08.036.08.08v.548c.068-.224.424-.452.968-.452m.408.648c0-.408-.36-.556-.536-.556-.092 0-.28.04-.28.356a.54.54 0 0 0 .532.544c.088 0 .284-.032.284-.344" /><text font-size="1.85" text-anchor="start" transform="translate(34.291 -1.424)">
<tspan>Sol</tspan>
</text><path d="M36.671 2.802c0 .044-.036.08-.08.08s-.08-.036-.08-.08v-1.28c0-.044.036-.08.08-.08s.08.036.08.08zm-2.668 0c0 .044-.036.08-.08.08s-.08-.036-.08-.08v-1.28c0-.044.036-.08.08-.08s.08.036.08.08zm1.256-1.184c.012 0 .836.008.968.452v-.548c0-.044.036-.08.08-.08s.08.036.08.08v1.28c0 .044-.036.08-.08.08s-.08-.036-.08-.08v-.548c-.068.224-.424.452-.968.452-.012 0-.836-.008-.968-.452v.548c0 .044-.036.08-.08.08s-.08-.036-.08-.08v-1.28c0-.044.036-.08.08-.08s.08.036.08.08v.548c.068-.224.424-.452.968-.452m.408.648c0-.408-.36-.556-.536-.556-.092 0-.28.04-.28.356a.54.54 0 0 0 .532.544c.088 0 .284-.032.284-.344" /><text font-size="1.85" text-anchor="start" transform="translate(40.771 -1.424)">
<tspan>La</tspan>
</text><path d="M40.771 2.846c0-.364.464-.728.868-.728.252 0 .436.14.436.36 0 .348-.44.728-.88.728-.268 0-.424-.156-.424-.36" /><rect width=".13" height="3.31" x="-.07" y="-3" ry=".04" transform="translate(42.008 2.162)" /><text font-size="1.85" text-anchor="start" transform="translate(45.081 -1.424)">
<tspan>Fa</tspan>
</text><path d="M47.414-2.804c0-.036.021-.066.054-.078l.111-.045v-.453c0-.036.03-.066.066-.066s.066.03.066.066v.402l.231-.087v-.456c0-.036.03-.066.066-.066s.066.03.066.066v.402l.048-.018a.1.1 0 0 1 .033-.006c.045 0 .084.036.084.084v.15a.085.085 0 0 1-.054.081l-.11.042v.456l.047-.02a.1.1 0 0 1 .033-.007c.045 0 .084.04.084.087v.15a.08.08 0 0 1-.054.078l-.11.045v.453c0 .036-.03.066-.067.066s-.066-.03-.066-.066v-.402l-.23.087v.456c0 .036-.03.066-.067.066s-.066-.03-.066-.066v-.402l-.048.018a.1.1 0 0 1-.033.006.084.084 0 0 1-.084-.084v-.15c0-.036.021-.069.054-.08l.111-.043v-.456l-.048.021a.1.1 0 0 1-.033.006.086.086 0 0 1-.084-.087zm.528.07-.23.09v.455l.23-.09zM47.462 3.302c0 .044-.037.08-.08.08s-.08-.036-.08-.08v-1.28c0-.044.036-.08.08-.08s.08.036.08.08zm-2.669 0c0 .044-.035.08-.08.08s-.08-.036-.08-.08v-1.28c0-.044.037-.08.08-.08s.08.036.08.08zm1.256-1.184c.012 0 .836.008.968.452v-.548c0-.044.036-.08.08-.08s.08.036.08.08v1.28c0 .044-.036.08-.08.08s-.08-.036-.08-.08v-.548c-.068.224-.424.452-.968.452-.012 0-.836-.008-.968-.452v.548c0 .044-.036.08-.08.08s-.08-.036-.08-.08v-1.28c0-.044.036-.08.08-.08s.08.036.08.08v.548c.068-.224.424-.452.968-.452m.408.648c0-.408-.36-.556-.536-.556-.092 0-.28.04-.28.356a.54.54 0 0 0 .532.544c.088 0 .284-.032.284-.344" /><text font-size="2.2" text-anchor="start" transform="translate(3.7 6.2)">
<tspan>Ps44</tspan>
</text><rect width=".1" height="2.06" x="-.3" y="-1.74" ry="0" transform="translate(3.7 6.2)" /><rect width=".1" height="2.06" x="4.26" y="-1.74" ry="0" transform="translate(3.7 6.2)" /><rect width="4.67" height=".1" x="-.3" y=".22" ry="0" transform="translate(3.7 6.2)" /><rect width="4.67" height=".1" x="-.3" y="-1.74" ry="0" transform="translate(3.7 6.2)" /><text font-size="1.85" text-anchor="start" transform="translate(51.561 -1.424)">
<tspan>Sol</tspan>
</text><path d="M53.941 3.802c0 .044-.036.08-.08.08s-.08-.036-.08-.08v-1.28c0-.044.036-.08.08-.08s.08.036.08.08zm-2.668 0c0 .044-.036.08-.08.08s-.08-.036-.08-.08v-1.28c0-.044.036-.08.08-.08s.08.036.08.08zm1.256-1.184c.012 0 .836.008.968.452v-.548c0-.044.036-.08.08-.08s.08.036.08.08v1.28c0 .044-.036.08-.08.08s-.08-.036-.08-.08v-.548c-.068.224-.424.452-.968.452-.012 0-.836-.008-.968-.452v.548c0 .044-.036.08-.08.08s-.08-.036-.08-.08v-1.28c0-.044.036-.08.08-.08s.08.036.08.08v.548c.068-.224.424-.452.968-.452m.408.648c0-.408-.36-.556-.536-.556-.092 0-.28.04-.28.356a.54.54 0 0 0 .532.544c.088 0 .284-.032.284-.344M58.041 2.846c0-.364.464-.728.868-.728.252 0 .436.14.436.36 0 .348-.44.728-.88.728-.268 0-.424-.156-.424-.36" /><rect width=".13" height="3.31" x="-.07" y="-3" ry=".04" transform="translate(59.278 2.162)" /><path d="M59.345-.796v1.5h-.064v-1.5zm.492 2.916c0-.04.168-.348.168-.784 0-.412-.376-.832-.66-1.132v-1c0 .788.828 1.344.828 2.132 0 .284-.06.564-.164.828a.1.1 0 0 1-.08.048.09.09 0 0 1-.092-.092" /><text font-size="1.85" text-anchor="start" transform="translate(60.145 -1.424)">
<tspan>Ré</tspan>
</text><path d="M60.145 3.846c0-.364.464-.728.868-.728.252 0 .436.14.436.36 0 .348-.44.728-.88.728-.268 0-.424-.156-.424-.36" /><rect width=".13" height="3.31" x="-.07" y="-2" ry=".04" transform="translate(61.382 2.162)" /></svg>