<svg xmlns="http://www.w3.org/2000/svg" width="359.21" height="62.85" viewBox="0 -3.85 56.93 9.96" fill="currentColor" font-family="Linux Libertine"><style type="text/css">tspan{white-space:pre}</style><rect width=".2" height="4" x="0" y="-2" ry="0" transform="translate(25.832 1.639)" /><rect width=".62" height="4" x="0" y="-2" ry="0" transform="translate(56.306 1.639)" /><rect width=".2" height="4" x="0" y="-2" ry="0" transform="translate(55.8 1.639)" /><path stroke="currentColor" stroke-linecap="round" stroke-linejoin="round" stroke-width=".1" d="M.05 3.639h56.83M.05 2.639h56.83M.05 1.639h56.83M.05.639h56.83M.05-.361h56.83" /><rect width=".2" height="4" x="0" y="-2" ry="0" transform="translate(46.209 1.639)" /><rect width=".2" height="4" x="0" y="-2" ry="0" transform="translate(45.702 1.639)" /><path stroke="currentColor" stroke-linecap="round" stroke-linejoin="round" stroke-width=".08" d="M41.76-.748v.396l-1.854-.623v-.396z" /><rect width=".13" height="3.31" x="-.07" y="-2.5" ry=".04" transform="translate(54.631 1.639)" /><text font-size="1.85" text-anchor="start" transform="translate(8.525 -2.213)">
<tspan>Sol</tspan>
</text><text font-size="1.85" text-anchor="start" transform="translate(11.461 -2.213)">
<tspan>m</tspan>
</text><path d="M10.905 2.279c0 .044-.036.08-.08.08s-.08-.036-.08-.08V.999c0-.044.036-.08.08-.08s.08.036.08.08zm-2.668 0c0 .044-.036.08-.08.08s-.08-.036-.08-.08V.999c0-.044.036-.08.08-.08s.08.036.08.08zm1.256-1.184c.012 0 .836.008.968.452V.999c0-.044.036-.08.08-.08s.08.036.08.08v1.28c0 .044-.036.08-.08.08s-.08-.036-.08-.08V1.73c-.068.224-.424.452-.968.452-.012 0-.836-.008-.968-.452v.548c0 .044-.036.08-.08.08s-.08-.036-.08-.08V.999c0-.044.036-.08.08-.08s.08.036.08.08v.548c.068-.224.424-.452.968-.452m.408.648c0-.408-.36-.556-.536-.556-.092 0-.28.04-.28.356a.54.54 0 0 0 .532.544c.088 0 .284-.032.284-.344M1.864 5.179H1.84a.783.783 0 0 1-.78-.788c0-.232.212-.412.448-.412.216 0 .38.188.38.412 0 .208-.172.38-.38.38a.3.3 0 0 1-.124-.024c.104.156.272.26.468.26h.016zm.54-3.144c.076.356.192.968.24 1.416a.67.67 0 0 0 .448-.652.753.753 0 0 0-.688-.764m-1.308.492c0 .448.392.988 1.112.988q.127 0 .272-.024a17 17 0 0 0-.252-1.456c-.316.032-.496.244-.496.476 0 .176.1.364.324.492q.029.03.028.06c0 .044-.04.088-.088.088-.06 0-.504-.248-.504-.748 0-.352.232-.696.64-.788a15 15 0 0 0-.184-.7c-.428.484-.852.972-.852 1.612m1.132-4.664c.112 0 .572.824.572 1.444 0 .572-.344 1.02-.72 1.456.084.272.156.552.224.828q.031-.002.056-.004c.62 0 1.02.516 1.02 1.048 0 .452-.296.848-.72.98q.019.21.02.42-.001.116-.008.232c-.028.476-.352.9-.808.912l.004-.172c.372-.008.612-.368.636-.764q.007-.11.008-.22c0-.124-.004-.244-.016-.368q-.169.031-.32.032C1.22 3.687.808 2.819.808 2.19c0-.708.524-1.224.992-1.764-.116-.384-.208-.68-.208-1.384 0-.756.576-1.18.636-1.18M1.788-.49c0 .22.048.46.14.76.328-.4.588-.808.588-1.304 0-.16-.024-.328-.084-.508A1.13 1.13 0 0 0 1.788-.49M4.413 1.475l-.004.264v.044q-.001.132.016.264c.18-.152.372-.32.372-.556 0-.132-.056-.268-.172-.268-.124 0-.208.12-.212.252m-.168.716L4.197-.19c.032-.02.072-.032.108-.032s.076.012.108.032l-.028 1.38a.58.58 0 0 1 .364-.136c.208 0 .356.192.356.408 0 .32-.344.468-.588.676-.06.052-.096.152-.18.152-.052 0-.092-.044-.092-.1M5.333-.025l-.004.264v.044q-.001.132.016.264c.18-.152.372-.32.372-.556 0-.132-.056-.268-.172-.268-.124 0-.208.12-.212.252M5.165.69l-.048-2.38c.032-.02.072-.032.108-.032s.076.012.108.032L5.305-.31a.58.58 0 0 1 .364-.136c.208 0 .356.192.356.408 0 .32-.344.468-.588.676-.06.052-.096.152-.18.152-.052 0-.092-.044-.092-.1" /><text font-size="1.85" text-anchor="start" transform="translate(14.07 -2.213)">
<tspan>Do</tspan>
</text><text font-size="1.31" text-anchor="start" transform="translate(16.535 -3.054)">
<tspan>7</tspan>
</text><path d="M16.45 2.279c0 .044-.035.08-.08.08s-.08-.036-.08-.08V.999c0-.044.037-.08.08-.08s.08.036.08.08zm-2.667 0c0 .044-.036.08-.08.08s-.08-.036-.08-.08V.999c0-.044.036-.08.08-.08s.08.036.08.08zm1.256-1.184c.012 0 .836.008.968.452V.999c0-.044.036-.08.08-.08s.08.036.08.08v1.28c0 .044-.036.08-.08.08s-.08-.036-.08-.08V1.73c-.068.224-.424.452-.968.452-.012 0-.836-.008-.968-.452v.548c0 .044-.036.08-.08.08s-.08-.036-.08-.08V.999c0-.044.036-.08.08-.08s.08.036.08.08v.548c.068-.224.424-.452.968-.452m.408.648c0-.408-.36-.556-.536-.556-.092 0-.28.04-.28.356a.54.54 0 0 0 .532.544c.088 0 .284-.032.284-.344M19.554 1.323c0-.364.464-.728.868-.728.252 0 .436.14.436.36 0 .348-.44.728-.88.728-.268 0-.424-.156-.424-.36" /><rect width=".13" height="3.06" x="-.07" y="-3.75" ry=".04" transform="translate(20.791 1.639)" /><path d="M20.859-2.07v1.5h-.064v-1.5zM21.35.848c0-.04.168-.348.168-.784 0-.412-.376-.832-.66-1.132v-1c0 .788.828 1.344.828 2.132 0 .284-.06.564-.164.828a.1.1 0 0 1-.08.048.09.09 0 0 1-.092-.092" /><text font-size="1.85" text-anchor="start" transform="translate(22.12 -2.213)">
<tspan>Sol</tspan>
</text><text font-size="1.85" text-anchor="start" transform="translate(25.056 -2.213)">
<tspan>m</tspan>
</text><path d="M22.12 1.823c0-.364.463-.728.867-.728.252 0 .436.14.436.36 0 .348-.44.728-.88.728-.268 0-.424-.156-.424-.36" /><rect width=".13" height="3.15" x="-.07" y="-3.33" ry=".04" transform="translate(23.357 1.639)" /><text font-size="1.85" text-anchor="start" transform="translate(27.665 -2.213)">
<tspan>Sol</tspan>
</text><text font-size="1.85" text-anchor="start" transform="translate(30.601 -2.213)">
<tspan>m</tspan>
</text><path d="M30.045 2.279c0 .044-.036.08-.08.08s-.08-.036-.08-.08V.999c0-.044.036-.08.08-.08s.08.036.08.08zm-2.668 0c0 .044-.036.08-.08.08s-.08-.036-.08-.08V.999c0-.044.036-.08.08-.08s.08.036.08.08zm1.256-1.184c.012 0 .836.008.968.452V.999c0-.044.036-.08.08-.08s.08.036.08.08v1.28c0 .044-.036.08-.08.08s-.08-.036-.08-.08V1.73c-.068.224-.424.452-.968.452-.012 0-.836-.008-.968-.452v.548c0 .044-.036.08-.08.08s-.08-.036-.08-.08V.999c0-.044.036-.08.08-.08s.08.036.08.08v.548c.068-.224.424-.452.968-.452m.408.648c0-.408-.36-.556-.536-.556-.092 0-.28.04-.28.356a.54.54 0 0 0 .532.544c.088 0 .284-.032.284-.344" /><text font-size="1.85" text-anchor="start" transform="translate(33.21 -2.213)">
<tspan>Do</tspan>
</text><text font-size="1.31" text-anchor="start" transform="translate(35.675 -3.054)">
<tspan>7</tspan>
</text><path d="M35.59 2.279c0 .044-.035.08-.08.08s-.08-.036-.08-.08V.999c0-.044.037-.08.08-.08s.08.036.08.08zm-2.667 0c0 .044-.036.08-.08.08s-.08-.036-.08-.08V.999c0-.044.036-.08.08-.08s.08.036.08.08zm1.256-1.184c.012 0 .836.008.968.452V.999c0-.044.036-.08.08-.08s.08.036.08.08v1.28c0 .044-.036.08-.08.08s-.08-.036-.08-.08V1.73c-.068.224-.424.452-.968.452-.012 0-.836-.008-.968-.452v.548c0 .044-.036.08-.08.08s-.08-.036-.08-.08V.999c0-.044.036-.08.08-.08s.08.036.08.08v.548c.068-.224.424-.452.968-.452m.408.648c0-.408-.36-.556-.536-.556-.092 0-.28.04-.28.356a.54.54 0 0 0 .532.544c.088 0 .284-.032.284-.344M38.695 2.323c0-.364.463-.728.867-.728.253 0 .437.14.437.36 0 .348-.44.728-.88.728-.269 0-.425-.156-.425-.36" /><rect width=".13" height="3.1" x="-.07" y="-2.79" ry=".04" transform="translate(39.931 1.639)" /><path d="M40.499 3.323c0-.364.464-.728.868-.728.252 0 .436.14.436.36 0 .348-.44.728-.88.728-.268 0-.424-.156-.424-.36" /><rect width=".13" height="3.52" x="-.07" y="-2.21" ry=".04" transform="translate(41.736 1.639)" /><text font-size="1.85" text-anchor="start" transform="translate(42.303 -2.213)">
<tspan>Sol</tspan>
</text><text font-size="1.85" text-anchor="start" transform="translate(45.239 -2.213)">
<tspan>m</tspan>
</text><path d="M42.303 2.823c0-.364.464-.728.868-.728.252 0 .436.14.436.36 0 .348-.44.728-.88.728-.268 0-.424-.156-.424-.36" /><rect width=".13" height="3.31" x="-.07" y="-2.5" ry=".04" transform="translate(43.54 1.639)" /><text font-size="1.85" text-anchor="start" transform="translate(47.849 -2.213)">
<tspan>Sol</tspan>
</text><text font-size="1.85" text-anchor="start" transform="translate(50.785 -2.213)">
<tspan>m</tspan>
</text><path d="M50.229 2.279c0 .044-.036.08-.08.08s-.08-.036-.08-.08V.999c0-.044.036-.08.08-.08s.08.036.08.08zm-2.668 0c0 .044-.036.08-.08.08s-.08-.036-.08-.08V.999c0-.044.036-.08.08-.08s.08.036.08.08zm1.256-1.184c.012 0 .836.008.968.452V.999c0-.044.036-.08.08-.08s.08.036.08.08v1.28c0 .044-.036.08-.08.08s-.08-.036-.08-.08V1.73c-.068.224-.424.452-.968.452-.012 0-.836-.008-.968-.452v.548c0 .044-.036.08-.08.08s-.08-.036-.08-.08V.999c0-.044.036-.08.08-.08s.08.036.08.08v.548c.068-.224.424-.452.968-.452m.407.648c0-.408-.36-.556-.535-.556-.093 0-.28.04-.28.356a.54.54 0 0 0 .531.544c.089 0 .285-.032.285-.344" /><text color="rgba(100.0000%, 0.0000%, 0.0000%, 100.0000%)" font-size="3.3" font-weight="bold" text-anchor="start" transform="translate(45.173 5.92)">
<tspan>+</tspan>
</text><text font-size="1.85" text-anchor="start" transform="translate(53.394 -2.213)">
<tspan>Do</tspan>
</text><path d="M53.394 2.823c0-.364.464-.728.868-.728.252 0 .436.14.436.36 0 .348-.44.728-.88.728-.268 0-.424-.156-.424-.36" /><text font-size="2.2" text-anchor="start" transform="translate(5 5.8)">
<tspan>2B</tspan>
</text><rect width=".1" height="2.03" x="-.3" y="-1.73" ry="0" transform="translate(5 5.8)" /><rect width=".1" height="2.03" x="2.5" y="-1.73" ry="0" transform="translate(5 5.8)" /><rect width="2.91" height=".1" x="-.3" y=".2" ry="0" transform="translate(5 5.8)" /><rect width="2.91" height=".1" x="-.3" y="-1.73" ry="0" transform="translate(5 5.8)" /></svg>