<svg xmlns="http://www.w3.org/2000/svg" width="324.25" height="58.96" viewBox="0 -3.52 51.39 9.35" fill="currentColor" font-family="Linux Libertine"><style type="text/css">tspan{white-space:pre}</style><rect width=".2" height="4" x="0" y="-2" ry="0" transform="translate(21.495 1.245)" /><rect width=".62" height="4" x="0" y="-2" ry="0" transform="translate(50.767 1.245)" /><rect width=".2" height="4" x="0" y="-2" ry="0" transform="translate(50.26 1.245)" /><path stroke="currentColor" stroke-linecap="round" stroke-linejoin="round" stroke-width=".1" d="M.05 3.245h51.29M.05 2.245h51.29M.05 1.245h51.29M.05.245h51.29M.05-.755h51.29" /><rect width=".2" height="4" x="0" y="-2" ry="0" transform="translate(39.434 1.245)" /><rect width=".2" height="4" x="0" y="-2" ry="0" transform="translate(38.927 1.245)" /><text font-size="1.85" text-anchor="start" transform="translate(7.605 -2.273)">
<tspan>Fa</tspan>
</text><path d="M9.985 2.385c0 .044-.036.08-.08.08s-.08-.036-.08-.08v-1.28c0-.044.036-.08.08-.08s.08.036.08.08zm-2.668 0c0 .044-.036.08-.08.08s-.08-.036-.08-.08v-1.28c0-.044.036-.08.08-.08s.08.036.08.08zM8.573 1.2c.012 0 .836.008.968.452v-.548c0-.044.036-.08.08-.08s.08.036.08.08v1.28c0 .044-.036.08-.08.08s-.08-.036-.08-.08v-.548c-.068.224-.424.452-.968.452-.012 0-.836-.008-.968-.452v.548c0 .044-.036.08-.08.08s-.08-.036-.08-.08v-1.28c0-.044.036-.08.08-.08s.08.036.08.08v.548c.068-.224.424-.452.968-.452m.408.648c0-.408-.36-.556-.536-.556-.092 0-.28.04-.28.356a.54.54 0 0 0 .532.544c.088 0 .284-.032.284-.344M1.864 4.785H1.84a.783.783 0 0 1-.78-.788c0-.232.212-.412.448-.412.216 0 .38.188.38.412 0 .208-.172.38-.38.38a.3.3 0 0 1-.124-.024c.104.156.272.26.468.26h.016zm.54-3.144c.076.356.192.968.24 1.416a.67.67 0 0 0 .448-.652.753.753 0 0 0-.688-.764m-1.308.492c0 .448.392.988 1.112.988q.127 0 .272-.024a17 17 0 0 0-.252-1.456c-.316.032-.496.244-.496.476 0 .176.1.364.324.492q.029.03.028.06c0 .044-.04.088-.088.088-.06 0-.504-.248-.504-.748 0-.352.232-.696.64-.788a15 15 0 0 0-.184-.7c-.428.484-.852.972-.852 1.612m1.132-4.664c.112 0 .572.824.572 1.444 0 .572-.344 1.02-.72 1.456.084.272.156.552.224.828q.031-.002.056-.004c.62 0 1.02.516 1.02 1.048 0 .452-.296.848-.72.98q.019.21.02.42-.001.116-.008.232c-.028.476-.352.9-.808.912l.004-.172c.372-.008.612-.368.636-.764q.007-.11.008-.22.001-.184-.016-.368-.169.031-.32.032c-.956 0-1.368-.868-1.368-1.496 0-.708.524-1.224.992-1.764-.116-.384-.208-.68-.208-1.384 0-.756.576-1.18.636-1.18m-.44 1.648c0 .22.048.46.14.76.328-.4.588-.808.588-1.304 0-.16-.024-.328-.084-.508a1.13 1.13 0 0 0-.644 1.052M4.413 1.08l-.004.265v.044q-.001.132.016.264c.18-.152.372-.32.372-.556 0-.132-.056-.268-.172-.268-.124 0-.208.12-.212.252m-.168.717-.048-2.38c.032-.02.072-.032.108-.032s.076.012.108.032L4.385.797A.58.58 0 0 1 4.749.66c.208 0 .356.192.356.408 0 .32-.344.468-.588.676-.06.052-.096.152-.18.152-.052 0-.092-.044-.092-.1" /><text font-size="1.85" text-anchor="start" transform="translate(14.085 -2.273)">
<tspan>Do</tspan>
</text><path d="M14.085 2.429c0-.364.464-.728.868-.728.252 0 .436.14.436.36 0 .348-.44.728-.88.728-.268 0-.424-.156-.424-.36" /><rect width=".13" height="3.31" x="-.07" y="-2.5" ry=".04" transform="translate(15.322 1.245)" /><path d="M15.389-1.213v1.5h-.064v-1.5zm.492 2.916c0-.04.168-.348.168-.784 0-.412-.376-.832-.66-1.132v-1c0 .788.828 1.344.828 2.132 0 .284-.06.564-.164.828a.1.1 0 0 1-.08.048.09.09 0 0 1-.092-.092" /><text font-size="1.85" text-anchor="start" transform="translate(17.65 -2.273)">
<tspan>Ré</tspan>
</text><text font-size="1.85" text-anchor="start" transform="translate(20.19 -2.273)">
<tspan>m</tspan>
</text><path d="M17.65 2.929c0-.364.463-.728.867-.728.252 0 .436.14.436.36 0 .348-.44.728-.88.728-.268 0-.424-.156-.424-.36" /><rect width=".13" height="3.31" x="-.07" y="-2" ry=".04" transform="translate(18.886 1.245)" /><text font-size="1.85" text-anchor="start" transform="translate(22.8 -2.273)">
<tspan>Ré</tspan>
</text><text font-size="1.85" text-anchor="start" transform="translate(25.34 -2.273)">
<tspan>m</tspan>
</text><path d="M25.18 3.385c0 .044-.037.08-.08.08s-.08-.036-.08-.08v-1.28c0-.044.035-.08.08-.08s.08.036.08.08zm-2.669 0c0 .044-.036.08-.08.08s-.08-.036-.08-.08v-1.28c0-.044.036-.08.08-.08s.08.036.08.08zM23.767 2.2c.012 0 .836.008.968.452v-.548c0-.044.036-.08.08-.08s.08.036.08.08v1.28c0 .044-.036.08-.08.08s-.08-.036-.08-.08v-.548c-.068.224-.424.452-.968.452-.012 0-.836-.008-.968-.452v.548c0 .044-.036.08-.08.08s-.08-.036-.08-.08v-1.28c0-.044.036-.08.08-.08s.08.036.08.08v.548c.068-.224.424-.452.968-.452m.408.648c0-.408-.36-.556-.536-.556-.092 0-.28.04-.28.356a.54.54 0 0 0 .532.544c.088 0 .284-.032.284-.344" /><text font-size="1.85" text-anchor="start" transform="translate(29.28 -2.273)">
<tspan>Do</tspan>
</text><path d="M31.66 2.885c0 .044-.037.08-.08.08s-.08-.036-.08-.08v-1.28c0-.044.035-.08.08-.08s.08.036.08.08zm-2.669 0c0 .044-.036.08-.08.08s-.08-.036-.08-.08v-1.28c0-.044.036-.08.08-.08s.08.036.08.08zM30.247 1.7c.012 0 .836.008.968.452v-.548c0-.044.036-.08.08-.08s.08.036.08.08v1.28c0 .044-.036.08-.08.08s-.08-.036-.08-.08v-.548c-.068.224-.424.452-.968.452-.012 0-.836-.008-.968-.452v.548c0 .044-.036.08-.08.08s-.08-.036-.08-.08v-1.28c0-.044.036-.08.08-.08s.08.036.08.08v.548c.068-.224.424-.452.968-.452m.408.648c0-.408-.36-.556-.536-.556-.092 0-.28.04-.28.356a.54.54 0 0 0 .532.544c.088 0 .284-.032.284-.344" /><text font-size="1.85" text-anchor="start" transform="translate(35.759 -2.273)">
<tspan>Fa</tspan>
</text><path d="M35.759 1.929c0-.364.464-.728.868-.728.252 0 .436.14.436.36 0 .348-.44.728-.88.728-.268 0-.424-.156-.424-.36" /><rect width=".13" height="3.31" x="-.07" y="-3" ry=".04" transform="translate(36.996 1.245)" /><text font-size="1.85" text-anchor="start" transform="translate(40.577 -2.273)">
<tspan>Fa</tspan>
</text><path d="M42.957 2.385c0 .044-.036.08-.08.08s-.08-.036-.08-.08v-1.28c0-.044.036-.08.08-.08s.08.036.08.08zm-2.668 0c0 .044-.036.08-.08.08s-.08-.036-.08-.08v-1.28c0-.044.036-.08.08-.08s.08.036.08.08zM41.544 1.2c.013 0 .837.008.969.452v-.548c0-.044.036-.08.08-.08s.08.036.08.08v1.28c0 .044-.037.08-.08.08s-.08-.036-.08-.08v-.548c-.068.224-.424.452-.968.452-.013 0-.837-.008-.969-.452v.548c0 .044-.036.08-.08.08s-.08-.036-.08-.08v-1.28c0-.044.037-.08.08-.08s.08.036.08.08v.548c.068-.224.424-.452.968-.452m.409.648c0-.408-.36-.556-.537-.556-.091 0-.28.04-.28.356a.54.54 0 0 0 .532.544c.088 0 .284-.032.284-.344" /><text font-size="2.2" text-anchor="start" transform="translate(4 5.5)">
<tspan>6L</tspan>
</text><rect width=".1" height="2.06" x="-.3" y="-1.73" ry="0" transform="translate(4 5.5)" /><rect width=".1" height="2.06" x="2.36" y="-1.73" ry="0" transform="translate(4 5.5)" /><rect width="2.76" height=".1" x="-.3" y=".22" ry="0" transform="translate(4 5.5)" /><rect width="2.76" height=".1" x="-.3" y="-1.73" ry="0" transform="translate(4 5.5)" /><text color="rgba(100.0000%, 0.0000%, 0.0000%, 100.0000%)" font-size="3.3" font-weight="bold" text-anchor="start" transform="translate(38.398 5.526)">
<tspan>+</tspan>
</text><text font-size="1.85" text-anchor="start" transform="translate(47.056 -2.273)">
<tspan>Do</tspan>
</text><path d="M47.056 2.429c0-.364.464-.728.868-.728.252 0 .436.14.436.36 0 .348-.44.728-.88.728-.268 0-.424-.156-.424-.36" /><rect width=".13" height="3.31" x="-.07" y="-2.5" ry=".04" transform="translate(48.293 1.245)" /></svg>