<svg xmlns="http://www.w3.org/2000/svg" width="292.76" height="51.51" viewBox="0 -2.66 46.4 8.16" fill="currentColor" font-family="Linux Libertine"><style type="text/css">tspan{white-space:pre}</style><rect width=".2" height="4" x="0" y="-2" ry="0" transform="translate(27.355 1.953)" /><rect width=".62" height="4" x="0" y="-2" ry="0" transform="translate(45.78 1.953)" /><rect width=".2" height="4" x="0" y="-2" ry="0" transform="translate(45.274 1.953)" /><path stroke="currentColor" stroke-linecap="round" stroke-linejoin="round" stroke-width=".1" d="M.05 3.953h46.3M.05 2.953h46.3M.05 1.953h46.3M.05.953h46.3M.05-.047h46.3" /><path stroke="currentColor" stroke-linecap="round" stroke-linejoin="round" stroke-width=".08" d="M40.091.944v.396l-2.555-.189V.756zM18.733-.244V.15L16.18.34v-.396z" /><text font-size="1.85" text-anchor="start" transform="translate(7.785 -.708)">
<tspan>Mi</tspan>
</text><text font-size="1.85" text-anchor="start" transform="translate(10.505 -.708)">
<tspan>m</tspan>
</text><path d="M10.165 4.593c0 .044-.036.08-.08.08s-.08-.036-.08-.08v-1.28c0-.044.036-.08.08-.08s.08.036.08.08zm-2.668 0c0 .044-.036.08-.08.08s-.08-.036-.08-.08v-1.28c0-.044.036-.08.08-.08s.08.036.08.08zM8.753 3.41c.012 0 .836.008.968.452v-.548c0-.044.036-.08.08-.08s.08.036.08.08v1.28c0 .044-.036.08-.08.08s-.08-.036-.08-.08v-.548c-.068.224-.424.452-.968.452-.012 0-.836-.008-.968-.452v.548c0 .044-.036.08-.08.08s-.08-.036-.08-.08v-1.28c0-.044.036-.08.08-.08s.08.036.08.08v.548c.068-.224.424-.452.968-.452m.408.648c0-.408-.36-.556-.536-.556-.092 0-.28.04-.28.356a.54.54 0 0 0 .532.544c.088 0 .284-.032.284-.344M1.864 5.493H1.84a.783.783 0 0 1-.78-.788c0-.232.212-.412.448-.412.216 0 .38.188.38.412 0 .208-.172.38-.38.38a.3.3 0 0 1-.124-.024c.104.156.272.26.468.26h.016zm.54-3.144c.076.356.192.968.24 1.416a.67.67 0 0 0 .448-.652.753.753 0 0 0-.688-.764m-1.308.492c0 .448.392.988 1.112.988q.127 0 .272-.024a17 17 0 0 0-.252-1.456c-.316.032-.496.244-.496.476 0 .176.1.364.324.492q.029.03.028.06c0 .044-.04.088-.088.088-.06 0-.504-.248-.504-.748 0-.352.232-.696.64-.788a15 15 0 0 0-.184-.7c-.428.484-.852.972-.852 1.612m1.132-4.664c.112 0 .572.824.572 1.444 0 .572-.344 1.02-.72 1.456.084.272.156.552.224.828q.031-.002.056-.004c.62 0 1.02.516 1.02 1.048 0 .452-.296.848-.72.98q.019.21.02.42-.001.116-.008.232c-.028.476-.352.9-.808.912l.004-.172c.372-.008.612-.368.636-.764a3.775 3.775 0 0 0-.008-.588q-.169.031-.32.032c-.956 0-1.368-.868-1.368-1.496 0-.708.524-1.224.992-1.764-.116-.384-.208-.68-.208-1.384 0-.756.576-1.18.636-1.18m-.44 1.648c0 .22.048.46.14.76.328-.4.588-.808.588-1.304 0-.16-.024-.328-.084-.508a1.13 1.13 0 0 0-.644 1.052M4.185-.523c0-.032.02-.06.052-.072l.184-.068v-.632c0-.04.032-.076.072-.076s.076.036.076.076v.58l.332-.124v-.632c0-.04.036-.076.076-.076s.072.036.072.076v.58l.128-.048q.014-.005.028-.004a.08.08 0 0 1 .08.08v.24c0 .032-.02.064-.052.076l-.184.064v.64l.128-.044q.014-.005.028-.004a.08.08 0 0 1 .08.08v.24c0 .032-.02.06-.052.072L5.049.57v.632c0 .04-.032.076-.072.076s-.076-.036-.076-.076v-.58l-.332.124v.632c0 .04-.036.076-.076.076s-.072-.036-.072-.076v-.58l-.128.048Q4.279.85 4.265.85a.08.08 0 0 1-.08-.08V.53c0-.032.02-.064.052-.076L4.421.39v-.64l-.128.044q-.014.005-.028.004a.08.08 0 0 1-.08-.08zm.716.096-.332.12v.64l.332-.12zM14.967 3.637c0-.364.464-.728.868-.728.252 0 .436.14.436.36 0 .348-.44.728-.88.728-.268 0-.424-.156-.424-.36" /><rect width=".13" height="3.13" x="-.07" y="-1.82" ry=".04" transform="translate(16.204 1.953)" /><path d="M17.471 3.137c0-.364.464-.728.868-.728.252 0 .436.14.436.36 0 .348-.44.728-.88.728-.268 0-.424-.156-.424-.36" /><rect width=".13" height="2.81" x="-.07" y="-2" ry=".04" transform="translate(18.708 1.953)" /><text font-size="1.85" text-anchor="start" transform="translate(19.975 -.708)">
<tspan>La</tspan>
</text><text font-size="1.85" text-anchor="start" transform="translate(22.408 -.708)">
<tspan>m</tspan>
</text><path d="M23.918-2.097c0-.03.019-.06.046-.07l.063-.027v-.302c0-.03.023-.055.052-.055s.055.025.055.055v.26l.145-.06v-.305c0-.03.025-.053.054-.053s.053.023.053.053v.26q.022-.008.038-.006c.046 0 .071.042.071.073v.088c0 .03-.019.06-.046.07l-.063.025v.302a.1.1 0 0 1 .038-.008c.046 0 .071.044.071.076v.086c0 .03-.019.059-.046.069l-.063.027v.303c0 .03-.023.054-.052.054s-.055-.025-.055-.054v-.26l-.145.06v.305c0 .03-.025.052-.055.052s-.052-.023-.052-.052v-.26q-.022.008-.038.006c-.046 0-.071-.042-.071-.074v-.088c0-.03.019-.059.046-.07l.063-.025v-.302a.1.1 0 0 1-.038.008c-.046 0-.071-.044-.071-.075zm.36.05-.144.059v.302l.145-.059z" /><text font-size="1.31" text-anchor="start" transform="translate(24.5 -1.548)">
<tspan>6</tspan>
</text><text font-size="1.85" text-anchor="start" transform="translate(25.111 -.708)">
<tspan>/</tspan>
</text><text font-size="1.85" text-anchor="start" transform="translate(25.722 -.708)">
<tspan>Mi</tspan>
</text><path d="M19.975 3.637c0-.364.464-.728.868-.728.252 0 .436.14.436.36 0 .348-.44.728-.88.728-.268 0-.424-.156-.424-.36" /><rect width=".13" height="3.31" x="-.07" y="-2" ry=".04" transform="translate(21.212 1.953)" /><text font-size="1.85" text-anchor="start" transform="translate(29.143 -.708)">
<tspan>Ré</tspan>
</text><text font-size="1.31" text-anchor="start" transform="translate(31.284 -1.548)">
<tspan>7</tspan>
</text><path d="M31.523 4.093c0 .044-.036.08-.08.08s-.08-.036-.08-.08v-1.28c0-.044.036-.08.08-.08s.08.036.08.08zm-2.668 0c0 .044-.036.08-.08.08s-.08-.036-.08-.08v-1.28c0-.044.036-.08.08-.08s.08.036.08.08zM30.11 2.91c.012 0 .836.008.968.452v-.548c0-.044.036-.08.08-.08s.08.036.08.08v1.28c0 .044-.036.08-.08.08s-.08-.036-.08-.08v-.548c-.068.224-.424.452-.968.452-.012 0-.836-.008-.968-.452v.548c0 .044-.036.08-.08.08s-.08-.036-.08-.08v-1.28c0-.044.036-.08.08-.08s.08.036.08.08v.548c.068-.224.424-.452.968-.452m.408.648c0-.408-.36-.556-.536-.556-.092 0-.28.04-.28.356a.54.54 0 0 0 .532.544c.088 0 .284-.032.284-.344" /><g color="rgba(100.0000%, 0.0000%, 0.0000%, 100.0000%)"><rect width="-.1" height="-.61" x=".3" y=".3" ry="0" transform="translate(3 -1.3)" /><rect width="-.1" height="-.61" x="-.2" y=".3" ry="0" transform="translate(3 -1.3)" /><rect width="-.61" height="-.1" x=".3" y="-.2" ry="0" transform="translate(3 -1.3)" /><rect width="-.61" height="-.1" x=".3" y=".3" ry="0" transform="translate(3 -1.3)" /></g><text font-size="1.85" text-anchor="start" transform="translate(36.325 -.708)">
<tspan>Si</tspan>
</text><text font-size="1.85" text-anchor="start" transform="translate(38.326 -.708)">
<tspan>m</tspan>
</text><path d="M36.325 4.137c0-.364.464-.728.868-.728.252 0 .436.14.436.36 0 .348-.44.728-.88.728-.268 0-.424-.156-.424-.36" /><rect width=".13" height="2.81" x="-.07" y="-1" ry=".04" transform="translate(37.562 1.953)" /><path d="M38.829 4.637c0-.364.464-.728.868-.728.252 0 .436.14.436.36 0 .348-.44.728-.88.728-.268 0-.424-.156-.424-.36" /><rect width=".13" height="3.13" x="-.07" y="-.82" ry=".04" transform="translate(40.066 1.953)" /><text font-size="1.85" text-anchor="start" transform="translate(41.333 -.708)">
<tspan>Mi</tspan>
</text><text font-size="1.85" text-anchor="start" transform="translate(44.054 -.708)">
<tspan>m</tspan>
</text><path d="M41.333 4.137c0-.364.464-.728.868-.728.252 0 .436.14.436.36 0 .348-.44.728-.88.728-.268 0-.424-.156-.424-.36" /><rect width=".13" height="3.31" x="-.07" y="-1.5" ry=".04" transform="translate(42.57 1.953)" /></svg>