<svg xmlns="http://www.w3.org/2000/svg" width="358.79" height="53.82" viewBox="0 -3.01 56.86 8.53" fill="currentColor" font-family="Linux Libertine"><style type="text/css">tspan{white-space:pre}</style><rect width=".2" height="4" x="0" y="-2" ry="0" transform="translate(22.671 1.225)" /><rect width=".62" height="4" x="0" y="-2" ry="0" transform="translate(56.24 1.225)" /><rect width=".2" height="4" x="0" y="-2" ry="0" transform="translate(55.733 1.225)" /><path stroke="currentColor" stroke-linecap="round" stroke-linejoin="round" stroke-width=".1" d="M.05 3.225h56.76M.05 2.225h56.76M.05 1.225h56.76M.05.225h56.76M.05-.775h56.76" /><rect width=".2" height="4" x="0" y="-2" ry="0" transform="translate(44.875 1.225)" /><rect width=".2" height="4" x="0" y="-2" ry="0" transform="translate(44.368 1.225)" /><path stroke="currentColor" stroke-linecap="round" stroke-linejoin="round" stroke-width=".08" d="M40.416-.973v.396L38.26-.765v-.396z" /><text font-size="1.85" text-anchor="start" transform="translate(5.8 -1.78)">
<tspan>La</tspan>
</text><text font-size="1.85" text-anchor="start" transform="translate(8.233 -1.78)">
<tspan>m</tspan>
</text><path d="M8.18 2.365c0 .044-.036.08-.08.08s-.08-.036-.08-.08v-1.28c0-.044.036-.08.08-.08s.08.036.08.08zm-2.668 0c0 .044-.036.08-.08.08s-.08-.036-.08-.08v-1.28c0-.044.036-.08.08-.08s.08.036.08.08zm1.256-1.184c.012 0 .836.008.968.452v-.548c0-.044.036-.08.08-.08s.08.036.08.08v1.28c0 .044-.036.08-.08.08s-.08-.036-.08-.08v-.548c-.068.224-.424.452-.968.452-.012 0-.836-.008-.968-.452v.548c0 .044-.036.08-.08.08s-.08-.036-.08-.08v-1.28c0-.044.036-.08.08-.08s.08.036.08.08v.548c.068-.224.424-.452.968-.452m.408.648c0-.408-.36-.556-.536-.556-.092 0-.28.04-.28.356a.54.54 0 0 0 .532.544c.088 0 .284-.032.284-.344M1.864 4.765H1.84a.783.783 0 0 1-.78-.788c0-.232.212-.412.448-.412.216 0 .38.188.38.412 0 .208-.172.38-.38.38a.3.3 0 0 1-.124-.024c.104.156.272.26.468.26h.016zm.54-3.144c.076.356.192.968.24 1.416a.67.67 0 0 0 .448-.652.753.753 0 0 0-.688-.764m-1.308.492c0 .448.392.988 1.112.988q.127 0 .272-.024a17 17 0 0 0-.252-1.456c-.316.032-.496.244-.496.476 0 .176.1.364.324.492q.029.03.028.06c0 .044-.04.088-.088.088-.06 0-.504-.248-.504-.748 0-.352.232-.696.64-.788a15 15 0 0 0-.184-.7c-.428.484-.852.972-.852 1.612M2.228-2.55c.112 0 .572.824.572 1.444 0 .572-.344 1.02-.72 1.456.084.272.156.552.224.828q.031-.002.056-.004c.62 0 1.02.516 1.02 1.048 0 .452-.296.848-.72.98q.019.21.02.42-.001.116-.008.232c-.028.476-.352.9-.808.912l.004-.172c.372-.008.612-.368.636-.764q.007-.11.008-.22.001-.184-.016-.368-.169.031-.32.032c-.956 0-1.368-.868-1.368-1.496 0-.708.524-1.224.992-1.764-.116-.384-.208-.68-.208-1.384 0-.756.576-1.18.636-1.18m-.44 1.648c0 .22.048.46.14.76.328-.4.588-.808.588-1.304 0-.16-.024-.328-.084-.508a1.13 1.13 0 0 0-.644 1.052M14.66 1.365c0 .044-.036.08-.08.08s-.08-.036-.08-.08V.085c0-.044.036-.08.08-.08s.08.036.08.08zm-2.668 0c0 .044-.036.08-.08.08s-.08-.036-.08-.08V.085c0-.044.036-.08.08-.08s.08.036.08.08zM13.248.181c.012 0 .836.008.968.452V.085c0-.044.036-.08.08-.08s.08.036.08.08v1.28c0 .044-.036.08-.08.08s-.08-.036-.08-.08V.817c-.068.224-.424.452-.968.452-.012 0-.836-.008-.968-.452v.548c0 .044-.036.08-.08.08s-.08-.036-.08-.08V.085c0-.044.036-.08.08-.08s.08.036.08.08v.548c.068-.224.424-.452.968-.452m.408.648c0-.408-.36-.556-.536-.556-.092 0-.28.04-.28.356a.54.54 0 0 0 .532.544c.088 0 .284-.032.284-.344" /><text font-size="1.85" text-anchor="start" transform="translate(18.76 -1.78)">
<tspan>Mi</tspan>
</text><text font-size="1.85" text-anchor="start" transform="translate(21.48 -1.78)">
<tspan>m</tspan>
</text><path d="M18.76 1.41c0-.365.464-.729.868-.729.252 0 .436.14.436.36 0 .348-.44.728-.88.728-.268 0-.424-.156-.424-.36" /><rect width=".13" height="3.15" x="-.07" y=".19" ry=".04" transform="translate(18.827 1.225)" /><text font-size="1.85" text-anchor="start" transform="translate(24.09 -1.78)">
<tspan>Fa</tspan>
</text><path d="M26.47 2.365c0 .044-.036.08-.08.08s-.08-.036-.08-.08v-1.28c0-.044.036-.08.08-.08s.08.036.08.08zm-2.668 0c0 .044-.036.08-.08.08s-.08-.036-.08-.08v-1.28c0-.044.036-.08.08-.08s.08.036.08.08zm1.256-1.184c.012 0 .836.008.968.452v-.548c0-.044.036-.08.08-.08s.08.036.08.08v1.28c0 .044-.036.08-.08.08s-.08-.036-.08-.08v-.548c-.068.224-.424.452-.968.452-.012 0-.836-.008-.968-.452v.548c0 .044-.036.08-.08.08s-.08-.036-.08-.08v-1.28c0-.044.036-.08.08-.08s.08.036.08.08v.548c.068-.224.424-.452.968-.452m.408.648c0-.408-.36-.556-.536-.556-.092 0-.28.04-.28.356a.54.54 0 0 0 .532.544c.088 0 .284-.032.284-.344" /><text font-size="1.85" text-anchor="start" transform="translate(30.57 -1.78)">
<tspan>Mi</tspan>
</text><text font-size="1.85" text-anchor="start" transform="translate(33.29 -1.78)">
<tspan>m</tspan>
</text><path d="M32.95 2.865c0 .044-.037.08-.08.08s-.08-.036-.08-.08v-1.28c0-.044.036-.08.08-.08s.08.036.08.08zm-2.669 0c0 .044-.035.08-.08.08s-.08-.036-.08-.08v-1.28c0-.044.037-.08.08-.08s.08.036.08.08zm1.257-1.184c.012 0 .836.008.968.452v-.548c0-.044.035-.08.08-.08s.08.036.08.08v1.28c0 .044-.037.08-.08.08s-.08-.036-.08-.08v-.548c-.069.224-.425.452-.969.452-.012 0-.836-.008-.968-.452v.548c0 .044-.036.08-.08.08s-.08-.036-.08-.08v-1.28c0-.044.037-.08.08-.08s.08.036.08.08v.548c.068-.224.424-.452.968-.452m.408.648c0-.408-.36-.556-.536-.556-.092 0-.28.04-.28.356a.54.54 0 0 0 .532.544c.088 0 .284-.032.284-.344M37.05 1.91c0-.365.463-.729.867-.729.252 0 .436.14.436.36 0 .348-.44.728-.88.728-.268 0-.424-.156-.424-.36" /><rect width=".13" height="2.5" x="-.07" y="-2.18" ry=".04" transform="translate(38.286 1.225)" /><path d="M39.154 2.41c0-.365.464-.729.868-.729.252 0 .436.14.436.36 0 .348-.44.728-.88.728-.268 0-.424-.156-.424-.36" /><rect width=".13" height="2.82" x="-.07" y="-2.01" ry=".04" transform="translate(40.39 1.225)" /><text font-size="1.85" text-anchor="start" transform="translate(41.008 -1.78)">
<tspan>La</tspan>
</text><text font-size="1.85" text-anchor="start" transform="translate(43.44 -1.78)">
<tspan>m</tspan>
</text><path d="M41.008 3.41c0-.365.464-.729.868-.729.252 0 .436.14.436.36 0 .348-.44.728-.88.728-.268 0-.424-.156-.424-.36" /><rect width=".13" height="3.31" x="-.07" y="-1.5" ry=".04" transform="translate(42.245 1.225)" /><text font-size="1.85" text-anchor="start" transform="translate(46.05 -1.78)">
<tspan>La</tspan>
</text><text font-size="1.85" text-anchor="start" transform="translate(48.483 -1.78)">
<tspan>m</tspan>
</text><path d="M48.43 2.365c0 .044-.036.08-.08.08s-.08-.036-.08-.08v-1.28c0-.044.036-.08.08-.08s.08.036.08.08zm-2.668 0c0 .044-.036.08-.08.08s-.08-.036-.08-.08v-1.28c0-.044.036-.08.08-.08s.08.036.08.08zm1.256-1.184c.012 0 .836.008.968.452v-.548c0-.044.036-.08.08-.08s.08.036.08.08v1.28c0 .044-.036.08-.08.08s-.08-.036-.08-.08v-.548c-.068.224-.424.452-.968.452-.012 0-.836-.008-.968-.452v.548c0 .044-.036.08-.08.08s-.08-.036-.08-.08v-1.28c0-.044.036-.08.08-.08s.08.036.08.08v.548c.068-.224.424-.452.968-.452m.408.648c0-.408-.36-.556-.536-.556-.092 0-.28.04-.28.356a.54.54 0 0 0 .532.544c.088 0 .284-.032.284-.344" /><text font-size="2.2" text-anchor="start" transform="translate(4 5.2)">
<tspan>3H</tspan>
</text><rect width=".1" height="2.05" x="-.3" y="-1.73" ry="0" transform="translate(4 5.2)" /><rect width=".1" height="2.05" x="2.82" y="-1.73" ry="0" transform="translate(4 5.2)" /><rect width="3.23" height=".1" x="-.3" y=".22" ry="0" transform="translate(4 5.2)" /><rect width="3.23" height=".1" x="-.3" y="-1.73" ry="0" transform="translate(4 5.2)" /><text color="rgba(100.0000%, 0.0000%, 0.0000%, 100.0000%)" font-size="3.3" font-weight="bold" text-anchor="start" transform="translate(43.84 5.506)">
<tspan>+</tspan>
</text><text font-size="1.85" text-anchor="start" transform="translate(52.53 -1.78)">
<tspan>Mi</tspan>
</text><text font-size="1.85" text-anchor="start" transform="translate(55.25 -1.78)">
<tspan>m</tspan>
</text><path d="M52.53 2.41c0-.365.464-.729.868-.729.252 0 .436.14.436.36 0 .348-.44.728-.88.728-.268 0-.424-.156-.424-.36" /><rect width=".13" height="3.31" x="-.07" y="-2.5" ry=".04" transform="translate(53.767 1.225)" /></svg>