<svg xmlns="http://www.w3.org/2000/svg" width="423.65" height="59.41" viewBox="0 -4.23 67.14 9.42" fill="currentColor" font-family="Linux Libertine"><style type="text/css">tspan{white-space:pre}</style><rect width=".2" height="4" x="0" y="-2" ry="0" transform="translate(31.265 1.64)" /><rect width=".62" height="4" x="0" y="-2" ry="0" transform="translate(66.522 1.64)" /><rect width=".2" height="4" x="0" y="-2" ry="0" transform="translate(66.015 1.64)" /><path stroke="currentColor" stroke-linecap="round" stroke-linejoin="round" stroke-width=".1" d="M.05 3.64h67.04M.05 2.64h67.04M.05 1.64h67.04M.05.64h67.04M.05-.36h67.04" /><rect width=".2" height="4" x="0" y="-2" ry="0" transform="translate(53.82 1.64)" /><rect width=".2" height="4" x="0" y="-2" ry="0" transform="translate(53.314 1.64)" /><rect width=".13" height="3.31" x="-.07" y="-3" ry=".04" transform="translate(63.383 1.64)" /><path stroke="currentColor" stroke-linecap="round" stroke-linejoin="round" stroke-width=".08" d="M25.915-1.37v.396l-2.555-.188v-.396z" /><text font-size="1.85" text-anchor="start" transform="translate(7.785 -2.37)">
<tspan>Mi</tspan>
</text><text font-size="1.85" text-anchor="start" transform="translate(10.505 -2.37)">
<tspan>m</tspan>
</text><path d="M10.165 2.28c0 .044-.036.08-.08.08s-.08-.036-.08-.08V1c0-.044.036-.08.08-.08s.08.036.08.08zm-2.668 0c0 .044-.036.08-.08.08s-.08-.036-.08-.08V1c0-.044.036-.08.08-.08s.08.036.08.08zm1.256-1.184c.012 0 .836.008.968.452V1c0-.044.036-.08.08-.08s.08.036.08.08v1.28c0 .044-.036.08-.08.08s-.08-.036-.08-.08v-.548c-.068.224-.424.452-.968.452-.012 0-.836-.008-.968-.452v.548c0 .044-.036.08-.08.08s-.08-.036-.08-.08V1c0-.044.036-.08.08-.08s.08.036.08.08v.548c.068-.224.424-.452.968-.452m.408.648c0-.408-.36-.556-.536-.556-.092 0-.28.04-.28.356a.54.54 0 0 0 .532.544c.088 0 .284-.032.284-.344M1.864 5.18H1.84a.783.783 0 0 1-.78-.788c0-.232.212-.412.448-.412.216 0 .38.188.38.412 0 .208-.172.38-.38.38a.3.3 0 0 1-.124-.024c.104.156.272.26.468.26h.016zm.54-3.144c.076.356.192.968.24 1.416a.67.67 0 0 0 .448-.652.753.753 0 0 0-.688-.764m-1.308.492c0 .448.392.988 1.112.988q.127 0 .272-.024a17 17 0 0 0-.252-1.456c-.316.032-.496.244-.496.476 0 .176.1.364.324.492q.029.03.028.06c0 .044-.04.088-.088.088-.06 0-.504-.248-.504-.748 0-.352.232-.696.64-.788a15 15 0 0 0-.184-.7c-.428.484-.852.972-.852 1.612m1.132-4.664c.112 0 .572.824.572 1.444 0 .572-.344 1.02-.72 1.456.084.272.156.552.224.828.02 0 .04-.004.056-.004.62 0 1.02.516 1.02 1.048 0 .452-.296.848-.72.98q.019.21.02.42-.001.116-.008.232c-.028.476-.352.9-.808.912l.004-.172c.372-.008.612-.368.636-.764q.007-.11.008-.22c0-.124-.004-.244-.016-.368q-.169.031-.32.032C1.22 3.688.808 2.82.808 2.192c0-.708.524-1.224.992-1.764-.116-.384-.208-.68-.208-1.384 0-.756.576-1.18.636-1.18m-.44 1.648c0 .22.048.46.14.76.328-.4.588-.808.588-1.304 0-.16-.024-.328-.084-.508a1.13 1.13 0 0 0-.644 1.052M4.185-.836c0-.032.02-.06.052-.072l.184-.068v-.632c0-.04.032-.076.072-.076s.076.036.076.076v.58l.332-.124v-.632c0-.04.036-.076.076-.076s.072.036.072.076v.58l.128-.048q.014-.005.028-.004a.08.08 0 0 1 .08.08v.24c0 .032-.02.064-.052.076l-.184.064v.64L5.177-.2q.014-.005.028-.004a.08.08 0 0 1 .08.08v.24c0 .032-.02.06-.052.072l-.184.068v.632c0 .04-.032.076-.072.076S4.901.928 4.901.888v-.58l-.332.124v.632c0 .04-.036.076-.076.076s-.072-.036-.072-.076v-.58l-.128.048q-.014.005-.028.004a.08.08 0 0 1-.08-.08v-.24c0-.032.02-.064.052-.076l.184-.064v-.64l-.128.044q-.014.005-.028.004a.08.08 0 0 1-.08-.08zm.716.096-.332.12v.64l.332-.12z" /><text font-size="1.85" text-anchor="start" transform="translate(14.967 -2.37)">
<tspan>La</tspan>
</text><text font-size="1.85" text-anchor="start" transform="translate(17.4 -2.37)">
<tspan>m</tspan>
</text><text font-size="1.31" text-anchor="start" transform="translate(18.91 -3.211)">
<tspan>6</tspan>
</text><path d="M17.347 1.78c0 .044-.036.08-.08.08s-.08-.036-.08-.08V.5c0-.044.036-.08.08-.08s.08.036.08.08zm-2.668 0c0 .044-.036.08-.08.08s-.08-.036-.08-.08V.5c0-.044.036-.08.08-.08s.08.036.08.08zM15.935.596c.012 0 .836.008.968.452V.5c0-.044.036-.08.08-.08s.08.036.08.08v1.28c0 .044-.036.08-.08.08s-.08-.036-.08-.08v-.548c-.068.224-.424.452-.968.452-.012 0-.836-.008-.968-.452v.548c0 .044-.036.08-.08.08s-.08-.036-.08-.08V.5c0-.044.036-.08.08-.08s.08.036.08.08v.548c.068-.224.424-.452.968-.452m.408.648c0-.408-.36-.556-.536-.556-.092 0-.28.04-.28.356a.54.54 0 0 0 .532.544c.088 0 .284-.032.284-.344M22.149 1.824c0-.364.464-.728.868-.728.252 0 .436.14.436.36 0 .348-.44.728-.88.728-.268 0-.424-.156-.424-.36" /><rect width=".13" height="2.81" x="-.07" y="-3" ry=".04" transform="translate(23.386 1.64)" /><path d="M24.653 2.324c0-.364.464-.728.868-.728.252 0 .436.14.436.36 0 .348-.44.728-.88.728-.268 0-.424-.156-.424-.36" /><rect width=".13" height="3.13" x="-.07" y="-2.82" ry=".04" transform="translate(25.89 1.64)" /><text font-size="1.85" text-anchor="start" transform="translate(27.175 -2.37)">
<tspan>Mi</tspan>
</text><text font-size="1.85" text-anchor="start" transform="translate(29.896 -2.37)">
<tspan>m</tspan>
</text><path d="M27.175 1.824c0-.364.464-.728.868-.728.252 0 .436.14.436.36 0 .348-.44.728-.88.728-.268 0-.424-.156-.424-.36" /><rect width=".13" height="3.15" x="-.07" y=".19" ry=".04" transform="translate(27.242 1.64)" /><text font-size="1.85" text-anchor="start" transform="translate(32.505 -2.37)">
<tspan>Mi</tspan>
</text><text font-size="1.85" text-anchor="start" transform="translate(35.226 -2.37)">
<tspan>m</tspan>
</text><path d="M34.885 2.28c0 .044-.036.08-.08.08s-.08-.036-.08-.08V1c0-.044.036-.08.08-.08s.08.036.08.08zm-2.668 0c0 .044-.036.08-.08.08s-.08-.036-.08-.08V1c0-.044.036-.08.08-.08s.08.036.08.08zm1.256-1.184c.012 0 .836.008.968.452V1c0-.044.036-.08.08-.08s.08.036.08.08v1.28c0 .044-.036.08-.08.08s-.08-.036-.08-.08v-.548c-.068.224-.424.452-.968.452-.012 0-.836-.008-.968-.452v.548c0 .044-.036.08-.08.08s-.08-.036-.08-.08V1c0-.044.036-.08.08-.08s.08.036.08.08v.548c.068-.224.424-.452.968-.452m.408.648c0-.408-.36-.556-.536-.556-.092 0-.28.04-.28.356a.54.54 0 0 0 .532.544c.088 0 .284-.032.284-.344" /><text font-size="1.85" text-anchor="start" transform="translate(39.687 -2.37)">
<tspan>La</tspan>
</text><text font-size="1.85" text-anchor="start" transform="translate(42.12 -2.37)">
<tspan>m</tspan>
</text><path d="M42.067 2.78c0 .044-.036.08-.08.08s-.08-.036-.08-.08V1.5c0-.044.036-.08.08-.08s.08.036.08.08zm-2.668 0c0 .044-.036.08-.08.08s-.08-.036-.08-.08V1.5c0-.044.036-.08.08-.08s.08.036.08.08zm1.256-1.184c.012 0 .836.008.968.452V1.5c0-.044.036-.08.08-.08s.08.036.08.08v1.28c0 .044-.036.08-.08.08s-.08-.036-.08-.08v-.548c-.068.224-.424.452-.968.452-.012 0-.836-.008-.968-.452v.548c0 .044-.036.08-.08.08s-.08-.036-.08-.08V1.5c0-.044.036-.08.08-.08s.08.036.08.08v.548c.068-.224.424-.452.968-.452m.408.648c0-.408-.36-.556-.536-.556-.092 0-.28.04-.28.356a.54.54 0 0 0 .532.544c.088 0 .284-.032.284-.344M46.869 1.824c0-.364.464-.728.868-.728.252 0 .436.14.436.36 0 .348-.44.728-.88.728-.268 0-.424-.156-.424-.36" /><rect width=".13" height="3.19" x="-.07" y=".19" ry=".04" transform="translate(46.936 1.64)" /><path d="M47.003 4.973h-.064v-1.5h.064zm.896-2.036c0-.376-.16-.632-.16-.672 0-.056.044-.088.092-.088.028 0 .06.012.08.044.1.224.16.468.16.716 0 .812-1.068 1.224-1.068 2.036v-1c.388-.236.896-.592.896-1.036" /><text font-size="1.85" text-anchor="start" transform="translate(49.373 -2.37)">
<tspan>Mi</tspan>
</text><text font-size="1.85" text-anchor="start" transform="translate(52.093 -2.37)">
<tspan>m</tspan>
</text><path d="M49.373 3.824c0-.364.464-.728.868-.728.252 0 .436.14.436.36 0 .348-.44.728-.88.728-.268 0-.424-.156-.424-.36" /><rect width=".13" height="3.31" x="-.07" y="-1.5" ry=".04" transform="translate(50.61 1.64)" /><text font-size="1.85" text-anchor="start" transform="translate(54.964 -2.37)">
<tspan>Mi</tspan>
</text><text font-size="1.85" text-anchor="start" transform="translate(57.684 -2.37)">
<tspan>m</tspan>
</text><path d="M57.344 2.28c0 .044-.036.08-.08.08s-.08-.036-.08-.08V1c0-.044.036-.08.08-.08s.08.036.08.08zm-2.668 0c0 .044-.036.08-.08.08s-.08-.036-.08-.08V1c0-.044.036-.08.08-.08s.08.036.08.08zm1.256-1.184c.012 0 .836.008.968.452V1c0-.044.036-.08.08-.08s.08.036.08.08v1.28c0 .044-.036.08-.08.08s-.08-.036-.08-.08v-.548c-.068.224-.424.452-.968.452-.012 0-.836-.008-.968-.452v.548c0 .044-.036.08-.08.08s-.08-.036-.08-.08V1c0-.044.036-.08.08-.08s.08.036.08.08v.548c.068-.224.424-.452.968-.452m.408.648c0-.408-.36-.556-.536-.556-.092 0-.28.04-.28.356a.54.54 0 0 0 .532.544c.088 0 .284-.032.284-.344" /><text color="rgba(100.0000%, 0.0000%, 0.0000%, 100.0000%)" font-size="2.2" font-weight="bold" text-anchor="start" transform="translate(54.964 -.912)">
<tspan>+</tspan>
</text><g color="rgba(100.0000%, 0.0000%, 0.0000%, 100.0000%)"><text font-size="2.2" text-anchor="start" transform="translate(2 -2.5)">
<tspan>1B+1</tspan>
</text><rect width=".1" height="2.03" x="-.3" y="-1.73" ry="0" transform="translate(2 -2.5)" /><rect width=".1" height="2.03" x="4.73" y="-1.73" ry="0" transform="translate(2 -2.5)" /><rect width="5.14" height=".1" x="-.3" y=".2" ry="0" transform="translate(2 -2.5)" /><rect width="5.14" height=".1" x="-.3" y="-1.73" ry="0" transform="translate(2 -2.5)" /></g><text font-size="1.85" text-anchor="start" transform="translate(62.146 -2.37)">
<tspan>La</tspan>
</text><text font-size="1.85" text-anchor="start" transform="translate(64.579 -2.37)">
<tspan>m</tspan>
</text><text font-size="1.31" text-anchor="start" transform="translate(66.088 -3.211)">
<tspan>6</tspan>
</text><path d="M62.146 2.324c0-.364.464-.728.868-.728.252 0 .436.14.436.36 0 .348-.44.728-.88.728-.268 0-.424-.156-.424-.36" /></svg>