<svg xmlns="http://www.w3.org/2000/svg" width="593.65" height="127.33" viewBox="0 -0.02 94.08 20.18" fill="currentColor" font-family="Linux Libertine"><style type="text/css">tspan{white-space:pre}</style><rect width=".2" height="4" x="0" y="-2" ry="0" transform="translate(29.751 3.776)" /><path stroke="currentColor" stroke-linecap="round" stroke-linejoin="round" stroke-width=".1" d="M.05 5.776h93.98M.05 4.776h93.98M.05 3.776h93.98M.05 2.776h93.98M.05 1.776h93.98" /><rect width=".2" height="4" x="0" y="-2" ry="0" transform="translate(93.888 3.776)" /><rect width=".2" height="4" x="0" y="-2" ry="0" transform="translate(93.381 3.776)" /><rect width=".2" height="4" x="0" y="-2" ry="0" transform="translate(85.391 3.776)" /><rect width=".2" height="4" x="0" y="-2" ry="0" transform="translate(64.35 3.776)" /><rect width="1.96" height=".2" x="82.5" y="-.1" ry=".1" transform="translate(0 6.776)" /><rect width=".2" height="4" x="0" y="-2" ry="0" transform="translate(47.528 3.776)" /><text font-size="2.51" text-anchor="start" transform="translate(50.837 9.511)">
<tspan>ge</tspan>
</text><path d="M9.729 4.46c0-.364.464-.728.868-.728.252 0 .436.14.436.36 0 .348-.44.728-.88.728-.268 0-.424-.156-.424-.36M1.864 7.316H1.84a.783.783 0 0 1-.78-.788c0-.232.212-.412.448-.412.216 0 .38.188.38.412 0 .208-.172.38-.38.38a.3.3 0 0 1-.124-.024c.104.156.272.26.468.26h.016zm.54-3.144c.076.356.192.968.24 1.416a.67.67 0 0 0 .448-.652.753.753 0 0 0-.688-.764m-1.308.492c0 .448.392.988 1.112.988q.127 0 .272-.024a17 17 0 0 0-.252-1.456c-.316.032-.496.244-.496.476 0 .176.1.364.324.492q.029.03.028.06c0 .044-.04.088-.088.088-.06 0-.504-.248-.504-.748 0-.352.232-.696.64-.788a15 15 0 0 0-.184-.7c-.428.484-.852.972-.852 1.612M2.228 0C2.34 0 2.8.824 2.8 1.444c0 .572-.344 1.02-.72 1.456.084.272.156.552.224.828.02 0 .04-.004.056-.004.62 0 1.02.516 1.02 1.048 0 .452-.296.848-.72.98q.019.21.02.42c0 .076-.004.156-.008.232-.028.476-.352.9-.808.912l.004-.172c.372-.008.612-.368.636-.764q.007-.11.008-.22.001-.184-.016-.368-.169.031-.32.032c-.956 0-1.368-.868-1.368-1.496 0-.708.524-1.224.992-1.764-.116-.384-.208-.68-.208-1.384 0-.756.576-1.18.636-1.18m-.44 1.648c0 .22.048.46.14.76.328-.4.588-.808.588-1.304 0-.16-.024-.328-.084-.508a1.13 1.13 0 0 0-.644 1.052M4.413 3.612l-.004.264v.044q-.001.132.016.264c.18-.152.372-.32.372-.556 0-.132-.056-.268-.172-.268-.124 0-.208.12-.212.252m-.168.716-.048-2.38c.032-.02.072-.032.108-.032s.076.012.108.032l-.028 1.38a.58.58 0 0 1 .364-.136c.208 0 .356.192.356.408 0 .32-.344.468-.588.676-.06.052-.096.152-.18.152-.052 0-.092-.044-.092-.1M6.989 2.74c-.204 0-.212.172-.212.4v.144c0 .228.008.4.212.4.228 0 .244-.204.244-.472s-.016-.472-.244-.472m-.212-.028a.4.4 0 0 1 .212-.064c.404 0 .68.184.68.564s-.276.564-.68.564c-.448 0-.68-.496-.68-1 0-.512.288-1 .76-1 .28 0 .544.156.544.412 0 .144-.116.264-.26.264s-.264-.12-.264-.264c0-.096.16-.1.16-.196 0-.08-.092-.124-.18-.124-.264 0-.3.26-.3.556 0 .096.008.192.008.288" /><path d="M7.299 4.628c.1-.12.176-.256.176-.412 0-.216-.22-.348-.456-.348a.284.284 0 0 0-.292.284c0 .084.04.168.124.216zm.124.072c.216.124.32.316.32.5 0 .292-.264.576-.756.576-.376 0-.732-.216-.732-.56 0-.2.144-.348.288-.492a.52.52 0 0 1-.22-.412c0-.272.24-.536.696-.536.32 0 .628.156.628.44 0 .184-.1.344-.224.484m-.756.1c-.124.12-.236.244-.236.416 0 .276.264.468.556.468a.334.334 0 0 0 .344-.332.27.27 0 0 0-.14-.248z" /><text font-size="2.51" text-anchor="start" transform="translate(7.667 9.511)">
<tspan>Dieu,</tspan>
</text><rect width=".13" height="3.31" x="-.07" y="-3" ry=".04" transform="translate(10.966 3.776)" /><path d="M15.14 4.96c0-.364.463-.728.867-.728.252 0 .436.14.436.36 0 .348-.44.728-.88.728-.268 0-.424-.156-.424-.36" /><text font-size="2.51" text-anchor="start" transform="translate(13.994 9.511)">
<tspan>fais</tspan>
</text><rect width=".13" height="3.31" x="-.07" y="-2.5" ry=".04" transform="translate(16.376 3.776)" /><path d="M16.443 1.318v1.5h-.064v-1.5zm.492 2.916c0-.04.168-.348.168-.784 0-.412-.376-.832-.66-1.132v-1c0 .788.828 1.344.828 2.132 0 .284-.06.564-.164.828a.1.1 0 0 1-.08.048.09.09 0 0 1-.092-.092" /><path stroke="currentColor" stroke-linecap="round" stroke-linejoin="round" stroke-width=".08" d="M75.428 1.39v.396l-8.769-.624V.766z" /><path d="M20.298 3.46c0-.364.464-.728.868-.728.252 0 .436.14.436.36 0 .348-.44.728-.88.728-.268 0-.424-.156-.424-.36" /><text font-size="2.51" text-anchor="start" transform="translate(18.488 9.511)">
<tspan>nous</tspan>
</text><rect width=".13" height="2.51" x="-.07" y="-.31" ry=".04" transform="translate(20.365 3.776)" /><rect width=".36" height=".13" x="0" y="-.56" ry=".04" transform="translate(75.93 9.511)" /><path d="M24.666 3.96c0-.364.464-.728.868-.728.252 0 .436.14.436.36 0 .348-.44.728-.88.728-.268 0-.424-.156-.424-.36" /><text font-size="2.51" text-anchor="start" transform="translate(24.312 9.511)">
<tspan>re</tspan>
</text><rect width=".13" height="2.39" x="-.07" y=".19" ry=".04" transform="translate(24.733 3.776)" /><path d="M27.34 4.46c0-.364.465-.728.869-.728.252 0 .436.14.436.36 0 .348-.44.728-.88.728-.268 0-.424-.156-.424-.36" /><text font-size="2.51" text-anchor="start" transform="translate(26.825 9.511)">
<tspan>ve</tspan>
</text><rect width=".13" height="2.12" x="-.07" y=".69" ry=".04" transform="translate(27.408 3.776)" /><path d="M30.848 4.46c0-.364.464-.728.868-.728.252 0 .436.14.436.36 0 .348-.44.728-.88.728-.268 0-.424-.156-.424-.36" /><path stroke="currentColor" stroke-linecap="round" stroke-linejoin="round" stroke-width=".08" d="M56.103 1.578v.396h-6.266v-.396z" /><text font-size="2.51" text-anchor="start" transform="translate(29.81 9.511)">
<tspan>nir,</tspan>
</text><rect width=".13" height="3.31" x="-.07" y="-3" ry=".04" transform="translate(32.084 3.776)" /><rect width=".36" height=".13" x="0" y="-.56" ry=".04" transform="translate(56.947 9.511)" /><path d="M34.832 2.956c.316 0 .184.392.364.392.064 0 .216-.192.244-.252q.019-.036.056-.036c.037 0 .048.012.056.036l-.492 1.68q-.048.041-.108.04c-.06-.001-.08-.012-.112-.04l.468-1.304a1.3 1.3 0 0 1-.42.088c-.232 0-.34-.164-.34-.32 0-.144.096-.284.284-.284M36.752 5.46c0-.364.464-.728.868-.728.252 0 .436.14.436.36 0 .348-.44.728-.88.728-.268 0-.424-.156-.424-.36" /><text font-size="2.51" text-anchor="start" transform="translate(35.553 9.511)">
<tspan>que</tspan>
</text><rect width=".13" height="3.13" x="-.07" y="-1.81" ry=".04" transform="translate(37.989 3.776)" /><path stroke="currentColor" stroke-linecap="round" stroke-linejoin="round" stroke-width=".08" d="M46.05 1.766v.396h-8.086v-.396z" /><path d="M41.21 5.46c0-.364.464-.728.868-.728.252 0 .436.14.436.36 0 .348-.44.728-.88.728-.268 0-.424-.156-.424-.36" /><text font-size="2.51" text-anchor="start" transform="translate(40.155 9.511)">
<tspan>ton</tspan>
</text><rect width=".13" height="3.13" x="-.07" y="-1.81" ry=".04" transform="translate(42.447 3.776)" /><rect width=".36" height=".13" x="0" y="-.56" ry=".04" transform="translate(50.407 9.511)" /><path d="M44.787 5.46c0-.364.464-.728.868-.728.252 0 .436.14.436.36 0 .348-.44.728-.88.728-.268 0-.424-.156-.424-.36" /><text font-size="2.51" text-anchor="start" transform="translate(44.47 9.511)">
<tspan>vi</tspan>
</text><rect width=".13" height="3.13" x="-.07" y="-1.81" ry=".04" transform="translate(46.024 3.776)" /><rect width=".66" height=".13" x="0" y="-.56" ry=".04" transform="translate(46.983 9.511)" /><path d="M48.625 4.96c0-.364.464-.728.868-.728.252 0 .436.14.436.36 0 .348-.44.728-.88.728-.268 0-.424-.156-.424-.36" /><text font-size="2.51" text-anchor="start" transform="translate(48.217 9.511)">
<tspan>sa</tspan>
</text><rect width=".13" height="2.81" x="-.07" y="-2" ry=".04" transform="translate(49.862 3.776)" /><path d="M51.371 4.96c0-.364.464-.728.868-.728.252 0 .436.14.436.36 0 .348-.44.728-.88.728-.268 0-.424-.156-.424-.36" /><rect width=".13" height="2.81" x="-.07" y="-2" ry=".04" transform="translate(52.608 3.776)" /><path d="M54.84 4.96c0-.364.465-.728.869-.728.252 0 .436.14.436.36 0 .348-.44.728-.88.728-.268 0-.424-.156-.424-.36" /><text font-size="2.51" text-anchor="start" transform="translate(54.11 9.511)">
<tspan>s’é</tspan>
</text><rect width=".13" height="2.81" x="-.07" y="-2" ry=".04" transform="translate(56.078 3.776)" /><path stroke="currentColor" stroke-linecap="round" stroke-linejoin="round" stroke-width=".08" d="M27.433 6.39v.396l-7.093-.624v-.396z" /><path d="M59.78 4.46c0-.364.463-.728.867-.728.253 0 .437.14.437.36 0 .348-.44.728-.88.728-.269 0-.425-.156-.425-.36" /><text font-size="2.51" text-anchor="start" transform="translate(57.377 9.511)">
<tspan>claire,</tspan>
</text><path d="M61.534 4.276a.224.224 0 1 1 .447 0 .224.224 0 0 1-.447 0" /><rect width=".13" height="3.31" x="-.07" y="-3" ry=".04" transform="translate(61.017 3.776)" /><rect width=".51" height=".13" x="0" y="-.56" ry=".04" transform="translate(29.23 9.511)" /><rect width=".36" height=".13" x="0" y="-.56" ry=".04" transform="translate(26.395 9.511)" /><path d="M65.448 4.46c0-.364.464-.728.868-.728.251 0 .435.14.435.36 0 .348-.44.728-.88.728-.267 0-.423-.156-.423-.36" /><text font-size="2.51" text-anchor="start" transform="translate(65.147 9.511)">
<tspan>et</tspan>
</text><rect width=".13" height="3.12" x="-.07" y="-2.81" ry=".04" transform="translate(66.684 3.776)" /><path d="M69.762 4.96c0-.364.464-.728.868-.728.252 0 .436.14.436.36 0 .348-.44.728-.88.728-.268 0-.424-.156-.424-.36" /><text font-size="2.51" text-anchor="start" transform="translate(67.952 9.511)">
<tspan>nous</tspan>
</text><rect width=".13" height="3.32" x="-.07" y="-2.5" ry=".04" transform="translate(70.999 3.776)" /><path d="M74.166 5.46c0-.364.464-.728.868-.728.252 0 .436.14.436.36 0 .348-.44.728-.88.728-.268 0-.424-.156-.424-.36" /><text font-size="2.51" text-anchor="start" transform="translate(73.776 9.511)">
<tspan>se</tspan>
</text><rect width=".13" height="3.51" x="-.07" y="-2.19" ry=".04" transform="translate(75.403 3.776)" /><path d="M77.955 6.46c0-.364.464-.728.868-.728.252 0 .436.14.436.36 0 .348-.44.728-.88.728-.268 0-.424-.156-.424-.36" /><text font-size="2.51" text-anchor="start" transform="translate(76.36 9.511)">
<tspan>rons</tspan>
</text><rect width=".13" height="3.31" x="-.07" y="-1" ry=".04" transform="translate(79.192 3.776)" /><path d="M82.826 6.96c0-.364.464-.728.868-.728.252 0 .436.14.436.36 0 .348-.44.728-.88.728-.268 0-.424-.156-.424-.36" /><text font-size="2.51" text-anchor="start" transform="translate(81.753 9.511)">
<tspan>sau</tspan>
</text><rect width=".13" height="3.31" x="-.07" y="-.5" ry=".04" transform="translate(84.063 3.776)" /><path d="M84.13 3.318v1.5h-.064v-1.5zm.492 2.916c0-.04.168-.348.168-.784 0-.412-.376-.832-.66-1.132v-1c0 .788.828 1.344.828 2.132 0 .284-.06.564-.164.828a.1.1 0 0 1-.08.048.09.09 0 0 1-.092-.092M87.776 6.7c.16 0 .816-.44.924-.572a.2.2 0 0 0 .044-.112.166.166 0 0 0-.168-.164c-.16 0-.816.44-.924.572a.2.2 0 0 0-.04.112c0 .088.068.164.164.164m-.288-.156c0-.284.184-.812 1.032-.812.164 0 .344.04.344.276 0 .284-.184.812-1.032.812-.164 0-.344-.04-.344-.276" /><text font-size="2.51" text-anchor="start" transform="translate(86.146 9.511)">
<tspan>vés!</tspan>
</text><path d="M89.315 6.276a.224.224 0 1 1 .447 0 .224.224 0 0 1-.447 0" /><rect width=".13" height="3.24" x="-.07" y="-1" ry=".04" transform="translate(88.798 3.776)" /><rect width=".66" height=".13" x="0" y="-.56" ry=".04" transform="translate(85.344 9.511)" /><rect width=".2" height="4" x="0" y="-2" ry="0" transform="translate(23.271 15.777)" /><rect width=".62" height="4" x="0" y="-2" ry="0" transform="translate(40.577 15.777)" /><rect width=".2" height="4" x="0" y="-2" ry="0" transform="translate(40.07 15.777)" /><path stroke="currentColor" stroke-linecap="round" stroke-linejoin="round" stroke-width=".1" d="M.05 17.777h41.1M.05 16.777h41.1M.05 15.777h41.1M.05 14.777h41.1M.05 13.777h41.1" /><text font-size="1.85" text-anchor="start" transform="translate(7.605 12.258)">
<tspan>Fa</tspan>
</text><path d="M8.581 15.732c.556 0 .932.236.976.484v-.56c0-.056.044-.1.1-.1s.1.044.1.1v1.24c0 .056-.044.1-.1.1s-.1-.044-.1-.1v-.56c-.044.248-.42.484-.976.484s-.932-.236-.976-.484v.56c0 .056-.044.1-.1.1s-.1-.044-.1-.1v-1.24c0-.056.044-.1.1-.1s.1.044.1.1v.56c.044-.248.42-.484.976-.484m.408.648c0-.408-.36-.556-.536-.556-.092 0-.28.04-.28.356a.54.54 0 0 0 .532.544c.088 0 .284-.032.284-.344M1.864 19.316H1.84a.783.783 0 0 1-.78-.788c0-.232.212-.412.448-.412.216 0 .38.188.38.412 0 .208-.172.38-.38.38a.3.3 0 0 1-.124-.024c.104.156.272.26.468.26h.016zm.54-3.143c.076.356.192.968.24 1.416a.67.67 0 0 0 .448-.652.753.753 0 0 0-.688-.765m-1.308.492c0 .448.392.988 1.112.988q.127 0 .272-.024a17 17 0 0 0-.252-1.457c-.316.032-.496.244-.496.476 0 .176.1.364.324.492q.029.03.028.06c0 .044-.04.088-.088.088-.06 0-.504-.248-.504-.748 0-.352.232-.696.64-.788a15 15 0 0 0-.184-.7c-.428.484-.852.972-.852 1.612M2.228 12c.112 0 .572.823.572 1.443 0 .572-.344 1.02-.72 1.456.084.272.156.552.224.828.02 0 .04-.004.056-.004.62 0 1.02.516 1.02 1.048 0 .452-.296.848-.72.98q.019.21.02.42-.001.116-.008.232c-.028.476-.352.9-.808.912l.004-.172c.372-.008.612-.368.636-.764a3.775 3.775 0 0 0-.008-.588q-.169.031-.32.032c-.956 0-1.368-.868-1.368-1.496 0-.707.524-1.223.992-1.763-.116-.384-.208-.68-.208-1.384 0-.756.576-1.18.636-1.18m-.44 1.647c0 .22.048.46.14.76.328-.4.588-.808.588-1.304 0-.16-.024-.328-.084-.508a1.13 1.13 0 0 0-.644 1.052M4.413 15.613l-.004.264v.043q-.001.133.016.265c.18-.152.372-.32.372-.556 0-.133-.056-.269-.172-.269-.124 0-.208.12-.212.252m-.168.716-.048-2.38c.032-.02.072-.032.108-.032s.076.012.108.032l-.028 1.38a.58.58 0 0 1 .364-.136c.208 0 .356.192.356.408 0 .32-.344.468-.588.676-.06.052-.096.152-.18.152-.052 0-.092-.044-.092-.1" /><text font-size="1.85" text-anchor="start" transform="translate(13.854 12.258)">
<tspan>Si</tspan>
</text><path d="m16.042 11.34-.006.18v.033c0 .063.006.13.015.192.126-.114.261-.243.261-.414 0-.096-.039-.189-.123-.189-.093 0-.144.096-.147.198m-.003-1.233-.027 1.011a.4.4 0 0 1 .285-.12c.15 0 .246.153.246.315 0 .231-.24.351-.41.507-.055.051-.079.144-.157.144-.048 0-.084-.045-.084-.096l-.045-1.76q.046-.027.096-.025c.05.002.066.006.096.024M14.83 15.233c.556 0 .932.235.976.483v-.56c0-.056.044-.1.1-.1s.1.045.1.1v1.24c0 .056-.044.1-.1.1s-.1-.043-.1-.1v-.56c-.044.248-.42.484-.976.484s-.932-.236-.976-.484v.56c0 .056-.044.1-.1.1s-.1-.043-.1-.1v-1.24c0-.056.044-.1.1-.1s.1.045.1.1v.56c.044-.247.42-.483.976-.483m.408.647c0-.408-.36-.556-.536-.556-.092 0-.28.04-.28.357a.54.54 0 0 0 .532.544c.088 0 .284-.033.284-.345" /><text font-size="1.85" text-anchor="start" transform="translate(20.104 12.258)">
<tspan>Fa</tspan>
</text><path d="M20.104 16.46c0-.364.464-.728.868-.728.252 0 .436.14.436.36 0 .349-.44.729-.88.729-.268 0-.424-.156-.424-.36" /><rect width=".13" height="3.31" x="-.07" y="-3" ry=".04" transform="translate(21.34 15.777)" /><text font-size="1.85" text-anchor="start" transform="translate(24.368 12.258)">
<tspan>Fa</tspan>
</text><path d="M25.344 15.732c.556 0 .932.236.976.484v-.56c0-.056.044-.1.1-.1s.1.044.1.1v1.24c0 .056-.044.1-.1.1s-.1-.044-.1-.1v-.56c-.044.248-.42.484-.976.484s-.932-.236-.976-.484v.56c0 .056-.044.1-.1.1s-.1-.044-.1-.1v-1.24c0-.056.044-.1.1-.1s.1.044.1.1v.56c.044-.248.42-.484.976-.484m.408.648c0-.408-.36-.556-.536-.556-.092 0-.28.04-.28.356a.54.54 0 0 0 .532.544c.088 0 .284-.032.284-.344" /><text font-size="2.2" text-anchor="start" transform="translate(4 19.827)">
<tspan>P19</tspan>
</text><rect width=".1" height="2.07" x="-.3" y="-1.74" ry="0" transform="translate(4 19.827)" /><rect width=".1" height="2.07" x="3.4" y="-1.74" ry="0" transform="translate(4 19.827)" /><rect width="3.81" height=".1" x="-.3" y=".23" ry="0" transform="translate(4 19.827)" /><rect width="3.81" height=".1" x="-.3" y="-1.74" ry="0" transform="translate(4 19.827)" /><path d="M31.593 16.732c.556 0 .932.236.976.484v-.56c0-.056.044-.1.1-.1s.1.044.1.1v1.24c0 .056-.044.1-.1.1s-.1-.044-.1-.1v-.56c-.044.248-.42.484-.976.484s-.932-.236-.976-.484v.56c0 .056-.044.1-.1.1s-.1-.044-.1-.1v-1.24c0-.056.044-.1.1-.1s.1.044.1.1v.56c.044-.248.42-.484.976-.484m.408.648c0-.408-.36-.556-.536-.556-.092 0-.28.04-.28.356a.54.54 0 0 0 .532.544c.088 0 .284-.032.284-.344" /><text font-size="1.85" text-anchor="start" transform="translate(36.867 12.258)">
<tspan>Do</tspan>
</text><text font-size="1.31" text-anchor="start" transform="translate(39.331 11.418)">
<tspan>7</tspan>
</text><path d="M36.867 16.96c0-.364.464-.728.868-.728.252 0 .436.14.436.36 0 .348-.44.728-.88.728-.268 0-.424-.156-.424-.36" /><rect width=".13" height="3.31" x="-.07" y="-2.5" ry=".04" transform="translate(38.104 15.777)" /></svg>