<svg xmlns="http://www.w3.org/2000/svg" width="500.71" height="142.53" viewBox="-1.32 0 79.35 22.59" fill="currentColor" font-family="Linux Libertine"><style type="text/css">tspan{white-space:pre}</style><rect width=".2" height="4" x="0" y="-2" ry="0" transform="translate(19.8 4.455)" /><path stroke="currentColor" stroke-linecap="round" stroke-linejoin="round" stroke-width=".1" d="M.05 6.456h77.94M.05 5.456h77.94M.05 4.456h77.94M.05 3.456h77.94M.05 2.456h77.94" /><rect width=".62" height="4" x="0" y="-2" ry="0" transform="translate(77.417 15.586)" /><rect width=".2" height="4" x="0" y="-2" ry="0" transform="translate(76.91 15.586)" /><rect width=".62" height="4" x="0" y="-2" ry="0" transform="translate(77.417 4.455)" /><rect width=".2" height="4" x="0" y="-2" ry="0" transform="translate(76.91 4.455)" /><rect width="1.96" height=".2" x="65.06" y="-.1" ry=".1" transform="translate(0 18.586)" /><rect width="1.96" height=".2" x="65.06" y="-.1" ry=".1" transform="translate(0 19.586)" /><rect width="1.96" height=".2" x="59.99" y="-.1" ry=".1" transform="translate(0 18.586)" /><rect width="1.96" height=".2" x="59.99" y="-.1" ry=".1" transform="translate(0 19.586)" /><rect width="1.96" height=".2" x="44.36" y="-.1" ry=".1" transform="translate(0 18.586)" /><rect width="1.96" height=".2" x="44.36" y="-.1" ry=".1" transform="translate(0 19.586)" /><rect width="1.96" height=".2" x="37.07" y="-.1" ry=".1" transform="translate(0 18.586)" /><rect width="1.96" height=".2" x="30.51" y="-.1" ry=".1" transform="translate(0 18.586)" /><rect width="1.96" height=".2" x="25.58" y="-.1" ry=".1" transform="translate(0 18.586)" /><rect width="1.96" height=".2" x="25.58" y="-.1" ry=".1" transform="translate(0 19.586)" /><path stroke="currentColor" stroke-linecap="round" stroke-linejoin="round" stroke-width=".1" d="M.05 17.586h77.94M.05 16.586h77.94M.05 15.586h77.94M.05 14.586h77.94M.05 13.586h77.94" /><rect width=".2" height="4" x="0" y="-2" ry="0" transform="translate(69.747 15.586)" /><rect width=".2" height="4" x="0" y="-2" ry="0" transform="translate(69.747 4.455)" /><rect width=".2" height="4" x="0" y="-2" ry="0" transform="translate(59.216 15.586)" /><rect width=".2" height="4" x="0" y="-2" ry="0" transform="translate(59.216 4.455)" /><rect width=".2" height="4" x="0" y="-2" ry="0" transform="translate(48.496 15.586)" /><rect width=".2" height="4" x="0" y="-2" ry="0" transform="translate(48.496 4.455)" /><rect width=".2" height="4" x="0" y="-2" ry="0" transform="translate(39.964 15.586)" /><rect width=".2" height="4" x="0" y="-2" ry="0" transform="translate(39.964 4.455)" /><rect width=".2" height="4" x="0" y="-2" ry="0" transform="translate(29.744 15.586)" /><rect width=".2" height="4" x="0" y="-2" ry="0" transform="translate(29.744 4.455)" /><rect width=".2" height="4" x="0" y="-2" ry="0" transform="translate(19.8 15.586)" /><path d="M11.152 18.27c0-.364.464-.728.868-.728.252 0 .436.14.436.36 0 .348-.44.728-.88.728-.268 0-.424-.156-.424-.36M1.864 19.126H1.84a.783.783 0 0 1-.78-.788c0-.232.212-.412.448-.412.216 0 .38.188.38.412 0 .208-.172.38-.38.38a.3.3 0 0 1-.124-.024c.104.156.272.26.468.26h.016zm.54-3.144c.076.356.192.968.24 1.416a.67.67 0 0 0 .448-.652.753.753 0 0 0-.688-.764m-1.308.492c0 .448.392.988 1.112.988q.127 0 .272-.024a17 17 0 0 0-.252-1.456c-.316.032-.496.244-.496.476 0 .176.1.364.324.492q.029.03.028.06c0 .044-.04.088-.088.088-.06 0-.504-.248-.504-.748 0-.352.232-.696.64-.788a15 15 0 0 0-.184-.7c-.428.484-.852.972-.852 1.612m1.132-4.664c.112 0 .572.824.572 1.444 0 .572-.344 1.02-.72 1.456.084.272.156.552.224.828q.031-.002.056-.004c.62 0 1.02.516 1.02 1.048 0 .452-.296.848-.72.98q.019.21.02.42-.001.116-.008.232c-.028.476-.352.9-.808.912l.004-.172c.372-.008.612-.368.636-.764q.007-.11.008-.22.001-.184-.016-.368-.169.031-.32.032c-.956 0-1.368-.868-1.368-1.496 0-.708.524-1.224.992-1.764-.116-.384-.208-.68-.208-1.384 0-.756.576-1.18.636-1.18m-.44 1.648c0 .22.048.46.14.76.328-.4.588-.808.588-1.304 0-.16-.024-.328-.084-.508a1.13 1.13 0 0 0-.644 1.052M4.185 13.11c0-.032.02-.06.052-.072l.184-.068v-.632c0-.04.032-.076.072-.076s.076.036.076.076v.58l.332-.124v-.632c0-.04.036-.076.076-.076s.072.036.072.076v.58l.128-.048q.014-.005.028-.004a.08.08 0 0 1 .08.08v.24c0 .032-.02.064-.052.076l-.184.064v.64l.128-.044q.014-.005.028-.004a.08.08 0 0 1 .08.08v.24c0 .032-.02.06-.052.072l-.184.068v.632c0 .04-.032.076-.072.076s-.076-.036-.076-.076v-.58l-.332.124v.632c0 .04-.036.076-.076.076s-.072-.036-.072-.076v-.58l-.128.048q-.014.005-.028.004a.08.08 0 0 1-.08-.08v-.24c0-.032.02-.064.052-.076l.184-.064v-.64l-.128.044q-.014.005-.028.004a.08.08 0 0 1-.08-.08zm.716.096-.332.12v.64l.332-.12zM5.285 14.61c0-.032.02-.06.052-.072l.184-.068v-.632c0-.04.032-.076.072-.076s.076.036.076.076v.58l.332-.124v-.632c0-.04.036-.076.076-.076s.072.036.072.076v.58l.128-.048c.008-.004.02-.004.028-.004a.08.08 0 0 1 .08.08v.24c0 .032-.02.064-.052.076l-.184.064v.64l.128-.044c.008-.004.02-.004.028-.004a.08.08 0 0 1 .08.08v.24c0 .032-.02.06-.052.072l-.184.068v.632c0 .04-.032.076-.072.076s-.076-.036-.076-.076v-.58l-.332.124v.632c0 .04-.036.076-.076.076s-.072-.036-.072-.076v-.58l-.128.048c-.008.004-.02.004-.028.004a.08.08 0 0 1-.08-.08v-.24c0-.032.02-.064.052-.076l.184-.064v-.64l-.128.044c-.008.004-.02.004-.028.004a.08.08 0 0 1-.08-.08zm.716.096-.332.12v.64l.332-.12zM8.523 15.586c-.352 0-.36-.264-.576-.264-.12 0-.236.08-.248.22-.004.028-.024.044-.044.044-.024 0-.048-.016-.048-.044v-.008c.06-.688.928-.66.928-1.368 0-.236-.064-.488-.268-.488-.1 0-.196.056-.196.148 0 .108.14.164.14.272a.277.277 0 0 1-.552 0c0-.304.288-.512.608-.512.38 0 .732.228.732.58 0 .604-.6.636-.984.88a.5.5 0 0 1 .108-.012c.332 0 .444.236.684.236.192 0 .152-.152.22-.152.024 0 .048.02.048.048 0 .088-.176.42-.552.42" /><path d="M8.319 17.118h.468c0 .192.108.376.288.376.032 0 .048.02.048.044s-.016.048-.048.048c-.176 0-.348-.052-.524-.052s-.348.052-.524.052c-.032 0-.048-.024-.048-.048s.016-.044.048-.044c.18 0 .292-.184.292-.376m.116-1.48c.144 0 .276-.056.304-.056.032 0 .056.024.056.048q-.001.01-.008.02l-1.136 1.32h.668v-.524c0-.136.136-.108.272-.288.088-.12.092-.224.144-.224.024 0 .052.02.052.056v.98h.288c.04 0 .06.028.06.056s-.02.06-.06.06h-.288v.032h-.468v-.032h-.668c-.092 0-.124-.056-.124-.092 0-.048.56-.572.56-1.344 0-.036.024-.064.052-.064.02 0 .156.052.296.052" /><rect width=".13" height="2.94" x="-.07" y="-4.13" ry=".04" transform="translate(12.39 4.455)" /><path d="M12.457.373v1.5h-.065v-1.5zm.491 2.916c0-.04.168-.348.168-.784 0-.412-.376-.832-.66-1.132v-1c0 .788.828 1.344.828 2.132 0 .284-.06.564-.164.828a.1.1 0 0 1-.08.048.09.09 0 0 1-.092-.092" /><rect width=".13" height="2.94" x="-.07" y="-4.13" ry=".04" transform="translate(12.39 15.586)" /><path d="M12.457 11.503v1.5h-.065v-1.5zm.491 2.916c0-.04.168-.348.168-.784 0-.412-.376-.832-.66-1.132v-1c0 .788.828 1.344.828 2.132 0 .284-.06.564-.164.828a.1.1 0 0 1-.08.048.09.09 0 0 1-.092-.092M12.907 18.086a.224.224 0 1 1 .447 0 .224.224 0 0 1-.447 0" /><rect width=".13" height="2.31" x="-.07" y="2.69" ry=".04" transform="translate(11.22 15.586)" /><path stroke="currentColor" stroke-linecap="round" stroke-linejoin="round" stroke-width=".08" d="M64.14 2.446v.396l-2.616-.189v-.395z" /><path d="M13.657 5.14c0-.364.463-.728.867-.728.253 0 .437.14.437.36 0 .348-.44.728-.88.728-.269 0-.425-.156-.425-.36M13.657 16.27c0-.364.463-.728.867-.728.253 0 .437.14.437.36 0 .348-.44.728-.88.728-.269 0-.425-.156-.425-.36" /><rect width=".13" height="3.31" x="-.07" y="-3" ry=".04" transform="translate(14.893 4.455)" /><rect width=".13" height="3.31" x="-.07" y="-3" ry=".04" transform="translate(14.893 15.586)" /><path d="M17.236 6.14c0-.364.464-.728.868-.728.252 0 .436.14.436.36 0 .348-.44.728-.88.728-.268 0-.424-.156-.424-.36" /><text font-size="2.47" text-anchor="start" transform="translate(16.594 9.626)">
<tspan>lé-</tspan>
</text><path d="M17.236 16.27c0-.364.464-.728.868-.728.252 0 .436.14.436.36 0 .348-.44.728-.88.728-.268 0-.424-.156-.424-.36M17.236 18.27c0-.364.464-.728.868-.728.252 0 .436.14.436.36 0 .348-.44.728-.88.728-.268 0-.424-.156-.424-.36" /><rect width=".13" height="3.31" x="-.07" y="-2" ry=".04" transform="translate(18.473 4.455)" /><path d="M18.54 2.498v1.5h-.064v-1.5zm.492 2.916c0-.04.168-.348.168-.784 0-.412-.376-.832-.66-1.132v-1c0 .788.828 1.344.828 2.132 0 .284-.06.564-.164.828a.1.1 0 0 1-.08.048.09.09 0 0 1-.092-.092" /><rect width=".13" height="3.31" x="-.07" y="-3" ry=".04" transform="translate(18.473 15.586)" /><path d="M18.54 12.628v1.5h-.064v-1.5zm.492 2.916c0-.04.168-.348.168-.784 0-.412-.376-.832-.66-1.132v-1c0 .788.828 1.344.828 2.132 0 .284-.06.564-.164.828a.1.1 0 0 1-.08.048.09.09 0 0 1-.092-.092" /><rect width=".13" height="2.81" x="-.07" y="2.69" ry=".04" transform="translate(17.303 15.586)" /><path d="M17.37 21.044h-.064v-1.5h.064zm.896-2.036c0-.376-.16-.632-.16-.672 0-.056.044-.088.092-.088.028 0 .06.012.08.044.1.224.16.468.16.716 0 .812-1.068 1.224-1.068 2.036v-1c.388-.236.896-.592.896-1.036" /><path stroke="currentColor" stroke-linecap="round" stroke-linejoin="round" stroke-width=".08" d="M61.908 11.891c1.362-1.322 5.38-1.526 6.87-.35h0c-1.483-1.052-5.502-.848-6.87.35M61.685 1.72c1.389-.615 3.834.21 4.567 1.54h0c-.772-1.213-3.218-2.037-4.567-1.54" /><path d="M20.897 5.64c0-.364.464-.728.868-.728.252 0 .436.14.436.36 0 .348-.44.728-.88.728-.268 0-.424-.156-.424-.36" /><text font-size="2.47" text-anchor="start" transform="translate(11.152 9.626)">
<tspan>Al-</tspan>
</text><text font-size="2.47" text-anchor="start" transform="translate(20.897 9.626)">
<tspan>lu-</tspan>
</text><path d="M20.897 15.77c0-.364.464-.728.868-.728.252 0 .436.14.436.36 0 .348-.44.728-.88.728-.268 0-.424-.156-.424-.36M20.897 18.27c0-.364.464-.728.868-.728.252 0 .436.14.436.36 0 .348-.44.728-.88.728-.268 0-.424-.156-.424-.36M8.523 4.456c-.352 0-.36-.265-.576-.265-.12 0-.236.08-.248.22-.004.028-.024.044-.044.044-.024 0-.048-.016-.048-.044v-.008c.06-.688.928-.66.928-1.368 0-.236-.064-.488-.268-.488-.1 0-.196.056-.196.148 0 .108.14.164.14.272a.277.277 0 0 1-.552 0c0-.304.288-.512.608-.512.38 0 .732.228.732.58 0 .604-.6.636-.984.88a.5.5 0 0 1 .108-.012c.332 0 .444.236.684.236.192 0 .152-.152.22-.152.024 0 .048.02.048.048 0 .088-.176.42-.552.42" /><path d="M8.319 5.988h.468c0 .191.108.375.288.375.032 0 .048.02.048.044s-.016.048-.048.048c-.176 0-.348-.052-.524-.052s-.348.053-.524.053c-.032 0-.048-.025-.048-.049s.016-.044.048-.044c.18 0 .292-.184.292-.376m.116-1.48c.144 0 .276-.056.304-.056.032 0 .056.024.056.048q-.001.01-.008.02L7.651 5.84h.668v-.524c0-.136.136-.108.272-.288.088-.12.092-.224.144-.224.024 0 .052.02.052.055v.98h.288c.04 0 .06.028.06.056s-.02.06-.06.06h-.288v.032h-.468v-.032h-.668c-.092 0-.124-.056-.124-.092 0-.048.56-.572.56-1.344 0-.036.024-.064.052-.064.02 0 .156.052.296.052" /><rect width=".13" height="2.81" x="-.07" y="-2" ry=".04" transform="translate(22.134 4.455)" /><rect width=".13" height="3.15" x="-.07" y="-3.33" ry=".04" transform="translate(22.134 15.586)" /><rect width=".13" height="2.31" x="-.07" y="2.69" ry=".04" transform="translate(20.965 15.586)" /><path d="M23.402 6.14c0-.364.464-.728.868-.728.252 0 .436.14.436.36 0 .348-.44.728-.88.728-.268 0-.424-.156-.424-.36" /><rect width=".13" height="3.13" x="-.07" y="-1.82" ry=".04" transform="translate(24.639 4.455)" /><path d="M25.906 6.64c0-.364.464-.728.868-.728.252 0 .436.14.436.36 0 .348-.44.728-.88.728-.268 0-.424-.156-.424-.36" /><text font-size="2.47" text-anchor="start" transform="translate(24.994 9.626)">
<tspan>ia !</tspan>
</text><path d="M25.906 16.27c0-.364.464-.728.868-.728.252 0 .436.14.436.36 0 .348-.44.728-.88.728-.268 0-.424-.156-.424-.36M25.906 19.77c0-.364.464-.728.868-.728.252 0 .436.14.436.36 0 .348-.44.728-.88.728-.268 0-.424-.156-.424-.36" /><rect width=".13" height="3.31" x="-.07" y="-1.5" ry=".04" transform="translate(27.143 4.455)" /><rect width=".13" height="3.31" x="-.07" y="-3" ry=".04" transform="translate(27.143 15.586)" /><rect width=".13" height="2.31" x="-.07" y="4.19" ry=".04" transform="translate(25.973 15.586)" /><path stroke="currentColor" stroke-linecap="round" stroke-linejoin="round" stroke-width=".08" d="M51.197 15.041c1.119-.583 2.916-.08 3.57 1h0c-.688-.96-2.485-1.463-3.57-1M50.354.26c.834-.465 2.002-.162 2.504.65h0c-.534-.692-1.701-.995-2.504-.65" /><path d="M30.84 7.14c0-.364.465-.728.869-.728.252 0 .436.14.436.36 0 .348-.44.728-.88.728-.268 0-.424-.156-.424-.36M4.185 1.98q.002-.051.052-.073l.184-.068v-.632c0-.04.032-.076.072-.076s.076.036.076.076v.58l.332-.124v-.632c0-.04.036-.076.076-.076s.072.036.072.076v.58l.128-.048q.014-.005.028-.004a.08.08 0 0 1 .08.08v.24c0 .032-.02.064-.052.076l-.184.064v.64l.128-.044q.014-.005.028-.004a.08.08 0 0 1 .08.08v.24c0 .032-.02.06-.052.072l-.184.068v.632c0 .04-.032.077-.072.077s-.076-.036-.076-.076v-.58l-.332.123v.633c0 .04-.036.076-.076.076s-.072-.036-.072-.076V3.3l-.128.048q-.014.005-.028.004a.08.08 0 0 1-.08-.08v-.24c0-.032.02-.064.052-.076l.184-.064v-.64l-.128.044q-.014.005-.028.004a.08.08 0 0 1-.08-.08zm.716.095-.332.12v.64l.332-.12zM5.285 3.48q.002-.051.052-.073l.184-.068v-.632c0-.04.032-.076.072-.076s.076.036.076.076v.58l.332-.124v-.632c0-.04.036-.076.076-.076s.072.036.072.076v.58l.128-.048c.008-.004.02-.004.028-.004a.08.08 0 0 1 .08.08v.24c0 .032-.02.064-.052.076l-.184.064v.64l.128-.044c.008-.004.02-.004.028-.004a.08.08 0 0 1 .08.08v.24q-.002.051-.052.073l-.184.068v.632c0 .04-.032.076-.072.076s-.076-.037-.076-.077v-.58l-.332.124v.632c0 .04-.036.076-.076.076s-.072-.036-.072-.076V4.8l-.128.048c-.008.004-.02.004-.028.004a.08.08 0 0 1-.08-.08v-.24c0-.032.02-.064.052-.076l.184-.064v-.64l-.128.044c-.008.004-.02.004-.028.004a.08.08 0 0 1-.08-.08zm.716.095-.332.12v.64l.332-.12z" /><text font-size="2.47" text-anchor="start" transform="translate(30.84 9.626)">
<tspan>Al-</tspan>
</text><path d="M30.84 17.27c0-.364.465-.728.869-.728.252 0 .436.14.436.36 0 .348-.44.728-.88.728-.268 0-.424-.156-.424-.36M30.84 19.27c0-.364.465-.728.869-.728.252 0 .436.14.436.36 0 .348-.44.728-.88.728-.268 0-.424-.156-.424-.36M1.864 7.996H1.84a.783.783 0 0 1-.78-.789c0-.232.212-.412.448-.412.216 0 .38.188.38.412 0 .208-.172.38-.38.38a.3.3 0 0 1-.124-.024c.104.156.272.26.468.26h.016zm.54-3.145c.076.356.192.968.24 1.416a.67.67 0 0 0 .448-.652.753.753 0 0 0-.688-.764m-1.308.492c0 .448.392.988 1.112.988q.127 0 .272-.024a17 17 0 0 0-.252-1.456c-.316.032-.496.244-.496.476 0 .176.1.364.324.492q.029.03.028.06c0 .044-.04.088-.088.088-.06 0-.504-.248-.504-.748 0-.352.232-.696.64-.788a15 15 0 0 0-.184-.7c-.428.484-.852.972-.852 1.612M2.228.68c.112 0 .572.824.572 1.443 0 .572-.344 1.02-.72 1.456.084.272.156.552.224.828.02 0 .04-.004.056-.004.62 0 1.02.517 1.02 1.049 0 .452-.296.848-.72.98q.019.21.02.42c0 .075-.004.155-.008.231-.028.476-.352.9-.808.912l.004-.172c.372-.008.612-.368.636-.764q.007-.11.008-.22.001-.184-.016-.368-.169.031-.32.032c-.956 0-1.368-.868-1.368-1.496 0-.707.524-1.223.992-1.763-.116-.385-.208-.68-.208-1.385 0-.756.576-1.18.636-1.18m-.44 1.647c0 .22.048.46.14.76.328-.4.588-.808.588-1.304 0-.16-.024-.328-.084-.508a1.13 1.13 0 0 0-.644 1.052" /><rect width=".13" height="3.31" x="-.07" y="-1" ry=".04" transform="translate(32.078 4.455)" /><path d="M32.145 3.498v1.5h-.064v-1.5zm.492 2.916c0-.04.168-.348.168-.784 0-.412-.376-.832-.66-1.132v-1c0 .788.828 1.344.828 2.132 0 .284-.06.564-.164.828a.1.1 0 0 1-.08.048.09.09 0 0 1-.092-.092" /><rect width=".13" height="3.31" x="-.07" y="-2" ry=".04" transform="translate(32.078 15.586)" /><path d="M32.145 13.628v1.5h-.064v-1.5zm.492 2.916c0-.04.168-.348.168-.784 0-.412-.376-.832-.66-1.132v-1c0 .788.828 1.344.828 2.132 0 .284-.06.564-.164.828a.1.1 0 0 1-.08.048.09.09 0 0 1-.092-.092M32.595 19.086a.224.224 0 1 1 .447 0 .224.224 0 0 1-.447 0" /><rect width=".13" height="2.31" x="-.07" y="3.69" ry=".04" transform="translate(30.908 15.586)" /><path d="M33.445 6.14c0-.364.464-.728.868-.728.252 0 .436.14.436.36 0 .348-.44.728-.88.728-.268 0-.424-.156-.424-.36M33.445 18.27c0-.364.464-.728.868-.728.252 0 .436.14.436.36 0 .348-.44.728-.88.728-.268 0-.424-.156-.424-.36" /><rect width=".13" height="3.31" x="-.07" y="-2" ry=".04" transform="translate(34.682 4.455)" /><rect width=".13" height="3.31" x="-.07" y="-1" ry=".04" transform="translate(34.682 15.586)" /><path d="M37.399 5.14c0-.364.464-.728.868-.728.252 0 .436.14.436.36 0 .348-.44.728-.88.728-.268 0-.424-.156-.424-.36" /><text font-size="2.47" text-anchor="start" transform="translate(36.757 9.626)">
<tspan>lé-</tspan>
</text><path d="M37.399 17.27c0-.364.464-.728.868-.728.252 0 .436.14.436.36 0 .348-.44.728-.88.728-.268 0-.424-.156-.424-.36M37.399 19.27c0-.364.464-.728.868-.728.252 0 .436.14.436.36 0 .348-.44.728-.88.728-.268 0-.424-.156-.424-.36" /><rect width=".13" height="3.31" x="-.07" y="-3" ry=".04" transform="translate(38.636 4.455)" /><path d="M38.703 1.498v1.5h-.064v-1.5zm.492 2.916c0-.04.168-.348.168-.784 0-.412-.376-.832-.66-1.132v-1c0 .788.828 1.344.828 2.132 0 .284-.06.564-.164.828a.1.1 0 0 1-.08.048.09.09 0 0 1-.092-.092" /><rect width=".13" height="3.31" x="-.07" y="-2" ry=".04" transform="translate(38.636 15.586)" /><path d="M38.703 13.628v1.5h-.064v-1.5zm.492 2.916c0-.04.168-.348.168-.784 0-.412-.376-.832-.66-1.132v-1c0 .788.828 1.344.828 2.132 0 .284-.06.564-.164.828a.1.1 0 0 1-.08.048.09.09 0 0 1-.092-.092" /><rect width=".13" height="2.81" x="-.07" y="3.69" ry=".04" transform="translate(37.466 15.586)" /><path d="M37.534 22.044h-.065v-1.5h.064zm.895-2.036c0-.376-.16-.632-.16-.672 0-.056.045-.088.093-.088.027 0 .06.012.08.044.1.224.16.468.16.716 0 .812-1.069 1.224-1.069 2.036v-1c.388-.236.896-.592.896-1.036M41.06 4.64c0-.364.465-.728.869-.728.252 0 .436.14.436.36 0 .348-.44.728-.88.728-.268 0-.424-.156-.424-.36M11.152 3.64c0-.365.464-.729.868-.729.252 0 .436.14.436.36 0 .349-.44.729-.88.729-.268 0-.424-.156-.424-.36" /><text font-size="2.47" text-anchor="start" transform="translate(40.33 9.626)">
<tspan>lu-</tspan>
</text><path d="M41.06 16.77c0-.364.465-.728.869-.728.252 0 .436.14.436.36 0 .348-.44.728-.88.728-.268 0-.424-.156-.424-.36" /><path d="M41.06 17.77c0-.364.465-.728.869-.728.252 0 .436.14.436.36 0 .348-.44.728-.88.728-.268 0-.424-.156-.424-.36" /><path stroke="currentColor" stroke-linecap="round" stroke-linejoin="round" stroke-width=".08" d="M31.575 13.522c.819-.587 2.039-.353 2.604.5h0c-.589-.731-1.809-.965-2.604-.5" /><rect width=".13" height="3.15" x="-.07" y="-3.33" ry=".04" transform="translate(42.298 4.455)" /><rect width=".13" height="3.31" x="-.07" y="-2.5" ry=".04" transform="translate(42.298 15.586)" /><rect width=".13" height="2.48" x="-.07" y="2.19" ry=".04" transform="translate(41.128 15.586)" /><path stroke="currentColor" stroke-linecap="round" stroke-linejoin="round" stroke-width=".08" d="M31.41 3.892c.566-.854 1.786-1.088 2.605-.5h0c-.796-.466-2.016-.232-2.604.5M57.913 12.577v.395l-2.804.624V13.2z" /><path d="M11.152 14.77c0-.364.464-.728.868-.728.252 0 .436.14.436.36 0 .348-.44.728-.88.728-.268 0-.424-.156-.424-.36" /><text font-size="2.47" text-anchor="start" transform="translate(43.77 9.626)">
<tspan>ia !</tspan>
</text><path d="M44.682 16.27c0-.364.464-.728.868-.728.252 0 .436.14.436.36 0 .348-.44.728-.88.728-.268 0-.424-.156-.424-.36M44.682 19.77c0-.364.464-.728.868-.728.252 0 .436.14.436.36 0 .348-.44.728-.88.728-.268 0-.424-.156-.424-.36" /><rect width=".13" height="3.31" x="-.07" y="-3" ry=".04" transform="translate(45.919 4.455)" /><rect width=".13" height="3.31" x="-.07" y="-3" ry=".04" transform="translate(45.919 15.586)" /><rect width=".13" height="2.31" x="-.07" y="4.19" ry=".04" transform="translate(44.749 15.586)" /><path stroke="currentColor" stroke-linecap="round" stroke-linejoin="round" stroke-width=".08" d="M24.664 2.446v.396l-2.555-.189v-.395z" /><path d="M49.593 3.64c0-.365.463-.729.867-.729.253 0 .437.14.437.36 0 .349-.44.729-.88.729-.269 0-.425-.156-.425-.36" /><text font-size="2.47" text-anchor="start" transform="translate(49.593 9.626)">
<tspan>Al-</tspan>
</text><path d="M49.593 16.27c0-.364.463-.728.867-.728.253 0 .437.14.437.36 0 .348-.44.728-.88.728-.269 0-.425-.156-.425-.36M49.593 18.27c0-.364.463-.728.867-.728.253 0 .437.14.437.36 0 .348-.44.728-.88.728-.269 0-.425-.156-.425-.36" /><rect width=".13" height="2.94" x="-.07" y="-4.13" ry=".04" transform="translate(50.83 4.455)" /><path d="M50.897.373v1.5h-.064v-1.5zm.492 2.916c0-.04.168-.348.168-.784 0-.412-.376-.832-.66-1.132v-1c0 .788.828 1.344.828 2.132 0 .284-.06.564-.164.828a.1.1 0 0 1-.08.048.09.09 0 0 1-.092-.092" /><rect width=".13" height="3.31" x="-.07" y="-3" ry=".04" transform="translate(50.83 15.586)" /><path d="M51.347 18.086a.224.224 0 1 1 .447 0 .224.224 0 0 1-.447 0" /><rect width=".13" height="2.31" x="-.07" y="2.69" ry=".04" transform="translate(49.66 15.586)" /><path d="M52.097 5.14c0-.364.464-.728.868-.728.252 0 .436.14.436.36 0 .348-.44.728-.88.728-.268 0-.424-.156-.424-.36" /><rect width=".13" height="3.31" x="-.07" y="-3" ry=".04" transform="translate(53.334 4.455)" /><path stroke="currentColor" stroke-linecap="round" stroke-linejoin="round" stroke-width=".08" d="M22.165 1.72c.718-.595 1.879-.513 2.505.179h0c-.635-.568-1.796-.65-2.505-.179" /><path d="M53.897 17.27c0-.364.464-.728.868-.728.252 0 .436.14.436.36 0 .348-.44.728-.88.728-.268 0-.424-.156-.424-.36" /><rect width=".13" height="3.52" x="-.07" y="-2.2" ry=".04" transform="translate(55.134 15.586)" /><path d="M56.65 6.14c0-.364.465-.728.869-.728.252 0 .436.14.436.36 0 .348-.44.728-.88.728-.268 0-.424-.156-.424-.36" /><text font-size="2.47" text-anchor="start" transform="translate(56.01 9.626)">
<tspan>lé-</tspan>
</text><path d="M56.65 16.27c0-.364.465-.728.869-.728.252 0 .436.14.436.36 0 .348-.44.728-.88.728-.268 0-.424-.156-.424-.36M56.65 18.27c0-.364.465-.728.869-.728.252 0 .436.14.436.36 0 .348-.44.728-.88.728-.268 0-.424-.156-.424-.36" /><rect width=".13" height="3.31" x="-.07" y="-2" ry=".04" transform="translate(57.888 4.455)" /><path d="M57.955 2.498v1.5h-.064v-1.5zm.492 2.916c0-.04.168-.348.168-.784 0-.412-.376-.832-.66-1.132v-1c0 .788.828 1.344.828 2.132 0 .284-.06.564-.164.828a.1.1 0 0 1-.08.048.09.09 0 0 1-.092-.092" /><rect width=".13" height="3.11" x="-.07" y="-2.8" ry=".04" transform="translate(57.888 15.586)" /><rect width=".13" height="2.81" x="-.07" y="2.69" ry=".04" transform="translate(56.718 15.586)" /><path d="M56.785 21.044h-.064v-1.5h.064zm.896-2.036c0-.376-.16-.632-.16-.672 0-.056.044-.088.092-.088.028 0 .06.012.08.044.1.224.16.468.16.716 0 .812-1.068 1.224-1.068 2.036v-1c.388-.236.896-.592.896-1.036" /><path stroke="currentColor" stroke-linecap="round" stroke-linejoin="round" stroke-width=".08" d="M11.914 11.391c.834-.466 2.001-.163 2.504.65h0c-.534-.693-1.701-.996-2.504-.65" /><path d="M60.313 5.64c0-.364.464-.728.868-.728.252 0 .436.14.436.36 0 .348-.44.728-.88.728-.268 0-.424-.156-.424-.36" /><rect width=".17" height="15.23" x="0" y="-7.62" ry=".05" transform="translate(-.066 10.02)" /><text font-size="2.47" text-anchor="start" transform="translate(60.313 9.626)">
<tspan>lu-</tspan>
</text><path d="M60.313 15.77c0-.364.464-.728.868-.728.252 0 .436.14.436.36 0 .348-.44.728-.88.728-.268 0-.424-.156-.424-.36M60.313 20.27c0-.364.464-.728.868-.728.252 0 .436.14.436.36 0 .348-.44.728-.88.728-.268 0-.424-.156-.424-.36M-1.315 2.403v-.348c0-.056.044-.1.1-.1h.2C-.38 1.955.069 1.41.433.875A.06.06 0 0 1 .48.847c.032 0 .068.028.068.064a.07.07 0 0 1-.012.036c-.396.576-.86 1.456-1.552 1.456zM-1.315 17.639h.3c.692 0 1.156.88 1.552 1.456a.07.07 0 0 1 .012.036c0 .036-.036.064-.068.064a.06.06 0 0 1-.048-.028c-.364-.536-.812-1.08-1.448-1.08h-.2a.1.1 0 0 1-.1-.1z" /><rect width=".45" height="15.32" x="0" y="-7.66" ry="0" transform="translate(-1.315 10.02)" /><rect width=".13" height="2.81" x="-.07" y="-2" ry=".04" transform="translate(61.55 4.455)" /><rect width=".13" height="3.19" x="-.07" y="-3.38" ry=".04" transform="translate(61.55 15.586)" /><path d="M61.617 12.253v1.5h-.064v-1.5zm.492 2.916c0-.04.168-.348.168-.784 0-.412-.376-.832-.66-1.132v-1c0 .788.828 1.344.828 2.132 0 .284-.06.564-.164.828a.1.1 0 0 1-.08.048.09.09 0 0 1-.092-.092" /><rect width=".13" height="2.31" x="-.07" y="4.69" ry=".04" transform="translate(60.38 15.586)" /><path stroke="currentColor" stroke-linecap="round" stroke-linejoin="round" stroke-width=".08" d="M11.914.26c.834-.465 2.001-.162 2.504.65h0c-.534-.692-1.701-.995-2.504-.65" /><path d="M62.878 6.14c0-.364.464-.728.868-.728.252 0 .436.14.436.36 0 .348-.44.728-.88.728-.268 0-.424-.156-.424-.36M62.878 14.77c0-.364.464-.728.868-.728.252 0 .436.14.436.36 0 .348-.44.728-.88.728-.268 0-.424-.156-.424-.36" /><rect width=".13" height="3.13" x="-.07" y="-1.82" ry=".04" transform="translate(64.115 4.455)" /><rect width=".13" height="2.81" x="-.07" y="-4" ry=".04" transform="translate(64.115 15.586)" /><path d="M65.382 6.64c0-.364.464-.728.868-.728.252 0 .436.14.436.36 0 .348-.44.728-.88.728-.268 0-.424-.156-.424-.36M65.382 19.77c0-.364.464-.728.868-.728.252 0 .436.14.436.36 0 .348-.44.728-.88.728-.268 0-.424-.156-.424-.36" /><rect width=".13" height="3.31" x="-.07" y="-1.5" ry=".04" transform="translate(66.619 4.455)" /><rect width=".13" height="2.31" x="-.07" y="4.19" ry=".04" transform="translate(65.45 15.586)" /><path d="M67.182 15.27c0-.364.464-.728.868-.728.252 0 .436.14.436.36 0 .348-.44.728-.88.728-.268 0-.424-.156-.424-.36" /><rect width=".13" height="3.06" x="-.07" y="-3.75" ry=".04" transform="translate(68.419 15.586)" /><path d="M68.486 11.878v1.5h-.064v-1.5zm.492 2.916c0-.04.168-.348.168-.784 0-.412-.376-.832-.66-1.132v-1c0 .788.828 1.344.828 2.132 0 .284-.06.564-.164.828a.1.1 0 0 1-.08.048.09.09 0 0 1-.092-.092M72.132 7.38c.16 0 .816-.44.924-.572a.2.2 0 0 0 .044-.112.166.166 0 0 0-.168-.164c-.16 0-.816.44-.924.572a.2.2 0 0 0-.04.112c0 .088.068.164.164.164m-.288-.157c0-.284.184-.812 1.032-.812.164 0 .344.04.344.276 0 .284-.184.812-1.032.812-.164 0-.344-.04-.344-.276" /><text font-size="2.47" text-anchor="start" transform="translate(70.969 9.626)">
<tspan>ia !</tspan>
</text><path d="M72.132 15.01c.16 0 .816-.44.924-.572a.2.2 0 0 0 .044-.112.166.166 0 0 0-.168-.164c-.16 0-.816.44-.924.572a.2.2 0 0 0-.04.112c0 .088.068.164.164.164m-.288-.156c0-.284.184-.812 1.032-.812.164 0 .344.04.344.276 0 .284-.184.812-1.032.812-.164 0-.344-.04-.344-.276M72.132 18.51c.16 0 .816-.44.924-.572a.2.2 0 0 0 .044-.112.166.166 0 0 0-.168-.164c-.16 0-.816.44-.924.572a.2.2 0 0 0-.04.112c0 .088.068.164.164.164m-.288-.156c0-.284.184-.812 1.032-.812.164 0 .344.04.344.276 0 .284-.184.812-1.032.812-.164 0-.344-.04-.344-.276" /><rect width=".13" height="3.24" x="-.07" y="-1" ry=".04" transform="translate(73.154 4.455)" /><rect width=".13" height="2.74" x="-.07" y="-4" ry=".04" transform="translate(73.154 15.586)" /><rect width=".13" height="2.24" x="-.07" y="2.76" ry=".04" transform="translate(71.911 15.586)" /><path d="M44.682 5.14c0-.364.464-.728.868-.728.252 0 .436.14.436.36 0 .348-.44.728-.88.728-.268 0-.424-.156-.424-.36" /></svg>