<svg xmlns="http://www.w3.org/2000/svg" width="558.61" height="79.94" viewBox="0 0 88.54 12.67" fill="currentColor" font-family="Linux Libertine"><style type="text/css">tspan{white-space:pre}</style><rect width=".2" height="4" x="0" y="-2" ry="0" transform="translate(26.136 4)" /><path stroke="currentColor" stroke-linecap="round" stroke-linejoin="round" stroke-width=".1" d="M.05 6h88.43M.05 5h88.43M.05 4h88.43M.05 3h88.43M.05 2h88.43" /><rect width=".62" height="4" x="0" y="-2" ry="0" transform="translate(87.915 4)" /><rect width=".2" height="4" x="0" y="-2" ry="0" transform="translate(87.408 4)" /><rect width=".2" height="4" x="0" y="-2" ry="0" transform="translate(81.236 4)" /><rect width=".2" height="4" x="0" y="-2" ry="0" transform="translate(74.37 4)" /><rect width=".2" height="4" x="0" y="-2" ry="0" transform="translate(59.896 4)" /><rect width=".2" height="4" x="0" y="-2" ry="0" transform="translate(53.308 4)" /><rect width="2.07" height=".2" x="81.99" y="-.1" ry=".1" transform="translate(0 7)" /><rect width="2.07" height=".2" x="76.51" y="-.1" ry=".1" transform="translate(0 7)" /><rect width="2.07" height=".2" x="54.56" y="-.1" ry=".1" transform="translate(0 7)" /><rect width="1.96" height=".2" x="34.49" y="-.1" ry=".1" transform="translate(0 7)" /><rect width="1.96" height=".2" x="27.16" y="-.1" ry=".1" transform="translate(0 7)" /><rect width="1.96" height=".2" x="27.16" y="-.1" ry=".1" transform="translate(0 8)" /><rect width="1.96" height=".2" x="22.52" y="-.1" ry=".1" transform="translate(0 7)" /><rect width="1.96" height=".2" x="17.42" y="-.1" ry=".1" transform="translate(0 7)" /><rect width="1.96" height=".2" x="12.62" y="-.1" ry=".1" transform="translate(0 7)" /><rect width="1.96" height=".2" x="7.28" y="-.1" ry=".1" transform="translate(0 7)" /><rect width=".2" height="4" x="0" y="-2" ry="0" transform="translate(37.553 4)" /><rect width=".13" height="3.81" x="-.07" y=".69" ry=".04" transform="translate(49.523 4)" /><path d="M7.605 7.184c0-.364.464-.728.868-.728.252 0 .436.14.436.36 0 .348-.44.728-.88.728-.268 0-.424-.156-.424-.36" /><path d="M7.605 7.184c0-.364.464-.728.868-.728.252 0 .436.14.436.36 0 .348-.44.728-.88.728-.268 0-.424-.156-.424-.36M1.864 7.54H1.84a.783.783 0 0 1-.78-.788c0-.232.212-.412.448-.412.216 0 .38.188.38.412 0 .208-.172.38-.38.38a.3.3 0 0 1-.124-.024c.104.156.272.26.468.26h.016zm.54-3.144c.076.356.192.968.24 1.416a.67.67 0 0 0 .448-.652.753.753 0 0 0-.688-.764m-1.308.492c0 .448.392.988 1.112.988q.127 0 .272-.024a17 17 0 0 0-.252-1.456c-.316.032-.496.244-.496.476 0 .176.1.364.324.492q.029.03.028.06c0 .044-.04.088-.088.088-.06 0-.504-.248-.504-.748 0-.352.232-.696.64-.788a15 15 0 0 0-.184-.7c-.428.484-.852.972-.852 1.612M2.228.224c.112 0 .572.824.572 1.444 0 .572-.344 1.02-.72 1.456.084.272.156.552.224.828.02 0 .04-.004.056-.004.62 0 1.02.516 1.02 1.048 0 .452-.296.848-.72.98q.019.21.02.42c0 .076-.004.156-.008.232-.028.476-.352.9-.808.912l.004-.172c.372-.008.612-.368.636-.764a3.775 3.775 0 0 0-.008-.588q-.169.031-.32.032C1.22 6.048.808 5.18.808 4.552c0-.708.524-1.224.992-1.764-.116-.384-.208-.68-.208-1.384 0-.756.576-1.18.636-1.18m-.44 1.648c0 .22.048.46.14.76.328-.4.588-.808.588-1.304 0-.16-.024-.328-.084-.508a1.13 1.13 0 0 0-.644 1.052M4.413 3.836l-.004.264v.044q-.001.132.016.264c.18-.152.372-.32.372-.556 0-.132-.056-.268-.172-.268-.124 0-.208.12-.212.252m-.168.716-.048-2.38c.032-.02.072-.032.108-.032s.076.012.108.032l-.028 1.38a.58.58 0 0 1 .364-.136c.208 0 .356.192.356.408 0 .32-.344.468-.588.676-.06.052-.096.152-.18.152-.052 0-.092-.044-.092-.1" /><text font-size="2.47" text-anchor="start" transform="translate(5.31 12.08)">
<tspan>Gran-</tspan>
</text><rect width=".13" height="3.31" x="-.07" y="-.5" ry=".04" transform="translate(8.842 4)" /><rect width=".13" height="2.31" x="-.07" y="3.19" ry=".04" transform="translate(7.672 4)" /><path stroke="currentColor" stroke-linecap="round" stroke-linejoin="round" stroke-width=".08" d="M77.158 3.726c1.321-1.497 4.796-1.497 6.117 0h0c-1.321-1.372-4.796-1.372-6.117 0" /><path d="M12.943 7.184c0-.364.464-.728.868-.728.252 0 .436.14.436.36 0 .348-.44.728-.88.728-.268 0-.424-.156-.424-.36" /><path d="M12.943 7.184c0-.364.464-.728.868-.728.252 0 .436.14.436.36 0 .348-.44.728-.88.728-.268 0-.424-.156-.424-.36" /><text font-size="2.47" text-anchor="start" transform="translate(11.654 12.08)">
<tspan>des,</tspan>
</text><rect width=".13" height="3.31" x="-.07" y="-.5" ry=".04" transform="translate(14.18 4)" /><rect width=".13" height="2.31" x="-.07" y="3.19" ry=".04" transform="translate(13.01 4)" /><path d="M17.742 6.684c0-.364.464-.728.868-.728.252 0 .436.14.436.36 0 .348-.44.728-.88.728-.268 0-.424-.156-.424-.36" /><path d="M17.742 7.684c0-.364.464-.728.868-.728.252 0 .436.14.436.36 0 .348-.44.728-.88.728-.268 0-.424-.156-.424-.36" /><text font-size="2.47" text-anchor="start" transform="translate(15.986 12.08)">
<tspan>mer-</tspan>
</text><rect width=".13" height="3.13" x="-.07" y="-.81" ry=".04" transform="translate(18.979 4)" /><rect width=".13" height="2.13" x="-.07" y="3.69" ry=".04" transform="translate(17.809 4)" /><path d="M22.846 6.184c0-.364.464-.728.868-.728.252 0 .436.14.436.36 0 .348-.44.728-.88.728-.268 0-.424-.156-.424-.36M22.846 7.684c0-.364.464-.728.868-.728.252 0 .436.14.436.36 0 .348-.44.728-.88.728-.268 0-.424-.156-.424-.36" /><text font-size="2.47" text-anchor="start" transform="translate(21.252 12.08)">
<tspan>veil-</tspan>
</text><rect width=".13" height="2.81" x="-.07" y="-1" ry=".04" transform="translate(24.083 4)" /><rect width=".13" height="2.13" x="-.07" y="3.69" ry=".04" transform="translate(22.913 4)" /><path stroke="currentColor" stroke-linecap="round" stroke-linejoin="round" stroke-width=".08" d="M71.887 8.614v.396H61.052v-.396z" /><path d="M27.483 5.684c0-.364.464-.728.868-.728.252 0 .436.14.436.36 0 .348-.44.728-.88.728-.268 0-.424-.156-.424-.36M27.483 8.184c0-.364.464-.728.868-.728.252 0 .436.14.436.36 0 .348-.44.728-.88.728-.268 0-.424-.156-.424-.36" /><path stroke="currentColor" stroke-linecap="round" stroke-linejoin="round" stroke-width=".08" d="M73.057 1.614v.396l-10.835-.624V.99z" /><text font-size="2.47" text-anchor="start" transform="translate(26.194 12.08)">
<tspan>leu-</tspan>
</text><rect width=".13" height="3.31" x="-.07" y="-2" ry=".04" transform="translate(28.72 4)" /><rect width=".13" height="2.31" x="-.07" y="4.19" ry=".04" transform="translate(27.55 4)" /><path d="M31.401 5.684c0-.364.464-.728.868-.728.252 0 .436.14.436.36 0 .348-.44.728-.88.728-.268 0-.424-.156-.424-.36" /><path d="M31.401 6.684c0-.364.464-.728.868-.728.252 0 .436.14.436.36 0 .348-.44.728-.88.728-.268 0-.424-.156-.424-.36" /><text font-size="2.47" text-anchor="start" transform="translate(30.526 12.08)">
<tspan>ses</tspan>
</text><rect width=".13" height="3.13" x="-.07" y="-1.82" ry=".04" transform="translate(32.638 4)" /><rect width=".13" height="2.51" x="-.07" y="2.69" ry=".04" transform="translate(31.468 4)" /><path d="M34.816 5.184c0-.364.464-.728.868-.728.252 0 .436.14.436.36 0 .348-.44.728-.88.728-.268 0-.424-.156-.424-.36M34.816 7.184c0-.364.464-.728.868-.728.252 0 .436.14.436.36 0 .348-.44.728-.88.728-.268 0-.424-.156-.424-.36" /><text font-size="2.47" text-anchor="start" transform="translate(34.03 12.08)">
<tspan>tes</tspan>
</text><rect width=".13" height="2.81" x="-.07" y="-2" ry=".04" transform="translate(36.053 4)" /><rect width=".13" height="2.31" x="-.07" y="3.19" ry=".04" transform="translate(34.883 4)" /><path d="M38.717 4.684c0-.364.464-.728.868-.728.252 0 .436.14.436.36 0 .348-.44.728-.88.728-.268 0-.424-.156-.424-.36" /><path d="M38.717 5.684c0-.364.464-.728.868-.728.252 0 .436.14.436.36 0 .348-.44.728-.88.728-.268 0-.424-.156-.424-.36" /><text font-size="2.47" text-anchor="start" transform="translate(37.356 12.08)">
<tspan>œu-</tspan>
</text><rect width=".13" height="3.31" x="-.07" y="-3" ry=".04" transform="translate(39.953 4)" /><rect width=".13" height="2.65" x="-.07" y="1.69" ry=".04" transform="translate(38.784 4)" /><path d="M43.551 4.684c0-.364.464-.728.868-.728.252 0 .436.14.436.36 0 .348-.44.728-.88.728-.268 0-.424-.156-.424-.36" /><path d="M43.551 5.684c0-.364.464-.728.868-.728.252 0 .436.14.436.36 0 .348-.44.728-.88.728-.268 0-.424-.156-.424-.36" /><text font-size="2.47" text-anchor="start" transform="translate(41.831 12.08)">
<tspan>vres,</tspan>
</text><rect width=".13" height="3.31" x="-.07" y="-3" ry=".04" transform="translate(44.788 4)" /><rect width=".13" height="2.65" x="-.07" y="1.69" ry=".04" transform="translate(43.618 4)" /><path d="M47.536 1.18c.315 0 .183.392.363.392.064 0 .216-.192.244-.252q.019-.036.056-.036c.037 0 .048.012.056.036L47.763 3q-.048.041-.108.04c-.06-.001-.08-.012-.112-.04l.468-1.304a1.3 1.3 0 0 1-.42.088c-.232 0-.34-.164-.34-.32 0-.144.096-.284.284-.284M47.536 5.18c.315 0 .183.392.363.392.064 0 .216-.192.244-.252q.019-.036.056-.036c.037 0 .048.012.056.036L47.763 7q-.048.041-.108.04c-.06-.001-.08-.012-.112-.04l.468-1.304a1.3 1.3 0 0 1-.42.088c-.232 0-.34-.164-.34-.32 0-.144.096-.284.284-.284" /><path stroke="currentColor" stroke-linecap="round" stroke-linejoin="round" stroke-width=".08" d="M34.909 9.302v.396l-3.466-.312V8.99z" /><path d="M49.456 3.684c0-.364.463-.728.867-.728.253 0 .437.14.437.36 0 .348-.44.728-.88.728-.269 0-.425-.156-.425-.36M49.456 5.684c0-.364.463-.728.867-.728.253 0 .437.14.437.36 0 .348-.44.728-.88.728-.269 0-.425-.156-.425-.36" /><path d="M49.456 4.684c0-.364.463-.728.867-.728.253 0 .437.14.437.36 0 .348-.44.728-.88.728-.269 0-.425-.156-.425-.36" /><text font-size="2.47" text-anchor="start" transform="translate(48.203 12.08)">
<tspan>Sei-</tspan>
</text><rect width=".13" height="3.06" x="-.07" y="-3.75" ry=".04" transform="translate(50.692 4)" /><path d="M50.76.292v1.5h-.064v-1.5zm.492 2.916c0-.04.168-.348.168-.784 0-.412-.376-.832-.66-1.132v-1c0 .788.828 1.344.828 2.132 0 .284-.06.564-.164.828a.1.1 0 0 1-.08.048.09.09 0 0 1-.092-.092M49.59 8.458h-.064v-1.5h.064zm.896-2.036c0-.376-.16-.632-.16-.672 0-.056.044-.088.092-.088.028 0 .06.012.08.044.1.224.16.468.16.716 0 .812-1.068 1.224-1.068 2.036v-1c.388-.236.896-.592.896-1.036" /><path stroke="currentColor" stroke-linecap="round" stroke-linejoin="round" stroke-width=".08" d="M36.078 1.802v.396l-3.465.188V1.99z" /><path d="M55.189 3.424c.16 0 .815-.44.923-.572a.2.2 0 0 0 .044-.112.166.166 0 0 0-.168-.164c-.16 0-.816.44-.924.572a.2.2 0 0 0-.04.112c0 .088.068.164.164.164m-.288-.156c0-.284.183-.812 1.031-.812.165 0 .345.04.345.276 0 .284-.184.812-1.032.812-.164 0-.344-.04-.344-.276M55.189 7.924c.16 0 .815-.44.923-.572a.2.2 0 0 0 .044-.112.166.166 0 0 0-.168-.164c-.16 0-.816.44-.924.572a.2.2 0 0 0-.04.112c0 .088.068.164.164.164m-.288-.156c0-.284.183-.812 1.031-.812.165 0 .345.04.345.276 0 .284-.184.812-1.032.812-.164 0-.344-.04-.344-.276M55.189 5.924c.16 0 .815-.44.923-.572a.2.2 0 0 0 .044-.112.166.166 0 0 0-.168-.164c-.16 0-.816.44-.924.572a.2.2 0 0 0-.04.112c0 .088.068.164.164.164m-.288-.156c0-.284.183-.812 1.031-.812.165 0 .345.04.345.276 0 .284-.184.812-1.032.812-.164 0-.344-.04-.344-.276" /><text font-size="2.47" text-anchor="start" transform="translate(52.462 12.08)">
<tspan>gneur,</tspan>
</text><rect width=".13" height="2.74" x="-.07" y="-4" ry=".04" transform="translate(56.21 4)" /><rect width=".13" height="4.24" x="-.07" y="1.76" ry=".04" transform="translate(54.968 4)" /><path d="M61.01 3.684c0-.364.464-.728.868-.728.252 0 .436.14.436.36 0 .348-.44.728-.88.728-.268 0-.424-.156-.424-.36M61.01 6.684c0-.364.464-.728.868-.728.252 0 .436.14.436.36 0 .348-.44.728-.88.728-.268 0-.424-.156-.424-.36" /><path d="M61.01 5.684c0-.364.464-.728.868-.728.252 0 .436.14.436.36 0 .348-.44.728-.88.728-.268 0-.424-.156-.424-.36" /><text font-size="2.47" text-anchor="start" transform="translate(59.254 12.08)">
<tspan>Dieu</tspan>
</text><rect width=".13" height="2.12" x="-.07" y="-2.81" ry=".04" transform="translate(62.247 4)" /><rect width=".13" height="3.13" x="-.07" y="1.69" ry=".04" transform="translate(61.078 4)" /><path d="M65.054 4.184c0-.364.464-.728.868-.728.252 0 .436.14.436.36 0 .348-.44.728-.88.728-.268 0-.424-.156-.424-.36M65.054 6.184c0-.364.464-.728.868-.728.252 0 .436.14.436.36 0 .348-.44.728-.88.728-.268 0-.424-.156-.424-.36" /><path d="M65.054 5.184c0-.364.464-.728.868-.728.252 0 .436.14.436.36 0 .348-.44.728-.88.728-.268 0-.424-.156-.424-.36" /><text font-size="2.47" text-anchor="start" transform="translate(64.52 12.08)">
<tspan>de</tspan>
</text><rect width=".13" height="2.39" x="-.07" y="-2.58" ry=".04" transform="translate(66.291 4)" /><rect width=".13" height="3.63" x="-.07" y="1.19" ry=".04" transform="translate(65.122 4)" /><path stroke="currentColor" stroke-linecap="round" stroke-linejoin="round" stroke-width=".08" d="M22.938 9.614v.396h-5.154v-.396z" /><path d="M68.308 4.684c0-.364.464-.728.868-.728.252 0 .436.14.436.36 0 .348-.44.728-.88.728-.268 0-.424-.156-.424-.36" /><path d="M68.308 5.684c0-.364.464-.728.868-.728.252 0 .436.14.436.36 0 .348-.44.728-.88.728-.268 0-.424-.156-.424-.36" /><text font-size="2.47" text-anchor="start" transform="translate(67.343 12.08)">
<tspan>l'u-</tspan>
</text><rect width=".13" height="2.71" x="-.07" y="-2.39" ry=".04" transform="translate(69.545 4)" /><rect width=".13" height="3.13" x="-.07" y="1.69" ry=".04" transform="translate(68.375 4)" /><path stroke="currentColor" stroke-linecap="round" stroke-linejoin="round" stroke-width=".08" d="M24.108 2.802v.396l-5.154.188V2.99z" /><path d="M71.795 4.684c0-.364.464-.728.868-.728.252 0 .436.14.436.36 0 .348-.44.728-.88.728-.268 0-.424-.156-.424-.36" /><path d="M71.795 5.684c0-.364.464-.728.868-.728.252 0 .436.14.436.36 0 .348-.44.728-.88.728-.268 0-.424-.156-.424-.36" /><text font-size="2.47" text-anchor="start" transform="translate(71.027 12.08)">
<tspan>ni-</tspan>
</text><rect width=".13" height="2.51" x="-.07" y="-2.19" ry=".04" transform="translate(73.032 4)" /><rect width=".13" height="3.13" x="-.07" y="1.69" ry=".04" transform="translate(71.862 4)" /><path d="M75.769 5.424c.16 0 .816-.44.924-.572a.2.2 0 0 0 .044-.112.166.166 0 0 0-.168-.164c-.16 0-.816.44-.924.572a.2.2 0 0 0-.04.112c0 .088.068.164.164.164m-.288-.156c0-.284.184-.812 1.032-.812.164 0 .344.04.344.276 0 .284-.184.812-1.032.812-.164 0-.344-.04-.344-.276M77.146 7.424c.16 0 .816-.44.924-.572a.2.2 0 0 0 .044-.112.166.166 0 0 0-.168-.164c-.16 0-.816.44-.924.572a.2.2 0 0 0-.04.112c0 .088.068.164.164.164m-.288-.156c0-.284.184-.812 1.032-.812.164 0 .344.04.344.276 0 .284-.184.812-1.032.812-.164 0-.344-.04-.344-.276M77.146 5.924c.16 0 .816-.44.924-.572a.2.2 0 0 0 .044-.112.166.166 0 0 0-.168-.164c-.16 0-.816.44-.924.572a.2.2 0 0 0-.04.112c0 .088.068.164.164.164m-.288-.156c0-.284.184-.812 1.032-.812.164 0 .344.04.344.276 0 .284-.184.812-1.032.812-.164 0-.344-.04-.344-.276" /><text font-size="2.47" text-anchor="start" transform="translate(75.48 12.08)">
<tspan>vers !</tspan>
</text><rect width=".13" height="3.24" x="-.07" y="-2.5" ry=".04" transform="translate(76.79 4)" /><rect width=".13" height="3.74" x="-.07" y="1.76" ry=".04" transform="translate(76.925 4)" /><path d="M82.62 5.424c.16 0 .817-.44.925-.572a.2.2 0 0 0 .044-.112.166.166 0 0 0-.168-.164c-.16 0-.816.44-.924.572a.2.2 0 0 0-.04.112c0 .088.068.164.164.164m-.287-.156c0-.284.184-.812 1.032-.812.164 0 .344.04.344.276 0 .284-.184.812-1.032.812-.164 0-.344-.04-.344-.276M82.62 7.424c.16 0 .817-.44.925-.572a.2.2 0 0 0 .044-.112.166.166 0 0 0-.168-.164c-.16 0-.816.44-.924.572a.2.2 0 0 0-.04.112c0 .088.068.164.164.164m-.287-.156c0-.284.184-.812 1.032-.812.164 0 .344.04.344.276 0 .284-.184.812-1.032.812-.164 0-.344-.04-.344-.276" /><path d="M82.62 6.424c.16 0 .817-.44.925-.572a.2.2 0 0 0 .044-.112.166.166 0 0 0-.168-.164c-.16 0-.816.44-.924.572a.2.2 0 0 0-.04.112c0 .088.068.164.164.164m-.287-.156c0-.284.184-.812 1.032-.812.164 0 .344.04.344.276 0 .284-.184.812-1.032.812-.164 0-.344-.04-.344-.276" /><rect width=".13" height="3.24" x="-.07" y="-2.5" ry=".04" transform="translate(83.643 4)" /><rect width=".13" height="3.24" x="-.07" y="2.26" ry=".04" transform="translate(82.4 4)" /><path stroke="currentColor" stroke-linecap="round" stroke-linejoin="round" stroke-width=".08" d="M77.293 8.045c1.106 1.016 3.633 1.016 4.74 0h0c-1.107.892-3.634.892-4.74 0" /></svg>