<svg xmlns="http://www.w3.org/2000/svg" width="325.04" height="82.43" viewBox="0 0 51.51 13.07" fill="currentColor" font-family="Linux Libertine"><style type="text/css">tspan{white-space:pre}</style><rect width=".2" height="4" x="0" y="-2" ry="0" transform="translate(27.333 4.693)" /><path stroke="currentColor" stroke-linecap="round" stroke-linejoin="round" stroke-width=".1" d="M.05 6.693h51.41M.05 5.693h51.41M.05 4.693h51.41M.05 3.693h51.41M.05 2.693h51.41" /><rect width=".62" height="4" x="0" y="-2" ry="0" transform="translate(50.893 4.693)" /><rect width=".2" height="4" x="0" y="-2" ry="0" transform="translate(50.386 4.693)" /><rect width=".2" height="4" x="0" y="-2" ry="0" transform="translate(44.175 4.693)" /><path stroke="currentColor" stroke-linecap="round" stroke-linejoin="round" stroke-width=".08" d="M40.668 8.995v.396l-6.65-.312v-.396z" /><path d="M10.792 5.877c0-.364.464-.728.868-.728.252 0 .436.14.436.36 0 .348-.44.728-.88.728-.268 0-.424-.156-.424-.36" /><path d="M10.792 5.877c0-.364.464-.728.868-.728.252 0 .436.14.436.36 0 .348-.44.728-.88.728-.268 0-.424-.156-.424-.36M1.864 8.233H1.84a.783.783 0 0 1-.78-.788c0-.232.212-.412.448-.412.216 0 .38.188.38.412 0 .208-.172.38-.38.38a.3.3 0 0 1-.124-.024c.104.156.272.26.468.26h.016zm.54-3.144c.076.356.192.968.24 1.416a.67.67 0 0 0 .448-.652.753.753 0 0 0-.688-.764m-1.308.492c0 .448.392.988 1.112.988q.127 0 .272-.024a17 17 0 0 0-.252-1.456c-.316.032-.496.244-.496.476 0 .176.1.364.324.492q.029.03.028.06c0 .044-.04.088-.088.088-.06 0-.504-.248-.504-.748 0-.352.232-.696.64-.788a15 15 0 0 0-.184-.7c-.428.484-.852.972-.852 1.612M2.228.917c.112 0 .572.824.572 1.444 0 .572-.344 1.02-.72 1.456.084.272.156.552.224.828q.031-.002.056-.004c.62 0 1.02.516 1.02 1.048 0 .452-.296.848-.72.98q.019.21.02.42-.001.116-.008.232c-.028.476-.352.9-.808.912l.004-.172c.372-.008.612-.368.636-.764a3.775 3.775 0 0 0-.008-.588q-.169.031-.32.032C1.22 6.74.808 5.873.808 5.245c0-.708.524-1.224.992-1.764-.116-.384-.208-.68-.208-1.384 0-.756.576-1.18.636-1.18m-.44 1.648c0 .22.048.46.14.76.328-.4.588-.808.588-1.304 0-.16-.024-.328-.084-.508a1.13 1.13 0 0 0-.644 1.052M4.413 4.529l-.004.264v.044q-.001.132.016.264c.18-.152.372-.32.372-.556 0-.132-.056-.268-.172-.268-.124 0-.208.12-.212.252m-.168.716-.048-2.38c.032-.02.072-.032.108-.032s.076.012.108.032l-.028 1.38a.58.58 0 0 1 .364-.136c.208 0 .356.192.356.408 0 .32-.344.468-.588.676-.06.052-.096.152-.18.152-.052 0-.092-.044-.092-.1M5.333 3.029l-.004.264v.044q-.001.132.016.264c.18-.152.372-.32.372-.556 0-.132-.056-.268-.172-.268-.124 0-.208.12-.212.252m-.168.716-.048-2.38c.032-.02.072-.032.108-.032s.076.012.108.032l-.028 1.38a.58.58 0 0 1 .364-.136c.208 0 .356.192.356.408 0 .32-.344.468-.588.676-.06.052-.096.152-.18.152-.052 0-.092-.044-.092-.1M8.163 4.693c-.352 0-.36-.264-.576-.264-.12 0-.236.08-.248.22-.004.028-.024.044-.044.044-.024 0-.048-.016-.048-.044V4.64c.06-.688.928-.66.928-1.368 0-.236-.064-.488-.268-.488-.1 0-.196.056-.196.148 0 .108.14.164.14.272a.277.277 0 0 1-.552 0c0-.304.288-.512.608-.512.38 0 .732.228.732.58 0 .604-.6.636-.984.88a.5.5 0 0 1 .108-.012c.332 0 .444.236.684.236.192 0 .152-.152.22-.152.024 0 .048.02.048.048 0 .088-.176.42-.552.42" /><path d="M7.959 6.225h.468c0 .192.108.376.288.376.032 0 .048.02.048.044s-.016.048-.048.048c-.176 0-.348-.052-.524-.052s-.348.052-.524.052c-.032 0-.048-.024-.048-.048s.016-.044.048-.044c.18 0 .292-.184.292-.376m.116-1.48c.144 0 .276-.056.304-.056.032 0 .056.024.056.048q-.001.01-.008.02l-1.136 1.32h.668v-.524c0-.136.136-.108.272-.288.088-.12.092-.224.144-.224.024 0 .052.02.052.056v.98h.288c.04 0 .06.028.06.056s-.02.06-.06.06h-.288v.032h-.468v-.032h-.668c-.092 0-.124-.056-.124-.092 0-.048.56-.572.56-1.344 0-.036.024-.064.052-.064.02 0 .156.052.296.052" /><text font-size="2.47" text-anchor="start" transform="translate(8.82 12.479)">
<tspan>Nous</tspan>
</text><rect width=".13" height="2.81" x="-.07" y="-2" ry=".04" transform="translate(12.03 4.693)" /><rect width=".13" height="2.63" x="-.07" y="1.19" ry=".04" transform="translate(10.86 4.693)" /><path d="M14.818 5.877c0-.364.464-.728.868-.728.252 0 .436.14.436.36 0 .348-.44.728-.88.728-.268 0-.424-.156-.424-.36" /><path d="M14.818 5.877c0-.364.464-.728.868-.728.252 0 .436.14.436.36 0 .348-.44.728-.88.728-.268 0-.424-.156-.424-.36" /><text font-size="2.47" text-anchor="start" transform="translate(14.518 12.479)">
<tspan>te</tspan>
</text><rect width=".13" height="2.81" x="-.07" y="-2" ry=".04" transform="translate(16.055 4.693)" /><rect width=".13" height="2.63" x="-.07" y="1.19" ry=".04" transform="translate(14.886 4.693)" /><path d="M18.305 5.877c0-.364.464-.728.868-.728.252 0 .436.14.436.36 0 .348-.44.728-.88.728-.268 0-.424-.156-.424-.36" /><path d="M18.305 5.877c0-.364.464-.728.868-.728.252 0 .436.14.436.36 0 .348-.44.728-.88.728-.268 0-.424-.156-.424-.36" /><text font-size="2.47" text-anchor="start" transform="translate(16.873 12.479)">
<tspan>ren-</tspan>
</text><rect width=".13" height="2.81" x="-.07" y="-2" ry=".04" transform="translate(19.542 4.693)" /><rect width=".13" height="2.63" x="-.07" y="1.19" ry=".04" transform="translate(18.373 4.693)" /><text font-size="1.75" font-style="italic" text-anchor="start" transform="translate(36.947 10.904)">
<tspan>3</tspan>
</text><path d="M23.248 5.877c0-.364.464-.728.868-.728.252 0 .436.14.436.36 0 .348-.44.728-.88.728-.268 0-.424-.156-.424-.36" /><path d="M23.248 5.877c0-.364.464-.728.868-.728.252 0 .436.14.436.36 0 .348-.44.728-.88.728-.268 0-.424-.156-.424-.36" /><text font-size="2.47" text-anchor="start" transform="translate(21.492 12.479)">
<tspan>dons</tspan>
</text><rect width=".13" height="2.81" x="-.07" y="-2" ry=".04" transform="translate(24.485 4.693)" /><rect width=".13" height="2.63" x="-.07" y="1.19" ry=".04" transform="translate(23.315 4.693)" /><text font-size="1.75" font-style="italic" text-anchor="start" transform="translate(38.117 1.065)">
<tspan>3</tspan>
</text><path d="M29.071 3.877c0-.364.464-.728.868-.728.252 0 .436.14.436.36 0 .348-.44.728-.88.728-.268 0-.424-.156-.424-.36M29.071 7.377c0-.364.464-.728.868-.728.252 0 .436.14.436.36 0 .348-.44.728-.88.728-.268 0-.424-.156-.424-.36M29.071 5.377c0-.364.464-.728.868-.728.252 0 .436.14.436.36 0 .348-.44.728-.88.728-.268 0-.424-.156-.424-.36" /><text font-size="2.47" text-anchor="start" transform="translate(26.758 12.479)">
<tspan>grâce,</tspan>
</text><rect width=".13" height="2.81" x="-.07" y="-4" ry=".04" transform="translate(30.308 4.693)" /><rect width=".13" height="4.31" x="-.07" y=".69" ry=".04" transform="translate(29.138 4.693)" /><path stroke="currentColor" stroke-linecap="round" stroke-linejoin="round" stroke-width=".08" d="M41.837 1.683v.396h-6.65v-.396z" /><path d="M33.975 6.377c0-.364.464-.728.868-.728.252 0 .436.14.436.36 0 .348-.44.728-.88.728-.268 0-.424-.156-.424-.36" /><path d="M33.975 5.377c0-.364.464-.728.868-.728.252 0 .436.14.436.36 0 .348-.44.728-.88.728-.268 0-.424-.156-.424-.36" /><text font-size="2.47" text-anchor="start" transform="translate(33.765 12.479)">
<tspan>Ô</tspan>
</text><rect width=".13" height="2.13" x="-.07" y="-2.81" ry=".04" transform="translate(35.212 4.693)" /><rect width=".13" height="3.51" x="-.07" y=".69" ry=".04" transform="translate(34.042 4.693)" /><path d="M37.016 4.877c0-.364.464-.728.868-.728.252 0 .436.14.436.36 0 .348-.44.728-.88.728-.268 0-.424-.156-.424-.36M35.78 6.377c0-.364.463-.728.867-.728.252 0 .436.14.436.36 0 .348-.44.728-.88.728-.268 0-.424-.156-.424-.36" /><path d="M37.016 5.877c0-.364.464-.728.868-.728.252 0 .436.14.436.36 0 .348-.44.728-.88.728-.268 0-.424-.156-.424-.36" /><text font-size="2.47" text-anchor="start" transform="translate(35.961 12.479)">
<tspan>no-</tspan>
</text><rect width=".13" height="2.63" x="-.07" y="-2.81" ry=".04" transform="translate(38.253 4.693)" /><rect width=".13" height="3.15" x="-.07" y="1.19" ry=".04" transform="translate(37.084 4.693)" /><path d="M40.575 4.377c0-.364.464-.728.868-.728.252 0 .436.14.436.36 0 .348-.44.728-.88.728-.268 0-.424-.156-.424-.36M40.575 6.877c0-.364.464-.728.868-.728.252 0 .436.14.436.36 0 .348-.44.728-.88.728-.268 0-.424-.156-.424-.36" /><path d="M40.575 5.877c0-.364.464-.728.868-.728.252 0 .436.14.436.36 0 .348-.44.728-.88.728-.268 0-.424-.156-.424-.36" /><text font-size="2.47" text-anchor="start" transform="translate(39.826 12.479)">
<tspan>tre</tspan>
</text><rect width=".13" height="2.13" x="-.07" y="-2.81" ry=".04" transform="translate(41.812 4.693)" /><rect width=".13" height="3.31" x="-.07" y="1.19" ry=".04" transform="translate(40.642 4.693)" /><path stroke="currentColor" stroke-linecap="round" stroke-linejoin="round" stroke-width=".08" d="M23.34 7.495v.396H10.834v-.396zM23.34 8.307v.395H10.834v-.396zM24.51 2.495v.396H12.004v-.396zM24.51 3.307v.395H12.004v-.396z" /><path d="M45.5 3.877c0-.364.464-.728.868-.728.252 0 .436.14.436.36 0 .348-.44.728-.88.728-.268 0-.424-.156-.424-.36M45.5 7.377c0-.364.464-.728.868-.728.252 0 .436.14.436.36 0 .348-.44.728-.88.728-.268 0-.424-.156-.424-.36M45.5 5.377c0-.364.464-.728.868-.728.252 0 .436.14.436.36 0 .348-.44.728-.88.728-.268 0-.424-.156-.424-.36" /><text font-size="2.47" text-anchor="start" transform="translate(43.079 12.479)">
<tspan>Dieu !</tspan>
</text><rect width=".13" height="2.81" x="-.07" y="-4" ry=".04" transform="translate(46.737 4.693)" /><rect width=".13" height="4.31" x="-.07" y=".69" ry=".04" transform="translate(45.567 4.693)" /><path d="M33.975 4.377c0-.364.464-.728.868-.728.252 0 .436.14.436.36 0 .348-.44.728-.88.728-.268 0-.424-.156-.424-.36" /></svg>