<svg xmlns="http://www.w3.org/2000/svg" width="468.89" height="75.36" viewBox="0 -0.02 74.31 11.94" fill="currentColor" font-family="Linux Libertine"><style type="text/css">tspan{white-space:pre}</style><rect width=".2" height="4" x="0" y="-2" ry="0" transform="translate(30.433 3.776)" /><path stroke="currentColor" stroke-linecap="round" stroke-linejoin="round" stroke-width=".1" d="M.05 5.776h74.21M.05 4.776h74.21M.05 3.776h74.21M.05 2.776h74.21M.05 1.776h74.21" /><rect width=".62" height="4" x="0" y="-2" ry="0" transform="translate(73.692 3.776)" /><rect width=".2" height="4" x="0" y="-2" ry="0" transform="translate(73.185 3.776)" /><rect width=".2" height="4" x="0" y="-2" ry="0" transform="translate(65.327 3.776)" /><rect width=".2" height="4" x="0" y="-2" ry="0" transform="translate(42.935 3.776)" /><rect width="2.07" height=".2" x="67.08" y="-.1" ry=".1" transform="translate(0 6.776)" /><rect width="1.96" height=".2" x="35.61" y="-.1" ry=".1" transform="translate(0 6.776)" /><rect width="1.96" height=".2" x="31.2" y="-.1" ry=".1" transform="translate(0 6.776)" /><path stroke="currentColor" stroke-linecap="round" stroke-linejoin="round" stroke-width=".08" d="M62.81 8.39v.396l-7.995-.312v-.396zM63.98 1.39v.396l-7.995-.624V.766z" /><path d="M9.729 5.46c0-.364.464-.728.868-.728.252 0 .436.14.436.36 0 .348-.44.728-.88.728-.268 0-.424-.156-.424-.36" /><path d="M9.729 5.46c0-.364.464-.728.868-.728.252 0 .436.14.436.36 0 .348-.44.728-.88.728-.268 0-.424-.156-.424-.36M1.864 7.316H1.84a.783.783 0 0 1-.78-.788c0-.232.212-.412.448-.412.216 0 .38.188.38.412 0 .208-.172.38-.38.38a.3.3 0 0 1-.124-.024c.104.156.272.26.468.26h.016zm.54-3.144c.076.356.192.968.24 1.416a.67.67 0 0 0 .448-.652.753.753 0 0 0-.688-.764m-1.308.492c0 .448.392.988 1.112.988q.127 0 .272-.024a17 17 0 0 0-.252-1.456c-.316.032-.496.244-.496.476 0 .176.1.364.324.492q.029.03.028.06c0 .044-.04.088-.088.088-.06 0-.504-.248-.504-.748 0-.352.232-.696.64-.788a15 15 0 0 0-.184-.7c-.428.484-.852.972-.852 1.612M2.228 0C2.34 0 2.8.824 2.8 1.444c0 .572-.344 1.02-.72 1.456.084.272.156.552.224.828.02 0 .04-.004.056-.004.62 0 1.02.516 1.02 1.048 0 .452-.296.848-.72.98q.019.21.02.42c0 .076-.004.156-.008.232-.028.476-.352.9-.808.912l.004-.172c.372-.008.612-.368.636-.764q.007-.11.008-.22.001-.184-.016-.368-.169.031-.32.032c-.956 0-1.368-.868-1.368-1.496 0-.708.524-1.224.992-1.764-.116-.384-.208-.68-.208-1.384 0-.756.576-1.18.636-1.18m-.44 1.648c0 .22.048.46.14.76.328-.4.588-.808.588-1.304 0-.16-.024-.328-.084-.508a1.13 1.13 0 0 0-.644 1.052M4.413 3.612l-.004.264v.044q-.001.132.016.264c.18-.152.372-.32.372-.556 0-.132-.056-.268-.172-.268-.124 0-.208.12-.212.252m-.168.716-.048-2.38c.032-.02.072-.032.108-.032s.076.012.108.032l-.028 1.38a.58.58 0 0 1 .364-.136c.208 0 .356.192.356.408 0 .32-.344.468-.588.676-.06.052-.096.152-.18.152-.052 0-.092-.044-.092-.1M6.989 2.74c-.204 0-.212.172-.212.4v.144c0 .228.008.4.212.4.228 0 .244-.204.244-.472s-.016-.472-.244-.472m-.212-.028a.4.4 0 0 1 .212-.064c.404 0 .68.184.68.564s-.276.564-.68.564c-.448 0-.68-.496-.68-1 0-.512.288-1 .76-1 .28 0 .544.156.544.412 0 .144-.116.264-.26.264s-.264-.12-.264-.264c0-.096.16-.1.16-.196 0-.08-.092-.124-.18-.124-.264 0-.3.26-.3.556 0 .096.008.192.008.288" /><path d="M7.299 4.628c.1-.12.176-.256.176-.412 0-.216-.22-.348-.456-.348a.284.284 0 0 0-.292.284c0 .084.04.168.124.216zm.124.072c.216.124.32.316.32.5 0 .292-.264.576-.756.576-.376 0-.732-.216-.732-.56 0-.2.144-.348.288-.492a.52.52 0 0 1-.22-.412c0-.272.24-.536.696-.536.32 0 .628.156.628.44 0 .184-.1.344-.224.484m-.756.1c-.124.12-.236.244-.236.416 0 .276.264.468.556.468a.334.334 0 0 0 .344-.332.27.27 0 0 0-.14-.248z" /><text font-size="2.47" text-anchor="start" transform="translate(8.691 11.343)">
<tspan>Bé-</tspan>
</text><rect width=".13" height="2.5" x="-.07" y="-1.19" ry=".04" transform="translate(10.966 3.776)" /><rect width=".13" height="2.5" x="-.07" y="1.69" ry=".04" transform="translate(9.796 3.776)" /><path d="M12.874 5.46c0-.364.464-.728.868-.728.252 0 .436.14.436.36 0 .348-.44.728-.88.728-.268 0-.424-.156-.424-.36" /><path d="M12.874 5.46c0-.364.464-.728.868-.728.252 0 .436.14.436.36 0 .348-.44.728-.88.728-.268 0-.424-.156-.424-.36" /><text font-size="2.47" text-anchor="start" transform="translate(12.52 11.343)">
<tspan>ni</tspan>
</text><rect width=".13" height="2.42" x="-.07" y="-1.1" ry=".04" transform="translate(14.111 3.776)" /><rect width=".13" height="2.64" x="-.07" y="1.69" ry=".04" transform="translate(12.941 3.776)" /><path d="M16.685 5.96c0-.364.464-.728.868-.728.251 0 .435.14.435.36 0 .348-.44.728-.88.728-.268 0-.424-.156-.424-.36" /><path d="M16.685 5.96c0-.364.464-.728.868-.728.251 0 .435.14.435.36 0 .348-.44.728-.88.728-.268 0-.424-.156-.424-.36" /><text font-size="2.47" text-anchor="start" transform="translate(14.982 11.343)">
<tspan>sois-</tspan>
</text><rect width=".13" height="2.82" x="-.07" y="-1" ry=".04" transform="translate(17.921 3.776)" /><rect width=".13" height="2.31" x="-.07" y="2.19" ry=".04" transform="translate(16.752 3.776)" /><path stroke="currentColor" stroke-linecap="round" stroke-linejoin="round" stroke-width=".08" d="M51.342 7.766v.396l-7.042.624V8.39z" /><path d="M20.8 6.46c0-.364.464-.728.868-.728.252 0 .436.14.436.36 0 .348-.44.728-.88.728-.268 0-.424-.156-.424-.36" /><path d="M20.8 6.46c0-.364.464-.728.868-.728.252 0 .436.14.436.36 0 .348-.44.728-.88.728-.268 0-.424-.156-.424-.36" /><text font-size="2.47" text-anchor="start" transform="translate(20.14 11.343)">
<tspan>tu,</tspan>
</text><rect width=".13" height="3.51" x="-.07" y="-1.2" ry=".04" transform="translate(22.037 3.776)" /><rect width=".13" height="2.31" x="-.07" y="2.69" ry=".04" transform="translate(20.868 3.776)" /><path stroke="currentColor" stroke-linecap="round" stroke-linejoin="round" stroke-width=".08" d="M52.512.766v.396H45.47V.766z" /><path d="M24.27 5.46c0-.364.463-.728.867-.728.252 0 .436.14.436.36 0 .348-.44.728-.88.728-.268 0-.424-.156-.424-.36" /><path d="M24.27 6.46c0-.364.463-.728.867-.728.252 0 .436.14.436.36 0 .348-.44.728-.88.728-.268 0-.424-.156-.424-.36" /><text font-size="2.47" text-anchor="start" transform="translate(23.214 11.343)">
<tspan>no-</tspan>
</text><rect width=".13" height="2.9" x="-.07" y="-1.59" ry=".04" transform="translate(25.506 3.776)" /><rect width=".13" height="2.22" x="-.07" y="2.69" ry=".04" transform="translate(24.337 3.776)" /><path d="M27.828 4.96c0-.364.464-.728.868-.728.252 0 .436.14.436.36 0 .348-.44.728-.88.728-.268 0-.424-.156-.424-.36" /><path d="M27.828 5.96c0-.364.464-.728.868-.728.252 0 .436.14.436.36 0 .348-.44.728-.88.728-.268 0-.424-.156-.424-.36" /><text font-size="2.47" text-anchor="start" transform="translate(27.079 11.343)">
<tspan>tre</tspan>
</text><rect width=".13" height="2.81" x="-.07" y="-1.99" ry=".04" transform="translate(29.065 3.776)" /><rect width=".13" height="2.63" x="-.07" y="2.19" ry=".04" transform="translate(27.895 3.776)" /><path d="M31.53 4.46c0-.364.463-.728.867-.728.253 0 .437.14.437.36 0 .348-.44.728-.88.728-.268 0-.424-.156-.424-.36M31.53 6.96c0-.364.463-.728.867-.728.253 0 .437.14.437.36 0 .348-.44.728-.88.728-.268 0-.424-.156-.424-.36" /><text font-size="2.47" text-anchor="start" transform="translate(30.546 11.343)">
<tspan>Pè-</tspan>
</text><path d="M33.284 4.276a.224.224 0 1 1 .447 0 .224.224 0 0 1-.447 0" /><rect width=".13" height="3.31" x="-.07" y="-3" ry=".04" transform="translate(32.767 3.776)" /><path d="M33.284 7.276a.224.224 0 1 1 .447 0 .224.224 0 0 1-.447 0" /><rect width=".13" height="2.31" x="-.07" y="3.19" ry=".04" transform="translate(31.597 3.776)" /><path d="M35.936 4.46c0-.364.464-.728.868-.728.252 0 .436.14.436.36 0 .348-.44.728-.88.728-.268 0-.424-.156-.424-.36M35.936 6.96c0-.364.464-.728.868-.728.252 0 .436.14.436.36 0 .348-.44.728-.88.728-.268 0-.424-.156-.424-.36" /><text font-size="2.47" text-anchor="start" transform="translate(35.33 11.343)">
<tspan>re,</tspan>
</text><rect width=".13" height="3.31" x="-.07" y="-3" ry=".04" transform="translate(37.173 3.776)" /><rect width=".13" height="2.31" x="-.07" y="3.19" ry=".04" transform="translate(36.003 3.776)" /><path d="M39.765 4.46c0-.364.464-.728.868-.728.252 0 .436.14.436.36 0 .348-.44.728-.88.728-.268 0-.424-.156-.424-.36M39.765 5.96c0-.364.464-.728.868-.728.252 0 .436.14.436.36 0 .348-.44.728-.88.728-.268 0-.424-.156-.424-.36" /><text font-size="2.47" text-anchor="start" transform="translate(38.8 11.343)">
<tspan>qui</tspan>
</text><rect width=".13" height="3.31" x="-.07" y="-3" ry=".04" transform="translate(41.002 3.776)" /><path d="M41.07.818v1.5h-.065v-1.5zm.491 2.916c0-.04.168-.348.168-.784 0-.412-.376-.832-.66-1.132v-1c0 .788.828 1.344.828 2.132 0 .284-.06.564-.164.828a.1.1 0 0 1-.08.048.09.09 0 0 1-.092-.092" /><rect width=".13" height="2.81" x="-.07" y="2.19" ry=".04" transform="translate(39.832 3.776)" /><path d="M39.9 8.734h-.065v-1.5h.064zm.895-2.036c0-.376-.16-.632-.16-.672 0-.056.044-.088.092-.088.028 0 .06.012.08.044.1.224.16.468.16.716 0 .812-1.068 1.224-1.068 2.036v-1c.388-.236.896-.592.896-1.036M44.258 4.46c0-.364.464-.728.868-.728.252 0 .436.14.436.36 0 .348-.44.728-.88.728-.268 0-.424-.156-.424-.36M44.258 6.46c0-.364.464-.728.868-.728.252 0 .436.14.436.36 0 .348-.44.728-.88.728-.268 0-.424-.156-.424-.36" /><text font-size="2.47" text-anchor="start" transform="translate(42.484 11.343)">
<tspan>nous</tspan>
</text><rect width=".13" height="3.13" x="-.07" y="-2.81" ry=".04" transform="translate(45.495 3.776)" /><rect width=".13" height="2.12" x="-.07" y="2.69" ry=".04" transform="translate(44.325 3.776)" /><path stroke="currentColor" stroke-linecap="round" stroke-linejoin="round" stroke-width=".08" d="M27.92 8.39v.396l-7.078.188v-.396z" /><path d="M48.176 4.46c0-.364.464-.728.868-.728.252 0 .436.14.436.36 0 .348-.44.728-.88.728-.268 0-.424-.156-.424-.36M48.176 5.96c0-.364.464-.728.868-.728.252 0 .436.14.436.36 0 .348-.44.728-.88.728-.268 0-.424-.156-.424-.36" /><text font-size="2.47" text-anchor="start" transform="translate(47.786 11.343)">
<tspan>as</tspan>
</text><rect width=".13" height="3.13" x="-.07" y="-2.81" ry=".04" transform="translate(49.413 3.776)" /><rect width=".13" height="2.28" x="-.07" y="2.19" ry=".04" transform="translate(48.244 3.776)" /><path stroke="currentColor" stroke-linecap="round" stroke-linejoin="round" stroke-width=".08" d="M29.09 1.578v.396l-7.078.812V2.39z" /><path d="M51.25 4.46c0-.364.464-.728.868-.728.252 0 .436.14.436.36 0 .348-.44.728-.88.728-.268 0-.424-.156-.424-.36" /><path d="M51.25 5.46c0-.364.464-.728.868-.728.252 0 .436.14.436.36 0 .348-.44.728-.88.728-.268 0-.424-.156-.424-.36" /><text font-size="2.47" text-anchor="start" transform="translate(50.32 11.343)">
<tspan>bé-</tspan>
</text><rect width=".13" height="3.13" x="-.07" y="-2.81" ry=".04" transform="translate(52.487 3.776)" /><rect width=".13" height="2.51" x="-.07" y="1.69" ry=".04" transform="translate(51.317 3.776)" /><path d="M54.773 3.96c0-.364.464-.728.868-.728.252 0 .436.14.436.36 0 .348-.44.728-.88.728-.268 0-.424-.156-.424-.36M54.773 5.96c0-.364.464-.728.868-.728.252 0 .436.14.436.36 0 .348-.44.728-.88.728-.268 0-.424-.156-.424-.36" /><text font-size="2.47" text-anchor="start" transform="translate(53.934 11.343)">
<tspan>nis</tspan>
</text><rect width=".13" height="2.62" x="-.07" y="-2.81" ry=".04" transform="translate(56.01 3.776)" /><rect width=".13" height="2.32" x="-.07" y="2.19" ry=".04" transform="translate(54.84 3.776)" /><path d="M53.699 2.276c.032-.016.068-.028.1-.028s.064.012.096.028l-.008.732.424-.08h.012c.04 0 .072.028.072.068l.028 2.28c-.032.016-.068.028-.1.028s-.064-.012-.096-.028l.008-.732-.424.08h-.012c-.04 0-.072-.028-.072-.068zm.552 1.052-.368.068-.012.828.368-.068zM59.05 4.96c0-.364.465-.728.869-.728.252 0 .436.14.436.36 0 .348-.44.728-.88.728-.268 0-.424-.156-.424-.36" /><path d="M59.05 5.96c0-.364.465-.728.869-.728.252 0 .436.14.436.36 0 .348-.44.728-.88.728-.268 0-.424-.156-.424-.36" /><text font-size="2.47" text-anchor="start" transform="translate(57.367 11.343)">
<tspan>dans</tspan>
</text><rect width=".13" height="3.29" x="-.07" y="-2.48" ry=".04" transform="translate(60.288 3.776)" /><rect width=".13" height="2.48" x="-.07" y="2.19" ry=".04" transform="translate(59.118 3.776)" /><path d="M62.717 4.96c0-.364.464-.728.868-.728.252 0 .436.14.436.36 0 .348-.44.728-.88.728-.268 0-.424-.156-.424-.36M62.717 6.46c0-.364.464-.728.868-.728.252 0 .436.14.436.36 0 .348-.44.728-.88.728-.268 0-.424-.156-.424-.36" /><text font-size="2.47" text-anchor="start" transform="translate(62.489 11.343)">
<tspan>le</tspan>
</text><rect width=".13" height="3.01" x="-.07" y="-2.19" ry=".04" transform="translate(63.954 3.776)" /><rect width=".13" height="2.12" x="-.07" y="2.69" ry=".04" transform="translate(62.785 3.776)" /><path stroke="currentColor" stroke-linecap="round" stroke-linejoin="round" stroke-width=".08" d="M16.777 8.078v.396L9.77 8.162v-.396zM17.947 2.578v.396l-7.007-.188V2.39z" /><path d="M67.714 4.7c.16 0 .815-.44.923-.572a.2.2 0 0 0 .045-.112.166.166 0 0 0-.169-.164c-.16 0-.816.44-.924.572a.2.2 0 0 0-.04.112c0 .088.068.164.164.164m-.288-.156c0-.284.183-.812 1.031-.812.165 0 .345.04.345.276 0 .284-.185.812-1.033.812-.164 0-.344-.04-.344-.276M67.714 7.2c.16 0 .815-.44.923-.572a.2.2 0 0 0 .045-.112.166.166 0 0 0-.169-.164c-.16 0-.816.44-.924.572a.2.2 0 0 0-.04.112c0 .088.068.164.164.164m-.288-.156c0-.284.183-.812 1.031-.812.165 0 .345.04.345.276 0 .284-.185.812-1.033.812-.164 0-.344-.04-.344-.276" /><text font-size="2.47" text-anchor="start" transform="translate(64.7 11.343)">
<tspan>Christ.</tspan>
</text><path d="M69.253 4.276a.224.224 0 1 1 .447 0 .224.224 0 0 1-.447 0" /><rect width=".13" height="3.24" x="-.07" y="-3" ry=".04" transform="translate(68.736 3.776)" /><path d="M69.253 7.276a.224.224 0 1 1 .447 0 .224.224 0 0 1-.447 0" /><rect width=".13" height="2.24" x="-.07" y="3.26" ry=".04" transform="translate(67.493 3.776)" /></svg>