<svg xmlns="http://www.w3.org/2000/svg" width="459.93" height="82.05" viewBox="0 0 72.9 13.01" fill="currentColor" font-family="Linux Libertine"><style type="text/css">tspan{white-space:pre}</style><rect width=".2" height="4" x="0" y="-2" ry="0" transform="translate(29.85 4)" /><path stroke="currentColor" stroke-linecap="round" stroke-linejoin="round" stroke-width=".1" d="M.05 6h72.79M.05 5h72.79M.05 4h72.79M.05 3h72.79M.05 2h72.79" /><rect width=".62" height="4" x="0" y="-2" ry="0" transform="translate(72.275 4)" /><rect width=".2" height="4" x="0" y="-2" ry="0" transform="translate(71.767 4)" /><rect width=".2" height="4" x="0" y="-2" ry="0" transform="translate(59.6 4)" /><rect width="1.81" height=".2" x="67.81" y="-.1" ry=".1" transform="translate(0 7)" /><rect width="1.96" height=".2" x="63.95" y="-.1" ry=".1" transform="translate(0 7)" /><rect width="1.96" height=".2" x="46.28" y="-.1" ry=".1" transform="translate(0 7)" /><rect width="1.96" height=".2" x="42.51" y="-.1" ry=".1" transform="translate(0 7)" /><rect width="1.96" height=".2" x="38.82" y="-.1" ry=".1" transform="translate(0 7)" /><rect width="2.07" height=".2" x="31.07" y="-.1" ry=".1" transform="translate(0 7)" /><rect width="2.07" height=".2" x="31.07" y="-.1" ry=".1" transform="translate(0 8)" /><rect width=".2" height="4" x="0" y="-2" ry="0" transform="translate(41.736 4)" /><path d="M8.502 6.684c0-.364.464-.728.868-.728.252 0 .436.14.436.36 0 .348-.44.728-.88.728-.268 0-.424-.156-.424-.36" /><path d="M8.502 6.684c0-.364.464-.728.868-.728.252 0 .436.14.436.36 0 .348-.44.728-.88.728-.268 0-.424-.156-.424-.36M1.864 7.54H1.84a.783.783 0 0 1-.78-.788c0-.232.212-.412.448-.412.216 0 .38.188.38.412 0 .208-.172.38-.38.38a.3.3 0 0 1-.124-.024c.104.156.272.26.468.26h.016zm.54-3.144c.076.356.192.968.24 1.416a.67.67 0 0 0 .448-.652.753.753 0 0 0-.688-.764m-1.308.492c0 .448.392.988 1.112.988q.127 0 .272-.024a17 17 0 0 0-.252-1.456c-.316.032-.496.244-.496.476 0 .176.1.364.324.492q.029.03.028.06c0 .044-.04.088-.088.088-.06 0-.504-.248-.504-.748 0-.352.232-.696.64-.788a15 15 0 0 0-.184-.7c-.428.484-.852.972-.852 1.612M2.228.224c.112 0 .572.824.572 1.444 0 .572-.344 1.02-.72 1.456.084.272.156.552.224.828.02 0 .04-.004.056-.004.62 0 1.02.516 1.02 1.048 0 .452-.296.848-.72.98q.019.21.02.42c0 .076-.004.156-.008.232-.028.476-.352.9-.808.912l.004-.172c.372-.008.612-.368.636-.764a3.775 3.775 0 0 0-.008-.588q-.169.031-.32.032C1.22 6.048.808 5.18.808 4.552c0-.708.524-1.224.992-1.764-.116-.384-.208-.68-.208-1.384 0-.756.576-1.18.636-1.18m-.44 1.648c0 .22.048.46.14.76.328-.4.588-.808.588-1.304 0-.16-.024-.328-.084-.508a1.13 1.13 0 0 0-.644 1.052M6.08 2.94c0 .132.28.092.28.5 0 .368-.315.56-.715.56-.316 0-.616-.168-.616-.452 0-.144.12-.264.264-.264s.26.12.26.264c0 .1-.16.112-.16.212 0 .108.128.148.252.148.196 0 .252-.244.252-.468v-.064c0-.216-.008-.376-.2-.376h-.32c-.04 0-.056-.032-.056-.06s.016-.056.056-.056h.32c.196 0 .2-.172.2-.396v-.032c0-.216-.072-.364-.268-.364-.112 0-.228.036-.228.132 0 .088.14.1.14.188 0 .128-.1.232-.228.232s-.232-.104-.232-.232c0-.256.268-.412.548-.412.364 0 .676.132.676.456 0 .488-.224.32-.224.484" /><path d="M5.669 5.532h.468c0 .192.108.376.288.376.032 0 .048.02.048.044S6.457 6 6.425 6c-.176 0-.348-.052-.524-.052S5.553 6 5.377 6c-.032 0-.048-.024-.048-.048s.016-.044.048-.044c.18 0 .292-.184.292-.376m.116-1.48c.144 0 .276-.056.304-.056.032 0 .056.024.056.048q-.001.01-.008.02l-1.136 1.32h.668V4.86c0-.136.136-.108.272-.288.088-.12.092-.224.144-.224.024 0 .052.02.052.056v.98h.288c.04 0 .06.028.06.056s-.02.06-.06.06h-.288v.032h-.468V5.5h-.668c-.092 0-.124-.056-.124-.092 0-.048.56-.572.56-1.344 0-.036.024-.064.052-.064.02 0 .156.052.296.052" /><text font-size="2.47" text-anchor="start" transform="translate(7.789 12.42)">
<tspan>Jé-</tspan>
</text><rect width=".13" height="3.13" x="-.07" y="-.81" ry=".04" transform="translate(9.74 4)" /><rect width=".13" height="2.13" x="-.07" y="2.69" ry=".04" transform="translate(8.57 4)" /><path stroke="currentColor" stroke-linecap="round" stroke-linejoin="round" stroke-width=".08" d="M57.124 9.614v.396l-10.475.188v-.396z" /><path d="M11.935 6.684c0-.364.464-.728.868-.728.252 0 .436.14.436.36 0 .348-.44.728-.88.728-.268 0-.424-.156-.424-.36" /><path d="M11.935 6.684c0-.364.464-.728.868-.728.252 0 .436.14.436.36 0 .348-.44.728-.88.728-.268 0-.424-.156-.424-.36" /><text font-size="2.47" text-anchor="start" transform="translate(10.97 12.42)">
<tspan>sus</tspan>
</text><rect width=".13" height="3.13" x="-.07" y="-.81" ry=".04" transform="translate(13.172 4)" /><rect width=".13" height="2.13" x="-.07" y="2.69" ry=".04" transform="translate(12.003 4)" /><path stroke="currentColor" stroke-linecap="round" stroke-linejoin="round" stroke-width=".08" d="M62.302 3.49c.832-.495 2.186-.328 2.844.35h0c-.673-.555-2.027-.722-2.845-.35" /><path d="M17.148 4.684c0-.364.464-.728.868-.728.252 0 .436.14.436.36 0 .348-.44.728-.88.728-.268 0-.424-.156-.424-.36M17.148 6.684c0-.364.464-.728.868-.728.252 0 .436.14.436.36 0 .348-.44.728-.88.728-.268 0-.424-.156-.424-.36" /><text font-size="2.47" text-anchor="start" transform="translate(14.655 12.42)">
<tspan>Christ</tspan>
</text><rect width=".13" height="3.31" x="-.07" y="-3" ry=".04" transform="translate(18.384 4)" /><rect width=".13" height="2.31" x="-.07" y="2.69" ry=".04" transform="translate(17.215 4)" /><path d="M22.18 5.184c0-.364.464-.728.868-.728.252 0 .436.14.436.36 0 .348-.44.728-.88.728-.268 0-.424-.156-.424-.36M22.18 6.684c0-.364.464-.728.868-.728.252 0 .436.14.436.36 0 .348-.44.728-.88.728-.268 0-.424-.156-.424-.36" /><text font-size="2.47" text-anchor="start" transform="translate(21.394 12.42)">
<tspan>est</tspan>
</text><rect width=".13" height="2.81" x="-.07" y="-2" ry=".04" transform="translate(23.417 4)" /><rect width=".13" height="2.13" x="-.07" y="2.69" ry=".04" transform="translate(22.247 4)" /><path d="M25.972 5.684c0-.364.464-.728.868-.728.252 0 .436.14.436.36 0 .348-.44.728-.88.728-.268 0-.424-.156-.424-.36" /><path d="M25.972 6.684c0-.364.464-.728.868-.728.252 0 .436.14.436.36 0 .348-.44.728-.88.728-.268 0-.424-.156-.424-.36" /><text font-size="2.47" text-anchor="start" transform="translate(24.72 12.42)">
<tspan>Sei-</tspan>
</text><rect width=".13" height="3.13" x="-.07" y="-1.81" ry=".04" transform="translate(27.21 4)" /><rect width=".13" height="2.13" x="-.07" y="2.69" ry=".04" transform="translate(26.04 4)" /><path d="M31.705 6.424c.16 0 .816-.44.924-.572a.2.2 0 0 0 .044-.112.166.166 0 0 0-.168-.164c-.16 0-.816.44-.924.572a.2.2 0 0 0-.04.112c0 .088.068.164.164.164m-.288-.156c0-.284.184-.812 1.032-.812.164 0 .344.04.344.276 0 .284-.184.812-1.032.812-.164 0-.344-.04-.344-.276M31.705 8.424c.16 0 .816-.44.924-.572a.2.2 0 0 0 .044-.112.166.166 0 0 0-.168-.164c-.16 0-.816.44-.924.572a.2.2 0 0 0-.04.112c0 .088.068.164.164.164m-.288-.156c0-.284.184-.812 1.032-.812.164 0 .344.04.344.276 0 .284-.184.812-1.032.812-.164 0-.344-.04-.344-.276" /><text font-size="2.47" text-anchor="start" transform="translate(28.98 12.42)">
<tspan>gneur,</tspan>
</text><rect width=".13" height="3.24" x="-.07" y="-1.5" ry=".04" transform="translate(32.727 4)" /><rect width=".13" height="2.24" x="-.07" y="4.26" ry=".04" transform="translate(31.485 4)" /><path d="M36.645 4.684c0-.364.464-.728.868-.728.252 0 .436.14.436.36 0 .348-.44.728-.88.728-.268 0-.424-.156-.424-.36M36.645 6.684c0-.364.464-.728.868-.728.252 0 .436.14.436.36 0 .348-.44.728-.88.728-.268 0-.424-.156-.424-.36" /><text font-size="2.47" text-anchor="start" transform="translate(36.74 12.42)">
<tspan>à</tspan>
</text><rect width=".13" height="3.13" x="-.07" y="-2.81" ry=".04" transform="translate(37.882 4)" /><rect width=".13" height="2.51" x="-.07" y="2.69" ry=".04" transform="translate(36.712 4)" /><path stroke="currentColor" stroke-linecap="round" stroke-linejoin="round" stroke-width=".08" d="M39.241 9.302v.396l-2.554-.312V8.99z" /><path d="M39.149 4.684c0-.364.464-.728.868-.728.252 0 .436.14.436.36 0 .348-.44.728-.88.728-.268 0-.424-.156-.424-.36M39.149 7.184c0-.364.464-.728.868-.728.252 0 .436.14.436.36 0 .348-.44.728-.88.728-.268 0-.424-.156-.424-.36" /><text font-size="2.47" text-anchor="start" transform="translate(38.92 12.42)">
<tspan>la</tspan>
</text><rect width=".13" height="3.13" x="-.07" y="-2.81" ry=".04" transform="translate(40.386 4)" /><rect width=".13" height="2.31" x="-.07" y="3.19" ry=".04" transform="translate(39.216 4)" /><path stroke="currentColor" stroke-linecap="round" stroke-linejoin="round" stroke-width=".08" d="M40.411.99v.396h-2.555V.99z" /><path d="M42.832 3.184c0-.364.464-.728.868-.728.252 0 .436.14.436.36 0 .348-.44.728-.88.728-.268 0-.424-.156-.424-.36M42.832 7.684c0-.364.464-.728.868-.728.252 0 .436.14.436.36 0 .348-.44.728-.88.728-.268 0-.424-.156-.424-.36" /><text font-size="2.47" text-anchor="start" transform="translate(41.166 12.42)">
<tspan>gloi-</tspan>
</text><rect width=".13" height="2.81" x="-.07" y="-4" ry=".04" transform="translate(44.07 4)" /><rect width=".13" height="2.31" x="-.07" y="3.69" ry=".04" transform="translate(42.9 4)" /><path stroke="currentColor" stroke-linecap="round" stroke-linejoin="round" stroke-width=".08" d="M58.294.802v.396l-10.475-.5V.302z" /><path d="M46.607 3.184c0-.364.464-.728.868-.728.252 0 .436.14.436.36 0 .348-.44.728-.88.728-.268 0-.424-.156-.424-.36M46.607 7.184c0-.364.464-.728.868-.728.252 0 .436.14.436.36 0 .348-.44.728-.88.728-.268 0-.424-.156-.424-.36" /><text font-size="2.47" text-anchor="start" transform="translate(46.253 12.42)">
<tspan>re</tspan>
</text><rect width=".13" height="2.31" x="-.07" y="-3.5" ry=".04" transform="translate(47.844 4)" /><rect width=".13" height="2.81" x="-.07" y="3.19" ry=".04" transform="translate(46.674 4)" /><path d="M49.25 3.184c0-.364.463-.728.867-.728.252 0 .436.14.436.36 0 .348-.44.728-.88.728-.268 0-.424-.156-.424-.36M49.25 5.684c0-.364.463-.728.867-.728.252 0 .436.14.436.36 0 .348-.44.728-.88.728-.268 0-.424-.156-.424-.36" /><text font-size="2.47" text-anchor="start" transform="translate(48.715 12.42)">
<tspan>de</tspan>
</text><rect width=".13" height="2.19" x="-.07" y="-3.37" ry=".04" transform="translate(50.486 4)" /><rect width=".13" height="4.27" x="-.07" y="1.69" ry=".04" transform="translate(49.316 4)" /><path stroke="currentColor" stroke-linecap="round" stroke-linejoin="round" stroke-width=".08" d="M26.065 8.614v.396h-3.843v-.396z" /><path d="M53.293 3.684c0-.364.464-.728.868-.728.252 0 .436.14.436.36 0 .348-.44.728-.88.728-.268 0-.424-.156-.424-.36M53.293 6.184c0-.364.464-.728.868-.728.252 0 .436.14.436.36 0 .348-.44.728-.88.728-.268 0-.424-.156-.424-.36" /><text font-size="2.47" text-anchor="start" transform="translate(51.537 12.42)">
<tspan>Dieu</tspan>
</text><rect width=".13" height="2.49" x="-.07" y="-3.18" ry=".04" transform="translate(54.53 4)" /><rect width=".13" height="3.69" x="-.07" y="2.19" ry=".04" transform="translate(53.36 4)" /><path stroke="currentColor" stroke-linecap="round" stroke-linejoin="round" stroke-width=".08" d="M27.234 1.99v.396l-3.842-.188v-.396z" /><path d="M57.032 4.184c0-.364.464-.728.868-.728.252 0 .436.14.436.36 0 .348-.44.728-.88.728-.268 0-.424-.156-.424-.36M57.032 6.684c0-.364.464-.728.868-.728.252 0 .436.14.436.36 0 .348-.44.728-.88.728-.268 0-.424-.156-.424-.36" /><text font-size="2.47" text-anchor="start" transform="translate(56.803 12.42)">
<tspan>le</tspan>
</text><rect width=".13" height="2.82" x="-.07" y="-3" ry=".04" transform="translate(58.269 4)" /><rect width=".13" height="3.13" x="-.07" y="2.69" ry=".04" transform="translate(57.099 4)" /><path d="M60.697 4.684c0-.364.464-.728.868-.728.252 0 .436.14.436.36 0 .348-.44.728-.88.728-.268 0-.424-.156-.424-.36M60.697 6.684c0-.364.464-.728.868-.728.252 0 .436.14.436.36 0 .348-.44.728-.88.728-.268 0-.424-.156-.424-.36" /><text font-size="2.47" text-anchor="start" transform="translate(60.697 12.42)">
<tspan>Pè-</tspan>
</text><rect width=".13" height="3.31" x="-.07" y="-3" ry=".04" transform="translate(61.934 4)" /><rect width=".13" height="2.31" x="-.07" y="2.69" ry=".04" transform="translate(60.765 4)" /><path d="M64.277 5.184c0-.364.463-.728.867-.728.252 0 .436.14.436.36 0 .348-.44.728-.88.728-.267 0-.423-.156-.423-.36M64.277 7.684c0-.364.463-.728.867-.728.252 0 .436.14.436.36 0 .348-.44.728-.88.728-.267 0-.423-.156-.423-.36" /><rect width=".13" height="3.31" x="-.07" y="-2.5" ry=".04" transform="translate(65.513 4)" /><rect width=".13" height="2.31" x="-.07" y="3.69" ry=".04" transform="translate(64.344 4)" /><path stroke="currentColor" stroke-linecap="round" stroke-linejoin="round" stroke-width=".08" d="M12.028 8.614v.396H8.544v-.396z" /><path d="M67.98 4.684c0-.364.465-.728.869-.728.252 0 .436.14.436.36 0 .348-.44.728-.88.728-.268 0-.424-.156-.424-.36M67.98 7.184c0-.364.465-.728.869-.728.252 0 .436.14.436.36 0 .348-.44.728-.88.728-.268 0-.424-.156-.424-.36" /><text font-size="2.47" text-anchor="start" transform="translate(67.375 12.42)">
<tspan>re.</tspan>
</text><rect width=".13" height="3.31" x="-.07" y="-3" ry=".04" transform="translate(69.218 4)" /><rect width=".13" height="2.31" x="-.07" y="3.19" ry=".04" transform="translate(68.048 4)" /><path d="M66.53 6.524c0-.032.02-.06.053-.072l.184-.068v-.632c0-.04.032-.076.072-.076s.076.036.076.076v.58l.332-.124v-.632c0-.04.036-.076.076-.076s.072.036.072.076v.58l.128-.048q.014-.005.028-.004a.08.08 0 0 1 .08.08v.24c0 .032-.02.064-.052.076l-.184.064v.64l.128-.044q.014-.005.028-.004a.08.08 0 0 1 .08.08v.24c0 .032-.02.06-.052.072l-.184.068v.632c0 .04-.032.076-.072.076s-.076-.036-.076-.076v-.58l-.332.124v.632c0 .04-.036.076-.076.076s-.072-.036-.072-.076v-.58l-.128.048c-.008.004-.02.004-.028.004a.08.08 0 0 1-.08-.08v-.24c0-.032.02-.064.052-.076l.184-.064v-.64l-.128.044c-.008.004-.02.004-.028.004a.08.08 0 0 1-.08-.08zm.717.096-.332.12v.64l.332-.12z" /><path stroke="currentColor" stroke-linecap="round" stroke-linejoin="round" stroke-width=".08" d="M13.197 2.99v.396H9.714V2.99z" /></svg>