<svg xmlns="http://www.w3.org/2000/svg" width="415.94" height="73.89" viewBox="0 -0.02 65.92 11.71" fill="currentColor" font-family="Linux Libertine"><style type="text/css">tspan{white-space:pre}</style><rect width=".2" height="4" x="0" y="-2" ry="0" transform="translate(16.653 3.776)" /><path stroke="currentColor" stroke-linecap="round" stroke-linejoin="round" stroke-width=".1" d="M.05 5.776h65.82M.05 4.776h65.82M.05 3.776h65.82M.05 2.776h65.82M.05 1.776h65.82" /><rect width=".62" height="4" x="0" y="-2" ry="0" transform="translate(65.3 3.776)" /><rect width=".2" height="4" x="0" y="-2" ry="0" transform="translate(64.793 3.776)" /><rect width=".2" height="4" x="0" y="-2" ry="0" transform="translate(57.347 3.776)" /><rect width=".2" height="4" x="0" y="-2" ry="0" transform="translate(42.288 3.776)" /><rect width="1.9" height=".2" x="59.56" y="-.1" ry=".1" transform="translate(0 6.776)" /><rect width="1.96" height=".2" x="39.17" y="-.1" ry=".1" transform="translate(0 6.776)" /><rect width="1.96" height=".2" x="34.73" y="-.1" ry=".1" transform="translate(0 6.776)" /><rect width=".2" height="4" x="0" y="-2" ry="0" transform="translate(28.29 3.776)" /><path d="M39.498 6.96c0-.364.464-.728.868-.728.252 0 .436.14.436.36 0 .348-.44.728-.88.728-.268 0-.424-.156-.424-.36" /><path stroke="currentColor" stroke-linecap="round" stroke-linejoin="round" stroke-width=".08" d="M15.286 2.578v.396l-4.202-.188V2.39z" /><path d="M9.872 5.46c0-.364.464-.728.868-.728.252 0 .436.14.436.36 0 .348-.44.728-.88.728-.268 0-.424-.156-.424-.36" /><path d="M9.872 5.46c0-.364.464-.728.868-.728.252 0 .436.14.436.36 0 .348-.44.728-.88.728-.268 0-.424-.156-.424-.36M1.864 7.316H1.84a.783.783 0 0 1-.78-.788c0-.232.212-.412.448-.412.216 0 .38.188.38.412 0 .208-.172.38-.38.38a.3.3 0 0 1-.124-.024c.104.156.272.26.468.26h.016zm.54-3.144c.076.356.192.968.24 1.416a.67.67 0 0 0 .448-.652.753.753 0 0 0-.688-.764m-1.308.492c0 .448.392.988 1.112.988q.127 0 .272-.024a17 17 0 0 0-.252-1.456c-.316.032-.496.244-.496.476 0 .176.1.364.324.492q.029.03.028.06c0 .044-.04.088-.088.088-.06 0-.504-.248-.504-.748 0-.352.232-.696.64-.788a15 15 0 0 0-.184-.7c-.428.484-.852.972-.852 1.612M2.228 0C2.34 0 2.8.824 2.8 1.444c0 .572-.344 1.02-.72 1.456.084.272.156.552.224.828.02 0 .04-.004.056-.004.62 0 1.02.516 1.02 1.048 0 .452-.296.848-.72.98q.019.21.02.42c0 .076-.004.156-.008.232-.028.476-.352.9-.808.912l.004-.172c.372-.008.612-.368.636-.764q.007-.11.008-.22.001-.184-.016-.368-.169.031-.32.032c-.956 0-1.368-.868-1.368-1.496 0-.708.524-1.224.992-1.764-.116-.384-.208-.68-.208-1.384 0-.756.576-1.18.636-1.18m-.44 1.648c0 .22.048.46.14.76.328-.4.588-.808.588-1.304 0-.16-.024-.328-.084-.508a1.13 1.13 0 0 0-.644 1.052M4.413 3.612l-.004.264v.044q-.001.132.016.264c.18-.152.372-.32.372-.556 0-.132-.056-.268-.172-.268-.124 0-.208.12-.212.252m-.168.716-.048-2.38c.032-.02.072-.032.108-.032s.076.012.108.032l-.028 1.38a.58.58 0 0 1 .364-.136c.208 0 .356.192.356.408 0 .32-.344.468-.588.676-.06.052-.096.152-.18.152-.052 0-.092-.044-.092-.1M7.243 3.776c-.352 0-.36-.264-.576-.264-.12 0-.236.08-.248.22-.004.028-.024.044-.044.044-.024 0-.048-.016-.048-.044v-.008c.06-.688.928-.66.928-1.368 0-.236-.064-.488-.268-.488-.1 0-.196.056-.196.148 0 .108.14.164.14.272a.277.277 0 0 1-.552 0c0-.304.288-.512.608-.512.38 0 .732.228.732.58 0 .604-.6.636-.984.88a.5.5 0 0 1 .108-.012c.332 0 .444.236.684.236.192 0 .152-.152.22-.152.024 0 .048.02.048.048 0 .088-.176.42-.552.42" /><path d="M7.039 5.308h.468c0 .192.108.376.288.376.032 0 .048.02.048.044s-.016.048-.048.048c-.176 0-.348-.052-.524-.052s-.348.052-.524.052c-.032 0-.048-.024-.048-.048s.016-.044.048-.044c.18 0 .292-.184.292-.376m.116-1.48c.144 0 .276-.056.304-.056.032 0 .056.024.056.048 0 .008-.004.012-.008.02L6.371 5.16h.668v-.524c0-.136.136-.108.272-.288.088-.12.092-.224.144-.224.024 0 .052.02.052.056v.98h.288c.04 0 .06.028.06.056s-.02.06-.06.06h-.288v.032h-.468v-.032h-.668c-.092 0-.124-.056-.124-.092 0-.048.56-.572.56-1.344 0-.036.024-.064.052-.064.02 0 .156.052.296.052" /><text font-size="2.47" text-anchor="start" transform="translate(7.38 11.107)">
<tspan>Gloire</tspan>
</text><rect width=".13" height="2.5" x="-.07" y="-1.19" ry=".04" transform="translate(11.11 3.776)" /><rect width=".13" height="2.51" x="-.07" y="1.69" ry=".04" transform="translate(9.94 3.776)" /><path stroke="currentColor" stroke-linecap="round" stroke-linejoin="round" stroke-width=".08" d="M54.437 8.39v.396l-3.268-.312v-.396z" /><path d="M14.024 5.96c0-.364.464-.728.868-.728.252 0 .436.14.436.36 0 .348-.44.728-.88.728-.268 0-.424-.156-.424-.36" /><path d="M14.024 5.96c0-.364.464-.728.868-.728.252 0 .436.14.436.36 0 .348-.44.728-.88.728-.268 0-.424-.156-.424-.36" /><text font-size="2.47" text-anchor="start" transform="translate(14.12 11.107)">
<tspan>à</tspan>
</text><rect width=".13" height="2.82" x="-.07" y="-1" ry=".04" transform="translate(15.261 3.776)" /><rect width=".13" height="2.31" x="-.07" y="2.19" ry=".04" transform="translate(14.091 3.776)" /><path stroke="currentColor" stroke-linecap="round" stroke-linejoin="round" stroke-width=".08" d="M48.624 7.39v.396l-5.075-.312v-.396z" /><path d="M17.75 6.46c0-.364.464-.728.868-.728.252 0 .436.14.436.36 0 .348-.44.728-.88.728-.268 0-.424-.156-.424-.36" /><path d="M17.75 6.46c0-.364.464-.728.868-.728.252 0 .436.14.436.36 0 .348-.44.728-.88.728-.268 0-.424-.156-.424-.36" /><text font-size="2.47" text-anchor="start" transform="translate(17.036 11.107)">
<tspan>toi</tspan>
</text><rect width=".13" height="3.31" x="-.07" y="-1" ry=".04" transform="translate(18.987 3.776)" /><rect width=".13" height="2.31" x="-.07" y="2.69" ry=".04" transform="translate(17.817 3.776)" /><path stroke="currentColor" stroke-linecap="round" stroke-linejoin="round" stroke-width=".08" d="M48.49 1.39v.396l-3.772-.624V.766z" /><path d="M21.58 5.46c0-.364.463-.728.867-.728.252 0 .436.14.436.36 0 .348-.44.728-.88.728-.268 0-.424-.156-.424-.36" /><path d="M21.58 6.46c0-.364.463-.728.867-.728.252 0 .436.14.436.36 0 .348-.44.728-.88.728-.268 0-.424-.156-.424-.36" /><text font-size="2.47" text-anchor="start" transform="translate(21.279 11.107)">
<tspan>Jé</tspan>
</text><rect width=".13" height="3.13" x="-.07" y="-1.82" ry=".04" transform="translate(22.816 3.776)" /><rect width=".13" height="2.12" x="-.07" y="2.69" ry=".04" transform="translate(21.646 3.776)" /><path d="M24.599 4.96c0-.364.464-.728.868-.728.252 0 .436.14.436.36 0 .348-.44.728-.88.728-.268 0-.424-.156-.424-.36" /><path d="M24.599 5.96c0-.364.464-.728.868-.728.252 0 .436.14.436.36 0 .348-.44.728-.88.728-.268 0-.424-.156-.424-.36" /><text font-size="2.47" text-anchor="start" transform="translate(23.634 11.107)">
<tspan>sus</tspan>
</text><rect width=".13" height="2.81" x="-.07" y="-2" ry=".04" transform="translate(25.836 3.776)" /><rect width=".13" height="2.32" x="-.07" y="2.19" ry=".04" transform="translate(24.666 3.776)" /><path stroke="currentColor" stroke-linecap="round" stroke-linejoin="round" stroke-width=".08" d="M39.59 9.078v.396h-4.489v-.396z" /><path d="M29.811 4.46c0-.364.464-.728.868-.728.252 0 .436.14.436.36 0 .348-.44.728-.88.728-.268 0-.424-.156-.424-.36" /><path d="M29.811 5.46c0-.364.464-.728.868-.728.252 0 .436.14.436.36 0 .348-.44.728-.88.728-.268 0-.424-.156-.424-.36" /><text font-size="2.47" text-anchor="start" transform="translate(27.318 11.107)">
<tspan>Christ</tspan>
</text><rect width=".13" height="3.31" x="-.07" y="-3" ry=".04" transform="translate(31.048 3.776)" /><rect width=".13" height="2.65" x="-.07" y="1.69" ry=".04" transform="translate(29.878 3.776)" /><path stroke="currentColor" stroke-linecap="round" stroke-linejoin="round" stroke-width=".08" d="M40.76 1.39v.396l-4.49.188v-.396z" /><path d="M35.059 4.96c0-.364.464-.728.868-.728.252 0 .436.14.436.36 0 .348-.44.728-.88.728-.268 0-.424-.156-.424-.36M35.059 6.96c0-.364.464-.728.868-.728.252 0 .436.14.436.36 0 .348-.44.728-.88.728-.268 0-.424-.156-.424-.36" /><text font-size="2.47" text-anchor="start" transform="translate(34.058 11.107)">
<tspan>pre</tspan>
</text><rect width=".13" height="2.82" x="-.07" y="-2" ry=".04" transform="translate(36.296 3.776)" /><rect width=".13" height="2.31" x="-.07" y="3.19" ry=".04" transform="translate(35.126 3.776)" /><path d="M39.498 4.46c0-.364.464-.728.868-.728.252 0 .436.14.436.36 0 .348-.44.728-.88.728-.268 0-.424-.156-.424-.36" /><text font-size="2.47" text-anchor="start" transform="translate(37.814 11.107)">
<tspan>mier</tspan>
</text><rect width=".13" height="2.5" x="-.07" y="-2.19" ry=".04" transform="translate(40.735 3.776)" /><path stroke="currentColor" stroke-linecap="round" stroke-linejoin="round" stroke-width=".08" d="M55.607 1.766v.396l-3.268-.188v-.396z" /><rect width=".13" height="2.31" x="-.07" y="3.19" ry=".04" transform="translate(39.566 3.776)" /><path d="M43.507 3.96c0-.364.464-.728.868-.728.252 0 .436.14.436.36 0 .348-.44.728-.88.728-.268 0-.424-.156-.424-.36" /><path d="M43.507 4.96c0-.364.464-.728.868-.728.252 0 .436.14.436.36 0 .348-.44.728-.88.728-.268 0-.424-.156-.424-.36" /><text font-size="2.47" text-anchor="start" transform="translate(42.937 11.107)">
<tspan>né</tspan>
</text><rect width=".13" height="2.61" x="-.07" y="-2.8" ry=".04" transform="translate(44.743 3.776)" /><rect width=".13" height="2.32" x="-.07" y="1.19" ry=".04" transform="translate(43.574 3.776)" /><path stroke="currentColor" stroke-linecap="round" stroke-linejoin="round" stroke-width=".08" d="M24.691 8.078v.396l-3.07.312V8.39z" /><path d="M47.227 4.96c0-.364.464-.728.868-.728.252 0 .436.14.436.36 0 .348-.44.728-.88.728-.268 0-.424-.156-.424-.36M48.531 5.46c0-.364.464-.728.868-.728.252 0 .436.14.436.36 0 .348-.44.728-.88.728-.268 0-.424-.156-.424-.36" /><text font-size="2.47" text-anchor="start" transform="translate(45.83 11.107)">
<tspan>d'en</tspan>
</text><rect width=".13" height="3.01" x="-.07" y="-2.2" ry=".04" transform="translate(48.464 3.776)" /><rect width=".13" height="2.12" x="-.07" y="1.69" ry=".04" transform="translate(48.599 3.776)" /><path stroke="currentColor" stroke-linecap="round" stroke-linejoin="round" stroke-width=".08" d="M25.86 1.578v.396l-3.07.188v-.396z" /><path d="M51.127 4.96c0-.364.464-.728.868-.728.252 0 .436.14.436.36 0 .348-.44.728-.88.728-.268 0-.424-.156-.424-.36" /><path d="M51.127 5.96c0-.364.464-.728.868-.728.252 0 .436.14.436.36 0 .348-.44.728-.88.728-.268 0-.424-.156-.424-.36" /><text font-size="2.47" text-anchor="start" transform="translate(50.378 11.107)">
<tspan>tre</tspan>
</text><rect width=".13" height="2.81" x="-.07" y="-2" ry=".04" transform="translate(52.364 3.776)" /><rect width=".13" height="2.32" x="-.07" y="2.19" ry=".04" transform="translate(51.195 3.776)" /><path d="M54.345 5.46c0-.364.464-.728.868-.728.252 0 .436.14.436.36 0 .348-.44.728-.88.728-.268 0-.424-.156-.424-.36" /><path d="M54.345 6.46c0-.364.464-.728.868-.728.252 0 .436.14.436.36 0 .348-.44.728-.88.728-.268 0-.424-.156-.424-.36" /><text font-size="2.47" text-anchor="start" transform="translate(53.631 11.107)">
<tspan>les</tspan>
</text><rect width=".13" height="3.13" x="-.07" y="-1.82" ry=".04" transform="translate(55.582 3.776)" /><rect width=".13" height="2.12" x="-.07" y="2.69" ry=".04" transform="translate(54.412 3.776)" /><path d="M60.024 4.7c.16 0 .816-.44.924-.572a.2.2 0 0 0 .044-.112.166.166 0 0 0-.168-.164c-.16 0-.816.44-.924.572a.2.2 0 0 0-.04.112c0 .088.068.164.164.164m-.288-.156c0-.284.184-.812 1.032-.812.164 0 .344.04.344.276 0 .284-.184.812-1.032.812-.164 0-.344-.04-.344-.276M60.024 6.2c.16 0 .816-.44.924-.572a.2.2 0 0 0 .044-.112.166.166 0 0 0-.168-.164c-.16 0-.816.44-.924.572a.2.2 0 0 0-.04.112c0 .088.068.164.164.164m-.288-.156c0-.284.184-.812 1.032-.812.164 0 .344.04.344.276 0 .284-.184.812-1.032.812-.164 0-.344-.04-.344-.276" /><path d="M60.024 7.2c.16 0 .816-.44.924-.572a.2.2 0 0 0 .044-.112.166.166 0 0 0-.168-.164c-.16 0-.816.44-.924.572a.2.2 0 0 0-.04.112c0 .088.068.164.164.164m-.288-.156c0-.284.184-.812 1.032-.812.164 0 .344.04.344.276 0 .284-.184.812-1.032.812-.164 0-.344-.04-.344-.276" /><text font-size="2.47" text-anchor="start" transform="translate(56.813 11.107)">
<tspan>morts !</tspan>
</text><rect width=".13" height="3.24" x="-.07" y="-3" ry=".04" transform="translate(61.046 3.776)" /><rect width=".13" height="3.24" x="-.07" y="2.26" ry=".04" transform="translate(59.803 3.776)" /><path d="M58.286 6.3c0-.032.02-.06.052-.072l.184-.068v-.632c0-.04.032-.076.072-.076s.076.036.076.076v.58l.332-.124v-.632c0-.04.036-.076.076-.076s.072.036.072.076v.58l.128-.048c.008-.004.02-.004.028-.004a.08.08 0 0 1 .08.08v.24c0 .032-.02.064-.052.076l-.184.064v.64l.128-.044c.008-.004.02-.004.028-.004a.08.08 0 0 1 .08.08v.24c0 .032-.02.06-.052.072l-.184.068v.632c0 .04-.032.076-.072.076s-.076-.036-.076-.076v-.58l-.332.124V8.2c0 .04-.036.076-.076.076s-.072-.036-.072-.076v-.58l-.128.048c-.008.004-.02.004-.028.004a.08.08 0 0 1-.08-.08v-.24c0-.032.02-.064.052-.076l.184-.064v-.64l-.128.044c-.008.004-.02.004-.028.004a.08.08 0 0 1-.08-.08zm.716.096-.332.12v.64l.332-.12z" /><path stroke="currentColor" stroke-linecap="round" stroke-linejoin="round" stroke-width=".08" d="M14.116 8.078v.396l-4.202-.312v-.396z" /></svg>