<svg xmlns="http://www.w3.org/2000/svg" width="473.08" height="179.83" viewBox="-1.32 0 74.98 28.5" fill="currentColor" font-family="Linux Libertine"><style type="text/css">tspan{white-space:pre}</style><rect width="2.07" height=".2" x="67.89" y="-.1" ry=".1" transform="translate(0 7.04)" /><rect width="1.9" height=".2" x="68.06" y="-.1" ry=".1" transform="translate(0 8.04)" /><rect width="2.07" height=".2" x="63.42" y="-.1" ry=".1" transform="translate(0 7.04)" /><rect width="2.07" height=".2" x="63.42" y="-.1" ry=".1" transform="translate(0 8.04)" /><rect width="1.96" height=".2" x="58.91" y="-.1" ry=".1" transform="translate(0 7.04)" /><rect width="1.96" height=".2" x="58.91" y="-.1" ry=".1" transform="translate(0 8.04)" /><rect width="1.96" height=".2" x="53.95" y="-.1" ry=".1" transform="translate(0 7.04)" /><rect width="1.96" height=".2" x="53.95" y="-.1" ry=".1" transform="translate(0 8.04)" /><rect width="1.96" height=".2" x="48.57" y="-.1" ry=".1" transform="translate(0 7.04)" /><rect width="1.96" height=".2" x="48.57" y="-.1" ry=".1" transform="translate(0 8.04)" /><rect width="1.96" height=".2" x="43.87" y="-.1" ry=".1" transform="translate(0 7.04)" /><rect width="1.96" height=".2" x="43.87" y="-.1" ry=".1" transform="translate(0 8.04)" /><rect width="2.07" height=".2" x="38.4" y="-.1" ry=".1" transform="translate(0 7.04)" /><rect width="2.07" height=".2" x="38.4" y="-.1" ry=".1" transform="translate(0 8.04)" /><rect width="2.07" height=".2" x="32.4" y="-.1" ry=".1" transform="translate(0 7.04)" /><path stroke="currentColor" stroke-linecap="round" stroke-linejoin="round" stroke-width=".1" d="M.05 6.04h73.56M.05 5.04h73.56M.05 4.04h73.56M.05 3.04h73.56M.05 2.04h73.56" /><rect width=".62" height="4" x="0" y="-2" ry="0" transform="translate(73.04 23.579)" /><rect width=".2" height="4" x="0" y="-2" ry="0" transform="translate(72.532 23.579)" /><rect width=".62" height="4" x="0" y="-2" ry="0" transform="translate(73.04 4.04)" /><rect width=".2" height="4" x="0" y="-2" ry="0" transform="translate(72.532 4.04)" /><rect width="1.96" height=".2" x="58.91" y="-.1" ry=".1" transform="translate(0 20.579)" /><rect width="1.96" height=".2" x="53.95" y="-.1" ry=".1" transform="translate(0 20.579)" /><rect width="1.96" height=".2" x="48.57" y="-.1" ry=".1" transform="translate(0 20.579)" /><rect width="1.96" height=".2" x="43.87" y="-.1" ry=".1" transform="translate(0 20.579)" /><rect width="2.07" height=".2" x="38.4" y="-.1" ry=".1" transform="translate(0 20.579)" /><rect width="1.96" height=".2" x="18.02" y="-.1" ry=".1" transform="translate(0 20.579)" /><rect width="1.96" height=".2" x="13.58" y="-.1" ry=".1" transform="translate(0 20.579)" /><rect width="1.96" height=".2" x="10.02" y="-.1" ry=".1" transform="translate(0 20.579)" /><rect width="1.96" height=".2" x="5.47" y="-.1" ry=".1" transform="translate(0 20.579)" /><path stroke="currentColor" stroke-linecap="round" stroke-linejoin="round" stroke-width=".1" d="M.05 25.579h73.56M.05 24.579h73.56M.05 23.579h73.56M.05 22.579h73.56M.05 21.579h73.56" /><text font-size="2.47" text-anchor="start" transform="translate(36.307 15.13)">
<tspan>gneur,</tspan>
</text><path d="M-1.315 1.987v-.348c0-.056.044-.1.1-.1h.2C-.38 1.539.069.995.433.459A.06.06 0 0 1 .48.431c.032 0 .068.028.068.064a.07.07 0 0 1-.012.036c-.396.576-.86 1.456-1.552 1.456zM-1.315 25.632h.3c.692 0 1.156.88 1.552 1.456a.07.07 0 0 1 .012.036c0 .036-.036.064-.068.064a.06.06 0 0 1-.048-.028c-.364-.536-.812-1.08-1.448-1.08h-.2a.1.1 0 0 1-.1-.1z" /><rect width=".45" height="23.73" x="0" y="-11.87" ry="0" transform="translate(-1.315 13.81)" /><rect width=".17" height="23.64" x="0" y="-11.82" ry=".05" transform="translate(-.066 13.81)" /><path d="M5.8 4.724c0-.364.464-.728.868-.728.252 0 .436.14.436.36 0 .348-.44.728-.88.728-.268 0-.424-.156-.424-.36M5.8 6.224c0-.364.464-.728.868-.728.252 0 .436.14.436.36 0 .348-.44.728-.88.728-.268 0-.424-.156-.424-.36M1.864 7.58H1.84a.783.783 0 0 1-.78-.788c0-.232.212-.412.448-.412.216 0 .38.188.38.412 0 .208-.172.38-.38.38a.3.3 0 0 1-.124-.024c.104.156.272.26.468.26h.016zm.54-3.144c.076.356.192.968.24 1.416a.67.67 0 0 0 .448-.652.753.753 0 0 0-.688-.764m-1.308.492c0 .448.392.988 1.112.988q.127 0 .272-.024a17 17 0 0 0-.252-1.456c-.316.032-.496.244-.496.476 0 .176.1.364.324.492q.029.03.028.06c0 .044-.04.088-.088.088-.06 0-.504-.248-.504-.748 0-.352.232-.696.64-.788a15 15 0 0 0-.184-.7c-.428.484-.852.972-.852 1.612M2.228.264c.112 0 .572.824.572 1.444 0 .572-.344 1.02-.72 1.456.084.272.156.552.224.828.02 0 .04-.004.056-.004.62 0 1.02.516 1.02 1.048 0 .452-.296.848-.72.98q.019.21.02.42c0 .076-.004.156-.008.232-.028.476-.352.9-.808.912l.004-.172c.372-.008.612-.368.636-.764q.007-.11.008-.22.001-.184-.016-.368-.169.031-.32.032C1.22 6.088.808 5.22.808 4.592c0-.708.524-1.224.992-1.764-.116-.384-.208-.68-.208-1.384 0-.756.576-1.18.636-1.18m-.44 1.648c0 .22.048.46.14.76.328-.4.588-.808.588-1.304 0-.16-.024-.328-.084-.508a1.13 1.13 0 0 0-.644 1.052" /><text font-size="2.47" text-anchor="start" transform="translate(4.026 15.13)">
<tspan>C'est</tspan>
</text><path d="M5.8 20.763c0-.364.464-.728.868-.728.252 0 .436.14.436.36 0 .348-.44.728-.88.728-.268 0-.424-.156-.424-.36M5.8 25.263c0-.364.464-.728.868-.728.252 0 .436.14.436.36 0 .348-.44.728-.88.728-.268 0-.424-.156-.424-.36M3.028 23.079c0-.112.092-.204.204-.204s.204.092.204.204-.092.204-.204.204-.204-.092-.204-.204m0-1c0-.112.092-.204.204-.204s.204.092.204.204-.092.204-.204.204-.204-.092-.204-.204m-1.3-.552c.688 0 1.172.352 1.172 1.004 0 1.052-1.052 1.656-2.064 2.084a.05.05 0 0 1-.036.016.053.053 0 0 1-.052-.052q-.001-.018.016-.036c.808-.472 1.648-1.06 1.648-1.972 0-.48-.252-.94-.684-.94-.296 0-.516.216-.616.504a.3.3 0 0 1 .136-.032c.22 0 .4.18.4.4 0 .232-.176.424-.4.424-.24 0-.448-.188-.448-.424 0-.532.408-.976.928-.976" /><rect width=".13" height="3.31" x="-.07" y="-3" ry=".04" transform="translate(7.037 4.04)" /><rect width=".13" height="2.48" x="-.07" y="2.19" ry=".04" transform="translate(5.867 4.04)" /><rect width=".13" height="2.31" x="-.07" y="-5.5" ry=".04" transform="translate(7.037 23.579)" /><rect width=".13" height="2.65" x="-.07" y="1.69" ry=".04" transform="translate(5.867 23.579)" /><path d="M10.347 4.724c0-.364.464-.728.868-.728.252 0 .436.14.436.36 0 .348-.44.728-.88.728-.268 0-.424-.156-.424-.36M10.347 6.224c0-.364.464-.728.868-.728.252 0 .436.14.436.36 0 .348-.44.728-.88.728-.268 0-.424-.156-.424-.36" /><text font-size="2.47" text-anchor="start" transform="translate(9.328 15.13)">
<tspan>par</tspan>
</text><path d="M10.347 20.763c0-.364.464-.728.868-.728.252 0 .436.14.436.36 0 .348-.44.728-.88.728-.268 0-.424-.156-.424-.36M10.347 25.263c0-.364.464-.728.868-.728.252 0 .436.14.436.36 0 .348-.44.728-.88.728-.268 0-.424-.156-.424-.36" /><rect width=".13" height="3.31" x="-.07" y="-3" ry=".04" transform="translate(11.584 4.04)" /><rect width=".13" height="2.48" x="-.07" y="2.19" ry=".04" transform="translate(10.414 4.04)" /><rect width=".13" height="2.31" x="-.07" y="-5.5" ry=".04" transform="translate(11.584 23.579)" /><rect width=".13" height="2.65" x="-.07" y="1.69" ry=".04" transform="translate(10.414 23.579)" /><path d="M13.906 4.724c0-.364.464-.728.868-.728.252 0 .436.14.436.36 0 .348-.44.728-.88.728-.268 0-.424-.156-.424-.36M13.906 6.224c0-.364.464-.728.868-.728.252 0 .436.14.436.36 0 .348-.44.728-.88.728-.268 0-.424-.156-.424-.36" /><text font-size="2.47" text-anchor="start" transform="translate(13.12 15.13)">
<tspan>tes</tspan>
</text><path d="M13.906 20.763c0-.364.464-.728.868-.728.252 0 .436.14.436.36 0 .348-.44.728-.88.728-.268 0-.424-.156-.424-.36M13.906 25.263c0-.364.464-.728.868-.728.252 0 .436.14.436.36 0 .348-.44.728-.88.728-.268 0-.424-.156-.424-.36" /><rect width=".13" height="3.31" x="-.07" y="-3" ry=".04" transform="translate(15.143 4.04)" /><rect width=".13" height="2.48" x="-.07" y="2.19" ry=".04" transform="translate(13.973 4.04)" /><rect width=".13" height="2.31" x="-.07" y="-5.5" ry=".04" transform="translate(15.143 23.579)" /><rect width=".13" height="2.65" x="-.07" y="1.69" ry=".04" transform="translate(13.973 23.579)" /><path d="M18.345 4.724c0-.364.464-.728.868-.728.252 0 .436.14.436.36 0 .348-.44.728-.88.728-.268 0-.424-.156-.424-.36M18.345 6.224c0-.364.464-.728.868-.728.252 0 .436.14.436.36 0 .348-.44.728-.88.728-.268 0-.424-.156-.424-.36" /><text font-size="2.47" text-anchor="start" transform="translate(16.446 15.13)">
<tspan>souf-</tspan>
</text><path d="M18.345 20.763c0-.364.464-.728.868-.728.252 0 .436.14.436.36 0 .348-.44.728-.88.728-.268 0-.424-.156-.424-.36M18.345 25.263c0-.364.464-.728.868-.728.252 0 .436.14.436.36 0 .348-.44.728-.88.728-.268 0-.424-.156-.424-.36" /><rect width=".13" height="3.31" x="-.07" y="-3" ry=".04" transform="translate(19.582 4.04)" /><rect width=".13" height="2.48" x="-.07" y="2.19" ry=".04" transform="translate(18.413 4.04)" /><rect width=".13" height="2.31" x="-.07" y="-5.5" ry=".04" transform="translate(19.582 23.579)" /><rect width=".13" height="2.65" x="-.07" y="1.69" ry=".04" transform="translate(18.413 23.579)" /><path d="M23.827 5.224c0-.364.464-.728.868-.728.252 0 .436.14.436.36 0 .348-.44.728-.88.728-.268 0-.424-.156-.424-.36" /><path d="M23.827 6.224c0-.364.464-.728.868-.728.252 0 .436.14.436.36 0 .348-.44.728-.88.728-.268 0-.424-.156-.424-.36" /><text font-size="2.47" text-anchor="start" transform="translate(22 15.13)">
<tspan>fran-</tspan>
</text><path d="M23.827 21.263c0-.364.464-.728.868-.728.252 0 .436.14.436.36 0 .348-.44.728-.88.728-.268 0-.424-.156-.424-.36M23.827 23.263c0-.364.464-.728.868-.728.252 0 .436.14.436.36 0 .348-.44.728-.88.728-.268 0-.424-.156-.424-.36" /><rect width=".13" height="3.31" x="-.07" y="-2.5" ry=".04" transform="translate(25.064 4.04)" /><rect width=".13" height="2.48" x="-.07" y="2.19" ry=".04" transform="translate(23.894 4.04)" /><rect width=".13" height="2.31" x="-.07" y="-5" ry=".04" transform="translate(25.064 23.579)" /><rect width=".13" height="3.31" x="-.07" y="-.31" ry=".04" transform="translate(23.894 23.579)" /><path d="M28.59 5.224c0-.364.464-.728.868-.728.252 0 .436.14.436.36 0 .348-.44.728-.88.728-.268 0-.424-.156-.424-.36" /><path d="M28.59 6.224c0-.364.464-.728.868-.728.252 0 .436.14.436.36 0 .348-.44.728-.88.728-.268 0-.424-.156-.424-.36" /><text font-size="2.47" text-anchor="start" transform="translate(27.409 15.13)">
<tspan>ces,</tspan>
</text><path d="M28.59 21.263c0-.364.464-.728.868-.728.252 0 .436.14.436.36 0 .348-.44.728-.88.728-.268 0-.424-.156-.424-.36M28.59 23.263c0-.364.464-.728.868-.728.252 0 .436.14.436.36 0 .348-.44.728-.88.728-.268 0-.424-.156-.424-.36" /><rect width=".13" height="3.31" x="-.07" y="-2.5" ry=".04" transform="translate(29.827 4.04)" /><rect width=".13" height="2.48" x="-.07" y="2.19" ry=".04" transform="translate(28.657 4.04)" /><rect width=".13" height="2.31" x="-.07" y="-5" ry=".04" transform="translate(29.827 23.579)" /><rect width=".13" height="3.31" x="-.07" y="-.31" ry=".04" transform="translate(28.657 23.579)" /><path stroke="currentColor" stroke-linecap="round" stroke-linejoin="round" stroke-width=".08" d="M34.345 20.534c.486-.728 1.521-.957 2.268-.5h0c-.72-.335-1.755-.107-2.268.5" /><path d="M33.03 5.964c.16 0 .815-.44.923-.572a.2.2 0 0 0 .044-.112.166.166 0 0 0-.168-.164c-.16 0-.816.44-.924.572a.2.2 0 0 0-.04.112c0 .088.068.164.164.164m-.289-.156c0-.284.184-.812 1.032-.812.164 0 .344.04.344.276 0 .284-.184.812-1.032.812-.164 0-.344-.04-.344-.276M33.03 7.464c.16 0 .815-.44.923-.572a.2.2 0 0 0 .044-.112.166.166 0 0 0-.168-.164c-.16 0-.816.44-.924.572a.2.2 0 0 0-.04.112c0 .088.068.164.164.164m-.289-.156c0-.284.184-.812 1.032-.812.164 0 .344.04.344.276 0 .284-.184.812-1.032.812-.164 0-.344-.04-.344-.276" /><text font-size="2.47" text-anchor="start" transform="translate(31.525 15.13)">
<tspan>Sei-</tspan>
</text><path d="M32.741 21.763c0-.364.464-.728.868-.728.252 0 .436.14.436.36 0 .348-.44.728-.88.728-.268 0-.424-.156-.424-.36" /><path d="M33.03 23.003c.16 0 .815-.44.923-.572a.2.2 0 0 0 .044-.112.166.166 0 0 0-.168-.164c-.16 0-.816.44-.924.572a.2.2 0 0 0-.04.112c0 .088.068.164.164.164m-.289-.156c0-.284.184-.812 1.032-.812.164 0 .344.04.344.276 0 .284-.184.812-1.032.812-.164 0-.344-.04-.344-.276" /><rect width=".13" height="3.24" x="-.07" y="-2" ry=".04" transform="translate(34.051 4.04)" /><rect width=".13" height="2.24" x="-.07" y="3.26" ry=".04" transform="translate(32.808 4.04)" /><rect width=".13" height="2.48" x="-.07" y="-4.67" ry=".04" transform="translate(33.978 23.579)" /><rect width=".13" height="3.24" x="-.07" y="-.74" ry=".04" transform="translate(32.808 23.579)" /><path d="M35.743 21.263c0-.364.464-.728.868-.728.252 0 .436.14.436.36 0 .348-.44.728-.88.728-.268 0-.424-.156-.424-.36" /><rect width=".13" height="2.31" x="-.07" y="-5" ry=".04" transform="translate(36.98 23.579)" /><path d="M39.034 6.464c.16 0 .816-.44.924-.572a.2.2 0 0 0 .044-.112.166.166 0 0 0-.168-.164c-.16 0-.816.44-.924.572a.2.2 0 0 0-.04.112c0 .088.068.164.164.164m-.288-.156c0-.284.184-.812 1.032-.812.164 0 .344.04.344.276 0 .284-.184.812-1.032.812-.164 0-.344-.04-.344-.276M39.034 8.964c.16 0 .816-.44.924-.572a.2.2 0 0 0 .044-.112.166.166 0 0 0-.168-.164c-.16 0-.816.44-.924.572a.2.2 0 0 0-.04.112c0 .088.068.164.164.164m-.288-.156c0-.284.184-.812 1.032-.812.164 0 .344.04.344.276 0 .284-.184.812-1.032.812-.164 0-.344-.04-.344-.276M39.034 21.003c.16 0 .816-.44.924-.572a.2.2 0 0 0 .044-.112.166.166 0 0 0-.168-.164c-.16 0-.816.44-.924.572a.2.2 0 0 0-.04.112c0 .088.068.164.164.164m-.288-.156c0-.284.184-.812 1.032-.812.164 0 .344.04.344.276 0 .284-.184.812-1.032.812-.164 0-.344-.04-.344-.276M39.034 24.503c.16 0 .816-.44.924-.572a.2.2 0 0 0 .044-.112.166.166 0 0 0-.168-.164c-.16 0-.816.44-.924.572a.2.2 0 0 0-.04.112c0 .088.068.164.164.164m-.288-.156c0-.284.184-.812 1.032-.812.164 0 .344.04.344.276 0 .284-.184.812-1.032.812-.164 0-.344-.04-.344-.276" /><rect width=".13" height="3.24" x="-.07" y="-1.5" ry=".04" transform="translate(40.056 4.04)" /><rect width=".13" height="2.24" x="-.07" y="4.76" ry=".04" transform="translate(38.813 4.04)" /><rect width=".13" height="2.24" x="-.07" y="-5.5" ry=".04" transform="translate(40.056 23.579)" /><rect width=".13" height="2.91" x="-.07" y=".76" ry=".04" transform="translate(38.813 23.579)" /><path d="M44.192 6.224c0-.364.464-.728.868-.728.252 0 .436.14.436.36 0 .348-.44.728-.88.728-.268 0-.424-.156-.424-.36M44.192 8.724c0-.364.464-.728.868-.728.252 0 .436.14.436.36 0 .348-.44.728-.88.728-.268 0-.424-.156-.424-.36" /><text font-size="2.47" text-anchor="start" transform="translate(43.011 15.13)">
<tspan>que</tspan>
</text><path d="M44.192 20.763c0-.364.464-.728.868-.728.252 0 .436.14.436.36 0 .348-.44.728-.88.728-.268 0-.424-.156-.424-.36M44.192 24.263c0-.364.464-.728.868-.728.252 0 .436.14.436.36 0 .348-.44.728-.88.728-.268 0-.424-.156-.424-.36" /><rect width=".13" height="3.31" x="-.07" y="-1.5" ry=".04" transform="translate(45.429 4.04)" /><rect width=".13" height="2.31" x="-.07" y="4.69" ry=".04" transform="translate(44.26 4.04)" /><rect width=".13" height="2.31" x="-.07" y="-5.5" ry=".04" transform="translate(45.429 23.579)" /><rect width=".13" height="2.98" x="-.07" y=".69" ry=".04" transform="translate(44.26 23.579)" /><path d="M48.9 6.224c0-.364.465-.728.869-.728.252 0 .436.14.436.36 0 .348-.44.728-.88.728-.268 0-.424-.156-.424-.36M48.9 8.724c0-.364.465-.728.869-.728.252 0 .436.14.436.36 0 .348-.44.728-.88.728-.268 0-.424-.156-.424-.36" /><text font-size="2.47" text-anchor="start" transform="translate(47.127 15.13)">
<tspan>nous</tspan>
</text><path d="M48.9 20.763c0-.364.465-.728.869-.728.252 0 .436.14.436.36 0 .348-.44.728-.88.728-.268 0-.424-.156-.424-.36M48.9 24.263c0-.364.465-.728.869-.728.252 0 .436.14.436.36 0 .348-.44.728-.88.728-.268 0-.424-.156-.424-.36" /><rect width=".13" height="3.31" x="-.07" y="-1.5" ry=".04" transform="translate(50.138 4.04)" /><rect width=".13" height="2.31" x="-.07" y="4.69" ry=".04" transform="translate(48.968 4.04)" /><rect width=".13" height="2.31" x="-.07" y="-5.5" ry=".04" transform="translate(50.138 23.579)" /><rect width=".13" height="2.98" x="-.07" y=".69" ry=".04" transform="translate(48.968 23.579)" /><path d="M54.275 6.224c0-.364.464-.728.868-.728.252 0 .436.14.436.36 0 .348-.44.728-.88.728-.268 0-.424-.156-.424-.36M54.275 8.224c0-.364.464-.728.868-.728.252 0 .436.14.436.36 0 .348-.44.728-.88.728-.268 0-.424-.156-.424-.36" /><text font-size="2.47" text-anchor="start" transform="translate(52.429 15.13)">
<tspan>som-</tspan>
</text><path d="M54.275 20.763c0-.364.464-.728.868-.728.252 0 .436.14.436.36 0 .348-.44.728-.88.728-.268 0-.424-.156-.424-.36M54.275 25.263c0-.364.464-.728.868-.728.252 0 .436.14.436.36 0 .348-.44.728-.88.728-.268 0-.424-.156-.424-.36" /><rect width=".13" height="3.31" x="-.07" y="-1.5" ry=".04" transform="translate(55.512 4.04)" /><rect width=".13" height="2.31" x="-.07" y="4.19" ry=".04" transform="translate(54.342 4.04)" /><rect width=".13" height="2.31" x="-.07" y="-5.5" ry=".04" transform="translate(55.512 23.579)" /><rect width=".13" height="2.65" x="-.07" y="1.69" ry=".04" transform="translate(54.342 23.579)" /><path d="M59.235 6.224c0-.364.464-.728.868-.728.252 0 .436.14.436.36 0 .348-.44.728-.88.728-.268 0-.424-.156-.424-.36M59.235 8.224c0-.364.464-.728.868-.728.252 0 .436.14.436.36 0 .348-.44.728-.88.728-.268 0-.424-.156-.424-.36" /><text font-size="2.47" text-anchor="start" transform="translate(57.875 15.13)">
<tspan>mes</tspan>
</text><path d="M59.235 20.763c0-.364.464-.728.868-.728.252 0 .436.14.436.36 0 .348-.44.728-.88.728-.268 0-.424-.156-.424-.36M59.235 25.263c0-.364.464-.728.868-.728.252 0 .436.14.436.36 0 .348-.44.728-.88.728-.268 0-.424-.156-.424-.36" /><rect width=".13" height="3.31" x="-.07" y="-1.5" ry=".04" transform="translate(60.472 4.04)" /><rect width=".13" height="2.31" x="-.07" y="4.19" ry=".04" transform="translate(59.303 4.04)" /><rect width=".13" height="2.31" x="-.07" y="-5.5" ry=".04" transform="translate(60.472 23.579)" /><rect width=".13" height="2.65" x="-.07" y="1.69" ry=".04" transform="translate(59.303 23.579)" /><path d="M64.052 6.464c.16 0 .816-.44.924-.572a.2.2 0 0 0 .044-.112.166.166 0 0 0-.168-.164c-.16 0-.816.44-.924.572a.2.2 0 0 0-.04.112c0 .088.068.164.164.164m-.288-.156c0-.284.184-.812 1.032-.812.164 0 .344.04.344.276 0 .284-.184.812-1.032.812-.164 0-.344-.04-.344-.276M64.052 8.464c.16 0 .816-.44.924-.572a.2.2 0 0 0 .044-.112.166.166 0 0 0-.168-.164c-.16 0-.816.44-.924.572a.2.2 0 0 0-.04.112c0 .088.068.164.164.164m-.288-.156c0-.284.184-.812 1.032-.812.164 0 .344.04.344.276 0 .284-.184.812-1.032.812-.164 0-.344-.04-.344-.276" /><text font-size="2.47" text-anchor="start" transform="translate(62.35 15.13)">
<tspan>sau-</tspan>
</text><path d="M64.052 21.503c.16 0 .816-.44.924-.572a.2.2 0 0 0 .044-.112.166.166 0 0 0-.168-.164c-.16 0-.816.44-.924.572a.2.2 0 0 0-.04.112c0 .088.068.164.164.164m-.288-.156c0-.284.184-.812 1.032-.812.164 0 .344.04.344.276 0 .284-.184.812-1.032.812-.164 0-.344-.04-.344-.276M64.052 23.503c.16 0 .816-.44.924-.572a.2.2 0 0 0 .044-.112.166.166 0 0 0-.168-.164c-.16 0-.816.44-.924.572a.2.2 0 0 0-.04.112c0 .088.068.164.164.164m-.288-.156c0-.284.184-.812 1.032-.812.164 0 .344.04.344.276 0 .284-.184.812-1.032.812-.164 0-.344-.04-.344-.276" /><rect width=".13" height="3.24" x="-.07" y="-1.5" ry=".04" transform="translate(65.074 4.04)" /><rect width=".13" height="2.24" x="-.07" y="4.26" ry=".04" transform="translate(63.831 4.04)" /><rect width=".13" height="2.24" x="-.07" y="-5" ry=".04" transform="translate(65.074 23.579)" /><rect width=".13" height="3.24" x="-.07" y="-.24" ry=".04" transform="translate(63.831 23.579)" /><path d="M68.527 6.464c.16 0 .816-.44.924-.572a.2.2 0 0 0 .044-.112.166.166 0 0 0-.168-.164c-.16 0-.816.44-.924.572a.2.2 0 0 0-.04.112c0 .088.068.164.164.164m-.288-.156c0-.284.184-.812 1.032-.812.164 0 .344.04.344.276 0 .284-.184.812-1.032.812-.164 0-.344-.04-.344-.276M68.66 1.26a.268.268 0 1 1 .536 0 .268.268 0 0 1-.536 0m-1.06.204c0-.14.308-1.464 1.328-1.464s1.328 1.324 1.328 1.464c0 .036-.04.06-.076.06s-.068-.02-.076-.072C70 .86 69.52.404 68.928.404s-1.072.456-1.176 1.048c-.008.052-.04.072-.076.072s-.076-.024-.076-.06M68.527 8.964c.16 0 .816-.44.924-.572a.2.2 0 0 0 .044-.112.166.166 0 0 0-.168-.164c-.16 0-.816.44-.924.572a.2.2 0 0 0-.04.112c0 .088.068.164.164.164m-.288-.156c0-.284.184-.812 1.032-.812.164 0 .344.04.344.276 0 .284-.184.812-1.032.812-.164 0-.344-.04-.344-.276M68.66 11.708a.268.268 0 1 1 .536 0 .268.268 0 0 1-.536 0m1.596-.204c0 .14-.308 1.464-1.328 1.464S67.6 11.644 67.6 11.504c0-.036.04-.06.076-.06s.068.02.076.072c.104.592.584 1.048 1.176 1.048s1.072-.456 1.176-1.048c.008-.052.04-.072.076-.072s.076.024.076.06" /><text font-size="2.47" text-anchor="start" transform="translate(67.005 15.13)">
<tspan>vés.</tspan>
</text><path d="M68.527 21.503c.16 0 .816-.44.924-.572a.2.2 0 0 0 .044-.112.166.166 0 0 0-.168-.164c-.16 0-.816.44-.924.572a.2.2 0 0 0-.04.112c0 .088.068.164.164.164m-.288-.156c0-.284.184-.812 1.032-.812.164 0 .344.04.344.276 0 .284-.184.812-1.032.812-.164 0-.344-.04-.344-.276M68.66 17.911a.268.268 0 1 1 .536 0 .268.268 0 0 1-.536 0m-1.06.204c0-.14.308-1.464 1.328-1.464s1.328 1.324 1.328 1.464c0 .036-.04.06-.076.06s-.068-.02-.076-.072c-.104-.592-.584-1.048-1.176-1.048s-1.072.456-1.176 1.048c-.008.052-.04.072-.076.072s-.076-.024-.076-.06M68.527 23.503c.16 0 .816-.44.924-.572a.2.2 0 0 0 .044-.112.166.166 0 0 0-.168-.164c-.16 0-.816.44-.924.572a.2.2 0 0 0-.04.112c0 .088.068.164.164.164m-.288-.156c0-.284.184-.812 1.032-.812.164 0 .344.04.344.276 0 .284-.184.812-1.032.812-.164 0-.344-.04-.344-.276M68.66 27.247a.268.268 0 1 1 .536 0 .268.268 0 0 1-.536 0m1.596-.204c0 .14-.308 1.464-1.328 1.464S67.6 27.183 67.6 27.043c0-.036.04-.06.076-.06s.068.02.076.072c.104.592.584 1.048 1.176 1.048s1.072-.456 1.176-1.048c.008-.052.04-.072.076-.072s.076.024.076.06" /><rect width=".13" height="3.24" x="-.07" y="-1.5" ry=".04" transform="translate(69.55 4.04)" /><rect width=".13" height="2.24" x="-.07" y="4.76" ry=".04" transform="translate(68.306 4.04)" /><path d="M66.79 8.064c0-.032.02-.06.051-.072l.184-.068v-.632c0-.04.032-.076.072-.076s.076.036.076.076v.58l.332-.124v-.632c0-.04.036-.076.076-.076s.072.036.072.076v.58l.128-.048c.008-.004.02-.004.028-.004a.08.08 0 0 1 .08.08v.24c0 .032-.02.064-.052.076l-.184.064v.64l.128-.044c.008-.004.02-.004.028-.004a.08.08 0 0 1 .08.08v.24c0 .032-.02.06-.052.072l-.184.068v.632c0 .04-.032.076-.072.076s-.076-.036-.076-.076v-.58l-.332.124v.632c0 .04-.036.076-.076.076s-.072-.036-.072-.076v-.58l-.128.048c-.008.004-.02.004-.028.004a.08.08 0 0 1-.08-.08v-.24c0-.032.02-.064.052-.076l.184-.064v-.64l-.128.044c-.008.004-.02.004-.028.004a.08.08 0 0 1-.08-.08zm.715.096-.332.12v.64l.332-.12z" /><rect width=".13" height="2.24" x="-.07" y="-5" ry=".04" transform="translate(69.55 23.579)" /><rect width=".13" height="3.24" x="-.07" y="-.24" ry=".04" transform="translate(68.306 23.579)" /></svg>