<svg xmlns="http://www.w3.org/2000/svg" width="388.57" height="83.94" viewBox="0 -0.02 61.58 13.3" fill="currentColor" font-family="Linux Libertine"><style type="text/css">tspan{white-space:pre}</style><rect width=".2" height="4" x="0" y="-2" ry="0" transform="translate(14.053 3.776)" /><path stroke="currentColor" stroke-linecap="round" stroke-linejoin="round" stroke-width=".1" d="M.05 5.776h61.48M.05 4.776h61.48M.05 3.776h61.48M.05 2.776h61.48M.05 1.776h61.48" /><rect width=".62" height="4" x="0" y="-2" ry="0" transform="translate(60.964 3.776)" /><rect width=".2" height="4" x="0" y="-2" ry="0" transform="translate(60.457 3.776)" /><rect width=".2" height="4" x="0" y="-2" ry="0" transform="translate(44.58 3.776)" /><rect width="1.96" height=".2" x="50.37" y="-.1" ry=".1" transform="translate(0 6.776)" /><rect width="1.96" height=".2" x="50.37" y="-.1" ry=".1" transform="translate(0 7.776)" /><rect width="1.96" height=".2" x="47.01" y="-.1" ry=".1" transform="translate(0 6.776)" /><rect width="1.96" height=".2" x="47.01" y="-.1" ry=".1" transform="translate(0 7.776)" /><rect width="1.96" height=".2" x="40.69" y="-.1" ry=".1" transform="translate(0 6.776)" /><rect width="1.96" height=".2" x="29.92" y="-.1" ry=".1" transform="translate(0 6.776)" /><path stroke="currentColor" stroke-linecap="round" stroke-linejoin="round" stroke-width=".08" d="M51.962 2.578v.396H47.24v-.396z" /><path d="M9.955 6.46c0-.364.464-.728.868-.728.252 0 .436.14.436.36 0 .348-.44.728-.88.728-.268 0-.424-.156-.424-.36" /><path d="M9.955 6.46c0-.364.464-.728.868-.728.252 0 .436.14.436.36 0 .348-.44.728-.88.728-.268 0-.424-.156-.424-.36M1.864 7.316H1.84a.783.783 0 0 1-.78-.788c0-.232.212-.412.448-.412.216 0 .38.188.38.412 0 .208-.172.38-.38.38a.3.3 0 0 1-.124-.024c.104.156.272.26.468.26h.016zm.54-3.144c.076.356.192.968.24 1.416a.67.67 0 0 0 .448-.652.753.753 0 0 0-.688-.764m-1.308.492c0 .448.392.988 1.112.988q.127 0 .272-.024a17 17 0 0 0-.252-1.456c-.316.032-.496.244-.496.476 0 .176.1.364.324.492q.029.03.028.06c0 .044-.04.088-.088.088-.06 0-.504-.248-.504-.748 0-.352.232-.696.64-.788a15 15 0 0 0-.184-.7c-.428.484-.852.972-.852 1.612M2.228 0C2.34 0 2.8.824 2.8 1.444c0 .572-.344 1.02-.72 1.456.084.272.156.552.224.828.02 0 .04-.004.056-.004.62 0 1.02.516 1.02 1.048 0 .452-.296.848-.72.98q.019.21.02.42c0 .076-.004.156-.008.232-.028.476-.352.9-.808.912l.004-.172c.372-.008.612-.368.636-.764q.007-.11.008-.22.001-.184-.016-.368-.169.031-.32.032c-.956 0-1.368-.868-1.368-1.496 0-.708.524-1.224.992-1.764-.116-.384-.208-.68-.208-1.384 0-.756.576-1.18.636-1.18m-.44 1.648c0 .22.048.46.14.76.328-.4.588-.808.588-1.304 0-.16-.024-.328-.084-.508a1.13 1.13 0 0 0-.644 1.052M4.413 3.612l-.004.264v.044q-.001.132.016.264c.18-.152.372-.32.372-.556 0-.132-.056-.268-.172-.268-.124 0-.208.12-.212.252m-.168.716-.048-2.38c.032-.02.072-.032.108-.032s.076.012.108.032l-.028 1.38a.58.58 0 0 1 .364-.136c.208 0 .356.192.356.408 0 .32-.344.468-.588.676-.06.052-.096.152-.18.152-.052 0-.092-.044-.092-.1M7.987 4.132c0 .088-.2.696-.732.696-.236 0-1-.076-1-1.052 0-.248.072-1.048 1-1.048.464 0 .704.424.704.652 0 .16-.12.288-.268.288-.124 0-.3-.1-.3-.3 0-.152.108-.308.288-.308q.025-.001.056.004a.6.6 0 0 0-.48-.236c-.424 0-.452.292-.452.744v.408c0 .452.028.748.452.748.32 0 .556-.28.632-.604.008-.028.028-.04.048-.04.024 0 .052.016.052.048" /><text font-size="2.47" text-anchor="start" transform="translate(8.055 12.69)">
<tspan>Puis-</tspan>
</text><rect width=".13" height="3.31" x="-.07" y="-1" ry=".04" transform="translate(11.192 3.776)" /><path d="M11.26 2.818v1.5h-.065v-1.5zm.491 2.916c0-.04.168-.348.168-.784 0-.412-.376-.832-.66-1.132v-1c0 .788.828 1.344.828 2.132 0 .284-.06.564-.164.828a.1.1 0 0 1-.08.048.09.09 0 0 1-.092-.092" /><rect width=".13" height="2.81" x="-.07" y="2.69" ry=".04" transform="translate(10.022 3.776)" /><path d="M10.09 9.234h-.065v-1.5h.064zm.896-2.036c0-.376-.16-.632-.16-.672 0-.056.043-.088.091-.088.029 0 .06.012.08.044.1.224.16.468.16.716 0 .812-1.067 1.224-1.067 2.036v-1c.388-.236.896-.592.896-1.036" /><path stroke="currentColor" stroke-linecap="round" stroke-linejoin="round" stroke-width=".08" d="M41.105 9.39v.396l-2.585-.624v-.396z" /><path d="M15.742 4.46c0-.364.464-.728.868-.728.252 0 .436.14.436.36 0 .348-.44.728-.88.728-.268 0-.424-.156-.424-.36M15.742 6.46c0-.364.464-.728.868-.728.252 0 .436.14.436.36 0 .348-.44.728-.88.728-.268 0-.424-.156-.424-.36" /><path d="M15.742 5.46c0-.364.464-.728.868-.728.252 0 .436.14.436.36 0 .348-.44.728-.88.728-.268 0-.424-.156-.424-.36" /><text font-size="2.47" text-anchor="start" transform="translate(13.609 12.69)">
<tspan>sance</tspan>
</text><rect width=".13" height="2.5" x="-.07" y="-2.19" ry=".04" transform="translate(16.98 3.776)" /><rect width=".13" height="3.5" x="-.07" y="1.69" ry=".04" transform="translate(15.81 3.776)" /><path stroke="currentColor" stroke-linecap="round" stroke-linejoin="round" stroke-width=".08" d="M42.275 2.39v.396l-2.585-.624v-.396z" /><path d="M21.35 4.46c0-.364.464-.728.868-.728.252 0 .436.14.436.36 0 .348-.44.728-.88.728-.268 0-.424-.156-.424-.36M21.35 6.46c0-.364.464-.728.868-.728.252 0 .436.14.436.36 0 .348-.44.728-.88.728-.268 0-.424-.156-.424-.36" /><path d="M21.35 5.46c0-.364.464-.728.868-.728.252 0 .436.14.436.36 0 .348-.44.728-.88.728-.268 0-.424-.156-.424-.36" /><text font-size="2.47" text-anchor="start" transform="translate(19.63 12.69)">
<tspan>hon-</tspan>
</text><rect width=".13" height="2.36" x="-.07" y="-2.04" ry=".04" transform="translate(22.587 3.776)" /><rect width=".13" height="3.62" x="-.07" y="1.69" ry=".04" transform="translate(21.417 3.776)" /><path d="M26.508 5.46c0-.364.464-.728.868-.728.252 0 .436.14.436.36 0 .348-.44.728-.88.728-.268 0-.424-.156-.424-.36" /><path d="M26.508 6.46c0-.364.464-.728.868-.728.252 0 .436.14.436.36 0 .348-.44.728-.88.728-.268 0-.424-.156-.424-.36" /><text font-size="2.47" text-anchor="start" transform="translate(24.824 12.69)">
<tspan>neur</tspan>
</text><rect width=".13" height="3.22" x="-.07" y="-1.91" ry=".04" transform="translate(27.745 3.776)" /><rect width=".13" height="2.73" x="-.07" y="2.69" ry=".04" transform="translate(26.575 3.776)" /><path d="M30.246 4.96c0-.364.464-.728.868-.728.252 0 .436.14.436.36 0 .348-.44.728-.88.728-.268 0-.424-.156-.424-.36M30.246 6.96c0-.364.464-.728.868-.728.252 0 .436.14.436.36 0 .348-.44.728-.88.728-.268 0-.424-.156-.424-.36" /><path d="M30.246 5.96c0-.364.464-.728.868-.728.252 0 .436.14.436.36 0 .348-.44.728-.88.728-.268 0-.424-.156-.424-.36" /><text font-size="2.47" text-anchor="start" transform="translate(29.946 12.69)">
<tspan>et</tspan>
</text><rect width=".13" height="2.63" x="-.07" y="-1.81" ry=".04" transform="translate(31.483 3.776)" /><rect width=".13" height="3.31" x="-.07" y="2.19" ry=".04" transform="translate(30.314 3.776)" /><path d="M34.56 4.46c0-.364.464-.728.868-.728.252 0 .436.14.436.36 0 .348-.44.728-.88.728-.268 0-.424-.156-.424-.36" /><path d="M34.56 5.46c0-.364.464-.728.868-.728.252 0 .436.14.436.36 0 .348-.44.728-.88.728-.268 0-.424-.156-.424-.36" /><text font-size="2.47" text-anchor="start" transform="translate(32.3 12.69)">
<tspan>gloire</tspan>
</text><rect width=".13" height="3.31" x="-.07" y="-3" ry=".04" transform="translate(35.797 3.776)" /><rect width=".13" height="2.65" x="-.07" y="1.69" ry=".04" transform="translate(34.627 3.776)" /><path d="M38.478 5.46c0-.364.464-.728.868-.728.252 0 .436.14.436.36 0 .348-.44.728-.88.728-.268 0-.424-.156-.424-.36" /><path d="M38.478 6.46c0-.364.464-.728.868-.728.252 0 .436.14.436.36 0 .348-.44.728-.88.728-.268 0-.424-.156-.424-.36" /><text font-size="2.47" text-anchor="start" transform="translate(38.573 12.69)">
<tspan>à</tspan>
</text><rect width=".13" height="3.11" x="-.07" y="-1.8" ry=".04" transform="translate(39.715 3.776)" /><rect width=".13" height="2.52" x="-.07" y="2.69" ry=".04" transform="translate(38.545 3.776)" /><path stroke="currentColor" stroke-linecap="round" stroke-linejoin="round" stroke-width=".08" d="M30.339 9.078v.396l-14.555-.312v-.396z" /><path d="M41.013 6.46c0-.364.464-.728.868-.728.252 0 .436.14.436.36 0 .348-.44.728-.88.728-.268 0-.424-.156-.424-.36" /><path d="M41.013 7.46c0-.364.464-.728.868-.728.252 0 .436.14.436.36 0 .348-.44.728-.88.728-.268 0-.424-.156-.424-.36" /><text font-size="2.47" text-anchor="start" transform="translate(40.137 12.69)">
<tspan>l'a-</tspan>
</text><rect width=".13" height="3.52" x="-.07" y="-1.2" ry=".04" transform="translate(42.25 3.776)" /><rect width=".13" height="2.11" x="-.07" y="3.69" ry=".04" transform="translate(41.08 3.776)" /><path stroke="currentColor" stroke-linecap="round" stroke-linejoin="round" stroke-width=".08" d="M31.508 1.766v.396l-14.554-.376V1.39z" /><path d="M46.027 5.96c0-.364.464-.728.868-.728.252 0 .436.14.436.36 0 .348-.44.728-.88.728-.268 0-.424-.156-.424-.36M47.331 8.46c0-.364.464-.728.868-.728.252 0 .436.14.436.36 0 .348-.44.728-.88.728-.268 0-.424-.156-.424-.36M47.331 6.46c0-.364.464-.728.868-.728.252 0 .436.14.436.36 0 .348-.44.728-.88.728-.268 0-.424-.156-.424-.36" /><text font-size="2.47" text-anchor="start" transform="translate(43.642 12.69)">
<tspan>gneau</tspan>
</text><rect width=".13" height="2.81" x="-.07" y="-1" ry=".04" transform="translate(47.264 3.776)" /><rect width=".13" height="4.12" x="-.07" y="2.69" ry=".04" transform="translate(47.398 3.776)" /><path d="M50.7 5.96c0-.364.464-.728.868-.728.252 0 .436.14.436.36 0 .348-.44.728-.88.728-.268 0-.424-.156-.424-.36M50.7 7.96c0-.364.464-.728.868-.728.252 0 .436.14.436.36 0 .348-.44.728-.88.728-.268 0-.424-.156-.424-.36" /><path d="M50.7 6.96c0-.364.464-.728.868-.728.252 0 .436.14.436.36 0 .348-.44.728-.88.728-.268 0-.424-.156-.424-.36" /><text font-size="2.47" text-anchor="start" transform="translate(50.166 12.69)">
<tspan>de</tspan>
</text><rect width=".13" height="2.81" x="-.07" y="-1" ry=".04" transform="translate(51.937 3.776)" /><rect width=".13" height="3.32" x="-.07" y="3.19" ry=".04" transform="translate(50.767 3.776)" /><path d="M49.25 6.3c0-.032.02-.06.052-.072l.184-.068v-.632c0-.04.032-.076.072-.076s.076.036.076.076v.58l.332-.124v-.632c0-.04.036-.076.076-.076s.072.036.072.076v.58l.128-.048q.014-.005.028-.004a.08.08 0 0 1 .08.08v.24c0 .032-.02.064-.052.076l-.184.064v.64l.128-.044q.014-.005.028-.004a.08.08 0 0 1 .08.08v.24c0 .032-.02.06-.052.072l-.184.068v.632c0 .04-.032.076-.072.076s-.076-.036-.076-.076v-.58l-.332.124V8.2c0 .04-.036.076-.076.076s-.072-.036-.072-.076v-.58l-.128.048q-.014.005-.028.004a.08.08 0 0 1-.08-.08v-.24c0-.032.02-.064.052-.076l.184-.064v-.64l-.128.044q-.014.005-.028.004a.08.08 0 0 1-.08-.08zm.716.096-.332.12v.64l.332-.12zM55.66 6.7c.16 0 .816-.44.924-.572a.2.2 0 0 0 .044-.112.166.166 0 0 0-.168-.164c-.16 0-.816.44-.924.572a.2.2 0 0 0-.04.112c0 .088.068.164.164.164m-.288-.156c0-.284.184-.812 1.032-.812.164 0 .344.04.344.276 0 .284-.184.812-1.032.812-.164 0-.344-.04-.344-.276" /><path d="M55.66 6.7c.16 0 .816-.44.924-.572a.2.2 0 0 0 .044-.112.166.166 0 0 0-.168-.164c-.16 0-.816.44-.924.572a.2.2 0 0 0-.04.112c0 .088.068.164.164.164m-.288-.156c0-.284.184-.812 1.032-.812.164 0 .344.04.344.276 0 .284-.184.812-1.032.812-.164 0-.344-.04-.344-.276" /><text font-size="2.47" text-anchor="start" transform="translate(52.988 12.69)">
<tspan>Dieu !</tspan>
</text><rect width=".13" height="3.24" x="-.07" y="-1" ry=".04" transform="translate(56.683 3.776)" /><rect width=".13" height="2.24" x="-.07" y="2.76" ry=".04" transform="translate(55.44 3.776)" /><path stroke="currentColor" stroke-linecap="round" stroke-linejoin="round" stroke-width=".08" d="M50.793 10.078v.396l-3.42.312v-.396z" /></svg>