<svg xmlns="http://www.w3.org/2000/svg" width="379.99" height="47.62" viewBox="0 0 60.23 7.55" fill="currentColor" font-family="Linux Libertine"><rect width=".2" height="4" x="0" y="-2" ry="0" transform="translate(25.692 4)" /><path stroke="currentColor" stroke-linecap="round" stroke-linejoin="round" stroke-width=".1" d="M.05 6h60.12M.05 5h60.12M.05 4h60.12M.05 3h60.12M.05 2h60.12" /><rect width=".62" height="4" x="0" y="-2" ry="0" transform="translate(59.605 4)" /><rect width=".2" height="4" x="0" y="-2" ry="0" transform="translate(59.098 4)" /><rect width=".2" height="4" x="0" y="-2" ry="0" transform="translate(42.248 4)" /><path d="M34.703 3.604a.55.55 0 0 0-.532-.556c-.092 0-.28.04-.28.356 0 .364.304.544.528.544.088 0 .284-.032.284-.344m-.408-.648c.576 0 .984.26.984.544s-.408.544-.984.544-.98-.26-.98-.544.404-.544.98-.544M12.365 6.64c0 .044-.036.08-.08.08s-.08-.036-.08-.08V5.36c0-.044.036-.08.08-.08s.08.036.08.08zm-2.668 0c0 .044-.036.08-.08.08s-.08-.036-.08-.08V5.36c0-.044.036-.08.08-.08s.08.036.08.08zm1.256-1.184c.012 0 .836.008.968.452V5.36c0-.044.036-.08.08-.08s.08.036.08.08v1.28c0 .044-.036.08-.08.08s-.08-.036-.08-.08v-.548c-.068.224-.424.452-.968.452-.012 0-.836-.008-.968-.452v.548c0 .044-.036.08-.08.08s-.08-.036-.08-.08V5.36c0-.044.036-.08.08-.08s.08.036.08.08v.548c.068-.224.424-.452.968-.452m.408.648c0-.408-.36-.556-.536-.556-.092 0-.28.04-.28.356a.54.54 0 0 0 .532.544c.088 0 .284-.032.284-.344M1.864 7.54H1.84a.783.783 0 0 1-.78-.788c0-.232.212-.412.448-.412.216 0 .38.188.38.412 0 .208-.172.38-.38.38a.3.3 0 0 1-.124-.024c.104.156.272.26.468.26h.016zm.54-3.144c.076.356.192.968.24 1.416a.67.67 0 0 0 .448-.652.753.753 0 0 0-.688-.764m-1.308.492c0 .448.392.988 1.112.988q.127 0 .272-.024a17 17 0 0 0-.252-1.456c-.316.032-.496.244-.496.476 0 .176.1.364.324.492q.029.03.028.06c0 .044-.04.088-.088.088-.06 0-.504-.248-.504-.748 0-.352.232-.696.64-.788a15 15 0 0 0-.184-.7c-.428.484-.852.972-.852 1.612M2.228.224c.112 0 .572.824.572 1.444 0 .572-.344 1.02-.72 1.456.084.272.156.552.224.828.02 0 .04-.004.056-.004.62 0 1.02.516 1.02 1.048 0 .452-.296.848-.72.98q.019.21.02.42c0 .076-.004.156-.008.232-.028.476-.352.9-.808.912l.004-.172c.372-.008.612-.368.636-.764a3.775 3.775 0 0 0-.008-.588q-.169.031-.32.032C1.22 6.048.808 5.18.808 4.552c0-.708.524-1.224.992-1.764-.116-.384-.208-.68-.208-1.384 0-.756.576-1.18.636-1.18m-.44 1.648c0 .22.048.46.14.76.328-.4.588-.808.588-1.304 0-.16-.024-.328-.084-.508a1.13 1.13 0 0 0-.644 1.052M4.185 1.524c0-.032.02-.06.052-.072l.184-.068V.752c0-.04.032-.076.072-.076s.076.036.076.076v.58l.332-.124V.576c0-.04.036-.076.076-.076s.072.036.072.076v.58l.128-.048q.014-.005.028-.004a.08.08 0 0 1 .08.08v.24c0 .032-.02.064-.052.076l-.184.064v.64l.128-.044q.014-.005.028-.004a.08.08 0 0 1 .08.08v.24c0 .032-.02.06-.052.072l-.184.068v.632c0 .04-.032.076-.072.076s-.076-.036-.076-.076v-.58l-.332.124v.632c0 .04-.036.076-.076.076s-.072-.036-.072-.076v-.58l-.128.048q-.014.005-.028.004a.08.08 0 0 1-.08-.08v-.24c0-.032.02-.064.052-.076l.184-.064v-.64l-.128.044q-.014.005-.028.004a.08.08 0 0 1-.08-.08zm.716.096-.332.12v.64l.332-.12zM5.285 3.024c0-.032.02-.06.052-.072l.184-.068v-.632c0-.04.032-.076.072-.076s.076.036.076.076v.58l.332-.124v-.632c0-.04.036-.076.076-.076s.072.036.072.076v.58l.128-.048c.008-.004.02-.004.028-.004a.08.08 0 0 1 .08.08v.24c0 .032-.02.064-.052.076l-.184.064v.64l.128-.044c.008-.004.02-.004.028-.004a.08.08 0 0 1 .08.08v.24c0 .032-.02.06-.052.072l-.184.068v.632c0 .04-.032.076-.072.076s-.076-.036-.076-.076v-.58l-.332.124v.632c0 .04-.036.076-.076.076s-.072-.036-.072-.076v-.58l-.128.048c-.008.004-.02.004-.028.004a.08.08 0 0 1-.08-.08v-.24c0-.032.02-.064.052-.076l.184-.064v-.64l-.128.044c-.008.004-.02.004-.028.004a.08.08 0 0 1-.08-.08zm.716.096-.332.12v.64l.332-.12zM6.385 1.024c0-.032.02-.06.052-.072l.184-.068V.252c0-.04.032-.076.072-.076s.076.036.076.076v.58l.332-.124V.076c0-.04.036-.076.076-.076s.072.036.072.076v.58l.128-.048q.014-.005.028-.004a.08.08 0 0 1 .08.08v.24c0 .032-.02.064-.052.076l-.184.064v.64l.128-.044q.014-.005.028-.004a.08.08 0 0 1 .08.08v.24c0 .032-.02.06-.052.072l-.184.068v.632c0 .04-.032.076-.072.076s-.076-.036-.076-.076v-.58l-.332.124v.632c0 .04-.036.076-.076.076s-.072-.036-.072-.076v-.58l-.128.048q-.014.005-.028.004a.08.08 0 0 1-.08-.08v-.24c0-.032.02-.064.052-.076l.184-.064v-.64l-.128.044q-.014.005-.028.004a.08.08 0 0 1-.08-.08zm.716.096-.332.12v.64l.332-.12zM17.853 5.604a.55.55 0 0 0-.532-.556c-.092 0-.28.04-.28.356 0 .364.304.544.528.544.088 0 .284-.032.284-.344m-.408-.648c.576 0 .984.26.984.544s-.408.544-.984.544-.98-.26-.98-.544.404-.544.98-.544M22.525 4.684c0-.364.464-.728.868-.728.252 0 .436.14.436.36 0 .348-.44.728-.88.728-.268 0-.424-.156-.424-.36" /><rect width=".13" height="3.31" x="-.07" y="-3" ry=".04" transform="translate(23.762 4)" /><path d="M29.215 5.14c0 .044-.036.08-.08.08s-.08-.036-.08-.08V3.86c0-.044.036-.08.08-.08s.08.036.08.08zm-2.668 0c0 .044-.036.08-.08.08s-.08-.036-.08-.08V3.86c0-.044.036-.08.08-.08s.08.036.08.08zm1.256-1.184c.012 0 .836.008.968.452V3.86c0-.044.036-.08.08-.08s.08.036.08.08v1.28c0 .044-.036.08-.08.08s-.08-.036-.08-.08v-.548c-.068.224-.424.452-.968.452-.012 0-.836-.008-.968-.452v.548c0 .044-.036.08-.08.08s-.08-.036-.08-.08V3.86c0-.044.036-.08.08-.08s.08.036.08.08v.548c.068-.224.424-.452.968-.452m.408.648c0-.408-.36-.556-.536-.556-.092 0-.28.04-.28.356a.54.54 0 0 0 .532.544c.088 0 .284-.032.284-.344M39.375 4.184c0-.364.464-.728.868-.728.252 0 .436.14.436.36 0 .348-.44.728-.88.728-.268 0-.424-.156-.424-.36" /><rect width=".13" height="3.15" x="-.07" y=".19" ry=".04" transform="translate(39.443 4)" /><path d="M45.77 5.14c0 .044-.035.08-.08.08s-.08-.036-.08-.08V3.86c0-.044.037-.08.08-.08s.08.036.08.08zm-2.667 0c0 .044-.036.08-.08.08s-.08-.036-.08-.08V3.86c0-.044.036-.08.08-.08s.08.036.08.08zm1.256-1.184c.012 0 .836.008.968.452V3.86c0-.044.036-.08.08-.08s.08.036.08.08v1.28c0 .044-.036.08-.08.08s-.08-.036-.08-.08v-.548c-.068.224-.424.452-.968.452-.012 0-.836-.008-.968-.452v.548c0 .044-.036.08-.08.08s-.08-.036-.08-.08V3.86c0-.044.036-.08.08-.08s.08.036.08.08v.548c.068-.224.424-.452.968-.452m.408.648c0-.408-.36-.556-.536-.556-.092 0-.28.04-.28.356a.54.54 0 0 0 .532.544c.088 0 .284-.032.284-.344M51.259 5.604a.55.55 0 0 0-.532-.556c-.092 0-.28.04-.28.356 0 .364.304.544.528.544.088 0 .284-.032.284-.344m-.408-.648c.576 0 .984.26.984.544s-.408.544-.984.544-.98-.26-.98-.544.404-.544.98-.544M55.93 4.684c0-.364.465-.728.869-.728.252 0 .436.14.436.36 0 .348-.44.728-.88.728-.268 0-.424-.156-.424-.36" /><rect width=".13" height="3.31" x="-.07" y="-3" ry=".04" transform="translate(57.168 4)" /></svg>