<svg xmlns="http://www.w3.org/2000/svg" width="680.31" height="59.6" viewBox="0 0 107.82 9.44" fill="currentColor" font-family="Linux Libertine"><style type="text/css">tspan{white-space:pre}</style><rect width=".2" height="4" x="0" y="-2" ry="0" transform="translate(19.154 5.269)" /><path stroke="currentColor" stroke-linecap="round" stroke-linejoin="round" stroke-width=".1" d="M.05 7.269h107.72M.05 6.269h107.72M.05 5.269h107.72M.05 4.269h107.72M.05 3.269h107.72" /><rect width=".2" height="4" x="0" y="-2" ry="0" transform="translate(53.776 5.269)" /><rect width=".62" height="4" x="0" y="-2" ry="0" transform="translate(107.2 5.269)" /><rect width=".2" height="4" x="0" y="-2" ry="0" transform="translate(106.693 5.269)" /><rect width=".2" height="4" x="0" y="-2" ry="0" transform="translate(83.974 5.269)" /><rect width=".2" height="4" x="0" y="-2" ry="0" transform="translate(83.467 5.269)" /><rect width=".2" height="4" x="0" y="-2" ry="0" transform="translate(68.604 5.269)" /><rect width=".2" height="4" x="0" y="-2" ry="0" transform="translate(33.981 5.269)" /><path d="M57.3 7.909c0 .044-.037.08-.08.08s-.08-.036-.08-.08v-1.28c0-.044.035-.08.08-.08s.08.036.08.08zm-2.669 0c0 .044-.036.08-.08.08s-.08-.036-.08-.08v-1.28c0-.044.036-.08.08-.08s.08.036.08.08zm1.256-1.184c.012 0 .836.008.968.452v-.548c0-.044.036-.08.08-.08s.08.036.08.08v1.28c0 .044-.036.08-.08.08s-.08-.036-.08-.08V7.36c-.068.224-.424.452-.968.452-.012 0-.836-.008-.968-.452v.548c0 .044-.036.08-.08.08s-.08-.036-.08-.08v-1.28c0-.044.036-.08.08-.08s.08.036.08.08v.548c.068-.224.424-.452.968-.452m.408.648c0-.408-.36-.556-.536-.556-.092 0-.28.04-.28.356a.54.54 0 0 0 .532.544c.088 0 .284-.032.284-.344M97.34 6.373a.55.55 0 0 0-.533-.556c-.092 0-.28.04-.28.356 0 .364.304.544.528.544.088 0 .284-.032.284-.344m-.409-.648c.576 0 .984.26.984.544s-.408.544-.984.544-.98-.26-.98-.544.404-.544.98-.544M8.18 6.409c0 .044-.036.08-.08.08s-.08-.036-.08-.08v-1.28c0-.044.036-.08.08-.08s.08.036.08.08zm-2.668 0c0 .044-.036.08-.08.08s-.08-.036-.08-.08v-1.28c0-.044.036-.08.08-.08s.08.036.08.08zm1.256-1.184c.012 0 .836.008.968.452v-.548c0-.044.036-.08.08-.08s.08.036.08.08v1.28c0 .044-.036.08-.08.08s-.08-.036-.08-.08V5.86c-.068.224-.424.452-.968.452-.012 0-.836-.008-.968-.452v.548c0 .044-.036.08-.08.08s-.08-.036-.08-.08v-1.28c0-.044.036-.08.08-.08s.08.036.08.08v.548c.068-.224.424-.452.968-.452m.408.648c0-.408-.36-.556-.536-.556-.092 0-.28.04-.28.356a.54.54 0 0 0 .532.544c.088 0 .284-.032.284-.344M1.864 8.809H1.84a.783.783 0 0 1-.78-.788c0-.232.212-.412.448-.412.216 0 .38.188.38.412 0 .208-.172.38-.38.38a.3.3 0 0 1-.124-.024c.104.156.272.26.468.26h.016zm.54-3.144c.076.356.192.968.24 1.416a.67.67 0 0 0 .448-.652.753.753 0 0 0-.688-.764m-1.308.492c0 .448.392.988 1.112.988q.127 0 .272-.024a17 17 0 0 0-.252-1.456c-.316.032-.496.244-.496.476 0 .176.1.364.324.492q.029.03.028.06c0 .044-.04.088-.088.088-.06 0-.504-.248-.504-.748 0-.352.232-.696.64-.788a15 15 0 0 0-.184-.7c-.428.484-.852.972-.852 1.612m1.132-4.664c.112 0 .572.824.572 1.444 0 .572-.344 1.02-.72 1.456.084.272.156.552.224.828.02 0 .04-.004.056-.004.62 0 1.02.516 1.02 1.048 0 .452-.296.848-.72.98q.019.21.02.42-.001.116-.008.232c-.028.476-.352.9-.808.912l.004-.172c.372-.008.612-.368.636-.764a3.775 3.775 0 0 0-.008-.588q-.169.031-.32.032C1.22 7.317.808 6.449.808 5.82c0-.708.524-1.224.992-1.764-.116-.384-.208-.68-.208-1.384 0-.756.576-1.18.636-1.18m-.44 1.648c0 .22.048.46.14.76.328-.4.588-.808.588-1.304 0-.16-.024-.328-.084-.508a1.13 1.13 0 0 0-.644 1.052M12.815 4.873a.55.55 0 0 0-.532-.556c-.092 0-.28.04-.28.356 0 .364.304.544.528.544.088 0 .284-.032.284-.344m-.408-.648c.576 0 .984.26.984.544s-.408.544-.984.544-.98-.26-.98-.544.404-.544.98-.544M16.635 5.453c0-.364.464-.728.868-.728.252 0 .436.14.436.36 0 .348-.44.728-.88.728-.268 0-.424-.156-.424-.36" /><rect width=".13" height="3.15" x="-.07" y=".19" ry=".04" transform="translate(16.702 5.269)" /><path d="M22.677 5.909c0 .044-.036.08-.08.08s-.08-.036-.08-.08v-1.28c0-.044.036-.08.08-.08s.08.036.08.08zm-2.668 0c0 .044-.036.08-.08.08s-.08-.036-.08-.08v-1.28c0-.044.036-.08.08-.08s.08.036.08.08zm1.256-1.184c.012 0 .836.008.968.452v-.548c0-.044.036-.08.08-.08s.08.036.08.08v1.28c0 .044-.036.08-.08.08s-.08-.036-.08-.08V5.36c-.068.224-.424.452-.968.452-.012 0-.836-.008-.968-.452v.548c0 .044-.036.08-.08.08s-.08-.036-.08-.08v-1.28c0-.044.036-.08.08-.08s.08.036.08.08v.548c.068-.224.424-.452.968-.452m.408.648c0-.408-.36-.556-.536-.556-.092 0-.28.04-.28.356a.54.54 0 0 0 .532.544c.088 0 .284-.032.284-.344M27.312 5.873a.55.55 0 0 0-.532-.556c-.092 0-.28.04-.28.356 0 .364.304.544.528.544.088 0 .284-.032.284-.344m-.408-.648c.576 0 .984.26.984.544s-.408.544-.984.544-.98-.26-.98-.544.404-.544.98-.544M31.132 6.453c0-.364.463-.728.867-.728.252 0 .436.14.436.36 0 .348-.44.728-.88.728-.268 0-.424-.156-.424-.36" /><rect width=".13" height="3.31" x="-.07" y="-2.5" ry=".04" transform="translate(32.368 5.269)" /><path d="M29.682 5.793c0-.032.02-.06.052-.072l.183-.068V5.02c0-.04.032-.076.072-.076s.076.036.076.076v.58l.332-.124v-.632c0-.04.037-.076.077-.076s.072.036.072.076v.58l.128-.048c.008-.004.02-.004.028-.004a.08.08 0 0 1 .08.08v.24c0 .032-.02.064-.053.076l-.184.064v.64l.128-.044c.008-.004.02-.004.028-.004a.08.08 0 0 1 .08.08v.24c0 .032-.02.06-.052.072l-.184.068v.632c0 .04-.032.076-.072.076s-.076-.036-.076-.076v-.58l-.332.124v.632c0 .04-.036.076-.076.076s-.072-.036-.072-.076v-.58l-.128.048c-.008.004-.02.004-.028.004a.08.08 0 0 1-.08-.08v-.24c0-.032.02-.064.052-.076l.184-.064v-.64l-.128.044c-.008.004-.02.004-.028.004a.08.08 0 0 1-.08-.08zm.716.096-.332.12v.64l.332-.12zM37.504 6.909c0 .044-.036.08-.08.08s-.08-.036-.08-.08v-1.28c0-.044.036-.08.08-.08s.08.036.08.08zm-2.668 0c0 .044-.036.08-.08.08s-.08-.036-.08-.08v-1.28c0-.044.036-.08.08-.08s.08.036.08.08zm1.256-1.184c.012 0 .836.008.968.452v-.548c0-.044.036-.08.08-.08s.08.036.08.08v1.28c0 .044-.036.08-.08.08s-.08-.036-.08-.08V6.36c-.068.224-.424.452-.968.452-.012 0-.836-.008-.968-.452v.548c0 .044-.036.08-.08.08s-.08-.036-.08-.08v-1.28c0-.044.036-.08.08-.08s.08.036.08.08v.548c.068-.224.424-.452.968-.452m.408.648c0-.408-.36-.556-.536-.556-.092 0-.28.04-.28.356a.54.54 0 0 0 .532.544c.088 0 .284-.032.284-.344" /><text font-size="1.75" text-anchor="start" transform="translate(85.005 1.802)">
<tspan>Doxologie</tspan>
</text><path stroke="currentColor" stroke-linecap="round" stroke-linejoin="round" stroke-width=".17" d="M107.737.083v2M84.087.083v2M84.087.083h23.65" /><path d="M42.14 5.873a.55.55 0 0 0-.532-.556c-.092 0-.28.04-.28.356 0 .364.304.544.528.544.088 0 .284-.032.284-.344m-.408-.648c.576 0 .984.26.984.544s-.408.544-.984.544-.98-.26-.98-.544.404-.544.98-.544M45.959 5.453c0-.364.464-.728.868-.728.252 0 .436.14.436.36 0 .348-.44.728-.88.728-.268 0-.424-.156-.424-.36" /><rect width=".13" height="3.15" x="-.07" y=".19" ry=".04" transform="translate(46.026 5.269)" /><path d="M48.608 4.953c0-.364.464-.728.868-.728.252 0 .436.14.436.36 0 .348-.44.728-.88.728-.268 0-.424-.156-.424-.36" /><rect width=".13" height="3.31" x="-.07" y="-.31" ry=".04" transform="translate(48.675 5.269)" /><rect width=".13" height="3.31" x="-.07" y="-1.5" ry=".04" transform="translate(105.045 5.269)" /><path d="M51.257 5.453c0-.364.464-.728.868-.728.252 0 .436.14.436.36 0 .348-.44.728-.88.728-.268 0-.424-.156-.424-.36" /><rect width=".13" height="3.15" x="-.07" y=".19" ry=".04" transform="translate(51.324 5.269)" /><path d="M103.808 7.453c0-.364.464-.728.868-.728.252 0 .436.14.436.36 0 .348-.44.728-.88.728-.268 0-.424-.156-.424-.36M61.934 5.873a.55.55 0 0 0-.532-.556c-.092 0-.28.04-.28.356 0 .364.304.544.528.544.088 0 .284-.032.284-.344m-.408-.648c.576 0 .984.26.984.544s-.408.544-.984.544-.98-.26-.98-.544.404-.544.98-.544M65.754 6.453c0-.364.464-.728.868-.728.252 0 .436.14.436.36 0 .348-.44.728-.88.728-.268 0-.424-.156-.424-.36" /><rect width=".13" height="3.31" x="-.07" y="-2.5" ry=".04" transform="translate(66.99 5.269)" /><rect width=".13" height="3.31" x="-.07" y="-2" ry=".04" transform="translate(102.396 5.269)" /><path d="M72.127 6.909c0 .044-.036.08-.08.08s-.08-.036-.08-.08v-1.28c0-.044.036-.08.08-.08s.08.036.08.08zm-2.668 0c0 .044-.036.08-.08.08s-.08-.036-.08-.08v-1.28c0-.044.036-.08.08-.08s.08.036.08.08zm1.256-1.184c.012 0 .836.008.968.452v-.548c0-.044.036-.08.08-.08s.08.036.08.08v1.28c0 .044-.036.08-.08.08s-.08-.036-.08-.08V6.36c-.068.224-.424.452-.968.452-.012 0-.836-.008-.968-.452v.548c0 .044-.036.08-.08.08s-.08-.036-.08-.08v-1.28c0-.044.036-.08.08-.08s.08.036.08.08v.548c.068-.224.424-.452.968-.452m.408.648c0-.408-.36-.556-.536-.556-.092 0-.28.04-.28.356a.54.54 0 0 0 .532.544c.088 0 .284-.032.284-.344M101.159 6.953c0-.364.464-.728.868-.728.252 0 .436.14.436.36 0 .348-.44.728-.88.728-.268 0-.424-.156-.424-.36M76.762 6.873a.55.55 0 0 0-.532-.556c-.092 0-.28.04-.28.356 0 .364.304.544.528.544.088 0 .284-.032.284-.344m-.408-.648c.576 0 .984.26.984.544s-.408.544-.984.544-.98-.26-.98-.544.404-.544.98-.544M80.581 7.453c0-.364.464-.728.868-.728.252 0 .436.14.436.36 0 .348-.44.728-.88.728-.268 0-.424-.156-.424-.36" /><rect width=".13" height="3.31" x="-.07" y="-1.5" ry=".04" transform="translate(81.818 5.269)" /><path d="M87.497 7.909c0 .044-.036.08-.08.08s-.08-.036-.08-.08v-1.28c0-.044.036-.08.08-.08s.08.036.08.08zm-2.668 0c0 .044-.036.08-.08.08s-.08-.036-.08-.08v-1.28c0-.044.036-.08.08-.08s.08.036.08.08zm1.256-1.184c.012 0 .836.008.968.452v-.548c0-.044.036-.08.08-.08s.08.036.08.08v1.28c0 .044-.036.08-.08.08s-.08-.036-.08-.08V7.36c-.068.224-.424.452-.968.452-.012 0-.836-.008-.968-.452v.548c0 .044-.036.08-.08.08s-.08-.036-.08-.08v-1.28c0-.044.036-.08.08-.08s.08.036.08.08v.548c.068-.224.424-.452.968-.452m.408.648c0-.408-.36-.556-.536-.556-.092 0-.28.04-.28.356a.54.54 0 0 0 .532.544c.088 0 .284-.032.284-.344" /><text color="rgba(100.0000%, 0.0000%, 0.0000%, 100.0000%)" font-size="3.3" font-weight="bold" text-anchor="start" transform="translate(82.938 9.55)">
<tspan>+</tspan>
</text><path d="M92.132 5.873a.55.55 0 0 0-.532-.556c-.092 0-.28.04-.28.356 0 .364.304.544.528.544.088 0 .284-.032.284-.344m-.408-.648c.576 0 .984.26.984.544s-.408.544-.984.544-.98-.26-.98-.544.404-.544.98-.544" /><text font-size="1.75" text-anchor="start" transform="translate(54.807 1.721)">
<tspan>Psaume</tspan>
</text><path stroke="currentColor" stroke-linecap="round" stroke-linejoin="round" stroke-width=".17" d="M53.886.083v2M53.886.083h29.66" /></svg>