<svg xmlns="http://www.w3.org/2000/svg" width="247.75" height="48.19" viewBox="0 0 39.26 7.64" fill="currentColor" font-family="Linux Libertine"><path stroke="currentColor" stroke-linecap="round" stroke-linejoin="round" stroke-width=".1" d="M.05 6.09h39.16M.05 5.09h39.16M.05 4.09h39.16M.05 3.09h39.16M.05 2.09h39.16" /><rect width=".2" height="4" x="0" y="-2" ry="0" transform="translate(21.213 4.09)" /><rect width=".62" height="4" x="0" y="-2" ry="0" transform="translate(38.641 4.09)" /><rect width=".2" height="4" x="0" y="-2" ry="0" transform="translate(38.134 4.09)" /><path d="M8.18 5.23c0 .043-.036.08-.08.08s-.08-.037-.08-.08V3.95c0-.045.036-.08.08-.08s.08.035.08.08zm-2.668 0c0 .043-.036.08-.08.08s-.08-.037-.08-.08V3.95c0-.045.036-.08.08-.08s.08.035.08.08zm1.256-1.185c.012 0 .836.008.968.452V3.95c0-.044.036-.08.08-.08s.08.036.08.08v1.28c0 .044-.036.08-.08.08s-.08-.036-.08-.08v-.548c-.068.224-.424.452-.968.452-.012 0-.836-.008-.968-.452v.548c0 .044-.036.08-.08.08s-.08-.036-.08-.08V3.95c0-.044.036-.08.08-.08s.08.036.08.08v.548c.068-.224.424-.452.968-.452m.408.648c0-.408-.36-.556-.536-.556-.092 0-.28.04-.28.356a.54.54 0 0 0 .532.544c.088 0 .284-.032.284-.344" /><text font-size="2.2" font-style="italic" text-anchor="start" transform="translate(5.8 1.537)">
<tspan style="white-space:pre">Autre Psalmodie</tspan>
</text><path d="M1.864 7.63H1.84a.783.783 0 0 1-.78-.789c0-.232.212-.412.448-.412.216 0 .38.188.38.412 0 .208-.172.38-.38.38a.3.3 0 0 1-.124-.024c.104.156.272.26.468.26h.016zm.54-3.145c.076.356.192.968.24 1.416a.67.67 0 0 0 .448-.652.753.753 0 0 0-.688-.764m-1.308.492c0 .448.392.988 1.112.988q.127 0 .272-.024a17 17 0 0 0-.252-1.456c-.316.032-.496.244-.496.476 0 .176.1.364.324.492q.029.03.028.06c0 .044-.04.088-.088.088-.06 0-.504-.248-.504-.748 0-.352.232-.696.64-.788a15 15 0 0 0-.184-.7c-.428.484-.852.972-.852 1.612M2.228.313c.112 0 .572.824.572 1.444 0 .572-.344 1.02-.72 1.456.084.272.156.552.224.828q.031-.002.056-.004c.62 0 1.02.516 1.02 1.048 0 .452-.296.848-.72.98q.019.21.02.42-.001.116-.008.232c-.028.476-.352.9-.808.912l.004-.172c.372-.008.612-.368.636-.764q.007-.11.008-.22.001-.184-.016-.368-.169.031-.32.032C1.22 6.137.808 5.27.808 4.641c0-.708.524-1.224.992-1.764-.116-.384-.208-.68-.208-1.384 0-.756.576-1.18.636-1.18m-.44 1.648c0 .22.048.46.14.76.328-.4.588-.808.588-1.304 0-.16-.024-.328-.084-.508a1.13 1.13 0 0 0-.644 1.052M13.668 3.693a.55.55 0 0 0-.532-.556c-.092 0-.28.04-.28.356 0 .364.304.544.528.544.088 0 .284-.032.284-.344m-.408-.648c.576 0 .984.26.984.544s-.408.544-.984.544-.98-.26-.98-.544.404-.544.98-.544M18.34 4.273c0-.364.464-.728.868-.728.252 0 .436.14.436.36 0 .348-.44.728-.88.728-.268 0-.424-.156-.424-.36" /><rect width=".13" height="3.15" x="-.07" y=".19" ry=".04" transform="translate(18.407 4.09)" /><path d="M24.736 5.23c0 .043-.037.08-.08.08s-.08-.037-.08-.08V3.95c0-.045.036-.08.08-.08s.08.035.08.08zm-2.669 0c0 .043-.036.08-.08.08s-.08-.037-.08-.08V3.95c0-.045.037-.08.08-.08s.08.035.08.08zm1.256-1.185c.012 0 .836.008.968.452V3.95c0-.044.036-.08.08-.08s.08.036.08.08v1.28c0 .044-.036.08-.08.08s-.08-.036-.08-.08v-.548c-.068.224-.424.452-.968.452-.012 0-.836-.008-.968-.452v.548c0 .044-.036.08-.08.08s-.08-.036-.08-.08V3.95c0-.044.037-.08.08-.08s.08.036.08.08v.548c.068-.224.424-.452.968-.452m.409.648c0-.408-.36-.556-.536-.556-.093 0-.28.04-.28.356a.54.54 0 0 0 .531.544c.088 0 .284-.032.284-.344M30.223 5.193a.55.55 0 0 0-.532-.556c-.092 0-.28.04-.28.356 0 .364.304.544.528.544.088 0 .284-.032.284-.344m-.408-.648c.576 0 .984.26.984.544s-.408.544-.984.544-.98-.26-.98-.544.404-.544.98-.544M34.895 6.273c0-.364.464-.728.868-.728.252 0 .436.14.436.36 0 .348-.44.728-.88.728-.268 0-.424-.156-.424-.36" /><rect width=".13" height="3.31" x="-.07" y="-1.5" ry=".04" transform="translate(36.132 4.09)" /></svg>