<svg xmlns="http://www.w3.org/2000/svg" width="680.31" height="54.05" viewBox="0 0 107.82 8.56" fill="currentColor" font-family="Linux Libertine"><style type="text/css">tspan{white-space:pre}</style><rect width=".2" height="4" x="0" y="-2" ry="0" transform="translate(22.32 4.519)" /><path stroke="currentColor" stroke-linecap="round" stroke-linejoin="round" stroke-width=".1" d="M.05 6.519h107.72M.05 5.519h107.72M.05 4.519h107.72M.05 3.519h107.72M.05 2.519h107.72" /><rect width=".62" height="4" x="0" y="-2" ry="0" transform="translate(107.2 4.519)" /><rect width=".2" height="4" x="0" y="-2" ry="0" transform="translate(106.693 4.519)" /><rect width=".2" height="4" x="0" y="-2" ry="0" transform="translate(88.872 4.519)" /><rect width=".2" height="4" x="0" y="-2" ry="0" transform="translate(71.601 4.519)" /><rect width="1.96" height=".2" x="72.29" y="-.1" ry=".1" transform="translate(0 7.519)" /><rect width=".2" height="4" x="0" y="-2" ry="0" transform="translate(54.33 4.519)" /><rect width=".2" height="4" x="0" y="-2" ry="0" transform="translate(37.037 4.519)" /><path d="M95.45 6.159c0 .044-.037.08-.08.08s-.08-.036-.08-.08v-1.28c0-.044.035-.08.08-.08s.08.035.08.08zm-2.669 0c0 .044-.036.08-.08.08s-.08-.036-.08-.08v-1.28c0-.044.036-.08.08-.08s.08.035.08.08zm1.256-1.184c.012 0 .836.008.968.452v-.548c0-.044.036-.08.08-.08s.08.036.08.08v1.28c0 .044-.036.08-.08.08s-.08-.036-.08-.08V5.61c-.068.224-.424.452-.968.452-.012 0-.836-.008-.968-.452v.548c0 .044-.036.08-.08.08s-.08-.036-.08-.08v-1.28c0-.044.036-.08.08-.08s.08.036.08.08v.548c.068-.224.424-.452.968-.452m.408.648c0-.408-.36-.556-.536-.556-.092 0-.28.04-.28.356a.54.54 0 0 0 .532.544c.088 0 .284-.032.284-.344M1.864 8.059H1.84a.783.783 0 0 1-.78-.788c0-.232.212-.412.448-.412.216 0 .38.188.38.412 0 .208-.172.38-.38.38a.3.3 0 0 1-.124-.024c.104.156.272.26.468.26h.016zm.54-3.144c.076.356.192.968.24 1.416a.67.67 0 0 0 .448-.652.753.753 0 0 0-.688-.764m-1.308.492c0 .448.392.988 1.112.988q.127 0 .272-.024a17 17 0 0 0-.252-1.456c-.316.032-.496.244-.496.476 0 .176.1.364.324.492q.029.03.028.06c0 .044-.04.088-.088.088-.06 0-.504-.248-.504-.748 0-.353.232-.697.64-.789a15 15 0 0 0-.184-.7c-.428.484-.852.972-.852 1.612M2.228.743c.112 0 .572.824.572 1.444 0 .572-.344 1.02-.72 1.456.084.272.156.552.224.828q.031-.002.056-.004c.62 0 1.02.516 1.02 1.048 0 .452-.296.848-.72.98q.019.21.02.42c0 .076-.004.156-.008.232-.028.476-.352.9-.808.912l.004-.172c.372-.008.612-.368.636-.764q.007-.11.008-.22.001-.184-.016-.368-.169.031-.32.032C1.22 6.567.808 5.699.808 5.07c0-.708.524-1.224.992-1.764-.116-.384-.208-.68-.208-1.384 0-.756.576-1.18.636-1.18m-.44 1.648c0 .22.048.46.14.76.328-.4.588-.808.588-1.304 0-.16-.024-.328-.084-.508a1.13 1.13 0 0 0-.644 1.052M4.185 2.043c0-.033.02-.06.052-.073l.184-.068V1.27c0-.04.032-.076.072-.076s.076.036.076.076v.58l.332-.124v-.632c0-.04.036-.076.076-.076s.072.036.072.076v.58l.128-.048q.014-.005.028-.004a.08.08 0 0 1 .08.08v.24c0 .032-.02.064-.052.076l-.184.064v.64l.128-.044q.014-.005.028-.004a.08.08 0 0 1 .08.08v.24c0 .032-.02.06-.052.072l-.184.068v.632c0 .04-.032.076-.072.076s-.076-.036-.076-.076v-.58l-.332.124v.632c0 .04-.036.076-.076.076s-.072-.036-.072-.076v-.58l-.128.048q-.014.005-.028.004a.08.08 0 0 1-.08-.08v-.24c0-.032.02-.064.052-.076l.184-.064v-.64l-.128.044q-.014.005-.028.004a.08.08 0 0 1-.08-.08zm.716.095-.332.12v.64l.332-.12zM5.285 3.543c0-.032.02-.06.052-.072l.184-.068V2.77c0-.04.032-.076.072-.076s.076.036.076.076v.58l.332-.124v-.632c0-.04.036-.077.076-.077s.072.037.072.077v.58l.128-.048c.008-.004.02-.004.028-.004a.08.08 0 0 1 .08.08v.24c0 .031-.02.063-.052.075l-.184.065v.64l.128-.044c.008-.004.02-.004.028-.004a.08.08 0 0 1 .08.08v.24c0 .032-.02.06-.052.072l-.184.068v.632c0 .04-.032.076-.072.076s-.076-.036-.076-.076v-.58l-.332.124v.632c0 .04-.036.076-.076.076s-.072-.037-.072-.077v-.58l-.128.048c-.008.004-.02.004-.028.004a.08.08 0 0 1-.08-.08v-.24c0-.032.02-.064.052-.076l.184-.064v-.64l-.128.044c-.008.004-.02.004-.028.004a.08.08 0 0 1-.08-.08zm.716.096-.332.12v.64l.332-.12zM15.729 6.123a.55.55 0 0 0-.532-.556c-.092 0-.28.04-.28.356 0 .364.304.544.528.544.088 0 .284-.032.284-.344m-.408-.648c.576 0 .984.26.984.544s-.408.544-.984.544-.98-.26-.98-.544.404-.544.98-.544M19.518 5.203c0-.364.464-.728.868-.728.252 0 .436.14.436.36 0 .348-.44.728-.88.728-.268 0-.424-.156-.424-.36" /><rect width=".13" height="3.31" x="-.07" y="-3" ry=".04" transform="translate(20.755 4.519)" /><path d="M25.842 5.659c0 .044-.036.08-.08.08s-.08-.036-.08-.08v-1.28c0-.044.036-.08.08-.08s.08.035.08.08zm-2.668 0c0 .044-.036.08-.08.08s-.08-.036-.08-.08v-1.28c0-.044.036-.08.08-.08s.08.035.08.08zm1.256-1.184c.012 0 .836.008.968.452v-.548c0-.044.036-.08.08-.08s.08.036.08.08v1.28c0 .044-.036.08-.08.08s-.08-.036-.08-.08V5.11c-.068.224-.424.452-.968.452-.012 0-.836-.008-.968-.452v.548c0 .044-.036.08-.08.08s-.08-.036-.08-.08v-1.28c0-.044.036-.08.08-.08s.08.036.08.08v.548c.068-.224.424-.452.968-.452m.408.648c0-.408-.36-.556-.536-.556-.092 0-.28.04-.28.356a.54.54 0 0 0 .532.544c.088 0 .284-.032.284-.344" /><text font-size="2.2" text-anchor="start" transform="translate(23.462 1.967)">
<tspan>2</tspan>
</text><path d="M11.124 7.659c0 .044-.036.08-.08.08s-.08-.036-.08-.08v-1.28c0-.044.036-.08.08-.08s.08.035.08.08zm-2.668 0c0 .044-.036.08-.08.08s-.08-.036-.08-.08v-1.28c0-.044.036-.08.08-.08s.08.035.08.08zm1.256-1.184c.012 0 .836.008.968.452v-.548c0-.044.036-.08.08-.08s.08.036.08.08v1.28c0 .044-.036.08-.08.08s-.08-.036-.08-.08V7.11c-.068.224-.424.452-.968.452-.012 0-.836-.008-.968-.452v.548c0 .044-.036.08-.08.08s-.08-.036-.08-.08v-1.28c0-.044.036-.08.08-.08s.08.036.08.08v.548c.068-.224.424-.452.968-.452m.408.648c0-.408-.36-.556-.536-.556-.092 0-.28.04-.28.356a.54.54 0 0 0 .532.544c.088 0 .284-.032.284-.344M30.447 4.623a.55.55 0 0 0-.532-.556c-.092 0-.28.04-.28.356 0 .364.304.544.528.544.088 0 .284-.032.284-.344m-.408-.648c.576 0 .984.26.984.544s-.408.544-.984.544-.98-.26-.98-.544.404-.545.98-.545M34.236 5.203c0-.364.464-.728.868-.728.252 0 .436.14.436.36 0 .348-.44.728-.88.728-.268 0-.424-.156-.424-.36" /><rect width=".13" height="3.31" x="-.07" y="-3" ry=".04" transform="translate(35.473 4.519)" /><path d="M38.048 5.203c0-.364.464-.728.868-.728.252 0 .436.14.436.36 0 .348-.44.728-.88.728-.268 0-.424-.156-.424-.36" /><text font-size="2.2" text-anchor="start" transform="translate(38.048 1.558)">
<tspan>3</tspan>
</text><rect width=".13" height="3.31" x="-.07" y="-3" ry=".04" transform="translate(39.285 4.519)" /><path d="M43.064 6.659c0 .044-.036.08-.08.08s-.08-.036-.08-.08v-1.28c0-.044.036-.08.08-.08s.08.035.08.08zm-2.668 0c0 .044-.036.08-.08.08s-.08-.036-.08-.08v-1.28c0-.044.036-.08.08-.08s.08.035.08.08zm1.256-1.184c.012 0 .836.008.968.452v-.548c0-.044.036-.08.08-.08s.08.036.08.08v1.28c0 .044-.036.08-.08.08s-.08-.036-.08-.08V6.11c-.068.224-.424.452-.968.452-.012 0-.836-.008-.968-.452v.548c0 .044-.036.08-.08.08s-.08-.036-.08-.08v-1.28c0-.044.036-.08.08-.08s.08.036.08.08v.548c.068-.224.424-.452.968-.452m.408.648c0-.408-.36-.556-.536-.556-.092 0-.28.04-.28.356a.54.54 0 0 0 .532.544c.088 0 .284-.032.284-.344M47.669 5.623a.55.55 0 0 0-.532-.556c-.093 0-.28.04-.28.356 0 .364.303.544.527.544.088 0 .284-.032.284-.344m-.408-.648c.575 0 .983.26.983.544s-.407.544-.983.544-.98-.26-.98-.544.404-.544.98-.544M44.83 5.043c0-.032.02-.06.053-.072l.183-.068V4.27c0-.04.032-.076.072-.076s.077.036.077.076v.58l.331-.124v-.632c0-.04.037-.076.077-.076s.072.036.072.076v.58l.128-.048q.014-.005.028-.004a.08.08 0 0 1 .08.08v.24c0 .032-.02.064-.052.076l-.184.064v.64l.128-.044q.014-.005.028-.004a.08.08 0 0 1 .08.08v.24c0 .032-.02.06-.052.072l-.184.068v.632c0 .04-.032.076-.072.076s-.076-.036-.076-.076v-.58l-.332.124v.632c0 .04-.037.076-.077.076s-.071-.036-.071-.076v-.58l-.129.048q-.014.005-.028.004a.08.08 0 0 1-.08-.08v-.24c0-.032.02-.064.053-.076l.183-.064v-.64l-.128.044q-.014.005-.028.004a.08.08 0 0 1-.08-.08zm.717.096-.332.12v.64l.331-.12zM51.457 6.203c0-.364.464-.728.868-.728.252 0 .436.14.436.36 0 .348-.44.728-.88.728-.268 0-.424-.156-.424-.36" /><rect width=".13" height="3.31" x="-.07" y="-2" ry=".04" transform="translate(52.694 4.519)" /><rect width=".13" height="3.31" x="-.07" y="-1" ry=".04" transform="translate(105.08 4.519)" /><path d="M55.34 6.203c0-.364.465-.728.869-.728.252 0 .436.14.436.36 0 .348-.44.728-.88.728-.268 0-.424-.156-.424-.36" /><text font-size="2.2" text-anchor="start" transform="translate(55.34 1.967)">
<tspan>4</tspan>
</text><path d="M103.843 7.203c0-.364.464-.728.868-.728.252 0 .436.14.436.36 0 .348-.44.728-.88.728-.268 0-.424-.156-.424-.36" /><rect width=".13" height="3.31" x="-.07" y="-2" ry=".04" transform="translate(56.578 4.519)" /><text font-size="2.2" text-anchor="start" transform="translate(8.744 1.967)">
<tspan>1</tspan>
</text><path d="M60.357 7.159c0 .044-.036.08-.08.08s-.08-.036-.08-.08v-1.28c0-.044.036-.08.08-.08s.08.035.08.08zm-2.668 0c0 .044-.036.08-.08.08s-.08-.036-.08-.08v-1.28c0-.044.036-.08.08-.08s.08.035.08.08zm1.256-1.184c.012 0 .836.008.968.452v-.548c0-.044.036-.08.08-.08s.08.036.08.08v1.28c0 .044-.036.08-.08.08s-.08-.036-.08-.08V6.61c-.068.224-.424.452-.968.452-.012 0-.836-.008-.968-.452v.548c0 .044-.036.08-.08.08s-.08-.036-.08-.08v-1.28c0-.044.036-.08.08-.08s.08.036.08.08v.548c.068-.224.424-.452.968-.452m.408.648c0-.408-.36-.556-.536-.556-.092 0-.28.04-.28.356a.54.54 0 0 0 .532.544c.088 0 .284-.032.284-.344M64.962 6.123a.55.55 0 0 0-.532-.556c-.092 0-.28.04-.28.356 0 .364.304.544.528.544.088 0 .284-.032.284-.344m-.408-.648c.576 0 .984.26.984.544s-.408.544-.984.544-.98-.26-.98-.544.404-.544.98-.544M68.75 7.203c0-.364.465-.728.869-.728.251 0 .435.14.435.36 0 .348-.44.728-.88.728-.267 0-.423-.156-.423-.36" /><rect width=".13" height="3.31" x="-.07" y="-1" ry=".04" transform="translate(69.987 4.519)" /><path d="M100.054 6.623a.55.55 0 0 0-.532-.556c-.092 0-.28.04-.28.356 0 .364.304.544.528.544.088 0 .284-.032.284-.344m-.408-.648c.576 0 .984.26.984.544s-.408.544-.984.544-.98-.26-.98-.544.404-.544.98-.544M72.612 8.202c0-.364.464-.728.868-.728.251 0 .435.14.435.36 0 .348-.44.728-.88.728-.267 0-.423-.155-.423-.36" /><text font-size="2.2" text-anchor="start" transform="translate(72.612 1.558)">
<tspan>(5)</tspan>
</text><rect width=".13" height="3.31" x="-.07" y="0" ry=".04" transform="translate(73.848 4.519)" /><path d="M77.628 7.659c0 .044-.036.08-.08.08s-.08-.036-.08-.08v-1.28c0-.044.036-.08.08-.08s.08.035.08.08zm-2.668 0c0 .044-.036.08-.08.08s-.08-.036-.08-.08v-1.28c0-.044.036-.08.08-.08s.08.035.08.08zm1.256-1.184c.012 0 .836.008.968.452v-.548c0-.044.036-.08.08-.08s.08.036.08.08v1.28c0 .044-.036.08-.08.08s-.08-.036-.08-.08V7.11c-.068.224-.424.452-.968.452-.012 0-.836-.008-.968-.452v.548c0 .044-.036.08-.08.08s-.08-.036-.08-.08v-1.28c0-.044.036-.08.08-.08s.08.036.08.08v.548c.068-.224.424-.452.968-.452m.408.648c0-.408-.36-.556-.536-.556-.092 0-.28.04-.28.356a.54.54 0 0 0 .532.544c.088 0 .284-.032.284-.344M91.558 4.019c.032-.016.068-.028.1-.028s.064.012.096.028l-.008.732.424-.08h.012c.04 0 .072.028.072.068l.028 2.28c-.032.016-.068.028-.1.028s-.064-.012-.096-.028l.008-.732-.424.08h-.012c-.04 0-.072-.028-.072-.068zm.552 1.051-.368.068-.012.828.368-.068zM82.232 6.623a.55.55 0 0 0-.532-.556c-.092 0-.28.04-.28.356 0 .364.304.544.528.544.088 0 .284-.032.284-.344m-.408-.648c.576 0 .984.26.984.544s-.408.544-.984.544-.98-.26-.98-.544.404-.544.98-.544M86.021 7.203c0-.364.464-.728.868-.728.252 0 .436.14.436.36 0 .348-.44.728-.88.728-.268 0-.424-.156-.424-.36" /><rect width=".13" height="3.31" x="-.07" y="-1" ry=".04" transform="translate(87.258 4.519)" /><path d="M89.882 7.203c0-.364.464-.728.868-.728.252 0 .436.14.436.36 0 .348-.44.728-.88.728-.268 0-.424-.156-.424-.36" /><text font-size="2.2" text-anchor="start" transform="translate(89.882 1.558)">
<tspan>(6)</tspan>
</text><rect width=".13" height="3.31" x="-.07" y="-1" ry=".04" transform="translate(91.12 4.519)" /></svg>