<svg xmlns="http://www.w3.org/2000/svg" width="680.31" height="55.33" viewBox="0 0 107.82 8.77" fill="currentColor" font-family="Linux Libertine"><style type="text/css">tspan{white-space:pre}</style><rect width=".2" height="4" x="0" y="-2" ry="0" transform="translate(24.173 5.217)" /><path stroke="currentColor" stroke-linecap="round" stroke-linejoin="round" stroke-width=".1" d="M.05 7.217h107.72M.05 6.217h107.72M.05 5.217h107.72M.05 4.217h107.72M.05 3.217h107.72" /><rect width=".62" height="4" x="0" y="-2" ry="0" transform="translate(107.2 5.217)" /><rect width=".2" height="4" x="0" y="-2" ry="0" transform="translate(106.693 5.217)" /><rect width=".2" height="4" x="0" y="-2" ry="0" transform="translate(90.227 5.217)" /><rect width=".2" height="4" x="0" y="-2" ry="0" transform="translate(73.832 5.217)" /><rect width=".2" height="4" x="0" y="-2" ry="0" transform="translate(57.401 5.217)" /><rect width=".2" height="4" x="0" y="-2" ry="0" transform="translate(40.934 5.217)" /><text font-size="2.2" text-anchor="start" transform="translate(58.544 2.256)">
<tspan>(4)</tspan>
</text><path d="M1.864 8.757H1.84a.783.783 0 0 1-.78-.788c0-.232.212-.412.448-.412.216 0 .38.188.38.412 0 .208-.172.38-.38.38a.3.3 0 0 1-.124-.024c.104.156.272.26.468.26h.016zm.54-3.144c.076.356.192.968.24 1.416a.67.67 0 0 0 .448-.652.753.753 0 0 0-.688-.764m-1.308.492c0 .448.392.988 1.112.988q.127 0 .272-.024a17 17 0 0 0-.252-1.456c-.316.032-.496.244-.496.476 0 .176.1.364.324.492q.029.03.028.06c0 .044-.04.088-.088.088-.06 0-.504-.248-.504-.748 0-.352.232-.696.64-.788a15 15 0 0 0-.184-.7c-.428.484-.852.972-.852 1.612m1.132-4.664c.112 0 .572.824.572 1.444 0 .572-.344 1.02-.72 1.456.084.272.156.552.224.828.02 0 .04-.004.056-.004.62 0 1.02.516 1.02 1.048 0 .452-.296.848-.72.98q.019.21.02.42-.001.116-.008.232c-.028.476-.352.9-.808.912l.004-.172c.372-.008.612-.368.636-.764a3.775 3.775 0 0 0-.008-.588q-.169.031-.32.032C1.22 7.265.808 6.397.808 5.77c0-.708.524-1.224.992-1.764-.116-.384-.208-.68-.208-1.384 0-.756.576-1.18.636-1.18m-.44 1.648c0 .22.048.46.14.76.328-.4.588-.808.588-1.304 0-.16-.024-.328-.084-.508a1.13 1.13 0 0 0-.644 1.052M4.413 5.053l-.004.264v.044q-.001.132.016.264c.18-.152.372-.32.372-.556 0-.132-.056-.268-.172-.268-.124 0-.208.12-.212.252m-.168.716-.048-2.38c.032-.02.072-.032.108-.032s.076.012.108.032l-.028 1.38a.58.58 0 0 1 .364-.136c.208 0 .356.192.356.408 0 .32-.344.468-.588.676-.06.052-.096.152-.18.152-.052 0-.092-.044-.092-.1M5.333 3.553l-.004.264v.044q-.001.132.016.264c.18-.152.372-.32.372-.556 0-.132-.056-.268-.172-.268-.124 0-.208.12-.212.252m-.168.716-.048-2.38c.032-.02.072-.032.108-.032s.076.012.108.032l-.028 1.38a.58.58 0 0 1 .364-.136c.208 0 .356.192.356.408 0 .32-.344.468-.588.676-.06.052-.096.152-.18.152-.052 0-.092-.044-.092-.1M16.35 5.321a.55.55 0 0 0-.532-.556c-.092 0-.28.04-.28.356 0 .364.304.544.528.544.088 0 .284-.032.284-.344m-.408-.648c.576 0 .984.26.984.544s-.408.544-.984.544-.98-.26-.98-.544.404-.544.98-.544" /><path stroke="currentColor" stroke-linecap="round" stroke-linejoin="round" stroke-width=".17" d="M41.045.083v2M41.045.083h32.87" /><path d="M20.985 6.401c0-.364.464-.728.868-.728.252 0 .436.14.436.36 0 .348-.44.728-.88.728-.268 0-.424-.156-.424-.36" /><rect width=".13" height="3.31" x="-.07" y="-2.5" ry=".04" transform="translate(22.222 5.217)" /><path d="M27.696 6.857c0 .044-.036.08-.08.08s-.08-.036-.08-.08v-1.28c0-.044.036-.08.08-.08s.08.036.08.08zm-2.668 0c0 .044-.036.08-.08.08s-.08-.036-.08-.08v-1.28c0-.044.036-.08.08-.08s.08.036.08.08zm1.256-1.184c.012 0 .836.008.968.452v-.548c0-.044.036-.08.08-.08s.08.036.08.08v1.28c0 .044-.036.08-.08.08s-.08-.036-.08-.08V6.31c-.068.224-.424.452-.968.452-.012 0-.836-.008-.968-.452v.548c0 .044-.036.08-.08.08s-.08-.036-.08-.08v-1.28c0-.044.036-.08.08-.08s.08.036.08.08v.548c.068-.224.424-.452.968-.452m.408.648c0-.408-.36-.556-.536-.556-.092 0-.28.04-.28.356a.54.54 0 0 0 .532.544c.088 0 .284-.032.284-.344" /><text font-size="2.2" text-anchor="start" transform="translate(25.316 2.666)">
<tspan>2</tspan>
</text><path d="M10.9 7.357c0 .044-.037.08-.08.08s-.08-.036-.08-.08v-1.28c0-.044.035-.08.08-.08s.08.036.08.08zm-2.669 0c0 .044-.036.08-.08.08s-.08-.036-.08-.08v-1.28c0-.044.036-.08.08-.08s.08.036.08.08zm1.256-1.184c.012 0 .836.008.968.452v-.548c0-.044.036-.08.08-.08s.08.036.08.08v1.28c0 .044-.036.08-.08.08s-.08-.036-.08-.08V6.81c-.068.224-.424.452-.968.452-.012 0-.836-.008-.968-.452v.548c0 .044-.036.08-.08.08s-.08-.036-.08-.08v-1.28c0-.044.036-.08.08-.08s.08.036.08.08v.548c.068-.224.424-.452.968-.452m.408.648c0-.408-.36-.556-.536-.556-.092 0-.28.04-.28.356a.54.54 0 0 0 .532.544c.088 0 .284-.032.284-.344M33.147 4.821a.55.55 0 0 0-.532-.556c-.092 0-.28.04-.28.356 0 .364.304.544.528.544.088 0 .284-.032.284-.344m-.408-.648c.576 0 .984.26.984.544s-.408.544-.984.544-.98-.26-.98-.544.404-.544.98-.544M37.782 5.901c0-.364.464-.728.868-.728.252 0 .436.14.436.36 0 .348-.44.728-.88.728-.268 0-.424-.156-.424-.36" /><rect width=".13" height="3.31" x="-.07" y="-3" ry=".04" transform="translate(39.02 5.217)" /><path d="M44.458 4.857c0 .044-.036.08-.08.08s-.08-.036-.08-.08v-1.28c0-.044.036-.08.08-.08s.08.036.08.08zm-2.668 0c0 .044-.036.08-.08.08s-.08-.036-.08-.08v-1.28c0-.044.036-.08.08-.08s.08.036.08.08zm1.256-1.184c.012 0 .836.008.968.452v-.548c0-.044.036-.08.08-.08s.08.036.08.08v1.28c0 .044-.036.08-.08.08s-.08-.036-.08-.08V4.31c-.068.224-.424.452-.968.452-.012 0-.836-.008-.968-.452v.548c0 .044-.037.08-.08.08s-.08-.036-.08-.08v-1.28c0-.044.036-.08.08-.08s.08.036.08.08v.548c.067-.224.423-.452.967-.452m.407.648c0-.408-.36-.556-.536-.556-.092 0-.28.04-.28.356a.54.54 0 0 0 .532.544c.089 0 .285-.032.285-.344" /><text font-size="2.2" text-anchor="start" transform="translate(42.078 2.256)">
<tspan>(3)</tspan>
</text><path d="M49.908 4.821a.55.55 0 0 0-.532-.556c-.092 0-.28.04-.28.356 0 .364.304.544.528.544.088 0 .284-.032.284-.344m-.408-.648c.576 0 .984.26.984.544s-.408.544-.984.544-.98-.26-.98-.544.404-.544.98-.544M54.544 5.401c0-.364.464-.728.868-.728.252 0 .436.14.436.36 0 .348-.44.728-.88.728-.268 0-.424-.156-.424-.36" /><rect width=".13" height="3.15" x="-.07" y=".19" ry=".04" transform="translate(54.61 5.217)" /><path d="M60.924 4.857c0 .044-.036.08-.08.08s-.08-.036-.08-.08v-1.28c0-.044.036-.08.08-.08s.08.036.08.08zm-2.668 0c0 .044-.036.08-.08.08s-.08-.036-.08-.08v-1.28c0-.044.036-.08.08-.08s.08.036.08.08zm1.256-1.184c.012 0 .836.008.968.452v-.548c0-.044.036-.08.08-.08s.08.036.08.08v1.28c0 .044-.036.08-.08.08s-.08-.036-.08-.08V4.31c-.068.224-.424.452-.968.452-.012 0-.836-.008-.968-.452v.548c0 .044-.036.08-.08.08s-.08-.036-.08-.08v-1.28c0-.044.036-.08.08-.08s.08.036.08.08v.548c.068-.224.424-.452.968-.452m.408.648c0-.408-.36-.556-.536-.556-.092 0-.28.04-.28.356a.54.54 0 0 0 .532.544c.088 0 .284-.032.284-.344" /><text font-size="2.2" text-anchor="start" transform="translate(8.52 2.666)">
<tspan>1</tspan>
</text><path d="M66.375 4.821a.55.55 0 0 0-.532-.556c-.092 0-.28.04-.28.356 0 .364.304.544.528.544.088 0 .284-.032.284-.344m-.408-.648c.576 0 .984.26.984.544s-.408.544-.984.544-.98-.26-.98-.544.404-.544.98-.544" /><rect width=".13" height="3.15" x="-.07" y=".19" ry=".04" transform="translate(103.903 5.217)" /><path d="M71.01 4.901c0-.364.464-.728.868-.728.252 0 .436.14.436.36 0 .348-.44.728-.88.728-.268 0-.424-.156-.424-.36" /><rect width=".13" height="3.31" x="-.07" y="-.31" ry=".04" transform="translate(71.077 5.217)" /><path d="M103.836 5.401c0-.364.464-.728.868-.728.252 0 .436.14.436.36 0 .348-.44.728-.88.728-.268 0-.424-.156-.424-.36M77.355 5.857c0 .044-.036.08-.08.08s-.08-.036-.08-.08v-1.28c0-.044.036-.08.08-.08s.08.036.08.08zm-2.668 0c0 .044-.036.08-.08.08s-.08-.036-.08-.08v-1.28c0-.044.036-.08.08-.08s.08.036.08.08zm1.256-1.184c.012 0 .836.008.968.452v-.548c0-.044.036-.08.08-.08s.08.036.08.08v1.28c0 .044-.036.08-.08.08s-.08-.036-.08-.08V5.31c-.068.224-.424.452-.968.452-.012 0-.836-.008-.968-.452v.548c0 .044-.036.08-.08.08s-.08-.036-.08-.08v-1.28c0-.044.036-.08.08-.08s.08.036.08.08v.548c.068-.224.424-.452.968-.452m.408.648c0-.408-.36-.556-.536-.556-.092 0-.28.04-.28.356a.54.54 0 0 0 .532.544c.088 0 .284-.032.284-.344" /><text font-size="2.2" text-anchor="start" transform="translate(74.975 2.666)">
<tspan>5</tspan>
</text><path d="M82.806 4.821a.55.55 0 0 0-.532-.556c-.092 0-.28.04-.28.356 0 .364.304.544.528.544.088 0 .284-.032.284-.344m-.408-.648c.576 0 .984.26.984.544s-.408.544-.984.544-.98-.26-.98-.544.404-.544.98-.544M87.44 4.401c0-.364.465-.728.869-.728.252 0 .436.14.436.36 0 .348-.44.728-.88.728-.268 0-.424-.156-.424-.36" /><rect width=".13" height="3.31" x="-.07" y="-.81" ry=".04" transform="translate(87.508 5.217)" /><path d="M99.2 5.321a.55.55 0 0 0-.531-.556c-.092 0-.28.04-.28.356 0 .364.304.544.528.544.088 0 .284-.032.284-.344m-.407-.648c.576 0 .984.26.984.544s-.408.544-.984.544-.98-.26-.98-.544.404-.544.98-.544M93.75 6.857c0 .044-.036.08-.08.08s-.08-.036-.08-.08v-1.28c0-.044.036-.08.08-.08s.08.036.08.08zm-2.668 0c0 .044-.036.08-.08.08s-.08-.036-.08-.08v-1.28c0-.044.036-.08.08-.08s.08.036.08.08zm1.256-1.184c.012 0 .836.008.968.452v-.548c0-.044.036-.08.08-.08s.08.036.08.08v1.28c0 .044-.036.08-.08.08s-.08-.036-.08-.08V6.31c-.068.224-.424.452-.968.452-.012 0-.836-.008-.968-.452v.548c0 .044-.036.08-.08.08s-.08-.036-.08-.08v-1.28c0-.044.036-.08.08-.08s.08.036.08.08v.548c.068-.224.424-.452.968-.452m.408.648c0-.408-.36-.556-.536-.556-.092 0-.28.04-.28.356a.54.54 0 0 0 .532.544c.088 0 .284-.032.284-.344" /><text font-size="2.2" text-anchor="start" transform="translate(91.37 2.666)">
<tspan>6</tspan>
</text></svg>