<svg xmlns="http://www.w3.org/2000/svg" width="419.04" height="55.33" viewBox="0 0 66.41 8.77" fill="currentColor" font-family="Linux Libertine"><style type="text/css">tspan{white-space:pre}</style><rect width=".2" height="4" x="0" y="-2" ry="0" transform="translate(17.468 5.217)" /><path stroke="currentColor" stroke-linecap="round" stroke-linejoin="round" stroke-width=".1" d="M.05 7.217h66.31M.05 6.217h66.31M.05 5.217h66.31M.05 4.217h66.31M.05 3.217h66.31" /><rect width=".62" height="4" x="0" y="-2" ry="0" transform="translate(65.79 5.217)" /><rect width=".2" height="4" x="0" y="-2" ry="0" transform="translate(65.283 5.217)" /><rect width=".2" height="4" x="0" y="-2" ry="0" transform="translate(51.24 5.217)" /><rect width=".2" height="4" x="0" y="-2" ry="0" transform="translate(34.354 5.217)" /><rect width=".13" height="3.31" x="-.07" y="-3" ry=".04" transform="translate(63.352 5.217)" /><path stroke="currentColor" stroke-linecap="round" stroke-linejoin="round" stroke-width=".17" d="M34.464.083v2M34.464.083h16.86" /><path d="M10.165 6.357c0 .044-.036.08-.08.08s-.08-.036-.08-.08v-1.28c0-.044.036-.08.08-.08s.08.036.08.08zm-2.668 0c0 .044-.036.08-.08.08s-.08-.036-.08-.08v-1.28c0-.044.036-.08.08-.08s.08.036.08.08zm1.256-1.184c.012 0 .836.008.968.452v-.548c0-.044.036-.08.08-.08s.08.036.08.08v1.28c0 .044-.036.08-.08.08s-.08-.036-.08-.08V5.81c-.068.224-.424.452-.968.452-.012 0-.836-.008-.968-.452v.548c0 .044-.036.08-.08.08s-.08-.036-.08-.08v-1.28c0-.044.036-.08.08-.08s.08.036.08.08v.548c.068-.224.424-.452.968-.452m.408.648c0-.408-.36-.556-.536-.556-.092 0-.28.04-.28.356a.54.54 0 0 0 .532.544c.088 0 .284-.032.284-.344" /><text font-size="2.2" text-anchor="start" transform="translate(7.785 2.256)">
<tspan>(1)</tspan>
</text><path d="M1.864 8.757H1.84a.783.783 0 0 1-.78-.788c0-.232.212-.412.448-.412.216 0 .38.188.38.412 0 .208-.172.38-.38.38a.3.3 0 0 1-.124-.024c.104.156.272.26.468.26h.016zm.54-3.144c.076.356.192.968.24 1.416a.67.67 0 0 0 .448-.652.753.753 0 0 0-.688-.764m-1.308.492c0 .448.392.988 1.112.988q.127 0 .272-.024a17 17 0 0 0-.252-1.456c-.316.032-.496.244-.496.476 0 .176.1.364.324.492q.029.03.028.06c0 .044-.04.088-.088.088-.06 0-.504-.248-.504-.748 0-.352.232-.696.64-.788a15 15 0 0 0-.184-.7c-.428.484-.852.972-.852 1.612m1.132-4.664c.112 0 .572.824.572 1.444 0 .572-.344 1.02-.72 1.456.084.272.156.552.224.828.02 0 .04-.004.056-.004.62 0 1.02.516 1.02 1.048 0 .452-.296.848-.72.98q.019.21.02.42-.001.116-.008.232c-.028.476-.352.9-.808.912l.004-.172c.372-.008.612-.368.636-.764a3.775 3.775 0 0 0-.008-.588q-.169.031-.32.032C1.22 7.265.808 6.397.808 5.77c0-.708.524-1.224.992-1.764-.116-.384-.208-.68-.208-1.384 0-.756.576-1.18.636-1.18m-.44 1.648c0 .22.048.46.14.76.328-.4.588-.808.588-1.304 0-.16-.024-.328-.084-.508a1.13 1.13 0 0 0-.644 1.052M4.185 2.741c0-.032.02-.06.052-.072l.184-.068V1.97c0-.04.032-.076.072-.076s.076.036.076.076v.58l.332-.124v-.632c0-.04.036-.076.076-.076s.072.036.072.076v.58l.128-.048q.014-.005.028-.004a.08.08 0 0 1 .08.08v.24c0 .032-.02.064-.052.076l-.184.064v.64l.128-.044q.014-.005.028-.004a.08.08 0 0 1 .08.08v.24c0 .032-.02.06-.052.072l-.184.068v.632c0 .04-.032.076-.072.076s-.076-.036-.076-.076v-.58l-.332.124v.632c0 .04-.036.076-.076.076s-.072-.036-.072-.076v-.58l-.128.048q-.014.005-.028.004a.08.08 0 0 1-.08-.08v-.24c0-.032.02-.064.052-.076l.184-.064v-.64l-.128.044q-.014.005-.028.004a.08.08 0 0 1-.08-.08zm.716.096-.332.12v.64l.332-.12zM14.265 6.401c0-.364.464-.728.868-.728.252 0 .436.14.436.36 0 .348-.44.728-.88.728-.268 0-.424-.156-.424-.36" /><rect width=".13" height="3.31" x="-.07" y="-2.5" ry=".04" transform="translate(15.502 5.217)" /><path d="M20.991 6.357c0 .044-.036.08-.08.08s-.08-.036-.08-.08v-1.28c0-.044.036-.08.08-.08s.08.036.08.08zm-2.668 0c0 .044-.036.08-.08.08s-.08-.036-.08-.08v-1.28c0-.044.036-.08.08-.08s.08.036.08.08zm1.256-1.184c.012 0 .836.008.968.452v-.548c0-.044.036-.08.08-.08s.08.036.08.08v1.28c0 .044-.036.08-.08.08s-.08-.036-.08-.08V5.81c-.068.224-.424.452-.968.452-.012 0-.836-.008-.968-.452v.548c0 .044-.036.08-.08.08s-.08-.036-.08-.08v-1.28c0-.044.036-.08.08-.08s.08.036.08.08v.548c.068-.224.424-.452.968-.452m.408.648c0-.408-.36-.556-.536-.556-.092 0-.28.04-.28.356a.54.54 0 0 0 .532.544c.088 0 .284-.032.284-.344" /><text font-size="2.2" text-anchor="start" transform="translate(18.611 2.666)">
<tspan>2</tspan>
</text><path d="M26.479 5.321a.55.55 0 0 0-.532-.556c-.092 0-.28.04-.28.356 0 .364.304.544.528.544.088 0 .284-.032.284-.344m-.408-.648c.576 0 .984.26.984.544s-.408.544-.984.544-.98-.26-.98-.544.404-.544.98-.544M31.15 6.401c0-.364.465-.728.869-.728.252 0 .436.14.436.36 0 .348-.44.728-.88.728-.268 0-.424-.156-.424-.36" /><rect width=".13" height="3.31" x="-.07" y="-2.5" ry=".04" transform="translate(32.388 5.217)" /><path d="M37.877 6.857c0 .044-.036.08-.08.08s-.08-.036-.08-.08v-1.28c0-.044.036-.08.08-.08s.08.036.08.08zm-2.668 0c0 .044-.036.08-.08.08s-.08-.036-.08-.08v-1.28c0-.044.036-.08.08-.08s.08.036.08.08zm1.256-1.184c.012 0 .836.008.968.452v-.548c0-.044.036-.08.08-.08s.08.036.08.08v1.28c0 .044-.036.08-.08.08s-.08-.036-.08-.08V6.31c-.068.224-.424.452-.968.452-.012 0-.836-.008-.968-.452v.548c0 .044-.036.08-.08.08s-.08-.036-.08-.08v-1.28c0-.044.036-.08.08-.08s.08.036.08.08v.548c.068-.224.424-.452.968-.452m.408.648c0-.408-.36-.556-.536-.556-.092 0-.28.04-.28.356a.54.54 0 0 0 .532.544c.088 0 .284-.032.284-.344" /><text font-size="2.2" text-anchor="start" transform="translate(35.497 2.256)">
<tspan>(3)</tspan>
</text><path stroke="currentColor" stroke-linecap="round" stroke-linejoin="round" stroke-width=".17" d="M6.205.083v2M6.205.083h11.35" /><path d="M43.365 7.321a.55.55 0 0 0-.532-.556c-.092 0-.28.04-.28.356 0 .364.304.544.528.544.088 0 .284-.032.284-.344m-.408-.648c.576 0 .984.26.984.544s-.408.544-.984.544-.98-.26-.98-.544.404-.544.98-.544M48.037 6.401c0-.364.464-.728.868-.728.252 0 .436.14.436.36 0 .348-.44.728-.88.728-.268 0-.424-.156-.424-.36" /><rect width=".13" height="3.31" x="-.07" y="-2.5" ry=".04" transform="translate(49.274 5.217)" /><path d="M54.763 6.857c0 .044-.036.08-.08.08s-.08-.036-.08-.08v-1.28c0-.044.036-.08.08-.08s.08.036.08.08zm-2.668 0c0 .044-.036.08-.08.08s-.08-.036-.08-.08v-1.28c0-.044.036-.08.08-.08s.08.036.08.08zm1.256-1.184c.012 0 .836.008.968.452v-.548c0-.044.036-.08.08-.08s.08.036.08.08v1.28c0 .044-.036.08-.08.08s-.08-.036-.08-.08V6.31c-.068.224-.424.452-.968.452-.012 0-.836-.008-.968-.452v.548c0 .044-.036.08-.08.08s-.08-.036-.08-.08v-1.28c0-.044.036-.08.08-.08s.08.036.08.08v.548c.068-.224.424-.452.968-.452m.408.648c0-.408-.36-.556-.536-.556-.092 0-.28.04-.28.356a.54.54 0 0 0 .532.544c.088 0 .284-.032.284-.344" /><text font-size="2.2" text-anchor="start" transform="translate(52.383 2.666)">
<tspan>4</tspan>
</text><path d="M58.863 6.901c0-.364.464-.728.868-.728.252 0 .436.14.436.36 0 .348-.44.728-.88.728-.268 0-.424-.156-.424-.36" /><rect width=".13" height="3.31" x="-.07" y="-2" ry=".04" transform="translate(60.1 5.217)" /><path d="M62.115 5.901c0-.364.464-.728.868-.728.252 0 .436.14.436.36 0 .348-.44.728-.88.728-.268 0-.424-.156-.424-.36" /></svg>